<?xml version="1.0" encoding="UTF-8" standalone="no"?>
<!DOCTYPE svg PUBLIC "-//W3C//DTD SVG 1.1//EN"
 "http://www.w3.org/Graphics/SVG/1.1/DTD/svg11.dtd">
<!-- Generated by graphviz version 2.47.3 (20210619.1520)
 -->
<!-- Title: dependencies Pages: 1 -->
<svg width="1244pt" height="174pt"
 viewBox="0.00 0.00 1244.00 173.80" xmlns="http://www.w3.org/2000/svg" xmlns:xlink="http://www.w3.org/1999/xlink">
<g id="graph0" class="graph" transform="scale(1 1) rotate(0) translate(4 169.8)">
<title>dependencies</title>
<polygon fill="white" stroke="transparent" points="-4,4 -4,-169.8 1240,-169.8 1240,4 -4,4"/>
<text text-anchor="middle" x="618" y="-8.2" font-family="sans-serif" font-size="14.00">dependencies</text>
<g id="clust1" class="cluster">
<title>cluster_AdventureItineraryPageModule</title>
<polygon fill="none" stroke="black" stroke-dasharray="1,5" points="8,-32.8 8,-157.8 1228,-157.8 1228,-32.8 8,-32.8"/>
</g>
<g id="clust4" class="cluster">
<title>cluster_AdventureItineraryPageModule_imports</title>
<polygon fill="none" stroke="black" points="588,-40.8 588,-92.8 1220,-92.8 1220,-40.8 588,-40.8"/>
</g>
<g id="clust7" class="cluster">
<title>cluster_AdventureItineraryPageModule_providers</title>
<polygon fill="none" stroke="black" points="256,-40.8 256,-92.8 580,-92.8 580,-40.8 256,-40.8"/>
</g>
<g id="clust2" class="cluster">
<title>cluster_AdventureItineraryPageModule_declarations</title>
<polygon fill="none" stroke="black" points="16,-40.8 16,-92.8 248,-92.8 248,-40.8 16,-40.8"/>
</g>
<!-- AdventureItineraryPageComponent -->
<g id="node1" class="node">
<title>AdventureItineraryPageComponent</title>
<polygon fill="#ffffb3" stroke="black" points="239.82,-84.8 24.18,-84.8 24.18,-48.8 239.82,-48.8 239.82,-84.8"/>
<text text-anchor="middle" x="132" y="-62.6" font-family="Times,serif" font-size="14.00">AdventureItineraryPageComponent</text>
</g>
<!-- AdventureItineraryPageModule -->
<g id="node2" class="node">
<title>AdventureItineraryPageModule</title>
<polygon fill="#8dd3c7" stroke="black" points="769.04,-149.8 766.04,-153.8 745.04,-153.8 742.04,-149.8 574.96,-149.8 574.96,-113.8 769.04,-113.8 769.04,-149.8"/>
<text text-anchor="middle" x="672" y="-127.6" font-family="Times,serif" font-size="14.00">AdventureItineraryPageModule</text>
</g>
<!-- AdventureItineraryPageComponent&#45;&gt;AdventureItineraryPageModule -->
<g id="edge1" class="edge">
<title>AdventureItineraryPageComponent&#45;&gt;AdventureItineraryPageModule</title>
<path fill="none" stroke="black" d="M132,-85.08C132,-106.12 132,-137.8 132,-137.8 132,-137.8 564.84,-137.8 564.84,-137.8"/>
<polygon fill="black" stroke="black" points="564.84,-141.3 574.84,-137.8 564.84,-134.3 564.84,-141.3"/>
</g>
<!-- GenerateRoadmapModule -->
<g id="node3" class="node">
<title>GenerateRoadmapModule</title>
<polygon fill="#8dd3c7" stroke="black" points="1211.72,-84.8 1208.72,-88.8 1187.72,-88.8 1184.72,-84.8 1048.28,-84.8 1048.28,-48.8 1211.72,-48.8 1211.72,-84.8"/>
<text text-anchor="middle" x="1130" y="-62.6" font-family="Times,serif" font-size="14.00">GenerateRoadmapModule</text>
</g>
<!-- GenerateRoadmapModule&#45;&gt;AdventureItineraryPageModule -->
<g id="edge2" class="edge">
<title>GenerateRoadmapModule&#45;&gt;AdventureItineraryPageModule</title>
<path fill="none" stroke="black" d="M1130,-85.08C1130,-106.12 1130,-137.8 1130,-137.8 1130,-137.8 779.13,-137.8 779.13,-137.8"/>
<polygon fill="black" stroke="black" points="779.13,-134.3 769.13,-137.8 779.13,-141.3 779.13,-134.3"/>
</g>
<!-- ItineraryModule -->
<g id="node4" class="node">
<title>ItineraryModule</title>
<polygon fill="#8dd3c7" stroke="black" points="1029.74,-84.8 1026.74,-88.8 1005.74,-88.8 1002.74,-84.8 922.26,-84.8 922.26,-48.8 1029.74,-48.8 1029.74,-84.8"/>
<text text-anchor="middle" x="976" y="-62.6" font-family="Times,serif" font-size="14.00">ItineraryModule</text>
</g>
<!-- ItineraryModule&#45;&gt;AdventureItineraryPageModule -->
<g id="edge3" class="edge">
<title>ItineraryModule&#45;&gt;AdventureItineraryPageModule</title>
<path fill="none" stroke="black" d="M976,-84.82C976,-102.17 976,-125.8 976,-125.8 976,-125.8 779.02,-125.8 779.02,-125.8"/>
<polygon fill="black" stroke="black" points="779.02,-122.3 769.02,-125.8 779.02,-129.3 779.02,-122.3"/>
</g>
<!-- NetflixLoaderModule -->
<g id="node5" class="node">
<title>NetflixLoaderModule</title>
<polygon fill="#8dd3c7" stroke="black" points="904.35,-84.8 901.35,-88.8 880.35,-88.8 877.35,-84.8 765.65,-84.8 765.65,-48.8 904.35,-48.8 904.35,-84.8"/>
<text text-anchor="middle" x="835" y="-62.6" font-family="Times,serif" font-size="14.00">NetflixLoaderModule</text>
</g>
<!-- NetflixLoaderModule&#45;&gt;AdventureItineraryPageModule -->
<g id="edge4" class="edge">
<title>NetflixLoaderModule&#45;&gt;AdventureItineraryPageModule</title>
<path fill="none" stroke="black" d="M765.48,-66.8C760.16,-66.8 756.81,-66.8 756.81,-66.8 756.81,-66.8 756.81,-103.69 756.81,-103.69"/>
<polygon fill="black" stroke="black" points="753.31,-103.69 756.81,-113.69 760.31,-103.69 753.31,-103.69"/>
</g>
<!-- SimpleTemplateModule -->
<g id="node6" class="node">
<title>SimpleTemplateModule</title>
<polygon fill="#8dd3c7" stroke="black" points="748.09,-84.8 745.09,-88.8 724.09,-88.8 721.09,-84.8 595.91,-84.8 595.91,-48.8 748.09,-48.8 748.09,-84.8"/>
<text text-anchor="middle" x="672" y="-62.6" font-family="Times,serif" font-size="14.00">SimpleTemplateModule</text>
</g>
<!-- SimpleTemplateModule&#45;&gt;AdventureItineraryPageModule -->
<g id="edge5" class="edge">
<title>SimpleTemplateModule&#45;&gt;AdventureItineraryPageModule</title>
<path fill="none" stroke="black" d="M672,-84.91C672,-84.91 672,-103.79 672,-103.79"/>
<polygon fill="black" stroke="black" points="668.5,-103.79 672,-113.79 675.5,-103.79 668.5,-103.79"/>
</g>
<!-- InstanceService -->
<g id="node7" class="node">
<title>InstanceService</title>
<ellipse fill="#fdb462" stroke="black" cx="500" cy="-66.8" rx="72.33" ry="18"/>
<text text-anchor="middle" x="500" y="-62.6" font-family="Times,serif" font-size="14.00">InstanceService</text>
</g>
<!-- InstanceService&#45;&gt;AdventureItineraryPageModule -->
<g id="edge6" class="edge">
<title>InstanceService&#45;&gt;AdventureItineraryPageModule</title>
<path fill="none" stroke="black" d="M572.49,-66.8C580.29,-66.8 585.47,-66.8 585.47,-66.8 585.47,-66.8 585.47,-103.69 585.47,-103.69"/>
<polygon fill="black" stroke="black" points="581.97,-103.69 585.47,-113.69 588.97,-103.69 581.97,-103.69"/>
</g>
<!-- ItineraryService -->
<g id="node8" class="node">
<title>ItineraryService</title>
<ellipse fill="#fdb462" stroke="black" cx="337" cy="-66.8" rx="73.47" ry="18"/>
<text text-anchor="middle" x="337" y="-62.6" font-family="Times,serif" font-size="14.00">ItineraryService</text>
</g>
<!-- ItineraryService&#45;&gt;AdventureItineraryPageModule -->
<g id="edge7" class="edge">
<title>ItineraryService&#45;&gt;AdventureItineraryPageModule</title>
<path fill="none" stroke="black" d="M337,-84.82C337,-102.17 337,-125.8 337,-125.8 337,-125.8 564.65,-125.8 564.65,-125.8"/>
<polygon fill="black" stroke="black" points="564.65,-129.3 574.65,-125.8 564.65,-122.3 564.65,-129.3"/>
</g>
</g>
</svg>
