<?xml version="1.0" encoding="UTF-8" standalone="no"?>
<!DOCTYPE svg PUBLIC "-//W3C//DTD SVG 1.1//EN"
 "http://www.w3.org/Graphics/SVG/1.1/DTD/svg11.dtd">
<!-- Generated by graphviz version 2.47.3 (20210619.1520)
 -->
<!-- Title: dependencies Pages: 1 -->
<svg width="970pt" height="247pt"
 viewBox="0.00 0.00 970.00 246.80" xmlns="http://www.w3.org/2000/svg" xmlns:xlink="http://www.w3.org/1999/xlink">
<g id="graph0" class="graph" transform="scale(1 1) rotate(0) translate(4 242.8)">
<title>dependencies</title>
<polygon fill="white" stroke="transparent" points="-4,4 -4,-242.8 966,-242.8 966,4 -4,4"/>
<text text-anchor="middle" x="481" y="-8.2" font-family="sans-serif" font-size="14.00">dependencies</text>
<g id="clust1" class="cluster">
<title>cluster_SaveRoadmapButtonModule</title>
<polygon fill="none" stroke="black" stroke-dasharray="1,5" points="8,-32.8 8,-230.8 954,-230.8 954,-32.8 8,-32.8"/>
</g>
<g id="clust7" class="cluster">
<title>cluster_SaveRoadmapButtonModule_providers</title>
<polygon fill="none" stroke="black" points="418,-40.8 418,-92.8 946,-92.8 946,-40.8 418,-40.8"/>
</g>
<g id="clust2" class="cluster">
<title>cluster_SaveRoadmapButtonModule_declarations</title>
<polygon fill="none" stroke="black" points="206,-40.8 206,-92.8 410,-92.8 410,-40.8 206,-40.8"/>
</g>
<g id="clust5" class="cluster">
<title>cluster_SaveRoadmapButtonModule_exports</title>
<polygon fill="none" stroke="black" points="395,-170.8 395,-222.8 601,-222.8 601,-170.8 395,-170.8"/>
</g>
<g id="clust4" class="cluster">
<title>cluster_SaveRoadmapButtonModule_imports</title>
<polygon fill="none" stroke="black" points="16,-40.8 16,-92.8 198,-92.8 198,-40.8 16,-40.8"/>
</g>
<!-- SaveRoadmapButtonDirective -->
<g id="node1" class="node">
<title>SaveRoadmapButtonDirective</title>
<polygon fill="#ffffb3" stroke="black" points="401.57,-84.8 214.43,-84.8 214.43,-48.8 401.57,-48.8 401.57,-84.8"/>
<text text-anchor="middle" x="308" y="-62.6" font-family="Times,serif" font-size="14.00">SaveRoadmapButtonDirective</text>
</g>
<!-- SaveRoadmapButtonModule -->
<g id="node2" class="node">
<title>SaveRoadmapButtonModule</title>
<polygon fill="#8dd3c7" stroke="black" points="587.04,-149.8 584.04,-153.8 563.04,-153.8 560.04,-149.8 408.96,-149.8 408.96,-113.8 587.04,-113.8 587.04,-149.8"/>
<text text-anchor="middle" x="498" y="-127.6" font-family="Times,serif" font-size="14.00">SaveRoadmapButtonModule</text>
</g>
<!-- SaveRoadmapButtonDirective&#45;&gt;SaveRoadmapButtonModule -->
<g id="edge1" class="edge">
<title>SaveRoadmapButtonDirective&#45;&gt;SaveRoadmapButtonModule</title>
<path fill="none" stroke="black" d="M401.63,-66.8C411.08,-66.8 417.28,-66.8 417.28,-66.8 417.28,-66.8 417.28,-103.69 417.28,-103.69"/>
<polygon fill="black" stroke="black" points="413.78,-103.69 417.28,-113.69 420.78,-103.69 413.78,-103.69"/>
</g>
<!-- SaveRoadmapButtonDirective  -->
<g id="node4" class="node">
<title>SaveRoadmapButtonDirective </title>
<polygon fill="#fb8072" stroke="black" points="593.07,-214.8 402.93,-214.8 402.93,-178.8 593.07,-178.8 593.07,-214.8"/>
<text text-anchor="middle" x="498" y="-192.6" font-family="Times,serif" font-size="14.00">SaveRoadmapButtonDirective </text>
</g>
<!-- SaveRoadmapButtonModule&#45;&gt;SaveRoadmapButtonDirective  -->
<g id="edge3" class="edge">
<title>SaveRoadmapButtonModule&#45;&gt;SaveRoadmapButtonDirective </title>
<path fill="none" stroke="black" stroke-dasharray="5,2" d="M498,-149.91C498,-149.91 498,-168.79 498,-168.79"/>
<polygon fill="black" stroke="black" points="494.5,-168.79 498,-178.79 501.5,-168.79 494.5,-168.79"/>
</g>
<!-- RegistrationDialogModule -->
<g id="node3" class="node">
<title>RegistrationDialogModule</title>
<polygon fill="#8dd3c7" stroke="black" points="190.09,-84.8 187.09,-88.8 166.09,-88.8 163.09,-84.8 23.91,-84.8 23.91,-48.8 190.09,-48.8 190.09,-84.8"/>
<text text-anchor="middle" x="107" y="-62.6" font-family="Times,serif" font-size="14.00">RegistrationDialogModule</text>
</g>
<!-- RegistrationDialogModule&#45;&gt;SaveRoadmapButtonModule -->
<g id="edge2" class="edge">
<title>RegistrationDialogModule&#45;&gt;SaveRoadmapButtonModule</title>
<path fill="none" stroke="black" d="M107,-84.91C107,-104.14 107,-131.8 107,-131.8 107,-131.8 398.79,-131.8 398.79,-131.8"/>
<polygon fill="black" stroke="black" points="398.79,-135.3 408.79,-131.8 398.79,-128.3 398.79,-135.3"/>
</g>
<!-- ApplicationClient -->
<g id="node5" class="node">
<title>ApplicationClient</title>
<ellipse fill="#fdb462" stroke="black" cx="858" cy="-66.8" rx="80.47" ry="18"/>
<text text-anchor="middle" x="858" y="-62.6" font-family="Times,serif" font-size="14.00">ApplicationClient</text>
</g>
<!-- ApplicationClient&#45;&gt;SaveRoadmapButtonModule -->
<g id="edge4" class="edge">
<title>ApplicationClient&#45;&gt;SaveRoadmapButtonModule</title>
<path fill="none" stroke="black" d="M858,-84.91C858,-104.14 858,-131.8 858,-131.8 858,-131.8 597.45,-131.8 597.45,-131.8"/>
<polygon fill="black" stroke="black" points="597.45,-128.3 587.45,-131.8 597.45,-135.3 597.45,-128.3"/>
</g>
<!-- ApplicationService -->
<g id="node6" class="node">
<title>ApplicationService</title>
<ellipse fill="#fdb462" stroke="black" cx="674" cy="-66.8" rx="85.67" ry="18"/>
<text text-anchor="middle" x="674" y="-62.6" font-family="Times,serif" font-size="14.00">ApplicationService</text>
</g>
<!-- ApplicationService&#45;&gt;SaveRoadmapButtonModule -->
<g id="edge5" class="edge">
<title>ApplicationService&#45;&gt;SaveRoadmapButtonModule</title>
<path fill="none" stroke="black" d="M588.2,-66.8C582.35,-66.8 578.72,-66.8 578.72,-66.8 578.72,-66.8 578.72,-103.69 578.72,-103.69"/>
<polygon fill="black" stroke="black" points="575.22,-103.69 578.72,-113.69 582.22,-103.69 575.22,-103.69"/>
</g>
<!-- InstanceService -->
<g id="node7" class="node">
<title>InstanceService</title>
<ellipse fill="#fdb462" stroke="black" cx="498" cy="-66.8" rx="72.33" ry="18"/>
<text text-anchor="middle" x="498" y="-62.6" font-family="Times,serif" font-size="14.00">InstanceService</text>
</g>
<!-- InstanceService&#45;&gt;SaveRoadmapButtonModule -->
<g id="edge6" class="edge">
<title>InstanceService&#45;&gt;SaveRoadmapButtonModule</title>
<path fill="none" stroke="black" d="M498,-84.91C498,-84.91 498,-103.79 498,-103.79"/>
<polygon fill="black" stroke="black" points="494.5,-103.79 498,-113.79 501.5,-103.79 494.5,-103.79"/>
</g>
</g>
</svg>
