<?xml version="1.0" encoding="UTF-8" standalone="no"?>
<!DOCTYPE svg PUBLIC "-//W3C//DTD SVG 1.1//EN"
 "http://www.w3.org/Graphics/SVG/1.1/DTD/svg11.dtd">
<!-- Generated by graphviz version 2.47.3 (20210619.1520)
 -->
<!-- Title: dependencies Pages: 1 -->
<svg width="1152pt" height="247pt"
 viewBox="0.00 0.00 1152.00 246.80" xmlns="http://www.w3.org/2000/svg" xmlns:xlink="http://www.w3.org/1999/xlink">
<g id="graph0" class="graph" transform="scale(1 1) rotate(0) translate(4 242.8)">
<title>dependencies</title>
<polygon fill="white" stroke="transparent" points="-4,4 -4,-242.8 1148,-242.8 1148,4 -4,4"/>
<text text-anchor="middle" x="572" y="-8.2" font-family="sans-serif" font-size="14.00">dependencies</text>
<g id="clust1" class="cluster">
<title>cluster_CmqBtpNumeriqueHomeModule</title>
<polygon fill="none" stroke="black" stroke-dasharray="1,5" points="8,-32.8 8,-230.8 1136,-230.8 1136,-32.8 8,-32.8"/>
</g>
<g id="clust5" class="cluster">
<title>cluster_CmqBtpNumeriqueHomeModule_exports</title>
<polygon fill="none" stroke="black" points="393,-170.8 393,-222.8 639,-222.8 639,-170.8 393,-170.8"/>
</g>
<g id="clust2" class="cluster">
<title>cluster_CmqBtpNumeriqueHomeModule_declarations</title>
<polygon fill="none" stroke="black" points="886,-40.8 886,-92.8 1128,-92.8 1128,-40.8 886,-40.8"/>
</g>
<g id="clust4" class="cluster">
<title>cluster_CmqBtpNumeriqueHomeModule_imports</title>
<polygon fill="none" stroke="black" points="16,-40.8 16,-92.8 878,-92.8 878,-40.8 16,-40.8"/>
</g>
<!-- CmqBtpNumeriqueHomeComponent -->
<g id="node1" class="node">
<title>CmqBtpNumeriqueHomeComponent</title>
<polygon fill="#ffffb3" stroke="black" points="1119.98,-84.8 894.02,-84.8 894.02,-48.8 1119.98,-48.8 1119.98,-84.8"/>
<text text-anchor="middle" x="1007" y="-62.6" font-family="Times,serif" font-size="14.00">CmqBtpNumeriqueHomeComponent</text>
</g>
<!-- CmqBtpNumeriqueHomeModule -->
<g id="node2" class="node">
<title>CmqBtpNumeriqueHomeModule</title>
<polygon fill="#8dd3c7" stroke="black" points="618.19,-149.8 615.19,-153.8 594.19,-153.8 591.19,-149.8 413.81,-149.8 413.81,-113.8 618.19,-113.8 618.19,-149.8"/>
<text text-anchor="middle" x="516" y="-127.6" font-family="Times,serif" font-size="14.00">CmqBtpNumeriqueHomeModule</text>
</g>
<!-- CmqBtpNumeriqueHomeComponent&#45;&gt;CmqBtpNumeriqueHomeModule -->
<g id="edge1" class="edge">
<title>CmqBtpNumeriqueHomeComponent&#45;&gt;CmqBtpNumeriqueHomeModule</title>
<path fill="none" stroke="black" d="M1007,-85.08C1007,-106.12 1007,-137.8 1007,-137.8 1007,-137.8 628.33,-137.8 628.33,-137.8"/>
<polygon fill="black" stroke="black" points="628.33,-134.3 618.33,-137.8 628.33,-141.3 628.33,-134.3"/>
</g>
<!-- CmqBtpNumeriqueHomeComponent  -->
<g id="node8" class="node">
<title>CmqBtpNumeriqueHomeComponent </title>
<polygon fill="#fb8072" stroke="black" points="630.98,-214.8 401.02,-214.8 401.02,-178.8 630.98,-178.8 630.98,-214.8"/>
<text text-anchor="middle" x="516" y="-192.6" font-family="Times,serif" font-size="14.00">CmqBtpNumeriqueHomeComponent </text>
</g>
<!-- CmqBtpNumeriqueHomeModule&#45;&gt;CmqBtpNumeriqueHomeComponent  -->
<g id="edge7" class="edge">
<title>CmqBtpNumeriqueHomeModule&#45;&gt;CmqBtpNumeriqueHomeComponent </title>
<path fill="none" stroke="black" stroke-dasharray="5,2" d="M516,-149.91C516,-149.91 516,-168.79 516,-168.79"/>
<polygon fill="black" stroke="black" points="512.5,-168.79 516,-178.79 519.5,-168.79 512.5,-168.79"/>
</g>
<!-- FeaturesContainerModule -->
<g id="node3" class="node">
<title>FeaturesContainerModule</title>
<polygon fill="#8dd3c7" stroke="black" points="870.18,-84.8 867.18,-88.8 846.18,-88.8 843.18,-84.8 707.82,-84.8 707.82,-48.8 870.18,-48.8 870.18,-84.8"/>
<text text-anchor="middle" x="789" y="-62.6" font-family="Times,serif" font-size="14.00">FeaturesContainerModule</text>
</g>
<!-- FeaturesContainerModule&#45;&gt;CmqBtpNumeriqueHomeModule -->
<g id="edge2" class="edge">
<title>FeaturesContainerModule&#45;&gt;CmqBtpNumeriqueHomeModule</title>
<path fill="none" stroke="black" d="M789,-84.82C789,-102.17 789,-125.8 789,-125.8 789,-125.8 628.43,-125.8 628.43,-125.8"/>
<polygon fill="black" stroke="black" points="628.43,-122.3 618.43,-125.8 628.43,-129.3 628.43,-122.3"/>
</g>
<!-- HomeBannerContainerModule -->
<g id="node4" class="node">
<title>HomeBannerContainerModule</title>
<polygon fill="#8dd3c7" stroke="black" points="689.9,-84.8 686.9,-88.8 665.9,-88.8 662.9,-84.8 500.1,-84.8 500.1,-48.8 689.9,-48.8 689.9,-84.8"/>
<text text-anchor="middle" x="595" y="-62.6" font-family="Times,serif" font-size="14.00">HomeBannerContainerModule</text>
</g>
<!-- HomeBannerContainerModule&#45;&gt;CmqBtpNumeriqueHomeModule -->
<g id="edge3" class="edge">
<title>HomeBannerContainerModule&#45;&gt;CmqBtpNumeriqueHomeModule</title>
<path fill="none" stroke="black" d="M559.2,-84.91C559.2,-84.91 559.2,-103.79 559.2,-103.79"/>
<polygon fill="black" stroke="black" points="555.7,-103.79 559.2,-113.79 562.7,-103.79 555.7,-103.79"/>
</g>
<!-- LogoModule -->
<g id="node5" class="node">
<title>LogoModule</title>
<polygon fill="#8dd3c7" stroke="black" points="482.6,-84.8 479.6,-88.8 458.6,-88.8 455.6,-84.8 393.4,-84.8 393.4,-48.8 482.6,-48.8 482.6,-84.8"/>
<text text-anchor="middle" x="438" y="-62.6" font-family="Times,serif" font-size="14.00">LogoModule</text>
</g>
<!-- LogoModule&#45;&gt;CmqBtpNumeriqueHomeModule -->
<g id="edge4" class="edge">
<title>LogoModule&#45;&gt;CmqBtpNumeriqueHomeModule</title>
<path fill="none" stroke="black" d="M448.23,-84.91C448.23,-84.91 448.23,-103.79 448.23,-103.79"/>
<polygon fill="black" stroke="black" points="444.73,-103.79 448.23,-113.79 451.73,-103.79 444.73,-103.79"/>
</g>
<!-- MillionroadsProductModule -->
<g id="node6" class="node">
<title>MillionroadsProductModule</title>
<polygon fill="#8dd3c7" stroke="black" points="375.93,-84.8 372.93,-88.8 351.93,-88.8 348.93,-84.8 200.07,-84.8 200.07,-48.8 375.93,-48.8 375.93,-84.8"/>
<text text-anchor="middle" x="288" y="-62.6" font-family="Times,serif" font-size="14.00">MillionroadsProductModule</text>
</g>
<!-- MillionroadsProductModule&#45;&gt;CmqBtpNumeriqueHomeModule -->
<g id="edge5" class="edge">
<title>MillionroadsProductModule&#45;&gt;CmqBtpNumeriqueHomeModule</title>
<path fill="none" stroke="black" d="M288,-84.82C288,-102.17 288,-125.8 288,-125.8 288,-125.8 403.67,-125.8 403.67,-125.8"/>
<polygon fill="black" stroke="black" points="403.67,-129.3 413.67,-125.8 403.67,-122.3 403.67,-129.3"/>
</g>
<!-- PartnershipLogosModule -->
<g id="node7" class="node">
<title>PartnershipLogosModule</title>
<polygon fill="#8dd3c7" stroke="black" points="182.31,-84.8 179.31,-88.8 158.31,-88.8 155.31,-84.8 23.69,-84.8 23.69,-48.8 182.31,-48.8 182.31,-84.8"/>
<text text-anchor="middle" x="103" y="-62.6" font-family="Times,serif" font-size="14.00">PartnershipLogosModule</text>
</g>
<!-- PartnershipLogosModule&#45;&gt;CmqBtpNumeriqueHomeModule -->
<g id="edge6" class="edge">
<title>PartnershipLogosModule&#45;&gt;CmqBtpNumeriqueHomeModule</title>
<path fill="none" stroke="black" d="M103,-85.08C103,-106.12 103,-137.8 103,-137.8 103,-137.8 403.64,-137.8 403.64,-137.8"/>
<polygon fill="black" stroke="black" points="403.64,-141.3 413.64,-137.8 403.64,-134.3 403.64,-141.3"/>
</g>
</g>
</svg>
