<?xml version="1.0" encoding="UTF-8" standalone="no"?>
<!DOCTYPE svg PUBLIC "-//W3C//DTD SVG 1.1//EN"
 "http://www.w3.org/Graphics/SVG/1.1/DTD/svg11.dtd">
<!-- Generated by graphviz version 2.47.3 (20210619.1520)
 -->
<!-- Title: dependencies Pages: 1 -->
<svg width="762pt" height="174pt"
 viewBox="0.00 0.00 762.00 173.80" xmlns="http://www.w3.org/2000/svg" xmlns:xlink="http://www.w3.org/1999/xlink">
<g id="graph0" class="graph" transform="scale(1 1) rotate(0) translate(4 169.8)">
<title>dependencies</title>
<polygon fill="white" stroke="transparent" points="-4,4 -4,-169.8 758,-169.8 758,4 -4,4"/>
<text text-anchor="middle" x="377" y="-8.2" font-family="sans-serif" font-size="14.00">dependencies</text>
<g id="clust1" class="cluster">
<title>cluster_RewardsPageModule</title>
<polygon fill="none" stroke="black" stroke-dasharray="1,5" points="8,-32.8 8,-157.8 746,-157.8 746,-32.8 8,-32.8"/>
</g>
<g id="clust2" class="cluster">
<title>cluster_RewardsPageModule_declarations</title>
<polygon fill="none" stroke="black" points="564,-40.8 564,-92.8 738,-92.8 738,-40.8 564,-40.8"/>
</g>
<g id="clust4" class="cluster">
<title>cluster_RewardsPageModule_imports</title>
<polygon fill="none" stroke="black" points="16,-40.8 16,-92.8 556,-92.8 556,-40.8 16,-40.8"/>
</g>
<!-- RewardsPageComponent -->
<g id="node1" class="node">
<title>RewardsPageComponent</title>
<polygon fill="#ffffb3" stroke="black" points="729.52,-84.8 572.48,-84.8 572.48,-48.8 729.52,-48.8 729.52,-84.8"/>
<text text-anchor="middle" x="651" y="-62.6" font-family="Times,serif" font-size="14.00">RewardsPageComponent</text>
</g>
<!-- RewardsPageModule -->
<g id="node2" class="node">
<title>RewardsPageModule</title>
<polygon fill="#8dd3c7" stroke="black" points="429.74,-149.8 426.74,-153.8 405.74,-153.8 402.74,-149.8 294.26,-149.8 294.26,-113.8 429.74,-113.8 429.74,-149.8"/>
<text text-anchor="middle" x="362" y="-127.6" font-family="Times,serif" font-size="14.00">RewardsPageModule</text>
</g>
<!-- RewardsPageComponent&#45;&gt;RewardsPageModule -->
<g id="edge1" class="edge">
<title>RewardsPageComponent&#45;&gt;RewardsPageModule</title>
<path fill="none" stroke="black" d="M651,-84.91C651,-104.14 651,-131.8 651,-131.8 651,-131.8 439.76,-131.8 439.76,-131.8"/>
<polygon fill="black" stroke="black" points="439.76,-128.3 429.76,-131.8 439.76,-135.3 439.76,-128.3"/>
</g>
<!-- NavigationTemplateModule -->
<g id="node3" class="node">
<title>NavigationTemplateModule</title>
<polygon fill="#8dd3c7" stroke="black" points="548.13,-84.8 545.13,-88.8 524.13,-88.8 521.13,-84.8 373.87,-84.8 373.87,-48.8 548.13,-48.8 548.13,-84.8"/>
<text text-anchor="middle" x="461" y="-62.6" font-family="Times,serif" font-size="14.00">NavigationTemplateModule</text>
</g>
<!-- NavigationTemplateModule&#45;&gt;RewardsPageModule -->
<g id="edge2" class="edge">
<title>NavigationTemplateModule&#45;&gt;RewardsPageModule</title>
<path fill="none" stroke="black" d="M401.78,-84.91C401.78,-84.91 401.78,-103.79 401.78,-103.79"/>
<polygon fill="black" stroke="black" points="398.28,-103.79 401.78,-113.79 405.28,-103.79 398.28,-103.79"/>
</g>
<!-- RewardHowToDialogModule -->
<g id="node4" class="node">
<title>RewardHowToDialogModule</title>
<polygon fill="#8dd3c7" stroke="black" points="355.95,-84.8 352.95,-88.8 331.95,-88.8 328.95,-84.8 172.05,-84.8 172.05,-48.8 355.95,-48.8 355.95,-84.8"/>
<text text-anchor="middle" x="264" y="-62.6" font-family="Times,serif" font-size="14.00">RewardHowToDialogModule</text>
</g>
<!-- RewardHowToDialogModule&#45;&gt;RewardsPageModule -->
<g id="edge3" class="edge">
<title>RewardHowToDialogModule&#45;&gt;RewardsPageModule</title>
<path fill="none" stroke="black" d="M325.05,-84.91C325.05,-84.91 325.05,-103.79 325.05,-103.79"/>
<polygon fill="black" stroke="black" points="321.55,-103.79 325.05,-113.79 328.55,-103.79 321.55,-103.79"/>
</g>
<!-- RewardsListModule -->
<g id="node5" class="node">
<title>RewardsListModule</title>
<polygon fill="#8dd3c7" stroke="black" points="154.31,-84.8 151.31,-88.8 130.31,-88.8 127.31,-84.8 23.69,-84.8 23.69,-48.8 154.31,-48.8 154.31,-84.8"/>
<text text-anchor="middle" x="89" y="-62.6" font-family="Times,serif" font-size="14.00">RewardsListModule</text>
</g>
<!-- RewardsListModule&#45;&gt;RewardsPageModule -->
<g id="edge4" class="edge">
<title>RewardsListModule&#45;&gt;RewardsPageModule</title>
<path fill="none" stroke="black" d="M89,-84.91C89,-104.14 89,-131.8 89,-131.8 89,-131.8 284.17,-131.8 284.17,-131.8"/>
<polygon fill="black" stroke="black" points="284.17,-135.3 294.17,-131.8 284.17,-128.3 284.17,-135.3"/>
</g>
</g>
</svg>
