<?xml version="1.0" encoding="UTF-8" standalone="no"?>
<!DOCTYPE svg PUBLIC "-//W3C//DTD SVG 1.1//EN"
 "http://www.w3.org/Graphics/SVG/1.1/DTD/svg11.dtd">
<!-- Generated by graphviz version 2.47.3 (20210619.1520)
 -->
<!-- Title: dependencies Pages: 1 -->
<svg width="460pt" height="247pt"
 viewBox="0.00 0.00 460.00 246.80" xmlns="http://www.w3.org/2000/svg" xmlns:xlink="http://www.w3.org/1999/xlink">
<g id="graph0" class="graph" transform="scale(1 1) rotate(0) translate(4 242.8)">
<title>dependencies</title>
<polygon fill="white" stroke="transparent" points="-4,4 -4,-242.8 456,-242.8 456,4 -4,4"/>
<text text-anchor="middle" x="226" y="-8.2" font-family="sans-serif" font-size="14.00">dependencies</text>
<g id="clust1" class="cluster">
<title>cluster_NavigateToAnchorModule</title>
<polygon fill="none" stroke="black" stroke-dasharray="1,5" points="8,-32.8 8,-230.8 444,-230.8 444,-32.8 8,-32.8"/>
</g>
<g id="clust2" class="cluster">
<title>cluster_NavigateToAnchorModule_declarations</title>
<polygon fill="none" stroke="black" points="244,-40.8 244,-92.8 436,-92.8 436,-40.8 244,-40.8"/>
</g>
<g id="clust5" class="cluster">
<title>cluster_NavigateToAnchorModule_exports</title>
<polygon fill="none" stroke="black" points="134,-170.8 134,-222.8 330,-222.8 330,-170.8 134,-170.8"/>
</g>
<g id="clust7" class="cluster">
<title>cluster_NavigateToAnchorModule_providers</title>
<polygon fill="none" stroke="black" points="16,-40.8 16,-92.8 236,-92.8 236,-40.8 16,-40.8"/>
</g>
<!-- NavigateToAnchorDirective -->
<g id="node1" class="node">
<title>NavigateToAnchorDirective</title>
<polygon fill="#ffffb3" stroke="black" points="428.15,-84.8 251.85,-84.8 251.85,-48.8 428.15,-48.8 428.15,-84.8"/>
<text text-anchor="middle" x="340" y="-62.6" font-family="Times,serif" font-size="14.00">NavigateToAnchorDirective</text>
</g>
<!-- NavigateToAnchorModule -->
<g id="node2" class="node">
<title>NavigateToAnchorModule</title>
<polygon fill="#8dd3c7" stroke="black" points="315.62,-149.8 312.62,-153.8 291.62,-153.8 288.62,-149.8 148.38,-149.8 148.38,-113.8 315.62,-113.8 315.62,-149.8"/>
<text text-anchor="middle" x="232" y="-127.6" font-family="Times,serif" font-size="14.00">NavigateToAnchorModule</text>
</g>
<!-- NavigateToAnchorDirective&#45;&gt;NavigateToAnchorModule -->
<g id="edge1" class="edge">
<title>NavigateToAnchorDirective&#45;&gt;NavigateToAnchorModule</title>
<path fill="none" stroke="black" d="M283.87,-84.91C283.87,-84.91 283.87,-103.79 283.87,-103.79"/>
<polygon fill="black" stroke="black" points="280.37,-103.79 283.87,-113.79 287.37,-103.79 280.37,-103.79"/>
</g>
<!-- NavigateToAnchorDirective  -->
<g id="node3" class="node">
<title>NavigateToAnchorDirective </title>
<polygon fill="#fb8072" stroke="black" points="321.65,-214.8 142.35,-214.8 142.35,-178.8 321.65,-178.8 321.65,-214.8"/>
<text text-anchor="middle" x="232" y="-192.6" font-family="Times,serif" font-size="14.00">NavigateToAnchorDirective </text>
</g>
<!-- NavigateToAnchorModule&#45;&gt;NavigateToAnchorDirective  -->
<g id="edge2" class="edge">
<title>NavigateToAnchorModule&#45;&gt;NavigateToAnchorDirective </title>
<path fill="none" stroke="black" stroke-dasharray="5,2" d="M232,-149.91C232,-149.91 232,-168.79 232,-168.79"/>
<polygon fill="black" stroke="black" points="228.5,-168.79 232,-178.79 235.5,-168.79 228.5,-168.79"/>
</g>
<!-- NavigationStateService -->
<g id="node4" class="node">
<title>NavigationStateService</title>
<ellipse fill="#fdb462" stroke="black" cx="126" cy="-66.8" rx="102.42" ry="18"/>
<text text-anchor="middle" x="126" y="-62.6" font-family="Times,serif" font-size="14.00">NavigationStateService</text>
</g>
<!-- NavigationStateService&#45;&gt;NavigateToAnchorModule -->
<g id="edge3" class="edge">
<title>NavigationStateService&#45;&gt;NavigateToAnchorModule</title>
<path fill="none" stroke="black" d="M188.2,-81.23C188.2,-81.23 188.2,-103.69 188.2,-103.69"/>
<polygon fill="black" stroke="black" points="184.7,-103.69 188.2,-113.69 191.7,-103.69 184.7,-103.69"/>
</g>
</g>
</svg>
