<?xml version="1.0" encoding="UTF-8" standalone="no"?>
<!DOCTYPE svg PUBLIC "-//W3C//DTD SVG 1.1//EN"
 "http://www.w3.org/Graphics/SVG/1.1/DTD/svg11.dtd">
<!-- Generated by graphviz version 2.47.3 (20210619.1520)
 -->
<!-- Title: dependencies Pages: 1 -->
<svg width="1218pt" height="247pt"
 viewBox="0.00 0.00 1218.00 246.80" xmlns="http://www.w3.org/2000/svg" xmlns:xlink="http://www.w3.org/1999/xlink">
<g id="graph0" class="graph" transform="scale(1 1) rotate(0) translate(4 242.8)">
<title>dependencies</title>
<polygon fill="white" stroke="transparent" points="-4,4 -4,-242.8 1214,-242.8 1214,4 -4,4"/>
<text text-anchor="middle" x="605" y="-8.2" font-family="sans-serif" font-size="14.00">dependencies</text>
<g id="clust1" class="cluster">
<title>cluster_TeamModule</title>
<polygon fill="none" stroke="black" stroke-dasharray="1,5" points="8,-32.8 8,-230.8 1202,-230.8 1202,-32.8 8,-32.8"/>
</g>
<g id="clust6" class="cluster">
<title>cluster_TeamModule_exports</title>
<polygon fill="none" stroke="black" points="444,-170.8 444,-222.8 780,-222.8 780,-170.8 444,-170.8"/>
</g>
<g id="clust5" class="cluster">
<title>cluster_TeamModule_imports</title>
<polygon fill="none" stroke="black" points="353,-40.8 353,-92.8 1194,-92.8 1194,-40.8 353,-40.8"/>
</g>
<g id="clust2" class="cluster">
<title>cluster_TeamModule_declarations</title>
<polygon fill="none" stroke="black" points="16,-40.8 16,-92.8 345,-92.8 345,-40.8 16,-40.8"/>
</g>
<!-- TeamFullComponent -->
<g id="node1" class="node">
<title>TeamFullComponent</title>
<polygon fill="#ffffb3" stroke="black" points="336.77,-84.8 201.23,-84.8 201.23,-48.8 336.77,-48.8 336.77,-84.8"/>
<text text-anchor="middle" x="269" y="-62.6" font-family="Times,serif" font-size="14.00">TeamFullComponent</text>
</g>
<!-- TeamModule -->
<g id="node3" class="node">
<title>TeamModule</title>
<polygon fill="#8dd3c7" stroke="black" points="662.92,-149.8 659.92,-153.8 638.92,-153.8 635.92,-149.8 571.08,-149.8 571.08,-113.8 662.92,-113.8 662.92,-149.8"/>
<text text-anchor="middle" x="617" y="-127.6" font-family="Times,serif" font-size="14.00">TeamModule</text>
</g>
<!-- TeamFullComponent&#45;&gt;TeamModule -->
<g id="edge1" class="edge">
<title>TeamFullComponent&#45;&gt;TeamModule</title>
<path fill="none" stroke="black" d="M269,-84.91C269,-104.14 269,-131.8 269,-131.8 269,-131.8 561.15,-131.8 561.15,-131.8"/>
<polygon fill="black" stroke="black" points="561.15,-135.3 571.15,-131.8 561.15,-128.3 561.15,-135.3"/>
</g>
<!-- TeamPreviewComponent -->
<g id="node2" class="node">
<title>TeamPreviewComponent</title>
<polygon fill="#ffffb3" stroke="black" points="183.57,-84.8 24.43,-84.8 24.43,-48.8 183.57,-48.8 183.57,-84.8"/>
<text text-anchor="middle" x="104" y="-62.6" font-family="Times,serif" font-size="14.00">TeamPreviewComponent</text>
</g>
<!-- TeamPreviewComponent&#45;&gt;TeamModule -->
<g id="edge2" class="edge">
<title>TeamPreviewComponent&#45;&gt;TeamModule</title>
<path fill="none" stroke="black" d="M104,-85.09C104,-107.01 104,-140.8 104,-140.8 104,-140.8 561.02,-140.8 561.02,-140.8"/>
<polygon fill="black" stroke="black" points="561.02,-144.3 571.02,-140.8 561.02,-137.3 561.02,-144.3"/>
</g>
<!-- TeamFullComponent  -->
<g id="node9" class="node">
<title>TeamFullComponent </title>
<polygon fill="#fb8072" stroke="black" points="771.77,-214.8 632.23,-214.8 632.23,-178.8 771.77,-178.8 771.77,-214.8"/>
<text text-anchor="middle" x="702" y="-192.6" font-family="Times,serif" font-size="14.00">TeamFullComponent </text>
</g>
<!-- TeamModule&#45;&gt;TeamFullComponent  -->
<g id="edge8" class="edge">
<title>TeamModule&#45;&gt;TeamFullComponent </title>
<path fill="none" stroke="black" stroke-dasharray="5,2" d="M647.54,-149.91C647.54,-149.91 647.54,-168.79 647.54,-168.79"/>
<polygon fill="black" stroke="black" points="644.04,-168.79 647.54,-178.79 651.04,-168.79 644.04,-168.79"/>
</g>
<!-- TeamPreviewComponent  -->
<g id="node10" class="node">
<title>TeamPreviewComponent </title>
<polygon fill="#fb8072" stroke="black" points="614.07,-214.8 451.93,-214.8 451.93,-178.8 614.07,-178.8 614.07,-214.8"/>
<text text-anchor="middle" x="533" y="-192.6" font-family="Times,serif" font-size="14.00">TeamPreviewComponent </text>
</g>
<!-- TeamModule&#45;&gt;TeamPreviewComponent  -->
<g id="edge9" class="edge">
<title>TeamModule&#45;&gt;TeamPreviewComponent </title>
<path fill="none" stroke="black" stroke-dasharray="5,2" d="M592.79,-149.91C592.79,-149.91 592.79,-168.79 592.79,-168.79"/>
<polygon fill="black" stroke="black" points="589.29,-168.79 592.79,-178.79 596.29,-168.79 589.29,-168.79"/>
</g>
<!-- HumanProfileDialogModule -->
<g id="node4" class="node">
<title>HumanProfileDialogModule</title>
<polygon fill="#8dd3c7" stroke="black" points="1186.46,-84.8 1183.46,-88.8 1162.46,-88.8 1159.46,-84.8 1009.54,-84.8 1009.54,-48.8 1186.46,-48.8 1186.46,-84.8"/>
<text text-anchor="middle" x="1098" y="-62.6" font-family="Times,serif" font-size="14.00">HumanProfileDialogModule</text>
</g>
<!-- HumanProfileDialogModule&#45;&gt;TeamModule -->
<g id="edge3" class="edge">
<title>HumanProfileDialogModule&#45;&gt;TeamModule</title>
<path fill="none" stroke="black" d="M1098,-85.09C1098,-107.01 1098,-140.8 1098,-140.8 1098,-140.8 673.12,-140.8 673.12,-140.8"/>
<polygon fill="black" stroke="black" points="673.12,-137.3 663.12,-140.8 673.12,-144.3 673.12,-137.3"/>
</g>
<!-- PoiCardModule -->
<g id="node5" class="node">
<title>PoiCardModule</title>
<polygon fill="#8dd3c7" stroke="black" points="991.94,-84.8 988.94,-88.8 967.94,-88.8 964.94,-84.8 886.06,-84.8 886.06,-48.8 991.94,-48.8 991.94,-84.8"/>
<text text-anchor="middle" x="939" y="-62.6" font-family="Times,serif" font-size="14.00">PoiCardModule</text>
</g>
<!-- PoiCardModule&#45;&gt;TeamModule -->
<g id="edge4" class="edge">
<title>PoiCardModule&#45;&gt;TeamModule</title>
<path fill="none" stroke="black" d="M939,-84.91C939,-104.14 939,-131.8 939,-131.8 939,-131.8 672.79,-131.8 672.79,-131.8"/>
<polygon fill="black" stroke="black" points="672.79,-128.3 662.79,-131.8 672.79,-135.3 672.79,-128.3"/>
</g>
<!-- PreviewSectionModule -->
<g id="node6" class="node">
<title>PreviewSectionModule</title>
<polygon fill="#8dd3c7" stroke="black" points="868.91,-84.8 865.91,-88.8 844.91,-88.8 841.91,-84.8 721.09,-84.8 721.09,-48.8 868.91,-48.8 868.91,-84.8"/>
<text text-anchor="middle" x="795" y="-62.6" font-family="Times,serif" font-size="14.00">PreviewSectionModule</text>
</g>
<!-- PreviewSectionModule&#45;&gt;TeamModule -->
<g id="edge5" class="edge">
<title>PreviewSectionModule&#45;&gt;TeamModule</title>
<path fill="none" stroke="black" d="M746.46,-84.83C746.46,-101.2 746.46,-122.8 746.46,-122.8 746.46,-122.8 673.01,-122.8 673.01,-122.8"/>
<polygon fill="black" stroke="black" points="673.01,-119.3 663.01,-122.8 673.01,-126.3 673.01,-119.3"/>
</g>
<!-- ProfessionalContactModule -->
<g id="node7" class="node">
<title>ProfessionalContactModule</title>
<polygon fill="#8dd3c7" stroke="black" points="703.3,-84.8 700.3,-88.8 679.3,-88.8 676.3,-84.8 530.7,-84.8 530.7,-48.8 703.3,-48.8 703.3,-84.8"/>
<text text-anchor="middle" x="617" y="-62.6" font-family="Times,serif" font-size="14.00">ProfessionalContactModule</text>
</g>
<!-- ProfessionalContactModule&#45;&gt;TeamModule -->
<g id="edge6" class="edge">
<title>ProfessionalContactModule&#45;&gt;TeamModule</title>
<path fill="none" stroke="black" d="M617,-84.91C617,-84.91 617,-103.79 617,-103.79"/>
<polygon fill="black" stroke="black" points="613.5,-103.79 617,-113.79 620.5,-103.79 613.5,-103.79"/>
</g>
<!-- RewardFlatCardModule -->
<g id="node8" class="node">
<title>RewardFlatCardModule</title>
<polygon fill="#8dd3c7" stroke="black" points="513.07,-84.8 510.07,-88.8 489.07,-88.8 486.07,-84.8 360.93,-84.8 360.93,-48.8 513.07,-48.8 513.07,-84.8"/>
<text text-anchor="middle" x="437" y="-62.6" font-family="Times,serif" font-size="14.00">RewardFlatCardModule</text>
</g>
<!-- RewardFlatCardModule&#45;&gt;TeamModule -->
<g id="edge7" class="edge">
<title>RewardFlatCardModule&#45;&gt;TeamModule</title>
<path fill="none" stroke="black" d="M482.37,-84.83C482.37,-101.2 482.37,-122.8 482.37,-122.8 482.37,-122.8 561.05,-122.8 561.05,-122.8"/>
<polygon fill="black" stroke="black" points="561.05,-126.3 571.05,-122.8 561.05,-119.3 561.05,-126.3"/>
</g>
</g>
</svg>
