<?xml version="1.0" encoding="UTF-8" standalone="no"?>
<!DOCTYPE svg PUBLIC "-//W3C//DTD SVG 1.1//EN"
 "http://www.w3.org/Graphics/SVG/1.1/DTD/svg11.dtd">
<!-- Generated by graphviz version 2.47.3 (20210619.1520)
 -->
<!-- Title: dependencies Pages: 1 -->
<svg width="1021pt" height="247pt"
 viewBox="0.00 0.00 1021.00 246.80" xmlns="http://www.w3.org/2000/svg" xmlns:xlink="http://www.w3.org/1999/xlink">
<g id="graph0" class="graph" transform="scale(1 1) rotate(0) translate(4 242.8)">
<title>dependencies</title>
<polygon fill="white" stroke="transparent" points="-4,4 -4,-242.8 1017,-242.8 1017,4 -4,4"/>
<text text-anchor="middle" x="506.5" y="-8.2" font-family="sans-serif" font-size="14.00">dependencies</text>
<g id="clust1" class="cluster">
<title>cluster_AdminParcoursPoisModule</title>
<polygon fill="none" stroke="black" stroke-dasharray="1,5" points="8,-32.8 8,-230.8 1005,-230.8 1005,-32.8 8,-32.8"/>
</g>
<g id="clust2" class="cluster">
<title>cluster_AdminParcoursPoisModule_declarations</title>
<polygon fill="none" stroke="black" points="787,-40.8 787,-92.8 997,-92.8 997,-40.8 787,-40.8"/>
</g>
<g id="clust4" class="cluster">
<title>cluster_AdminParcoursPoisModule_imports</title>
<polygon fill="none" stroke="black" points="313,-40.8 313,-92.8 779,-92.8 779,-40.8 313,-40.8"/>
</g>
<g id="clust7" class="cluster">
<title>cluster_AdminParcoursPoisModule_providers</title>
<polygon fill="none" stroke="black" points="16,-40.8 16,-92.8 305,-92.8 305,-40.8 16,-40.8"/>
</g>
<g id="clust5" class="cluster">
<title>cluster_AdminParcoursPoisModule_exports</title>
<polygon fill="none" stroke="black" points="352,-170.8 352,-222.8 564,-222.8 564,-170.8 352,-170.8"/>
</g>
<!-- AdminParcoursPoisComponent -->
<g id="node1" class="node">
<title>AdminParcoursPoisComponent</title>
<polygon fill="#ffffb3" stroke="black" points="988.82,-84.8 795.18,-84.8 795.18,-48.8 988.82,-48.8 988.82,-84.8"/>
<text text-anchor="middle" x="892" y="-62.6" font-family="Times,serif" font-size="14.00">AdminParcoursPoisComponent</text>
</g>
<!-- AdminParcoursPoisModule -->
<g id="node2" class="node">
<title>AdminParcoursPoisModule</title>
<polygon fill="#8dd3c7" stroke="black" points="543.53,-149.8 540.53,-153.8 519.53,-153.8 516.53,-149.8 372.47,-149.8 372.47,-113.8 543.53,-113.8 543.53,-149.8"/>
<text text-anchor="middle" x="458" y="-127.6" font-family="Times,serif" font-size="14.00">AdminParcoursPoisModule</text>
</g>
<!-- AdminParcoursPoisComponent&#45;&gt;AdminParcoursPoisModule -->
<g id="edge1" class="edge">
<title>AdminParcoursPoisComponent&#45;&gt;AdminParcoursPoisModule</title>
<path fill="none" stroke="black" d="M892,-85.08C892,-106.12 892,-137.8 892,-137.8 892,-137.8 553.74,-137.8 553.74,-137.8"/>
<polygon fill="black" stroke="black" points="553.74,-134.3 543.74,-137.8 553.74,-141.3 553.74,-134.3"/>
</g>
<!-- AdminParcoursPoisComponent  -->
<g id="node6" class="node">
<title>AdminParcoursPoisComponent </title>
<polygon fill="#fb8072" stroke="black" points="556.32,-214.8 359.68,-214.8 359.68,-178.8 556.32,-178.8 556.32,-214.8"/>
<text text-anchor="middle" x="458" y="-192.6" font-family="Times,serif" font-size="14.00">AdminParcoursPoisComponent </text>
</g>
<!-- AdminParcoursPoisModule&#45;&gt;AdminParcoursPoisComponent  -->
<g id="edge5" class="edge">
<title>AdminParcoursPoisModule&#45;&gt;AdminParcoursPoisComponent </title>
<path fill="none" stroke="black" stroke-dasharray="5,2" d="M458,-149.91C458,-149.91 458,-168.79 458,-168.79"/>
<polygon fill="black" stroke="black" points="454.5,-168.79 458,-178.79 461.5,-168.79 454.5,-168.79"/>
</g>
<!-- AdminPoiDialogModule -->
<g id="node3" class="node">
<title>AdminPoiDialogModule</title>
<polygon fill="#8dd3c7" stroke="black" points="770.71,-84.8 767.71,-88.8 746.71,-88.8 743.71,-84.8 615.29,-84.8 615.29,-48.8 770.71,-48.8 770.71,-84.8"/>
<text text-anchor="middle" x="693" y="-62.6" font-family="Times,serif" font-size="14.00">AdminPoiDialogModule</text>
</g>
<!-- AdminPoiDialogModule&#45;&gt;AdminParcoursPoisModule -->
<g id="edge2" class="edge">
<title>AdminPoiDialogModule&#45;&gt;AdminParcoursPoisModule</title>
<path fill="none" stroke="black" d="M693,-84.82C693,-102.17 693,-125.8 693,-125.8 693,-125.8 553.84,-125.8 553.84,-125.8"/>
<polygon fill="black" stroke="black" points="553.84,-122.3 543.84,-125.8 553.84,-129.3 553.84,-122.3"/>
</g>
<!-- AdminTableModule -->
<g id="node4" class="node">
<title>AdminTableModule</title>
<polygon fill="#8dd3c7" stroke="black" points="597.31,-84.8 594.31,-88.8 573.31,-88.8 570.31,-84.8 466.69,-84.8 466.69,-48.8 597.31,-48.8 597.31,-84.8"/>
<text text-anchor="middle" x="532" y="-62.6" font-family="Times,serif" font-size="14.00">AdminTableModule</text>
</g>
<!-- AdminTableModule&#45;&gt;AdminParcoursPoisModule -->
<g id="edge3" class="edge">
<title>AdminTableModule&#45;&gt;AdminParcoursPoisModule</title>
<path fill="none" stroke="black" d="M505.31,-84.91C505.31,-84.91 505.31,-103.79 505.31,-103.79"/>
<polygon fill="black" stroke="black" points="501.81,-103.79 505.31,-113.79 508.81,-103.79 501.81,-103.79"/>
</g>
<!-- SearchFormModule -->
<g id="node5" class="node">
<title>SearchFormModule</title>
<polygon fill="#8dd3c7" stroke="black" points="448.97,-84.8 445.97,-88.8 424.97,-88.8 421.97,-84.8 321.03,-84.8 321.03,-48.8 448.97,-48.8 448.97,-84.8"/>
<text text-anchor="middle" x="385" y="-62.6" font-family="Times,serif" font-size="14.00">SearchFormModule</text>
</g>
<!-- SearchFormModule&#45;&gt;AdminParcoursPoisModule -->
<g id="edge4" class="edge">
<title>SearchFormModule&#45;&gt;AdminParcoursPoisModule</title>
<path fill="none" stroke="black" d="M410.61,-84.91C410.61,-84.91 410.61,-103.79 410.61,-103.79"/>
<polygon fill="black" stroke="black" points="407.11,-103.79 410.61,-113.79 414.11,-103.79 407.11,-103.79"/>
</g>
<!-- AdminPoiService -->
<g id="node7" class="node">
<title>AdminPoiService</title>
<ellipse fill="#fdb462" stroke="black" cx="217" cy="-66.8" rx="79.89" ry="18"/>
<text text-anchor="middle" x="217" y="-62.6" font-family="Times,serif" font-size="14.00">AdminPoiService</text>
</g>
<!-- AdminPoiService&#45;&gt;AdminParcoursPoisModule -->
<g id="edge6" class="edge">
<title>AdminPoiService&#45;&gt;AdminParcoursPoisModule</title>
<path fill="none" stroke="black" d="M217,-84.82C217,-102.17 217,-125.8 217,-125.8 217,-125.8 362.35,-125.8 362.35,-125.8"/>
<polygon fill="black" stroke="black" points="362.35,-129.3 372.35,-125.8 362.35,-122.3 362.35,-129.3"/>
</g>
<!-- PoiClient -->
<g id="node8" class="node">
<title>PoiClient</title>
<ellipse fill="#fdb462" stroke="black" cx="72" cy="-66.8" rx="47.55" ry="18"/>
<text text-anchor="middle" x="72" y="-62.6" font-family="Times,serif" font-size="14.00">PoiClient</text>
</g>
<!-- PoiClient&#45;&gt;AdminParcoursPoisModule -->
<g id="edge7" class="edge">
<title>PoiClient&#45;&gt;AdminParcoursPoisModule</title>
<path fill="none" stroke="black" d="M72,-85.08C72,-106.12 72,-137.8 72,-137.8 72,-137.8 362.33,-137.8 362.33,-137.8"/>
<polygon fill="black" stroke="black" points="362.33,-141.3 372.33,-137.8 362.33,-134.3 362.33,-141.3"/>
</g>
</g>
</svg>
