<?xml version="1.0" encoding="UTF-8" standalone="no"?>
<!DOCTYPE svg PUBLIC "-//W3C//DTD SVG 1.1//EN"
 "http://www.w3.org/Graphics/SVG/1.1/DTD/svg11.dtd">
<!-- Generated by graphviz version 2.47.3 (20210619.1520)
 -->
<!-- Title: dependencies Pages: 1 -->
<svg width="1249pt" height="247pt"
 viewBox="0.00 0.00 1249.00 246.80" xmlns="http://www.w3.org/2000/svg" xmlns:xlink="http://www.w3.org/1999/xlink">
<g id="graph0" class="graph" transform="scale(1 1) rotate(0) translate(4 242.8)">
<title>dependencies</title>
<polygon fill="white" stroke="transparent" points="-4,4 -4,-242.8 1245,-242.8 1245,4 -4,4"/>
<text text-anchor="middle" x="620.5" y="-8.2" font-family="sans-serif" font-size="14.00">dependencies</text>
<g id="clust1" class="cluster">
<title>cluster_LocationModule</title>
<polygon fill="none" stroke="black" stroke-dasharray="1,5" points="8,-32.8 8,-230.8 1233,-230.8 1233,-32.8 8,-32.8"/>
</g>
<g id="clust7" class="cluster">
<title>cluster_LocationModule_providers</title>
<polygon fill="none" stroke="black" points="1037,-40.8 1037,-92.8 1225,-92.8 1225,-40.8 1037,-40.8"/>
</g>
<g id="clust5" class="cluster">
<title>cluster_LocationModule_exports</title>
<polygon fill="none" stroke="black" points="496,-170.8 496,-222.8 646,-222.8 646,-170.8 496,-170.8"/>
</g>
<g id="clust4" class="cluster">
<title>cluster_LocationModule_imports</title>
<polygon fill="none" stroke="black" points="172,-40.8 172,-92.8 1029,-92.8 1029,-40.8 172,-40.8"/>
</g>
<g id="clust2" class="cluster">
<title>cluster_LocationModule_declarations</title>
<polygon fill="none" stroke="black" points="16,-40.8 16,-92.8 164,-92.8 164,-40.8 16,-40.8"/>
</g>
<!-- LocationComponent -->
<g id="node1" class="node">
<title>LocationComponent</title>
<polygon fill="#ffffb3" stroke="black" points="155.6,-84.8 24.4,-84.8 24.4,-48.8 155.6,-48.8 155.6,-84.8"/>
<text text-anchor="middle" x="90" y="-62.6" font-family="Times,serif" font-size="14.00">LocationComponent</text>
</g>
<!-- LocationModule -->
<g id="node2" class="node">
<title>LocationModule</title>
<polygon fill="#8dd3c7" stroke="black" points="625.81,-149.8 622.81,-153.8 601.81,-153.8 598.81,-149.8 516.19,-149.8 516.19,-113.8 625.81,-113.8 625.81,-149.8"/>
<text text-anchor="middle" x="571" y="-127.6" font-family="Times,serif" font-size="14.00">LocationModule</text>
</g>
<!-- LocationComponent&#45;&gt;LocationModule -->
<g id="edge1" class="edge">
<title>LocationComponent&#45;&gt;LocationModule</title>
<path fill="none" stroke="black" d="M90,-85.09C90,-107.01 90,-140.8 90,-140.8 90,-140.8 506.29,-140.8 506.29,-140.8"/>
<polygon fill="black" stroke="black" points="506.29,-144.3 516.29,-140.8 506.29,-137.3 506.29,-144.3"/>
</g>
<!-- LocationComponent  -->
<g id="node8" class="node">
<title>LocationComponent </title>
<polygon fill="#fb8072" stroke="black" points="638.1,-214.8 503.9,-214.8 503.9,-178.8 638.1,-178.8 638.1,-214.8"/>
<text text-anchor="middle" x="571" y="-192.6" font-family="Times,serif" font-size="14.00">LocationComponent </text>
</g>
<!-- LocationModule&#45;&gt;LocationComponent  -->
<g id="edge7" class="edge">
<title>LocationModule&#45;&gt;LocationComponent </title>
<path fill="none" stroke="black" stroke-dasharray="5,2" d="M571,-149.91C571,-149.91 571,-168.79 571,-168.79"/>
<polygon fill="black" stroke="black" points="567.5,-168.79 571,-178.79 574.5,-168.79 567.5,-168.79"/>
</g>
<!-- CompanyDetailsDialogModule -->
<g id="node3" class="node">
<title>CompanyDetailsDialogModule</title>
<polygon fill="#8dd3c7" stroke="black" points="1020.75,-84.8 1017.75,-88.8 996.75,-88.8 993.75,-84.8 829.25,-84.8 829.25,-48.8 1020.75,-48.8 1020.75,-84.8"/>
<text text-anchor="middle" x="925" y="-62.6" font-family="Times,serif" font-size="14.00">CompanyDetailsDialogModule</text>
</g>
<!-- CompanyDetailsDialogModule&#45;&gt;LocationModule -->
<g id="edge2" class="edge">
<title>CompanyDetailsDialogModule&#45;&gt;LocationModule</title>
<path fill="none" stroke="black" d="M925,-84.91C925,-104.14 925,-131.8 925,-131.8 925,-131.8 635.92,-131.8 635.92,-131.8"/>
<polygon fill="black" stroke="black" points="635.92,-128.3 625.92,-131.8 635.92,-135.3 635.92,-128.3"/>
</g>
<!-- ContactButtonModule -->
<g id="node4" class="node">
<title>ContactButtonModule</title>
<polygon fill="#8dd3c7" stroke="black" points="811.71,-84.8 808.71,-88.8 787.71,-88.8 784.71,-84.8 670.29,-84.8 670.29,-48.8 811.71,-48.8 811.71,-84.8"/>
<text text-anchor="middle" x="741" y="-62.6" font-family="Times,serif" font-size="14.00">ContactButtonModule</text>
</g>
<!-- ContactButtonModule&#45;&gt;LocationModule -->
<g id="edge3" class="edge">
<title>ContactButtonModule&#45;&gt;LocationModule</title>
<path fill="none" stroke="black" d="M741,-84.83C741,-101.2 741,-122.8 741,-122.8 741,-122.8 635.72,-122.8 635.72,-122.8"/>
<polygon fill="black" stroke="black" points="635.72,-119.3 625.72,-122.8 635.72,-126.3 635.72,-119.3"/>
</g>
<!-- LocationSummaryModule -->
<g id="node5" class="node">
<title>LocationSummaryModule</title>
<polygon fill="#8dd3c7" stroke="black" points="652.75,-84.8 649.75,-88.8 628.75,-88.8 625.75,-84.8 489.25,-84.8 489.25,-48.8 652.75,-48.8 652.75,-84.8"/>
<text text-anchor="middle" x="571" y="-62.6" font-family="Times,serif" font-size="14.00">LocationSummaryModule</text>
</g>
<!-- LocationSummaryModule&#45;&gt;LocationModule -->
<g id="edge4" class="edge">
<title>LocationSummaryModule&#45;&gt;LocationModule</title>
<path fill="none" stroke="black" d="M571,-84.91C571,-84.91 571,-103.79 571,-103.79"/>
<polygon fill="black" stroke="black" points="567.5,-103.79 571,-113.79 574.5,-103.79 567.5,-103.79"/>
</g>
<!-- SchoolDetailsModule -->
<g id="node6" class="node">
<title>SchoolDetailsModule</title>
<polygon fill="#8dd3c7" stroke="black" points="471.09,-84.8 468.09,-88.8 447.09,-88.8 444.09,-84.8 332.91,-84.8 332.91,-48.8 471.09,-48.8 471.09,-84.8"/>
<text text-anchor="middle" x="402" y="-62.6" font-family="Times,serif" font-size="14.00">SchoolDetailsModule</text>
</g>
<!-- SchoolDetailsModule&#45;&gt;LocationModule -->
<g id="edge5" class="edge">
<title>SchoolDetailsModule&#45;&gt;LocationModule</title>
<path fill="none" stroke="black" d="M402,-84.83C402,-101.2 402,-122.8 402,-122.8 402,-122.8 506.13,-122.8 506.13,-122.8"/>
<polygon fill="black" stroke="black" points="506.13,-126.3 516.13,-122.8 506.13,-119.3 506.13,-126.3"/>
</g>
<!-- TypescriptAsModule -->
<g id="node7" class="node">
<title>TypescriptAsModule</title>
<polygon fill="#8dd3c7" stroke="black" points="314.47,-84.8 311.47,-88.8 290.47,-88.8 287.47,-84.8 179.53,-84.8 179.53,-48.8 314.47,-48.8 314.47,-84.8"/>
<text text-anchor="middle" x="247" y="-62.6" font-family="Times,serif" font-size="14.00">TypescriptAsModule</text>
</g>
<!-- TypescriptAsModule&#45;&gt;LocationModule -->
<g id="edge6" class="edge">
<title>TypescriptAsModule&#45;&gt;LocationModule</title>
<path fill="none" stroke="black" d="M247,-84.91C247,-104.14 247,-131.8 247,-131.8 247,-131.8 506.04,-131.8 506.04,-131.8"/>
<polygon fill="black" stroke="black" points="506.04,-135.3 516.04,-131.8 506.04,-128.3 506.04,-135.3"/>
</g>
<!-- ApplicationService -->
<g id="node9" class="node">
<title>ApplicationService</title>
<ellipse fill="#fdb462" stroke="black" cx="1131" cy="-66.8" rx="85.67" ry="18"/>
<text text-anchor="middle" x="1131" y="-62.6" font-family="Times,serif" font-size="14.00">ApplicationService</text>
</g>
<!-- ApplicationService&#45;&gt;LocationModule -->
<g id="edge8" class="edge">
<title>ApplicationService&#45;&gt;LocationModule</title>
<path fill="none" stroke="black" d="M1131,-85.09C1131,-107.01 1131,-140.8 1131,-140.8 1131,-140.8 635.71,-140.8 635.71,-140.8"/>
<polygon fill="black" stroke="black" points="635.71,-137.3 625.71,-140.8 635.71,-144.3 635.71,-137.3"/>
</g>
</g>
</svg>
