<?xml version="1.0" encoding="UTF-8" standalone="no"?>
<!DOCTYPE svg PUBLIC "-//W3C//DTD SVG 1.1//EN"
 "http://www.w3.org/Graphics/SVG/1.1/DTD/svg11.dtd">
<!-- Generated by graphviz version 2.47.3 (20210619.1520)
 -->
<!-- Title: dependencies Pages: 1 -->
<svg width="1855pt" height="247pt"
 viewBox="0.00 0.00 1855.00 246.80" xmlns="http://www.w3.org/2000/svg" xmlns:xlink="http://www.w3.org/1999/xlink">
<g id="graph0" class="graph" transform="scale(1 1) rotate(0) translate(4 242.8)">
<title>dependencies</title>
<polygon fill="white" stroke="transparent" points="-4,4 -4,-242.8 1851,-242.8 1851,4 -4,4"/>
<text text-anchor="middle" x="923.5" y="-8.2" font-family="sans-serif" font-size="14.00">dependencies</text>
<g id="clust1" class="cluster">
<title>cluster_MapTemplateModule</title>
<polygon fill="none" stroke="black" stroke-dasharray="1,5" points="8,-32.8 8,-230.8 1839,-230.8 1839,-32.8 8,-32.8"/>
</g>
<g id="clust2" class="cluster">
<title>cluster_MapTemplateModule_declarations</title>
<polygon fill="none" stroke="black" points="1655,-40.8 1655,-92.8 1831,-92.8 1831,-40.8 1655,-40.8"/>
</g>
<g id="clust5" class="cluster">
<title>cluster_MapTemplateModule_exports</title>
<polygon fill="none" stroke="black" points="829,-170.8 829,-222.8 1009,-222.8 1009,-170.8 829,-170.8"/>
</g>
<g id="clust4" class="cluster">
<title>cluster_MapTemplateModule_imports</title>
<polygon fill="none" stroke="black" points="320,-40.8 320,-92.8 1647,-92.8 1647,-40.8 320,-40.8"/>
</g>
<g id="clust7" class="cluster">
<title>cluster_MapTemplateModule_providers</title>
<polygon fill="none" stroke="black" points="16,-40.8 16,-92.8 312,-92.8 312,-40.8 16,-40.8"/>
</g>
<!-- MapTemplateComponent -->
<g id="node1" class="node">
<title>MapTemplateComponent</title>
<polygon fill="#ffffb3" stroke="black" points="1822.86,-84.8 1663.14,-84.8 1663.14,-48.8 1822.86,-48.8 1822.86,-84.8"/>
<text text-anchor="middle" x="1743" y="-62.6" font-family="Times,serif" font-size="14.00">MapTemplateComponent</text>
</g>
<!-- MapTemplateModule -->
<g id="node2" class="node">
<title>MapTemplateModule</title>
<polygon fill="#8dd3c7" stroke="black" points="988.08,-149.8 985.08,-153.8 964.08,-153.8 961.08,-149.8 849.92,-149.8 849.92,-113.8 988.08,-113.8 988.08,-149.8"/>
<text text-anchor="middle" x="919" y="-127.6" font-family="Times,serif" font-size="14.00">MapTemplateModule</text>
</g>
<!-- MapTemplateComponent&#45;&gt;MapTemplateModule -->
<g id="edge1" class="edge">
<title>MapTemplateComponent&#45;&gt;MapTemplateModule</title>
<path fill="none" stroke="black" d="M1743,-85.05C1743,-107.82 1743,-143.8 1743,-143.8 1743,-143.8 998.19,-143.8 998.19,-143.8"/>
<polygon fill="black" stroke="black" points="998.19,-140.3 988.19,-143.8 998.19,-147.3 998.19,-140.3"/>
</g>
<!-- MapTemplateComponent  -->
<g id="node12" class="node">
<title>MapTemplateComponent </title>
<polygon fill="#fb8072" stroke="black" points="1000.86,-214.8 837.14,-214.8 837.14,-178.8 1000.86,-178.8 1000.86,-214.8"/>
<text text-anchor="middle" x="919" y="-192.6" font-family="Times,serif" font-size="14.00">MapTemplateComponent </text>
</g>
<!-- MapTemplateModule&#45;&gt;MapTemplateComponent  -->
<g id="edge11" class="edge">
<title>MapTemplateModule&#45;&gt;MapTemplateComponent </title>
<path fill="none" stroke="black" stroke-dasharray="5,2" d="M919,-149.91C919,-149.91 919,-168.79 919,-168.79"/>
<polygon fill="black" stroke="black" points="915.5,-168.79 919,-178.79 922.5,-168.79 915.5,-168.79"/>
</g>
<!-- ItineraryModule -->
<g id="node3" class="node">
<title>ItineraryModule</title>
<polygon fill="#8dd3c7" stroke="black" points="1638.74,-84.8 1635.74,-88.8 1614.74,-88.8 1611.74,-84.8 1531.26,-84.8 1531.26,-48.8 1638.74,-48.8 1638.74,-84.8"/>
<text text-anchor="middle" x="1585" y="-62.6" font-family="Times,serif" font-size="14.00">ItineraryModule</text>
</g>
<!-- ItineraryModule&#45;&gt;MapTemplateModule -->
<g id="edge2" class="edge">
<title>ItineraryModule&#45;&gt;MapTemplateModule</title>
<path fill="none" stroke="black" d="M1585,-85.08C1585,-106.12 1585,-137.8 1585,-137.8 1585,-137.8 998.08,-137.8 998.08,-137.8"/>
<polygon fill="black" stroke="black" points="998.08,-134.3 988.08,-137.8 998.08,-141.3 998.08,-134.3"/>
</g>
<!-- LogoModule -->
<g id="node4" class="node">
<title>LogoModule</title>
<polygon fill="#8dd3c7" stroke="black" points="1513.6,-84.8 1510.6,-88.8 1489.6,-88.8 1486.6,-84.8 1424.4,-84.8 1424.4,-48.8 1513.6,-48.8 1513.6,-84.8"/>
<text text-anchor="middle" x="1469" y="-62.6" font-family="Times,serif" font-size="14.00">LogoModule</text>
</g>
<!-- LogoModule&#45;&gt;MapTemplateModule -->
<g id="edge3" class="edge">
<title>LogoModule&#45;&gt;MapTemplateModule</title>
<path fill="none" stroke="black" d="M1469,-84.91C1469,-104.14 1469,-131.8 1469,-131.8 1469,-131.8 998.1,-131.8 998.1,-131.8"/>
<polygon fill="black" stroke="black" points="998.1,-128.3 988.1,-131.8 998.1,-135.3 998.1,-128.3"/>
</g>
<!-- MobileMenuModule -->
<g id="node5" class="node">
<title>MobileMenuModule</title>
<polygon fill="#8dd3c7" stroke="black" points="1406.15,-84.8 1403.15,-88.8 1382.15,-88.8 1379.15,-84.8 1273.85,-84.8 1273.85,-48.8 1406.15,-48.8 1406.15,-84.8"/>
<text text-anchor="middle" x="1340" y="-62.6" font-family="Times,serif" font-size="14.00">MobileMenuModule</text>
</g>
<!-- MobileMenuModule&#45;&gt;MapTemplateModule -->
<g id="edge4" class="edge">
<title>MobileMenuModule&#45;&gt;MapTemplateModule</title>
<path fill="none" stroke="black" d="M1340,-84.82C1340,-102.17 1340,-125.8 1340,-125.8 1340,-125.8 998.05,-125.8 998.05,-125.8"/>
<polygon fill="black" stroke="black" points="998.05,-122.3 988.05,-125.8 998.05,-129.3 998.05,-122.3"/>
</g>
<!-- NavigateToDrawerModule -->
<g id="node6" class="node">
<title>NavigateToDrawerModule</title>
<polygon fill="#8dd3c7" stroke="black" points="1255.6,-84.8 1252.6,-88.8 1231.6,-88.8 1228.6,-84.8 1088.4,-84.8 1088.4,-48.8 1255.6,-48.8 1255.6,-84.8"/>
<text text-anchor="middle" x="1172" y="-62.6" font-family="Times,serif" font-size="14.00">NavigateToDrawerModule</text>
</g>
<!-- NavigateToDrawerModule&#45;&gt;MapTemplateModule -->
<g id="edge5" class="edge">
<title>NavigateToDrawerModule&#45;&gt;MapTemplateModule</title>
<path fill="none" stroke="black" d="M1172,-85.04C1172,-100.37 1172,-119.8 1172,-119.8 1172,-119.8 998.13,-119.8 998.13,-119.8"/>
<polygon fill="black" stroke="black" points="998.13,-116.3 988.13,-119.8 998.13,-123.3 998.13,-116.3"/>
</g>
<!-- NavigationMenuModule -->
<g id="node7" class="node">
<title>NavigationMenuModule</title>
<polygon fill="#8dd3c7" stroke="black" points="1070.42,-84.8 1067.42,-88.8 1046.42,-88.8 1043.42,-84.8 915.58,-84.8 915.58,-48.8 1070.42,-48.8 1070.42,-84.8"/>
<text text-anchor="middle" x="993" y="-62.6" font-family="Times,serif" font-size="14.00">NavigationMenuModule</text>
</g>
<!-- NavigationMenuModule&#45;&gt;MapTemplateModule -->
<g id="edge6" class="edge">
<title>NavigationMenuModule&#45;&gt;MapTemplateModule</title>
<path fill="none" stroke="black" d="M951.92,-84.91C951.92,-84.91 951.92,-103.79 951.92,-103.79"/>
<polygon fill="black" stroke="black" points="948.42,-103.79 951.92,-113.79 955.42,-103.79 948.42,-103.79"/>
</g>
<!-- PoiCardModule -->
<g id="node8" class="node">
<title>PoiCardModule</title>
<polygon fill="#8dd3c7" stroke="black" points="897.94,-84.8 894.94,-88.8 873.94,-88.8 870.94,-84.8 792.06,-84.8 792.06,-48.8 897.94,-48.8 897.94,-84.8"/>
<text text-anchor="middle" x="845" y="-62.6" font-family="Times,serif" font-size="14.00">PoiCardModule</text>
</g>
<!-- PoiCardModule&#45;&gt;MapTemplateModule -->
<g id="edge7" class="edge">
<title>PoiCardModule&#45;&gt;MapTemplateModule</title>
<path fill="none" stroke="black" d="M873.84,-84.91C873.84,-84.91 873.84,-103.79 873.84,-103.79"/>
<polygon fill="black" stroke="black" points="870.34,-103.79 873.84,-113.79 877.34,-103.79 870.34,-103.79"/>
</g>
<!-- ScrollWrapperModule -->
<g id="node9" class="node">
<title>ScrollWrapperModule</title>
<polygon fill="#8dd3c7" stroke="black" points="773.95,-84.8 770.95,-88.8 749.95,-88.8 746.95,-84.8 632.05,-84.8 632.05,-48.8 773.95,-48.8 773.95,-84.8"/>
<text text-anchor="middle" x="703" y="-62.6" font-family="Times,serif" font-size="14.00">ScrollWrapperModule</text>
</g>
<!-- ScrollWrapperModule&#45;&gt;MapTemplateModule -->
<g id="edge8" class="edge">
<title>ScrollWrapperModule&#45;&gt;MapTemplateModule</title>
<path fill="none" stroke="black" d="M703,-85.04C703,-100.37 703,-119.8 703,-119.8 703,-119.8 839.76,-119.8 839.76,-119.8"/>
<polygon fill="black" stroke="black" points="839.77,-123.3 849.76,-119.8 839.76,-116.3 839.77,-123.3"/>
</g>
<!-- VillageCardModule -->
<g id="node10" class="node">
<title>VillageCardModule</title>
<polygon fill="#8dd3c7" stroke="black" points="613.97,-84.8 610.97,-88.8 589.97,-88.8 586.97,-84.8 486.03,-84.8 486.03,-48.8 613.97,-48.8 613.97,-84.8"/>
<text text-anchor="middle" x="550" y="-62.6" font-family="Times,serif" font-size="14.00">VillageCardModule</text>
</g>
<!-- VillageCardModule&#45;&gt;MapTemplateModule -->
<g id="edge9" class="edge">
<title>VillageCardModule&#45;&gt;MapTemplateModule</title>
<path fill="none" stroke="black" d="M550,-84.82C550,-102.17 550,-125.8 550,-125.8 550,-125.8 839.59,-125.8 839.59,-125.8"/>
<polygon fill="black" stroke="black" points="839.59,-129.3 849.59,-125.8 839.59,-122.3 839.59,-129.3"/>
</g>
<!-- VillageDetailsModule -->
<g id="node11" class="node">
<title>VillageDetailsModule</title>
<polygon fill="#8dd3c7" stroke="black" points="468.41,-84.8 465.41,-88.8 444.41,-88.8 441.41,-84.8 327.59,-84.8 327.59,-48.8 468.41,-48.8 468.41,-84.8"/>
<text text-anchor="middle" x="398" y="-62.6" font-family="Times,serif" font-size="14.00">VillageDetailsModule</text>
</g>
<!-- VillageDetailsModule&#45;&gt;MapTemplateModule -->
<g id="edge10" class="edge">
<title>VillageDetailsModule&#45;&gt;MapTemplateModule</title>
<path fill="none" stroke="black" d="M398,-84.91C398,-104.14 398,-131.8 398,-131.8 398,-131.8 839.82,-131.8 839.82,-131.8"/>
<polygon fill="black" stroke="black" points="839.82,-135.3 849.82,-131.8 839.82,-128.3 839.82,-135.3"/>
</g>
<!-- ItineraryService -->
<g id="node13" class="node">
<title>ItineraryService</title>
<ellipse fill="#fdb462" stroke="black" cx="231" cy="-66.8" rx="73.47" ry="18"/>
<text text-anchor="middle" x="231" y="-62.6" font-family="Times,serif" font-size="14.00">ItineraryService</text>
</g>
<!-- ItineraryService&#45;&gt;MapTemplateModule -->
<g id="edge12" class="edge">
<title>ItineraryService&#45;&gt;MapTemplateModule</title>
<path fill="none" stroke="black" d="M231,-85.08C231,-106.12 231,-137.8 231,-137.8 231,-137.8 839.88,-137.8 839.88,-137.8"/>
<polygon fill="black" stroke="black" points="839.88,-141.3 849.88,-137.8 839.88,-134.3 839.88,-141.3"/>
</g>
<!-- MapService -->
<g id="node14" class="node">
<title>MapService</title>
<ellipse fill="#fdb462" stroke="black" cx="82" cy="-66.8" rx="57.88" ry="18"/>
<text text-anchor="middle" x="82" y="-62.6" font-family="Times,serif" font-size="14.00">MapService</text>
</g>
<!-- MapService&#45;&gt;MapTemplateModule -->
<g id="edge13" class="edge">
<title>MapService&#45;&gt;MapTemplateModule</title>
<path fill="none" stroke="black" d="M82,-85.05C82,-107.82 82,-143.8 82,-143.8 82,-143.8 839.79,-143.8 839.79,-143.8"/>
<polygon fill="black" stroke="black" points="839.79,-147.3 849.79,-143.8 839.79,-140.3 839.79,-147.3"/>
</g>
</g>
</svg>
