<?xml version="1.0" encoding="UTF-8" standalone="no"?>
<!DOCTYPE svg PUBLIC "-//W3C//DTD SVG 1.1//EN"
 "http://www.w3.org/Graphics/SVG/1.1/DTD/svg11.dtd">
<!-- Generated by graphviz version 2.47.3 (20210619.1520)
 -->
<!-- Title: dependencies Pages: 1 -->
<svg width="262pt" height="247pt"
 viewBox="0.00 0.00 262.00 246.80" xmlns="http://www.w3.org/2000/svg" xmlns:xlink="http://www.w3.org/1999/xlink">
<g id="graph0" class="graph" transform="scale(1 1) rotate(0) translate(4 242.8)">
<title>dependencies</title>
<polygon fill="white" stroke="transparent" points="-4,4 -4,-242.8 258,-242.8 258,4 -4,4"/>
<text text-anchor="middle" x="127" y="-8.2" font-family="sans-serif" font-size="14.00">dependencies</text>
<g id="clust1" class="cluster">
<title>cluster_AdminEventPoiFormModule</title>
<polygon fill="none" stroke="black" stroke-dasharray="1,5" points="8,-32.8 8,-230.8 246,-230.8 246,-32.8 8,-32.8"/>
</g>
<g id="clust2" class="cluster">
<title>cluster_AdminEventPoiFormModule_declarations</title>
<polygon fill="none" stroke="black" points="18,-40.8 18,-92.8 236,-92.8 236,-40.8 18,-40.8"/>
</g>
<g id="clust5" class="cluster">
<title>cluster_AdminEventPoiFormModule_exports</title>
<polygon fill="none" stroke="black" points="16,-170.8 16,-222.8 238,-222.8 238,-170.8 16,-170.8"/>
</g>
<!-- AdminEventPoiFormComponent -->
<g id="node1" class="node">
<title>AdminEventPoiFormComponent</title>
<polygon fill="#ffffb3" stroke="black" points="227.89,-84.8 26.11,-84.8 26.11,-48.8 227.89,-48.8 227.89,-84.8"/>
<text text-anchor="middle" x="127" y="-62.6" font-family="Times,serif" font-size="14.00">AdminEventPoiFormComponent</text>
</g>
<!-- AdminEventPoiFormModule -->
<g id="node2" class="node">
<title>AdminEventPoiFormModule</title>
<polygon fill="#8dd3c7" stroke="black" points="217.1,-149.8 214.1,-153.8 193.1,-153.8 190.1,-149.8 36.9,-149.8 36.9,-113.8 217.1,-113.8 217.1,-149.8"/>
<text text-anchor="middle" x="127" y="-127.6" font-family="Times,serif" font-size="14.00">AdminEventPoiFormModule</text>
</g>
<!-- AdminEventPoiFormComponent&#45;&gt;AdminEventPoiFormModule -->
<g id="edge1" class="edge">
<title>AdminEventPoiFormComponent&#45;&gt;AdminEventPoiFormModule</title>
<path fill="none" stroke="black" d="M127,-84.91C127,-84.91 127,-103.79 127,-103.79"/>
<polygon fill="black" stroke="black" points="123.5,-103.79 127,-113.79 130.5,-103.79 123.5,-103.79"/>
</g>
<!-- AdminEventPoiFormComponent  -->
<g id="node3" class="node">
<title>AdminEventPoiFormComponent </title>
<polygon fill="#fb8072" stroke="black" points="229.89,-214.8 24.11,-214.8 24.11,-178.8 229.89,-178.8 229.89,-214.8"/>
<text text-anchor="middle" x="127" y="-192.6" font-family="Times,serif" font-size="14.00">AdminEventPoiFormComponent </text>
</g>
<!-- AdminEventPoiFormModule&#45;&gt;AdminEventPoiFormComponent  -->
<g id="edge2" class="edge">
<title>AdminEventPoiFormModule&#45;&gt;AdminEventPoiFormComponent </title>
<path fill="none" stroke="black" stroke-dasharray="5,2" d="M127,-149.91C127,-149.91 127,-168.79 127,-168.79"/>
<polygon fill="black" stroke="black" points="123.5,-168.79 127,-178.79 130.5,-168.79 123.5,-168.79"/>
</g>
</g>
</svg>
