<?xml version="1.0" encoding="UTF-8" standalone="no"?>
<!DOCTYPE svg PUBLIC "-//W3C//DTD SVG 1.1//EN"
 "http://www.w3.org/Graphics/SVG/1.1/DTD/svg11.dtd">
<!-- Generated by graphviz version 2.47.3 (20210619.1520)
 -->
<!-- Title: dependencies Pages: 1 -->
<svg width="364pt" height="247pt"
 viewBox="0.00 0.00 364.00 246.80" xmlns="http://www.w3.org/2000/svg" xmlns:xlink="http://www.w3.org/1999/xlink">
<g id="graph0" class="graph" transform="scale(1 1) rotate(0) translate(4 242.8)">
<title>dependencies</title>
<polygon fill="white" stroke="transparent" points="-4,4 -4,-242.8 360,-242.8 360,4 -4,4"/>
<text text-anchor="middle" x="178" y="-8.2" font-family="sans-serif" font-size="14.00">dependencies</text>
<g id="clust1" class="cluster">
<title>cluster_ProfessionalContactModule</title>
<polygon fill="none" stroke="black" stroke-dasharray="1,5" points="8,-32.8 8,-230.8 348,-230.8 348,-32.8 8,-32.8"/>
</g>
<g id="clust5" class="cluster">
<title>cluster_ProfessionalContactModule_exports</title>
<polygon fill="none" stroke="black" points="71,-170.8 71,-222.8 285,-222.8 285,-170.8 71,-170.8"/>
</g>
<g id="clust2" class="cluster">
<title>cluster_ProfessionalContactModule_declarations</title>
<polygon fill="none" stroke="black" points="130,-40.8 130,-92.8 340,-92.8 340,-40.8 130,-40.8"/>
</g>
<g id="clust4" class="cluster">
<title>cluster_ProfessionalContactModule_imports</title>
<polygon fill="none" stroke="black" points="16,-40.8 16,-92.8 122,-92.8 122,-40.8 16,-40.8"/>
</g>
<!-- ProfessionalContactComponent -->
<g id="node1" class="node">
<title>ProfessionalContactComponent</title>
<polygon fill="#ffffb3" stroke="black" points="332.08,-84.8 137.92,-84.8 137.92,-48.8 332.08,-48.8 332.08,-84.8"/>
<text text-anchor="middle" x="235" y="-62.6" font-family="Times,serif" font-size="14.00">ProfessionalContactComponent</text>
</g>
<!-- ProfessionalContactModule -->
<g id="node2" class="node">
<title>ProfessionalContactModule</title>
<polygon fill="#8dd3c7" stroke="black" points="264.3,-149.8 261.3,-153.8 240.3,-153.8 237.3,-149.8 91.7,-149.8 91.7,-113.8 264.3,-113.8 264.3,-149.8"/>
<text text-anchor="middle" x="178" y="-127.6" font-family="Times,serif" font-size="14.00">ProfessionalContactModule</text>
</g>
<!-- ProfessionalContactComponent&#45;&gt;ProfessionalContactModule -->
<g id="edge1" class="edge">
<title>ProfessionalContactComponent&#45;&gt;ProfessionalContactModule</title>
<path fill="none" stroke="black" d="M201.05,-84.91C201.05,-84.91 201.05,-103.79 201.05,-103.79"/>
<polygon fill="black" stroke="black" points="197.55,-103.79 201.05,-113.79 204.55,-103.79 197.55,-103.79"/>
</g>
<!-- ProfessionalContactComponent  -->
<g id="node4" class="node">
<title>ProfessionalContactComponent </title>
<polygon fill="#fb8072" stroke="black" points="276.58,-214.8 79.42,-214.8 79.42,-178.8 276.58,-178.8 276.58,-214.8"/>
<text text-anchor="middle" x="178" y="-192.6" font-family="Times,serif" font-size="14.00">ProfessionalContactComponent </text>
</g>
<!-- ProfessionalContactModule&#45;&gt;ProfessionalContactComponent  -->
<g id="edge3" class="edge">
<title>ProfessionalContactModule&#45;&gt;ProfessionalContactComponent </title>
<path fill="none" stroke="black" stroke-dasharray="5,2" d="M178,-149.91C178,-149.91 178,-168.79 178,-168.79"/>
<polygon fill="black" stroke="black" points="174.5,-168.79 178,-178.79 181.5,-168.79 174.5,-168.79"/>
</g>
<!-- LogoModule -->
<g id="node3" class="node">
<title>LogoModule</title>
<polygon fill="#8dd3c7" stroke="black" points="113.6,-84.8 110.6,-88.8 89.6,-88.8 86.6,-84.8 24.4,-84.8 24.4,-48.8 113.6,-48.8 113.6,-84.8"/>
<text text-anchor="middle" x="69" y="-62.6" font-family="Times,serif" font-size="14.00">LogoModule</text>
</g>
<!-- LogoModule&#45;&gt;ProfessionalContactModule -->
<g id="edge2" class="edge">
<title>LogoModule&#45;&gt;ProfessionalContactModule</title>
<path fill="none" stroke="black" d="M102.7,-84.91C102.7,-84.91 102.7,-103.79 102.7,-103.79"/>
<polygon fill="black" stroke="black" points="99.2,-103.79 102.7,-113.79 106.2,-103.79 99.2,-103.79"/>
</g>
</g>
</svg>
