<?xml version="1.0" encoding="UTF-8" standalone="no"?>
<!DOCTYPE svg PUBLIC "-//W3C//DTD SVG 1.1//EN"
 "http://www.w3.org/Graphics/SVG/1.1/DTD/svg11.dtd">
<!-- Generated by graphviz version 2.47.3 (20210619.1520)
 -->
<!-- Title: dependencies Pages: 1 -->
<svg width="390pt" height="247pt"
 viewBox="0.00 0.00 390.00 246.80" xmlns="http://www.w3.org/2000/svg" xmlns:xlink="http://www.w3.org/1999/xlink">
<g id="graph0" class="graph" transform="scale(1 1) rotate(0) translate(4 242.8)">
<title>dependencies</title>
<polygon fill="white" stroke="transparent" points="-4,4 -4,-242.8 386,-242.8 386,4 -4,4"/>
<text text-anchor="middle" x="191" y="-8.2" font-family="sans-serif" font-size="14.00">dependencies</text>
<g id="clust1" class="cluster">
<title>cluster_ApplicationPreviewCardModule</title>
<polygon fill="none" stroke="black" stroke-dasharray="1,5" points="8,-32.8 8,-230.8 374,-230.8 374,-32.8 8,-32.8"/>
</g>
<g id="clust4" class="cluster">
<title>cluster_ApplicationPreviewCardModule_imports</title>
<polygon fill="none" stroke="black" points="260,-40.8 260,-92.8 366,-92.8 366,-40.8 260,-40.8"/>
</g>
<g id="clust5" class="cluster">
<title>cluster_ApplicationPreviewCardModule_exports</title>
<polygon fill="none" stroke="black" points="71,-170.8 71,-222.8 311,-222.8 311,-170.8 71,-170.8"/>
</g>
<g id="clust2" class="cluster">
<title>cluster_ApplicationPreviewCardModule_declarations</title>
<polygon fill="none" stroke="black" points="16,-40.8 16,-92.8 252,-92.8 252,-40.8 16,-40.8"/>
</g>
<!-- ApplicationPreviewCardComponent -->
<g id="node1" class="node">
<title>ApplicationPreviewCardComponent</title>
<polygon fill="#ffffb3" stroke="black" points="244.01,-84.8 23.99,-84.8 23.99,-48.8 244.01,-48.8 244.01,-84.8"/>
<text text-anchor="middle" x="134" y="-62.6" font-family="Times,serif" font-size="14.00">ApplicationPreviewCardComponent</text>
</g>
<!-- ApplicationPreviewCardModule -->
<g id="node2" class="node">
<title>ApplicationPreviewCardModule</title>
<polygon fill="#8dd3c7" stroke="black" points="290.23,-149.8 287.23,-153.8 266.23,-153.8 263.23,-149.8 91.77,-149.8 91.77,-113.8 290.23,-113.8 290.23,-149.8"/>
<text text-anchor="middle" x="191" y="-127.6" font-family="Times,serif" font-size="14.00">ApplicationPreviewCardModule</text>
</g>
<!-- ApplicationPreviewCardComponent&#45;&gt;ApplicationPreviewCardModule -->
<g id="edge1" class="edge">
<title>ApplicationPreviewCardComponent&#45;&gt;ApplicationPreviewCardModule</title>
<path fill="none" stroke="black" d="M167.95,-84.91C167.95,-84.91 167.95,-103.79 167.95,-103.79"/>
<polygon fill="black" stroke="black" points="164.45,-103.79 167.95,-113.79 171.45,-103.79 164.45,-103.79"/>
</g>
<!-- ApplicationPreviewCardComponent  -->
<g id="node4" class="node">
<title>ApplicationPreviewCardComponent </title>
<polygon fill="#fb8072" stroke="black" points="303.01,-214.8 78.99,-214.8 78.99,-178.8 303.01,-178.8 303.01,-214.8"/>
<text text-anchor="middle" x="191" y="-192.6" font-family="Times,serif" font-size="14.00">ApplicationPreviewCardComponent </text>
</g>
<!-- ApplicationPreviewCardModule&#45;&gt;ApplicationPreviewCardComponent  -->
<g id="edge3" class="edge">
<title>ApplicationPreviewCardModule&#45;&gt;ApplicationPreviewCardComponent </title>
<path fill="none" stroke="black" stroke-dasharray="5,2" d="M191,-149.91C191,-149.91 191,-168.79 191,-168.79"/>
<polygon fill="black" stroke="black" points="187.5,-168.79 191,-178.79 194.5,-168.79 187.5,-168.79"/>
</g>
<!-- LogoModule -->
<g id="node3" class="node">
<title>LogoModule</title>
<polygon fill="#8dd3c7" stroke="black" points="357.6,-84.8 354.6,-88.8 333.6,-88.8 330.6,-84.8 268.4,-84.8 268.4,-48.8 357.6,-48.8 357.6,-84.8"/>
<text text-anchor="middle" x="313" y="-62.6" font-family="Times,serif" font-size="14.00">LogoModule</text>
</g>
<!-- LogoModule&#45;&gt;ApplicationPreviewCardModule -->
<g id="edge2" class="edge">
<title>LogoModule&#45;&gt;ApplicationPreviewCardModule</title>
<path fill="none" stroke="black" d="M279.41,-84.91C279.41,-84.91 279.41,-103.79 279.41,-103.79"/>
<polygon fill="black" stroke="black" points="275.91,-103.79 279.41,-113.79 282.91,-103.79 275.91,-103.79"/>
</g>
</g>
</svg>
