<?xml version="1.0" encoding="UTF-8" standalone="no"?>
<!DOCTYPE svg PUBLIC "-//W3C//DTD SVG 1.1//EN"
 "http://www.w3.org/Graphics/SVG/1.1/DTD/svg11.dtd">
<!-- Generated by graphviz version 2.47.3 (20210619.1520)
 -->
<!-- Title: dependencies Pages: 1 -->
<svg width="382pt" height="247pt"
 viewBox="0.00 0.00 382.00 246.80" xmlns="http://www.w3.org/2000/svg" xmlns:xlink="http://www.w3.org/1999/xlink">
<g id="graph0" class="graph" transform="scale(1 1) rotate(0) translate(4 242.8)">
<title>dependencies</title>
<polygon fill="white" stroke="transparent" points="-4,4 -4,-242.8 378,-242.8 378,4 -4,4"/>
<text text-anchor="middle" x="187" y="-8.2" font-family="sans-serif" font-size="14.00">dependencies</text>
<g id="clust1" class="cluster">
<title>cluster_PoiIconModule</title>
<polygon fill="none" stroke="black" stroke-dasharray="1,5" points="8,-32.8 8,-230.8 366,-230.8 366,-32.8 8,-32.8"/>
</g>
<g id="clust4" class="cluster">
<title>cluster_PoiIconModule_imports</title>
<polygon fill="none" stroke="black" points="164,-40.8 164,-92.8 358,-92.8 358,-40.8 164,-40.8"/>
</g>
<g id="clust2" class="cluster">
<title>cluster_PoiIconModule_declarations</title>
<polygon fill="none" stroke="black" points="16,-40.8 16,-92.8 156,-92.8 156,-40.8 16,-40.8"/>
</g>
<g id="clust5" class="cluster">
<title>cluster_PoiIconModule_exports</title>
<polygon fill="none" stroke="black" points="102,-170.8 102,-222.8 246,-222.8 246,-170.8 102,-170.8"/>
</g>
<!-- PoiIconComponent -->
<g id="node1" class="node">
<title>PoiIconComponent</title>
<polygon fill="#ffffb3" stroke="black" points="148.38,-84.8 23.62,-84.8 23.62,-48.8 148.38,-48.8 148.38,-84.8"/>
<text text-anchor="middle" x="86" y="-62.6" font-family="Times,serif" font-size="14.00">PoiIconComponent</text>
</g>
<!-- PoiIconModule -->
<g id="node2" class="node">
<title>PoiIconModule</title>
<polygon fill="#8dd3c7" stroke="black" points="225.6,-149.8 222.6,-153.8 201.6,-153.8 198.6,-149.8 122.4,-149.8 122.4,-113.8 225.6,-113.8 225.6,-149.8"/>
<text text-anchor="middle" x="174" y="-127.6" font-family="Times,serif" font-size="14.00">PoiIconModule</text>
</g>
<!-- PoiIconComponent&#45;&gt;PoiIconModule -->
<g id="edge1" class="edge">
<title>PoiIconComponent&#45;&gt;PoiIconModule</title>
<path fill="none" stroke="black" d="M135.45,-84.91C135.45,-84.91 135.45,-103.79 135.45,-103.79"/>
<polygon fill="black" stroke="black" points="131.95,-103.79 135.45,-113.79 138.95,-103.79 131.95,-103.79"/>
</g>
<!-- PoiIconComponent  -->
<g id="node4" class="node">
<title>PoiIconComponent </title>
<polygon fill="#fb8072" stroke="black" points="238.38,-214.8 109.62,-214.8 109.62,-178.8 238.38,-178.8 238.38,-214.8"/>
<text text-anchor="middle" x="174" y="-192.6" font-family="Times,serif" font-size="14.00">PoiIconComponent </text>
</g>
<!-- PoiIconModule&#45;&gt;PoiIconComponent  -->
<g id="edge3" class="edge">
<title>PoiIconModule&#45;&gt;PoiIconComponent </title>
<path fill="none" stroke="black" stroke-dasharray="5,2" d="M174,-149.91C174,-149.91 174,-168.79 174,-168.79"/>
<polygon fill="black" stroke="black" points="170.5,-168.79 174,-178.79 177.5,-168.79 170.5,-168.79"/>
</g>
<!-- VideoAskThumbnailModule -->
<g id="node3" class="node">
<title>VideoAskThumbnailModule</title>
<polygon fill="#8dd3c7" stroke="black" points="349.75,-84.8 346.75,-88.8 325.75,-88.8 322.75,-84.8 172.25,-84.8 172.25,-48.8 349.75,-48.8 349.75,-84.8"/>
<text text-anchor="middle" x="261" y="-62.6" font-family="Times,serif" font-size="14.00">VideoAskThumbnailModule</text>
</g>
<!-- VideoAskThumbnailModule&#45;&gt;PoiIconModule -->
<g id="edge2" class="edge">
<title>VideoAskThumbnailModule&#45;&gt;PoiIconModule</title>
<path fill="none" stroke="black" d="M198.84,-84.91C198.84,-84.91 198.84,-103.79 198.84,-103.79"/>
<polygon fill="black" stroke="black" points="195.34,-103.79 198.84,-113.79 202.34,-103.79 195.34,-103.79"/>
</g>
</g>
</svg>
