<?xml version="1.0" encoding="UTF-8" standalone="no"?>
<!DOCTYPE svg PUBLIC "-//W3C//DTD SVG 1.1//EN"
 "http://www.w3.org/Graphics/SVG/1.1/DTD/svg11.dtd">
<!-- Generated by graphviz version 2.47.3 (20210619.1520)
 -->
<!-- Title: dependencies Pages: 1 -->
<svg width="658pt" height="247pt"
 viewBox="0.00 0.00 658.00 246.80" xmlns="http://www.w3.org/2000/svg" xmlns:xlink="http://www.w3.org/1999/xlink">
<g id="graph0" class="graph" transform="scale(1 1) rotate(0) translate(4 242.8)">
<title>dependencies</title>
<polygon fill="white" stroke="transparent" points="-4,4 -4,-242.8 654,-242.8 654,4 -4,4"/>
<text text-anchor="middle" x="325" y="-8.2" font-family="sans-serif" font-size="14.00">dependencies</text>
<g id="clust1" class="cluster">
<title>cluster_KpiModule</title>
<polygon fill="none" stroke="black" stroke-dasharray="1,5" points="8,-32.8 8,-230.8 642,-230.8 642,-32.8 8,-32.8"/>
</g>
<g id="clust2" class="cluster">
<title>cluster_KpiModule_declarations</title>
<polygon fill="none" stroke="black" points="516,-40.8 516,-92.8 634,-92.8 634,-40.8 516,-40.8"/>
</g>
<g id="clust5" class="cluster">
<title>cluster_KpiModule_exports</title>
<polygon fill="none" stroke="black" points="265,-170.8 265,-222.8 387,-222.8 387,-170.8 265,-170.8"/>
</g>
<g id="clust4" class="cluster">
<title>cluster_KpiModule_imports</title>
<polygon fill="none" stroke="black" points="16,-40.8 16,-92.8 508,-92.8 508,-40.8 16,-40.8"/>
</g>
<!-- KpiComponent -->
<g id="node1" class="node">
<title>KpiComponent</title>
<polygon fill="#ffffb3" stroke="black" points="626.33,-84.8 523.67,-84.8 523.67,-48.8 626.33,-48.8 626.33,-84.8"/>
<text text-anchor="middle" x="575" y="-62.6" font-family="Times,serif" font-size="14.00">KpiComponent</text>
</g>
<!-- KpiModule -->
<g id="node2" class="node">
<title>KpiModule</title>
<polygon fill="#8dd3c7" stroke="black" points="366.05,-149.8 363.05,-153.8 342.05,-153.8 339.05,-149.8 285.95,-149.8 285.95,-113.8 366.05,-113.8 366.05,-149.8"/>
<text text-anchor="middle" x="326" y="-127.6" font-family="Times,serif" font-size="14.00">KpiModule</text>
</g>
<!-- KpiComponent&#45;&gt;KpiModule -->
<g id="edge1" class="edge">
<title>KpiComponent&#45;&gt;KpiModule</title>
<path fill="none" stroke="black" d="M575,-84.91C575,-104.14 575,-131.8 575,-131.8 575,-131.8 376.28,-131.8 376.28,-131.8"/>
<polygon fill="black" stroke="black" points="376.28,-128.3 366.28,-131.8 376.28,-135.3 376.28,-128.3"/>
</g>
<!-- KpiComponent  -->
<g id="node6" class="node">
<title>KpiComponent </title>
<polygon fill="#fb8072" stroke="black" points="378.83,-214.8 273.17,-214.8 273.17,-178.8 378.83,-178.8 378.83,-214.8"/>
<text text-anchor="middle" x="326" y="-192.6" font-family="Times,serif" font-size="14.00">KpiComponent </text>
</g>
<!-- KpiModule&#45;&gt;KpiComponent  -->
<g id="edge5" class="edge">
<title>KpiModule&#45;&gt;KpiComponent </title>
<path fill="none" stroke="black" stroke-dasharray="5,2" d="M326,-149.91C326,-149.91 326,-168.79 326,-168.79"/>
<polygon fill="black" stroke="black" points="322.5,-168.79 326,-178.79 329.5,-168.79 322.5,-168.79"/>
</g>
<!-- KpiItemPercentageModule -->
<g id="node3" class="node">
<title>KpiItemPercentageModule</title>
<polygon fill="#8dd3c7" stroke="black" points="499.61,-84.8 496.61,-88.8 475.61,-88.8 472.61,-84.8 332.39,-84.8 332.39,-48.8 499.61,-48.8 499.61,-84.8"/>
<text text-anchor="middle" x="416" y="-62.6" font-family="Times,serif" font-size="14.00">KpiItemPercentageModule</text>
</g>
<!-- KpiItemPercentageModule&#45;&gt;KpiModule -->
<g id="edge2" class="edge">
<title>KpiItemPercentageModule&#45;&gt;KpiModule</title>
<path fill="none" stroke="black" d="M349.23,-84.91C349.23,-84.91 349.23,-103.79 349.23,-103.79"/>
<polygon fill="black" stroke="black" points="345.73,-103.79 349.23,-113.79 352.73,-103.79 345.73,-103.79"/>
</g>
<!-- KpiItemProgressModule -->
<g id="node4" class="node">
<title>KpiItemProgressModule</title>
<polygon fill="#8dd3c7" stroke="black" points="314.41,-84.8 311.41,-88.8 290.41,-88.8 287.41,-84.8 159.59,-84.8 159.59,-48.8 314.41,-48.8 314.41,-84.8"/>
<text text-anchor="middle" x="237" y="-62.6" font-family="Times,serif" font-size="14.00">KpiItemProgressModule</text>
</g>
<!-- KpiItemProgressModule&#45;&gt;KpiModule -->
<g id="edge3" class="edge">
<title>KpiItemProgressModule&#45;&gt;KpiModule</title>
<path fill="none" stroke="black" d="M299.97,-84.91C299.97,-84.91 299.97,-103.79 299.97,-103.79"/>
<polygon fill="black" stroke="black" points="296.47,-103.79 299.97,-113.79 303.47,-103.79 296.47,-103.79"/>
</g>
<!-- PopularityModule -->
<g id="node5" class="node">
<title>PopularityModule</title>
<polygon fill="#8dd3c7" stroke="black" points="141.88,-84.8 138.88,-88.8 117.88,-88.8 114.88,-84.8 24.12,-84.8 24.12,-48.8 141.88,-48.8 141.88,-84.8"/>
<text text-anchor="middle" x="83" y="-62.6" font-family="Times,serif" font-size="14.00">PopularityModule</text>
</g>
<!-- PopularityModule&#45;&gt;KpiModule -->
<g id="edge4" class="edge">
<title>PopularityModule&#45;&gt;KpiModule</title>
<path fill="none" stroke="black" d="M83,-84.91C83,-104.14 83,-131.8 83,-131.8 83,-131.8 275.87,-131.8 275.87,-131.8"/>
<polygon fill="black" stroke="black" points="275.87,-135.3 285.87,-131.8 275.87,-128.3 275.87,-135.3"/>
</g>
</g>
</svg>
