<?xml version="1.0" encoding="UTF-8" standalone="no"?>
<!DOCTYPE svg PUBLIC "-//W3C//DTD SVG 1.1//EN"
 "http://www.w3.org/Graphics/SVG/1.1/DTD/svg11.dtd">
<!-- Generated by graphviz version 2.47.3 (20210619.1520)
 -->
<!-- Title: dependencies Pages: 1 -->
<svg width="1193pt" height="247pt"
 viewBox="0.00 0.00 1193.00 246.80" xmlns="http://www.w3.org/2000/svg" xmlns:xlink="http://www.w3.org/1999/xlink">
<g id="graph0" class="graph" transform="scale(1 1) rotate(0) translate(4 242.8)">
<title>dependencies</title>
<polygon fill="white" stroke="transparent" points="-4,4 -4,-242.8 1189,-242.8 1189,4 -4,4"/>
<text text-anchor="middle" x="592.5" y="-8.2" font-family="sans-serif" font-size="14.00">dependencies</text>
<g id="clust1" class="cluster">
<title>cluster_AdminDefinitionsModule</title>
<polygon fill="none" stroke="black" stroke-dasharray="1,5" points="8,-32.8 8,-230.8 1177,-230.8 1177,-32.8 8,-32.8"/>
</g>
<g id="clust2" class="cluster">
<title>cluster_AdminDefinitionsModule_declarations</title>
<polygon fill="none" stroke="black" points="735,-40.8 735,-92.8 1169,-92.8 1169,-40.8 735,-40.8"/>
</g>
<g id="clust6" class="cluster">
<title>cluster_AdminDefinitionsModule_exports</title>
<polygon fill="none" stroke="black" points="479,-170.8 479,-222.8 681,-222.8 681,-170.8 479,-170.8"/>
</g>
<g id="clust5" class="cluster">
<title>cluster_AdminDefinitionsModule_imports</title>
<polygon fill="none" stroke="black" points="435,-40.8 435,-92.8 727,-92.8 727,-40.8 435,-40.8"/>
</g>
<g id="clust8" class="cluster">
<title>cluster_AdminDefinitionsModule_providers</title>
<polygon fill="none" stroke="black" points="16,-40.8 16,-92.8 427,-92.8 427,-40.8 16,-40.8"/>
</g>
<!-- AdminDefinitionDialogComponent -->
<g id="node1" class="node">
<title>AdminDefinitionDialogComponent</title>
<polygon fill="#ffffb3" stroke="black" points="1160.87,-84.8 945.13,-84.8 945.13,-48.8 1160.87,-48.8 1160.87,-84.8"/>
<text text-anchor="middle" x="1053" y="-62.6" font-family="Times,serif" font-size="14.00">AdminDefinitionDialogComponent</text>
</g>
<!-- AdminDefinitionsModule -->
<g id="node3" class="node">
<title>AdminDefinitionsModule</title>
<polygon fill="#8dd3c7" stroke="black" points="660.93,-149.8 657.93,-153.8 636.93,-153.8 633.93,-149.8 499.07,-149.8 499.07,-113.8 660.93,-113.8 660.93,-149.8"/>
<text text-anchor="middle" x="580" y="-127.6" font-family="Times,serif" font-size="14.00">AdminDefinitionsModule</text>
</g>
<!-- AdminDefinitionDialogComponent&#45;&gt;AdminDefinitionsModule -->
<g id="edge1" class="edge">
<title>AdminDefinitionDialogComponent&#45;&gt;AdminDefinitionsModule</title>
<path fill="none" stroke="black" d="M1053,-85.08C1053,-106.12 1053,-137.8 1053,-137.8 1053,-137.8 670.77,-137.8 670.77,-137.8"/>
<polygon fill="black" stroke="black" points="670.77,-134.3 660.77,-137.8 670.77,-141.3 670.77,-134.3"/>
</g>
<!-- AdminDefinitionsComponent -->
<g id="node2" class="node">
<title>AdminDefinitionsComponent</title>
<polygon fill="#ffffb3" stroke="black" points="926.71,-84.8 743.29,-84.8 743.29,-48.8 926.71,-48.8 926.71,-84.8"/>
<text text-anchor="middle" x="835" y="-62.6" font-family="Times,serif" font-size="14.00">AdminDefinitionsComponent</text>
</g>
<!-- AdminDefinitionsComponent&#45;&gt;AdminDefinitionsModule -->
<g id="edge2" class="edge">
<title>AdminDefinitionsComponent&#45;&gt;AdminDefinitionsModule</title>
<path fill="none" stroke="black" d="M835,-84.82C835,-102.17 835,-125.8 835,-125.8 835,-125.8 671.03,-125.8 671.03,-125.8"/>
<polygon fill="black" stroke="black" points="671.03,-122.3 661.03,-125.8 671.03,-129.3 671.03,-122.3"/>
</g>
<!-- AdminDefinitionsComponent  -->
<g id="node6" class="node">
<title>AdminDefinitionsComponent </title>
<polygon fill="#fb8072" stroke="black" points="673.21,-214.8 486.79,-214.8 486.79,-178.8 673.21,-178.8 673.21,-214.8"/>
<text text-anchor="middle" x="580" y="-192.6" font-family="Times,serif" font-size="14.00">AdminDefinitionsComponent </text>
</g>
<!-- AdminDefinitionsModule&#45;&gt;AdminDefinitionsComponent  -->
<g id="edge5" class="edge">
<title>AdminDefinitionsModule&#45;&gt;AdminDefinitionsComponent </title>
<path fill="none" stroke="black" stroke-dasharray="5,2" d="M580,-149.91C580,-149.91 580,-168.79 580,-168.79"/>
<polygon fill="black" stroke="black" points="576.5,-168.79 580,-178.79 583.5,-168.79 576.5,-168.79"/>
</g>
<!-- AdminTableModule -->
<g id="node4" class="node">
<title>AdminTableModule</title>
<polygon fill="#8dd3c7" stroke="black" points="719.31,-84.8 716.31,-88.8 695.31,-88.8 692.31,-84.8 588.69,-84.8 588.69,-48.8 719.31,-48.8 719.31,-84.8"/>
<text text-anchor="middle" x="654" y="-62.6" font-family="Times,serif" font-size="14.00">AdminTableModule</text>
</g>
<!-- AdminTableModule&#45;&gt;AdminDefinitionsModule -->
<g id="edge3" class="edge">
<title>AdminTableModule&#45;&gt;AdminDefinitionsModule</title>
<path fill="none" stroke="black" d="M624.78,-84.91C624.78,-84.91 624.78,-103.79 624.78,-103.79"/>
<polygon fill="black" stroke="black" points="621.28,-103.79 624.78,-113.79 628.28,-103.79 621.28,-103.79"/>
</g>
<!-- SearchFormModule -->
<g id="node5" class="node">
<title>SearchFormModule</title>
<polygon fill="#8dd3c7" stroke="black" points="570.97,-84.8 567.97,-88.8 546.97,-88.8 543.97,-84.8 443.03,-84.8 443.03,-48.8 570.97,-48.8 570.97,-84.8"/>
<text text-anchor="middle" x="507" y="-62.6" font-family="Times,serif" font-size="14.00">SearchFormModule</text>
</g>
<!-- SearchFormModule&#45;&gt;AdminDefinitionsModule -->
<g id="edge4" class="edge">
<title>SearchFormModule&#45;&gt;AdminDefinitionsModule</title>
<path fill="none" stroke="black" d="M535.14,-84.91C535.14,-84.91 535.14,-103.79 535.14,-103.79"/>
<polygon fill="black" stroke="black" points="531.64,-103.79 535.14,-113.79 538.64,-103.79 531.64,-103.79"/>
</g>
<!-- AdminDefinitionService -->
<g id="node7" class="node">
<title>AdminDefinitionService</title>
<ellipse fill="#fdb462" stroke="black" cx="312" cy="-66.8" rx="106.52" ry="18"/>
<text text-anchor="middle" x="312" y="-62.6" font-family="Times,serif" font-size="14.00">AdminDefinitionService</text>
</g>
<!-- AdminDefinitionService&#45;&gt;AdminDefinitionsModule -->
<g id="edge6" class="edge">
<title>AdminDefinitionService&#45;&gt;AdminDefinitionsModule</title>
<path fill="none" stroke="black" d="M312,-84.82C312,-102.17 312,-125.8 312,-125.8 312,-125.8 489.23,-125.8 489.23,-125.8"/>
<polygon fill="black" stroke="black" points="489.23,-129.3 499.23,-125.8 489.23,-122.3 489.23,-129.3"/>
</g>
<!-- AdminTagService -->
<g id="node8" class="node">
<title>AdminTagService</title>
<ellipse fill="#fdb462" stroke="black" cx="106" cy="-66.8" rx="81.66" ry="18"/>
<text text-anchor="middle" x="106" y="-62.6" font-family="Times,serif" font-size="14.00">AdminTagService</text>
</g>
<!-- AdminTagService&#45;&gt;AdminDefinitionsModule -->
<g id="edge7" class="edge">
<title>AdminTagService&#45;&gt;AdminDefinitionsModule</title>
<path fill="none" stroke="black" d="M106,-85.08C106,-106.12 106,-137.8 106,-137.8 106,-137.8 489.06,-137.8 489.06,-137.8"/>
<polygon fill="black" stroke="black" points="489.06,-141.3 499.06,-137.8 489.06,-134.3 489.06,-141.3"/>
</g>
</g>
</svg>
