<?xml version="1.0" encoding="UTF-8" standalone="no"?>
<!DOCTYPE svg PUBLIC "-//W3C//DTD SVG 1.1//EN"
 "http://www.w3.org/Graphics/SVG/1.1/DTD/svg11.dtd">
<!-- Generated by graphviz version 2.47.3 (20210619.1520)
 -->
<!-- Title: dependencies Pages: 1 -->
<svg width="522pt" height="247pt"
 viewBox="0.00 0.00 522.00 246.80" xmlns="http://www.w3.org/2000/svg" xmlns:xlink="http://www.w3.org/1999/xlink">
<g id="graph0" class="graph" transform="scale(1 1) rotate(0) translate(4 242.8)">
<title>dependencies</title>
<polygon fill="white" stroke="transparent" points="-4,4 -4,-242.8 518,-242.8 518,4 -4,4"/>
<text text-anchor="middle" x="257" y="-8.2" font-family="sans-serif" font-size="14.00">dependencies</text>
<g id="clust1" class="cluster">
<title>cluster_RewardsListModule</title>
<polygon fill="none" stroke="black" stroke-dasharray="1,5" points="8,-32.8 8,-230.8 506,-230.8 506,-32.8 8,-32.8"/>
</g>
<g id="clust2" class="cluster">
<title>cluster_RewardsListModule_declarations</title>
<polygon fill="none" stroke="black" points="330,-40.8 330,-92.8 498,-92.8 498,-40.8 330,-40.8"/>
</g>
<g id="clust5" class="cluster">
<title>cluster_RewardsListModule_exports</title>
<polygon fill="none" stroke="black" points="163,-170.8 163,-222.8 335,-222.8 335,-170.8 163,-170.8"/>
</g>
<g id="clust4" class="cluster">
<title>cluster_RewardsListModule_imports</title>
<polygon fill="none" stroke="black" points="16,-40.8 16,-92.8 322,-92.8 322,-40.8 16,-40.8"/>
</g>
<!-- RewardsListComponent -->
<g id="node1" class="node">
<title>RewardsListComponent</title>
<polygon fill="#ffffb3" stroke="black" points="490.09,-84.8 337.91,-84.8 337.91,-48.8 490.09,-48.8 490.09,-84.8"/>
<text text-anchor="middle" x="414" y="-62.6" font-family="Times,serif" font-size="14.00">RewardsListComponent</text>
</g>
<!-- RewardsListModule -->
<g id="node2" class="node">
<title>RewardsListModule</title>
<polygon fill="#8dd3c7" stroke="black" points="314.31,-149.8 311.31,-153.8 290.31,-153.8 287.31,-149.8 183.69,-149.8 183.69,-113.8 314.31,-113.8 314.31,-149.8"/>
<text text-anchor="middle" x="249" y="-127.6" font-family="Times,serif" font-size="14.00">RewardsListModule</text>
</g>
<!-- RewardsListComponent&#45;&gt;RewardsListModule -->
<g id="edge1" class="edge">
<title>RewardsListComponent&#45;&gt;RewardsListModule</title>
<path fill="none" stroke="black" d="M414,-84.91C414,-104.14 414,-131.8 414,-131.8 414,-131.8 324.21,-131.8 324.21,-131.8"/>
<polygon fill="black" stroke="black" points="324.21,-128.3 314.21,-131.8 324.21,-135.3 324.21,-128.3"/>
</g>
<!-- RewardsListComponent  -->
<g id="node5" class="node">
<title>RewardsListComponent </title>
<polygon fill="#fb8072" stroke="black" points="326.59,-214.8 171.41,-214.8 171.41,-178.8 326.59,-178.8 326.59,-214.8"/>
<text text-anchor="middle" x="249" y="-192.6" font-family="Times,serif" font-size="14.00">RewardsListComponent </text>
</g>
<!-- RewardsListModule&#45;&gt;RewardsListComponent  -->
<g id="edge4" class="edge">
<title>RewardsListModule&#45;&gt;RewardsListComponent </title>
<path fill="none" stroke="black" stroke-dasharray="5,2" d="M249,-149.91C249,-149.91 249,-168.79 249,-168.79"/>
<polygon fill="black" stroke="black" points="245.5,-168.79 249,-178.79 252.5,-168.79 245.5,-168.79"/>
</g>
<!-- RewardCardModule -->
<g id="node3" class="node">
<title>RewardCardModule</title>
<polygon fill="#8dd3c7" stroke="black" points="314.29,-84.8 311.29,-88.8 290.29,-88.8 287.29,-84.8 183.71,-84.8 183.71,-48.8 314.29,-48.8 314.29,-84.8"/>
<text text-anchor="middle" x="249" y="-62.6" font-family="Times,serif" font-size="14.00">RewardCardModule</text>
</g>
<!-- RewardCardModule&#45;&gt;RewardsListModule -->
<g id="edge2" class="edge">
<title>RewardCardModule&#45;&gt;RewardsListModule</title>
<path fill="none" stroke="black" d="M249,-84.91C249,-84.91 249,-103.79 249,-103.79"/>
<polygon fill="black" stroke="black" points="245.5,-103.79 249,-113.79 252.5,-103.79 245.5,-103.79"/>
</g>
<!-- ScrollWrapperModule -->
<g id="node4" class="node">
<title>ScrollWrapperModule</title>
<polygon fill="#8dd3c7" stroke="black" points="165.95,-84.8 162.95,-88.8 141.95,-88.8 138.95,-84.8 24.05,-84.8 24.05,-48.8 165.95,-48.8 165.95,-84.8"/>
<text text-anchor="middle" x="95" y="-62.6" font-family="Times,serif" font-size="14.00">ScrollWrapperModule</text>
</g>
<!-- ScrollWrapperModule&#45;&gt;RewardsListModule -->
<g id="edge3" class="edge">
<title>ScrollWrapperModule&#45;&gt;RewardsListModule</title>
<path fill="none" stroke="black" d="M95,-84.91C95,-104.14 95,-131.8 95,-131.8 95,-131.8 173.69,-131.8 173.69,-131.8"/>
<polygon fill="black" stroke="black" points="173.69,-135.3 183.69,-131.8 173.69,-128.3 173.69,-135.3"/>
</g>
</g>
</svg>
