<?xml version="1.0" encoding="UTF-8" standalone="no"?>
<!DOCTYPE svg PUBLIC "-//W3C//DTD SVG 1.1//EN"
 "http://www.w3.org/Graphics/SVG/1.1/DTD/svg11.dtd">
<!-- Generated by graphviz version 2.47.3 (20210619.1520)
 -->
<!-- Title: dependencies Pages: 1 -->
<svg width="420pt" height="247pt"
 viewBox="0.00 0.00 420.00 246.80" xmlns="http://www.w3.org/2000/svg" xmlns:xlink="http://www.w3.org/1999/xlink">
<g id="graph0" class="graph" transform="scale(1 1) rotate(0) translate(4 242.8)">
<title>dependencies</title>
<polygon fill="white" stroke="transparent" points="-4,4 -4,-242.8 416,-242.8 416,4 -4,4"/>
<text text-anchor="middle" x="206" y="-8.2" font-family="sans-serif" font-size="14.00">dependencies</text>
<g id="clust1" class="cluster">
<title>cluster_FindInternshipApprenticeshipModule</title>
<polygon fill="none" stroke="black" stroke-dasharray="1,5" points="8,-32.8 8,-230.8 404,-230.8 404,-32.8 8,-32.8"/>
</g>
<g id="clust2" class="cluster">
<title>cluster_FindInternshipApprenticeshipModule_declarations</title>
<polygon fill="none" stroke="black" points="130,-40.8 130,-92.8 396,-92.8 396,-40.8 130,-40.8"/>
</g>
<g id="clust5" class="cluster">
<title>cluster_FindInternshipApprenticeshipModule_exports</title>
<polygon fill="none" stroke="black" points="72,-170.8 72,-222.8 340,-222.8 340,-170.8 72,-170.8"/>
</g>
<g id="clust4" class="cluster">
<title>cluster_FindInternshipApprenticeshipModule_imports</title>
<polygon fill="none" stroke="black" points="16,-40.8 16,-92.8 122,-92.8 122,-40.8 16,-40.8"/>
</g>
<!-- FindInternshipApprenticeshipComponent -->
<g id="node1" class="node">
<title>FindInternshipApprenticeshipComponent</title>
<polygon fill="#ffffb3" stroke="black" points="387.79,-84.8 138.21,-84.8 138.21,-48.8 387.79,-48.8 387.79,-84.8"/>
<text text-anchor="middle" x="263" y="-62.6" font-family="Times,serif" font-size="14.00">FindInternshipApprenticeshipComponent</text>
</g>
<!-- FindInternshipApprenticeshipModule -->
<g id="node2" class="node">
<title>FindInternshipApprenticeshipModule</title>
<polygon fill="#8dd3c7" stroke="black" points="319.51,-149.8 316.51,-153.8 295.51,-153.8 292.51,-149.8 92.49,-149.8 92.49,-113.8 319.51,-113.8 319.51,-149.8"/>
<text text-anchor="middle" x="206" y="-127.6" font-family="Times,serif" font-size="14.00">FindInternshipApprenticeshipModule</text>
</g>
<!-- FindInternshipApprenticeshipComponent&#45;&gt;FindInternshipApprenticeshipModule -->
<g id="edge1" class="edge">
<title>FindInternshipApprenticeshipComponent&#45;&gt;FindInternshipApprenticeshipModule</title>
<path fill="none" stroke="black" d="M229.05,-84.91C229.05,-84.91 229.05,-103.79 229.05,-103.79"/>
<polygon fill="black" stroke="black" points="225.55,-103.79 229.05,-113.79 232.55,-103.79 225.55,-103.79"/>
</g>
<!-- FindInternshipApprenticeshipComponent  -->
<g id="node4" class="node">
<title>FindInternshipApprenticeshipComponent </title>
<polygon fill="#fb8072" stroke="black" points="332.29,-214.8 79.71,-214.8 79.71,-178.8 332.29,-178.8 332.29,-214.8"/>
<text text-anchor="middle" x="206" y="-192.6" font-family="Times,serif" font-size="14.00">FindInternshipApprenticeshipComponent </text>
</g>
<!-- FindInternshipApprenticeshipModule&#45;&gt;FindInternshipApprenticeshipComponent  -->
<g id="edge3" class="edge">
<title>FindInternshipApprenticeshipModule&#45;&gt;FindInternshipApprenticeshipComponent </title>
<path fill="none" stroke="black" stroke-dasharray="5,2" d="M206,-149.91C206,-149.91 206,-168.79 206,-168.79"/>
<polygon fill="black" stroke="black" points="202.5,-168.79 206,-178.79 209.5,-168.79 202.5,-168.79"/>
</g>
<!-- LogoModule -->
<g id="node3" class="node">
<title>LogoModule</title>
<polygon fill="#8dd3c7" stroke="black" points="113.6,-84.8 110.6,-88.8 89.6,-88.8 86.6,-84.8 24.4,-84.8 24.4,-48.8 113.6,-48.8 113.6,-84.8"/>
<text text-anchor="middle" x="69" y="-62.6" font-family="Times,serif" font-size="14.00">LogoModule</text>
</g>
<!-- LogoModule&#45;&gt;FindInternshipApprenticeshipModule -->
<g id="edge2" class="edge">
<title>LogoModule&#45;&gt;FindInternshipApprenticeshipModule</title>
<path fill="none" stroke="black" d="M102.9,-84.91C102.9,-84.91 102.9,-103.79 102.9,-103.79"/>
<polygon fill="black" stroke="black" points="99.4,-103.79 102.9,-113.79 106.4,-103.79 99.4,-103.79"/>
</g>
</g>
</svg>
