<?xml version="1.0" encoding="UTF-8" standalone="no"?>
<!DOCTYPE svg PUBLIC "-//W3C//DTD SVG 1.1//EN"
 "http://www.w3.org/Graphics/SVG/1.1/DTD/svg11.dtd">
<!-- Generated by graphviz version 2.47.3 (20210619.1520)
 -->
<!-- Title: dependencies Pages: 1 -->
<svg width="396pt" height="247pt"
 viewBox="0.00 0.00 396.00 246.80" xmlns="http://www.w3.org/2000/svg" xmlns:xlink="http://www.w3.org/1999/xlink">
<g id="graph0" class="graph" transform="scale(1 1) rotate(0) translate(4 242.8)">
<title>dependencies</title>
<polygon fill="white" stroke="transparent" points="-4,4 -4,-242.8 392,-242.8 392,4 -4,4"/>
<text text-anchor="middle" x="194" y="-8.2" font-family="sans-serif" font-size="14.00">dependencies</text>
<g id="clust1" class="cluster">
<title>cluster_OriginCardModule</title>
<polygon fill="none" stroke="black" stroke-dasharray="1,5" points="8,-32.8 8,-230.8 380,-230.8 380,-32.8 8,-32.8"/>
</g>
<g id="clust2" class="cluster">
<title>cluster_OriginCardModule_declarations</title>
<polygon fill="none" stroke="black" points="210,-40.8 210,-92.8 372,-92.8 372,-40.8 210,-40.8"/>
</g>
<g id="clust4" class="cluster">
<title>cluster_OriginCardModule_imports</title>
<polygon fill="none" stroke="black" points="16,-40.8 16,-92.8 202,-92.8 202,-40.8 16,-40.8"/>
</g>
<g id="clust5" class="cluster">
<title>cluster_OriginCardModule_exports</title>
<polygon fill="none" stroke="black" points="117,-170.8 117,-222.8 281,-222.8 281,-170.8 117,-170.8"/>
</g>
<!-- OriginCardComponent -->
<g id="node1" class="node">
<title>OriginCardComponent</title>
<polygon fill="#ffffb3" stroke="black" points="363.59,-84.8 218.41,-84.8 218.41,-48.8 363.59,-48.8 363.59,-84.8"/>
<text text-anchor="middle" x="291" y="-62.6" font-family="Times,serif" font-size="14.00">OriginCardComponent</text>
</g>
<!-- OriginCardModule -->
<g id="node2" class="node">
<title>OriginCardModule</title>
<polygon fill="#8dd3c7" stroke="black" points="260.81,-149.8 257.81,-153.8 236.81,-153.8 233.81,-149.8 137.19,-149.8 137.19,-113.8 260.81,-113.8 260.81,-149.8"/>
<text text-anchor="middle" x="199" y="-127.6" font-family="Times,serif" font-size="14.00">OriginCardModule</text>
</g>
<!-- OriginCardComponent&#45;&gt;OriginCardModule -->
<g id="edge1" class="edge">
<title>OriginCardComponent&#45;&gt;OriginCardModule</title>
<path fill="none" stroke="black" d="M239.55,-84.91C239.55,-84.91 239.55,-103.79 239.55,-103.79"/>
<polygon fill="black" stroke="black" points="236.05,-103.79 239.55,-113.79 243.05,-103.79 236.05,-103.79"/>
</g>
<!-- OriginCardComponent  -->
<g id="node4" class="node">
<title>OriginCardComponent </title>
<polygon fill="#fb8072" stroke="black" points="273.09,-214.8 124.91,-214.8 124.91,-178.8 273.09,-178.8 273.09,-214.8"/>
<text text-anchor="middle" x="199" y="-192.6" font-family="Times,serif" font-size="14.00">OriginCardComponent </text>
</g>
<!-- OriginCardModule&#45;&gt;OriginCardComponent  -->
<g id="edge3" class="edge">
<title>OriginCardModule&#45;&gt;OriginCardComponent </title>
<path fill="none" stroke="black" stroke-dasharray="5,2" d="M199,-149.91C199,-149.91 199,-168.79 199,-168.79"/>
<polygon fill="black" stroke="black" points="195.5,-168.79 199,-178.79 202.5,-168.79 195.5,-168.79"/>
</g>
<!-- WaypointSummaryModule -->
<g id="node3" class="node">
<title>WaypointSummaryModule</title>
<polygon fill="#8dd3c7" stroke="black" points="193.7,-84.8 190.7,-88.8 169.7,-88.8 166.7,-84.8 24.3,-84.8 24.3,-48.8 193.7,-48.8 193.7,-84.8"/>
<text text-anchor="middle" x="109" y="-62.6" font-family="Times,serif" font-size="14.00">WaypointSummaryModule</text>
</g>
<!-- WaypointSummaryModule&#45;&gt;OriginCardModule -->
<g id="edge2" class="edge">
<title>WaypointSummaryModule&#45;&gt;OriginCardModule</title>
<path fill="none" stroke="black" d="M165.47,-84.91C165.47,-84.91 165.47,-103.79 165.47,-103.79"/>
<polygon fill="black" stroke="black" points="161.97,-103.79 165.47,-113.79 168.97,-103.79 161.97,-103.79"/>
</g>
</g>
</svg>
