<?xml version="1.0" encoding="UTF-8" standalone="no"?>
<!DOCTYPE svg PUBLIC "-//W3C//DTD SVG 1.1//EN"
 "http://www.w3.org/Graphics/SVG/1.1/DTD/svg11.dtd">
<!-- Generated by graphviz version 2.47.3 (20210619.1520)
 -->
<!-- Title: dependencies Pages: 1 -->
<svg width="332pt" height="247pt"
 viewBox="0.00 0.00 332.00 246.80" xmlns="http://www.w3.org/2000/svg" xmlns:xlink="http://www.w3.org/1999/xlink">
<g id="graph0" class="graph" transform="scale(1 1) rotate(0) translate(4 242.8)">
<title>dependencies</title>
<polygon fill="white" stroke="transparent" points="-4,4 -4,-242.8 328,-242.8 328,4 -4,4"/>
<text text-anchor="middle" x="162" y="-8.2" font-family="sans-serif" font-size="14.00">dependencies</text>
<g id="clust1" class="cluster">
<title>cluster_VillageLabelModule</title>
<polygon fill="none" stroke="black" stroke-dasharray="1,5" points="8,-32.8 8,-230.8 316,-230.8 316,-32.8 8,-32.8"/>
</g>
<g id="clust2" class="cluster">
<title>cluster_VillageLabelModule_declarations</title>
<polygon fill="none" stroke="black" points="138,-40.8 138,-92.8 308,-92.8 308,-40.8 138,-40.8"/>
</g>
<g id="clust4" class="cluster">
<title>cluster_VillageLabelModule_imports</title>
<polygon fill="none" stroke="black" points="16,-40.8 16,-92.8 130,-92.8 130,-40.8 16,-40.8"/>
</g>
<g id="clust5" class="cluster">
<title>cluster_VillageLabelModule_exports</title>
<polygon fill="none" stroke="black" points="75,-170.8 75,-222.8 249,-222.8 249,-170.8 75,-170.8"/>
</g>
<!-- VillageLabelComponent -->
<g id="node1" class="node">
<title>VillageLabelComponent</title>
<polygon fill="#ffffb3" stroke="black" points="300.41,-84.8 145.59,-84.8 145.59,-48.8 300.41,-48.8 300.41,-84.8"/>
<text text-anchor="middle" x="223" y="-62.6" font-family="Times,serif" font-size="14.00">VillageLabelComponent</text>
</g>
<!-- VillageLabelModule -->
<g id="node2" class="node">
<title>VillageLabelModule</title>
<polygon fill="#8dd3c7" stroke="black" points="228.13,-149.8 225.13,-153.8 204.13,-153.8 201.13,-149.8 95.87,-149.8 95.87,-113.8 228.13,-113.8 228.13,-149.8"/>
<text text-anchor="middle" x="162" y="-127.6" font-family="Times,serif" font-size="14.00">VillageLabelModule</text>
</g>
<!-- VillageLabelComponent&#45;&gt;VillageLabelModule -->
<g id="edge1" class="edge">
<title>VillageLabelComponent&#45;&gt;VillageLabelModule</title>
<path fill="none" stroke="black" d="M187.05,-84.91C187.05,-84.91 187.05,-103.79 187.05,-103.79"/>
<polygon fill="black" stroke="black" points="183.55,-103.79 187.05,-113.79 190.55,-103.79 183.55,-103.79"/>
</g>
<!-- VillageLabelComponent  -->
<g id="node4" class="node">
<title>VillageLabelComponent </title>
<polygon fill="#fb8072" stroke="black" points="240.91,-214.8 83.09,-214.8 83.09,-178.8 240.91,-178.8 240.91,-214.8"/>
<text text-anchor="middle" x="162" y="-192.6" font-family="Times,serif" font-size="14.00">VillageLabelComponent </text>
</g>
<!-- VillageLabelModule&#45;&gt;VillageLabelComponent  -->
<g id="edge3" class="edge">
<title>VillageLabelModule&#45;&gt;VillageLabelComponent </title>
<path fill="none" stroke="black" stroke-dasharray="5,2" d="M162,-149.91C162,-149.91 162,-168.79 162,-168.79"/>
<polygon fill="black" stroke="black" points="158.5,-168.79 162,-178.79 165.5,-168.79 158.5,-168.79"/>
</g>
<!-- TrendsModule -->
<g id="node3" class="node">
<title>TrendsModule</title>
<polygon fill="#8dd3c7" stroke="black" points="122.42,-84.8 119.42,-88.8 98.42,-88.8 95.42,-84.8 23.58,-84.8 23.58,-48.8 122.42,-48.8 122.42,-84.8"/>
<text text-anchor="middle" x="73" y="-62.6" font-family="Times,serif" font-size="14.00">TrendsModule</text>
</g>
<!-- TrendsModule&#45;&gt;VillageLabelModule -->
<g id="edge2" class="edge">
<title>TrendsModule&#45;&gt;VillageLabelModule</title>
<path fill="none" stroke="black" d="M108.95,-84.91C108.95,-84.91 108.95,-103.79 108.95,-103.79"/>
<polygon fill="black" stroke="black" points="105.45,-103.79 108.95,-113.79 112.45,-103.79 105.45,-103.79"/>
</g>
</g>
</svg>
