<?xml version="1.0" encoding="UTF-8" standalone="no"?>
<!DOCTYPE svg PUBLIC "-//W3C//DTD SVG 1.1//EN"
 "http://www.w3.org/Graphics/SVG/1.1/DTD/svg11.dtd">
<!-- Generated by graphviz version 2.47.3 (20210619.1520)
 -->
<!-- Title: dependencies Pages: 1 -->
<svg width="800pt" height="174pt"
 viewBox="0.00 0.00 800.00 173.80" xmlns="http://www.w3.org/2000/svg" xmlns:xlink="http://www.w3.org/1999/xlink">
<g id="graph0" class="graph" transform="scale(1 1) rotate(0) translate(4 169.8)">
<title>dependencies</title>
<polygon fill="white" stroke="transparent" points="-4,4 -4,-169.8 796,-169.8 796,4 -4,4"/>
<text text-anchor="middle" x="396" y="-8.2" font-family="sans-serif" font-size="14.00">dependencies</text>
<g id="clust1" class="cluster">
<title>cluster_RegistrationDialogModule</title>
<polygon fill="none" stroke="black" stroke-dasharray="1,5" points="8,-32.8 8,-157.8 784,-157.8 784,-32.8 8,-32.8"/>
</g>
<g id="clust4" class="cluster">
<title>cluster_RegistrationDialogModule_imports</title>
<polygon fill="none" stroke="black" points="482,-40.8 482,-92.8 776,-92.8 776,-40.8 482,-40.8"/>
</g>
<g id="clust7" class="cluster">
<title>cluster_RegistrationDialogModule_providers</title>
<polygon fill="none" stroke="black" points="228,-40.8 228,-92.8 474,-92.8 474,-40.8 228,-40.8"/>
</g>
<g id="clust2" class="cluster">
<title>cluster_RegistrationDialogModule_declarations</title>
<polygon fill="none" stroke="black" points="16,-40.8 16,-92.8 220,-92.8 220,-40.8 16,-40.8"/>
</g>
<!-- RegistrationDialogComponent -->
<g id="node1" class="node">
<title>RegistrationDialogComponent</title>
<polygon fill="#ffffb3" stroke="black" points="211.87,-84.8 24.13,-84.8 24.13,-48.8 211.87,-48.8 211.87,-84.8"/>
<text text-anchor="middle" x="118" y="-62.6" font-family="Times,serif" font-size="14.00">RegistrationDialogComponent</text>
</g>
<!-- RegistrationDialogModule -->
<g id="node2" class="node">
<title>RegistrationDialogModule</title>
<polygon fill="#8dd3c7" stroke="black" points="499.09,-149.8 496.09,-153.8 475.09,-153.8 472.09,-149.8 332.91,-149.8 332.91,-113.8 499.09,-113.8 499.09,-149.8"/>
<text text-anchor="middle" x="416" y="-127.6" font-family="Times,serif" font-size="14.00">RegistrationDialogModule</text>
</g>
<!-- RegistrationDialogComponent&#45;&gt;RegistrationDialogModule -->
<g id="edge1" class="edge">
<title>RegistrationDialogComponent&#45;&gt;RegistrationDialogModule</title>
<path fill="none" stroke="black" d="M118,-84.91C118,-104.14 118,-131.8 118,-131.8 118,-131.8 322.59,-131.8 322.59,-131.8"/>
<polygon fill="black" stroke="black" points="322.59,-135.3 332.59,-131.8 322.59,-128.3 322.59,-135.3"/>
</g>
<!-- AcceptPolicyModule -->
<g id="node3" class="node">
<title>AcceptPolicyModule</title>
<polygon fill="#8dd3c7" stroke="black" points="768.47,-84.8 765.47,-88.8 744.47,-88.8 741.47,-84.8 633.53,-84.8 633.53,-48.8 768.47,-48.8 768.47,-84.8"/>
<text text-anchor="middle" x="701" y="-62.6" font-family="Times,serif" font-size="14.00">AcceptPolicyModule</text>
</g>
<!-- AcceptPolicyModule&#45;&gt;RegistrationDialogModule -->
<g id="edge2" class="edge">
<title>AcceptPolicyModule&#45;&gt;RegistrationDialogModule</title>
<path fill="none" stroke="black" d="M701,-84.91C701,-104.14 701,-131.8 701,-131.8 701,-131.8 509.2,-131.8 509.2,-131.8"/>
<polygon fill="black" stroke="black" points="509.2,-128.3 499.2,-131.8 509.2,-135.3 509.2,-128.3"/>
</g>
<!-- InviteLoginModule -->
<g id="node4" class="node">
<title>InviteLoginModule</title>
<polygon fill="#8dd3c7" stroke="black" points="615.65,-84.8 612.65,-88.8 591.65,-88.8 588.65,-84.8 490.35,-84.8 490.35,-48.8 615.65,-48.8 615.65,-84.8"/>
<text text-anchor="middle" x="553" y="-62.6" font-family="Times,serif" font-size="14.00">InviteLoginModule</text>
</g>
<!-- InviteLoginModule&#45;&gt;RegistrationDialogModule -->
<g id="edge3" class="edge">
<title>InviteLoginModule&#45;&gt;RegistrationDialogModule</title>
<path fill="none" stroke="black" d="M494.61,-84.91C494.61,-84.91 494.61,-103.79 494.61,-103.79"/>
<polygon fill="black" stroke="black" points="491.11,-103.79 494.61,-113.79 498.11,-103.79 491.11,-103.79"/>
</g>
<!-- UaaClient -->
<g id="node5" class="node">
<title>UaaClient</title>
<ellipse fill="#fdb462" stroke="black" cx="416" cy="-66.8" rx="50.38" ry="18"/>
<text text-anchor="middle" x="416" y="-62.6" font-family="Times,serif" font-size="14.00">UaaClient</text>
</g>
<!-- UaaClient&#45;&gt;RegistrationDialogModule -->
<g id="edge4" class="edge">
<title>UaaClient&#45;&gt;RegistrationDialogModule</title>
<path fill="none" stroke="black" d="M416,-84.91C416,-84.91 416,-103.79 416,-103.79"/>
<polygon fill="black" stroke="black" points="412.5,-103.79 416,-113.79 419.5,-103.79 412.5,-103.79"/>
</g>
<!-- UaaService -->
<g id="node6" class="node">
<title>UaaService</title>
<ellipse fill="#fdb462" stroke="black" cx="292" cy="-66.8" rx="55.57" ry="18"/>
<text text-anchor="middle" x="292" y="-62.6" font-family="Times,serif" font-size="14.00">UaaService</text>
</g>
<!-- UaaService&#45;&gt;RegistrationDialogModule -->
<g id="edge5" class="edge">
<title>UaaService&#45;&gt;RegistrationDialogModule</title>
<path fill="none" stroke="black" d="M340.25,-75.84C340.25,-75.84 340.25,-103.76 340.25,-103.76"/>
<polygon fill="black" stroke="black" points="336.75,-103.76 340.25,-113.76 343.75,-103.76 336.75,-103.76"/>
</g>
</g>
</svg>
