<?xml version="1.0" encoding="UTF-8" standalone="no"?>
<!DOCTYPE svg PUBLIC "-//W3C//DTD SVG 1.1//EN"
 "http://www.w3.org/Graphics/SVG/1.1/DTD/svg11.dtd">
<!-- Generated by graphviz version 2.47.3 (20210619.1520)
 -->
<!-- Title: dependencies Pages: 1 -->
<svg width="452pt" height="174pt"
 viewBox="0.00 0.00 452.00 173.80" xmlns="http://www.w3.org/2000/svg" xmlns:xlink="http://www.w3.org/1999/xlink">
<g id="graph0" class="graph" transform="scale(1 1) rotate(0) translate(4 169.8)">
<title>dependencies</title>
<polygon fill="white" stroke="transparent" points="-4,4 -4,-169.8 448,-169.8 448,4 -4,4"/>
<text text-anchor="middle" x="222" y="-8.2" font-family="sans-serif" font-size="14.00">dependencies</text>
<g id="clust1" class="cluster">
<title>cluster_IntentionsWaypointPageModule</title>
<polygon fill="none" stroke="black" stroke-dasharray="1,5" points="8,-32.8 8,-157.8 436,-157.8 436,-32.8 8,-32.8"/>
</g>
<g id="clust2" class="cluster">
<title>cluster_IntentionsWaypointPageModule_declarations</title>
<polygon fill="none" stroke="black" points="192,-40.8 192,-92.8 428,-92.8 428,-40.8 192,-40.8"/>
</g>
<g id="clust4" class="cluster">
<title>cluster_IntentionsWaypointPageModule_imports</title>
<polygon fill="none" stroke="black" points="16,-40.8 16,-92.8 184,-92.8 184,-40.8 16,-40.8"/>
</g>
<!-- IntentionsWaypointPageComponent -->
<g id="node1" class="node">
<title>IntentionsWaypointPageComponent</title>
<polygon fill="#ffffb3" stroke="black" points="419.75,-84.8 200.25,-84.8 200.25,-48.8 419.75,-48.8 419.75,-84.8"/>
<text text-anchor="middle" x="310" y="-62.6" font-family="Times,serif" font-size="14.00">IntentionsWaypointPageComponent</text>
</g>
<!-- IntentionsWaypointPageModule -->
<g id="node2" class="node">
<title>IntentionsWaypointPageModule</title>
<polygon fill="#8dd3c7" stroke="black" points="310.96,-149.8 307.96,-153.8 286.96,-153.8 283.96,-149.8 113.04,-149.8 113.04,-113.8 310.96,-113.8 310.96,-149.8"/>
<text text-anchor="middle" x="212" y="-127.6" font-family="Times,serif" font-size="14.00">IntentionsWaypointPageModule</text>
</g>
<!-- IntentionsWaypointPageComponent&#45;&gt;IntentionsWaypointPageModule -->
<g id="edge1" class="edge">
<title>IntentionsWaypointPageComponent&#45;&gt;IntentionsWaypointPageModule</title>
<path fill="none" stroke="black" d="M255.55,-84.91C255.55,-84.91 255.55,-103.79 255.55,-103.79"/>
<polygon fill="black" stroke="black" points="252.05,-103.79 255.55,-113.79 259.05,-103.79 252.05,-103.79"/>
</g>
<!-- SimpleTemplateModule -->
<g id="node3" class="node">
<title>SimpleTemplateModule</title>
<polygon fill="#8dd3c7" stroke="black" points="176.09,-84.8 173.09,-88.8 152.09,-88.8 149.09,-84.8 23.91,-84.8 23.91,-48.8 176.09,-48.8 176.09,-84.8"/>
<text text-anchor="middle" x="100" y="-62.6" font-family="Times,serif" font-size="14.00">SimpleTemplateModule</text>
</g>
<!-- SimpleTemplateModule&#45;&gt;IntentionsWaypointPageModule -->
<g id="edge2" class="edge">
<title>SimpleTemplateModule&#45;&gt;IntentionsWaypointPageModule</title>
<path fill="none" stroke="black" d="M144.53,-84.91C144.53,-84.91 144.53,-103.79 144.53,-103.79"/>
<polygon fill="black" stroke="black" points="141.03,-103.79 144.53,-113.79 148.03,-103.79 141.03,-103.79"/>
</g>
</g>
</svg>
