<?xml version="1.0" encoding="UTF-8" standalone="no"?>
<!DOCTYPE svg PUBLIC "-//W3C//DTD SVG 1.1//EN"
 "http://www.w3.org/Graphics/SVG/1.1/DTD/svg11.dtd">
<!-- Generated by graphviz version 2.47.3 (20210619.1520)
 -->
<!-- Title: dependencies Pages: 1 -->
<svg width="1020pt" height="174pt"
 viewBox="0.00 0.00 1020.00 173.80" xmlns="http://www.w3.org/2000/svg" xmlns:xlink="http://www.w3.org/1999/xlink">
<g id="graph0" class="graph" transform="scale(1 1) rotate(0) translate(4 169.8)">
<title>dependencies</title>
<polygon fill="white" stroke="transparent" points="-4,4 -4,-169.8 1016,-169.8 1016,4 -4,4"/>
<text text-anchor="middle" x="506" y="-8.2" font-family="sans-serif" font-size="14.00">dependencies</text>
<g id="clust1" class="cluster">
<title>cluster_RewardsRewardPageModule</title>
<polygon fill="none" stroke="black" stroke-dasharray="1,5" points="8,-32.8 8,-157.8 1004,-157.8 1004,-32.8 8,-32.8"/>
</g>
<g id="clust4" class="cluster">
<title>cluster_RewardsRewardPageModule_imports</title>
<polygon fill="none" stroke="black" points="242,-40.8 242,-92.8 996,-92.8 996,-40.8 242,-40.8"/>
</g>
<g id="clust2" class="cluster">
<title>cluster_RewardsRewardPageModule_declarations</title>
<polygon fill="none" stroke="black" points="16,-40.8 16,-92.8 234,-92.8 234,-40.8 16,-40.8"/>
</g>
<!-- RewardsRewardPageComponent -->
<g id="node1" class="node">
<title>RewardsRewardPageComponent</title>
<polygon fill="#ffffb3" stroke="black" points="225.55,-84.8 24.45,-84.8 24.45,-48.8 225.55,-48.8 225.55,-84.8"/>
<text text-anchor="middle" x="125" y="-62.6" font-family="Times,serif" font-size="14.00">RewardsRewardPageComponent</text>
</g>
<!-- RewardsRewardPageModule -->
<g id="node2" class="node">
<title>RewardsRewardPageModule</title>
<polygon fill="#8dd3c7" stroke="black" points="600.77,-149.8 597.77,-153.8 576.77,-153.8 573.77,-149.8 421.23,-149.8 421.23,-113.8 600.77,-113.8 600.77,-149.8"/>
<text text-anchor="middle" x="511" y="-127.6" font-family="Times,serif" font-size="14.00">RewardsRewardPageModule</text>
</g>
<!-- RewardsRewardPageComponent&#45;&gt;RewardsRewardPageModule -->
<g id="edge1" class="edge">
<title>RewardsRewardPageComponent&#45;&gt;RewardsRewardPageModule</title>
<path fill="none" stroke="black" d="M125,-85.08C125,-106.12 125,-137.8 125,-137.8 125,-137.8 410.99,-137.8 410.99,-137.8"/>
<polygon fill="black" stroke="black" points="410.99,-141.3 420.99,-137.8 410.99,-134.3 410.99,-141.3"/>
</g>
<!-- RegistrationDialogModule -->
<g id="node3" class="node">
<title>RegistrationDialogModule</title>
<polygon fill="#8dd3c7" stroke="black" points="988.09,-84.8 985.09,-88.8 964.09,-88.8 961.09,-84.8 821.91,-84.8 821.91,-48.8 988.09,-48.8 988.09,-84.8"/>
<text text-anchor="middle" x="905" y="-62.6" font-family="Times,serif" font-size="14.00">RegistrationDialogModule</text>
</g>
<!-- RegistrationDialogModule&#45;&gt;RewardsRewardPageModule -->
<g id="edge2" class="edge">
<title>RegistrationDialogModule&#45;&gt;RewardsRewardPageModule</title>
<path fill="none" stroke="black" d="M905,-85.08C905,-106.12 905,-137.8 905,-137.8 905,-137.8 610.9,-137.8 610.9,-137.8"/>
<polygon fill="black" stroke="black" points="610.9,-134.3 600.9,-137.8 610.9,-141.3 610.9,-134.3"/>
</g>
<!-- RewardHowToDialogModule -->
<g id="node4" class="node">
<title>RewardHowToDialogModule</title>
<polygon fill="#8dd3c7" stroke="black" points="803.95,-84.8 800.95,-88.8 779.95,-88.8 776.95,-84.8 620.05,-84.8 620.05,-48.8 803.95,-48.8 803.95,-84.8"/>
<text text-anchor="middle" x="712" y="-62.6" font-family="Times,serif" font-size="14.00">RewardHowToDialogModule</text>
</g>
<!-- RewardHowToDialogModule&#45;&gt;RewardsRewardPageModule -->
<g id="edge3" class="edge">
<title>RewardHowToDialogModule&#45;&gt;RewardsRewardPageModule</title>
<path fill="none" stroke="black" d="M712,-84.82C712,-102.17 712,-125.8 712,-125.8 712,-125.8 610.92,-125.8 610.92,-125.8"/>
<polygon fill="black" stroke="black" points="610.92,-122.3 600.92,-125.8 610.92,-129.3 610.92,-122.3"/>
</g>
<!-- RewardPartnerDialogModule -->
<g id="node5" class="node">
<title>RewardPartnerDialogModule</title>
<polygon fill="#8dd3c7" stroke="black" points="601.61,-84.8 598.61,-88.8 577.61,-88.8 574.61,-84.8 420.39,-84.8 420.39,-48.8 601.61,-48.8 601.61,-84.8"/>
<text text-anchor="middle" x="511" y="-62.6" font-family="Times,serif" font-size="14.00">RewardPartnerDialogModule</text>
</g>
<!-- RewardPartnerDialogModule&#45;&gt;RewardsRewardPageModule -->
<g id="edge4" class="edge">
<title>RewardPartnerDialogModule&#45;&gt;RewardsRewardPageModule</title>
<path fill="none" stroke="black" d="M511,-84.91C511,-84.91 511,-103.79 511,-103.79"/>
<polygon fill="black" stroke="black" points="507.5,-103.79 511,-113.79 514.5,-103.79 507.5,-103.79"/>
</g>
<!-- SimpleTemplateModule -->
<g id="node6" class="node">
<title>SimpleTemplateModule</title>
<polygon fill="#8dd3c7" stroke="black" points="402.09,-84.8 399.09,-88.8 378.09,-88.8 375.09,-84.8 249.91,-84.8 249.91,-48.8 402.09,-48.8 402.09,-84.8"/>
<text text-anchor="middle" x="326" y="-62.6" font-family="Times,serif" font-size="14.00">SimpleTemplateModule</text>
</g>
<!-- SimpleTemplateModule&#45;&gt;RewardsRewardPageModule -->
<g id="edge5" class="edge">
<title>SimpleTemplateModule&#45;&gt;RewardsRewardPageModule</title>
<path fill="none" stroke="black" d="M326,-84.82C326,-102.17 326,-125.8 326,-125.8 326,-125.8 411.21,-125.8 411.21,-125.8"/>
<polygon fill="black" stroke="black" points="411.21,-129.3 421.21,-125.8 411.21,-122.3 411.21,-129.3"/>
</g>
</g>
</svg>
