<?xml version="1.0" encoding="UTF-8" standalone="no"?>
<!DOCTYPE svg PUBLIC "-//W3C//DTD SVG 1.1//EN"
 "http://www.w3.org/Graphics/SVG/1.1/DTD/svg11.dtd">
<!-- Generated by graphviz version 2.47.3 (20210619.1520)
 -->
<!-- Title: dependencies Pages: 1 -->
<svg width="854pt" height="174pt"
 viewBox="0.00 0.00 854.00 173.80" xmlns="http://www.w3.org/2000/svg" xmlns:xlink="http://www.w3.org/1999/xlink">
<g id="graph0" class="graph" transform="scale(1 1) rotate(0) translate(4 169.8)">
<title>dependencies</title>
<polygon fill="white" stroke="transparent" points="-4,4 -4,-169.8 850,-169.8 850,4 -4,4"/>
<text text-anchor="middle" x="423" y="-8.2" font-family="sans-serif" font-size="14.00">dependencies</text>
<g id="clust1" class="cluster">
<title>cluster_IntentionsJobOriginsPageModule</title>
<polygon fill="none" stroke="black" stroke-dasharray="1,5" points="8,-32.8 8,-157.8 838,-157.8 838,-32.8 8,-32.8"/>
</g>
<g id="clust4" class="cluster">
<title>cluster_IntentionsJobOriginsPageModule_imports</title>
<polygon fill="none" stroke="black" points="266,-40.8 266,-92.8 830,-92.8 830,-40.8 266,-40.8"/>
</g>
<g id="clust2" class="cluster">
<title>cluster_IntentionsJobOriginsPageModule_declarations</title>
<polygon fill="none" stroke="black" points="16,-40.8 16,-92.8 258,-92.8 258,-40.8 16,-40.8"/>
</g>
<!-- IntentionsJobOriginsPageComponent -->
<g id="node1" class="node">
<title>IntentionsJobOriginsPageComponent</title>
<polygon fill="#ffffb3" stroke="black" points="249.97,-84.8 24.03,-84.8 24.03,-48.8 249.97,-48.8 249.97,-84.8"/>
<text text-anchor="middle" x="137" y="-62.6" font-family="Times,serif" font-size="14.00">IntentionsJobOriginsPageComponent</text>
</g>
<!-- IntentionsJobOriginsPageModule -->
<g id="node2" class="node">
<title>IntentionsJobOriginsPageModule</title>
<polygon fill="#8dd3c7" stroke="black" points="608.19,-149.8 605.19,-153.8 584.19,-153.8 581.19,-149.8 403.81,-149.8 403.81,-113.8 608.19,-113.8 608.19,-149.8"/>
<text text-anchor="middle" x="506" y="-127.6" font-family="Times,serif" font-size="14.00">IntentionsJobOriginsPageModule</text>
</g>
<!-- IntentionsJobOriginsPageComponent&#45;&gt;IntentionsJobOriginsPageModule -->
<g id="edge1" class="edge">
<title>IntentionsJobOriginsPageComponent&#45;&gt;IntentionsJobOriginsPageModule</title>
<path fill="none" stroke="black" d="M137,-84.91C137,-104.14 137,-131.8 137,-131.8 137,-131.8 393.7,-131.8 393.7,-131.8"/>
<polygon fill="black" stroke="black" points="393.7,-135.3 403.7,-131.8 393.7,-128.3 393.7,-135.3"/>
</g>
<!-- FiltersModule -->
<g id="node3" class="node">
<title>FiltersModule</title>
<polygon fill="#8dd3c7" stroke="black" points="821.82,-84.8 818.82,-88.8 797.82,-88.8 794.82,-84.8 726.18,-84.8 726.18,-48.8 821.82,-48.8 821.82,-84.8"/>
<text text-anchor="middle" x="774" y="-62.6" font-family="Times,serif" font-size="14.00">FiltersModule</text>
</g>
<!-- FiltersModule&#45;&gt;IntentionsJobOriginsPageModule -->
<g id="edge2" class="edge">
<title>FiltersModule&#45;&gt;IntentionsJobOriginsPageModule</title>
<path fill="none" stroke="black" d="M774,-84.91C774,-104.14 774,-131.8 774,-131.8 774,-131.8 618.47,-131.8 618.47,-131.8"/>
<polygon fill="black" stroke="black" points="618.47,-128.3 608.47,-131.8 618.47,-135.3 618.47,-128.3"/>
</g>
<!-- NoRecordsModule -->
<g id="node4" class="node">
<title>NoRecordsModule</title>
<polygon fill="#8dd3c7" stroke="black" points="708.03,-84.8 705.03,-88.8 684.03,-88.8 681.03,-84.8 585.97,-84.8 585.97,-48.8 708.03,-48.8 708.03,-84.8"/>
<text text-anchor="middle" x="647" y="-62.6" font-family="Times,serif" font-size="14.00">NoRecordsModule</text>
</g>
<!-- NoRecordsModule&#45;&gt;IntentionsJobOriginsPageModule -->
<g id="edge3" class="edge">
<title>NoRecordsModule&#45;&gt;IntentionsJobOriginsPageModule</title>
<path fill="none" stroke="black" d="M596.92,-84.91C596.92,-84.91 596.92,-103.79 596.92,-103.79"/>
<polygon fill="black" stroke="black" points="593.42,-103.79 596.92,-113.79 600.42,-103.79 593.42,-103.79"/>
</g>
<!-- OriginCardModule -->
<g id="node5" class="node">
<title>OriginCardModule</title>
<polygon fill="#8dd3c7" stroke="black" points="567.81,-84.8 564.81,-88.8 543.81,-88.8 540.81,-84.8 444.19,-84.8 444.19,-48.8 567.81,-48.8 567.81,-84.8"/>
<text text-anchor="middle" x="506" y="-62.6" font-family="Times,serif" font-size="14.00">OriginCardModule</text>
</g>
<!-- OriginCardModule&#45;&gt;IntentionsJobOriginsPageModule -->
<g id="edge4" class="edge">
<title>OriginCardModule&#45;&gt;IntentionsJobOriginsPageModule</title>
<path fill="none" stroke="black" d="M506,-84.91C506,-84.91 506,-103.79 506,-103.79"/>
<polygon fill="black" stroke="black" points="502.5,-103.79 506,-113.79 509.5,-103.79 502.5,-103.79"/>
</g>
<!-- SimpleTemplateModule -->
<g id="node6" class="node">
<title>SimpleTemplateModule</title>
<polygon fill="#8dd3c7" stroke="black" points="426.09,-84.8 423.09,-88.8 402.09,-88.8 399.09,-84.8 273.91,-84.8 273.91,-48.8 426.09,-48.8 426.09,-84.8"/>
<text text-anchor="middle" x="350" y="-62.6" font-family="Times,serif" font-size="14.00">SimpleTemplateModule</text>
</g>
<!-- SimpleTemplateModule&#45;&gt;IntentionsJobOriginsPageModule -->
<g id="edge5" class="edge">
<title>SimpleTemplateModule&#45;&gt;IntentionsJobOriginsPageModule</title>
<path fill="none" stroke="black" d="M414.97,-84.91C414.97,-84.91 414.97,-103.79 414.97,-103.79"/>
<polygon fill="black" stroke="black" points="411.47,-103.79 414.97,-113.79 418.47,-103.79 411.47,-103.79"/>
</g>
</g>
</svg>
