<?xml version="1.0" encoding="UTF-8" standalone="no"?>
<!DOCTYPE svg PUBLIC "-//W3C//DTD SVG 1.1//EN"
 "http://www.w3.org/Graphics/SVG/1.1/DTD/svg11.dtd">
<!-- Generated by graphviz version 2.47.3 (20210619.1520)
 -->
<!-- Title: dependencies Pages: 1 -->
<svg width="954pt" height="247pt"
 viewBox="0.00 0.00 954.00 246.80" xmlns="http://www.w3.org/2000/svg" xmlns:xlink="http://www.w3.org/1999/xlink">
<g id="graph0" class="graph" transform="scale(1 1) rotate(0) translate(4 242.8)">
<title>dependencies</title>
<polygon fill="white" stroke="transparent" points="-4,4 -4,-242.8 950,-242.8 950,4 -4,4"/>
<text text-anchor="middle" x="473" y="-8.2" font-family="sans-serif" font-size="14.00">dependencies</text>
<g id="clust1" class="cluster">
<title>cluster_GenerateRoadmapModule</title>
<polygon fill="none" stroke="black" stroke-dasharray="1,5" points="8,-32.8 8,-230.8 938,-230.8 938,-32.8 8,-32.8"/>
</g>
<g id="clust2" class="cluster">
<title>cluster_GenerateRoadmapModule_declarations</title>
<polygon fill="none" stroke="black" points="742,-40.8 742,-92.8 930,-92.8 930,-40.8 742,-40.8"/>
</g>
<g id="clust5" class="cluster">
<title>cluster_GenerateRoadmapModule_exports</title>
<polygon fill="none" stroke="black" points="360,-170.8 360,-222.8 552,-222.8 552,-170.8 360,-170.8"/>
</g>
<g id="clust4" class="cluster">
<title>cluster_GenerateRoadmapModule_imports</title>
<polygon fill="none" stroke="black" points="552,-40.8 552,-92.8 734,-92.8 734,-40.8 552,-40.8"/>
</g>
<g id="clust7" class="cluster">
<title>cluster_GenerateRoadmapModule_providers</title>
<polygon fill="none" stroke="black" points="16,-40.8 16,-92.8 544,-92.8 544,-40.8 16,-40.8"/>
</g>
<!-- GenerateRoadmapDirective -->
<g id="node1" class="node">
<title>GenerateRoadmapDirective</title>
<polygon fill="#ffffb3" stroke="black" points="922.26,-84.8 749.74,-84.8 749.74,-48.8 922.26,-48.8 922.26,-84.8"/>
<text text-anchor="middle" x="836" y="-62.6" font-family="Times,serif" font-size="14.00">GenerateRoadmapDirective</text>
</g>
<!-- GenerateRoadmapModule -->
<g id="node2" class="node">
<title>GenerateRoadmapModule</title>
<polygon fill="#8dd3c7" stroke="black" points="537.72,-149.8 534.72,-153.8 513.72,-153.8 510.72,-149.8 374.28,-149.8 374.28,-113.8 537.72,-113.8 537.72,-149.8"/>
<text text-anchor="middle" x="456" y="-127.6" font-family="Times,serif" font-size="14.00">GenerateRoadmapModule</text>
</g>
<!-- GenerateRoadmapDirective&#45;&gt;GenerateRoadmapModule -->
<g id="edge1" class="edge">
<title>GenerateRoadmapDirective&#45;&gt;GenerateRoadmapModule</title>
<path fill="none" stroke="black" d="M836,-85.08C836,-106.12 836,-137.8 836,-137.8 836,-137.8 547.99,-137.8 547.99,-137.8"/>
<polygon fill="black" stroke="black" points="547.99,-134.3 537.99,-137.8 547.99,-141.3 547.99,-134.3"/>
</g>
<!-- GenerateRoadmapDirective  -->
<g id="node4" class="node">
<title>GenerateRoadmapDirective </title>
<polygon fill="#fb8072" stroke="black" points="543.76,-214.8 368.24,-214.8 368.24,-178.8 543.76,-178.8 543.76,-214.8"/>
<text text-anchor="middle" x="456" y="-192.6" font-family="Times,serif" font-size="14.00">GenerateRoadmapDirective </text>
</g>
<!-- GenerateRoadmapModule&#45;&gt;GenerateRoadmapDirective  -->
<g id="edge3" class="edge">
<title>GenerateRoadmapModule&#45;&gt;GenerateRoadmapDirective </title>
<path fill="none" stroke="black" stroke-dasharray="5,2" d="M456,-149.91C456,-149.91 456,-168.79 456,-168.79"/>
<polygon fill="black" stroke="black" points="452.5,-168.79 456,-178.79 459.5,-168.79 452.5,-168.79"/>
</g>
<!-- RegistrationDialogModule -->
<g id="node3" class="node">
<title>RegistrationDialogModule</title>
<polygon fill="#8dd3c7" stroke="black" points="726.09,-84.8 723.09,-88.8 702.09,-88.8 699.09,-84.8 559.91,-84.8 559.91,-48.8 726.09,-48.8 726.09,-84.8"/>
<text text-anchor="middle" x="643" y="-62.6" font-family="Times,serif" font-size="14.00">RegistrationDialogModule</text>
</g>
<!-- RegistrationDialogModule&#45;&gt;GenerateRoadmapModule -->
<g id="edge2" class="edge">
<title>RegistrationDialogModule&#45;&gt;GenerateRoadmapModule</title>
<path fill="none" stroke="black" d="M643,-84.82C643,-102.17 643,-125.8 643,-125.8 643,-125.8 547.75,-125.8 547.75,-125.8"/>
<polygon fill="black" stroke="black" points="547.75,-122.3 537.75,-125.8 547.75,-129.3 547.75,-122.3"/>
</g>
<!-- ApplicationClient -->
<g id="node5" class="node">
<title>ApplicationClient</title>
<ellipse fill="#fdb462" stroke="black" cx="456" cy="-66.8" rx="80.47" ry="18"/>
<text text-anchor="middle" x="456" y="-62.6" font-family="Times,serif" font-size="14.00">ApplicationClient</text>
</g>
<!-- ApplicationClient&#45;&gt;GenerateRoadmapModule -->
<g id="edge4" class="edge">
<title>ApplicationClient&#45;&gt;GenerateRoadmapModule</title>
<path fill="none" stroke="black" d="M456,-84.91C456,-84.91 456,-103.79 456,-103.79"/>
<polygon fill="black" stroke="black" points="452.5,-103.79 456,-113.79 459.5,-103.79 452.5,-103.79"/>
</g>
<!-- ApplicationService -->
<g id="node6" class="node">
<title>ApplicationService</title>
<ellipse fill="#fdb462" stroke="black" cx="272" cy="-66.8" rx="85.67" ry="18"/>
<text text-anchor="middle" x="272" y="-62.6" font-family="Times,serif" font-size="14.00">ApplicationService</text>
</g>
<!-- ApplicationService&#45;&gt;GenerateRoadmapModule -->
<g id="edge5" class="edge">
<title>ApplicationService&#45;&gt;GenerateRoadmapModule</title>
<path fill="none" stroke="black" d="M272,-84.82C272,-102.17 272,-125.8 272,-125.8 272,-125.8 364.22,-125.8 364.22,-125.8"/>
<polygon fill="black" stroke="black" points="364.22,-129.3 374.22,-125.8 364.22,-122.3 364.22,-129.3"/>
</g>
<!-- InstanceService -->
<g id="node7" class="node">
<title>InstanceService</title>
<ellipse fill="#fdb462" stroke="black" cx="96" cy="-66.8" rx="72.33" ry="18"/>
<text text-anchor="middle" x="96" y="-62.6" font-family="Times,serif" font-size="14.00">InstanceService</text>
</g>
<!-- InstanceService&#45;&gt;GenerateRoadmapModule -->
<g id="edge6" class="edge">
<title>InstanceService&#45;&gt;GenerateRoadmapModule</title>
<path fill="none" stroke="black" d="M96,-85.08C96,-106.12 96,-137.8 96,-137.8 96,-137.8 363.86,-137.8 363.86,-137.8"/>
<polygon fill="black" stroke="black" points="363.86,-141.3 373.86,-137.8 363.86,-134.3 363.86,-141.3"/>
</g>
</g>
</svg>
