<?xml version="1.0" encoding="UTF-8" standalone="no"?>
<!DOCTYPE svg PUBLIC "-//W3C//DTD SVG 1.1//EN"
 "http://www.w3.org/Graphics/SVG/1.1/DTD/svg11.dtd">
<!-- Generated by graphviz version 2.47.3 (20210619.1520)
 -->
<!-- Title: dependencies Pages: 1 -->
<svg width="504pt" height="247pt"
 viewBox="0.00 0.00 504.00 246.80" xmlns="http://www.w3.org/2000/svg" xmlns:xlink="http://www.w3.org/1999/xlink">
<g id="graph0" class="graph" transform="scale(1 1) rotate(0) translate(4 242.8)">
<title>dependencies</title>
<polygon fill="white" stroke="transparent" points="-4,4 -4,-242.8 500,-242.8 500,4 -4,4"/>
<text text-anchor="middle" x="248" y="-8.2" font-family="sans-serif" font-size="14.00">dependencies</text>
<g id="clust1" class="cluster">
<title>cluster_LocationSummaryModule</title>
<polygon fill="none" stroke="black" stroke-dasharray="1,5" points="8,-32.8 8,-230.8 488,-230.8 488,-32.8 8,-32.8"/>
</g>
<g id="clust2" class="cluster">
<title>cluster_LocationSummaryModule_declarations</title>
<polygon fill="none" stroke="black" points="278,-40.8 278,-92.8 480,-92.8 480,-40.8 278,-40.8"/>
</g>
<g id="clust5" class="cluster">
<title>cluster_LocationSummaryModule_exports</title>
<polygon fill="none" stroke="black" points="116,-170.8 116,-222.8 322,-222.8 322,-170.8 116,-170.8"/>
</g>
<g id="clust4" class="cluster">
<title>cluster_LocationSummaryModule_imports</title>
<polygon fill="none" stroke="black" points="16,-40.8 16,-92.8 270,-92.8 270,-40.8 16,-40.8"/>
</g>
<!-- LocationSummaryComponent -->
<g id="node1" class="node">
<title>LocationSummaryComponent</title>
<polygon fill="#ffffb3" stroke="black" points="471.53,-84.8 286.47,-84.8 286.47,-48.8 471.53,-48.8 471.53,-84.8"/>
<text text-anchor="middle" x="379" y="-62.6" font-family="Times,serif" font-size="14.00">LocationSummaryComponent</text>
</g>
<!-- LocationSummaryModule -->
<g id="node2" class="node">
<title>LocationSummaryModule</title>
<polygon fill="#8dd3c7" stroke="black" points="300.75,-149.8 297.75,-153.8 276.75,-153.8 273.75,-149.8 137.25,-149.8 137.25,-113.8 300.75,-113.8 300.75,-149.8"/>
<text text-anchor="middle" x="219" y="-127.6" font-family="Times,serif" font-size="14.00">LocationSummaryModule</text>
</g>
<!-- LocationSummaryComponent&#45;&gt;LocationSummaryModule -->
<g id="edge1" class="edge">
<title>LocationSummaryComponent&#45;&gt;LocationSummaryModule</title>
<path fill="none" stroke="black" d="M293.55,-84.91C293.55,-84.91 293.55,-103.79 293.55,-103.79"/>
<polygon fill="black" stroke="black" points="290.05,-103.79 293.55,-113.79 297.05,-103.79 290.05,-103.79"/>
</g>
<!-- LocationSummaryComponent  -->
<g id="node5" class="node">
<title>LocationSummaryComponent </title>
<polygon fill="#fb8072" stroke="black" points="313.53,-214.8 124.47,-214.8 124.47,-178.8 313.53,-178.8 313.53,-214.8"/>
<text text-anchor="middle" x="219" y="-192.6" font-family="Times,serif" font-size="14.00">LocationSummaryComponent </text>
</g>
<!-- LocationSummaryModule&#45;&gt;LocationSummaryComponent  -->
<g id="edge4" class="edge">
<title>LocationSummaryModule&#45;&gt;LocationSummaryComponent </title>
<path fill="none" stroke="black" stroke-dasharray="5,2" d="M219,-149.91C219,-149.91 219,-168.79 219,-168.79"/>
<polygon fill="black" stroke="black" points="215.5,-168.79 219,-178.79 222.5,-168.79 215.5,-168.79"/>
</g>
<!-- CostModule -->
<g id="node3" class="node">
<title>CostModule</title>
<polygon fill="#8dd3c7" stroke="black" points="261.72,-84.8 258.72,-88.8 237.72,-88.8 234.72,-84.8 176.28,-84.8 176.28,-48.8 261.72,-48.8 261.72,-84.8"/>
<text text-anchor="middle" x="219" y="-62.6" font-family="Times,serif" font-size="14.00">CostModule</text>
</g>
<!-- CostModule&#45;&gt;LocationSummaryModule -->
<g id="edge2" class="edge">
<title>CostModule&#45;&gt;LocationSummaryModule</title>
<path fill="none" stroke="black" d="M219,-84.91C219,-84.91 219,-103.79 219,-103.79"/>
<polygon fill="black" stroke="black" points="215.5,-103.79 219,-113.79 222.5,-103.79 215.5,-103.79"/>
</g>
<!-- TypescriptAsModule -->
<g id="node4" class="node">
<title>TypescriptAsModule</title>
<polygon fill="#8dd3c7" stroke="black" points="158.47,-84.8 155.47,-88.8 134.47,-88.8 131.47,-84.8 23.53,-84.8 23.53,-48.8 158.47,-48.8 158.47,-84.8"/>
<text text-anchor="middle" x="91" y="-62.6" font-family="Times,serif" font-size="14.00">TypescriptAsModule</text>
</g>
<!-- TypescriptAsModule&#45;&gt;LocationSummaryModule -->
<g id="edge3" class="edge">
<title>TypescriptAsModule&#45;&gt;LocationSummaryModule</title>
<path fill="none" stroke="black" d="M147.8,-84.91C147.8,-84.91 147.8,-103.79 147.8,-103.79"/>
<polygon fill="black" stroke="black" points="144.3,-103.79 147.8,-113.79 151.3,-103.79 144.3,-103.79"/>
</g>
</g>
</svg>
