<?xml version="1.0" encoding="UTF-8" standalone="no"?>
<!DOCTYPE svg PUBLIC "-//W3C//DTD SVG 1.1//EN"
 "http://www.w3.org/Graphics/SVG/1.1/DTD/svg11.dtd">
<!-- Generated by graphviz version 2.47.3 (20210619.1520)
 -->
<!-- Title: dependencies Pages: 1 -->
<svg width="1121pt" height="247pt"
 viewBox="0.00 0.00 1121.00 246.80" xmlns="http://www.w3.org/2000/svg" xmlns:xlink="http://www.w3.org/1999/xlink">
<g id="graph0" class="graph" transform="scale(1 1) rotate(0) translate(4 242.8)">
<title>dependencies</title>
<polygon fill="white" stroke="transparent" points="-4,4 -4,-242.8 1117,-242.8 1117,4 -4,4"/>
<text text-anchor="middle" x="556.5" y="-8.2" font-family="sans-serif" font-size="14.00">dependencies</text>
<g id="clust1" class="cluster">
<title>cluster_AdminTagsModule</title>
<polygon fill="none" stroke="black" stroke-dasharray="1,5" points="8,-32.8 8,-230.8 1105,-230.8 1105,-32.8 8,-32.8"/>
</g>
<g id="clust6" class="cluster">
<title>cluster_AdminTagsModule_exports</title>
<polygon fill="none" stroke="black" points="406,-170.8 406,-222.8 572,-222.8 572,-170.8 406,-170.8"/>
</g>
<g id="clust8" class="cluster">
<title>cluster_AdminTagsModule_providers</title>
<polygon fill="none" stroke="black" points="686,-40.8 686,-92.8 1097,-92.8 1097,-40.8 686,-40.8"/>
</g>
<g id="clust2" class="cluster">
<title>cluster_AdminTagsModule_declarations</title>
<polygon fill="none" stroke="black" points="316,-40.8 316,-92.8 678,-92.8 678,-40.8 316,-40.8"/>
</g>
<g id="clust5" class="cluster">
<title>cluster_AdminTagsModule_imports</title>
<polygon fill="none" stroke="black" points="16,-40.8 16,-92.8 308,-92.8 308,-40.8 16,-40.8"/>
</g>
<!-- AdminTagDialogComponent -->
<g id="node1" class="node">
<title>AdminTagDialogComponent</title>
<polygon fill="#ffffb3" stroke="black" points="670.09,-84.8 489.91,-84.8 489.91,-48.8 670.09,-48.8 670.09,-84.8"/>
<text text-anchor="middle" x="580" y="-62.6" font-family="Times,serif" font-size="14.00">AdminTagDialogComponent</text>
</g>
<!-- AdminTagsModule -->
<g id="node3" class="node">
<title>AdminTagsModule</title>
<polygon fill="#8dd3c7" stroke="black" points="551.65,-149.8 548.65,-153.8 527.65,-153.8 524.65,-149.8 426.35,-149.8 426.35,-113.8 551.65,-113.8 551.65,-149.8"/>
<text text-anchor="middle" x="489" y="-127.6" font-family="Times,serif" font-size="14.00">AdminTagsModule</text>
</g>
<!-- AdminTagDialogComponent&#45;&gt;AdminTagsModule -->
<g id="edge1" class="edge">
<title>AdminTagDialogComponent&#45;&gt;AdminTagsModule</title>
<path fill="none" stroke="black" d="M520.89,-84.91C520.89,-84.91 520.89,-103.79 520.89,-103.79"/>
<polygon fill="black" stroke="black" points="517.39,-103.79 520.89,-113.79 524.39,-103.79 517.39,-103.79"/>
</g>
<!-- AdminTagsComponent -->
<g id="node2" class="node">
<title>AdminTagsComponent</title>
<polygon fill="#ffffb3" stroke="black" points="471.93,-84.8 324.07,-84.8 324.07,-48.8 471.93,-48.8 471.93,-84.8"/>
<text text-anchor="middle" x="398" y="-62.6" font-family="Times,serif" font-size="14.00">AdminTagsComponent</text>
</g>
<!-- AdminTagsComponent&#45;&gt;AdminTagsModule -->
<g id="edge2" class="edge">
<title>AdminTagsComponent&#45;&gt;AdminTagsModule</title>
<path fill="none" stroke="black" d="M448.95,-84.91C448.95,-84.91 448.95,-103.79 448.95,-103.79"/>
<polygon fill="black" stroke="black" points="445.45,-103.79 448.95,-113.79 452.45,-103.79 445.45,-103.79"/>
</g>
<!-- AdminTagsComponent  -->
<g id="node6" class="node">
<title>AdminTagsComponent </title>
<polygon fill="#fb8072" stroke="black" points="564.43,-214.8 413.57,-214.8 413.57,-178.8 564.43,-178.8 564.43,-214.8"/>
<text text-anchor="middle" x="489" y="-192.6" font-family="Times,serif" font-size="14.00">AdminTagsComponent </text>
</g>
<!-- AdminTagsModule&#45;&gt;AdminTagsComponent  -->
<g id="edge5" class="edge">
<title>AdminTagsModule&#45;&gt;AdminTagsComponent </title>
<path fill="none" stroke="black" stroke-dasharray="5,2" d="M489,-149.91C489,-149.91 489,-168.79 489,-168.79"/>
<polygon fill="black" stroke="black" points="485.5,-168.79 489,-178.79 492.5,-168.79 485.5,-168.79"/>
</g>
<!-- AdminTableModule -->
<g id="node4" class="node">
<title>AdminTableModule</title>
<polygon fill="#8dd3c7" stroke="black" points="300.31,-84.8 297.31,-88.8 276.31,-88.8 273.31,-84.8 169.69,-84.8 169.69,-48.8 300.31,-48.8 300.31,-84.8"/>
<text text-anchor="middle" x="235" y="-62.6" font-family="Times,serif" font-size="14.00">AdminTableModule</text>
</g>
<!-- AdminTableModule&#45;&gt;AdminTagsModule -->
<g id="edge3" class="edge">
<title>AdminTableModule&#45;&gt;AdminTagsModule</title>
<path fill="none" stroke="black" d="M235,-84.82C235,-102.17 235,-125.8 235,-125.8 235,-125.8 416.21,-125.8 416.21,-125.8"/>
<polygon fill="black" stroke="black" points="416.21,-129.3 426.21,-125.8 416.21,-122.3 416.21,-129.3"/>
</g>
<!-- SearchFormModule -->
<g id="node5" class="node">
<title>SearchFormModule</title>
<polygon fill="#8dd3c7" stroke="black" points="151.97,-84.8 148.97,-88.8 127.97,-88.8 124.97,-84.8 24.03,-84.8 24.03,-48.8 151.97,-48.8 151.97,-84.8"/>
<text text-anchor="middle" x="88" y="-62.6" font-family="Times,serif" font-size="14.00">SearchFormModule</text>
</g>
<!-- SearchFormModule&#45;&gt;AdminTagsModule -->
<g id="edge4" class="edge">
<title>SearchFormModule&#45;&gt;AdminTagsModule</title>
<path fill="none" stroke="black" d="M88,-85.08C88,-106.12 88,-137.8 88,-137.8 88,-137.8 416.34,-137.8 416.34,-137.8"/>
<polygon fill="black" stroke="black" points="416.34,-141.3 426.34,-137.8 416.34,-134.3 416.34,-141.3"/>
</g>
<!-- AdminDefinitionService -->
<g id="node7" class="node">
<title>AdminDefinitionService</title>
<ellipse fill="#fdb462" stroke="black" cx="982" cy="-66.8" rx="106.52" ry="18"/>
<text text-anchor="middle" x="982" y="-62.6" font-family="Times,serif" font-size="14.00">AdminDefinitionService</text>
</g>
<!-- AdminDefinitionService&#45;&gt;AdminTagsModule -->
<g id="edge6" class="edge">
<title>AdminDefinitionService&#45;&gt;AdminTagsModule</title>
<path fill="none" stroke="black" d="M982,-85.08C982,-106.12 982,-137.8 982,-137.8 982,-137.8 561.69,-137.8 561.69,-137.8"/>
<polygon fill="black" stroke="black" points="561.69,-134.3 551.69,-137.8 561.69,-141.3 561.69,-134.3"/>
</g>
<!-- AdminTagService -->
<g id="node8" class="node">
<title>AdminTagService</title>
<ellipse fill="#fdb462" stroke="black" cx="776" cy="-66.8" rx="81.66" ry="18"/>
<text text-anchor="middle" x="776" y="-62.6" font-family="Times,serif" font-size="14.00">AdminTagService</text>
</g>
<!-- AdminTagService&#45;&gt;AdminTagsModule -->
<g id="edge7" class="edge">
<title>AdminTagService&#45;&gt;AdminTagsModule</title>
<path fill="none" stroke="black" d="M776,-84.82C776,-102.17 776,-125.8 776,-125.8 776,-125.8 561.98,-125.8 561.98,-125.8"/>
<polygon fill="black" stroke="black" points="561.98,-122.3 551.98,-125.8 561.98,-129.3 561.98,-122.3"/>
</g>
</g>
</svg>
