<?xml version="1.0" encoding="UTF-8" standalone="no"?>
<!DOCTYPE svg PUBLIC "-//W3C//DTD SVG 1.1//EN"
 "http://www.w3.org/Graphics/SVG/1.1/DTD/svg11.dtd">
<!-- Generated by graphviz version 2.47.3 (20210619.1520)
 -->
<!-- Title: dependencies Pages: 1 -->
<svg width="372pt" height="247pt"
 viewBox="0.00 0.00 372.00 246.80" xmlns="http://www.w3.org/2000/svg" xmlns:xlink="http://www.w3.org/1999/xlink">
<g id="graph0" class="graph" transform="scale(1 1) rotate(0) translate(4 242.8)">
<title>dependencies</title>
<polygon fill="white" stroke="transparent" points="-4,4 -4,-242.8 368,-242.8 368,4 -4,4"/>
<text text-anchor="middle" x="182" y="-8.2" font-family="sans-serif" font-size="14.00">dependencies</text>
<g id="clust1" class="cluster">
<title>cluster_SharedExpeditionModule</title>
<polygon fill="none" stroke="black" stroke-dasharray="1,5" points="8,-32.8 8,-230.8 356,-230.8 356,-32.8 8,-32.8"/>
</g>
<g id="clust3" class="cluster">
<title>cluster_SharedExpeditionModule_imports</title>
<polygon fill="none" stroke="black" points="99,-40.8 99,-92.8 267,-92.8 267,-40.8 99,-40.8"/>
</g>
<g id="clust4" class="cluster">
<title>cluster_SharedExpeditionModule_exports</title>
<polygon fill="none" stroke="black" points="16,-170.8 16,-222.8 348,-222.8 348,-170.8 16,-170.8"/>
</g>
<!-- SimpleTemplateModule -->
<g id="node1" class="node">
<title>SimpleTemplateModule</title>
<polygon fill="#8dd3c7" stroke="black" points="259.09,-84.8 256.09,-88.8 235.09,-88.8 232.09,-84.8 106.91,-84.8 106.91,-48.8 259.09,-48.8 259.09,-84.8"/>
<text text-anchor="middle" x="183" y="-62.6" font-family="Times,serif" font-size="14.00">SimpleTemplateModule</text>
</g>
<!-- SharedExpeditionModule -->
<g id="node2" class="node">
<title>SharedExpeditionModule</title>
<polygon fill="#8dd3c7" stroke="black" points="262.86,-149.8 259.86,-153.8 238.86,-153.8 235.86,-149.8 103.14,-149.8 103.14,-113.8 262.86,-113.8 262.86,-149.8"/>
<text text-anchor="middle" x="183" y="-127.6" font-family="Times,serif" font-size="14.00">SharedExpeditionModule</text>
</g>
<!-- SimpleTemplateModule&#45;&gt;SharedExpeditionModule -->
<g id="edge1" class="edge">
<title>SimpleTemplateModule&#45;&gt;SharedExpeditionModule</title>
<path fill="none" stroke="black" d="M183,-84.91C183,-84.91 183,-103.79 183,-103.79"/>
<polygon fill="black" stroke="black" points="179.5,-103.79 183,-113.79 186.5,-103.79 179.5,-103.79"/>
</g>
<!-- EmptySectionModule  -->
<g id="node3" class="node">
<title>EmptySectionModule </title>
<polygon fill="#fb8072" stroke="black" points="340.38,-214.8 197.62,-214.8 197.62,-178.8 340.38,-178.8 340.38,-214.8"/>
<text text-anchor="middle" x="269" y="-192.6" font-family="Times,serif" font-size="14.00">EmptySectionModule </text>
</g>
<!-- SharedExpeditionModule&#45;&gt;EmptySectionModule  -->
<g id="edge2" class="edge">
<title>SharedExpeditionModule&#45;&gt;EmptySectionModule </title>
<path fill="none" stroke="black" stroke-dasharray="5,2" d="M230.37,-149.91C230.37,-149.91 230.37,-168.79 230.37,-168.79"/>
<polygon fill="black" stroke="black" points="226.87,-168.79 230.37,-178.79 233.87,-168.79 226.87,-168.79"/>
</g>
<!-- SimpleTemplateModule  -->
<g id="node4" class="node">
<title>SimpleTemplateModule </title>
<polygon fill="#fb8072" stroke="black" points="179.59,-214.8 24.41,-214.8 24.41,-178.8 179.59,-178.8 179.59,-214.8"/>
<text text-anchor="middle" x="102" y="-192.6" font-family="Times,serif" font-size="14.00">SimpleTemplateModule </text>
</g>
<!-- SharedExpeditionModule&#45;&gt;SimpleTemplateModule  -->
<g id="edge3" class="edge">
<title>SharedExpeditionModule&#45;&gt;SimpleTemplateModule </title>
<path fill="none" stroke="black" stroke-dasharray="5,2" d="M141.43,-149.91C141.43,-149.91 141.43,-168.79 141.43,-168.79"/>
<polygon fill="black" stroke="black" points="137.93,-168.79 141.43,-178.79 144.93,-168.79 137.93,-168.79"/>
</g>
</g>
</svg>
