<?xml version="1.0" encoding="UTF-8" standalone="no"?>
<!DOCTYPE svg PUBLIC "-//W3C//DTD SVG 1.1//EN"
 "http://www.w3.org/Graphics/SVG/1.1/DTD/svg11.dtd">
<!-- Generated by graphviz version 2.47.3 (20210619.1520)
 -->
<!-- Title: dependencies Pages: 1 -->
<svg width="883pt" height="174pt"
 viewBox="0.00 0.00 883.00 173.80" xmlns="http://www.w3.org/2000/svg" xmlns:xlink="http://www.w3.org/1999/xlink">
<g id="graph0" class="graph" transform="scale(1 1) rotate(0) translate(4 169.8)">
<title>dependencies</title>
<polygon fill="white" stroke="transparent" points="-4,4 -4,-169.8 879,-169.8 879,4 -4,4"/>
<text text-anchor="middle" x="437.5" y="-8.2" font-family="sans-serif" font-size="14.00">dependencies</text>
<g id="clust1" class="cluster">
<title>cluster_ExpeditionInstanceDetailsPageModule</title>
<polygon fill="none" stroke="black" stroke-dasharray="1,5" points="8,-32.8 8,-157.8 867,-157.8 867,-32.8 8,-32.8"/>
</g>
<g id="clust4" class="cluster">
<title>cluster_ExpeditionInstanceDetailsPageModule_imports</title>
<polygon fill="none" stroke="black" points="296,-40.8 296,-92.8 859,-92.8 859,-40.8 296,-40.8"/>
</g>
<g id="clust2" class="cluster">
<title>cluster_ExpeditionInstanceDetailsPageModule_declarations</title>
<polygon fill="none" stroke="black" points="16,-40.8 16,-92.8 288,-92.8 288,-40.8 16,-40.8"/>
</g>
<!-- ExpeditionInstanceDetailsPageComponent -->
<g id="node1" class="node">
<title>ExpeditionInstanceDetailsPageComponent</title>
<polygon fill="#ffffb3" stroke="black" points="280.28,-84.8 23.72,-84.8 23.72,-48.8 280.28,-48.8 280.28,-84.8"/>
<text text-anchor="middle" x="152" y="-62.6" font-family="Times,serif" font-size="14.00">ExpeditionInstanceDetailsPageComponent</text>
</g>
<!-- ExpeditionInstanceDetailsPageModule -->
<g id="node2" class="node">
<title>ExpeditionInstanceDetailsPageModule</title>
<polygon fill="#8dd3c7" stroke="black" points="582.49,-149.8 579.49,-153.8 558.49,-153.8 555.49,-149.8 347.51,-149.8 347.51,-113.8 582.49,-113.8 582.49,-149.8"/>
<text text-anchor="middle" x="465" y="-127.6" font-family="Times,serif" font-size="14.00">ExpeditionInstanceDetailsPageModule</text>
</g>
<!-- ExpeditionInstanceDetailsPageComponent&#45;&gt;ExpeditionInstanceDetailsPageModule -->
<g id="edge1" class="edge">
<title>ExpeditionInstanceDetailsPageComponent&#45;&gt;ExpeditionInstanceDetailsPageModule</title>
<path fill="none" stroke="black" d="M152,-84.91C152,-104.14 152,-131.8 152,-131.8 152,-131.8 337.56,-131.8 337.56,-131.8"/>
<polygon fill="black" stroke="black" points="337.56,-135.3 347.56,-131.8 337.56,-128.3 337.56,-135.3"/>
</g>
<!-- ExpeditionInstanceDetailsModule -->
<g id="node3" class="node">
<title>ExpeditionInstanceDetailsModule</title>
<polygon fill="#8dd3c7" stroke="black" points="850.78,-84.8 847.78,-88.8 826.78,-88.8 823.78,-84.8 643.22,-84.8 643.22,-48.8 850.78,-48.8 850.78,-84.8"/>
<text text-anchor="middle" x="747" y="-62.6" font-family="Times,serif" font-size="14.00">ExpeditionInstanceDetailsModule</text>
</g>
<!-- ExpeditionInstanceDetailsModule&#45;&gt;ExpeditionInstanceDetailsPageModule -->
<g id="edge2" class="edge">
<title>ExpeditionInstanceDetailsModule&#45;&gt;ExpeditionInstanceDetailsPageModule</title>
<path fill="none" stroke="black" d="M747,-84.91C747,-104.14 747,-131.8 747,-131.8 747,-131.8 592.55,-131.8 592.55,-131.8"/>
<polygon fill="black" stroke="black" points="592.55,-128.3 582.55,-131.8 592.55,-135.3 592.55,-128.3"/>
</g>
<!-- ExpeditionStepsModule -->
<g id="node4" class="node">
<title>ExpeditionStepsModule</title>
<polygon fill="#8dd3c7" stroke="black" points="625.82,-84.8 622.82,-88.8 601.82,-88.8 598.82,-84.8 474.18,-84.8 474.18,-48.8 625.82,-48.8 625.82,-84.8"/>
<text text-anchor="middle" x="550" y="-62.6" font-family="Times,serif" font-size="14.00">ExpeditionStepsModule</text>
</g>
<!-- ExpeditionStepsModule&#45;&gt;ExpeditionInstanceDetailsPageModule -->
<g id="edge3" class="edge">
<title>ExpeditionStepsModule&#45;&gt;ExpeditionInstanceDetailsPageModule</title>
<path fill="none" stroke="black" d="M528.29,-84.91C528.29,-84.91 528.29,-103.79 528.29,-103.79"/>
<polygon fill="black" stroke="black" points="524.79,-103.79 528.29,-113.79 531.79,-103.79 524.79,-103.79"/>
</g>
<!-- SimpleTemplateModule -->
<g id="node5" class="node">
<title>SimpleTemplateModule</title>
<polygon fill="#8dd3c7" stroke="black" points="456.09,-84.8 453.09,-88.8 432.09,-88.8 429.09,-84.8 303.91,-84.8 303.91,-48.8 456.09,-48.8 456.09,-84.8"/>
<text text-anchor="middle" x="380" y="-62.6" font-family="Times,serif" font-size="14.00">SimpleTemplateModule</text>
</g>
<!-- SimpleTemplateModule&#45;&gt;ExpeditionInstanceDetailsPageModule -->
<g id="edge4" class="edge">
<title>SimpleTemplateModule&#45;&gt;ExpeditionInstanceDetailsPageModule</title>
<path fill="none" stroke="black" d="M401.9,-84.91C401.9,-84.91 401.9,-103.79 401.9,-103.79"/>
<polygon fill="black" stroke="black" points="398.4,-103.79 401.9,-113.79 405.4,-103.79 398.4,-103.79"/>
</g>
</g>
</svg>
