<?xml version="1.0" encoding="UTF-8" standalone="no"?>
<!DOCTYPE svg PUBLIC "-//W3C//DTD SVG 1.1//EN"
 "http://www.w3.org/Graphics/SVG/1.1/DTD/svg11.dtd">
<!-- Generated by graphviz version 2.47.3 (20210619.1520)
 -->
<!-- Title: dependencies Pages: 1 -->
<svg width="564pt" height="247pt"
 viewBox="0.00 0.00 564.00 246.80" xmlns="http://www.w3.org/2000/svg" xmlns:xlink="http://www.w3.org/1999/xlink">
<g id="graph0" class="graph" transform="scale(1 1) rotate(0) translate(4 242.8)">
<title>dependencies</title>
<polygon fill="white" stroke="transparent" points="-4,4 -4,-242.8 560,-242.8 560,4 -4,4"/>
<text text-anchor="middle" x="278" y="-8.2" font-family="sans-serif" font-size="14.00">dependencies</text>
<g id="clust1" class="cluster">
<title>cluster_YoutubeWrapperModule</title>
<polygon fill="none" stroke="black" stroke-dasharray="1,5" points="8,-32.8 8,-230.8 548,-230.8 548,-32.8 8,-32.8"/>
</g>
<g id="clust2" class="cluster">
<title>cluster_YoutubeWrapperModule_declarations</title>
<polygon fill="none" stroke="black" points="346,-40.8 346,-92.8 540,-92.8 540,-40.8 346,-40.8"/>
</g>
<g id="clust4" class="cluster">
<title>cluster_YoutubeWrapperModule_imports</title>
<polygon fill="none" stroke="black" points="16,-40.8 16,-92.8 338,-92.8 338,-40.8 16,-40.8"/>
</g>
<g id="clust5" class="cluster">
<title>cluster_YoutubeWrapperModule_exports</title>
<polygon fill="none" stroke="black" points="160,-170.8 160,-222.8 358,-222.8 358,-170.8 160,-170.8"/>
</g>
<!-- YoutubeWrapperComponent -->
<g id="node1" class="node">
<title>YoutubeWrapperComponent</title>
<polygon fill="#ffffb3" stroke="black" points="532.01,-84.8 353.99,-84.8 353.99,-48.8 532.01,-48.8 532.01,-84.8"/>
<text text-anchor="middle" x="443" y="-62.6" font-family="Times,serif" font-size="14.00">YoutubeWrapperComponent</text>
</g>
<!-- YoutubeWrapperModule -->
<g id="node2" class="node">
<title>YoutubeWrapperModule</title>
<polygon fill="#8dd3c7" stroke="black" points="337.23,-149.8 334.23,-153.8 313.23,-153.8 310.23,-149.8 180.77,-149.8 180.77,-113.8 337.23,-113.8 337.23,-149.8"/>
<text text-anchor="middle" x="259" y="-127.6" font-family="Times,serif" font-size="14.00">YoutubeWrapperModule</text>
</g>
<!-- YoutubeWrapperComponent&#45;&gt;YoutubeWrapperModule -->
<g id="edge1" class="edge">
<title>YoutubeWrapperComponent&#45;&gt;YoutubeWrapperModule</title>
<path fill="none" stroke="black" d="M353.98,-66.8C341.96,-66.8 333.67,-66.8 333.67,-66.8 333.67,-66.8 333.67,-103.69 333.67,-103.69"/>
<polygon fill="black" stroke="black" points="330.17,-103.69 333.67,-113.69 337.17,-103.69 330.17,-103.69"/>
</g>
<!-- YoutubeWrapperComponent  -->
<g id="node5" class="node">
<title>YoutubeWrapperComponent </title>
<polygon fill="#fb8072" stroke="black" points="350.01,-214.8 167.99,-214.8 167.99,-178.8 350.01,-178.8 350.01,-214.8"/>
<text text-anchor="middle" x="259" y="-192.6" font-family="Times,serif" font-size="14.00">YoutubeWrapperComponent </text>
</g>
<!-- YoutubeWrapperModule&#45;&gt;YoutubeWrapperComponent  -->
<g id="edge4" class="edge">
<title>YoutubeWrapperModule&#45;&gt;YoutubeWrapperComponent </title>
<path fill="none" stroke="black" stroke-dasharray="5,2" d="M259,-149.91C259,-149.91 259,-168.79 259,-168.79"/>
<polygon fill="black" stroke="black" points="255.5,-168.79 259,-178.79 262.5,-168.79 255.5,-168.79"/>
</g>
<!-- ScrollWrapperModule -->
<g id="node3" class="node">
<title>ScrollWrapperModule</title>
<polygon fill="#8dd3c7" stroke="black" points="329.95,-84.8 326.95,-88.8 305.95,-88.8 302.95,-84.8 188.05,-84.8 188.05,-48.8 329.95,-48.8 329.95,-84.8"/>
<text text-anchor="middle" x="259" y="-62.6" font-family="Times,serif" font-size="14.00">ScrollWrapperModule</text>
</g>
<!-- ScrollWrapperModule&#45;&gt;YoutubeWrapperModule -->
<g id="edge2" class="edge">
<title>ScrollWrapperModule&#45;&gt;YoutubeWrapperModule</title>
<path fill="none" stroke="black" d="M259,-84.91C259,-84.91 259,-103.79 259,-103.79"/>
<polygon fill="black" stroke="black" points="255.5,-103.79 259,-113.79 262.5,-103.79 255.5,-103.79"/>
</g>
<!-- YoutubeDialogModule -->
<g id="node4" class="node">
<title>YoutubeDialogModule</title>
<polygon fill="#8dd3c7" stroke="black" points="169.86,-84.8 166.86,-88.8 145.86,-88.8 142.86,-84.8 24.14,-84.8 24.14,-48.8 169.86,-48.8 169.86,-84.8"/>
<text text-anchor="middle" x="97" y="-62.6" font-family="Times,serif" font-size="14.00">YoutubeDialogModule</text>
</g>
<!-- YoutubeDialogModule&#45;&gt;YoutubeWrapperModule -->
<g id="edge3" class="edge">
<title>YoutubeDialogModule&#45;&gt;YoutubeWrapperModule</title>
<path fill="none" stroke="black" d="M169.91,-66.8C178.53,-66.8 184.33,-66.8 184.33,-66.8 184.33,-66.8 184.33,-103.69 184.33,-103.69"/>
<polygon fill="black" stroke="black" points="180.83,-103.69 184.33,-113.69 187.83,-103.69 180.83,-103.69"/>
</g>
</g>
</svg>
