<?xml version="1.0" encoding="UTF-8" standalone="no"?>
<!DOCTYPE svg PUBLIC "-//W3C//DTD SVG 1.1//EN"
 "http://www.w3.org/Graphics/SVG/1.1/DTD/svg11.dtd">
<!-- Generated by graphviz version 2.47.3 (20210619.1520)
 -->
<!-- Title: dependencies Pages: 1 -->
<svg width="993pt" height="247pt"
 viewBox="0.00 0.00 993.00 246.80" xmlns="http://www.w3.org/2000/svg" xmlns:xlink="http://www.w3.org/1999/xlink">
<g id="graph0" class="graph" transform="scale(1 1) rotate(0) translate(4 242.8)">
<title>dependencies</title>
<polygon fill="white" stroke="transparent" points="-4,4 -4,-242.8 989,-242.8 989,4 -4,4"/>
<text text-anchor="middle" x="492.5" y="-8.2" font-family="sans-serif" font-size="14.00">dependencies</text>
<g id="clust1" class="cluster">
<title>cluster_MyRoadHomeModule</title>
<polygon fill="none" stroke="black" stroke-dasharray="1,5" points="8,-32.8 8,-230.8 977,-230.8 977,-32.8 8,-32.8"/>
</g>
<g id="clust2" class="cluster">
<title>cluster_MyRoadHomeModule_declarations</title>
<polygon fill="none" stroke="black" points="789,-40.8 789,-92.8 969,-92.8 969,-40.8 789,-40.8"/>
</g>
<g id="clust4" class="cluster">
<title>cluster_MyRoadHomeModule_imports</title>
<polygon fill="none" stroke="black" points="16,-40.8 16,-92.8 781,-92.8 781,-40.8 16,-40.8"/>
</g>
<g id="clust5" class="cluster">
<title>cluster_MyRoadHomeModule_exports</title>
<polygon fill="none" stroke="black" points="406,-170.8 406,-222.8 590,-222.8 590,-170.8 406,-170.8"/>
</g>
<!-- MyRoadHomeComponent -->
<g id="node1" class="node">
<title>MyRoadHomeComponent</title>
<polygon fill="#ffffb3" stroke="black" points="961.04,-84.8 796.96,-84.8 796.96,-48.8 961.04,-48.8 961.04,-84.8"/>
<text text-anchor="middle" x="879" y="-62.6" font-family="Times,serif" font-size="14.00">MyRoadHomeComponent</text>
</g>
<!-- MyRoadHomeModule -->
<g id="node2" class="node">
<title>MyRoadHomeModule</title>
<polygon fill="#8dd3c7" stroke="black" points="569.26,-149.8 566.26,-153.8 545.26,-153.8 542.26,-149.8 426.74,-149.8 426.74,-113.8 569.26,-113.8 569.26,-149.8"/>
<text text-anchor="middle" x="498" y="-127.6" font-family="Times,serif" font-size="14.00">MyRoadHomeModule</text>
</g>
<!-- MyRoadHomeComponent&#45;&gt;MyRoadHomeModule -->
<g id="edge1" class="edge">
<title>MyRoadHomeComponent&#45;&gt;MyRoadHomeModule</title>
<path fill="none" stroke="black" d="M879,-85.08C879,-106.12 879,-137.8 879,-137.8 879,-137.8 579.66,-137.8 579.66,-137.8"/>
<polygon fill="black" stroke="black" points="579.66,-134.3 569.66,-137.8 579.66,-141.3 579.66,-134.3"/>
</g>
<!-- MyRoadHomeComponent  -->
<g id="node7" class="node">
<title>MyRoadHomeComponent </title>
<polygon fill="#fb8072" stroke="black" points="582.04,-214.8 413.96,-214.8 413.96,-178.8 582.04,-178.8 582.04,-214.8"/>
<text text-anchor="middle" x="498" y="-192.6" font-family="Times,serif" font-size="14.00">MyRoadHomeComponent </text>
</g>
<!-- MyRoadHomeModule&#45;&gt;MyRoadHomeComponent  -->
<g id="edge6" class="edge">
<title>MyRoadHomeModule&#45;&gt;MyRoadHomeComponent </title>
<path fill="none" stroke="black" stroke-dasharray="5,2" d="M498,-149.91C498,-149.91 498,-168.79 498,-168.79"/>
<polygon fill="black" stroke="black" points="494.5,-168.79 498,-178.79 501.5,-168.79 494.5,-168.79"/>
</g>
<!-- FeaturesContainerModule -->
<g id="node3" class="node">
<title>FeaturesContainerModule</title>
<polygon fill="#8dd3c7" stroke="black" points="773.18,-84.8 770.18,-88.8 749.18,-88.8 746.18,-84.8 610.82,-84.8 610.82,-48.8 773.18,-48.8 773.18,-84.8"/>
<text text-anchor="middle" x="692" y="-62.6" font-family="Times,serif" font-size="14.00">FeaturesContainerModule</text>
</g>
<!-- FeaturesContainerModule&#45;&gt;MyRoadHomeModule -->
<g id="edge2" class="edge">
<title>FeaturesContainerModule&#45;&gt;MyRoadHomeModule</title>
<path fill="none" stroke="black" d="M692,-84.82C692,-102.17 692,-125.8 692,-125.8 692,-125.8 579.41,-125.8 579.41,-125.8"/>
<polygon fill="black" stroke="black" points="579.41,-122.3 569.41,-125.8 579.41,-129.3 579.41,-122.3"/>
</g>
<!-- HomeBannerContainerModule -->
<g id="node4" class="node">
<title>HomeBannerContainerModule</title>
<polygon fill="#8dd3c7" stroke="black" points="592.9,-84.8 589.9,-88.8 568.9,-88.8 565.9,-84.8 403.1,-84.8 403.1,-48.8 592.9,-48.8 592.9,-84.8"/>
<text text-anchor="middle" x="498" y="-62.6" font-family="Times,serif" font-size="14.00">HomeBannerContainerModule</text>
</g>
<!-- HomeBannerContainerModule&#45;&gt;MyRoadHomeModule -->
<g id="edge3" class="edge">
<title>HomeBannerContainerModule&#45;&gt;MyRoadHomeModule</title>
<path fill="none" stroke="black" d="M498,-84.91C498,-84.91 498,-103.79 498,-103.79"/>
<polygon fill="black" stroke="black" points="494.5,-103.79 498,-113.79 501.5,-103.79 494.5,-103.79"/>
</g>
<!-- PartnershipLogosModule -->
<g id="node5" class="node">
<title>PartnershipLogosModule</title>
<polygon fill="#8dd3c7" stroke="black" points="385.31,-84.8 382.31,-88.8 361.31,-88.8 358.31,-84.8 226.69,-84.8 226.69,-48.8 385.31,-48.8 385.31,-84.8"/>
<text text-anchor="middle" x="306" y="-62.6" font-family="Times,serif" font-size="14.00">PartnershipLogosModule</text>
</g>
<!-- PartnershipLogosModule&#45;&gt;MyRoadHomeModule -->
<g id="edge4" class="edge">
<title>PartnershipLogosModule&#45;&gt;MyRoadHomeModule</title>
<path fill="none" stroke="black" d="M306,-84.82C306,-102.17 306,-125.8 306,-125.8 306,-125.8 416.51,-125.8 416.51,-125.8"/>
<polygon fill="black" stroke="black" points="416.51,-129.3 426.51,-125.8 416.51,-122.3 416.51,-129.3"/>
</g>
<!-- TestingMyRoadHomeModule -->
<g id="node6" class="node">
<title>TestingMyRoadHomeModule</title>
<polygon fill="#8dd3c7" stroke="black" points="208.25,-84.8 205.25,-88.8 184.25,-88.8 181.25,-84.8 23.75,-84.8 23.75,-48.8 208.25,-48.8 208.25,-84.8"/>
<text text-anchor="middle" x="116" y="-62.6" font-family="Times,serif" font-size="14.00">TestingMyRoadHomeModule</text>
</g>
<!-- TestingMyRoadHomeModule&#45;&gt;MyRoadHomeModule -->
<g id="edge5" class="edge">
<title>TestingMyRoadHomeModule&#45;&gt;MyRoadHomeModule</title>
<path fill="none" stroke="black" d="M116,-85.08C116,-106.12 116,-137.8 116,-137.8 116,-137.8 416.6,-137.8 416.6,-137.8"/>
<polygon fill="black" stroke="black" points="416.6,-141.3 426.6,-137.8 416.6,-134.3 416.6,-141.3"/>
</g>
</g>
</svg>
