<?xml version="1.0" encoding="UTF-8" standalone="no"?>
<!DOCTYPE svg PUBLIC "-//W3C//DTD SVG 1.1//EN"
 "http://www.w3.org/Graphics/SVG/1.1/DTD/svg11.dtd">
<!-- Generated by graphviz version 2.47.3 (20210619.1520)
 -->
<!-- Title: dependencies Pages: 1 -->
<svg width="736pt" height="247pt"
 viewBox="0.00 0.00 736.00 246.80" xmlns="http://www.w3.org/2000/svg" xmlns:xlink="http://www.w3.org/1999/xlink">
<g id="graph0" class="graph" transform="scale(1 1) rotate(0) translate(4 242.8)">
<title>dependencies</title>
<polygon fill="white" stroke="transparent" points="-4,4 -4,-242.8 732,-242.8 732,4 -4,4"/>
<text text-anchor="middle" x="364" y="-8.2" font-family="sans-serif" font-size="14.00">dependencies</text>
<g id="clust1" class="cluster">
<title>cluster_SimilarAdventuresModule</title>
<polygon fill="none" stroke="black" stroke-dasharray="1,5" points="8,-32.8 8,-230.8 720,-230.8 720,-32.8 8,-32.8"/>
</g>
<g id="clust4" class="cluster">
<title>cluster_SimilarAdventuresModule_imports</title>
<polygon fill="none" stroke="black" points="228,-40.8 228,-92.8 712,-92.8 712,-40.8 228,-40.8"/>
</g>
<g id="clust5" class="cluster">
<title>cluster_SimilarAdventuresModule_exports</title>
<polygon fill="none" stroke="black" points="284,-170.8 284,-222.8 490,-222.8 490,-170.8 284,-170.8"/>
</g>
<g id="clust2" class="cluster">
<title>cluster_SimilarAdventuresModule_declarations</title>
<polygon fill="none" stroke="black" points="16,-40.8 16,-92.8 220,-92.8 220,-40.8 16,-40.8"/>
</g>
<!-- SimilarAdventuresComponent -->
<g id="node1" class="node">
<title>SimilarAdventuresComponent</title>
<polygon fill="#ffffb3" stroke="black" points="211.58,-84.8 24.42,-84.8 24.42,-48.8 211.58,-48.8 211.58,-84.8"/>
<text text-anchor="middle" x="118" y="-62.6" font-family="Times,serif" font-size="14.00">SimilarAdventuresComponent</text>
</g>
<!-- SimilarAdventuresModule -->
<g id="node2" class="node">
<title>SimilarAdventuresModule</title>
<polygon fill="#8dd3c7" stroke="black" points="469.8,-149.8 466.8,-153.8 445.8,-153.8 442.8,-149.8 304.2,-149.8 304.2,-113.8 469.8,-113.8 469.8,-149.8"/>
<text text-anchor="middle" x="387" y="-127.6" font-family="Times,serif" font-size="14.00">SimilarAdventuresModule</text>
</g>
<!-- SimilarAdventuresComponent&#45;&gt;SimilarAdventuresModule -->
<g id="edge1" class="edge">
<title>SimilarAdventuresComponent&#45;&gt;SimilarAdventuresModule</title>
<path fill="none" stroke="black" d="M118,-84.91C118,-104.14 118,-131.8 118,-131.8 118,-131.8 294.1,-131.8 294.1,-131.8"/>
<polygon fill="black" stroke="black" points="294.1,-135.3 304.1,-131.8 294.1,-128.3 294.1,-135.3"/>
</g>
<!-- SimilarAdventuresComponent  -->
<g id="node6" class="node">
<title>SimilarAdventuresComponent </title>
<polygon fill="#fb8072" stroke="black" points="482.08,-214.8 291.92,-214.8 291.92,-178.8 482.08,-178.8 482.08,-214.8"/>
<text text-anchor="middle" x="387" y="-192.6" font-family="Times,serif" font-size="14.00">SimilarAdventuresComponent </text>
</g>
<!-- SimilarAdventuresModule&#45;&gt;SimilarAdventuresComponent  -->
<g id="edge5" class="edge">
<title>SimilarAdventuresModule&#45;&gt;SimilarAdventuresComponent </title>
<path fill="none" stroke="black" stroke-dasharray="5,2" d="M387,-149.91C387,-149.91 387,-168.79 387,-168.79"/>
<polygon fill="black" stroke="black" points="383.5,-168.79 387,-178.79 390.5,-168.79 383.5,-168.79"/>
</g>
<!-- PreviewSectionModule -->
<g id="node3" class="node">
<title>PreviewSectionModule</title>
<polygon fill="#8dd3c7" stroke="black" points="703.91,-84.8 700.91,-88.8 679.91,-88.8 676.91,-84.8 556.09,-84.8 556.09,-48.8 703.91,-48.8 703.91,-84.8"/>
<text text-anchor="middle" x="630" y="-62.6" font-family="Times,serif" font-size="14.00">PreviewSectionModule</text>
</g>
<!-- PreviewSectionModule&#45;&gt;SimilarAdventuresModule -->
<g id="edge2" class="edge">
<title>PreviewSectionModule&#45;&gt;SimilarAdventuresModule</title>
<path fill="none" stroke="black" d="M630,-84.91C630,-104.14 630,-131.8 630,-131.8 630,-131.8 479.95,-131.8 479.95,-131.8"/>
<polygon fill="black" stroke="black" points="479.95,-128.3 469.95,-131.8 479.95,-135.3 479.95,-128.3"/>
</g>
<!-- ScrollWrapperModule -->
<g id="node4" class="node">
<title>ScrollWrapperModule</title>
<polygon fill="#8dd3c7" stroke="black" points="537.95,-84.8 534.95,-88.8 513.95,-88.8 510.95,-84.8 396.05,-84.8 396.05,-48.8 537.95,-48.8 537.95,-84.8"/>
<text text-anchor="middle" x="467" y="-62.6" font-family="Times,serif" font-size="14.00">ScrollWrapperModule</text>
</g>
<!-- ScrollWrapperModule&#45;&gt;SimilarAdventuresModule -->
<g id="edge3" class="edge">
<title>ScrollWrapperModule&#45;&gt;SimilarAdventuresModule</title>
<path fill="none" stroke="black" d="M432.84,-84.91C432.84,-84.91 432.84,-103.79 432.84,-103.79"/>
<polygon fill="black" stroke="black" points="429.34,-103.79 432.84,-113.79 436.34,-103.79 429.34,-103.79"/>
</g>
<!-- WaypointCardModule -->
<g id="node5" class="node">
<title>WaypointCardModule</title>
<polygon fill="#8dd3c7" stroke="black" points="377.97,-84.8 374.97,-88.8 353.97,-88.8 350.97,-84.8 236.03,-84.8 236.03,-48.8 377.97,-48.8 377.97,-84.8"/>
<text text-anchor="middle" x="307" y="-62.6" font-family="Times,serif" font-size="14.00">WaypointCardModule</text>
</g>
<!-- WaypointCardModule&#45;&gt;SimilarAdventuresModule -->
<g id="edge4" class="edge">
<title>WaypointCardModule&#45;&gt;SimilarAdventuresModule</title>
<path fill="none" stroke="black" d="M341.17,-84.91C341.17,-84.91 341.17,-103.79 341.17,-103.79"/>
<polygon fill="black" stroke="black" points="337.67,-103.79 341.17,-113.79 344.67,-103.79 337.67,-103.79"/>
</g>
</g>
</svg>
