<?xml version="1.0" encoding="UTF-8" standalone="no"?>
<!DOCTYPE svg PUBLIC "-//W3C//DTD SVG 1.1//EN"
 "http://www.w3.org/Graphics/SVG/1.1/DTD/svg11.dtd">
<!-- Generated by graphviz version 2.47.3 (20210619.1520)
 -->
<!-- Title: dependencies Pages: 1 -->
<svg width="480pt" height="247pt"
 viewBox="0.00 0.00 480.00 246.80" xmlns="http://www.w3.org/2000/svg" xmlns:xlink="http://www.w3.org/1999/xlink">
<g id="graph0" class="graph" transform="scale(1 1) rotate(0) translate(4 242.8)">
<title>dependencies</title>
<polygon fill="white" stroke="transparent" points="-4,4 -4,-242.8 476,-242.8 476,4 -4,4"/>
<text text-anchor="middle" x="236" y="-8.2" font-family="sans-serif" font-size="14.00">dependencies</text>
<g id="clust1" class="cluster">
<title>cluster_PoiCardModule</title>
<polygon fill="none" stroke="black" stroke-dasharray="1,5" points="8,-32.8 8,-230.8 464,-230.8 464,-32.8 8,-32.8"/>
</g>
<g id="clust2" class="cluster">
<title>cluster_PoiCardModule_declarations</title>
<polygon fill="none" stroke="black" points="312,-40.8 312,-92.8 456,-92.8 456,-40.8 312,-40.8"/>
</g>
<g id="clust4" class="cluster">
<title>cluster_PoiCardModule_imports</title>
<polygon fill="none" stroke="black" points="16,-40.8 16,-92.8 304,-92.8 304,-40.8 16,-40.8"/>
</g>
<g id="clust5" class="cluster">
<title>cluster_PoiCardModule_exports</title>
<polygon fill="none" stroke="black" points="151,-170.8 151,-222.8 297,-222.8 297,-170.8 151,-170.8"/>
</g>
<!-- PoiCardComponent -->
<g id="node1" class="node">
<title>PoiCardComponent</title>
<polygon fill="#ffffb3" stroke="black" points="447.72,-84.8 320.28,-84.8 320.28,-48.8 447.72,-48.8 447.72,-84.8"/>
<text text-anchor="middle" x="384" y="-62.6" font-family="Times,serif" font-size="14.00">PoiCardComponent</text>
</g>
<!-- PoiCardModule -->
<g id="node2" class="node">
<title>PoiCardModule</title>
<polygon fill="#8dd3c7" stroke="black" points="276.94,-149.8 273.94,-153.8 252.94,-153.8 249.94,-149.8 171.06,-149.8 171.06,-113.8 276.94,-113.8 276.94,-149.8"/>
<text text-anchor="middle" x="224" y="-127.6" font-family="Times,serif" font-size="14.00">PoiCardModule</text>
</g>
<!-- PoiCardComponent&#45;&gt;PoiCardModule -->
<g id="edge1" class="edge">
<title>PoiCardComponent&#45;&gt;PoiCardModule</title>
<path fill="none" stroke="black" d="M384,-84.91C384,-104.14 384,-131.8 384,-131.8 384,-131.8 286.83,-131.8 286.83,-131.8"/>
<polygon fill="black" stroke="black" points="286.83,-128.3 276.83,-131.8 286.83,-135.3 286.83,-128.3"/>
</g>
<!-- PoiCardComponent  -->
<g id="node5" class="node">
<title>PoiCardComponent </title>
<polygon fill="#fb8072" stroke="black" points="289.22,-214.8 158.78,-214.8 158.78,-178.8 289.22,-178.8 289.22,-214.8"/>
<text text-anchor="middle" x="224" y="-192.6" font-family="Times,serif" font-size="14.00">PoiCardComponent </text>
</g>
<!-- PoiCardModule&#45;&gt;PoiCardComponent  -->
<g id="edge4" class="edge">
<title>PoiCardModule&#45;&gt;PoiCardComponent </title>
<path fill="none" stroke="black" stroke-dasharray="5,2" d="M224,-149.91C224,-149.91 224,-168.79 224,-168.79"/>
<polygon fill="black" stroke="black" points="220.5,-168.79 224,-178.79 227.5,-168.79 220.5,-168.79"/>
</g>
<!-- PoiDescriptionModule -->
<g id="node3" class="node">
<title>PoiDescriptionModule</title>
<polygon fill="#8dd3c7" stroke="black" points="295.54,-84.8 292.54,-88.8 271.54,-88.8 268.54,-84.8 152.46,-84.8 152.46,-48.8 295.54,-48.8 295.54,-84.8"/>
<text text-anchor="middle" x="224" y="-62.6" font-family="Times,serif" font-size="14.00">PoiDescriptionModule</text>
</g>
<!-- PoiDescriptionModule&#45;&gt;PoiCardModule -->
<g id="edge2" class="edge">
<title>PoiDescriptionModule&#45;&gt;PoiCardModule</title>
<path fill="none" stroke="black" d="M224,-84.91C224,-84.91 224,-103.79 224,-103.79"/>
<polygon fill="black" stroke="black" points="220.5,-103.79 224,-113.79 227.5,-103.79 220.5,-103.79"/>
</g>
<!-- PoiLabelModule -->
<g id="node4" class="node">
<title>PoiLabelModule</title>
<polygon fill="#8dd3c7" stroke="black" points="134.1,-84.8 131.1,-88.8 110.1,-88.8 107.1,-84.8 23.9,-84.8 23.9,-48.8 134.1,-48.8 134.1,-84.8"/>
<text text-anchor="middle" x="79" y="-62.6" font-family="Times,serif" font-size="14.00">PoiLabelModule</text>
</g>
<!-- PoiLabelModule&#45;&gt;PoiCardModule -->
<g id="edge3" class="edge">
<title>PoiLabelModule&#45;&gt;PoiCardModule</title>
<path fill="none" stroke="black" d="M79,-84.91C79,-104.14 79,-131.8 79,-131.8 79,-131.8 161.24,-131.8 161.24,-131.8"/>
<polygon fill="black" stroke="black" points="161.24,-135.3 171.24,-131.8 161.24,-128.3 161.24,-135.3"/>
</g>
</g>
</svg>
