<?xml version="1.0" encoding="UTF-8" standalone="no"?>
<!DOCTYPE svg PUBLIC "-//W3C//DTD SVG 1.1//EN"
 "http://www.w3.org/Graphics/SVG/1.1/DTD/svg11.dtd">
<!-- Generated by graphviz version 2.47.3 (20210619.1520)
 -->
<!-- Title: dependencies Pages: 1 -->
<svg width="1145pt" height="247pt"
 viewBox="0.00 0.00 1145.00 246.80" xmlns="http://www.w3.org/2000/svg" xmlns:xlink="http://www.w3.org/1999/xlink">
<g id="graph0" class="graph" transform="scale(1 1) rotate(0) translate(4 242.8)">
<title>dependencies</title>
<polygon fill="white" stroke="transparent" points="-4,4 -4,-242.8 1141,-242.8 1141,4 -4,4"/>
<text text-anchor="middle" x="568.5" y="-8.2" font-family="sans-serif" font-size="14.00">dependencies</text>
<g id="clust1" class="cluster">
<title>cluster_DiscoveriesModule</title>
<polygon fill="none" stroke="black" stroke-dasharray="1,5" points="8,-32.8 8,-230.8 1129,-230.8 1129,-32.8 8,-32.8"/>
</g>
<g id="clust6" class="cluster">
<title>cluster_DiscoveriesModule_exports</title>
<polygon fill="none" stroke="black" points="448,-170.8 448,-222.8 852,-222.8 852,-170.8 448,-170.8"/>
</g>
<g id="clust5" class="cluster">
<title>cluster_DiscoveriesModule_imports</title>
<polygon fill="none" stroke="black" points="422,-40.8 422,-92.8 1121,-92.8 1121,-40.8 422,-40.8"/>
</g>
<g id="clust2" class="cluster">
<title>cluster_DiscoveriesModule_declarations</title>
<polygon fill="none" stroke="black" points="16,-40.8 16,-92.8 414,-92.8 414,-40.8 16,-40.8"/>
</g>
<!-- DiscoveriesFullComponent -->
<g id="node1" class="node">
<title>DiscoveriesFullComponent</title>
<polygon fill="#ffffb3" stroke="black" points="405.98,-84.8 236.02,-84.8 236.02,-48.8 405.98,-48.8 405.98,-84.8"/>
<text text-anchor="middle" x="321" y="-62.6" font-family="Times,serif" font-size="14.00">DiscoveriesFullComponent</text>
</g>
<!-- DiscoveriesModule -->
<g id="node3" class="node">
<title>DiscoveriesModule</title>
<polygon fill="#8dd3c7" stroke="black" points="717.63,-149.8 714.63,-153.8 693.63,-153.8 690.63,-149.8 592.37,-149.8 592.37,-113.8 717.63,-113.8 717.63,-149.8"/>
<text text-anchor="middle" x="655" y="-127.6" font-family="Times,serif" font-size="14.00">DiscoveriesModule</text>
</g>
<!-- DiscoveriesFullComponent&#45;&gt;DiscoveriesModule -->
<g id="edge1" class="edge">
<title>DiscoveriesFullComponent&#45;&gt;DiscoveriesModule</title>
<path fill="none" stroke="black" d="M321,-84.91C321,-104.14 321,-131.8 321,-131.8 321,-131.8 582.18,-131.8 582.18,-131.8"/>
<polygon fill="black" stroke="black" points="582.18,-135.3 592.18,-131.8 582.18,-128.3 582.18,-135.3"/>
</g>
<!-- DiscoveriesPreviewComponent -->
<g id="node2" class="node">
<title>DiscoveriesPreviewComponent</title>
<polygon fill="#ffffb3" stroke="black" points="217.78,-84.8 24.22,-84.8 24.22,-48.8 217.78,-48.8 217.78,-84.8"/>
<text text-anchor="middle" x="121" y="-62.6" font-family="Times,serif" font-size="14.00">DiscoveriesPreviewComponent</text>
</g>
<!-- DiscoveriesPreviewComponent&#45;&gt;DiscoveriesModule -->
<g id="edge2" class="edge">
<title>DiscoveriesPreviewComponent&#45;&gt;DiscoveriesModule</title>
<path fill="none" stroke="black" d="M121,-85.09C121,-107.01 121,-140.8 121,-140.8 121,-140.8 582.17,-140.8 582.17,-140.8"/>
<polygon fill="black" stroke="black" points="582.17,-144.3 592.17,-140.8 582.17,-137.3 582.17,-144.3"/>
</g>
<!-- DiscoveriesFullComponent  -->
<g id="node9" class="node">
<title>DiscoveriesFullComponent </title>
<polygon fill="#fb8072" stroke="black" points="843.98,-214.8 670.02,-214.8 670.02,-178.8 843.98,-178.8 843.98,-214.8"/>
<text text-anchor="middle" x="757" y="-192.6" font-family="Times,serif" font-size="14.00">DiscoveriesFullComponent </text>
</g>
<!-- DiscoveriesModule&#45;&gt;DiscoveriesFullComponent  -->
<g id="edge8" class="edge">
<title>DiscoveriesModule&#45;&gt;DiscoveriesFullComponent </title>
<path fill="none" stroke="black" stroke-dasharray="5,2" d="M694.04,-149.91C694.04,-149.91 694.04,-168.79 694.04,-168.79"/>
<polygon fill="black" stroke="black" points="690.54,-168.79 694.04,-178.79 697.54,-168.79 690.54,-168.79"/>
</g>
<!-- DiscoveriesPreviewComponent  -->
<g id="node10" class="node">
<title>DiscoveriesPreviewComponent </title>
<polygon fill="#fb8072" stroke="black" points="652.28,-214.8 455.72,-214.8 455.72,-178.8 652.28,-178.8 652.28,-214.8"/>
<text text-anchor="middle" x="554" y="-192.6" font-family="Times,serif" font-size="14.00">DiscoveriesPreviewComponent </text>
</g>
<!-- DiscoveriesModule&#45;&gt;DiscoveriesPreviewComponent  -->
<g id="edge9" class="edge">
<title>DiscoveriesModule&#45;&gt;DiscoveriesPreviewComponent </title>
<path fill="none" stroke="black" stroke-dasharray="5,2" d="M622.29,-149.91C622.29,-149.91 622.29,-168.79 622.29,-168.79"/>
<polygon fill="black" stroke="black" points="618.79,-168.79 622.29,-178.79 625.79,-168.79 618.79,-168.79"/>
</g>
<!-- PoiCardModule -->
<g id="node4" class="node">
<title>PoiCardModule</title>
<polygon fill="#8dd3c7" stroke="black" points="1112.94,-84.8 1109.94,-88.8 1088.94,-88.8 1085.94,-84.8 1007.06,-84.8 1007.06,-48.8 1112.94,-48.8 1112.94,-84.8"/>
<text text-anchor="middle" x="1060" y="-62.6" font-family="Times,serif" font-size="14.00">PoiCardModule</text>
</g>
<!-- PoiCardModule&#45;&gt;DiscoveriesModule -->
<g id="edge3" class="edge">
<title>PoiCardModule&#45;&gt;DiscoveriesModule</title>
<path fill="none" stroke="black" d="M1060,-85.09C1060,-107.01 1060,-140.8 1060,-140.8 1060,-140.8 727.84,-140.8 727.84,-140.8"/>
<polygon fill="black" stroke="black" points="727.84,-137.3 717.84,-140.8 727.84,-144.3 727.84,-137.3"/>
</g>
<!-- PoiIconModule -->
<g id="node5" class="node">
<title>PoiIconModule</title>
<polygon fill="#8dd3c7" stroke="black" points="989.6,-84.8 986.6,-88.8 965.6,-88.8 962.6,-84.8 886.4,-84.8 886.4,-48.8 989.6,-48.8 989.6,-84.8"/>
<text text-anchor="middle" x="938" y="-62.6" font-family="Times,serif" font-size="14.00">PoiIconModule</text>
</g>
<!-- PoiIconModule&#45;&gt;DiscoveriesModule -->
<g id="edge4" class="edge">
<title>PoiIconModule&#45;&gt;DiscoveriesModule</title>
<path fill="none" stroke="black" d="M938,-84.91C938,-104.14 938,-131.8 938,-131.8 938,-131.8 727.81,-131.8 727.81,-131.8"/>
<polygon fill="black" stroke="black" points="727.81,-128.3 717.81,-131.8 727.81,-135.3 727.81,-128.3"/>
</g>
<!-- RewardCardModule -->
<g id="node6" class="node">
<title>RewardCardModule</title>
<polygon fill="#8dd3c7" stroke="black" points="868.29,-84.8 865.29,-88.8 844.29,-88.8 841.29,-84.8 737.71,-84.8 737.71,-48.8 868.29,-48.8 868.29,-84.8"/>
<text text-anchor="middle" x="803" y="-62.6" font-family="Times,serif" font-size="14.00">RewardCardModule</text>
</g>
<!-- RewardCardModule&#45;&gt;DiscoveriesModule -->
<g id="edge5" class="edge">
<title>RewardCardModule&#45;&gt;DiscoveriesModule</title>
<path fill="none" stroke="black" d="M790.8,-84.83C790.8,-101.2 790.8,-122.8 790.8,-122.8 790.8,-122.8 727.73,-122.8 727.73,-122.8"/>
<polygon fill="black" stroke="black" points="727.73,-119.3 717.73,-122.8 727.73,-126.3 727.73,-119.3"/>
</g>
<!-- RewardsListModule -->
<g id="node7" class="node">
<title>RewardsListModule</title>
<polygon fill="#8dd3c7" stroke="black" points="720.31,-84.8 717.31,-88.8 696.31,-88.8 693.31,-84.8 589.69,-84.8 589.69,-48.8 720.31,-48.8 720.31,-84.8"/>
<text text-anchor="middle" x="655" y="-62.6" font-family="Times,serif" font-size="14.00">RewardsListModule</text>
</g>
<!-- RewardsListModule&#45;&gt;DiscoveriesModule -->
<g id="edge6" class="edge">
<title>RewardsListModule&#45;&gt;DiscoveriesModule</title>
<path fill="none" stroke="black" d="M655,-84.91C655,-84.91 655,-103.79 655,-103.79"/>
<polygon fill="black" stroke="black" points="651.5,-103.79 655,-113.79 658.5,-103.79 651.5,-103.79"/>
</g>
<!-- ScrollWrapperModule -->
<g id="node8" class="node">
<title>ScrollWrapperModule</title>
<polygon fill="#8dd3c7" stroke="black" points="571.95,-84.8 568.95,-88.8 547.95,-88.8 544.95,-84.8 430.05,-84.8 430.05,-48.8 571.95,-48.8 571.95,-84.8"/>
<text text-anchor="middle" x="501" y="-62.6" font-family="Times,serif" font-size="14.00">ScrollWrapperModule</text>
</g>
<!-- ScrollWrapperModule&#45;&gt;DiscoveriesModule -->
<g id="edge7" class="edge">
<title>ScrollWrapperModule&#45;&gt;DiscoveriesModule</title>
<path fill="none" stroke="black" d="M513.79,-84.83C513.79,-101.2 513.79,-122.8 513.79,-122.8 513.79,-122.8 582.24,-122.8 582.24,-122.8"/>
<polygon fill="black" stroke="black" points="582.24,-126.3 592.24,-122.8 582.24,-119.3 582.24,-126.3"/>
</g>
</g>
</svg>
