<?xml version="1.0" encoding="UTF-8" standalone="no"?>
<!DOCTYPE svg PUBLIC "-//W3C//DTD SVG 1.1//EN"
 "http://www.w3.org/Graphics/SVG/1.1/DTD/svg11.dtd">
<!-- Generated by graphviz version 2.47.3 (20210619.1520)
 -->
<!-- Title: dependencies Pages: 1 -->
<svg width="150pt" height="247pt"
 viewBox="0.00 0.00 150.00 246.80" xmlns="http://www.w3.org/2000/svg" xmlns:xlink="http://www.w3.org/1999/xlink">
<g id="graph0" class="graph" transform="scale(1 1) rotate(0) translate(4 242.8)">
<title>dependencies</title>
<polygon fill="white" stroke="transparent" points="-4,4 -4,-242.8 146,-242.8 146,4 -4,4"/>
<text text-anchor="middle" x="71" y="-8.2" font-family="sans-serif" font-size="14.00">dependencies</text>
<g id="clust1" class="cluster">
<title>cluster_SafePipeModule</title>
<polygon fill="none" stroke="black" stroke-dasharray="1,5" points="8,-32.8 8,-230.8 134,-230.8 134,-32.8 8,-32.8"/>
</g>
<g id="clust5" class="cluster">
<title>cluster_SafePipeModule_exports</title>
<polygon fill="none" stroke="black" points="28,-170.8 28,-222.8 114,-222.8 114,-170.8 28,-170.8"/>
</g>
<g id="clust2" class="cluster">
<title>cluster_SafePipeModule_declarations</title>
<polygon fill="none" stroke="black" points="30,-40.8 30,-92.8 112,-92.8 112,-40.8 30,-40.8"/>
</g>
<!-- SafePipe -->
<g id="node1" class="node">
<title>SafePipe</title>
<polygon fill="#ffffb3" stroke="black" points="103.76,-84.8 38.24,-84.8 38.24,-48.8 103.76,-48.8 103.76,-84.8"/>
<text text-anchor="middle" x="71" y="-62.6" font-family="Times,serif" font-size="14.00">SafePipe</text>
</g>
<!-- SafePipeModule -->
<g id="node2" class="node">
<title>SafePipeModule</title>
<polygon fill="#8dd3c7" stroke="black" points="125.81,-149.8 122.81,-153.8 101.81,-153.8 98.81,-149.8 16.19,-149.8 16.19,-113.8 125.81,-113.8 125.81,-149.8"/>
<text text-anchor="middle" x="71" y="-127.6" font-family="Times,serif" font-size="14.00">SafePipeModule</text>
</g>
<!-- SafePipe&#45;&gt;SafePipeModule -->
<g id="edge1" class="edge">
<title>SafePipe&#45;&gt;SafePipeModule</title>
<path fill="none" stroke="black" d="M71,-84.91C71,-84.91 71,-103.79 71,-103.79"/>
<polygon fill="black" stroke="black" points="67.5,-103.79 71,-113.79 74.5,-103.79 67.5,-103.79"/>
</g>
<!-- SafePipe  -->
<g id="node3" class="node">
<title>SafePipe </title>
<polygon fill="#fb8072" stroke="black" points="105.76,-214.8 36.24,-214.8 36.24,-178.8 105.76,-178.8 105.76,-214.8"/>
<text text-anchor="middle" x="71" y="-192.6" font-family="Times,serif" font-size="14.00">SafePipe </text>
</g>
<!-- SafePipeModule&#45;&gt;SafePipe  -->
<g id="edge2" class="edge">
<title>SafePipeModule&#45;&gt;SafePipe </title>
<path fill="none" stroke="black" stroke-dasharray="5,2" d="M71,-149.91C71,-149.91 71,-168.79 71,-168.79"/>
<polygon fill="black" stroke="black" points="67.5,-168.79 71,-178.79 74.5,-168.79 67.5,-168.79"/>
</g>
</g>
</svg>
