<?xml version="1.0" encoding="UTF-8" standalone="no"?>
<!DOCTYPE svg PUBLIC "-//W3C//DTD SVG 1.1//EN"
 "http://www.w3.org/Graphics/SVG/1.1/DTD/svg11.dtd">
<!-- Generated by graphviz version 2.47.3 (20210619.1520)
 -->
<!-- Title: dependencies Pages: 1 -->
<svg width="1124pt" height="174pt"
 viewBox="0.00 0.00 1124.00 173.80" xmlns="http://www.w3.org/2000/svg" xmlns:xlink="http://www.w3.org/1999/xlink">
<g id="graph0" class="graph" transform="scale(1 1) rotate(0) translate(4 169.8)">
<title>dependencies</title>
<polygon fill="white" stroke="transparent" points="-4,4 -4,-169.8 1120,-169.8 1120,4 -4,4"/>
<text text-anchor="middle" x="558" y="-8.2" font-family="sans-serif" font-size="14.00">dependencies</text>
<g id="clust1" class="cluster">
<title>cluster_IntentionsWaypointSearchPageModule</title>
<polygon fill="none" stroke="black" stroke-dasharray="1,5" points="8,-32.8 8,-157.8 1108,-157.8 1108,-32.8 8,-32.8"/>
</g>
<g id="clust2" class="cluster">
<title>cluster_IntentionsWaypointSearchPageModule_declarations</title>
<polygon fill="none" stroke="black" points="826,-40.8 826,-92.8 1100,-92.8 1100,-40.8 826,-40.8"/>
</g>
<g id="clust4" class="cluster">
<title>cluster_IntentionsWaypointSearchPageModule_imports</title>
<polygon fill="none" stroke="black" points="16,-40.8 16,-92.8 818,-92.8 818,-40.8 16,-40.8"/>
</g>
<!-- IntentionsWaypointSearchPageComponent -->
<g id="node1" class="node">
<title>IntentionsWaypointSearchPageComponent</title>
<polygon fill="#ffffb3" stroke="black" points="1091.83,-84.8 834.17,-84.8 834.17,-48.8 1091.83,-48.8 1091.83,-84.8"/>
<text text-anchor="middle" x="963" y="-62.6" font-family="Times,serif" font-size="14.00">IntentionsWaypointSearchPageComponent</text>
</g>
<!-- IntentionsWaypointSearchPageModule -->
<g id="node2" class="node">
<title>IntentionsWaypointSearchPageModule</title>
<polygon fill="#8dd3c7" stroke="black" points="629.05,-149.8 626.05,-153.8 605.05,-153.8 602.05,-149.8 392.95,-149.8 392.95,-113.8 629.05,-113.8 629.05,-149.8"/>
<text text-anchor="middle" x="511" y="-127.6" font-family="Times,serif" font-size="14.00">IntentionsWaypointSearchPageModule</text>
</g>
<!-- IntentionsWaypointSearchPageComponent&#45;&gt;IntentionsWaypointSearchPageModule -->
<g id="edge1" class="edge">
<title>IntentionsWaypointSearchPageComponent&#45;&gt;IntentionsWaypointSearchPageModule</title>
<path fill="none" stroke="black" d="M963,-85.08C963,-106.12 963,-137.8 963,-137.8 963,-137.8 639.17,-137.8 639.17,-137.8"/>
<polygon fill="black" stroke="black" points="639.17,-134.3 629.17,-137.8 639.17,-141.3 639.17,-134.3"/>
</g>
<!-- AutofocusInputModule -->
<g id="node3" class="node">
<title>AutofocusInputModule</title>
<polygon fill="#8dd3c7" stroke="black" points="809.92,-84.8 806.92,-88.8 785.92,-88.8 782.92,-84.8 662.08,-84.8 662.08,-48.8 809.92,-48.8 809.92,-84.8"/>
<text text-anchor="middle" x="736" y="-62.6" font-family="Times,serif" font-size="14.00">AutofocusInputModule</text>
</g>
<!-- AutofocusInputModule&#45;&gt;IntentionsWaypointSearchPageModule -->
<g id="edge2" class="edge">
<title>AutofocusInputModule&#45;&gt;IntentionsWaypointSearchPageModule</title>
<path fill="none" stroke="black" d="M736,-84.82C736,-102.17 736,-125.8 736,-125.8 736,-125.8 639.1,-125.8 639.1,-125.8"/>
<polygon fill="black" stroke="black" points="639.1,-122.3 629.1,-125.8 639.1,-129.3 639.1,-122.3"/>
</g>
<!-- NoRecordsModule -->
<g id="node4" class="node">
<title>NoRecordsModule</title>
<polygon fill="#8dd3c7" stroke="black" points="644.03,-84.8 641.03,-88.8 620.03,-88.8 617.03,-84.8 521.97,-84.8 521.97,-48.8 644.03,-48.8 644.03,-84.8"/>
<text text-anchor="middle" x="583" y="-62.6" font-family="Times,serif" font-size="14.00">NoRecordsModule</text>
</g>
<!-- NoRecordsModule&#45;&gt;IntentionsWaypointSearchPageModule -->
<g id="edge3" class="edge">
<title>NoRecordsModule&#45;&gt;IntentionsWaypointSearchPageModule</title>
<path fill="none" stroke="black" d="M575.38,-84.91C575.38,-84.91 575.38,-103.79 575.38,-103.79"/>
<polygon fill="black" stroke="black" points="571.88,-103.79 575.38,-113.79 578.88,-103.79 571.88,-103.79"/>
</g>
<!-- SearchFormModule -->
<g id="node5" class="node">
<title>SearchFormModule</title>
<polygon fill="#8dd3c7" stroke="black" points="503.97,-84.8 500.97,-88.8 479.97,-88.8 476.97,-84.8 376.03,-84.8 376.03,-48.8 503.97,-48.8 503.97,-84.8"/>
<text text-anchor="middle" x="440" y="-62.6" font-family="Times,serif" font-size="14.00">SearchFormModule</text>
</g>
<!-- SearchFormModule&#45;&gt;IntentionsWaypointSearchPageModule -->
<g id="edge4" class="edge">
<title>SearchFormModule&#45;&gt;IntentionsWaypointSearchPageModule</title>
<path fill="none" stroke="black" d="M448.48,-84.91C448.48,-84.91 448.48,-103.79 448.48,-103.79"/>
<polygon fill="black" stroke="black" points="444.98,-103.79 448.48,-113.79 451.98,-103.79 444.98,-103.79"/>
</g>
<!-- SimpleTemplateModule -->
<g id="node6" class="node">
<title>SimpleTemplateModule</title>
<polygon fill="#8dd3c7" stroke="black" points="358.09,-84.8 355.09,-88.8 334.09,-88.8 331.09,-84.8 205.91,-84.8 205.91,-48.8 358.09,-48.8 358.09,-84.8"/>
<text text-anchor="middle" x="282" y="-62.6" font-family="Times,serif" font-size="14.00">SimpleTemplateModule</text>
</g>
<!-- SimpleTemplateModule&#45;&gt;IntentionsWaypointSearchPageModule -->
<g id="edge5" class="edge">
<title>SimpleTemplateModule&#45;&gt;IntentionsWaypointSearchPageModule</title>
<path fill="none" stroke="black" d="M282,-84.82C282,-102.17 282,-125.8 282,-125.8 282,-125.8 382.81,-125.8 382.81,-125.8"/>
<polygon fill="black" stroke="black" points="382.81,-129.3 392.81,-125.8 382.81,-122.3 382.81,-129.3"/>
</g>
<!-- WaypointCardListModule -->
<g id="node7" class="node">
<title>WaypointCardListModule</title>
<polygon fill="#8dd3c7" stroke="black" points="187.75,-84.8 184.75,-88.8 163.75,-88.8 160.75,-84.8 24.25,-84.8 24.25,-48.8 187.75,-48.8 187.75,-84.8"/>
<text text-anchor="middle" x="106" y="-62.6" font-family="Times,serif" font-size="14.00">WaypointCardListModule</text>
</g>
<!-- WaypointCardListModule&#45;&gt;IntentionsWaypointSearchPageModule -->
<g id="edge6" class="edge">
<title>WaypointCardListModule&#45;&gt;IntentionsWaypointSearchPageModule</title>
<path fill="none" stroke="black" d="M106,-85.08C106,-106.12 106,-137.8 106,-137.8 106,-137.8 382.77,-137.8 382.77,-137.8"/>
<polygon fill="black" stroke="black" points="382.77,-141.3 392.77,-137.8 382.77,-134.3 382.77,-141.3"/>
</g>
</g>
</svg>
