<?xml version="1.0" encoding="UTF-8" standalone="no"?>
<!DOCTYPE svg PUBLIC "-//W3C//DTD SVG 1.1//EN"
 "http://www.w3.org/Graphics/SVG/1.1/DTD/svg11.dtd">
<!-- Generated by graphviz version 2.47.3 (20210619.1520)
 -->
<!-- Title: dependencies Pages: 1 -->
<svg width="388pt" height="247pt"
 viewBox="0.00 0.00 388.00 246.80" xmlns="http://www.w3.org/2000/svg" xmlns:xlink="http://www.w3.org/1999/xlink">
<g id="graph0" class="graph" transform="scale(1 1) rotate(0) translate(4 242.8)">
<title>dependencies</title>
<polygon fill="white" stroke="transparent" points="-4,4 -4,-242.8 384,-242.8 384,4 -4,4"/>
<text text-anchor="middle" x="190" y="-8.2" font-family="sans-serif" font-size="14.00">dependencies</text>
<g id="clust1" class="cluster">
<title>cluster_KpiItemPercentageModule</title>
<polygon fill="none" stroke="black" stroke-dasharray="1,5" points="8,-32.8 8,-230.8 372,-230.8 372,-32.8 8,-32.8"/>
</g>
<g id="clust2" class="cluster">
<title>cluster_KpiItemPercentageModule_declarations</title>
<polygon fill="none" stroke="black" points="158,-40.8 158,-92.8 364,-92.8 364,-40.8 158,-40.8"/>
</g>
<g id="clust5" class="cluster">
<title>cluster_KpiItemPercentageModule_exports</title>
<polygon fill="none" stroke="black" points="86,-170.8 86,-222.8 294,-222.8 294,-170.8 86,-170.8"/>
</g>
<g id="clust4" class="cluster">
<title>cluster_KpiItemPercentageModule_imports</title>
<polygon fill="none" stroke="black" points="16,-40.8 16,-92.8 150,-92.8 150,-40.8 16,-40.8"/>
</g>
<!-- KpiItemPercentageComponent -->
<g id="node1" class="node">
<title>KpiItemPercentageComponent</title>
<polygon fill="#ffffb3" stroke="black" points="355.89,-84.8 166.11,-84.8 166.11,-48.8 355.89,-48.8 355.89,-84.8"/>
<text text-anchor="middle" x="261" y="-62.6" font-family="Times,serif" font-size="14.00">KpiItemPercentageComponent</text>
</g>
<!-- KpiItemPercentageModule -->
<g id="node2" class="node">
<title>KpiItemPercentageModule</title>
<polygon fill="#8dd3c7" stroke="black" points="273.61,-149.8 270.61,-153.8 249.61,-153.8 246.61,-149.8 106.39,-149.8 106.39,-113.8 273.61,-113.8 273.61,-149.8"/>
<text text-anchor="middle" x="190" y="-127.6" font-family="Times,serif" font-size="14.00">KpiItemPercentageModule</text>
</g>
<!-- KpiItemPercentageComponent&#45;&gt;KpiItemPercentageModule -->
<g id="edge1" class="edge">
<title>KpiItemPercentageComponent&#45;&gt;KpiItemPercentageModule</title>
<path fill="none" stroke="black" d="M220.05,-84.91C220.05,-84.91 220.05,-103.79 220.05,-103.79"/>
<polygon fill="black" stroke="black" points="216.55,-103.79 220.05,-113.79 223.55,-103.79 216.55,-103.79"/>
</g>
<!-- KpiItemPercentageComponent  -->
<g id="node4" class="node">
<title>KpiItemPercentageComponent </title>
<polygon fill="#fb8072" stroke="black" points="286.39,-214.8 93.61,-214.8 93.61,-178.8 286.39,-178.8 286.39,-214.8"/>
<text text-anchor="middle" x="190" y="-192.6" font-family="Times,serif" font-size="14.00">KpiItemPercentageComponent </text>
</g>
<!-- KpiItemPercentageModule&#45;&gt;KpiItemPercentageComponent  -->
<g id="edge3" class="edge">
<title>KpiItemPercentageModule&#45;&gt;KpiItemPercentageComponent </title>
<path fill="none" stroke="black" stroke-dasharray="5,2" d="M190,-149.91C190,-149.91 190,-168.79 190,-168.79"/>
<polygon fill="black" stroke="black" points="186.5,-168.79 190,-178.79 193.5,-168.79 186.5,-168.79"/>
</g>
<!-- PopularityModule -->
<g id="node3" class="node">
<title>PopularityModule</title>
<polygon fill="#8dd3c7" stroke="black" points="141.88,-84.8 138.88,-88.8 117.88,-88.8 114.88,-84.8 24.12,-84.8 24.12,-48.8 141.88,-48.8 141.88,-84.8"/>
<text text-anchor="middle" x="83" y="-62.6" font-family="Times,serif" font-size="14.00">PopularityModule</text>
</g>
<!-- PopularityModule&#45;&gt;KpiItemPercentageModule -->
<g id="edge2" class="edge">
<title>PopularityModule&#45;&gt;KpiItemPercentageModule</title>
<path fill="none" stroke="black" d="M124.07,-84.91C124.07,-84.91 124.07,-103.79 124.07,-103.79"/>
<polygon fill="black" stroke="black" points="120.57,-103.79 124.07,-113.79 127.57,-103.79 120.57,-103.79"/>
</g>
</g>
</svg>
