<?xml version="1.0" encoding="UTF-8" standalone="no"?>
<!DOCTYPE svg PUBLIC "-//W3C//DTD SVG 1.1//EN"
 "http://www.w3.org/Graphics/SVG/1.1/DTD/svg11.dtd">
<!-- Generated by graphviz version 2.47.3 (20210619.1520)
 -->
<!-- Title: dependencies Pages: 1 -->
<svg width="434pt" height="247pt"
 viewBox="0.00 0.00 434.00 246.80" xmlns="http://www.w3.org/2000/svg" xmlns:xlink="http://www.w3.org/1999/xlink">
<g id="graph0" class="graph" transform="scale(1 1) rotate(0) translate(4 242.8)">
<title>dependencies</title>
<polygon fill="white" stroke="transparent" points="-4,4 -4,-242.8 430,-242.8 430,4 -4,4"/>
<text text-anchor="middle" x="213" y="-8.2" font-family="sans-serif" font-size="14.00">dependencies</text>
<g id="clust1" class="cluster">
<title>cluster_EventModule</title>
<polygon fill="none" stroke="black" stroke-dasharray="1,5" points="8,-32.8 8,-230.8 418,-230.8 418,-32.8 8,-32.8"/>
</g>
<g id="clust4" class="cluster">
<title>cluster_EventModule_imports</title>
<polygon fill="none" stroke="black" points="154,-40.8 154,-92.8 410,-92.8 410,-40.8 154,-40.8"/>
</g>
<g id="clust2" class="cluster">
<title>cluster_EventModule_declarations</title>
<polygon fill="none" stroke="black" points="16,-40.8 16,-92.8 146,-92.8 146,-40.8 16,-40.8"/>
</g>
<g id="clust5" class="cluster">
<title>cluster_EventModule_exports</title>
<polygon fill="none" stroke="black" points="147,-170.8 147,-222.8 281,-222.8 281,-170.8 147,-170.8"/>
</g>
<!-- EventComponent -->
<g id="node1" class="node">
<title>EventComponent</title>
<polygon fill="#ffffb3" stroke="black" points="137.99,-84.8 24.01,-84.8 24.01,-48.8 137.99,-48.8 137.99,-84.8"/>
<text text-anchor="middle" x="81" y="-62.6" font-family="Times,serif" font-size="14.00">EventComponent</text>
</g>
<!-- EventModule -->
<g id="node2" class="node">
<title>EventModule</title>
<polygon fill="#8dd3c7" stroke="black" points="260.21,-149.8 257.21,-153.8 236.21,-153.8 233.21,-149.8 167.79,-149.8 167.79,-113.8 260.21,-113.8 260.21,-149.8"/>
<text text-anchor="middle" x="214" y="-127.6" font-family="Times,serif" font-size="14.00">EventModule</text>
</g>
<!-- EventComponent&#45;&gt;EventModule -->
<g id="edge1" class="edge">
<title>EventComponent&#45;&gt;EventModule</title>
<path fill="none" stroke="black" d="M81,-84.91C81,-104.14 81,-131.8 81,-131.8 81,-131.8 157.86,-131.8 157.86,-131.8"/>
<polygon fill="black" stroke="black" points="157.86,-135.3 167.86,-131.8 157.86,-128.3 157.86,-135.3"/>
</g>
<!-- EventComponent  -->
<g id="node5" class="node">
<title>EventComponent </title>
<polygon fill="#fb8072" stroke="black" points="272.99,-214.8 155.01,-214.8 155.01,-178.8 272.99,-178.8 272.99,-214.8"/>
<text text-anchor="middle" x="214" y="-192.6" font-family="Times,serif" font-size="14.00">EventComponent </text>
</g>
<!-- EventModule&#45;&gt;EventComponent  -->
<g id="edge4" class="edge">
<title>EventModule&#45;&gt;EventComponent </title>
<path fill="none" stroke="black" stroke-dasharray="5,2" d="M214,-149.91C214,-149.91 214,-168.79 214,-168.79"/>
<polygon fill="black" stroke="black" points="210.5,-168.79 214,-178.79 217.5,-168.79 210.5,-168.79"/>
</g>
<!-- EventDateModule -->
<g id="node3" class="node">
<title>EventDateModule</title>
<polygon fill="#8dd3c7" stroke="black" points="402.13,-84.8 399.13,-88.8 378.13,-88.8 375.13,-84.8 283.87,-84.8 283.87,-48.8 402.13,-48.8 402.13,-84.8"/>
<text text-anchor="middle" x="343" y="-62.6" font-family="Times,serif" font-size="14.00">EventDateModule</text>
</g>
<!-- EventDateModule&#45;&gt;EventModule -->
<g id="edge2" class="edge">
<title>EventDateModule&#45;&gt;EventModule</title>
<path fill="none" stroke="black" d="M343,-84.91C343,-104.14 343,-131.8 343,-131.8 343,-131.8 270.21,-131.8 270.21,-131.8"/>
<polygon fill="black" stroke="black" points="270.21,-128.3 260.21,-131.8 270.21,-135.3 270.21,-128.3"/>
</g>
<!-- PoiIconModule -->
<g id="node4" class="node">
<title>PoiIconModule</title>
<polygon fill="#8dd3c7" stroke="black" points="265.6,-84.8 262.6,-88.8 241.6,-88.8 238.6,-84.8 162.4,-84.8 162.4,-48.8 265.6,-48.8 265.6,-84.8"/>
<text text-anchor="middle" x="214" y="-62.6" font-family="Times,serif" font-size="14.00">PoiIconModule</text>
</g>
<!-- PoiIconModule&#45;&gt;EventModule -->
<g id="edge3" class="edge">
<title>PoiIconModule&#45;&gt;EventModule</title>
<path fill="none" stroke="black" d="M214,-84.91C214,-84.91 214,-103.79 214,-103.79"/>
<polygon fill="black" stroke="black" points="210.5,-103.79 214,-113.79 217.5,-103.79 210.5,-103.79"/>
</g>
</g>
</svg>
