<?xml version="1.0" encoding="UTF-8" standalone="no"?>
<!DOCTYPE svg PUBLIC "-//W3C//DTD SVG 1.1//EN"
 "http://www.w3.org/Graphics/SVG/1.1/DTD/svg11.dtd">
<!-- Generated by graphviz version 2.47.3 (20210619.1520)
 -->
<!-- Title: dependencies Pages: 1 -->
<svg width="414pt" height="247pt"
 viewBox="0.00 0.00 414.00 246.80" xmlns="http://www.w3.org/2000/svg" xmlns:xlink="http://www.w3.org/1999/xlink">
<g id="graph0" class="graph" transform="scale(1 1) rotate(0) translate(4 242.8)">
<title>dependencies</title>
<polygon fill="white" stroke="transparent" points="-4,4 -4,-242.8 410,-242.8 410,4 -4,4"/>
<text text-anchor="middle" x="203" y="-8.2" font-family="sans-serif" font-size="14.00">dependencies</text>
<g id="clust1" class="cluster">
<title>cluster_WaypointCardModule</title>
<polygon fill="none" stroke="black" stroke-dasharray="1,5" points="8,-32.8 8,-230.8 398,-230.8 398,-32.8 8,-32.8"/>
</g>
<g id="clust2" class="cluster">
<title>cluster_WaypointCardModule_declarations</title>
<polygon fill="none" stroke="black" points="210,-40.8 210,-92.8 390,-92.8 390,-40.8 210,-40.8"/>
</g>
<g id="clust4" class="cluster">
<title>cluster_WaypointCardModule_imports</title>
<polygon fill="none" stroke="black" points="16,-40.8 16,-92.8 202,-92.8 202,-40.8 16,-40.8"/>
</g>
<g id="clust5" class="cluster">
<title>cluster_WaypointCardModule_exports</title>
<polygon fill="none" stroke="black" points="111,-170.8 111,-222.8 295,-222.8 295,-170.8 111,-170.8"/>
</g>
<!-- WaypointCardComponent -->
<g id="node1" class="node">
<title>WaypointCardComponent</title>
<polygon fill="#ffffb3" stroke="black" points="381.75,-84.8 218.25,-84.8 218.25,-48.8 381.75,-48.8 381.75,-84.8"/>
<text text-anchor="middle" x="300" y="-62.6" font-family="Times,serif" font-size="14.00">WaypointCardComponent</text>
</g>
<!-- WaypointCardModule -->
<g id="node2" class="node">
<title>WaypointCardModule</title>
<polygon fill="#8dd3c7" stroke="black" points="273.97,-149.8 270.97,-153.8 249.97,-153.8 246.97,-149.8 132.03,-149.8 132.03,-113.8 273.97,-113.8 273.97,-149.8"/>
<text text-anchor="middle" x="203" y="-127.6" font-family="Times,serif" font-size="14.00">WaypointCardModule</text>
</g>
<!-- WaypointCardComponent&#45;&gt;WaypointCardModule -->
<g id="edge1" class="edge">
<title>WaypointCardComponent&#45;&gt;WaypointCardModule</title>
<path fill="none" stroke="black" d="M246.05,-84.91C246.05,-84.91 246.05,-103.79 246.05,-103.79"/>
<polygon fill="black" stroke="black" points="242.55,-103.79 246.05,-113.79 249.55,-103.79 242.55,-103.79"/>
</g>
<!-- WaypointCardComponent  -->
<g id="node4" class="node">
<title>WaypointCardComponent </title>
<polygon fill="#fb8072" stroke="black" points="286.75,-214.8 119.25,-214.8 119.25,-178.8 286.75,-178.8 286.75,-214.8"/>
<text text-anchor="middle" x="203" y="-192.6" font-family="Times,serif" font-size="14.00">WaypointCardComponent </text>
</g>
<!-- WaypointCardModule&#45;&gt;WaypointCardComponent  -->
<g id="edge3" class="edge">
<title>WaypointCardModule&#45;&gt;WaypointCardComponent </title>
<path fill="none" stroke="black" stroke-dasharray="5,2" d="M203,-149.91C203,-149.91 203,-168.79 203,-168.79"/>
<polygon fill="black" stroke="black" points="199.5,-168.79 203,-178.79 206.5,-168.79 199.5,-168.79"/>
</g>
<!-- WaypointSummaryModule -->
<g id="node3" class="node">
<title>WaypointSummaryModule</title>
<polygon fill="#8dd3c7" stroke="black" points="193.7,-84.8 190.7,-88.8 169.7,-88.8 166.7,-84.8 24.3,-84.8 24.3,-48.8 193.7,-48.8 193.7,-84.8"/>
<text text-anchor="middle" x="109" y="-62.6" font-family="Times,serif" font-size="14.00">WaypointSummaryModule</text>
</g>
<!-- WaypointSummaryModule&#45;&gt;WaypointCardModule -->
<g id="edge2" class="edge">
<title>WaypointSummaryModule&#45;&gt;WaypointCardModule</title>
<path fill="none" stroke="black" d="M162.81,-84.91C162.81,-84.91 162.81,-103.79 162.81,-103.79"/>
<polygon fill="black" stroke="black" points="159.31,-103.79 162.81,-113.79 166.31,-103.79 159.31,-103.79"/>
</g>
</g>
</svg>
