<?xml version="1.0" encoding="UTF-8" standalone="no"?>
<!DOCTYPE svg PUBLIC "-//W3C//DTD SVG 1.1//EN"
 "http://www.w3.org/Graphics/SVG/1.1/DTD/svg11.dtd">
<!-- Generated by graphviz version 2.47.3 (20210619.1520)
 -->
<!-- Title: dependencies Pages: 1 -->
<svg width="1003pt" height="247pt"
 viewBox="0.00 0.00 1003.00 246.80" xmlns="http://www.w3.org/2000/svg" xmlns:xlink="http://www.w3.org/1999/xlink">
<g id="graph0" class="graph" transform="scale(1 1) rotate(0) translate(4 242.8)">
<title>dependencies</title>
<polygon fill="white" stroke="transparent" points="-4,4 -4,-242.8 999,-242.8 999,4 -4,4"/>
<text text-anchor="middle" x="497.5" y="-8.2" font-family="sans-serif" font-size="14.00">dependencies</text>
<g id="clust1" class="cluster">
<title>cluster_AdminEventPoisModule</title>
<polygon fill="none" stroke="black" stroke-dasharray="1,5" points="8,-32.8 8,-230.8 987,-230.8 987,-32.8 8,-32.8"/>
</g>
<g id="clust4" class="cluster">
<title>cluster_AdminEventPoisModule_imports</title>
<polygon fill="none" stroke="black" points="513,-40.8 513,-92.8 979,-92.8 979,-40.8 513,-40.8"/>
</g>
<g id="clust2" class="cluster">
<title>cluster_AdminEventPoisModule_declarations</title>
<polygon fill="none" stroke="black" points="313,-40.8 313,-92.8 505,-92.8 505,-40.8 313,-40.8"/>
</g>
<g id="clust7" class="cluster">
<title>cluster_AdminEventPoisModule_providers</title>
<polygon fill="none" stroke="black" points="16,-40.8 16,-92.8 305,-92.8 305,-40.8 16,-40.8"/>
</g>
<g id="clust5" class="cluster">
<title>cluster_AdminEventPoisModule_exports</title>
<polygon fill="none" stroke="black" points="399,-170.8 399,-222.8 595,-222.8 595,-170.8 399,-170.8"/>
</g>
<!-- AdminEventPoisComponent -->
<g id="node1" class="node">
<title>AdminEventPoisComponent</title>
<polygon fill="#ffffb3" stroke="black" points="497.5,-84.8 320.5,-84.8 320.5,-48.8 497.5,-48.8 497.5,-84.8"/>
<text text-anchor="middle" x="409" y="-62.6" font-family="Times,serif" font-size="14.00">AdminEventPoisComponent</text>
</g>
<!-- AdminEventPoisModule -->
<g id="node2" class="node">
<title>AdminEventPoisModule</title>
<polygon fill="#8dd3c7" stroke="black" points="574.71,-149.8 571.71,-153.8 550.71,-153.8 547.71,-149.8 419.29,-149.8 419.29,-113.8 574.71,-113.8 574.71,-149.8"/>
<text text-anchor="middle" x="497" y="-127.6" font-family="Times,serif" font-size="14.00">AdminEventPoisModule</text>
</g>
<!-- AdminEventPoisComponent&#45;&gt;AdminEventPoisModule -->
<g id="edge1" class="edge">
<title>AdminEventPoisComponent&#45;&gt;AdminEventPoisModule</title>
<path fill="none" stroke="black" d="M458.45,-84.91C458.45,-84.91 458.45,-103.79 458.45,-103.79"/>
<polygon fill="black" stroke="black" points="454.95,-103.79 458.45,-113.79 461.95,-103.79 454.95,-103.79"/>
</g>
<!-- AdminEventPoisComponent  -->
<g id="node6" class="node">
<title>AdminEventPoisComponent </title>
<polygon fill="#fb8072" stroke="black" points="587.5,-214.8 406.5,-214.8 406.5,-178.8 587.5,-178.8 587.5,-214.8"/>
<text text-anchor="middle" x="497" y="-192.6" font-family="Times,serif" font-size="14.00">AdminEventPoisComponent </text>
</g>
<!-- AdminEventPoisModule&#45;&gt;AdminEventPoisComponent  -->
<g id="edge5" class="edge">
<title>AdminEventPoisModule&#45;&gt;AdminEventPoisComponent </title>
<path fill="none" stroke="black" stroke-dasharray="5,2" d="M497,-149.91C497,-149.91 497,-168.79 497,-168.79"/>
<polygon fill="black" stroke="black" points="493.5,-168.79 497,-178.79 500.5,-168.79 493.5,-168.79"/>
</g>
<!-- AdminPoiDialogModule -->
<g id="node3" class="node">
<title>AdminPoiDialogModule</title>
<polygon fill="#8dd3c7" stroke="black" points="970.71,-84.8 967.71,-88.8 946.71,-88.8 943.71,-84.8 815.29,-84.8 815.29,-48.8 970.71,-48.8 970.71,-84.8"/>
<text text-anchor="middle" x="893" y="-62.6" font-family="Times,serif" font-size="14.00">AdminPoiDialogModule</text>
</g>
<!-- AdminPoiDialogModule&#45;&gt;AdminEventPoisModule -->
<g id="edge2" class="edge">
<title>AdminPoiDialogModule&#45;&gt;AdminEventPoisModule</title>
<path fill="none" stroke="black" d="M893,-85.08C893,-106.12 893,-137.8 893,-137.8 893,-137.8 584.76,-137.8 584.76,-137.8"/>
<polygon fill="black" stroke="black" points="584.76,-134.3 574.76,-137.8 584.76,-141.3 584.76,-134.3"/>
</g>
<!-- AdminTableModule -->
<g id="node4" class="node">
<title>AdminTableModule</title>
<polygon fill="#8dd3c7" stroke="black" points="797.31,-84.8 794.31,-88.8 773.31,-88.8 770.31,-84.8 666.69,-84.8 666.69,-48.8 797.31,-48.8 797.31,-84.8"/>
<text text-anchor="middle" x="732" y="-62.6" font-family="Times,serif" font-size="14.00">AdminTableModule</text>
</g>
<!-- AdminTableModule&#45;&gt;AdminEventPoisModule -->
<g id="edge3" class="edge">
<title>AdminTableModule&#45;&gt;AdminEventPoisModule</title>
<path fill="none" stroke="black" d="M732,-84.82C732,-102.17 732,-125.8 732,-125.8 732,-125.8 584.93,-125.8 584.93,-125.8"/>
<polygon fill="black" stroke="black" points="584.93,-122.3 574.93,-125.8 584.93,-129.3 584.93,-122.3"/>
</g>
<!-- SearchFormModule -->
<g id="node5" class="node">
<title>SearchFormModule</title>
<polygon fill="#8dd3c7" stroke="black" points="648.97,-84.8 645.97,-88.8 624.97,-88.8 621.97,-84.8 521.03,-84.8 521.03,-48.8 648.97,-48.8 648.97,-84.8"/>
<text text-anchor="middle" x="585" y="-62.6" font-family="Times,serif" font-size="14.00">SearchFormModule</text>
</g>
<!-- SearchFormModule&#45;&gt;AdminEventPoisModule -->
<g id="edge4" class="edge">
<title>SearchFormModule&#45;&gt;AdminEventPoisModule</title>
<path fill="none" stroke="black" d="M547.81,-84.91C547.81,-84.91 547.81,-103.79 547.81,-103.79"/>
<polygon fill="black" stroke="black" points="544.31,-103.79 547.81,-113.79 551.31,-103.79 544.31,-103.79"/>
</g>
<!-- AdminPoiService -->
<g id="node7" class="node">
<title>AdminPoiService</title>
<ellipse fill="#fdb462" stroke="black" cx="217" cy="-66.8" rx="79.89" ry="18"/>
<text text-anchor="middle" x="217" y="-62.6" font-family="Times,serif" font-size="14.00">AdminPoiService</text>
</g>
<!-- AdminPoiService&#45;&gt;AdminEventPoisModule -->
<g id="edge6" class="edge">
<title>AdminPoiService&#45;&gt;AdminEventPoisModule</title>
<path fill="none" stroke="black" d="M217,-84.82C217,-102.17 217,-125.8 217,-125.8 217,-125.8 409.38,-125.8 409.38,-125.8"/>
<polygon fill="black" stroke="black" points="409.38,-129.3 419.38,-125.8 409.38,-122.3 409.38,-129.3"/>
</g>
<!-- PoiClient -->
<g id="node8" class="node">
<title>PoiClient</title>
<ellipse fill="#fdb462" stroke="black" cx="72" cy="-66.8" rx="47.55" ry="18"/>
<text text-anchor="middle" x="72" y="-62.6" font-family="Times,serif" font-size="14.00">PoiClient</text>
</g>
<!-- PoiClient&#45;&gt;AdminEventPoisModule -->
<g id="edge7" class="edge">
<title>PoiClient&#45;&gt;AdminEventPoisModule</title>
<path fill="none" stroke="black" d="M72,-85.08C72,-106.12 72,-137.8 72,-137.8 72,-137.8 409.05,-137.8 409.05,-137.8"/>
<polygon fill="black" stroke="black" points="409.05,-141.3 419.05,-137.8 409.05,-134.3 409.05,-141.3"/>
</g>
</g>
</svg>
