<?xml version="1.0" encoding="UTF-8" standalone="no"?>
<!DOCTYPE svg PUBLIC "-//W3C//DTD SVG 1.1//EN"
 "http://www.w3.org/Graphics/SVG/1.1/DTD/svg11.dtd">
<!-- Generated by graphviz version 2.47.3 (20210619.1520)
 -->
<!-- Title: dependencies Pages: 1 -->
<svg width="396pt" height="247pt"
 viewBox="0.00 0.00 396.00 246.80" xmlns="http://www.w3.org/2000/svg" xmlns:xlink="http://www.w3.org/1999/xlink">
<g id="graph0" class="graph" transform="scale(1 1) rotate(0) translate(4 242.8)">
<title>dependencies</title>
<polygon fill="white" stroke="transparent" points="-4,4 -4,-242.8 392,-242.8 392,4 -4,4"/>
<text text-anchor="middle" x="194" y="-8.2" font-family="sans-serif" font-size="14.00">dependencies</text>
<g id="clust1" class="cluster">
<title>cluster_RewardFlatCardModule</title>
<polygon fill="none" stroke="black" stroke-dasharray="1,5" points="8,-32.8 8,-230.8 380,-230.8 380,-32.8 8,-32.8"/>
</g>
<g id="clust2" class="cluster">
<title>cluster_RewardFlatCardModule_declarations</title>
<polygon fill="none" stroke="black" points="182,-40.8 182,-92.8 372,-92.8 372,-40.8 182,-40.8"/>
</g>
<g id="clust5" class="cluster">
<title>cluster_RewardFlatCardModule_exports</title>
<polygon fill="none" stroke="black" points="97,-170.8 97,-222.8 291,-222.8 291,-170.8 97,-170.8"/>
</g>
<g id="clust4" class="cluster">
<title>cluster_RewardFlatCardModule_imports</title>
<polygon fill="none" stroke="black" points="16,-40.8 16,-92.8 174,-92.8 174,-40.8 16,-40.8"/>
</g>
<!-- RewardFlatCardComponent -->
<g id="node1" class="node">
<title>RewardFlatCardComponent</title>
<polygon fill="#ffffb3" stroke="black" points="363.86,-84.8 190.14,-84.8 190.14,-48.8 363.86,-48.8 363.86,-84.8"/>
<text text-anchor="middle" x="277" y="-62.6" font-family="Times,serif" font-size="14.00">RewardFlatCardComponent</text>
</g>
<!-- RewardFlatCardModule -->
<g id="node2" class="node">
<title>RewardFlatCardModule</title>
<polygon fill="#8dd3c7" stroke="black" points="270.07,-149.8 267.07,-153.8 246.07,-153.8 243.07,-149.8 117.93,-149.8 117.93,-113.8 270.07,-113.8 270.07,-149.8"/>
<text text-anchor="middle" x="194" y="-127.6" font-family="Times,serif" font-size="14.00">RewardFlatCardModule</text>
</g>
<!-- RewardFlatCardComponent&#45;&gt;RewardFlatCardModule -->
<g id="edge1" class="edge">
<title>RewardFlatCardComponent&#45;&gt;RewardFlatCardModule</title>
<path fill="none" stroke="black" d="M230.05,-84.91C230.05,-84.91 230.05,-103.79 230.05,-103.79"/>
<polygon fill="black" stroke="black" points="226.55,-103.79 230.05,-113.79 233.55,-103.79 226.55,-103.79"/>
</g>
<!-- RewardFlatCardComponent  -->
<g id="node4" class="node">
<title>RewardFlatCardComponent </title>
<polygon fill="#fb8072" stroke="black" points="282.86,-214.8 105.14,-214.8 105.14,-178.8 282.86,-178.8 282.86,-214.8"/>
<text text-anchor="middle" x="194" y="-192.6" font-family="Times,serif" font-size="14.00">RewardFlatCardComponent </text>
</g>
<!-- RewardFlatCardModule&#45;&gt;RewardFlatCardComponent  -->
<g id="edge3" class="edge">
<title>RewardFlatCardModule&#45;&gt;RewardFlatCardComponent </title>
<path fill="none" stroke="black" stroke-dasharray="5,2" d="M194,-149.91C194,-149.91 194,-168.79 194,-168.79"/>
<polygon fill="black" stroke="black" points="190.5,-168.79 194,-178.79 197.5,-168.79 190.5,-168.79"/>
</g>
<!-- SuccessDialogModule -->
<g id="node3" class="node">
<title>SuccessDialogModule</title>
<polygon fill="#8dd3c7" stroke="black" points="165.97,-84.8 162.97,-88.8 141.97,-88.8 138.97,-84.8 24.03,-84.8 24.03,-48.8 165.97,-48.8 165.97,-84.8"/>
<text text-anchor="middle" x="95" y="-62.6" font-family="Times,serif" font-size="14.00">SuccessDialogModule</text>
</g>
<!-- SuccessDialogModule&#45;&gt;RewardFlatCardModule -->
<g id="edge2" class="edge">
<title>SuccessDialogModule&#45;&gt;RewardFlatCardModule</title>
<path fill="none" stroke="black" d="M141.97,-84.91C141.97,-84.91 141.97,-103.79 141.97,-103.79"/>
<polygon fill="black" stroke="black" points="138.47,-103.79 141.97,-113.79 145.47,-103.79 138.47,-103.79"/>
</g>
</g>
</svg>
