<?xml version="1.0" encoding="UTF-8" standalone="no"?>
<!DOCTYPE svg PUBLIC "-//W3C//DTD SVG 1.1//EN"
 "http://www.w3.org/Graphics/SVG/1.1/DTD/svg11.dtd">
<!-- Generated by graphviz version 2.47.3 (20210619.1520)
 -->
<!-- Title: dependencies Pages: 1 -->
<svg width="316pt" height="247pt"
 viewBox="0.00 0.00 316.00 246.80" xmlns="http://www.w3.org/2000/svg" xmlns:xlink="http://www.w3.org/1999/xlink">
<g id="graph0" class="graph" transform="scale(1 1) rotate(0) translate(4 242.8)">
<title>dependencies</title>
<polygon fill="white" stroke="transparent" points="-4,4 -4,-242.8 312,-242.8 312,4 -4,4"/>
<text text-anchor="middle" x="154" y="-8.2" font-family="sans-serif" font-size="14.00">dependencies</text>
<g id="clust1" class="cluster">
<title>cluster_UserModule</title>
<polygon fill="none" stroke="black" stroke-dasharray="1,5" points="8,-32.8 8,-230.8 300,-230.8 300,-32.8 8,-32.8"/>
</g>
<g id="clust4" class="cluster">
<title>cluster_UserModule_imports</title>
<polygon fill="none" stroke="black" points="148,-40.8 148,-92.8 292,-92.8 292,-40.8 148,-40.8"/>
</g>
<g id="clust5" class="cluster">
<title>cluster_UserModule_exports</title>
<polygon fill="none" stroke="black" points="86,-170.8 86,-222.8 214,-222.8 214,-170.8 86,-170.8"/>
</g>
<g id="clust2" class="cluster">
<title>cluster_UserModule_declarations</title>
<polygon fill="none" stroke="black" points="16,-40.8 16,-92.8 140,-92.8 140,-40.8 16,-40.8"/>
</g>
<!-- UserComponent -->
<g id="node1" class="node">
<title>UserComponent</title>
<polygon fill="#ffffb3" stroke="black" points="131.76,-84.8 24.24,-84.8 24.24,-48.8 131.76,-48.8 131.76,-84.8"/>
<text text-anchor="middle" x="78" y="-62.6" font-family="Times,serif" font-size="14.00">UserComponent</text>
</g>
<!-- UserModule -->
<g id="node2" class="node">
<title>UserModule</title>
<polygon fill="#8dd3c7" stroke="black" points="192.98,-149.8 189.98,-153.8 168.98,-153.8 165.98,-149.8 107.02,-149.8 107.02,-113.8 192.98,-113.8 192.98,-149.8"/>
<text text-anchor="middle" x="150" y="-127.6" font-family="Times,serif" font-size="14.00">UserModule</text>
</g>
<!-- UserComponent&#45;&gt;UserModule -->
<g id="edge1" class="edge">
<title>UserComponent&#45;&gt;UserModule</title>
<path fill="none" stroke="black" d="M119.45,-84.91C119.45,-84.91 119.45,-103.79 119.45,-103.79"/>
<polygon fill="black" stroke="black" points="115.95,-103.79 119.45,-113.79 122.95,-103.79 115.95,-103.79"/>
</g>
<!-- UserComponent  -->
<g id="node4" class="node">
<title>UserComponent </title>
<polygon fill="#fb8072" stroke="black" points="205.76,-214.8 94.24,-214.8 94.24,-178.8 205.76,-178.8 205.76,-214.8"/>
<text text-anchor="middle" x="150" y="-192.6" font-family="Times,serif" font-size="14.00">UserComponent </text>
</g>
<!-- UserModule&#45;&gt;UserComponent  -->
<g id="edge3" class="edge">
<title>UserModule&#45;&gt;UserComponent </title>
<path fill="none" stroke="black" stroke-dasharray="5,2" d="M150,-149.91C150,-149.91 150,-168.79 150,-168.79"/>
<polygon fill="black" stroke="black" points="146.5,-168.79 150,-178.79 153.5,-168.79 146.5,-168.79"/>
</g>
<!-- ScaleCenterModule -->
<g id="node3" class="node">
<title>ScaleCenterModule</title>
<polygon fill="#8dd3c7" stroke="black" points="283.68,-84.8 280.68,-88.8 259.68,-88.8 256.68,-84.8 156.32,-84.8 156.32,-48.8 283.68,-48.8 283.68,-84.8"/>
<text text-anchor="middle" x="220" y="-62.6" font-family="Times,serif" font-size="14.00">ScaleCenterModule</text>
</g>
<!-- ScaleCenterModule&#45;&gt;UserModule -->
<g id="edge2" class="edge">
<title>ScaleCenterModule&#45;&gt;UserModule</title>
<path fill="none" stroke="black" d="M174.7,-84.91C174.7,-84.91 174.7,-103.79 174.7,-103.79"/>
<polygon fill="black" stroke="black" points="171.2,-103.79 174.7,-113.79 178.2,-103.79 171.2,-103.79"/>
</g>
</g>
</svg>
