<?xml version="1.0" encoding="UTF-8" standalone="no"?>
<!DOCTYPE svg PUBLIC "-//W3C//DTD SVG 1.1//EN"
 "http://www.w3.org/Graphics/SVG/1.1/DTD/svg11.dtd">
<!-- Generated by graphviz version 2.47.3 (20210619.1520)
 -->
<!-- Title: dependencies Pages: 1 -->
<svg width="360pt" height="174pt"
 viewBox="0.00 0.00 360.00 173.80" xmlns="http://www.w3.org/2000/svg" xmlns:xlink="http://www.w3.org/1999/xlink">
<g id="graph0" class="graph" transform="scale(1 1) rotate(0) translate(4 169.8)">
<title>dependencies</title>
<polygon fill="white" stroke="transparent" points="-4,4 -4,-169.8 356,-169.8 356,4 -4,4"/>
<text text-anchor="middle" x="176" y="-8.2" font-family="sans-serif" font-size="14.00">dependencies</text>
<g id="clust1" class="cluster">
<title>cluster_ErrorPageModule</title>
<polygon fill="none" stroke="black" stroke-dasharray="1,5" points="8,-32.8 8,-157.8 344,-157.8 344,-32.8 8,-32.8"/>
</g>
<g id="clust4" class="cluster">
<title>cluster_ErrorPageModule_imports</title>
<polygon fill="none" stroke="black" points="178,-40.8 178,-92.8 336,-92.8 336,-40.8 178,-40.8"/>
</g>
<g id="clust2" class="cluster">
<title>cluster_ErrorPageModule_declarations</title>
<polygon fill="none" stroke="black" points="16,-40.8 16,-92.8 170,-92.8 170,-40.8 16,-40.8"/>
</g>
<!-- ErrorPageComponent -->
<g id="node1" class="node">
<title>ErrorPageComponent</title>
<polygon fill="#ffffb3" stroke="black" points="162.08,-84.8 23.92,-84.8 23.92,-48.8 162.08,-48.8 162.08,-84.8"/>
<text text-anchor="middle" x="93" y="-62.6" font-family="Times,serif" font-size="14.00">ErrorPageComponent</text>
</g>
<!-- ErrorPageModule -->
<g id="node2" class="node">
<title>ErrorPageModule</title>
<polygon fill="#8dd3c7" stroke="black" points="233.3,-149.8 230.3,-153.8 209.3,-153.8 206.3,-149.8 116.7,-149.8 116.7,-113.8 233.3,-113.8 233.3,-149.8"/>
<text text-anchor="middle" x="175" y="-127.6" font-family="Times,serif" font-size="14.00">ErrorPageModule</text>
</g>
<!-- ErrorPageComponent&#45;&gt;ErrorPageModule -->
<g id="edge1" class="edge">
<title>ErrorPageComponent&#45;&gt;ErrorPageModule</title>
<path fill="none" stroke="black" d="M139.45,-84.91C139.45,-84.91 139.45,-103.79 139.45,-103.79"/>
<polygon fill="black" stroke="black" points="135.95,-103.79 139.45,-113.79 142.95,-103.79 135.95,-103.79"/>
</g>
<!-- NavbarBottomModule -->
<g id="node3" class="node">
<title>NavbarBottomModule</title>
<polygon fill="#8dd3c7" stroke="black" points="328.25,-84.8 325.25,-88.8 304.25,-88.8 301.25,-84.8 185.75,-84.8 185.75,-48.8 328.25,-48.8 328.25,-84.8"/>
<text text-anchor="middle" x="257" y="-62.6" font-family="Times,serif" font-size="14.00">NavbarBottomModule</text>
</g>
<!-- NavbarBottomModule&#45;&gt;ErrorPageModule -->
<g id="edge2" class="edge">
<title>NavbarBottomModule&#45;&gt;ErrorPageModule</title>
<path fill="none" stroke="black" d="M209.39,-84.91C209.39,-84.91 209.39,-103.79 209.39,-103.79"/>
<polygon fill="black" stroke="black" points="205.89,-103.79 209.39,-113.79 212.89,-103.79 205.89,-103.79"/>
</g>
</g>
</svg>
