<?xml version="1.0" encoding="UTF-8" standalone="no"?>
<!DOCTYPE svg PUBLIC "-//W3C//DTD SVG 1.1//EN"
 "http://www.w3.org/Graphics/SVG/1.1/DTD/svg11.dtd">
<!-- Generated by graphviz version 2.47.3 (20210619.1520)
 -->
<!-- Title: dependencies Pages: 1 -->
<svg width="240pt" height="247pt"
 viewBox="0.00 0.00 240.00 246.80" xmlns="http://www.w3.org/2000/svg" xmlns:xlink="http://www.w3.org/1999/xlink">
<g id="graph0" class="graph" transform="scale(1 1) rotate(0) translate(4 242.8)">
<title>dependencies</title>
<polygon fill="white" stroke="transparent" points="-4,4 -4,-242.8 236,-242.8 236,4 -4,4"/>
<text text-anchor="middle" x="116" y="-8.2" font-family="sans-serif" font-size="14.00">dependencies</text>
<g id="clust1" class="cluster">
<title>cluster_PartnershipLogosModule</title>
<polygon fill="none" stroke="black" stroke-dasharray="1,5" points="8,-32.8 8,-230.8 224,-230.8 224,-32.8 8,-32.8"/>
</g>
<g id="clust2" class="cluster">
<title>cluster_PartnershipLogosModule_declarations</title>
<polygon fill="none" stroke="black" points="18,-40.8 18,-92.8 214,-92.8 214,-40.8 18,-40.8"/>
</g>
<g id="clust5" class="cluster">
<title>cluster_PartnershipLogosModule_exports</title>
<polygon fill="none" stroke="black" points="16,-170.8 16,-222.8 216,-222.8 216,-170.8 16,-170.8"/>
</g>
<!-- PartnershipLogosComponent -->
<g id="node1" class="node">
<title>PartnershipLogosComponent</title>
<polygon fill="#ffffb3" stroke="black" points="206.09,-84.8 25.91,-84.8 25.91,-48.8 206.09,-48.8 206.09,-84.8"/>
<text text-anchor="middle" x="116" y="-62.6" font-family="Times,serif" font-size="14.00">PartnershipLogosComponent</text>
</g>
<!-- PartnershipLogosModule -->
<g id="node2" class="node">
<title>PartnershipLogosModule</title>
<polygon fill="#8dd3c7" stroke="black" points="195.31,-149.8 192.31,-153.8 171.31,-153.8 168.31,-149.8 36.69,-149.8 36.69,-113.8 195.31,-113.8 195.31,-149.8"/>
<text text-anchor="middle" x="116" y="-127.6" font-family="Times,serif" font-size="14.00">PartnershipLogosModule</text>
</g>
<!-- PartnershipLogosComponent&#45;&gt;PartnershipLogosModule -->
<g id="edge1" class="edge">
<title>PartnershipLogosComponent&#45;&gt;PartnershipLogosModule</title>
<path fill="none" stroke="black" d="M116,-84.91C116,-84.91 116,-103.79 116,-103.79"/>
<polygon fill="black" stroke="black" points="112.5,-103.79 116,-113.79 119.5,-103.79 112.5,-103.79"/>
</g>
<!-- PartnershipLogosComponent  -->
<g id="node3" class="node">
<title>PartnershipLogosComponent </title>
<polygon fill="#fb8072" stroke="black" points="207.59,-214.8 24.41,-214.8 24.41,-178.8 207.59,-178.8 207.59,-214.8"/>
<text text-anchor="middle" x="116" y="-192.6" font-family="Times,serif" font-size="14.00">PartnershipLogosComponent </text>
</g>
<!-- PartnershipLogosModule&#45;&gt;PartnershipLogosComponent  -->
<g id="edge2" class="edge">
<title>PartnershipLogosModule&#45;&gt;PartnershipLogosComponent </title>
<path fill="none" stroke="black" stroke-dasharray="5,2" d="M116,-149.91C116,-149.91 116,-168.79 116,-168.79"/>
<polygon fill="black" stroke="black" points="112.5,-168.79 116,-178.79 119.5,-168.79 112.5,-168.79"/>
</g>
</g>
</svg>
