<?xml version="1.0" encoding="UTF-8" standalone="no"?>
<!DOCTYPE svg PUBLIC "-//W3C//DTD SVG 1.1//EN"
 "http://www.w3.org/Graphics/SVG/1.1/DTD/svg11.dtd">
<!-- Generated by graphviz version 2.47.3 (20210619.1520)
 -->
<!-- Title: dependencies Pages: 1 -->
<svg width="1577pt" height="174pt"
 viewBox="0.00 0.00 1577.00 173.80" xmlns="http://www.w3.org/2000/svg" xmlns:xlink="http://www.w3.org/1999/xlink">
<g id="graph0" class="graph" transform="scale(1 1) rotate(0) translate(4 169.8)">
<title>dependencies</title>
<polygon fill="white" stroke="transparent" points="-4,4 -4,-169.8 1573,-169.8 1573,4 -4,4"/>
<text text-anchor="middle" x="784.5" y="-8.2" font-family="sans-serif" font-size="14.00">dependencies</text>
<g id="clust1" class="cluster">
<title>cluster_HomePageModule</title>
<polygon fill="none" stroke="black" stroke-dasharray="1,5" points="8,-32.8 8,-157.8 1561,-157.8 1561,-32.8 8,-32.8"/>
</g>
<g id="clust2" class="cluster">
<title>cluster_HomePageModule_declarations</title>
<polygon fill="none" stroke="black" points="1395,-40.8 1395,-92.8 1553,-92.8 1553,-40.8 1395,-40.8"/>
</g>
<g id="clust4" class="cluster">
<title>cluster_HomePageModule_imports</title>
<polygon fill="none" stroke="black" points="16,-40.8 16,-92.8 1387,-92.8 1387,-40.8 16,-40.8"/>
</g>
<!-- HomePageComponent -->
<g id="node1" class="node">
<title>HomePageComponent</title>
<polygon fill="#ffffb3" stroke="black" points="1545.26,-84.8 1402.74,-84.8 1402.74,-48.8 1545.26,-48.8 1545.26,-84.8"/>
<text text-anchor="middle" x="1474" y="-62.6" font-family="Times,serif" font-size="14.00">HomePageComponent</text>
</g>
<!-- HomePageModule -->
<g id="node2" class="node">
<title>HomePageModule</title>
<polygon fill="#8dd3c7" stroke="black" points="878.47,-149.8 875.47,-153.8 854.47,-153.8 851.47,-149.8 757.53,-149.8 757.53,-113.8 878.47,-113.8 878.47,-149.8"/>
<text text-anchor="middle" x="818" y="-127.6" font-family="Times,serif" font-size="14.00">HomePageModule</text>
</g>
<!-- HomePageComponent&#45;&gt;HomePageModule -->
<g id="edge1" class="edge">
<title>HomePageComponent&#45;&gt;HomePageModule</title>
<path fill="none" stroke="black" d="M1474,-84.81C1474,-107.29 1474,-142.8 1474,-142.8 1474,-142.8 888.54,-142.8 888.54,-142.8"/>
<polygon fill="black" stroke="black" points="888.54,-139.3 878.54,-142.8 888.54,-146.3 888.54,-139.3"/>
</g>
<!-- CmqBtpNumeriqueHomeModule -->
<g id="node3" class="node">
<title>CmqBtpNumeriqueHomeModule</title>
<polygon fill="#8dd3c7" stroke="black" points="1379.19,-84.8 1376.19,-88.8 1355.19,-88.8 1352.19,-84.8 1174.81,-84.8 1174.81,-48.8 1379.19,-48.8 1379.19,-84.8"/>
<text text-anchor="middle" x="1277" y="-62.6" font-family="Times,serif" font-size="14.00">CmqBtpNumeriqueHomeModule</text>
</g>
<!-- CmqBtpNumeriqueHomeModule&#45;&gt;HomePageModule -->
<g id="edge2" class="edge">
<title>CmqBtpNumeriqueHomeModule&#45;&gt;HomePageModule</title>
<path fill="none" stroke="black" d="M1277,-84.93C1277,-105.37 1277,-135.8 1277,-135.8 1277,-135.8 888.48,-135.8 888.48,-135.8"/>
<polygon fill="black" stroke="black" points="888.48,-132.3 878.48,-135.8 888.48,-139.3 888.48,-132.3"/>
</g>
<!-- DefaultHomeModule -->
<g id="node4" class="node">
<title>DefaultHomeModule</title>
<polygon fill="#8dd3c7" stroke="black" points="1156.74,-84.8 1153.74,-88.8 1132.74,-88.8 1129.74,-84.8 1021.26,-84.8 1021.26,-48.8 1156.74,-48.8 1156.74,-84.8"/>
<text text-anchor="middle" x="1089" y="-62.6" font-family="Times,serif" font-size="14.00">DefaultHomeModule</text>
</g>
<!-- DefaultHomeModule&#45;&gt;HomePageModule -->
<g id="edge3" class="edge">
<title>DefaultHomeModule&#45;&gt;HomePageModule</title>
<path fill="none" stroke="black" d="M1089,-85.07C1089,-103.36 1089,-128.8 1089,-128.8 1089,-128.8 888.48,-128.8 888.48,-128.8"/>
<polygon fill="black" stroke="black" points="888.48,-125.3 878.48,-128.8 888.48,-132.3 888.48,-125.3"/>
</g>
<!-- FooterModule -->
<g id="node5" class="node">
<title>FooterModule</title>
<polygon fill="#8dd3c7" stroke="black" points="1003.1,-84.8 1000.1,-88.8 979.1,-88.8 976.1,-84.8 906.9,-84.8 906.9,-48.8 1003.1,-48.8 1003.1,-84.8"/>
<text text-anchor="middle" x="955" y="-62.6" font-family="Times,serif" font-size="14.00">FooterModule</text>
</g>
<!-- FooterModule&#45;&gt;HomePageModule -->
<g id="edge4" class="edge">
<title>FooterModule&#45;&gt;HomePageModule</title>
<path fill="none" stroke="black" d="M955,-84.81C955,-100.85 955,-121.8 955,-121.8 955,-121.8 888.49,-121.8 888.49,-121.8"/>
<polygon fill="black" stroke="black" points="888.49,-118.3 878.49,-121.8 888.49,-125.3 888.49,-118.3"/>
</g>
<!-- MyRoadHomeModule -->
<g id="node6" class="node">
<title>MyRoadHomeModule</title>
<polygon fill="#8dd3c7" stroke="black" points="889.26,-84.8 886.26,-88.8 865.26,-88.8 862.26,-84.8 746.74,-84.8 746.74,-48.8 889.26,-48.8 889.26,-84.8"/>
<text text-anchor="middle" x="818" y="-62.6" font-family="Times,serif" font-size="14.00">MyRoadHomeModule</text>
</g>
<!-- MyRoadHomeModule&#45;&gt;HomePageModule -->
<g id="edge5" class="edge">
<title>MyRoadHomeModule&#45;&gt;HomePageModule</title>
<path fill="none" stroke="black" d="M818,-84.91C818,-84.91 818,-103.79 818,-103.79"/>
<polygon fill="black" stroke="black" points="814.5,-103.79 818,-113.79 821.5,-103.79 814.5,-103.79"/>
</g>
<!-- NavigationTemplateModule -->
<g id="node7" class="node">
<title>NavigationTemplateModule</title>
<polygon fill="#8dd3c7" stroke="black" points="728.13,-84.8 725.13,-88.8 704.13,-88.8 701.13,-84.8 553.87,-84.8 553.87,-48.8 728.13,-48.8 728.13,-84.8"/>
<text text-anchor="middle" x="641" y="-62.6" font-family="Times,serif" font-size="14.00">NavigationTemplateModule</text>
</g>
<!-- NavigationTemplateModule&#45;&gt;HomePageModule -->
<g id="edge6" class="edge">
<title>NavigationTemplateModule&#45;&gt;HomePageModule</title>
<path fill="none" stroke="black" d="M641,-84.81C641,-100.85 641,-121.8 641,-121.8 641,-121.8 747.09,-121.8 747.09,-121.8"/>
<polygon fill="black" stroke="black" points="747.09,-125.3 757.09,-121.8 747.09,-118.3 747.09,-125.3"/>
</g>
<!-- PaysDeLaLoireHomeModule -->
<g id="node8" class="node">
<title>PaysDeLaLoireHomeModule</title>
<polygon fill="#8dd3c7" stroke="black" points="535.61,-84.8 532.61,-88.8 511.61,-88.8 508.61,-84.8 354.39,-84.8 354.39,-48.8 535.61,-48.8 535.61,-84.8"/>
<text text-anchor="middle" x="445" y="-62.6" font-family="Times,serif" font-size="14.00">PaysDeLaLoireHomeModule</text>
</g>
<!-- PaysDeLaLoireHomeModule&#45;&gt;HomePageModule -->
<g id="edge7" class="edge">
<title>PaysDeLaLoireHomeModule&#45;&gt;HomePageModule</title>
<path fill="none" stroke="black" d="M445,-85.07C445,-103.36 445,-128.8 445,-128.8 445,-128.8 747.24,-128.8 747.24,-128.8"/>
<polygon fill="black" stroke="black" points="747.24,-132.3 757.24,-128.8 747.24,-125.3 747.24,-132.3"/>
</g>
<!-- RegionSudHomeModule -->
<g id="node9" class="node">
<title>RegionSudHomeModule</title>
<polygon fill="#8dd3c7" stroke="black" points="335.99,-84.8 332.99,-88.8 311.99,-88.8 308.99,-84.8 180.01,-84.8 180.01,-48.8 335.99,-48.8 335.99,-84.8"/>
<text text-anchor="middle" x="258" y="-62.6" font-family="Times,serif" font-size="14.00">RegionSudHomeModule</text>
</g>
<!-- RegionSudHomeModule&#45;&gt;HomePageModule -->
<g id="edge8" class="edge">
<title>RegionSudHomeModule&#45;&gt;HomePageModule</title>
<path fill="none" stroke="black" d="M258,-84.93C258,-105.37 258,-135.8 258,-135.8 258,-135.8 747.27,-135.8 747.27,-135.8"/>
<polygon fill="black" stroke="black" points="747.27,-139.3 757.27,-135.8 747.27,-132.3 747.27,-139.3"/>
</g>
<!-- TemplateHostModule -->
<g id="node10" class="node">
<title>TemplateHostModule</title>
<polygon fill="#8dd3c7" stroke="black" points="162.36,-84.8 159.36,-88.8 138.36,-88.8 135.36,-84.8 23.64,-84.8 23.64,-48.8 162.36,-48.8 162.36,-84.8"/>
<text text-anchor="middle" x="93" y="-62.6" font-family="Times,serif" font-size="14.00">TemplateHostModule</text>
</g>
<!-- TemplateHostModule&#45;&gt;HomePageModule -->
<g id="edge9" class="edge">
<title>TemplateHostModule&#45;&gt;HomePageModule</title>
<path fill="none" stroke="black" d="M93,-84.81C93,-107.29 93,-142.8 93,-142.8 93,-142.8 747.43,-142.8 747.43,-142.8"/>
<polygon fill="black" stroke="black" points="747.43,-146.3 757.43,-142.8 747.43,-139.3 747.43,-146.3"/>
</g>
</g>
</svg>
