<?xml version="1.0" encoding="UTF-8" standalone="no"?>
<!DOCTYPE svg PUBLIC "-//W3C//DTD SVG 1.1//EN"
 "http://www.w3.org/Graphics/SVG/1.1/DTD/svg11.dtd">
<!-- Generated by graphviz version 2.47.3 (20210619.1520)
 -->
<!-- Title: dependencies Pages: 1 -->
<svg width="1767pt" height="174pt"
 viewBox="0.00 0.00 1767.00 173.80" xmlns="http://www.w3.org/2000/svg" xmlns:xlink="http://www.w3.org/1999/xlink">
<g id="graph0" class="graph" transform="scale(1 1) rotate(0) translate(4 169.8)">
<title>dependencies</title>
<polygon fill="white" stroke="transparent" points="-4,4 -4,-169.8 1763,-169.8 1763,4 -4,4"/>
<text text-anchor="middle" x="879.5" y="-8.2" font-family="sans-serif" font-size="14.00">dependencies</text>
<g id="clust1" class="cluster">
<title>cluster_AccountPageModule</title>
<polygon fill="none" stroke="black" stroke-dasharray="1,5" points="8,-32.8 8,-157.8 1751,-157.8 1751,-32.8 8,-32.8"/>
</g>
<g id="clust6" class="cluster">
<title>cluster_AccountPageModule_imports</title>
<polygon fill="none" stroke="black" points="532,-40.8 532,-92.8 1743,-92.8 1743,-40.8 532,-40.8"/>
</g>
<g id="clust2" class="cluster">
<title>cluster_AccountPageModule_declarations</title>
<polygon fill="none" stroke="black" points="16,-40.8 16,-92.8 524,-92.8 524,-40.8 16,-40.8"/>
</g>
<!-- AccountPageComponent -->
<g id="node1" class="node">
<title>AccountPageComponent</title>
<polygon fill="#ffffb3" stroke="black" points="515.97,-84.8 360.03,-84.8 360.03,-48.8 515.97,-48.8 515.97,-84.8"/>
<text text-anchor="middle" x="438" y="-62.6" font-family="Times,serif" font-size="14.00">AccountPageComponent</text>
</g>
<!-- AccountPageModule -->
<g id="node4" class="node">
<title>AccountPageModule</title>
<polygon fill="#8dd3c7" stroke="black" points="918.19,-149.8 915.19,-153.8 894.19,-153.8 891.19,-149.8 783.81,-149.8 783.81,-113.8 918.19,-113.8 918.19,-149.8"/>
<text text-anchor="middle" x="851" y="-127.6" font-family="Times,serif" font-size="14.00">AccountPageModule</text>
</g>
<!-- AccountPageComponent&#45;&gt;AccountPageModule -->
<g id="edge1" class="edge">
<title>AccountPageComponent&#45;&gt;AccountPageModule</title>
<path fill="none" stroke="black" d="M438,-85.07C438,-103.36 438,-128.8 438,-128.8 438,-128.8 773.73,-128.8 773.73,-128.8"/>
<polygon fill="black" stroke="black" points="773.73,-132.3 783.73,-128.8 773.73,-125.3 773.73,-132.3"/>
</g>
<!-- ProfilePageComponent -->
<g id="node2" class="node">
<title>ProfilePageComponent</title>
<polygon fill="#ffffb3" stroke="black" points="342.14,-84.8 195.86,-84.8 195.86,-48.8 342.14,-48.8 342.14,-84.8"/>
<text text-anchor="middle" x="269" y="-62.6" font-family="Times,serif" font-size="14.00">ProfilePageComponent</text>
</g>
<!-- ProfilePageComponent&#45;&gt;AccountPageModule -->
<g id="edge2" class="edge">
<title>ProfilePageComponent&#45;&gt;AccountPageModule</title>
<path fill="none" stroke="black" d="M269,-84.93C269,-105.37 269,-135.8 269,-135.8 269,-135.8 773.67,-135.8 773.67,-135.8"/>
<polygon fill="black" stroke="black" points="773.67,-139.3 783.67,-135.8 773.67,-132.3 773.67,-139.3"/>
</g>
<!-- SettingsPageComponent -->
<g id="node3" class="node">
<title>SettingsPageComponent</title>
<polygon fill="#ffffb3" stroke="black" points="177.66,-84.8 24.34,-84.8 24.34,-48.8 177.66,-48.8 177.66,-84.8"/>
<text text-anchor="middle" x="101" y="-62.6" font-family="Times,serif" font-size="14.00">SettingsPageComponent</text>
</g>
<!-- SettingsPageComponent&#45;&gt;AccountPageModule -->
<g id="edge3" class="edge">
<title>SettingsPageComponent&#45;&gt;AccountPageModule</title>
<path fill="none" stroke="black" d="M101,-84.81C101,-107.29 101,-142.8 101,-142.8 101,-142.8 773.78,-142.8 773.78,-142.8"/>
<polygon fill="black" stroke="black" points="773.78,-146.3 783.78,-142.8 773.78,-139.3 773.78,-146.3"/>
</g>
<!-- AccountRoutingModule -->
<g id="node5" class="node">
<title>AccountRoutingModule</title>
<polygon fill="#8dd3c7" stroke="black" points="1735.09,-84.8 1732.09,-88.8 1711.09,-88.8 1708.09,-84.8 1582.91,-84.8 1582.91,-48.8 1735.09,-48.8 1735.09,-84.8"/>
<text text-anchor="middle" x="1659" y="-62.6" font-family="Times,serif" font-size="14.00">AccountRoutingModule</text>
</g>
<!-- AccountRoutingModule&#45;&gt;AccountPageModule -->
<g id="edge4" class="edge">
<title>AccountRoutingModule&#45;&gt;AccountPageModule</title>
<path fill="none" stroke="black" d="M1659,-84.81C1659,-107.29 1659,-142.8 1659,-142.8 1659,-142.8 928.15,-142.8 928.15,-142.8"/>
<polygon fill="black" stroke="black" points="928.15,-139.3 918.15,-142.8 928.15,-146.3 928.15,-139.3"/>
</g>
<!-- BannerOrganismModule -->
<g id="node6" class="node">
<title>BannerOrganismModule</title>
<polygon fill="#8dd3c7" stroke="black" points="1564.68,-84.8 1561.68,-88.8 1540.68,-88.8 1537.68,-84.8 1409.32,-84.8 1409.32,-48.8 1564.68,-48.8 1564.68,-84.8"/>
<text text-anchor="middle" x="1487" y="-62.6" font-family="Times,serif" font-size="14.00">BannerOrganismModule</text>
</g>
<!-- BannerOrganismModule&#45;&gt;AccountPageModule -->
<g id="edge5" class="edge">
<title>BannerOrganismModule&#45;&gt;AccountPageModule</title>
<path fill="none" stroke="black" d="M1487,-84.93C1487,-105.37 1487,-135.8 1487,-135.8 1487,-135.8 928.16,-135.8 928.16,-135.8"/>
<polygon fill="black" stroke="black" points="928.16,-132.3 918.16,-135.8 928.16,-139.3 928.16,-132.3"/>
</g>
<!-- NavigationTemplateModule -->
<g id="node7" class="node">
<title>NavigationTemplateModule</title>
<polygon fill="#8dd3c7" stroke="black" points="1391.13,-84.8 1388.13,-88.8 1367.13,-88.8 1364.13,-84.8 1216.87,-84.8 1216.87,-48.8 1391.13,-48.8 1391.13,-84.8"/>
<text text-anchor="middle" x="1304" y="-62.6" font-family="Times,serif" font-size="14.00">NavigationTemplateModule</text>
</g>
<!-- NavigationTemplateModule&#45;&gt;AccountPageModule -->
<g id="edge6" class="edge">
<title>NavigationTemplateModule&#45;&gt;AccountPageModule</title>
<path fill="none" stroke="black" d="M1304,-85.07C1304,-103.36 1304,-128.8 1304,-128.8 1304,-128.8 928.33,-128.8 928.33,-128.8"/>
<polygon fill="black" stroke="black" points="928.33,-125.3 918.33,-128.8 928.33,-132.3 928.33,-125.3"/>
</g>
<!-- ProfileHeaderOrganismModule -->
<g id="node8" class="node">
<title>ProfileHeaderOrganismModule</title>
<polygon fill="#8dd3c7" stroke="black" points="1198.77,-84.8 1195.77,-88.8 1174.77,-88.8 1171.77,-84.8 1005.23,-84.8 1005.23,-48.8 1198.77,-48.8 1198.77,-84.8"/>
<text text-anchor="middle" x="1102" y="-62.6" font-family="Times,serif" font-size="14.00">ProfileHeaderOrganismModule</text>
</g>
<!-- ProfileHeaderOrganismModule&#45;&gt;AccountPageModule -->
<g id="edge7" class="edge">
<title>ProfileHeaderOrganismModule&#45;&gt;AccountPageModule</title>
<path fill="none" stroke="black" d="M1102,-84.81C1102,-100.85 1102,-121.8 1102,-121.8 1102,-121.8 928.26,-121.8 928.26,-121.8"/>
<polygon fill="black" stroke="black" points="928.26,-118.3 918.26,-121.8 928.26,-125.3 928.26,-118.3"/>
</g>
<!-- ProfileListModule -->
<g id="node9" class="node">
<title>ProfileListModule</title>
<polygon fill="#8dd3c7" stroke="black" points="987.93,-84.8 984.93,-88.8 963.93,-88.8 960.93,-84.8 868.07,-84.8 868.07,-48.8 987.93,-48.8 987.93,-84.8"/>
<text text-anchor="middle" x="928" y="-62.6" font-family="Times,serif" font-size="14.00">ProfileListModule</text>
</g>
<!-- ProfileListModule&#45;&gt;AccountPageModule -->
<g id="edge8" class="edge">
<title>ProfileListModule&#45;&gt;AccountPageModule</title>
<path fill="none" stroke="black" d="M893.19,-84.91C893.19,-84.91 893.19,-103.79 893.19,-103.79"/>
<polygon fill="black" stroke="black" points="889.69,-103.79 893.19,-113.79 896.69,-103.79 889.69,-103.79"/>
</g>
<!-- SimpleTemplateModule -->
<g id="node10" class="node">
<title>SimpleTemplateModule</title>
<polygon fill="#8dd3c7" stroke="black" points="850.09,-84.8 847.09,-88.8 826.09,-88.8 823.09,-84.8 697.91,-84.8 697.91,-48.8 850.09,-48.8 850.09,-84.8"/>
<text text-anchor="middle" x="774" y="-62.6" font-family="Times,serif" font-size="14.00">SimpleTemplateModule</text>
</g>
<!-- SimpleTemplateModule&#45;&gt;AccountPageModule -->
<g id="edge9" class="edge">
<title>SimpleTemplateModule&#45;&gt;AccountPageModule</title>
<path fill="none" stroke="black" d="M816.97,-84.91C816.97,-84.91 816.97,-103.79 816.97,-103.79"/>
<polygon fill="black" stroke="black" points="813.47,-103.79 816.97,-113.79 820.47,-103.79 813.47,-103.79"/>
</g>
<!-- SituationFormModule -->
<g id="node11" class="node">
<title>SituationFormModule</title>
<polygon fill="#8dd3c7" stroke="black" points="680.44,-84.8 677.44,-88.8 656.44,-88.8 653.44,-84.8 539.56,-84.8 539.56,-48.8 680.44,-48.8 680.44,-84.8"/>
<text text-anchor="middle" x="610" y="-62.6" font-family="Times,serif" font-size="14.00">SituationFormModule</text>
</g>
<!-- SituationFormModule&#45;&gt;AccountPageModule -->
<g id="edge10" class="edge">
<title>SituationFormModule&#45;&gt;AccountPageModule</title>
<path fill="none" stroke="black" d="M610,-84.81C610,-100.85 610,-121.8 610,-121.8 610,-121.8 773.87,-121.8 773.87,-121.8"/>
<polygon fill="black" stroke="black" points="773.87,-125.3 783.87,-121.8 773.87,-118.3 773.87,-125.3"/>
</g>
</g>
</svg>
