<?xml version="1.0" encoding="UTF-8" standalone="no"?>
<!DOCTYPE svg PUBLIC "-//W3C//DTD SVG 1.1//EN"
 "http://www.w3.org/Graphics/SVG/1.1/DTD/svg11.dtd">
<!-- Generated by graphviz version 2.47.3 (20210619.1520)
 -->
<!-- Title: dependencies Pages: 1 -->
<svg width="460pt" height="247pt"
 viewBox="0.00 0.00 460.00 246.80" xmlns="http://www.w3.org/2000/svg" xmlns:xlink="http://www.w3.org/1999/xlink">
<g id="graph0" class="graph" transform="scale(1 1) rotate(0) translate(4 242.8)">
<title>dependencies</title>
<polygon fill="white" stroke="transparent" points="-4,4 -4,-242.8 456,-242.8 456,4 -4,4"/>
<text text-anchor="middle" x="226" y="-8.2" font-family="sans-serif" font-size="14.00">dependencies</text>
<g id="clust1" class="cluster">
<title>cluster_NavigateToDrawerModule</title>
<polygon fill="none" stroke="black" stroke-dasharray="1,5" points="8,-32.8 8,-230.8 444,-230.8 444,-32.8 8,-32.8"/>
</g>
<g id="clust5" class="cluster">
<title>cluster_NavigateToDrawerModule_exports</title>
<polygon fill="none" stroke="black" points="122,-170.8 122,-222.8 318,-222.8 318,-170.8 122,-170.8"/>
</g>
<g id="clust7" class="cluster">
<title>cluster_NavigateToDrawerModule_providers</title>
<polygon fill="none" stroke="black" points="216,-40.8 216,-92.8 436,-92.8 436,-40.8 216,-40.8"/>
</g>
<g id="clust2" class="cluster">
<title>cluster_NavigateToDrawerModule_declarations</title>
<polygon fill="none" stroke="black" points="16,-40.8 16,-92.8 208,-92.8 208,-40.8 16,-40.8"/>
</g>
<!-- NavigateToDrawerDirective -->
<g id="node1" class="node">
<title>NavigateToDrawerDirective</title>
<polygon fill="#ffffb3" stroke="black" points="200.13,-84.8 23.87,-84.8 23.87,-48.8 200.13,-48.8 200.13,-84.8"/>
<text text-anchor="middle" x="112" y="-62.6" font-family="Times,serif" font-size="14.00">NavigateToDrawerDirective</text>
</g>
<!-- NavigateToDrawerModule -->
<g id="node2" class="node">
<title>NavigateToDrawerModule</title>
<polygon fill="#8dd3c7" stroke="black" points="303.6,-149.8 300.6,-153.8 279.6,-153.8 276.6,-149.8 136.4,-149.8 136.4,-113.8 303.6,-113.8 303.6,-149.8"/>
<text text-anchor="middle" x="220" y="-127.6" font-family="Times,serif" font-size="14.00">NavigateToDrawerModule</text>
</g>
<!-- NavigateToDrawerDirective&#45;&gt;NavigateToDrawerModule -->
<g id="edge1" class="edge">
<title>NavigateToDrawerDirective&#45;&gt;NavigateToDrawerModule</title>
<path fill="none" stroke="black" d="M168.13,-84.91C168.13,-84.91 168.13,-103.79 168.13,-103.79"/>
<polygon fill="black" stroke="black" points="164.63,-103.79 168.13,-113.79 171.63,-103.79 164.63,-103.79"/>
</g>
<!-- NavigateToDrawerDirective  -->
<g id="node3" class="node">
<title>NavigateToDrawerDirective </title>
<polygon fill="#fb8072" stroke="black" points="309.63,-214.8 130.37,-214.8 130.37,-178.8 309.63,-178.8 309.63,-214.8"/>
<text text-anchor="middle" x="220" y="-192.6" font-family="Times,serif" font-size="14.00">NavigateToDrawerDirective </text>
</g>
<!-- NavigateToDrawerModule&#45;&gt;NavigateToDrawerDirective  -->
<g id="edge2" class="edge">
<title>NavigateToDrawerModule&#45;&gt;NavigateToDrawerDirective </title>
<path fill="none" stroke="black" stroke-dasharray="5,2" d="M220,-149.91C220,-149.91 220,-168.79 220,-168.79"/>
<polygon fill="black" stroke="black" points="216.5,-168.79 220,-178.79 223.5,-168.79 216.5,-168.79"/>
</g>
<!-- NavigationStateService -->
<g id="node4" class="node">
<title>NavigationStateService</title>
<ellipse fill="#fdb462" stroke="black" cx="326" cy="-66.8" rx="102.42" ry="18"/>
<text text-anchor="middle" x="326" y="-62.6" font-family="Times,serif" font-size="14.00">NavigationStateService</text>
</g>
<!-- NavigationStateService&#45;&gt;NavigateToDrawerModule -->
<g id="edge3" class="edge">
<title>NavigationStateService&#45;&gt;NavigateToDrawerModule</title>
<path fill="none" stroke="black" d="M263.79,-81.23C263.79,-81.23 263.79,-103.69 263.79,-103.69"/>
<polygon fill="black" stroke="black" points="260.29,-103.69 263.79,-113.69 267.29,-103.69 260.29,-103.69"/>
</g>
</g>
</svg>
