<?xml version="1.0" encoding="UTF-8" standalone="no"?>
<!DOCTYPE svg PUBLIC "-//W3C//DTD SVG 1.1//EN"
 "http://www.w3.org/Graphics/SVG/1.1/DTD/svg11.dtd">
<!-- Generated by graphviz version 2.47.3 (20210619.1520)
 -->
<!-- Title: dependencies Pages: 1 -->
<svg width="542pt" height="247pt"
 viewBox="0.00 0.00 542.00 246.80" xmlns="http://www.w3.org/2000/svg" xmlns:xlink="http://www.w3.org/1999/xlink">
<g id="graph0" class="graph" transform="scale(1 1) rotate(0) translate(4 242.8)">
<title>dependencies</title>
<polygon fill="white" stroke="transparent" points="-4,4 -4,-242.8 538,-242.8 538,4 -4,4"/>
<text text-anchor="middle" x="267" y="-8.2" font-family="sans-serif" font-size="14.00">dependencies</text>
<g id="clust1" class="cluster">
<title>cluster_ExpeditionInstanceCardModule</title>
<polygon fill="none" stroke="black" stroke-dasharray="1,5" points="8,-32.8 8,-230.8 526,-230.8 526,-32.8 8,-32.8"/>
</g>
<g id="clust2" class="cluster">
<title>cluster_ExpeditionInstanceCardModule_declarations</title>
<polygon fill="none" stroke="black" points="286,-40.8 286,-92.8 518,-92.8 518,-40.8 286,-40.8"/>
</g>
<g id="clust4" class="cluster">
<title>cluster_ExpeditionInstanceCardModule_imports</title>
<polygon fill="none" stroke="black" points="16,-40.8 16,-92.8 278,-92.8 278,-40.8 16,-40.8"/>
</g>
<g id="clust5" class="cluster">
<title>cluster_ExpeditionInstanceCardModule_exports</title>
<polygon fill="none" stroke="black" points="155,-170.8 155,-222.8 391,-222.8 391,-170.8 155,-170.8"/>
</g>
<!-- ExpeditionInstanceCardComponent -->
<g id="node1" class="node">
<title>ExpeditionInstanceCardComponent</title>
<polygon fill="#ffffb3" stroke="black" points="510.12,-84.8 293.88,-84.8 293.88,-48.8 510.12,-48.8 510.12,-84.8"/>
<text text-anchor="middle" x="402" y="-62.6" font-family="Times,serif" font-size="14.00">ExpeditionInstanceCardComponent</text>
</g>
<!-- ExpeditionInstanceCardModule -->
<g id="node2" class="node">
<title>ExpeditionInstanceCardModule</title>
<polygon fill="#8dd3c7" stroke="black" points="370.34,-149.8 367.34,-153.8 346.34,-153.8 343.34,-149.8 175.66,-149.8 175.66,-113.8 370.34,-113.8 370.34,-149.8"/>
<text text-anchor="middle" x="273" y="-127.6" font-family="Times,serif" font-size="14.00">ExpeditionInstanceCardModule</text>
</g>
<!-- ExpeditionInstanceCardComponent&#45;&gt;ExpeditionInstanceCardModule -->
<g id="edge1" class="edge">
<title>ExpeditionInstanceCardComponent&#45;&gt;ExpeditionInstanceCardModule</title>
<path fill="none" stroke="black" d="M332.05,-84.91C332.05,-84.91 332.05,-103.79 332.05,-103.79"/>
<polygon fill="black" stroke="black" points="328.55,-103.79 332.05,-113.79 335.55,-103.79 328.55,-103.79"/>
</g>
<!-- ExpeditionInstanceCardComponent  -->
<g id="node4" class="node">
<title>ExpeditionInstanceCardComponent </title>
<polygon fill="#fb8072" stroke="black" points="383.12,-214.8 162.88,-214.8 162.88,-178.8 383.12,-178.8 383.12,-214.8"/>
<text text-anchor="middle" x="273" y="-192.6" font-family="Times,serif" font-size="14.00">ExpeditionInstanceCardComponent </text>
</g>
<!-- ExpeditionInstanceCardModule&#45;&gt;ExpeditionInstanceCardComponent  -->
<g id="edge3" class="edge">
<title>ExpeditionInstanceCardModule&#45;&gt;ExpeditionInstanceCardComponent </title>
<path fill="none" stroke="black" stroke-dasharray="5,2" d="M273,-149.91C273,-149.91 273,-168.79 273,-168.79"/>
<polygon fill="black" stroke="black" points="269.5,-168.79 273,-178.79 276.5,-168.79 269.5,-168.79"/>
</g>
<!-- ExpeditionInstanceDetailsDialogModule -->
<g id="node3" class="node">
<title>ExpeditionInstanceDetailsDialogModule</title>
<polygon fill="#8dd3c7" stroke="black" points="269.88,-84.8 266.88,-88.8 245.88,-88.8 242.88,-84.8 24.12,-84.8 24.12,-48.8 269.88,-48.8 269.88,-84.8"/>
<text text-anchor="middle" x="147" y="-62.6" font-family="Times,serif" font-size="14.00">ExpeditionInstanceDetailsDialogModule</text>
</g>
<!-- ExpeditionInstanceDetailsDialogModule&#45;&gt;ExpeditionInstanceCardModule -->
<g id="edge2" class="edge">
<title>ExpeditionInstanceDetailsDialogModule&#45;&gt;ExpeditionInstanceCardModule</title>
<path fill="none" stroke="black" d="M222.64,-84.91C222.64,-84.91 222.64,-103.79 222.64,-103.79"/>
<polygon fill="black" stroke="black" points="219.14,-103.79 222.64,-113.79 226.14,-103.79 219.14,-103.79"/>
</g>
</g>
</svg>
