<?xml version="1.0" encoding="UTF-8" standalone="no"?>
<!DOCTYPE svg PUBLIC "-//W3C//DTD SVG 1.1//EN"
 "http://www.w3.org/Graphics/SVG/1.1/DTD/svg11.dtd">
<!-- Generated by graphviz version 2.47.3 (20210619.1520)
 -->
<!-- Title: dependencies Pages: 1 -->
<svg width="392pt" height="247pt"
 viewBox="0.00 0.00 392.00 246.80" xmlns="http://www.w3.org/2000/svg" xmlns:xlink="http://www.w3.org/1999/xlink">
<g id="graph0" class="graph" transform="scale(1 1) rotate(0) translate(4 242.8)">
<title>dependencies</title>
<polygon fill="white" stroke="transparent" points="-4,4 -4,-242.8 388,-242.8 388,4 -4,4"/>
<text text-anchor="middle" x="192" y="-8.2" font-family="sans-serif" font-size="14.00">dependencies</text>
<g id="clust1" class="cluster">
<title>cluster_PreviewSectionModule</title>
<polygon fill="none" stroke="black" stroke-dasharray="1,5" points="8,-32.8 8,-230.8 376,-230.8 376,-32.8 8,-32.8"/>
</g>
<g id="clust4" class="cluster">
<title>cluster_PreviewSectionModule_imports</title>
<polygon fill="none" stroke="black" points="210,-40.8 210,-92.8 368,-92.8 368,-40.8 210,-40.8"/>
</g>
<g id="clust5" class="cluster">
<title>cluster_PreviewSectionModule_exports</title>
<polygon fill="none" stroke="black" points="98,-170.8 98,-222.8 286,-222.8 286,-170.8 98,-170.8"/>
</g>
<g id="clust2" class="cluster">
<title>cluster_PreviewSectionModule_declarations</title>
<polygon fill="none" stroke="black" points="16,-40.8 16,-92.8 202,-92.8 202,-40.8 16,-40.8"/>
</g>
<!-- PreviewSectionComponent -->
<g id="node1" class="node">
<title>PreviewSectionComponent</title>
<polygon fill="#ffffb3" stroke="black" points="193.7,-84.8 24.3,-84.8 24.3,-48.8 193.7,-48.8 193.7,-84.8"/>
<text text-anchor="middle" x="109" y="-62.6" font-family="Times,serif" font-size="14.00">PreviewSectionComponent</text>
</g>
<!-- PreviewSectionModule -->
<g id="node2" class="node">
<title>PreviewSectionModule</title>
<polygon fill="#8dd3c7" stroke="black" points="265.91,-149.8 262.91,-153.8 241.91,-153.8 238.91,-149.8 118.09,-149.8 118.09,-113.8 265.91,-113.8 265.91,-149.8"/>
<text text-anchor="middle" x="192" y="-127.6" font-family="Times,serif" font-size="14.00">PreviewSectionModule</text>
</g>
<!-- PreviewSectionComponent&#45;&gt;PreviewSectionModule -->
<g id="edge1" class="edge">
<title>PreviewSectionComponent&#45;&gt;PreviewSectionModule</title>
<path fill="none" stroke="black" d="M155.95,-84.91C155.95,-84.91 155.95,-103.79 155.95,-103.79"/>
<polygon fill="black" stroke="black" points="152.45,-103.79 155.95,-113.79 159.45,-103.79 152.45,-103.79"/>
</g>
<!-- PreviewSectionComponent  -->
<g id="node4" class="node">
<title>PreviewSectionComponent </title>
<polygon fill="#fb8072" stroke="black" points="278.2,-214.8 105.8,-214.8 105.8,-178.8 278.2,-178.8 278.2,-214.8"/>
<text text-anchor="middle" x="192" y="-192.6" font-family="Times,serif" font-size="14.00">PreviewSectionComponent </text>
</g>
<!-- PreviewSectionModule&#45;&gt;PreviewSectionComponent  -->
<g id="edge3" class="edge">
<title>PreviewSectionModule&#45;&gt;PreviewSectionComponent </title>
<path fill="none" stroke="black" stroke-dasharray="5,2" d="M192,-149.91C192,-149.91 192,-168.79 192,-168.79"/>
<polygon fill="black" stroke="black" points="188.5,-168.79 192,-178.79 195.5,-168.79 188.5,-168.79"/>
</g>
<!-- ScrollWrapperModule -->
<g id="node3" class="node">
<title>ScrollWrapperModule</title>
<polygon fill="#8dd3c7" stroke="black" points="359.95,-84.8 356.95,-88.8 335.95,-88.8 332.95,-84.8 218.05,-84.8 218.05,-48.8 359.95,-48.8 359.95,-84.8"/>
<text text-anchor="middle" x="289" y="-62.6" font-family="Times,serif" font-size="14.00">ScrollWrapperModule</text>
</g>
<!-- ScrollWrapperModule&#45;&gt;PreviewSectionModule -->
<g id="edge2" class="edge">
<title>ScrollWrapperModule&#45;&gt;PreviewSectionModule</title>
<path fill="none" stroke="black" d="M241.86,-84.91C241.86,-84.91 241.86,-103.79 241.86,-103.79"/>
<polygon fill="black" stroke="black" points="238.36,-103.79 241.86,-113.79 245.36,-103.79 238.36,-103.79"/>
</g>
</g>
</svg>
