<?xml version="1.0" encoding="UTF-8" standalone="no"?>
<!DOCTYPE svg PUBLIC "-//W3C//DTD SVG 1.1//EN"
 "http://www.w3.org/Graphics/SVG/1.1/DTD/svg11.dtd">
<!-- Generated by graphviz version 2.47.3 (20210619.1520)
 -->
<!-- Title: dependencies Pages: 1 -->
<svg width="462pt" height="247pt"
 viewBox="0.00 0.00 462.00 246.80" xmlns="http://www.w3.org/2000/svg" xmlns:xlink="http://www.w3.org/1999/xlink">
<g id="graph0" class="graph" transform="scale(1 1) rotate(0) translate(4 242.8)">
<title>dependencies</title>
<polygon fill="white" stroke="transparent" points="-4,4 -4,-242.8 458,-242.8 458,4 -4,4"/>
<text text-anchor="middle" x="227" y="-8.2" font-family="sans-serif" font-size="14.00">dependencies</text>
<g id="clust1" class="cluster">
<title>cluster_ExpeditionInstanceDetailsModule</title>
<polygon fill="none" stroke="black" stroke-dasharray="1,5" points="8,-32.8 8,-230.8 446,-230.8 446,-32.8 8,-32.8"/>
</g>
<g id="clust2" class="cluster">
<title>cluster_ExpeditionInstanceDetailsModule_declarations</title>
<polygon fill="none" stroke="black" points="192,-40.8 192,-92.8 438,-92.8 438,-40.8 192,-40.8"/>
</g>
<g id="clust5" class="cluster">
<title>cluster_ExpeditionInstanceDetailsModule_exports</title>
<polygon fill="none" stroke="black" points="103,-170.8 103,-222.8 351,-222.8 351,-170.8 103,-170.8"/>
</g>
<g id="clust4" class="cluster">
<title>cluster_ExpeditionInstanceDetailsModule_imports</title>
<polygon fill="none" stroke="black" points="16,-40.8 16,-92.8 184,-92.8 184,-40.8 16,-40.8"/>
</g>
<!-- ExpeditionInstanceDetailsComponent -->
<g id="node1" class="node">
<title>ExpeditionInstanceDetailsComponent</title>
<polygon fill="#ffffb3" stroke="black" points="429.56,-84.8 200.44,-84.8 200.44,-48.8 429.56,-48.8 429.56,-84.8"/>
<text text-anchor="middle" x="315" y="-62.6" font-family="Times,serif" font-size="14.00">ExpeditionInstanceDetailsComponent</text>
</g>
<!-- ExpeditionInstanceDetailsModule -->
<g id="node2" class="node">
<title>ExpeditionInstanceDetailsModule</title>
<polygon fill="#8dd3c7" stroke="black" points="330.78,-149.8 327.78,-153.8 306.78,-153.8 303.78,-149.8 123.22,-149.8 123.22,-113.8 330.78,-113.8 330.78,-149.8"/>
<text text-anchor="middle" x="227" y="-127.6" font-family="Times,serif" font-size="14.00">ExpeditionInstanceDetailsModule</text>
</g>
<!-- ExpeditionInstanceDetailsComponent&#45;&gt;ExpeditionInstanceDetailsModule -->
<g id="edge1" class="edge">
<title>ExpeditionInstanceDetailsComponent&#45;&gt;ExpeditionInstanceDetailsModule</title>
<path fill="none" stroke="black" d="M265.55,-84.91C265.55,-84.91 265.55,-103.79 265.55,-103.79"/>
<polygon fill="black" stroke="black" points="262.05,-103.79 265.55,-113.79 269.05,-103.79 262.05,-103.79"/>
</g>
<!-- ExpeditionInstanceDetailsComponent  -->
<g id="node4" class="node">
<title>ExpeditionInstanceDetailsComponent </title>
<polygon fill="#fb8072" stroke="black" points="343.06,-214.8 110.94,-214.8 110.94,-178.8 343.06,-178.8 343.06,-214.8"/>
<text text-anchor="middle" x="227" y="-192.6" font-family="Times,serif" font-size="14.00">ExpeditionInstanceDetailsComponent </text>
</g>
<!-- ExpeditionInstanceDetailsModule&#45;&gt;ExpeditionInstanceDetailsComponent  -->
<g id="edge3" class="edge">
<title>ExpeditionInstanceDetailsModule&#45;&gt;ExpeditionInstanceDetailsComponent </title>
<path fill="none" stroke="black" stroke-dasharray="5,2" d="M227,-149.91C227,-149.91 227,-168.79 227,-168.79"/>
<polygon fill="black" stroke="black" points="223.5,-168.79 227,-178.79 230.5,-168.79 223.5,-168.79"/>
</g>
<!-- ExpeditionStepsModule -->
<g id="node3" class="node">
<title>ExpeditionStepsModule</title>
<polygon fill="#8dd3c7" stroke="black" points="175.82,-84.8 172.82,-88.8 151.82,-88.8 148.82,-84.8 24.18,-84.8 24.18,-48.8 175.82,-48.8 175.82,-84.8"/>
<text text-anchor="middle" x="100" y="-62.6" font-family="Times,serif" font-size="14.00">ExpeditionStepsModule</text>
</g>
<!-- ExpeditionStepsModule&#45;&gt;ExpeditionInstanceDetailsModule -->
<g id="edge2" class="edge">
<title>ExpeditionStepsModule&#45;&gt;ExpeditionInstanceDetailsModule</title>
<path fill="none" stroke="black" d="M149.51,-84.91C149.51,-84.91 149.51,-103.79 149.51,-103.79"/>
<polygon fill="black" stroke="black" points="146.01,-103.79 149.51,-113.79 153.01,-103.79 146.01,-103.79"/>
</g>
</g>
</svg>
