<?xml version="1.0" encoding="UTF-8" standalone="no"?>
<!DOCTYPE svg PUBLIC "-//W3C//DTD SVG 1.1//EN"
 "http://www.w3.org/Graphics/SVG/1.1/DTD/svg11.dtd">
<!-- Generated by graphviz version 2.47.3 (20210619.1520)
 -->
<!-- Title: dependencies Pages: 1 -->
<svg width="1444pt" height="247pt"
 viewBox="0.00 0.00 1444.00 246.80" xmlns="http://www.w3.org/2000/svg" xmlns:xlink="http://www.w3.org/1999/xlink">
<g id="graph0" class="graph" transform="scale(1 1) rotate(0) translate(4 242.8)">
<title>dependencies</title>
<polygon fill="white" stroke="transparent" points="-4,4 -4,-242.8 1440,-242.8 1440,4 -4,4"/>
<text text-anchor="middle" x="718" y="-8.2" font-family="sans-serif" font-size="14.00">dependencies</text>
<g id="clust1" class="cluster">
<title>cluster_EventsModule</title>
<polygon fill="none" stroke="black" stroke-dasharray="1,5" points="8,-32.8 8,-230.8 1428,-230.8 1428,-32.8 8,-32.8"/>
</g>
<g id="clust6" class="cluster">
<title>cluster_EventsModule_exports</title>
<polygon fill="none" stroke="black" points="532,-170.8 532,-222.8 880,-222.8 880,-170.8 532,-170.8"/>
</g>
<g id="clust2" class="cluster">
<title>cluster_EventsModule_declarations</title>
<polygon fill="none" stroke="black" points="1078,-40.8 1078,-92.8 1420,-92.8 1420,-40.8 1078,-40.8"/>
</g>
<g id="clust5" class="cluster">
<title>cluster_EventsModule_imports</title>
<polygon fill="none" stroke="black" points="259,-40.8 259,-92.8 1070,-92.8 1070,-40.8 259,-40.8"/>
</g>
<g id="clust8" class="cluster">
<title>cluster_EventsModule_providers</title>
<polygon fill="none" stroke="black" points="16,-40.8 16,-92.8 251,-92.8 251,-40.8 16,-40.8"/>
</g>
<!-- EventsFullComponent -->
<g id="node1" class="node">
<title>EventsFullComponent</title>
<polygon fill="#ffffb3" stroke="black" points="1412,-84.8 1270,-84.8 1270,-48.8 1412,-48.8 1412,-84.8"/>
<text text-anchor="middle" x="1341" y="-62.6" font-family="Times,serif" font-size="14.00">EventsFullComponent</text>
</g>
<!-- EventsModule -->
<g id="node3" class="node">
<title>EventsModule</title>
<polygon fill="#8dd3c7" stroke="black" points="759.65,-149.8 756.65,-153.8 735.65,-153.8 732.65,-149.8 662.35,-149.8 662.35,-113.8 759.65,-113.8 759.65,-149.8"/>
<text text-anchor="middle" x="711" y="-127.6" font-family="Times,serif" font-size="14.00">EventsModule</text>
</g>
<!-- EventsFullComponent&#45;&gt;EventsModule -->
<g id="edge1" class="edge">
<title>EventsFullComponent&#45;&gt;EventsModule</title>
<path fill="none" stroke="black" d="M1341,-84.81C1341,-107.29 1341,-142.8 1341,-142.8 1341,-142.8 769.91,-142.8 769.91,-142.8"/>
<polygon fill="black" stroke="black" points="769.91,-139.3 759.91,-142.8 769.91,-146.3 769.91,-139.3"/>
</g>
<!-- EventsPreviewComponent -->
<g id="node2" class="node">
<title>EventsPreviewComponent</title>
<polygon fill="#ffffb3" stroke="black" points="1251.8,-84.8 1086.2,-84.8 1086.2,-48.8 1251.8,-48.8 1251.8,-84.8"/>
<text text-anchor="middle" x="1169" y="-62.6" font-family="Times,serif" font-size="14.00">EventsPreviewComponent</text>
</g>
<!-- EventsPreviewComponent&#45;&gt;EventsModule -->
<g id="edge2" class="edge">
<title>EventsPreviewComponent&#45;&gt;EventsModule</title>
<path fill="none" stroke="black" d="M1169,-84.93C1169,-105.37 1169,-135.8 1169,-135.8 1169,-135.8 770.01,-135.8 770.01,-135.8"/>
<polygon fill="black" stroke="black" points="770.01,-132.3 760.01,-135.8 770.01,-139.3 770.01,-132.3"/>
</g>
<!-- EventsFullComponent  -->
<g id="node10" class="node">
<title>EventsFullComponent </title>
<polygon fill="#fb8072" stroke="black" points="872,-214.8 726,-214.8 726,-178.8 872,-178.8 872,-214.8"/>
<text text-anchor="middle" x="799" y="-192.6" font-family="Times,serif" font-size="14.00">EventsFullComponent </text>
</g>
<!-- EventsModule&#45;&gt;EventsFullComponent  -->
<g id="edge9" class="edge">
<title>EventsModule&#45;&gt;EventsFullComponent </title>
<path fill="none" stroke="black" stroke-dasharray="5,2" d="M743.04,-149.91C743.04,-149.91 743.04,-168.79 743.04,-168.79"/>
<polygon fill="black" stroke="black" points="739.54,-168.79 743.04,-178.79 746.54,-168.79 739.54,-168.79"/>
</g>
<!-- EventsPreviewComponent  -->
<g id="node11" class="node">
<title>EventsPreviewComponent </title>
<polygon fill="#fb8072" stroke="black" points="708.3,-214.8 539.7,-214.8 539.7,-178.8 708.3,-178.8 708.3,-214.8"/>
<text text-anchor="middle" x="624" y="-192.6" font-family="Times,serif" font-size="14.00">EventsPreviewComponent </text>
</g>
<!-- EventsModule&#45;&gt;EventsPreviewComponent  -->
<g id="edge10" class="edge">
<title>EventsModule&#45;&gt;EventsPreviewComponent </title>
<path fill="none" stroke="black" stroke-dasharray="5,2" d="M685.29,-149.91C685.29,-149.91 685.29,-168.79 685.29,-168.79"/>
<polygon fill="black" stroke="black" points="681.79,-168.79 685.29,-178.79 688.79,-168.79 681.79,-168.79"/>
</g>
<!-- EventModule -->
<g id="node4" class="node">
<title>EventModule</title>
<polygon fill="#8dd3c7" stroke="black" points="1062.21,-84.8 1059.21,-88.8 1038.21,-88.8 1035.21,-84.8 969.79,-84.8 969.79,-48.8 1062.21,-48.8 1062.21,-84.8"/>
<text text-anchor="middle" x="1016" y="-62.6" font-family="Times,serif" font-size="14.00">EventModule</text>
</g>
<!-- EventModule&#45;&gt;EventsModule -->
<g id="edge3" class="edge">
<title>EventModule&#45;&gt;EventsModule</title>
<path fill="none" stroke="black" d="M1016,-85.07C1016,-103.36 1016,-128.8 1016,-128.8 1016,-128.8 769.67,-128.8 769.67,-128.8"/>
<polygon fill="black" stroke="black" points="769.67,-125.3 759.67,-128.8 769.67,-132.3 769.67,-125.3"/>
</g>
<!-- FiltersModule -->
<g id="node5" class="node">
<title>FiltersModule</title>
<polygon fill="#8dd3c7" stroke="black" points="951.82,-84.8 948.82,-88.8 927.82,-88.8 924.82,-84.8 856.18,-84.8 856.18,-48.8 951.82,-48.8 951.82,-84.8"/>
<text text-anchor="middle" x="904" y="-62.6" font-family="Times,serif" font-size="14.00">FiltersModule</text>
</g>
<!-- FiltersModule&#45;&gt;EventsModule -->
<g id="edge4" class="edge">
<title>FiltersModule&#45;&gt;EventsModule</title>
<path fill="none" stroke="black" d="M864.04,-84.81C864.04,-100.85 864.04,-121.8 864.04,-121.8 864.04,-121.8 769.84,-121.8 769.84,-121.8"/>
<polygon fill="black" stroke="black" points="769.84,-118.3 759.84,-121.8 769.84,-125.3 769.84,-118.3"/>
</g>
<!-- NoRecordsModule -->
<g id="node6" class="node">
<title>NoRecordsModule</title>
<polygon fill="#8dd3c7" stroke="black" points="838.03,-84.8 835.03,-88.8 814.03,-88.8 811.03,-84.8 715.97,-84.8 715.97,-48.8 838.03,-48.8 838.03,-84.8"/>
<text text-anchor="middle" x="777" y="-62.6" font-family="Times,serif" font-size="14.00">NoRecordsModule</text>
</g>
<!-- NoRecordsModule&#45;&gt;EventsModule -->
<g id="edge5" class="edge">
<title>NoRecordsModule&#45;&gt;EventsModule</title>
<path fill="none" stroke="black" d="M737.78,-84.91C737.78,-84.91 737.78,-103.79 737.78,-103.79"/>
<polygon fill="black" stroke="black" points="734.28,-103.79 737.78,-113.79 741.28,-103.79 734.28,-103.79"/>
</g>
<!-- PoiCardModule -->
<g id="node7" class="node">
<title>PoiCardModule</title>
<polygon fill="#8dd3c7" stroke="black" points="697.94,-84.8 694.94,-88.8 673.94,-88.8 670.94,-84.8 592.06,-84.8 592.06,-48.8 697.94,-48.8 697.94,-84.8"/>
<text text-anchor="middle" x="645" y="-62.6" font-family="Times,serif" font-size="14.00">PoiCardModule</text>
</g>
<!-- PoiCardModule&#45;&gt;EventsModule -->
<g id="edge6" class="edge">
<title>PoiCardModule&#45;&gt;EventsModule</title>
<path fill="none" stroke="black" d="M679.95,-84.91C679.95,-84.91 679.95,-103.79 679.95,-103.79"/>
<polygon fill="black" stroke="black" points="676.45,-103.79 679.95,-113.79 683.45,-103.79 676.45,-103.79"/>
</g>
<!-- PreviewSectionModule -->
<g id="node8" class="node">
<title>PreviewSectionModule</title>
<polygon fill="#8dd3c7" stroke="black" points="574.91,-84.8 571.91,-88.8 550.91,-88.8 547.91,-84.8 427.09,-84.8 427.09,-48.8 574.91,-48.8 574.91,-84.8"/>
<text text-anchor="middle" x="501" y="-62.6" font-family="Times,serif" font-size="14.00">PreviewSectionModule</text>
</g>
<!-- PreviewSectionModule&#45;&gt;EventsModule -->
<g id="edge7" class="edge">
<title>PreviewSectionModule&#45;&gt;EventsModule</title>
<path fill="none" stroke="black" d="M557.15,-84.81C557.15,-100.85 557.15,-121.8 557.15,-121.8 557.15,-121.8 652.32,-121.8 652.32,-121.8"/>
<polygon fill="black" stroke="black" points="652.32,-125.3 662.32,-121.8 652.32,-118.3 652.32,-125.3"/>
</g>
<!-- ScrollWrapperModule -->
<g id="node9" class="node">
<title>ScrollWrapperModule</title>
<polygon fill="#8dd3c7" stroke="black" points="408.95,-84.8 405.95,-88.8 384.95,-88.8 381.95,-84.8 267.05,-84.8 267.05,-48.8 408.95,-48.8 408.95,-84.8"/>
<text text-anchor="middle" x="338" y="-62.6" font-family="Times,serif" font-size="14.00">ScrollWrapperModule</text>
</g>
<!-- ScrollWrapperModule&#45;&gt;EventsModule -->
<g id="edge8" class="edge">
<title>ScrollWrapperModule&#45;&gt;EventsModule</title>
<path fill="none" stroke="black" d="M338,-85.07C338,-103.36 338,-128.8 338,-128.8 338,-128.8 652.24,-128.8 652.24,-128.8"/>
<polygon fill="black" stroke="black" points="652.24,-132.3 662.24,-128.8 652.24,-125.3 652.24,-132.3"/>
</g>
<!-- PoiClient -->
<g id="node12" class="node">
<title>PoiClient</title>
<ellipse fill="#fdb462" stroke="black" cx="195" cy="-66.8" rx="47.55" ry="18"/>
<text text-anchor="middle" x="195" y="-62.6" font-family="Times,serif" font-size="14.00">PoiClient</text>
</g>
<!-- PoiClient&#45;&gt;EventsModule -->
<g id="edge11" class="edge">
<title>PoiClient&#45;&gt;EventsModule</title>
<path fill="none" stroke="black" d="M195,-84.93C195,-105.37 195,-135.8 195,-135.8 195,-135.8 651.99,-135.8 651.99,-135.8"/>
<polygon fill="black" stroke="black" points="651.99,-139.3 661.99,-135.8 651.99,-132.3 651.99,-139.3"/>
</g>
<!-- PoiService -->
<g id="node13" class="node">
<title>PoiService</title>
<ellipse fill="#fdb462" stroke="black" cx="77" cy="-66.8" rx="52.74" ry="18"/>
<text text-anchor="middle" x="77" y="-62.6" font-family="Times,serif" font-size="14.00">PoiService</text>
</g>
<!-- PoiService&#45;&gt;EventsModule -->
<g id="edge12" class="edge">
<title>PoiService&#45;&gt;EventsModule</title>
<path fill="none" stroke="black" d="M77,-84.81C77,-107.29 77,-142.8 77,-142.8 77,-142.8 652.3,-142.8 652.3,-142.8"/>
<polygon fill="black" stroke="black" points="652.3,-146.3 662.3,-142.8 652.3,-139.3 652.3,-146.3"/>
</g>
</g>
</svg>
