<?xml version="1.0" encoding="UTF-8" standalone="no"?>
<!DOCTYPE svg PUBLIC "-//W3C//DTD SVG 1.1//EN"
 "http://www.w3.org/Graphics/SVG/1.1/DTD/svg11.dtd">
<!-- Generated by graphviz version 2.47.3 (20210619.1520)
 -->
<!-- Title: dependencies Pages: 1 -->
<svg width="1060pt" height="174pt"
 viewBox="0.00 0.00 1060.00 173.80" xmlns="http://www.w3.org/2000/svg" xmlns:xlink="http://www.w3.org/1999/xlink">
<g id="graph0" class="graph" transform="scale(1 1) rotate(0) translate(4 169.8)">
<title>dependencies</title>
<polygon fill="white" stroke="transparent" points="-4,4 -4,-169.8 1056,-169.8 1056,4 -4,4"/>
<text text-anchor="middle" x="526" y="-8.2" font-family="sans-serif" font-size="14.00">dependencies</text>
<g id="clust1" class="cluster">
<title>cluster_RoadmapsPageModule</title>
<polygon fill="none" stroke="black" stroke-dasharray="1,5" points="8,-32.8 8,-157.8 1044,-157.8 1044,-32.8 8,-32.8"/>
</g>
<g id="clust7" class="cluster">
<title>cluster_RoadmapsPageModule_providers</title>
<polygon fill="none" stroke="black" points="876,-40.8 876,-92.8 1036,-92.8 1036,-40.8 876,-40.8"/>
</g>
<g id="clust4" class="cluster">
<title>cluster_RoadmapsPageModule_imports</title>
<polygon fill="none" stroke="black" points="208,-40.8 208,-92.8 868,-92.8 868,-40.8 208,-40.8"/>
</g>
<g id="clust2" class="cluster">
<title>cluster_RoadmapsPageModule_declarations</title>
<polygon fill="none" stroke="black" points="16,-40.8 16,-92.8 200,-92.8 200,-40.8 16,-40.8"/>
</g>
<!-- RoadmapsPageComponent -->
<g id="node1" class="node">
<title>RoadmapsPageComponent</title>
<polygon fill="#ffffb3" stroke="black" points="191.65,-84.8 24.35,-84.8 24.35,-48.8 191.65,-48.8 191.65,-84.8"/>
<text text-anchor="middle" x="108" y="-62.6" font-family="Times,serif" font-size="14.00">RoadmapsPageComponent</text>
</g>
<!-- RoadmapsPageModule -->
<g id="node2" class="node">
<title>RoadmapsPageModule</title>
<polygon fill="#8dd3c7" stroke="black" points="621.86,-149.8 618.86,-153.8 597.86,-153.8 594.86,-149.8 476.14,-149.8 476.14,-113.8 621.86,-113.8 621.86,-149.8"/>
<text text-anchor="middle" x="549" y="-127.6" font-family="Times,serif" font-size="14.00">RoadmapsPageModule</text>
</g>
<!-- RoadmapsPageComponent&#45;&gt;RoadmapsPageModule -->
<g id="edge1" class="edge">
<title>RoadmapsPageComponent&#45;&gt;RoadmapsPageModule</title>
<path fill="none" stroke="black" d="M108,-85.08C108,-106.12 108,-137.8 108,-137.8 108,-137.8 465.68,-137.8 465.68,-137.8"/>
<polygon fill="black" stroke="black" points="465.68,-141.3 475.68,-137.8 465.68,-134.3 465.68,-141.3"/>
</g>
<!-- EmptySectionModule -->
<g id="node3" class="node">
<title>EmptySectionModule</title>
<polygon fill="#8dd3c7" stroke="black" points="860.38,-84.8 857.38,-88.8 836.38,-88.8 833.38,-84.8 721.62,-84.8 721.62,-48.8 860.38,-48.8 860.38,-84.8"/>
<text text-anchor="middle" x="791" y="-62.6" font-family="Times,serif" font-size="14.00">EmptySectionModule</text>
</g>
<!-- EmptySectionModule&#45;&gt;RoadmapsPageModule -->
<g id="edge2" class="edge">
<title>EmptySectionModule&#45;&gt;RoadmapsPageModule</title>
<path fill="none" stroke="black" d="M791,-84.82C791,-102.17 791,-125.8 791,-125.8 791,-125.8 631.94,-125.8 631.94,-125.8"/>
<polygon fill="black" stroke="black" points="631.94,-122.3 621.94,-125.8 631.94,-129.3 631.94,-122.3"/>
</g>
<!-- ItineraryCardModule -->
<g id="node4" class="node">
<title>ItineraryCardModule</title>
<polygon fill="#8dd3c7" stroke="black" points="703.45,-84.8 700.45,-88.8 679.45,-88.8 676.45,-84.8 568.55,-84.8 568.55,-48.8 703.45,-48.8 703.45,-84.8"/>
<text text-anchor="middle" x="636" y="-62.6" font-family="Times,serif" font-size="14.00">ItineraryCardModule</text>
</g>
<!-- ItineraryCardModule&#45;&gt;RoadmapsPageModule -->
<g id="edge3" class="edge">
<title>ItineraryCardModule&#45;&gt;RoadmapsPageModule</title>
<path fill="none" stroke="black" d="M595.23,-84.91C595.23,-84.91 595.23,-103.79 595.23,-103.79"/>
<polygon fill="black" stroke="black" points="591.73,-103.79 595.23,-113.79 598.73,-103.79 591.73,-103.79"/>
</g>
<!-- NavigationTemplateModule -->
<g id="node5" class="node">
<title>NavigationTemplateModule</title>
<polygon fill="#8dd3c7" stroke="black" points="550.13,-84.8 547.13,-88.8 526.13,-88.8 523.13,-84.8 375.87,-84.8 375.87,-48.8 550.13,-48.8 550.13,-84.8"/>
<text text-anchor="middle" x="463" y="-62.6" font-family="Times,serif" font-size="14.00">NavigationTemplateModule</text>
</g>
<!-- NavigationTemplateModule&#45;&gt;RoadmapsPageModule -->
<g id="edge4" class="edge">
<title>NavigationTemplateModule&#45;&gt;RoadmapsPageModule</title>
<path fill="none" stroke="black" d="M513.19,-84.91C513.19,-84.91 513.19,-103.79 513.19,-103.79"/>
<polygon fill="black" stroke="black" points="509.69,-103.79 513.19,-113.79 516.69,-103.79 509.69,-103.79"/>
</g>
<!-- ScrollWrapperModule -->
<g id="node6" class="node">
<title>ScrollWrapperModule</title>
<polygon fill="#8dd3c7" stroke="black" points="357.95,-84.8 354.95,-88.8 333.95,-88.8 330.95,-84.8 216.05,-84.8 216.05,-48.8 357.95,-48.8 357.95,-84.8"/>
<text text-anchor="middle" x="287" y="-62.6" font-family="Times,serif" font-size="14.00">ScrollWrapperModule</text>
</g>
<!-- ScrollWrapperModule&#45;&gt;RoadmapsPageModule -->
<g id="edge5" class="edge">
<title>ScrollWrapperModule&#45;&gt;RoadmapsPageModule</title>
<path fill="none" stroke="black" d="M287,-84.82C287,-102.17 287,-125.8 287,-125.8 287,-125.8 466.02,-125.8 466.02,-125.8"/>
<polygon fill="black" stroke="black" points="466.02,-129.3 476.02,-125.8 466.02,-122.3 466.02,-129.3"/>
</g>
<!-- InstanceService -->
<g id="node7" class="node">
<title>InstanceService</title>
<ellipse fill="#fdb462" stroke="black" cx="956" cy="-66.8" rx="72.33" ry="18"/>
<text text-anchor="middle" x="956" y="-62.6" font-family="Times,serif" font-size="14.00">InstanceService</text>
</g>
<!-- InstanceService&#45;&gt;RoadmapsPageModule -->
<g id="edge6" class="edge">
<title>InstanceService&#45;&gt;RoadmapsPageModule</title>
<path fill="none" stroke="black" d="M956,-85.08C956,-106.12 956,-137.8 956,-137.8 956,-137.8 632.23,-137.8 632.23,-137.8"/>
<polygon fill="black" stroke="black" points="632.23,-134.3 622.23,-137.8 632.23,-141.3 632.23,-134.3"/>
</g>
</g>
</svg>
