<?xml version="1.0" encoding="UTF-8" standalone="no"?>
<!DOCTYPE svg PUBLIC "-//W3C//DTD SVG 1.1//EN"
 "http://www.w3.org/Graphics/SVG/1.1/DTD/svg11.dtd">
<!-- Generated by graphviz version 2.47.3 (20210619.1520)
 -->
<!-- Title: dependencies Pages: 1 -->
<svg width="384pt" height="174pt"
 viewBox="0.00 0.00 384.00 173.80" xmlns="http://www.w3.org/2000/svg" xmlns:xlink="http://www.w3.org/1999/xlink">
<g id="graph0" class="graph" transform="scale(1 1) rotate(0) translate(4 169.8)">
<title>dependencies</title>
<polygon fill="white" stroke="transparent" points="-4,4 -4,-169.8 380,-169.8 380,4 -4,4"/>
<text text-anchor="middle" x="188" y="-8.2" font-family="sans-serif" font-size="14.00">dependencies</text>
<g id="clust1" class="cluster">
<title>cluster_RegionInfoDialogModule</title>
<polygon fill="none" stroke="black" stroke-dasharray="1,5" points="8,-32.8 8,-157.8 368,-157.8 368,-32.8 8,-32.8"/>
</g>
<g id="clust4" class="cluster">
<title>cluster_RegionInfoDialogModule_imports</title>
<polygon fill="none" stroke="black" points="224,-40.8 224,-92.8 360,-92.8 360,-40.8 224,-40.8"/>
</g>
<g id="clust2" class="cluster">
<title>cluster_RegionInfoDialogModule_declarations</title>
<polygon fill="none" stroke="black" points="16,-40.8 16,-92.8 216,-92.8 216,-40.8 16,-40.8"/>
</g>
<!-- RegionInfoDialogComponent -->
<g id="node1" class="node">
<title>RegionInfoDialogComponent</title>
<polygon fill="#ffffb3" stroke="black" points="207.7,-84.8 24.3,-84.8 24.3,-48.8 207.7,-48.8 207.7,-84.8"/>
<text text-anchor="middle" x="116" y="-62.6" font-family="Times,serif" font-size="14.00">RegionInfoDialogComponent</text>
</g>
<!-- RegionInfoDialogModule -->
<g id="node2" class="node">
<title>RegionInfoDialogModule</title>
<polygon fill="#8dd3c7" stroke="black" points="277.92,-149.8 274.92,-153.8 253.92,-153.8 250.92,-149.8 116.08,-149.8 116.08,-113.8 277.92,-113.8 277.92,-149.8"/>
<text text-anchor="middle" x="197" y="-127.6" font-family="Times,serif" font-size="14.00">RegionInfoDialogModule</text>
</g>
<!-- RegionInfoDialogComponent&#45;&gt;RegionInfoDialogModule -->
<g id="edge1" class="edge">
<title>RegionInfoDialogComponent&#45;&gt;RegionInfoDialogModule</title>
<path fill="none" stroke="black" d="M161.95,-84.91C161.95,-84.91 161.95,-103.79 161.95,-103.79"/>
<polygon fill="black" stroke="black" points="158.45,-103.79 161.95,-113.79 165.45,-103.79 158.45,-103.79"/>
</g>
<!-- MyRegionModule -->
<g id="node3" class="node">
<title>MyRegionModule</title>
<polygon fill="#8dd3c7" stroke="black" points="351.94,-84.8 348.94,-88.8 327.94,-88.8 324.94,-84.8 232.06,-84.8 232.06,-48.8 351.94,-48.8 351.94,-84.8"/>
<text text-anchor="middle" x="292" y="-62.6" font-family="Times,serif" font-size="14.00">MyRegionModule</text>
</g>
<!-- MyRegionModule&#45;&gt;RegionInfoDialogModule -->
<g id="edge2" class="edge">
<title>MyRegionModule&#45;&gt;RegionInfoDialogModule</title>
<path fill="none" stroke="black" d="M254.99,-84.91C254.99,-84.91 254.99,-103.79 254.99,-103.79"/>
<polygon fill="black" stroke="black" points="251.49,-103.79 254.99,-113.79 258.49,-103.79 251.49,-103.79"/>
</g>
</g>
</svg>
