<?xml version="1.0" encoding="UTF-8" standalone="no"?>
<!DOCTYPE svg PUBLIC "-//W3C//DTD SVG 1.1//EN"
 "http://www.w3.org/Graphics/SVG/1.1/DTD/svg11.dtd">
<!-- Generated by graphviz version 2.47.3 (20210619.1520)
 -->
<!-- Title: dependencies Pages: 1 -->
<svg width="206pt" height="247pt"
 viewBox="0.00 0.00 206.00 246.80" xmlns="http://www.w3.org/2000/svg" xmlns:xlink="http://www.w3.org/1999/xlink">
<g id="graph0" class="graph" transform="scale(1 1) rotate(0) translate(4 242.8)">
<title>dependencies</title>
<polygon fill="white" stroke="transparent" points="-4,4 -4,-242.8 202,-242.8 202,4 -4,4"/>
<text text-anchor="middle" x="99" y="-8.2" font-family="sans-serif" font-size="14.00">dependencies</text>
<g id="clust1" class="cluster">
<title>cluster_InviteLoginModule</title>
<polygon fill="none" stroke="black" stroke-dasharray="1,5" points="8,-32.8 8,-230.8 190,-230.8 190,-32.8 8,-32.8"/>
</g>
<g id="clust2" class="cluster">
<title>cluster_InviteLoginModule_declarations</title>
<polygon fill="none" stroke="black" points="17,-40.8 17,-92.8 181,-92.8 181,-40.8 17,-40.8"/>
</g>
<g id="clust5" class="cluster">
<title>cluster_InviteLoginModule_exports</title>
<polygon fill="none" stroke="black" points="16,-170.8 16,-222.8 182,-222.8 182,-170.8 16,-170.8"/>
</g>
<!-- InviteLoginComponent -->
<g id="node1" class="node">
<title>InviteLoginComponent</title>
<polygon fill="#ffffb3" stroke="black" points="172.93,-84.8 25.07,-84.8 25.07,-48.8 172.93,-48.8 172.93,-84.8"/>
<text text-anchor="middle" x="99" y="-62.6" font-family="Times,serif" font-size="14.00">InviteLoginComponent</text>
</g>
<!-- InviteLoginModule -->
<g id="node2" class="node">
<title>InviteLoginModule</title>
<polygon fill="#8dd3c7" stroke="black" points="161.65,-149.8 158.65,-153.8 137.65,-153.8 134.65,-149.8 36.35,-149.8 36.35,-113.8 161.65,-113.8 161.65,-149.8"/>
<text text-anchor="middle" x="99" y="-127.6" font-family="Times,serif" font-size="14.00">InviteLoginModule</text>
</g>
<!-- InviteLoginComponent&#45;&gt;InviteLoginModule -->
<g id="edge1" class="edge">
<title>InviteLoginComponent&#45;&gt;InviteLoginModule</title>
<path fill="none" stroke="black" d="M99,-84.91C99,-84.91 99,-103.79 99,-103.79"/>
<polygon fill="black" stroke="black" points="95.5,-103.79 99,-113.79 102.5,-103.79 95.5,-103.79"/>
</g>
<!-- InviteLoginComponent  -->
<g id="node3" class="node">
<title>InviteLoginComponent </title>
<polygon fill="#fb8072" stroke="black" points="174.43,-214.8 23.57,-214.8 23.57,-178.8 174.43,-178.8 174.43,-214.8"/>
<text text-anchor="middle" x="99" y="-192.6" font-family="Times,serif" font-size="14.00">InviteLoginComponent </text>
</g>
<!-- InviteLoginModule&#45;&gt;InviteLoginComponent  -->
<g id="edge2" class="edge">
<title>InviteLoginModule&#45;&gt;InviteLoginComponent </title>
<path fill="none" stroke="black" stroke-dasharray="5,2" d="M99,-149.91C99,-149.91 99,-168.79 99,-168.79"/>
<polygon fill="black" stroke="black" points="95.5,-168.79 99,-178.79 102.5,-168.79 95.5,-168.79"/>
</g>
</g>
</svg>
