<?xml version="1.0" encoding="UTF-8" standalone="no"?>
<!DOCTYPE svg PUBLIC "-//W3C//DTD SVG 1.1//EN"
 "http://www.w3.org/Graphics/SVG/1.1/DTD/svg11.dtd">
<!-- Generated by graphviz version 2.47.3 (20210619.1520)
 -->
<!-- Title: dependencies Pages: 1 -->
<svg width="1016pt" height="174pt"
 viewBox="0.00 0.00 1016.00 173.80" xmlns="http://www.w3.org/2000/svg" xmlns:xlink="http://www.w3.org/1999/xlink">
<g id="graph0" class="graph" transform="scale(1 1) rotate(0) translate(4 169.8)">
<title>dependencies</title>
<polygon fill="white" stroke="transparent" points="-4,4 -4,-169.8 1012,-169.8 1012,4 -4,4"/>
<text text-anchor="middle" x="504" y="-8.2" font-family="sans-serif" font-size="14.00">dependencies</text>
<g id="clust1" class="cluster">
<title>cluster_LibraryPageModule</title>
<polygon fill="none" stroke="black" stroke-dasharray="1,5" points="8,-32.8 8,-157.8 1000,-157.8 1000,-32.8 8,-32.8"/>
</g>
<g id="clust4" class="cluster">
<title>cluster_LibraryPageModule_imports</title>
<polygon fill="none" stroke="black" points="190,-40.8 190,-92.8 992,-92.8 992,-40.8 190,-40.8"/>
</g>
<g id="clust2" class="cluster">
<title>cluster_LibraryPageModule_declarations</title>
<polygon fill="none" stroke="black" points="16,-40.8 16,-92.8 182,-92.8 182,-40.8 16,-40.8"/>
</g>
<!-- LibraryPageComponent -->
<g id="node1" class="node">
<title>LibraryPageComponent</title>
<polygon fill="#ffffb3" stroke="black" points="174.02,-84.8 23.98,-84.8 23.98,-48.8 174.02,-48.8 174.02,-84.8"/>
<text text-anchor="middle" x="99" y="-62.6" font-family="Times,serif" font-size="14.00">LibraryPageComponent</text>
</g>
<!-- LibraryPageModule -->
<g id="node2" class="node">
<title>LibraryPageModule</title>
<polygon fill="#8dd3c7" stroke="black" points="585.24,-149.8 582.24,-153.8 561.24,-153.8 558.24,-149.8 456.76,-149.8 456.76,-113.8 585.24,-113.8 585.24,-149.8"/>
<text text-anchor="middle" x="521" y="-127.6" font-family="Times,serif" font-size="14.00">LibraryPageModule</text>
</g>
<!-- LibraryPageComponent&#45;&gt;LibraryPageModule -->
<g id="edge1" class="edge">
<title>LibraryPageComponent&#45;&gt;LibraryPageModule</title>
<path fill="none" stroke="black" d="M99,-85.08C99,-106.12 99,-137.8 99,-137.8 99,-137.8 446.45,-137.8 446.45,-137.8"/>
<polygon fill="black" stroke="black" points="446.45,-141.3 456.45,-137.8 446.45,-134.3 446.45,-141.3"/>
</g>
<!-- CreateExpeditionModule -->
<g id="node3" class="node">
<title>CreateExpeditionModule</title>
<polygon fill="#8dd3c7" stroke="black" points="983.52,-84.8 980.52,-88.8 959.52,-88.8 956.52,-84.8 826.48,-84.8 826.48,-48.8 983.52,-48.8 983.52,-84.8"/>
<text text-anchor="middle" x="905" y="-62.6" font-family="Times,serif" font-size="14.00">CreateExpeditionModule</text>
</g>
<!-- CreateExpeditionModule&#45;&gt;LibraryPageModule -->
<g id="edge2" class="edge">
<title>CreateExpeditionModule&#45;&gt;LibraryPageModule</title>
<path fill="none" stroke="black" d="M905,-85.08C905,-106.12 905,-137.8 905,-137.8 905,-137.8 595.27,-137.8 595.27,-137.8"/>
<polygon fill="black" stroke="black" points="595.27,-134.3 585.27,-137.8 595.27,-141.3 595.27,-134.3"/>
</g>
<!-- ExpeditionCardModule -->
<g id="node4" class="node">
<title>ExpeditionCardModule</title>
<polygon fill="#8dd3c7" stroke="black" points="808.2,-84.8 805.2,-88.8 784.2,-88.8 781.2,-84.8 659.8,-84.8 659.8,-48.8 808.2,-48.8 808.2,-84.8"/>
<text text-anchor="middle" x="734" y="-62.6" font-family="Times,serif" font-size="14.00">ExpeditionCardModule</text>
</g>
<!-- ExpeditionCardModule&#45;&gt;LibraryPageModule -->
<g id="edge3" class="edge">
<title>ExpeditionCardModule&#45;&gt;LibraryPageModule</title>
<path fill="none" stroke="black" d="M734,-84.82C734,-102.17 734,-125.8 734,-125.8 734,-125.8 595.49,-125.8 595.49,-125.8"/>
<polygon fill="black" stroke="black" points="595.49,-122.3 585.49,-125.8 595.49,-129.3 595.49,-122.3"/>
</g>
<!-- FiltersModule -->
<g id="node5" class="node">
<title>FiltersModule</title>
<polygon fill="#8dd3c7" stroke="black" points="641.82,-84.8 638.82,-88.8 617.82,-88.8 614.82,-84.8 546.18,-84.8 546.18,-48.8 641.82,-48.8 641.82,-84.8"/>
<text text-anchor="middle" x="594" y="-62.6" font-family="Times,serif" font-size="14.00">FiltersModule</text>
</g>
<!-- FiltersModule&#45;&gt;LibraryPageModule -->
<g id="edge4" class="edge">
<title>FiltersModule&#45;&gt;LibraryPageModule</title>
<path fill="none" stroke="black" d="M565.85,-84.91C565.85,-84.91 565.85,-103.79 565.85,-103.79"/>
<polygon fill="black" stroke="black" points="562.35,-103.79 565.85,-113.79 569.35,-103.79 562.35,-103.79"/>
</g>
<!-- SharedExpeditionModule -->
<g id="node6" class="node">
<title>SharedExpeditionModule</title>
<polygon fill="#8dd3c7" stroke="black" points="527.86,-84.8 524.86,-88.8 503.86,-88.8 500.86,-84.8 368.14,-84.8 368.14,-48.8 527.86,-48.8 527.86,-84.8"/>
<text text-anchor="middle" x="448" y="-62.6" font-family="Times,serif" font-size="14.00">SharedExpeditionModule</text>
</g>
<!-- SharedExpeditionModule&#45;&gt;LibraryPageModule -->
<g id="edge5" class="edge">
<title>SharedExpeditionModule&#45;&gt;LibraryPageModule</title>
<path fill="none" stroke="black" d="M492.28,-84.91C492.28,-84.91 492.28,-103.79 492.28,-103.79"/>
<polygon fill="black" stroke="black" points="488.78,-103.79 492.28,-113.79 495.78,-103.79 488.78,-103.79"/>
</g>
<!-- SimpleTemplateModule -->
<g id="node7" class="node">
<title>SimpleTemplateModule</title>
<polygon fill="#8dd3c7" stroke="black" points="350.09,-84.8 347.09,-88.8 326.09,-88.8 323.09,-84.8 197.91,-84.8 197.91,-48.8 350.09,-48.8 350.09,-84.8"/>
<text text-anchor="middle" x="274" y="-62.6" font-family="Times,serif" font-size="14.00">SimpleTemplateModule</text>
</g>
<!-- SimpleTemplateModule&#45;&gt;LibraryPageModule -->
<g id="edge6" class="edge">
<title>SimpleTemplateModule&#45;&gt;LibraryPageModule</title>
<path fill="none" stroke="black" d="M274,-84.82C274,-102.17 274,-125.8 274,-125.8 274,-125.8 446.75,-125.8 446.75,-125.8"/>
<polygon fill="black" stroke="black" points="446.75,-129.3 456.75,-125.8 446.75,-122.3 446.75,-129.3"/>
</g>
</g>
</svg>
