<?xml version="1.0" encoding="UTF-8" standalone="no"?>
<!DOCTYPE svg PUBLIC "-//W3C//DTD SVG 1.1//EN"
 "http://www.w3.org/Graphics/SVG/1.1/DTD/svg11.dtd">
<!-- Generated by graphviz version 2.47.3 (20210619.1520)
 -->
<!-- Title: dependencies Pages: 1 -->
<svg width="610pt" height="247pt"
 viewBox="0.00 0.00 610.00 246.80" xmlns="http://www.w3.org/2000/svg" xmlns:xlink="http://www.w3.org/1999/xlink">
<g id="graph0" class="graph" transform="scale(1 1) rotate(0) translate(4 242.8)">
<title>dependencies</title>
<polygon fill="white" stroke="transparent" points="-4,4 -4,-242.8 606,-242.8 606,4 -4,4"/>
<text text-anchor="middle" x="301" y="-8.2" font-family="sans-serif" font-size="14.00">dependencies</text>
<g id="clust1" class="cluster">
<title>cluster_MobileMenuModule</title>
<polygon fill="none" stroke="black" stroke-dasharray="1,5" points="8,-32.8 8,-230.8 594,-230.8 594,-32.8 8,-32.8"/>
</g>
<g id="clust2" class="cluster">
<title>cluster_MobileMenuModule_declarations</title>
<polygon fill="none" stroke="black" points="416,-40.8 416,-92.8 586,-92.8 586,-40.8 416,-40.8"/>
</g>
<g id="clust5" class="cluster">
<title>cluster_MobileMenuModule_exports</title>
<polygon fill="none" stroke="black" points="209,-170.8 209,-222.8 383,-222.8 383,-170.8 209,-170.8"/>
</g>
<g id="clust4" class="cluster">
<title>cluster_MobileMenuModule_imports</title>
<polygon fill="none" stroke="black" points="16,-40.8 16,-92.8 408,-92.8 408,-40.8 16,-40.8"/>
</g>
<!-- MobileMenuComponent -->
<g id="node1" class="node">
<title>MobileMenuComponent</title>
<polygon fill="#ffffb3" stroke="black" points="578.43,-84.8 423.57,-84.8 423.57,-48.8 578.43,-48.8 578.43,-84.8"/>
<text text-anchor="middle" x="501" y="-62.6" font-family="Times,serif" font-size="14.00">MobileMenuComponent</text>
</g>
<!-- MobileMenuModule -->
<g id="node2" class="node">
<title>MobileMenuModule</title>
<polygon fill="#8dd3c7" stroke="black" points="362.15,-149.8 359.15,-153.8 338.15,-153.8 335.15,-149.8 229.85,-149.8 229.85,-113.8 362.15,-113.8 362.15,-149.8"/>
<text text-anchor="middle" x="296" y="-127.6" font-family="Times,serif" font-size="14.00">MobileMenuModule</text>
</g>
<!-- MobileMenuComponent&#45;&gt;MobileMenuModule -->
<g id="edge1" class="edge">
<title>MobileMenuComponent&#45;&gt;MobileMenuModule</title>
<path fill="none" stroke="black" d="M501,-84.91C501,-104.14 501,-131.8 501,-131.8 501,-131.8 372.27,-131.8 372.27,-131.8"/>
<polygon fill="black" stroke="black" points="372.27,-128.3 362.27,-131.8 372.27,-135.3 372.27,-128.3"/>
</g>
<!-- MobileMenuComponent  -->
<g id="node6" class="node">
<title>MobileMenuComponent </title>
<polygon fill="#fb8072" stroke="black" points="374.93,-214.8 217.07,-214.8 217.07,-178.8 374.93,-178.8 374.93,-214.8"/>
<text text-anchor="middle" x="296" y="-192.6" font-family="Times,serif" font-size="14.00">MobileMenuComponent </text>
</g>
<!-- MobileMenuModule&#45;&gt;MobileMenuComponent  -->
<g id="edge5" class="edge">
<title>MobileMenuModule&#45;&gt;MobileMenuComponent </title>
<path fill="none" stroke="black" stroke-dasharray="5,2" d="M296,-149.91C296,-149.91 296,-168.79 296,-168.79"/>
<polygon fill="black" stroke="black" points="292.5,-168.79 296,-178.79 299.5,-168.79 292.5,-168.79"/>
</g>
<!-- FooterModule -->
<g id="node3" class="node">
<title>FooterModule</title>
<polygon fill="#8dd3c7" stroke="black" points="400.1,-84.8 397.1,-88.8 376.1,-88.8 373.1,-84.8 303.9,-84.8 303.9,-48.8 400.1,-48.8 400.1,-84.8"/>
<text text-anchor="middle" x="352" y="-62.6" font-family="Times,serif" font-size="14.00">FooterModule</text>
</g>
<!-- FooterModule&#45;&gt;MobileMenuModule -->
<g id="edge2" class="edge">
<title>FooterModule&#45;&gt;MobileMenuModule</title>
<path fill="none" stroke="black" d="M333.14,-84.91C333.14,-84.91 333.14,-103.79 333.14,-103.79"/>
<polygon fill="black" stroke="black" points="329.64,-103.79 333.14,-113.79 336.64,-103.79 329.64,-103.79"/>
</g>
<!-- LogoModule -->
<g id="node4" class="node">
<title>LogoModule</title>
<polygon fill="#8dd3c7" stroke="black" points="285.6,-84.8 282.6,-88.8 261.6,-88.8 258.6,-84.8 196.4,-84.8 196.4,-48.8 285.6,-48.8 285.6,-84.8"/>
<text text-anchor="middle" x="241" y="-62.6" font-family="Times,serif" font-size="14.00">LogoModule</text>
</g>
<!-- LogoModule&#45;&gt;MobileMenuModule -->
<g id="edge3" class="edge">
<title>LogoModule&#45;&gt;MobileMenuModule</title>
<path fill="none" stroke="black" d="M257.61,-84.91C257.61,-84.91 257.61,-103.79 257.61,-103.79"/>
<polygon fill="black" stroke="black" points="254.11,-103.79 257.61,-113.79 261.11,-103.79 254.11,-103.79"/>
</g>
<!-- NavigationMenuModule -->
<g id="node5" class="node">
<title>NavigationMenuModule</title>
<polygon fill="#8dd3c7" stroke="black" points="178.42,-84.8 175.42,-88.8 154.42,-88.8 151.42,-84.8 23.58,-84.8 23.58,-48.8 178.42,-48.8 178.42,-84.8"/>
<text text-anchor="middle" x="101" y="-62.6" font-family="Times,serif" font-size="14.00">NavigationMenuModule</text>
</g>
<!-- NavigationMenuModule&#45;&gt;MobileMenuModule -->
<g id="edge4" class="edge">
<title>NavigationMenuModule&#45;&gt;MobileMenuModule</title>
<path fill="none" stroke="black" d="M101,-84.91C101,-104.14 101,-131.8 101,-131.8 101,-131.8 219.71,-131.8 219.71,-131.8"/>
<polygon fill="black" stroke="black" points="219.71,-135.3 229.71,-131.8 219.71,-128.3 219.71,-135.3"/>
</g>
</g>
</svg>
