<?xml version="1.0" encoding="UTF-8" standalone="no"?>
<!DOCTYPE svg PUBLIC "-//W3C//DTD SVG 1.1//EN"
 "http://www.w3.org/Graphics/SVG/1.1/DTD/svg11.dtd">
<!-- Generated by graphviz version 2.47.3 (20210619.1520)
 -->
<!-- Title: dependencies Pages: 1 -->
<svg width="702pt" height="247pt"
 viewBox="0.00 0.00 702.00 246.80" xmlns="http://www.w3.org/2000/svg" xmlns:xlink="http://www.w3.org/1999/xlink">
<g id="graph0" class="graph" transform="scale(1 1) rotate(0) translate(4 242.8)">
<title>dependencies</title>
<polygon fill="white" stroke="transparent" points="-4,4 -4,-242.8 698,-242.8 698,4 -4,4"/>
<text text-anchor="middle" x="347" y="-8.2" font-family="sans-serif" font-size="14.00">dependencies</text>
<g id="clust1" class="cluster">
<title>cluster_HumanItineraryModule</title>
<polygon fill="none" stroke="black" stroke-dasharray="1,5" points="8,-32.8 8,-230.8 686,-230.8 686,-32.8 8,-32.8"/>
</g>
<g id="clust4" class="cluster">
<title>cluster_HumanItineraryModule_imports</title>
<polygon fill="none" stroke="black" points="210,-40.8 210,-92.8 678,-92.8 678,-40.8 210,-40.8"/>
</g>
<g id="clust5" class="cluster">
<title>cluster_HumanItineraryModule_exports</title>
<polygon fill="none" stroke="black" points="283,-170.8 283,-222.8 473,-222.8 473,-170.8 283,-170.8"/>
</g>
<g id="clust2" class="cluster">
<title>cluster_HumanItineraryModule_declarations</title>
<polygon fill="none" stroke="black" points="16,-40.8 16,-92.8 202,-92.8 202,-40.8 16,-40.8"/>
</g>
<!-- HumanItineraryComponent -->
<g id="node1" class="node">
<title>HumanItineraryComponent</title>
<polygon fill="#ffffb3" stroke="black" points="194.24,-84.8 23.76,-84.8 23.76,-48.8 194.24,-48.8 194.24,-84.8"/>
<text text-anchor="middle" x="109" y="-62.6" font-family="Times,serif" font-size="14.00">HumanItineraryComponent</text>
</g>
<!-- HumanItineraryModule -->
<g id="node2" class="node">
<title>HumanItineraryModule</title>
<polygon fill="#8dd3c7" stroke="black" points="452.45,-149.8 449.45,-153.8 428.45,-153.8 425.45,-149.8 303.55,-149.8 303.55,-113.8 452.45,-113.8 452.45,-149.8"/>
<text text-anchor="middle" x="378" y="-127.6" font-family="Times,serif" font-size="14.00">HumanItineraryModule</text>
</g>
<!-- HumanItineraryComponent&#45;&gt;HumanItineraryModule -->
<g id="edge1" class="edge">
<title>HumanItineraryComponent&#45;&gt;HumanItineraryModule</title>
<path fill="none" stroke="black" d="M109,-84.91C109,-104.14 109,-131.8 109,-131.8 109,-131.8 293.43,-131.8 293.43,-131.8"/>
<polygon fill="black" stroke="black" points="293.43,-135.3 303.43,-131.8 293.43,-128.3 293.43,-135.3"/>
</g>
<!-- HumanItineraryComponent  -->
<g id="node6" class="node">
<title>HumanItineraryComponent </title>
<polygon fill="#fb8072" stroke="black" points="465.24,-214.8 290.76,-214.8 290.76,-178.8 465.24,-178.8 465.24,-214.8"/>
<text text-anchor="middle" x="378" y="-192.6" font-family="Times,serif" font-size="14.00">HumanItineraryComponent </text>
</g>
<!-- HumanItineraryModule&#45;&gt;HumanItineraryComponent  -->
<g id="edge5" class="edge">
<title>HumanItineraryModule&#45;&gt;HumanItineraryComponent </title>
<path fill="none" stroke="black" stroke-dasharray="5,2" d="M378,-149.91C378,-149.91 378,-168.79 378,-168.79"/>
<polygon fill="black" stroke="black" points="374.5,-168.79 378,-178.79 381.5,-168.79 374.5,-168.79"/>
</g>
<!-- ItineraryModule -->
<g id="node3" class="node">
<title>ItineraryModule</title>
<polygon fill="#8dd3c7" stroke="black" points="669.74,-84.8 666.74,-88.8 645.74,-88.8 642.74,-84.8 562.26,-84.8 562.26,-48.8 669.74,-48.8 669.74,-84.8"/>
<text text-anchor="middle" x="616" y="-62.6" font-family="Times,serif" font-size="14.00">ItineraryModule</text>
</g>
<!-- ItineraryModule&#45;&gt;HumanItineraryModule -->
<g id="edge2" class="edge">
<title>ItineraryModule&#45;&gt;HumanItineraryModule</title>
<path fill="none" stroke="black" d="M616,-84.91C616,-104.14 616,-131.8 616,-131.8 616,-131.8 462.65,-131.8 462.65,-131.8"/>
<polygon fill="black" stroke="black" points="462.65,-128.3 452.65,-131.8 462.65,-135.3 462.65,-128.3"/>
</g>
<!-- ItineraryStepCardModule -->
<g id="node4" class="node">
<title>ItineraryStepCardModule</title>
<polygon fill="#8dd3c7" stroke="black" points="543.84,-84.8 540.84,-88.8 519.84,-88.8 516.84,-84.8 384.16,-84.8 384.16,-48.8 543.84,-48.8 543.84,-84.8"/>
<text text-anchor="middle" x="464" y="-62.6" font-family="Times,serif" font-size="14.00">ItineraryStepCardModule</text>
</g>
<!-- ItineraryStepCardModule&#45;&gt;HumanItineraryModule -->
<g id="edge3" class="edge">
<title>ItineraryStepCardModule&#45;&gt;HumanItineraryModule</title>
<path fill="none" stroke="black" d="M418.28,-84.91C418.28,-84.91 418.28,-103.79 418.28,-103.79"/>
<polygon fill="black" stroke="black" points="414.78,-103.79 418.28,-113.79 421.78,-103.79 414.78,-103.79"/>
</g>
<!-- StepsAccordionModule -->
<g id="node5" class="node">
<title>StepsAccordionModule</title>
<polygon fill="#8dd3c7" stroke="black" points="366.47,-84.8 363.47,-88.8 342.47,-88.8 339.47,-84.8 217.53,-84.8 217.53,-48.8 366.47,-48.8 366.47,-84.8"/>
<text text-anchor="middle" x="292" y="-62.6" font-family="Times,serif" font-size="14.00">StepsAccordionModule</text>
</g>
<!-- StepsAccordionModule&#45;&gt;HumanItineraryModule -->
<g id="edge4" class="edge">
<title>StepsAccordionModule&#45;&gt;HumanItineraryModule</title>
<path fill="none" stroke="black" d="M335,-84.91C335,-84.91 335,-103.79 335,-103.79"/>
<polygon fill="black" stroke="black" points="331.5,-103.79 335,-113.79 338.5,-103.79 331.5,-103.79"/>
</g>
</g>
</svg>
