<?xml version="1.0" encoding="UTF-8" standalone="no"?>
<!DOCTYPE svg PUBLIC "-//W3C//DTD SVG 1.1//EN"
 "http://www.w3.org/Graphics/SVG/1.1/DTD/svg11.dtd">
<!-- Generated by graphviz version 2.47.3 (20210619.1520)
 -->
<!-- Title: dependencies Pages: 1 -->
<svg width="1168pt" height="247pt"
 viewBox="0.00 0.00 1168.00 246.80" xmlns="http://www.w3.org/2000/svg" xmlns:xlink="http://www.w3.org/1999/xlink">
<g id="graph0" class="graph" transform="scale(1 1) rotate(0) translate(4 242.8)">
<title>dependencies</title>
<polygon fill="white" stroke="transparent" points="-4,4 -4,-242.8 1164,-242.8 1164,4 -4,4"/>
<text text-anchor="middle" x="580" y="-8.2" font-family="sans-serif" font-size="14.00">dependencies</text>
<g id="clust1" class="cluster">
<title>cluster_AdminLeadsTableModule</title>
<polygon fill="none" stroke="black" stroke-dasharray="1,5" points="8,-32.8 8,-230.8 1152,-230.8 1152,-32.8 8,-32.8"/>
</g>
<g id="clust2" class="cluster">
<title>cluster_AdminLeadsTableModule_declarations</title>
<polygon fill="none" stroke="black" points="942,-40.8 942,-92.8 1144,-92.8 1144,-40.8 942,-40.8"/>
</g>
<g id="clust4" class="cluster">
<title>cluster_AdminLeadsTableModule_imports</title>
<polygon fill="none" stroke="black" points="581,-40.8 581,-92.8 934,-92.8 934,-40.8 581,-40.8"/>
</g>
<g id="clust7" class="cluster">
<title>cluster_AdminLeadsTableModule_providers</title>
<polygon fill="none" stroke="black" points="16,-40.8 16,-92.8 573,-92.8 573,-40.8 16,-40.8"/>
</g>
<g id="clust5" class="cluster">
<title>cluster_AdminLeadsTableModule_exports</title>
<polygon fill="none" stroke="black" points="458,-170.8 458,-222.8 664,-222.8 664,-170.8 458,-170.8"/>
</g>
<!-- AdminLeadsTableComponent -->
<g id="node1" class="node">
<title>AdminLeadsTableComponent</title>
<polygon fill="#ffffb3" stroke="black" points="1135.52,-84.8 950.48,-84.8 950.48,-48.8 1135.52,-48.8 1135.52,-84.8"/>
<text text-anchor="middle" x="1043" y="-62.6" font-family="Times,serif" font-size="14.00">AdminLeadsTableComponent</text>
</g>
<!-- AdminLeadsTableModule -->
<g id="node2" class="node">
<title>AdminLeadsTableModule</title>
<polygon fill="#8dd3c7" stroke="black" points="642.74,-149.8 639.74,-153.8 618.74,-153.8 615.74,-149.8 479.26,-149.8 479.26,-113.8 642.74,-113.8 642.74,-149.8"/>
<text text-anchor="middle" x="561" y="-127.6" font-family="Times,serif" font-size="14.00">AdminLeadsTableModule</text>
</g>
<!-- AdminLeadsTableComponent&#45;&gt;AdminLeadsTableModule -->
<g id="edge1" class="edge">
<title>AdminLeadsTableComponent&#45;&gt;AdminLeadsTableModule</title>
<path fill="none" stroke="black" d="M1043,-85.08C1043,-106.12 1043,-137.8 1043,-137.8 1043,-137.8 652.76,-137.8 652.76,-137.8"/>
<polygon fill="black" stroke="black" points="652.76,-134.3 642.76,-137.8 652.76,-141.3 652.76,-134.3"/>
</g>
<!-- AdminLeadsTableComponent  -->
<g id="node5" class="node">
<title>AdminLeadsTableComponent </title>
<polygon fill="#fb8072" stroke="black" points="655.52,-214.8 466.48,-214.8 466.48,-178.8 655.52,-178.8 655.52,-214.8"/>
<text text-anchor="middle" x="561" y="-192.6" font-family="Times,serif" font-size="14.00">AdminLeadsTableComponent </text>
</g>
<!-- AdminLeadsTableModule&#45;&gt;AdminLeadsTableComponent  -->
<g id="edge4" class="edge">
<title>AdminLeadsTableModule&#45;&gt;AdminLeadsTableComponent </title>
<path fill="none" stroke="black" stroke-dasharray="5,2" d="M561,-149.91C561,-149.91 561,-168.79 561,-168.79"/>
<polygon fill="black" stroke="black" points="557.5,-168.79 561,-178.79 564.5,-168.79 557.5,-168.79"/>
</g>
<!-- SubscriptionLinkModule -->
<g id="node3" class="node">
<title>SubscriptionLinkModule</title>
<polygon fill="#8dd3c7" stroke="black" points="926.27,-84.8 923.27,-88.8 902.27,-88.8 899.27,-84.8 769.73,-84.8 769.73,-48.8 926.27,-48.8 926.27,-84.8"/>
<text text-anchor="middle" x="848" y="-62.6" font-family="Times,serif" font-size="14.00">SubscriptionLinkModule</text>
</g>
<!-- SubscriptionLinkModule&#45;&gt;AdminLeadsTableModule -->
<g id="edge2" class="edge">
<title>SubscriptionLinkModule&#45;&gt;AdminLeadsTableModule</title>
<path fill="none" stroke="black" d="M848,-84.82C848,-102.17 848,-125.8 848,-125.8 848,-125.8 652.86,-125.8 652.86,-125.8"/>
<polygon fill="black" stroke="black" points="652.86,-122.3 642.86,-125.8 652.86,-129.3 652.86,-122.3"/>
</g>
<!-- SubscriptionMenuModule -->
<g id="node4" class="node">
<title>SubscriptionMenuModule</title>
<polygon fill="#8dd3c7" stroke="black" points="751.48,-84.8 748.48,-88.8 727.48,-88.8 724.48,-84.8 588.52,-84.8 588.52,-48.8 751.48,-48.8 751.48,-84.8"/>
<text text-anchor="middle" x="670" y="-62.6" font-family="Times,serif" font-size="14.00">SubscriptionMenuModule</text>
</g>
<!-- SubscriptionMenuModule&#45;&gt;AdminLeadsTableModule -->
<g id="edge3" class="edge">
<title>SubscriptionMenuModule&#45;&gt;AdminLeadsTableModule</title>
<path fill="none" stroke="black" d="M615.69,-84.91C615.69,-84.91 615.69,-103.79 615.69,-103.79"/>
<polygon fill="black" stroke="black" points="612.19,-103.79 615.69,-113.79 619.19,-103.79 612.19,-103.79"/>
</g>
<!-- AdminApplicationService -->
<g id="node6" class="node">
<title>AdminApplicationService</title>
<ellipse fill="#fdb462" stroke="black" cx="453" cy="-66.8" rx="112.32" ry="18"/>
<text text-anchor="middle" x="453" y="-62.6" font-family="Times,serif" font-size="14.00">AdminApplicationService</text>
</g>
<!-- AdminApplicationService&#45;&gt;AdminLeadsTableModule -->
<g id="edge5" class="edge">
<title>AdminApplicationService&#45;&gt;AdminLeadsTableModule</title>
<path fill="none" stroke="black" d="M522.27,-81.23C522.27,-81.23 522.27,-103.69 522.27,-103.69"/>
<polygon fill="black" stroke="black" points="518.77,-103.69 522.27,-113.69 525.77,-103.69 518.77,-103.69"/>
</g>
<!-- AdminLeadService -->
<g id="node7" class="node">
<title>AdminLeadService</title>
<ellipse fill="#fdb462" stroke="black" cx="236" cy="-66.8" rx="86.23" ry="18"/>
<text text-anchor="middle" x="236" y="-62.6" font-family="Times,serif" font-size="14.00">AdminLeadService</text>
</g>
<!-- AdminLeadService&#45;&gt;AdminLeadsTableModule -->
<g id="edge6" class="edge">
<title>AdminLeadService&#45;&gt;AdminLeadsTableModule</title>
<path fill="none" stroke="black" d="M236,-84.82C236,-102.17 236,-125.8 236,-125.8 236,-125.8 468.99,-125.8 468.99,-125.8"/>
<polygon fill="black" stroke="black" points="468.99,-129.3 478.99,-125.8 468.99,-122.3 468.99,-129.3"/>
</g>
<!-- LeadClient -->
<g id="node8" class="node">
<title>LeadClient</title>
<ellipse fill="#fdb462" stroke="black" cx="78" cy="-66.8" rx="53.89" ry="18"/>
<text text-anchor="middle" x="78" y="-62.6" font-family="Times,serif" font-size="14.00">LeadClient</text>
</g>
<!-- LeadClient&#45;&gt;AdminLeadsTableModule -->
<g id="edge7" class="edge">
<title>LeadClient&#45;&gt;AdminLeadsTableModule</title>
<path fill="none" stroke="black" d="M78,-85.08C78,-106.12 78,-137.8 78,-137.8 78,-137.8 469.07,-137.8 469.07,-137.8"/>
<polygon fill="black" stroke="black" points="469.07,-141.3 479.07,-137.8 469.07,-134.3 469.07,-141.3"/>
</g>
</g>
</svg>
