<?xml version="1.0" encoding="UTF-8" standalone="no"?>
<!DOCTYPE svg PUBLIC "-//W3C//DTD SVG 1.1//EN"
 "http://www.w3.org/Graphics/SVG/1.1/DTD/svg11.dtd">
<!-- Generated by graphviz version 2.47.3 (20210619.1520)
 -->
<!-- Title: dependencies Pages: 1 -->
<svg width="556pt" height="174pt"
 viewBox="0.00 0.00 556.00 173.80" xmlns="http://www.w3.org/2000/svg" xmlns:xlink="http://www.w3.org/1999/xlink">
<g id="graph0" class="graph" transform="scale(1 1) rotate(0) translate(4 169.8)">
<title>dependencies</title>
<polygon fill="white" stroke="transparent" points="-4,4 -4,-169.8 552,-169.8 552,4 -4,4"/>
<text text-anchor="middle" x="274" y="-8.2" font-family="sans-serif" font-size="14.00">dependencies</text>
<g id="clust1" class="cluster">
<title>cluster_ExpeditionInstanceDetailsDialogModule</title>
<polygon fill="none" stroke="black" stroke-dasharray="1,5" points="8,-32.8 8,-157.8 540,-157.8 540,-32.8 8,-32.8"/>
</g>
<g id="clust2" class="cluster">
<title>cluster_ExpeditionInstanceDetailsDialogModule_declarations</title>
<polygon fill="none" stroke="black" points="248,-40.8 248,-92.8 532,-92.8 532,-40.8 248,-40.8"/>
</g>
<g id="clust4" class="cluster">
<title>cluster_ExpeditionInstanceDetailsDialogModule_imports</title>
<polygon fill="none" stroke="black" points="16,-40.8 16,-92.8 240,-92.8 240,-40.8 16,-40.8"/>
</g>
<!-- ExpeditionInstanceDetailsDialogComponent -->
<g id="node1" class="node">
<title>ExpeditionInstanceDetailsDialogComponent</title>
<polygon fill="#ffffb3" stroke="black" points="523.67,-84.8 256.33,-84.8 256.33,-48.8 523.67,-48.8 523.67,-84.8"/>
<text text-anchor="middle" x="390" y="-62.6" font-family="Times,serif" font-size="14.00">ExpeditionInstanceDetailsDialogComponent</text>
</g>
<!-- ExpeditionInstanceDetailsDialogModule -->
<g id="node2" class="node">
<title>ExpeditionInstanceDetailsDialogModule</title>
<polygon fill="#8dd3c7" stroke="black" points="386.88,-149.8 383.88,-153.8 362.88,-153.8 359.88,-149.8 141.12,-149.8 141.12,-113.8 386.88,-113.8 386.88,-149.8"/>
<text text-anchor="middle" x="264" y="-127.6" font-family="Times,serif" font-size="14.00">ExpeditionInstanceDetailsDialogModule</text>
</g>
<!-- ExpeditionInstanceDetailsDialogComponent&#45;&gt;ExpeditionInstanceDetailsDialogModule -->
<g id="edge1" class="edge">
<title>ExpeditionInstanceDetailsDialogComponent&#45;&gt;ExpeditionInstanceDetailsDialogModule</title>
<path fill="none" stroke="black" d="M321.55,-84.91C321.55,-84.91 321.55,-103.79 321.55,-103.79"/>
<polygon fill="black" stroke="black" points="318.05,-103.79 321.55,-113.79 325.05,-103.79 318.05,-103.79"/>
</g>
<!-- ExpeditionInstanceDetailsModule -->
<g id="node3" class="node">
<title>ExpeditionInstanceDetailsModule</title>
<polygon fill="#8dd3c7" stroke="black" points="231.78,-84.8 228.78,-88.8 207.78,-88.8 204.78,-84.8 24.22,-84.8 24.22,-48.8 231.78,-48.8 231.78,-84.8"/>
<text text-anchor="middle" x="128" y="-62.6" font-family="Times,serif" font-size="14.00">ExpeditionInstanceDetailsModule</text>
</g>
<!-- ExpeditionInstanceDetailsModule&#45;&gt;ExpeditionInstanceDetailsDialogModule -->
<g id="edge2" class="edge">
<title>ExpeditionInstanceDetailsModule&#45;&gt;ExpeditionInstanceDetailsDialogModule</title>
<path fill="none" stroke="black" d="M186.47,-84.91C186.47,-84.91 186.47,-103.79 186.47,-103.79"/>
<polygon fill="black" stroke="black" points="182.97,-103.79 186.47,-113.79 189.97,-103.79 182.97,-103.79"/>
</g>
</g>
</svg>
