<?xml version="1.0" encoding="UTF-8" standalone="no"?>
<!DOCTYPE svg PUBLIC "-//W3C//DTD SVG 1.1//EN"
 "http://www.w3.org/Graphics/SVG/1.1/DTD/svg11.dtd">
<!-- Generated by graphviz version 2.47.3 (20210619.1520)
 -->
<!-- Title: dependencies Pages: 1 -->
<svg width="268pt" height="174pt"
 viewBox="0.00 0.00 268.00 173.80" xmlns="http://www.w3.org/2000/svg" xmlns:xlink="http://www.w3.org/1999/xlink">
<g id="graph0" class="graph" transform="scale(1 1) rotate(0) translate(4 169.8)">
<title>dependencies</title>
<polygon fill="white" stroke="transparent" points="-4,4 -4,-169.8 264,-169.8 264,4 -4,4"/>
<text text-anchor="middle" x="130" y="-8.2" font-family="sans-serif" font-size="14.00">dependencies</text>
<g id="clust1" class="cluster">
<title>cluster_DiplomaSuccessDialogModule</title>
<polygon fill="none" stroke="black" stroke-dasharray="1,5" points="8,-32.8 8,-157.8 252,-157.8 252,-32.8 8,-32.8"/>
</g>
<g id="clust2" class="cluster">
<title>cluster_DiplomaSuccessDialogModule_declarations</title>
<polygon fill="none" stroke="black" points="16,-40.8 16,-92.8 244,-92.8 244,-40.8 16,-40.8"/>
</g>
<!-- DiplomaSuccessDialogComponent -->
<g id="node1" class="node">
<title>DiplomaSuccessDialogComponent</title>
<polygon fill="#ffffb3" stroke="black" points="236.24,-84.8 23.76,-84.8 23.76,-48.8 236.24,-48.8 236.24,-84.8"/>
<text text-anchor="middle" x="130" y="-62.6" font-family="Times,serif" font-size="14.00">DiplomaSuccessDialogComponent</text>
</g>
<!-- DiplomaSuccessDialogModule -->
<g id="node2" class="node">
<title>DiplomaSuccessDialogModule</title>
<polygon fill="#8dd3c7" stroke="black" points="225.46,-149.8 222.46,-153.8 201.46,-153.8 198.46,-149.8 34.54,-149.8 34.54,-113.8 225.46,-113.8 225.46,-149.8"/>
<text text-anchor="middle" x="130" y="-127.6" font-family="Times,serif" font-size="14.00">DiplomaSuccessDialogModule</text>
</g>
<!-- DiplomaSuccessDialogComponent&#45;&gt;DiplomaSuccessDialogModule -->
<g id="edge1" class="edge">
<title>DiplomaSuccessDialogComponent&#45;&gt;DiplomaSuccessDialogModule</title>
<path fill="none" stroke="black" d="M130,-84.91C130,-84.91 130,-103.79 130,-103.79"/>
<polygon fill="black" stroke="black" points="126.5,-103.79 130,-113.79 133.5,-103.79 126.5,-103.79"/>
</g>
</g>
</svg>
