<?xml version="1.0" encoding="UTF-8" standalone="no"?>
<!DOCTYPE svg PUBLIC "-//W3C//DTD SVG 1.1//EN"
 "http://www.w3.org/Graphics/SVG/1.1/DTD/svg11.dtd">
<!-- Generated by graphviz version 2.47.3 (20210619.1520)
 -->
<!-- Title: dependencies Pages: 1 -->
<svg width="570pt" height="174pt"
 viewBox="0.00 0.00 570.00 173.80" xmlns="http://www.w3.org/2000/svg" xmlns:xlink="http://www.w3.org/1999/xlink">
<g id="graph0" class="graph" transform="scale(1 1) rotate(0) translate(4 169.8)">
<title>dependencies</title>
<polygon fill="white" stroke="transparent" points="-4,4 -4,-169.8 566,-169.8 566,4 -4,4"/>
<text text-anchor="middle" x="281" y="-8.2" font-family="sans-serif" font-size="14.00">dependencies</text>
<g id="clust1" class="cluster">
<title>cluster_AdminAdventuresPageModule</title>
<polygon fill="none" stroke="black" stroke-dasharray="1,5" points="8,-32.8 8,-157.8 554,-157.8 554,-32.8 8,-32.8"/>
</g>
<g id="clust2" class="cluster">
<title>cluster_AdminAdventuresPageModule_declarations</title>
<polygon fill="none" stroke="black" points="346,-40.8 346,-92.8 546,-92.8 546,-40.8 346,-40.8"/>
</g>
<g id="clust4" class="cluster">
<title>cluster_AdminAdventuresPageModule_imports</title>
<polygon fill="none" stroke="black" points="16,-40.8 16,-92.8 338,-92.8 338,-40.8 16,-40.8"/>
</g>
<!-- AdminAdventuresComponent -->
<g id="node1" class="node">
<title>AdminAdventuresComponent</title>
<polygon fill="#ffffb3" stroke="black" points="538.25,-84.8 353.75,-84.8 353.75,-48.8 538.25,-48.8 538.25,-84.8"/>
<text text-anchor="middle" x="446" y="-62.6" font-family="Times,serif" font-size="14.00">AdminAdventuresComponent</text>
</g>
<!-- AdminAdventuresPageModule -->
<g id="node2" class="node">
<title>AdminAdventuresPageModule</title>
<polygon fill="#8dd3c7" stroke="black" points="344.18,-149.8 341.18,-153.8 320.18,-153.8 317.18,-149.8 153.82,-149.8 153.82,-113.8 344.18,-113.8 344.18,-149.8"/>
<text text-anchor="middle" x="249" y="-127.6" font-family="Times,serif" font-size="14.00">AdminAdventuresPageModule</text>
</g>
<!-- AdminAdventuresComponent&#45;&gt;AdminAdventuresPageModule -->
<g id="edge1" class="edge">
<title>AdminAdventuresComponent&#45;&gt;AdminAdventuresPageModule</title>
<path fill="none" stroke="black" d="M353.47,-66.8C343.51,-66.8 336.9,-66.8 336.9,-66.8 336.9,-66.8 336.9,-103.69 336.9,-103.69"/>
<polygon fill="black" stroke="black" points="333.4,-103.69 336.9,-113.69 340.4,-103.69 333.4,-103.69"/>
</g>
<!-- AdminDefinitionsModule -->
<g id="node3" class="node">
<title>AdminDefinitionsModule</title>
<polygon fill="#8dd3c7" stroke="black" points="329.93,-84.8 326.93,-88.8 305.93,-88.8 302.93,-84.8 168.07,-84.8 168.07,-48.8 329.93,-48.8 329.93,-84.8"/>
<text text-anchor="middle" x="249" y="-62.6" font-family="Times,serif" font-size="14.00">AdminDefinitionsModule</text>
</g>
<!-- AdminDefinitionsModule&#45;&gt;AdminAdventuresPageModule -->
<g id="edge2" class="edge">
<title>AdminDefinitionsModule&#45;&gt;AdminAdventuresPageModule</title>
<path fill="none" stroke="black" d="M249,-84.91C249,-84.91 249,-103.79 249,-103.79"/>
<polygon fill="black" stroke="black" points="245.5,-103.79 249,-113.79 252.5,-103.79 245.5,-103.79"/>
</g>
<!-- AdminTagsModule -->
<g id="node4" class="node">
<title>AdminTagsModule</title>
<polygon fill="#8dd3c7" stroke="black" points="149.65,-84.8 146.65,-88.8 125.65,-88.8 122.65,-84.8 24.35,-84.8 24.35,-48.8 149.65,-48.8 149.65,-84.8"/>
<text text-anchor="middle" x="87" y="-62.6" font-family="Times,serif" font-size="14.00">AdminTagsModule</text>
</g>
<!-- AdminTagsModule&#45;&gt;AdminAdventuresPageModule -->
<g id="edge3" class="edge">
<title>AdminTagsModule&#45;&gt;AdminAdventuresPageModule</title>
<path fill="none" stroke="black" d="M149.84,-66.8C156.61,-66.8 161.1,-66.8 161.1,-66.8 161.1,-66.8 161.1,-103.69 161.1,-103.69"/>
<polygon fill="black" stroke="black" points="157.6,-103.69 161.1,-113.69 164.6,-103.69 157.6,-103.69"/>
</g>
</g>
</svg>
