<?xml version="1.0" encoding="UTF-8" standalone="no"?>
<!DOCTYPE svg PUBLIC "-//W3C//DTD SVG 1.1//EN"
 "http://www.w3.org/Graphics/SVG/1.1/DTD/svg11.dtd">
<!-- Generated by graphviz version 2.47.3 (20210619.1520)
 -->
<!-- Title: dependencies Pages: 1 -->
<svg width="1010pt" height="247pt"
 viewBox="0.00 0.00 1010.00 246.80" xmlns="http://www.w3.org/2000/svg" xmlns:xlink="http://www.w3.org/1999/xlink">
<g id="graph0" class="graph" transform="scale(1 1) rotate(0) translate(4 242.8)">
<title>dependencies</title>
<polygon fill="white" stroke="transparent" points="-4,4 -4,-242.8 1006,-242.8 1006,4 -4,4"/>
<text text-anchor="middle" x="501" y="-8.2" font-family="sans-serif" font-size="14.00">dependencies</text>
<g id="clust1" class="cluster">
<title>cluster_TestingMyRoadHomeModule</title>
<polygon fill="none" stroke="black" stroke-dasharray="1,5" points="8,-32.8 8,-230.8 994,-230.8 994,-32.8 8,-32.8"/>
</g>
<g id="clust2" class="cluster">
<title>cluster_TestingMyRoadHomeModule_declarations</title>
<polygon fill="none" stroke="black" points="764,-40.8 764,-92.8 986,-92.8 986,-40.8 764,-40.8"/>
</g>
<g id="clust4" class="cluster">
<title>cluster_TestingMyRoadHomeModule_imports</title>
<polygon fill="none" stroke="black" points="16,-40.8 16,-92.8 756,-92.8 756,-40.8 16,-40.8"/>
</g>
<g id="clust5" class="cluster">
<title>cluster_TestingMyRoadHomeModule_exports</title>
<polygon fill="none" stroke="black" points="367,-170.8 367,-222.8 593,-222.8 593,-170.8 367,-170.8"/>
</g>
<!-- TestingMyRoadHomeComponent -->
<g id="node1" class="node">
<title>TestingMyRoadHomeComponent</title>
<polygon fill="#ffffb3" stroke="black" points="978.03,-84.8 771.97,-84.8 771.97,-48.8 978.03,-48.8 978.03,-84.8"/>
<text text-anchor="middle" x="875" y="-62.6" font-family="Times,serif" font-size="14.00">TestingMyRoadHomeComponent</text>
</g>
<!-- TestingMyRoadHomeModule -->
<g id="node2" class="node">
<title>TestingMyRoadHomeModule</title>
<polygon fill="#8dd3c7" stroke="black" points="572.25,-149.8 569.25,-153.8 548.25,-153.8 545.25,-149.8 387.75,-149.8 387.75,-113.8 572.25,-113.8 572.25,-149.8"/>
<text text-anchor="middle" x="480" y="-127.6" font-family="Times,serif" font-size="14.00">TestingMyRoadHomeModule</text>
</g>
<!-- TestingMyRoadHomeComponent&#45;&gt;TestingMyRoadHomeModule -->
<g id="edge1" class="edge">
<title>TestingMyRoadHomeComponent&#45;&gt;TestingMyRoadHomeModule</title>
<path fill="none" stroke="black" d="M875,-85.08C875,-106.12 875,-137.8 875,-137.8 875,-137.8 582.61,-137.8 582.61,-137.8"/>
<polygon fill="black" stroke="black" points="582.61,-134.3 572.61,-137.8 582.61,-141.3 582.61,-134.3"/>
</g>
<!-- TestingMyRoadHomeComponent  -->
<g id="node7" class="node">
<title>TestingMyRoadHomeComponent </title>
<polygon fill="#fb8072" stroke="black" points="585.03,-214.8 374.97,-214.8 374.97,-178.8 585.03,-178.8 585.03,-214.8"/>
<text text-anchor="middle" x="480" y="-192.6" font-family="Times,serif" font-size="14.00">TestingMyRoadHomeComponent </text>
</g>
<!-- TestingMyRoadHomeModule&#45;&gt;TestingMyRoadHomeComponent  -->
<g id="edge6" class="edge">
<title>TestingMyRoadHomeModule&#45;&gt;TestingMyRoadHomeComponent </title>
<path fill="none" stroke="black" stroke-dasharray="5,2" d="M480,-149.91C480,-149.91 480,-168.79 480,-168.79"/>
<polygon fill="black" stroke="black" points="476.5,-168.79 480,-178.79 483.5,-168.79 476.5,-168.79"/>
</g>
<!-- FeaturesContainerModule -->
<g id="node3" class="node">
<title>FeaturesContainerModule</title>
<polygon fill="#8dd3c7" stroke="black" points="748.18,-84.8 745.18,-88.8 724.18,-88.8 721.18,-84.8 585.82,-84.8 585.82,-48.8 748.18,-48.8 748.18,-84.8"/>
<text text-anchor="middle" x="667" y="-62.6" font-family="Times,serif" font-size="14.00">FeaturesContainerModule</text>
</g>
<!-- FeaturesContainerModule&#45;&gt;TestingMyRoadHomeModule -->
<g id="edge2" class="edge">
<title>FeaturesContainerModule&#45;&gt;TestingMyRoadHomeModule</title>
<path fill="none" stroke="black" d="M667,-84.82C667,-102.17 667,-125.8 667,-125.8 667,-125.8 582.4,-125.8 582.4,-125.8"/>
<polygon fill="black" stroke="black" points="582.4,-122.3 572.4,-125.8 582.4,-129.3 582.4,-122.3"/>
</g>
<!-- MillionroadsProductModule -->
<g id="node4" class="node">
<title>MillionroadsProductModule</title>
<polygon fill="#8dd3c7" stroke="black" points="567.93,-84.8 564.93,-88.8 543.93,-88.8 540.93,-84.8 392.07,-84.8 392.07,-48.8 567.93,-48.8 567.93,-84.8"/>
<text text-anchor="middle" x="480" y="-62.6" font-family="Times,serif" font-size="14.00">MillionroadsProductModule</text>
</g>
<!-- MillionroadsProductModule&#45;&gt;TestingMyRoadHomeModule -->
<g id="edge3" class="edge">
<title>MillionroadsProductModule&#45;&gt;TestingMyRoadHomeModule</title>
<path fill="none" stroke="black" d="M480,-84.91C480,-84.91 480,-103.79 480,-103.79"/>
<polygon fill="black" stroke="black" points="476.5,-103.79 480,-113.79 483.5,-103.79 476.5,-103.79"/>
</g>
<!-- NavigationTemplateModule -->
<g id="node5" class="node">
<title>NavigationTemplateModule</title>
<polygon fill="#8dd3c7" stroke="black" points="374.13,-84.8 371.13,-88.8 350.13,-88.8 347.13,-84.8 199.87,-84.8 199.87,-48.8 374.13,-48.8 374.13,-84.8"/>
<text text-anchor="middle" x="287" y="-62.6" font-family="Times,serif" font-size="14.00">NavigationTemplateModule</text>
</g>
<!-- NavigationTemplateModule&#45;&gt;TestingMyRoadHomeModule -->
<g id="edge4" class="edge">
<title>NavigationTemplateModule&#45;&gt;TestingMyRoadHomeModule</title>
<path fill="none" stroke="black" d="M287,-84.82C287,-102.17 287,-125.8 287,-125.8 287,-125.8 377.74,-125.8 377.74,-125.8"/>
<polygon fill="black" stroke="black" points="377.74,-129.3 387.74,-125.8 377.74,-122.3 377.74,-129.3"/>
</g>
<!-- PartnershipLogosModule -->
<g id="node6" class="node">
<title>PartnershipLogosModule</title>
<polygon fill="#8dd3c7" stroke="black" points="182.31,-84.8 179.31,-88.8 158.31,-88.8 155.31,-84.8 23.69,-84.8 23.69,-48.8 182.31,-48.8 182.31,-84.8"/>
<text text-anchor="middle" x="103" y="-62.6" font-family="Times,serif" font-size="14.00">PartnershipLogosModule</text>
</g>
<!-- PartnershipLogosModule&#45;&gt;TestingMyRoadHomeModule -->
<g id="edge5" class="edge">
<title>PartnershipLogosModule&#45;&gt;TestingMyRoadHomeModule</title>
<path fill="none" stroke="black" d="M103,-85.08C103,-106.12 103,-137.8 103,-137.8 103,-137.8 377.29,-137.8 377.29,-137.8"/>
<polygon fill="black" stroke="black" points="377.29,-141.3 387.29,-137.8 377.29,-134.3 377.29,-141.3"/>
</g>
</g>
</svg>
