<?xml version="1.0" encoding="UTF-8" standalone="no"?>
<!DOCTYPE svg PUBLIC "-//W3C//DTD SVG 1.1//EN"
 "http://www.w3.org/Graphics/SVG/1.1/DTD/svg11.dtd">
<!-- Generated by graphviz version 2.47.3 (20210619.1520)
 -->
<!-- Title: dependencies Pages: 1 -->
<svg width="852pt" height="247pt"
 viewBox="0.00 0.00 852.00 246.80" xmlns="http://www.w3.org/2000/svg" xmlns:xlink="http://www.w3.org/1999/xlink">
<g id="graph0" class="graph" transform="scale(1 1) rotate(0) translate(4 242.8)">
<title>dependencies</title>
<polygon fill="white" stroke="transparent" points="-4,4 -4,-242.8 848,-242.8 848,4 -4,4"/>
<text text-anchor="middle" x="422" y="-8.2" font-family="sans-serif" font-size="14.00">dependencies</text>
<g id="clust1" class="cluster">
<title>cluster_CursusModule</title>
<polygon fill="none" stroke="black" stroke-dasharray="1,5" points="8,-32.8 8,-230.8 836,-230.8 836,-32.8 8,-32.8"/>
</g>
<g id="clust6" class="cluster">
<title>cluster_CursusModule_exports</title>
<polygon fill="none" stroke="black" points="271,-170.8 271,-222.8 621,-222.8 621,-170.8 271,-170.8"/>
</g>
<g id="clust5" class="cluster">
<title>cluster_CursusModule_imports</title>
<polygon fill="none" stroke="black" points="366,-40.8 366,-92.8 828,-92.8 828,-40.8 366,-40.8"/>
</g>
<g id="clust2" class="cluster">
<title>cluster_CursusModule_declarations</title>
<polygon fill="none" stroke="black" points="16,-40.8 16,-92.8 358,-92.8 358,-40.8 16,-40.8"/>
</g>
<!-- CursusFullComponent -->
<g id="node1" class="node">
<title>CursusFullComponent</title>
<polygon fill="#ffffb3" stroke="black" points="350.28,-84.8 207.72,-84.8 207.72,-48.8 350.28,-48.8 350.28,-84.8"/>
<text text-anchor="middle" x="279" y="-62.6" font-family="Times,serif" font-size="14.00">CursusFullComponent</text>
</g>
<!-- CursusModule -->
<g id="node3" class="node">
<title>CursusModule</title>
<polygon fill="#8dd3c7" stroke="black" points="501.44,-149.8 498.44,-153.8 477.44,-153.8 474.44,-149.8 402.56,-149.8 402.56,-113.8 501.44,-113.8 501.44,-149.8"/>
<text text-anchor="middle" x="452" y="-127.6" font-family="Times,serif" font-size="14.00">CursusModule</text>
</g>
<!-- CursusFullComponent&#45;&gt;CursusModule -->
<g id="edge1" class="edge">
<title>CursusFullComponent&#45;&gt;CursusModule</title>
<path fill="none" stroke="black" d="M314.8,-84.82C314.8,-102.17 314.8,-125.8 314.8,-125.8 314.8,-125.8 392.47,-125.8 392.47,-125.8"/>
<polygon fill="black" stroke="black" points="392.47,-129.3 402.47,-125.8 392.47,-122.3 392.47,-129.3"/>
</g>
<!-- CursusPreviewComponent -->
<g id="node2" class="node">
<title>CursusPreviewComponent</title>
<polygon fill="#ffffb3" stroke="black" points="190.09,-84.8 23.91,-84.8 23.91,-48.8 190.09,-48.8 190.09,-84.8"/>
<text text-anchor="middle" x="107" y="-62.6" font-family="Times,serif" font-size="14.00">CursusPreviewComponent</text>
</g>
<!-- CursusPreviewComponent&#45;&gt;CursusModule -->
<g id="edge2" class="edge">
<title>CursusPreviewComponent&#45;&gt;CursusModule</title>
<path fill="none" stroke="black" d="M107,-85.08C107,-106.12 107,-137.8 107,-137.8 107,-137.8 392.57,-137.8 392.57,-137.8"/>
<polygon fill="black" stroke="black" points="392.57,-141.3 402.57,-137.8 392.57,-134.3 392.57,-141.3"/>
</g>
<!-- CursusFullComponent  -->
<g id="node7" class="node">
<title>CursusFullComponent </title>
<polygon fill="#fb8072" stroke="black" points="613.28,-214.8 466.72,-214.8 466.72,-178.8 613.28,-178.8 613.28,-214.8"/>
<text text-anchor="middle" x="540" y="-192.6" font-family="Times,serif" font-size="14.00">CursusFullComponent </text>
</g>
<!-- CursusModule&#45;&gt;CursusFullComponent  -->
<g id="edge6" class="edge">
<title>CursusModule&#45;&gt;CursusFullComponent </title>
<path fill="none" stroke="black" stroke-dasharray="5,2" d="M484.04,-149.91C484.04,-149.91 484.04,-168.79 484.04,-168.79"/>
<polygon fill="black" stroke="black" points="480.54,-168.79 484.04,-178.79 487.54,-168.79 480.54,-168.79"/>
</g>
<!-- CursusPreviewComponent  -->
<g id="node8" class="node">
<title>CursusPreviewComponent </title>
<polygon fill="#fb8072" stroke="black" points="448.59,-214.8 279.41,-214.8 279.41,-178.8 448.59,-178.8 448.59,-214.8"/>
<text text-anchor="middle" x="364" y="-192.6" font-family="Times,serif" font-size="14.00">CursusPreviewComponent </text>
</g>
<!-- CursusModule&#45;&gt;CursusPreviewComponent  -->
<g id="edge7" class="edge">
<title>CursusModule&#45;&gt;CursusPreviewComponent </title>
<path fill="none" stroke="black" stroke-dasharray="5,2" d="M425.79,-149.91C425.79,-149.91 425.79,-168.79 425.79,-168.79"/>
<polygon fill="black" stroke="black" points="422.29,-168.79 425.79,-178.79 429.29,-168.79 422.29,-168.79"/>
</g>
<!-- PoiDescriptionModule -->
<g id="node4" class="node">
<title>PoiDescriptionModule</title>
<polygon fill="#8dd3c7" stroke="black" points="819.54,-84.8 816.54,-88.8 795.54,-88.8 792.54,-84.8 676.46,-84.8 676.46,-48.8 819.54,-48.8 819.54,-84.8"/>
<text text-anchor="middle" x="748" y="-62.6" font-family="Times,serif" font-size="14.00">PoiDescriptionModule</text>
</g>
<!-- PoiDescriptionModule&#45;&gt;CursusModule -->
<g id="edge3" class="edge">
<title>PoiDescriptionModule&#45;&gt;CursusModule</title>
<path fill="none" stroke="black" d="M748,-85.08C748,-106.12 748,-137.8 748,-137.8 748,-137.8 511.54,-137.8 511.54,-137.8"/>
<polygon fill="black" stroke="black" points="511.54,-134.3 501.54,-137.8 511.54,-141.3 511.54,-134.3"/>
</g>
<!-- PoiLabelModule -->
<g id="node5" class="node">
<title>PoiLabelModule</title>
<polygon fill="#8dd3c7" stroke="black" points="658.1,-84.8 655.1,-88.8 634.1,-88.8 631.1,-84.8 547.9,-84.8 547.9,-48.8 658.1,-48.8 658.1,-84.8"/>
<text text-anchor="middle" x="603" y="-62.6" font-family="Times,serif" font-size="14.00">PoiLabelModule</text>
</g>
<!-- PoiLabelModule&#45;&gt;CursusModule -->
<g id="edge4" class="edge">
<title>PoiLabelModule&#45;&gt;CursusModule</title>
<path fill="none" stroke="black" d="M580.55,-84.82C580.55,-102.17 580.55,-125.8 580.55,-125.8 580.55,-125.8 511.33,-125.8 511.33,-125.8"/>
<polygon fill="black" stroke="black" points="511.33,-122.3 501.33,-125.8 511.33,-129.3 511.33,-122.3"/>
</g>
<!-- YoutubeWrapperModule -->
<g id="node6" class="node">
<title>YoutubeWrapperModule</title>
<polygon fill="#8dd3c7" stroke="black" points="530.23,-84.8 527.23,-88.8 506.23,-88.8 503.23,-84.8 373.77,-84.8 373.77,-48.8 530.23,-48.8 530.23,-84.8"/>
<text text-anchor="middle" x="452" y="-62.6" font-family="Times,serif" font-size="14.00">YoutubeWrapperModule</text>
</g>
<!-- YoutubeWrapperModule&#45;&gt;CursusModule -->
<g id="edge5" class="edge">
<title>YoutubeWrapperModule&#45;&gt;CursusModule</title>
<path fill="none" stroke="black" d="M452,-84.91C452,-84.91 452,-103.79 452,-103.79"/>
<polygon fill="black" stroke="black" points="448.5,-103.79 452,-113.79 455.5,-103.79 448.5,-103.79"/>
</g>
</g>
</svg>
