<?xml version="1.0" encoding="UTF-8" standalone="no"?>
<!DOCTYPE svg PUBLIC "-//W3C//DTD SVG 1.1//EN"
 "http://www.w3.org/Graphics/SVG/1.1/DTD/svg11.dtd">
<!-- Generated by graphviz version 2.47.3 (20210619.1520)
 -->
<!-- Title: dependencies Pages: 1 -->
<svg width="644pt" height="247pt"
 viewBox="0.00 0.00 644.00 246.80" xmlns="http://www.w3.org/2000/svg" xmlns:xlink="http://www.w3.org/1999/xlink">
<g id="graph0" class="graph" transform="scale(1 1) rotate(0) translate(4 242.8)">
<title>dependencies</title>
<polygon fill="white" stroke="transparent" points="-4,4 -4,-242.8 640,-242.8 640,4 -4,4"/>
<text text-anchor="middle" x="318" y="-8.2" font-family="sans-serif" font-size="14.00">dependencies</text>
<g id="clust1" class="cluster">
<title>cluster_HumanDetailsDialogModule</title>
<polygon fill="none" stroke="black" stroke-dasharray="1,5" points="8,-32.8 8,-230.8 628,-230.8 628,-32.8 8,-32.8"/>
</g>
<g id="clust5" class="cluster">
<title>cluster_HumanDetailsDialogModule_exports</title>
<polygon fill="none" stroke="black" points="204,-170.8 204,-222.8 424,-222.8 424,-170.8 204,-170.8"/>
</g>
<g id="clust4" class="cluster">
<title>cluster_HumanDetailsDialogModule_imports</title>
<polygon fill="none" stroke="black" points="240,-40.8 240,-92.8 620,-92.8 620,-40.8 240,-40.8"/>
</g>
<g id="clust2" class="cluster">
<title>cluster_HumanDetailsDialogModule_declarations</title>
<polygon fill="none" stroke="black" points="16,-40.8 16,-92.8 232,-92.8 232,-40.8 16,-40.8"/>
</g>
<!-- HumanDetailsDialogComponent -->
<g id="node1" class="node">
<title>HumanDetailsDialogComponent</title>
<polygon fill="#ffffb3" stroke="black" points="224.3,-84.8 23.7,-84.8 23.7,-48.8 224.3,-48.8 224.3,-84.8"/>
<text text-anchor="middle" x="124" y="-62.6" font-family="Times,serif" font-size="14.00">HumanDetailsDialogComponent</text>
</g>
<!-- HumanDetailsDialogModule -->
<g id="node2" class="node">
<title>HumanDetailsDialogModule</title>
<polygon fill="#8dd3c7" stroke="black" points="403.02,-149.8 400.02,-153.8 379.02,-153.8 376.02,-149.8 224.98,-149.8 224.98,-113.8 403.02,-113.8 403.02,-149.8"/>
<text text-anchor="middle" x="314" y="-127.6" font-family="Times,serif" font-size="14.00">HumanDetailsDialogModule</text>
</g>
<!-- HumanDetailsDialogComponent&#45;&gt;HumanDetailsDialogModule -->
<g id="edge1" class="edge">
<title>HumanDetailsDialogComponent&#45;&gt;HumanDetailsDialogModule</title>
<path fill="none" stroke="black" d="M218.12,-84.91C218.12,-104.14 218.12,-131.8 218.12,-131.8 218.12,-131.8 218.78,-131.8 218.78,-131.8"/>
<polygon fill="black" stroke="black" points="214.71,-135.3 224.71,-131.8 214.71,-128.3 214.71,-135.3"/>
</g>
<!-- HumanDetailsDialogComponent  -->
<g id="node5" class="node">
<title>HumanDetailsDialogComponent </title>
<polygon fill="#fb8072" stroke="black" points="415.8,-214.8 212.2,-214.8 212.2,-178.8 415.8,-178.8 415.8,-214.8"/>
<text text-anchor="middle" x="314" y="-192.6" font-family="Times,serif" font-size="14.00">HumanDetailsDialogComponent </text>
</g>
<!-- HumanDetailsDialogModule&#45;&gt;HumanDetailsDialogComponent  -->
<g id="edge4" class="edge">
<title>HumanDetailsDialogModule&#45;&gt;HumanDetailsDialogComponent </title>
<path fill="none" stroke="black" stroke-dasharray="5,2" d="M314,-149.91C314,-149.91 314,-168.79 314,-168.79"/>
<polygon fill="black" stroke="black" points="310.5,-168.79 314,-178.79 317.5,-168.79 310.5,-168.79"/>
</g>
<!-- DialogWithMediaTemplateModule -->
<g id="node3" class="node">
<title>DialogWithMediaTemplateModule</title>
<polygon fill="#8dd3c7" stroke="black" points="612.28,-84.8 609.28,-88.8 588.28,-88.8 585.28,-84.8 397.72,-84.8 397.72,-48.8 612.28,-48.8 612.28,-84.8"/>
<text text-anchor="middle" x="505" y="-62.6" font-family="Times,serif" font-size="14.00">DialogWithMediaTemplateModule</text>
</g>
<!-- DialogWithMediaTemplateModule&#45;&gt;HumanDetailsDialogModule -->
<g id="edge2" class="edge">
<title>DialogWithMediaTemplateModule&#45;&gt;HumanDetailsDialogModule</title>
<path fill="none" stroke="black" d="M409.58,-84.91C409.58,-104.14 409.58,-131.8 409.58,-131.8 409.58,-131.8 408.95,-131.8 408.95,-131.8"/>
<polygon fill="black" stroke="black" points="413.31,-128.3 403.31,-131.8 413.31,-135.3 413.31,-128.3"/>
</g>
<!-- HumanStepsModule -->
<g id="node4" class="node">
<title>HumanStepsModule</title>
<polygon fill="#8dd3c7" stroke="black" points="379.59,-84.8 376.59,-88.8 355.59,-88.8 352.59,-84.8 248.41,-84.8 248.41,-48.8 379.59,-48.8 379.59,-84.8"/>
<text text-anchor="middle" x="314" y="-62.6" font-family="Times,serif" font-size="14.00">HumanStepsModule</text>
</g>
<!-- HumanStepsModule&#45;&gt;HumanDetailsDialogModule -->
<g id="edge3" class="edge">
<title>HumanStepsModule&#45;&gt;HumanDetailsDialogModule</title>
<path fill="none" stroke="black" d="M314,-84.91C314,-84.91 314,-103.79 314,-103.79"/>
<polygon fill="black" stroke="black" points="310.5,-103.79 314,-113.79 317.5,-103.79 310.5,-103.79"/>
</g>
</g>
</svg>
