<?xml version="1.0" encoding="UTF-8" standalone="no"?>
<!DOCTYPE svg PUBLIC "-//W3C//DTD SVG 1.1//EN"
 "http://www.w3.org/Graphics/SVG/1.1/DTD/svg11.dtd">
<!-- Generated by graphviz version 2.47.3 (20210619.1520)
 -->
<!-- Title: dependencies Pages: 1 -->
<svg width="532pt" height="174pt"
 viewBox="0.00 0.00 532.00 173.80" xmlns="http://www.w3.org/2000/svg" xmlns:xlink="http://www.w3.org/1999/xlink">
<g id="graph0" class="graph" transform="scale(1 1) rotate(0) translate(4 169.8)">
<title>dependencies</title>
<polygon fill="white" stroke="transparent" points="-4,4 -4,-169.8 528,-169.8 528,4 -4,4"/>
<text text-anchor="middle" x="262" y="-8.2" font-family="sans-serif" font-size="14.00">dependencies</text>
<g id="clust1" class="cluster">
<title>cluster_SearchDialogModule</title>
<polygon fill="none" stroke="black" stroke-dasharray="1,5" points="8,-32.8 8,-157.8 516,-157.8 516,-32.8 8,-32.8"/>
</g>
<g id="clust4" class="cluster">
<title>cluster_SearchDialogModule_imports</title>
<polygon fill="none" stroke="black" points="198,-40.8 198,-92.8 508,-92.8 508,-40.8 198,-40.8"/>
</g>
<g id="clust2" class="cluster">
<title>cluster_SearchDialogModule_declarations</title>
<polygon fill="none" stroke="black" points="16,-40.8 16,-92.8 190,-92.8 190,-40.8 16,-40.8"/>
</g>
<!-- SearchDialogComponent -->
<g id="node1" class="node">
<title>SearchDialogComponent</title>
<polygon fill="#ffffb3" stroke="black" points="181.52,-84.8 24.48,-84.8 24.48,-48.8 181.52,-48.8 181.52,-84.8"/>
<text text-anchor="middle" x="103" y="-62.6" font-family="Times,serif" font-size="14.00">SearchDialogComponent</text>
</g>
<!-- SearchDialogModule -->
<g id="node2" class="node">
<title>SearchDialogModule</title>
<polygon fill="#8dd3c7" stroke="black" points="337.74,-149.8 334.74,-153.8 313.74,-153.8 310.74,-149.8 202.26,-149.8 202.26,-113.8 337.74,-113.8 337.74,-149.8"/>
<text text-anchor="middle" x="270" y="-127.6" font-family="Times,serif" font-size="14.00">SearchDialogModule</text>
</g>
<!-- SearchDialogComponent&#45;&gt;SearchDialogModule -->
<g id="edge1" class="edge">
<title>SearchDialogComponent&#45;&gt;SearchDialogModule</title>
<path fill="none" stroke="black" d="M103,-84.91C103,-104.14 103,-131.8 103,-131.8 103,-131.8 192.07,-131.8 192.07,-131.8"/>
<polygon fill="black" stroke="black" points="192.07,-135.3 202.07,-131.8 192.07,-128.3 192.07,-135.3"/>
</g>
<!-- AutofocusInputModule -->
<g id="node3" class="node">
<title>AutofocusInputModule</title>
<polygon fill="#8dd3c7" stroke="black" points="499.92,-84.8 496.92,-88.8 475.92,-88.8 472.92,-84.8 352.08,-84.8 352.08,-48.8 499.92,-48.8 499.92,-84.8"/>
<text text-anchor="middle" x="426" y="-62.6" font-family="Times,serif" font-size="14.00">AutofocusInputModule</text>
</g>
<!-- AutofocusInputModule&#45;&gt;SearchDialogModule -->
<g id="edge2" class="edge">
<title>AutofocusInputModule&#45;&gt;SearchDialogModule</title>
<path fill="none" stroke="black" d="M426,-84.91C426,-104.14 426,-131.8 426,-131.8 426,-131.8 347.97,-131.8 347.97,-131.8"/>
<polygon fill="black" stroke="black" points="347.97,-128.3 337.97,-131.8 347.97,-135.3 347.97,-128.3"/>
</g>
<!-- SearchFormModule -->
<g id="node4" class="node">
<title>SearchFormModule</title>
<polygon fill="#8dd3c7" stroke="black" points="333.97,-84.8 330.97,-88.8 309.97,-88.8 306.97,-84.8 206.03,-84.8 206.03,-48.8 333.97,-48.8 333.97,-84.8"/>
<text text-anchor="middle" x="270" y="-62.6" font-family="Times,serif" font-size="14.00">SearchFormModule</text>
</g>
<!-- SearchFormModule&#45;&gt;SearchDialogModule -->
<g id="edge3" class="edge">
<title>SearchFormModule&#45;&gt;SearchDialogModule</title>
<path fill="none" stroke="black" d="M270,-84.91C270,-84.91 270,-103.79 270,-103.79"/>
<polygon fill="black" stroke="black" points="266.5,-103.79 270,-113.79 273.5,-103.79 266.5,-103.79"/>
</g>
</g>
</svg>
