<?xml version="1.0" encoding="UTF-8" standalone="no"?>
<!DOCTYPE svg PUBLIC "-//W3C//DTD SVG 1.1//EN"
 "http://www.w3.org/Graphics/SVG/1.1/DTD/svg11.dtd">
<!-- Generated by graphviz version 2.47.3 (20210619.1520)
 -->
<!-- Title: dependencies Pages: 1 -->
<svg width="350pt" height="247pt"
 viewBox="0.00 0.00 350.00 246.80" xmlns="http://www.w3.org/2000/svg" xmlns:xlink="http://www.w3.org/1999/xlink">
<g id="graph0" class="graph" transform="scale(1 1) rotate(0) translate(4 242.8)">
<title>dependencies</title>
<polygon fill="white" stroke="transparent" points="-4,4 -4,-242.8 346,-242.8 346,4 -4,4"/>
<text text-anchor="middle" x="171" y="-8.2" font-family="sans-serif" font-size="14.00">dependencies</text>
<g id="clust1" class="cluster">
<title>cluster_ProfileListModule</title>
<polygon fill="none" stroke="black" stroke-dasharray="1,5" points="8,-32.8 8,-230.8 334,-230.8 334,-32.8 8,-32.8"/>
</g>
<g id="clust2" class="cluster">
<title>cluster_ProfileListModule_declarations</title>
<polygon fill="none" stroke="black" points="168,-40.8 168,-92.8 326,-92.8 326,-40.8 168,-40.8"/>
</g>
<g id="clust5" class="cluster">
<title>cluster_ProfileListModule_exports</title>
<polygon fill="none" stroke="black" points="91,-170.8 91,-222.8 251,-222.8 251,-170.8 91,-170.8"/>
</g>
<g id="clust4" class="cluster">
<title>cluster_ProfileListModule_imports</title>
<polygon fill="none" stroke="black" points="16,-40.8 16,-92.8 160,-92.8 160,-40.8 16,-40.8"/>
</g>
<!-- ProfileListComponent -->
<g id="node1" class="node">
<title>ProfileListComponent</title>
<polygon fill="#ffffb3" stroke="black" points="317.71,-84.8 176.29,-84.8 176.29,-48.8 317.71,-48.8 317.71,-84.8"/>
<text text-anchor="middle" x="247" y="-62.6" font-family="Times,serif" font-size="14.00">ProfileListComponent</text>
</g>
<!-- ProfileListModule -->
<g id="node2" class="node">
<title>ProfileListModule</title>
<polygon fill="#8dd3c7" stroke="black" points="230.93,-149.8 227.93,-153.8 206.93,-153.8 203.93,-149.8 111.07,-149.8 111.07,-113.8 230.93,-113.8 230.93,-149.8"/>
<text text-anchor="middle" x="171" y="-127.6" font-family="Times,serif" font-size="14.00">ProfileListModule</text>
</g>
<!-- ProfileListComponent&#45;&gt;ProfileListModule -->
<g id="edge1" class="edge">
<title>ProfileListComponent&#45;&gt;ProfileListModule</title>
<path fill="none" stroke="black" d="M203.55,-84.91C203.55,-84.91 203.55,-103.79 203.55,-103.79"/>
<polygon fill="black" stroke="black" points="200.05,-103.79 203.55,-113.79 207.05,-103.79 200.05,-103.79"/>
</g>
<!-- ProfileListComponent  -->
<g id="node4" class="node">
<title>ProfileListComponent </title>
<polygon fill="#fb8072" stroke="black" points="243.21,-214.8 98.79,-214.8 98.79,-178.8 243.21,-178.8 243.21,-214.8"/>
<text text-anchor="middle" x="171" y="-192.6" font-family="Times,serif" font-size="14.00">ProfileListComponent </text>
</g>
<!-- ProfileListModule&#45;&gt;ProfileListComponent  -->
<g id="edge3" class="edge">
<title>ProfileListModule&#45;&gt;ProfileListComponent </title>
<path fill="none" stroke="black" stroke-dasharray="5,2" d="M171,-149.91C171,-149.91 171,-168.79 171,-168.79"/>
<polygon fill="black" stroke="black" points="167.5,-168.79 171,-178.79 174.5,-168.79 167.5,-168.79"/>
</g>
<!-- LangChoiceModule -->
<g id="node3" class="node">
<title>LangChoiceModule</title>
<polygon fill="#8dd3c7" stroke="black" points="151.97,-84.8 148.97,-88.8 127.97,-88.8 124.97,-84.8 24.03,-84.8 24.03,-48.8 151.97,-48.8 151.97,-84.8"/>
<text text-anchor="middle" x="88" y="-62.6" font-family="Times,serif" font-size="14.00">LangChoiceModule</text>
</g>
<!-- LangChoiceModule&#45;&gt;ProfileListModule -->
<g id="edge2" class="edge">
<title>LangChoiceModule&#45;&gt;ProfileListModule</title>
<path fill="none" stroke="black" d="M131.64,-84.91C131.64,-84.91 131.64,-103.79 131.64,-103.79"/>
<polygon fill="black" stroke="black" points="128.14,-103.79 131.64,-113.79 135.14,-103.79 128.14,-103.79"/>
</g>
</g>
</svg>
