<?xml version="1.0" encoding="UTF-8" standalone="no"?>
<!DOCTYPE svg PUBLIC "-//W3C//DTD SVG 1.1//EN"
 "http://www.w3.org/Graphics/SVG/1.1/DTD/svg11.dtd">
<!-- Generated by graphviz version 2.47.3 (20210619.1520)
 -->
<!-- Title: dependencies Pages: 1 -->
<svg width="432pt" height="247pt"
 viewBox="0.00 0.00 432.00 246.80" xmlns="http://www.w3.org/2000/svg" xmlns:xlink="http://www.w3.org/1999/xlink">
<g id="graph0" class="graph" transform="scale(1 1) rotate(0) translate(4 242.8)">
<title>dependencies</title>
<polygon fill="white" stroke="transparent" points="-4,4 -4,-242.8 428,-242.8 428,4 -4,4"/>
<text text-anchor="middle" x="212" y="-8.2" font-family="sans-serif" font-size="14.00">dependencies</text>
<g id="clust1" class="cluster">
<title>cluster_ItineraryStepCardModule</title>
<polygon fill="none" stroke="black" stroke-dasharray="1,5" points="8,-32.8 8,-230.8 416,-230.8 416,-32.8 8,-32.8"/>
</g>
<g id="clust5" class="cluster">
<title>cluster_ItineraryStepCardModule_exports</title>
<polygon fill="none" stroke="black" points="111,-170.8 111,-222.8 313,-222.8 313,-170.8 111,-170.8"/>
</g>
<g id="clust2" class="cluster">
<title>cluster_ItineraryStepCardModule_declarations</title>
<polygon fill="none" stroke="black" points="210,-40.8 210,-92.8 408,-92.8 408,-40.8 210,-40.8"/>
</g>
<g id="clust4" class="cluster">
<title>cluster_ItineraryStepCardModule_imports</title>
<polygon fill="none" stroke="black" points="16,-40.8 16,-92.8 202,-92.8 202,-40.8 16,-40.8"/>
</g>
<!-- ItineraryStepCardComponent -->
<g id="node1" class="node">
<title>ItineraryStepCardComponent</title>
<polygon fill="#ffffb3" stroke="black" points="399.62,-84.8 218.38,-84.8 218.38,-48.8 399.62,-48.8 399.62,-84.8"/>
<text text-anchor="middle" x="309" y="-62.6" font-family="Times,serif" font-size="14.00">ItineraryStepCardComponent</text>
</g>
<!-- ItineraryStepCardModule -->
<g id="node2" class="node">
<title>ItineraryStepCardModule</title>
<polygon fill="#8dd3c7" stroke="black" points="291.84,-149.8 288.84,-153.8 267.84,-153.8 264.84,-149.8 132.16,-149.8 132.16,-113.8 291.84,-113.8 291.84,-149.8"/>
<text text-anchor="middle" x="212" y="-127.6" font-family="Times,serif" font-size="14.00">ItineraryStepCardModule</text>
</g>
<!-- ItineraryStepCardComponent&#45;&gt;ItineraryStepCardModule -->
<g id="edge1" class="edge">
<title>ItineraryStepCardComponent&#45;&gt;ItineraryStepCardModule</title>
<path fill="none" stroke="black" d="M255.05,-84.91C255.05,-84.91 255.05,-103.79 255.05,-103.79"/>
<polygon fill="black" stroke="black" points="251.55,-103.79 255.05,-113.79 258.55,-103.79 251.55,-103.79"/>
</g>
<!-- ItineraryStepCardComponent  -->
<g id="node4" class="node">
<title>ItineraryStepCardComponent </title>
<polygon fill="#fb8072" stroke="black" points="304.62,-214.8 119.38,-214.8 119.38,-178.8 304.62,-178.8 304.62,-214.8"/>
<text text-anchor="middle" x="212" y="-192.6" font-family="Times,serif" font-size="14.00">ItineraryStepCardComponent </text>
</g>
<!-- ItineraryStepCardModule&#45;&gt;ItineraryStepCardComponent  -->
<g id="edge3" class="edge">
<title>ItineraryStepCardModule&#45;&gt;ItineraryStepCardComponent </title>
<path fill="none" stroke="black" stroke-dasharray="5,2" d="M212,-149.91C212,-149.91 212,-168.79 212,-168.79"/>
<polygon fill="black" stroke="black" points="208.5,-168.79 212,-178.79 215.5,-168.79 208.5,-168.79"/>
</g>
<!-- WaypointSummaryModule -->
<g id="node3" class="node">
<title>WaypointSummaryModule</title>
<polygon fill="#8dd3c7" stroke="black" points="193.7,-84.8 190.7,-88.8 169.7,-88.8 166.7,-84.8 24.3,-84.8 24.3,-48.8 193.7,-48.8 193.7,-84.8"/>
<text text-anchor="middle" x="109" y="-62.6" font-family="Times,serif" font-size="14.00">WaypointSummaryModule</text>
</g>
<!-- WaypointSummaryModule&#45;&gt;ItineraryStepCardModule -->
<g id="edge2" class="edge">
<title>WaypointSummaryModule&#45;&gt;ItineraryStepCardModule</title>
<path fill="none" stroke="black" d="M162.84,-84.91C162.84,-84.91 162.84,-103.79 162.84,-103.79"/>
<polygon fill="black" stroke="black" points="159.34,-103.79 162.84,-113.79 166.34,-103.79 159.34,-103.79"/>
</g>
</g>
</svg>
