<?xml version="1.0" encoding="UTF-8" standalone="no"?>
<!DOCTYPE svg PUBLIC "-//W3C//DTD SVG 1.1//EN"
 "http://www.w3.org/Graphics/SVG/1.1/DTD/svg11.dtd">
<!-- Generated by graphviz version 2.47.3 (20210619.1520)
 -->
<!-- Title: dependencies Pages: 1 -->
<svg width="688pt" height="174pt"
 viewBox="0.00 0.00 688.00 173.80" xmlns="http://www.w3.org/2000/svg" xmlns:xlink="http://www.w3.org/1999/xlink">
<g id="graph0" class="graph" transform="scale(1 1) rotate(0) translate(4 169.8)">
<title>dependencies</title>
<polygon fill="white" stroke="transparent" points="-4,4 -4,-169.8 684,-169.8 684,4 -4,4"/>
<text text-anchor="middle" x="340" y="-8.2" font-family="sans-serif" font-size="14.00">dependencies</text>
<g id="clust1" class="cluster">
<title>cluster_ExpeditionStepStaticPageModule</title>
<polygon fill="none" stroke="black" stroke-dasharray="1,5" points="8,-32.8 8,-157.8 672,-157.8 672,-32.8 8,-32.8"/>
</g>
<g id="clust4" class="cluster">
<title>cluster_ExpeditionStepStaticPageModule_imports</title>
<polygon fill="none" stroke="black" points="266,-40.8 266,-92.8 664,-92.8 664,-40.8 266,-40.8"/>
</g>
<g id="clust2" class="cluster">
<title>cluster_ExpeditionStepStaticPageModule_declarations</title>
<polygon fill="none" stroke="black" points="16,-40.8 16,-92.8 258,-92.8 258,-40.8 16,-40.8"/>
</g>
<!-- ExpeditionStepStaticPageComponent -->
<g id="node1" class="node">
<title>ExpeditionStepStaticPageComponent</title>
<polygon fill="#ffffb3" stroke="black" points="250.25,-84.8 23.75,-84.8 23.75,-48.8 250.25,-48.8 250.25,-84.8"/>
<text text-anchor="middle" x="137" y="-62.6" font-family="Times,serif" font-size="14.00">ExpeditionStepStaticPageComponent</text>
</g>
<!-- ExpeditionStepStaticPageModule -->
<g id="node2" class="node">
<title>ExpeditionStepStaticPageModule</title>
<polygon fill="#8dd3c7" stroke="black" points="452.47,-149.8 449.47,-153.8 428.47,-153.8 425.47,-149.8 247.53,-149.8 247.53,-113.8 452.47,-113.8 452.47,-149.8"/>
<text text-anchor="middle" x="350" y="-127.6" font-family="Times,serif" font-size="14.00">ExpeditionStepStaticPageModule</text>
</g>
<!-- ExpeditionStepStaticPageComponent&#45;&gt;ExpeditionStepStaticPageModule -->
<g id="edge1" class="edge">
<title>ExpeditionStepStaticPageComponent&#45;&gt;ExpeditionStepStaticPageModule</title>
<path fill="none" stroke="black" d="M250.62,-66.8C257.77,-66.8 262.17,-66.8 262.17,-66.8 262.17,-66.8 262.17,-103.69 262.17,-103.69"/>
<polygon fill="black" stroke="black" points="258.67,-103.69 262.17,-113.69 265.67,-103.69 258.67,-103.69"/>
</g>
<!-- ExpeditionStepDescriptionModule -->
<g id="node3" class="node">
<title>ExpeditionStepDescriptionModule</title>
<polygon fill="#8dd3c7" stroke="black" points="655.69,-84.8 652.69,-88.8 631.69,-88.8 628.69,-84.8 444.31,-84.8 444.31,-48.8 655.69,-48.8 655.69,-84.8"/>
<text text-anchor="middle" x="550" y="-62.6" font-family="Times,serif" font-size="14.00">ExpeditionStepDescriptionModule</text>
</g>
<!-- ExpeditionStepDescriptionModule&#45;&gt;ExpeditionStepStaticPageModule -->
<g id="edge2" class="edge">
<title>ExpeditionStepDescriptionModule&#45;&gt;ExpeditionStepStaticPageModule</title>
<path fill="none" stroke="black" d="M448.45,-84.91C448.45,-84.91 448.45,-103.79 448.45,-103.79"/>
<polygon fill="black" stroke="black" points="444.95,-103.79 448.45,-113.79 451.95,-103.79 444.95,-103.79"/>
</g>
<!-- SimpleTemplateModule -->
<g id="node4" class="node">
<title>SimpleTemplateModule</title>
<polygon fill="#8dd3c7" stroke="black" points="426.09,-84.8 423.09,-88.8 402.09,-88.8 399.09,-84.8 273.91,-84.8 273.91,-48.8 426.09,-48.8 426.09,-84.8"/>
<text text-anchor="middle" x="350" y="-62.6" font-family="Times,serif" font-size="14.00">SimpleTemplateModule</text>
</g>
<!-- SimpleTemplateModule&#45;&gt;ExpeditionStepStaticPageModule -->
<g id="edge3" class="edge">
<title>SimpleTemplateModule&#45;&gt;ExpeditionStepStaticPageModule</title>
<path fill="none" stroke="black" d="M350,-84.91C350,-84.91 350,-103.79 350,-103.79"/>
<polygon fill="black" stroke="black" points="346.5,-103.79 350,-113.79 353.5,-103.79 346.5,-103.79"/>
</g>
</g>
</svg>
