<?xml version="1.0" encoding="UTF-8" standalone="no"?>
<!DOCTYPE svg PUBLIC "-//W3C//DTD SVG 1.1//EN"
 "http://www.w3.org/Graphics/SVG/1.1/DTD/svg11.dtd">
<!-- Generated by graphviz version 2.47.3 (20210619.1520)
 -->
<!-- Title: dependencies Pages: 1 -->
<svg width="528pt" height="174pt"
 viewBox="0.00 0.00 528.00 173.80" xmlns="http://www.w3.org/2000/svg" xmlns:xlink="http://www.w3.org/1999/xlink">
<g id="graph0" class="graph" transform="scale(1 1) rotate(0) translate(4 169.8)">
<title>dependencies</title>
<polygon fill="white" stroke="transparent" points="-4,4 -4,-169.8 524,-169.8 524,4 -4,4"/>
<text text-anchor="middle" x="260" y="-8.2" font-family="sans-serif" font-size="14.00">dependencies</text>
<g id="clust1" class="cluster">
<title>cluster_HelpPageModule</title>
<polygon fill="none" stroke="black" stroke-dasharray="1,5" points="8,-32.8 8,-157.8 512,-157.8 512,-32.8 8,-32.8"/>
</g>
<g id="clust2" class="cluster">
<title>cluster_HelpPageModule_declarations</title>
<polygon fill="none" stroke="black" points="352,-40.8 352,-92.8 504,-92.8 504,-40.8 352,-40.8"/>
</g>
<g id="clust4" class="cluster">
<title>cluster_HelpPageModule_imports</title>
<polygon fill="none" stroke="black" points="16,-40.8 16,-92.8 344,-92.8 344,-40.8 16,-40.8"/>
</g>
<!-- HelpPageComponent -->
<g id="node1" class="node">
<title>HelpPageComponent</title>
<polygon fill="#ffffb3" stroke="black" points="495.76,-84.8 360.24,-84.8 360.24,-48.8 495.76,-48.8 495.76,-84.8"/>
<text text-anchor="middle" x="428" y="-62.6" font-family="Times,serif" font-size="14.00">HelpPageComponent</text>
</g>
<!-- HelpPageModule -->
<g id="node2" class="node">
<title>HelpPageModule</title>
<polygon fill="#8dd3c7" stroke="black" points="332.97,-149.8 329.97,-153.8 308.97,-153.8 305.97,-149.8 219.03,-149.8 219.03,-113.8 332.97,-113.8 332.97,-149.8"/>
<text text-anchor="middle" x="276" y="-127.6" font-family="Times,serif" font-size="14.00">HelpPageModule</text>
</g>
<!-- HelpPageComponent&#45;&gt;HelpPageModule -->
<g id="edge1" class="edge">
<title>HelpPageComponent&#45;&gt;HelpPageModule</title>
<path fill="none" stroke="black" d="M428,-84.91C428,-104.14 428,-131.8 428,-131.8 428,-131.8 343.03,-131.8 343.03,-131.8"/>
<polygon fill="black" stroke="black" points="343.03,-128.3 333.03,-131.8 343.03,-135.3 343.03,-128.3"/>
</g>
<!-- HelpMenuModule -->
<g id="node3" class="node">
<title>HelpMenuModule</title>
<polygon fill="#8dd3c7" stroke="black" points="335.92,-84.8 332.92,-88.8 311.92,-88.8 308.92,-84.8 216.08,-84.8 216.08,-48.8 335.92,-48.8 335.92,-84.8"/>
<text text-anchor="middle" x="276" y="-62.6" font-family="Times,serif" font-size="14.00">HelpMenuModule</text>
</g>
<!-- HelpMenuModule&#45;&gt;HelpPageModule -->
<g id="edge2" class="edge">
<title>HelpMenuModule&#45;&gt;HelpPageModule</title>
<path fill="none" stroke="black" d="M276,-84.91C276,-84.91 276,-103.79 276,-103.79"/>
<polygon fill="black" stroke="black" points="272.5,-103.79 276,-113.79 279.5,-103.79 272.5,-103.79"/>
</g>
<!-- NavigationTemplateModule -->
<g id="node4" class="node">
<title>NavigationTemplateModule</title>
<polygon fill="#8dd3c7" stroke="black" points="198.13,-84.8 195.13,-88.8 174.13,-88.8 171.13,-84.8 23.87,-84.8 23.87,-48.8 198.13,-48.8 198.13,-84.8"/>
<text text-anchor="middle" x="111" y="-62.6" font-family="Times,serif" font-size="14.00">NavigationTemplateModule</text>
</g>
<!-- NavigationTemplateModule&#45;&gt;HelpPageModule -->
<g id="edge3" class="edge">
<title>NavigationTemplateModule&#45;&gt;HelpPageModule</title>
<path fill="none" stroke="black" d="M111,-84.91C111,-104.14 111,-131.8 111,-131.8 111,-131.8 208.75,-131.8 208.75,-131.8"/>
<polygon fill="black" stroke="black" points="208.75,-135.3 218.75,-131.8 208.75,-128.3 208.75,-135.3"/>
</g>
</g>
</svg>
