<?xml version="1.0" encoding="UTF-8" standalone="no"?>
<!DOCTYPE svg PUBLIC "-//W3C//DTD SVG 1.1//EN"
 "http://www.w3.org/Graphics/SVG/1.1/DTD/svg11.dtd">
<!-- Generated by graphviz version 2.47.3 (20210619.1520)
 -->
<!-- Title: dependencies Pages: 1 -->
<svg width="932pt" height="174pt"
 viewBox="0.00 0.00 932.00 173.80" xmlns="http://www.w3.org/2000/svg" xmlns:xlink="http://www.w3.org/1999/xlink">
<g id="graph0" class="graph" transform="scale(1 1) rotate(0) translate(4 169.8)">
<title>dependencies</title>
<polygon fill="white" stroke="transparent" points="-4,4 -4,-169.8 928,-169.8 928,4 -4,4"/>
<text text-anchor="middle" x="462" y="-8.2" font-family="sans-serif" font-size="14.00">dependencies</text>
<g id="clust1" class="cluster">
<title>cluster_AdminApplicationPageModule</title>
<polygon fill="none" stroke="black" stroke-dasharray="1,5" points="8,-32.8 8,-157.8 916,-157.8 916,-32.8 8,-32.8"/>
</g>
<g id="clust7" class="cluster">
<title>cluster_AdminApplicationPageModule_providers</title>
<polygon fill="none" stroke="black" points="668,-40.8 668,-92.8 908,-92.8 908,-40.8 668,-40.8"/>
</g>
<g id="clust4" class="cluster">
<title>cluster_AdminApplicationPageModule_imports</title>
<polygon fill="none" stroke="black" points="226,-40.8 226,-92.8 660,-92.8 660,-40.8 226,-40.8"/>
</g>
<g id="clust2" class="cluster">
<title>cluster_AdminApplicationPageModule_declarations</title>
<polygon fill="none" stroke="black" points="16,-40.8 16,-92.8 218,-92.8 218,-40.8 16,-40.8"/>
</g>
<!-- AdminApplicationComponent -->
<g id="node1" class="node">
<title>AdminApplicationComponent</title>
<polygon fill="#ffffb3" stroke="black" points="210.32,-84.8 23.68,-84.8 23.68,-48.8 210.32,-48.8 210.32,-84.8"/>
<text text-anchor="middle" x="117" y="-62.6" font-family="Times,serif" font-size="14.00">AdminApplicationComponent</text>
</g>
<!-- AdminApplicationPageModule -->
<g id="node2" class="node">
<title>AdminApplicationPageModule</title>
<polygon fill="#8dd3c7" stroke="black" points="501.75,-149.8 498.75,-153.8 477.75,-153.8 474.75,-149.8 310.25,-149.8 310.25,-113.8 501.75,-113.8 501.75,-149.8"/>
<text text-anchor="middle" x="406" y="-127.6" font-family="Times,serif" font-size="14.00">AdminApplicationPageModule</text>
</g>
<!-- AdminApplicationComponent&#45;&gt;AdminApplicationPageModule -->
<g id="edge1" class="edge">
<title>AdminApplicationComponent&#45;&gt;AdminApplicationPageModule</title>
<path fill="none" stroke="black" d="M117,-84.91C117,-104.14 117,-131.8 117,-131.8 117,-131.8 300.17,-131.8 300.17,-131.8"/>
<polygon fill="black" stroke="black" points="300.17,-135.3 310.17,-131.8 300.17,-128.3 300.17,-135.3"/>
</g>
<!-- AdminImageFormModule -->
<g id="node3" class="node">
<title>AdminImageFormModule</title>
<polygon fill="#8dd3c7" stroke="black" points="651.75,-84.8 648.75,-88.8 627.75,-88.8 624.75,-84.8 488.25,-84.8 488.25,-48.8 651.75,-48.8 651.75,-84.8"/>
<text text-anchor="middle" x="570" y="-62.6" font-family="Times,serif" font-size="14.00">AdminImageFormModule</text>
</g>
<!-- AdminImageFormModule&#45;&gt;AdminApplicationPageModule -->
<g id="edge2" class="edge">
<title>AdminImageFormModule&#45;&gt;AdminApplicationPageModule</title>
<path fill="none" stroke="black" d="M495,-84.91C495,-84.91 495,-103.79 495,-103.79"/>
<polygon fill="black" stroke="black" points="491.5,-103.79 495,-113.79 498.5,-103.79 491.5,-103.79"/>
</g>
<!-- AdminLogoModule -->
<g id="node4" class="node">
<title>AdminLogoModule</title>
<polygon fill="#8dd3c7" stroke="black" points="469.99,-84.8 466.99,-88.8 445.99,-88.8 442.99,-84.8 342.01,-84.8 342.01,-48.8 469.99,-48.8 469.99,-84.8"/>
<text text-anchor="middle" x="406" y="-62.6" font-family="Times,serif" font-size="14.00">AdminLogoModule</text>
</g>
<!-- AdminLogoModule&#45;&gt;AdminApplicationPageModule -->
<g id="edge3" class="edge">
<title>AdminLogoModule&#45;&gt;AdminApplicationPageModule</title>
<path fill="none" stroke="black" d="M406,-84.91C406,-84.91 406,-103.79 406,-103.79"/>
<polygon fill="black" stroke="black" points="402.5,-103.79 406,-113.79 409.5,-103.79 402.5,-103.79"/>
</g>
<!-- LogoModule -->
<g id="node5" class="node">
<title>LogoModule</title>
<polygon fill="#8dd3c7" stroke="black" points="323.6,-84.8 320.6,-88.8 299.6,-88.8 296.6,-84.8 234.4,-84.8 234.4,-48.8 323.6,-48.8 323.6,-84.8"/>
<text text-anchor="middle" x="279" y="-62.6" font-family="Times,serif" font-size="14.00">LogoModule</text>
</g>
<!-- LogoModule&#45;&gt;AdminApplicationPageModule -->
<g id="edge4" class="edge">
<title>LogoModule&#45;&gt;AdminApplicationPageModule</title>
<path fill="none" stroke="black" d="M316.84,-84.91C316.84,-84.91 316.84,-103.79 316.84,-103.79"/>
<polygon fill="black" stroke="black" points="313.34,-103.79 316.84,-113.79 320.34,-103.79 313.34,-103.79"/>
</g>
<!-- AdminApplicationService -->
<g id="node6" class="node">
<title>AdminApplicationService</title>
<ellipse fill="#fdb462" stroke="black" cx="788" cy="-66.8" rx="112.32" ry="18"/>
<text text-anchor="middle" x="788" y="-62.6" font-family="Times,serif" font-size="14.00">AdminApplicationService</text>
</g>
<!-- AdminApplicationService&#45;&gt;AdminApplicationPageModule -->
<g id="edge5" class="edge">
<title>AdminApplicationService&#45;&gt;AdminApplicationPageModule</title>
<path fill="none" stroke="black" d="M788,-84.91C788,-104.14 788,-131.8 788,-131.8 788,-131.8 511.9,-131.8 511.9,-131.8"/>
<polygon fill="black" stroke="black" points="511.9,-128.3 501.9,-131.8 511.9,-135.3 511.9,-128.3"/>
</g>
</g>
</svg>
