<?xml version="1.0" encoding="UTF-8" standalone="no"?>
<!DOCTYPE svg PUBLIC "-//W3C//DTD SVG 1.1//EN"
 "http://www.w3.org/Graphics/SVG/1.1/DTD/svg11.dtd">
<!-- Generated by graphviz version 2.47.3 (20210619.1520)
 -->
<!-- Title: dependencies Pages: 1 -->
<svg width="490pt" height="247pt"
 viewBox="0.00 0.00 490.00 246.80" xmlns="http://www.w3.org/2000/svg" xmlns:xlink="http://www.w3.org/1999/xlink">
<g id="graph0" class="graph" transform="scale(1 1) rotate(0) translate(4 242.8)">
<title>dependencies</title>
<polygon fill="white" stroke="transparent" points="-4,4 -4,-242.8 486,-242.8 486,4 -4,4"/>
<text text-anchor="middle" x="241" y="-8.2" font-family="sans-serif" font-size="14.00">dependencies</text>
<g id="clust1" class="cluster">
<title>cluster_AdminImageFormModule</title>
<polygon fill="none" stroke="black" stroke-dasharray="1,5" points="8,-32.8 8,-230.8 474,-230.8 474,-32.8 8,-32.8"/>
</g>
<g id="clust7" class="cluster">
<title>cluster_AdminImageFormModule_providers</title>
<polygon fill="none" stroke="black" points="226,-40.8 226,-92.8 466,-92.8 466,-40.8 226,-40.8"/>
</g>
<g id="clust5" class="cluster">
<title>cluster_AdminImageFormModule_exports</title>
<polygon fill="none" stroke="black" points="129,-170.8 129,-222.8 335,-222.8 335,-170.8 129,-170.8"/>
</g>
<g id="clust2" class="cluster">
<title>cluster_AdminImageFormModule_declarations</title>
<polygon fill="none" stroke="black" points="16,-40.8 16,-92.8 218,-92.8 218,-40.8 16,-40.8"/>
</g>
<!-- AdminImageFormComponent -->
<g id="node1" class="node">
<title>AdminImageFormComponent</title>
<polygon fill="#ffffb3" stroke="black" points="209.53,-84.8 24.47,-84.8 24.47,-48.8 209.53,-48.8 209.53,-84.8"/>
<text text-anchor="middle" x="117" y="-62.6" font-family="Times,serif" font-size="14.00">AdminImageFormComponent</text>
</g>
<!-- AdminImageFormModule -->
<g id="node2" class="node">
<title>AdminImageFormModule</title>
<polygon fill="#8dd3c7" stroke="black" points="313.75,-149.8 310.75,-153.8 289.75,-153.8 286.75,-149.8 150.25,-149.8 150.25,-113.8 313.75,-113.8 313.75,-149.8"/>
<text text-anchor="middle" x="232" y="-127.6" font-family="Times,serif" font-size="14.00">AdminImageFormModule</text>
</g>
<!-- AdminImageFormComponent&#45;&gt;AdminImageFormModule -->
<g id="edge1" class="edge">
<title>AdminImageFormComponent&#45;&gt;AdminImageFormModule</title>
<path fill="none" stroke="black" d="M179.95,-84.91C179.95,-84.91 179.95,-103.79 179.95,-103.79"/>
<polygon fill="black" stroke="black" points="176.45,-103.79 179.95,-113.79 183.45,-103.79 176.45,-103.79"/>
</g>
<!-- AdminImageFormComponent  -->
<g id="node3" class="node">
<title>AdminImageFormComponent </title>
<polygon fill="#fb8072" stroke="black" points="326.53,-214.8 137.47,-214.8 137.47,-178.8 326.53,-178.8 326.53,-214.8"/>
<text text-anchor="middle" x="232" y="-192.6" font-family="Times,serif" font-size="14.00">AdminImageFormComponent </text>
</g>
<!-- AdminImageFormModule&#45;&gt;AdminImageFormComponent  -->
<g id="edge2" class="edge">
<title>AdminImageFormModule&#45;&gt;AdminImageFormComponent </title>
<path fill="none" stroke="black" stroke-dasharray="5,2" d="M232,-149.91C232,-149.91 232,-168.79 232,-168.79"/>
<polygon fill="black" stroke="black" points="228.5,-168.79 232,-178.79 235.5,-168.79 228.5,-168.79"/>
</g>
<!-- AdminApplicationService -->
<g id="node4" class="node">
<title>AdminApplicationService</title>
<ellipse fill="#fdb462" stroke="black" cx="346" cy="-66.8" rx="112.32" ry="18"/>
<text text-anchor="middle" x="346" y="-62.6" font-family="Times,serif" font-size="14.00">AdminApplicationService</text>
</g>
<!-- AdminApplicationService&#45;&gt;AdminImageFormModule -->
<g id="edge3" class="edge">
<title>AdminApplicationService&#45;&gt;AdminImageFormModule</title>
<path fill="none" stroke="black" d="M273.73,-80.9C273.73,-80.9 273.73,-103.52 273.73,-103.52"/>
<polygon fill="black" stroke="black" points="270.23,-103.52 273.73,-113.52 277.23,-103.52 270.23,-103.52"/>
</g>
</g>
</svg>
