<?xml version="1.0" encoding="UTF-8" standalone="no"?>
<!DOCTYPE svg PUBLIC "-//W3C//DTD SVG 1.1//EN"
 "http://www.w3.org/Graphics/SVG/1.1/DTD/svg11.dtd">
<!-- Generated by graphviz version 2.47.3 (20210619.1520)
 -->
<!-- Title: dependencies Pages: 1 -->
<svg width="947pt" height="247pt"
 viewBox="0.00 0.00 947.00 246.80" xmlns="http://www.w3.org/2000/svg" xmlns:xlink="http://www.w3.org/1999/xlink">
<g id="graph0" class="graph" transform="scale(1 1) rotate(0) translate(4 242.8)">
<title>dependencies</title>
<polygon fill="white" stroke="transparent" points="-4,4 -4,-242.8 943,-242.8 943,4 -4,4"/>
<text text-anchor="middle" x="469.5" y="-8.2" font-family="sans-serif" font-size="14.00">dependencies</text>
<g id="clust1" class="cluster">
<title>cluster_MoocsModule</title>
<polygon fill="none" stroke="black" stroke-dasharray="1,5" points="8,-32.8 8,-230.8 931,-230.8 931,-32.8 8,-32.8"/>
</g>
<g id="clust2" class="cluster">
<title>cluster_MoocsModule_declarations</title>
<polygon fill="none" stroke="black" points="581,-40.8 581,-92.8 923,-92.8 923,-40.8 581,-40.8"/>
</g>
<g id="clust5" class="cluster">
<title>cluster_MoocsModule_imports</title>
<polygon fill="none" stroke="black" points="16,-40.8 16,-92.8 573,-92.8 573,-40.8 16,-40.8"/>
</g>
<g id="clust6" class="cluster">
<title>cluster_MoocsModule_exports</title>
<polygon fill="none" stroke="black" points="281,-170.8 281,-222.8 629,-222.8 629,-170.8 281,-170.8"/>
</g>
<!-- MoocsFullComponent -->
<g id="node1" class="node">
<title>MoocsFullComponent</title>
<polygon fill="#ffffb3" stroke="black" points="915,-84.8 773,-84.8 773,-48.8 915,-48.8 915,-84.8"/>
<text text-anchor="middle" x="844" y="-62.6" font-family="Times,serif" font-size="14.00">MoocsFullComponent</text>
</g>
<!-- MoocsModule -->
<g id="node3" class="node">
<title>MoocsModule</title>
<polygon fill="#8dd3c7" stroke="black" points="508.65,-149.8 505.65,-153.8 484.65,-153.8 481.65,-149.8 411.35,-149.8 411.35,-113.8 508.65,-113.8 508.65,-149.8"/>
<text text-anchor="middle" x="460" y="-127.6" font-family="Times,serif" font-size="14.00">MoocsModule</text>
</g>
<!-- MoocsFullComponent&#45;&gt;MoocsModule -->
<g id="edge1" class="edge">
<title>MoocsFullComponent&#45;&gt;MoocsModule</title>
<path fill="none" stroke="black" d="M844,-85.08C844,-106.12 844,-137.8 844,-137.8 844,-137.8 519.02,-137.8 519.02,-137.8"/>
<polygon fill="black" stroke="black" points="519.02,-134.3 509.02,-137.8 519.02,-141.3 519.02,-134.3"/>
</g>
<!-- MoocsPreviewComponent -->
<g id="node2" class="node">
<title>MoocsPreviewComponent</title>
<polygon fill="#ffffb3" stroke="black" points="754.81,-84.8 589.19,-84.8 589.19,-48.8 754.81,-48.8 754.81,-84.8"/>
<text text-anchor="middle" x="672" y="-62.6" font-family="Times,serif" font-size="14.00">MoocsPreviewComponent</text>
</g>
<!-- MoocsPreviewComponent&#45;&gt;MoocsModule -->
<g id="edge2" class="edge">
<title>MoocsPreviewComponent&#45;&gt;MoocsModule</title>
<path fill="none" stroke="black" d="M605.05,-84.82C605.05,-102.17 605.05,-125.8 605.05,-125.8 605.05,-125.8 518.7,-125.8 518.7,-125.8"/>
<polygon fill="black" stroke="black" points="518.7,-122.3 508.7,-125.8 518.7,-129.3 518.7,-122.3"/>
</g>
<!-- MoocsFullComponent  -->
<g id="node8" class="node">
<title>MoocsFullComponent </title>
<polygon fill="#fb8072" stroke="black" points="620.5,-214.8 475.5,-214.8 475.5,-178.8 620.5,-178.8 620.5,-214.8"/>
<text text-anchor="middle" x="548" y="-192.6" font-family="Times,serif" font-size="14.00">MoocsFullComponent </text>
</g>
<!-- MoocsModule&#45;&gt;MoocsFullComponent  -->
<g id="edge7" class="edge">
<title>MoocsModule&#45;&gt;MoocsFullComponent </title>
<path fill="none" stroke="black" stroke-dasharray="5,2" d="M492.04,-149.91C492.04,-149.91 492.04,-168.79 492.04,-168.79"/>
<polygon fill="black" stroke="black" points="488.54,-168.79 492.04,-178.79 495.54,-168.79 488.54,-168.79"/>
</g>
<!-- MoocsPreviewComponent  -->
<g id="node9" class="node">
<title>MoocsPreviewComponent </title>
<polygon fill="#fb8072" stroke="black" points="457.31,-214.8 288.69,-214.8 288.69,-178.8 457.31,-178.8 457.31,-214.8"/>
<text text-anchor="middle" x="373" y="-192.6" font-family="Times,serif" font-size="14.00">MoocsPreviewComponent </text>
</g>
<!-- MoocsModule&#45;&gt;MoocsPreviewComponent  -->
<g id="edge8" class="edge">
<title>MoocsModule&#45;&gt;MoocsPreviewComponent </title>
<path fill="none" stroke="black" stroke-dasharray="5,2" d="M434.29,-149.91C434.29,-149.91 434.29,-168.79 434.29,-168.79"/>
<polygon fill="black" stroke="black" points="430.79,-168.79 434.29,-178.79 437.79,-168.79 430.79,-168.79"/>
</g>
<!-- MoocModule -->
<g id="node4" class="node">
<title>MoocModule</title>
<polygon fill="#8dd3c7" stroke="black" points="565.21,-84.8 562.21,-88.8 541.21,-88.8 538.21,-84.8 472.79,-84.8 472.79,-48.8 565.21,-48.8 565.21,-84.8"/>
<text text-anchor="middle" x="519" y="-62.6" font-family="Times,serif" font-size="14.00">MoocModule</text>
</g>
<!-- MoocModule&#45;&gt;MoocsModule -->
<g id="edge3" class="edge">
<title>MoocModule&#45;&gt;MoocsModule</title>
<path fill="none" stroke="black" d="M490.86,-84.91C490.86,-84.91 490.86,-103.79 490.86,-103.79"/>
<polygon fill="black" stroke="black" points="487.36,-103.79 490.86,-113.79 494.36,-103.79 487.36,-103.79"/>
</g>
<!-- PoiCardModule -->
<g id="node5" class="node">
<title>PoiCardModule</title>
<polygon fill="#8dd3c7" stroke="black" points="454.94,-84.8 451.94,-88.8 430.94,-88.8 427.94,-84.8 349.06,-84.8 349.06,-48.8 454.94,-48.8 454.94,-84.8"/>
<text text-anchor="middle" x="402" y="-62.6" font-family="Times,serif" font-size="14.00">PoiCardModule</text>
</g>
<!-- PoiCardModule&#45;&gt;MoocsModule -->
<g id="edge4" class="edge">
<title>PoiCardModule&#45;&gt;MoocsModule</title>
<path fill="none" stroke="black" d="M432.95,-84.91C432.95,-84.91 432.95,-103.79 432.95,-103.79"/>
<polygon fill="black" stroke="black" points="429.45,-103.79 432.95,-113.79 436.45,-103.79 429.45,-103.79"/>
</g>
<!-- PreviewSectionModule -->
<g id="node6" class="node">
<title>PreviewSectionModule</title>
<polygon fill="#8dd3c7" stroke="black" points="331.91,-84.8 328.91,-88.8 307.91,-88.8 304.91,-84.8 184.09,-84.8 184.09,-48.8 331.91,-48.8 331.91,-84.8"/>
<text text-anchor="middle" x="258" y="-62.6" font-family="Times,serif" font-size="14.00">PreviewSectionModule</text>
</g>
<!-- PreviewSectionModule&#45;&gt;MoocsModule -->
<g id="edge5" class="edge">
<title>PreviewSectionModule&#45;&gt;MoocsModule</title>
<path fill="none" stroke="black" d="M310.15,-84.82C310.15,-102.17 310.15,-125.8 310.15,-125.8 310.15,-125.8 400.93,-125.8 400.93,-125.8"/>
<polygon fill="black" stroke="black" points="400.93,-129.3 410.93,-125.8 400.93,-122.3 400.93,-129.3"/>
</g>
<!-- ScrollWrapperModule -->
<g id="node7" class="node">
<title>ScrollWrapperModule</title>
<polygon fill="#8dd3c7" stroke="black" points="165.95,-84.8 162.95,-88.8 141.95,-88.8 138.95,-84.8 24.05,-84.8 24.05,-48.8 165.95,-48.8 165.95,-84.8"/>
<text text-anchor="middle" x="95" y="-62.6" font-family="Times,serif" font-size="14.00">ScrollWrapperModule</text>
</g>
<!-- ScrollWrapperModule&#45;&gt;MoocsModule -->
<g id="edge6" class="edge">
<title>ScrollWrapperModule&#45;&gt;MoocsModule</title>
<path fill="none" stroke="black" d="M95,-85.08C95,-106.12 95,-137.8 95,-137.8 95,-137.8 401.15,-137.8 401.15,-137.8"/>
<polygon fill="black" stroke="black" points="401.15,-141.3 411.15,-137.8 401.15,-134.3 401.15,-141.3"/>
</g>
</g>
</svg>
