<?xml version="1.0" encoding="UTF-8" standalone="no"?>
<!DOCTYPE svg PUBLIC "-//W3C//DTD SVG 1.1//EN"
 "http://www.w3.org/Graphics/SVG/1.1/DTD/svg11.dtd">
<!-- Generated by graphviz version 2.47.3 (20210619.1520)
 -->
<!-- Title: dependencies Pages: 1 -->
<svg width="857pt" height="247pt"
 viewBox="0.00 0.00 857.00 246.80" xmlns="http://www.w3.org/2000/svg" xmlns:xlink="http://www.w3.org/1999/xlink">
<g id="graph0" class="graph" transform="scale(1 1) rotate(0) translate(4 242.8)">
<title>dependencies</title>
<polygon fill="white" stroke="transparent" points="-4,4 -4,-242.8 853,-242.8 853,4 -4,4"/>
<text text-anchor="middle" x="424.5" y="-8.2" font-family="sans-serif" font-size="14.00">dependencies</text>
<g id="clust1" class="cluster">
<title>cluster_KpisModule</title>
<polygon fill="none" stroke="black" stroke-dasharray="1,5" points="8,-32.8 8,-230.8 841,-230.8 841,-32.8 8,-32.8"/>
</g>
<g id="clust5" class="cluster">
<title>cluster_KpisModule_imports</title>
<polygon fill="none" stroke="black" points="342,-40.8 342,-92.8 833,-92.8 833,-40.8 342,-40.8"/>
</g>
<g id="clust6" class="cluster">
<title>cluster_KpisModule_exports</title>
<polygon fill="none" stroke="black" points="288,-170.8 288,-222.8 613,-222.8 613,-170.8 288,-170.8"/>
</g>
<g id="clust2" class="cluster">
<title>cluster_KpisModule_declarations</title>
<polygon fill="none" stroke="black" points="16,-40.8 16,-92.8 334,-92.8 334,-40.8 16,-40.8"/>
</g>
<!-- KpisFullComponent -->
<g id="node1" class="node">
<title>KpisFullComponent</title>
<polygon fill="#ffffb3" stroke="black" points="326.34,-84.8 195.66,-84.8 195.66,-48.8 326.34,-48.8 326.34,-84.8"/>
<text text-anchor="middle" x="261" y="-62.6" font-family="Times,serif" font-size="14.00">KpisFullComponent</text>
</g>
<!-- KpisModule -->
<g id="node3" class="node">
<title>KpisModule</title>
<polygon fill="#8dd3c7" stroke="black" points="498.99,-149.8 495.99,-153.8 474.99,-153.8 471.99,-149.8 413.01,-149.8 413.01,-113.8 498.99,-113.8 498.99,-149.8"/>
<text text-anchor="middle" x="456" y="-127.6" font-family="Times,serif" font-size="14.00">KpisModule</text>
</g>
<!-- KpisFullComponent&#45;&gt;KpisModule -->
<g id="edge1" class="edge">
<title>KpisFullComponent&#45;&gt;KpisModule</title>
<path fill="none" stroke="black" d="M311.3,-84.82C311.3,-102.17 311.3,-125.8 311.3,-125.8 311.3,-125.8 402.98,-125.8 402.98,-125.8"/>
<polygon fill="black" stroke="black" points="402.98,-129.3 412.98,-125.8 402.98,-122.3 402.98,-129.3"/>
</g>
<!-- KpisPreviewComponent -->
<g id="node2" class="node">
<title>KpisPreviewComponent</title>
<polygon fill="#ffffb3" stroke="black" points="177.64,-84.8 24.36,-84.8 24.36,-48.8 177.64,-48.8 177.64,-84.8"/>
<text text-anchor="middle" x="101" y="-62.6" font-family="Times,serif" font-size="14.00">KpisPreviewComponent</text>
</g>
<!-- KpisPreviewComponent&#45;&gt;KpisModule -->
<g id="edge2" class="edge">
<title>KpisPreviewComponent&#45;&gt;KpisModule</title>
<path fill="none" stroke="black" d="M101,-85.08C101,-106.12 101,-137.8 101,-137.8 101,-137.8 402.82,-137.8 402.82,-137.8"/>
<polygon fill="black" stroke="black" points="402.82,-141.3 412.82,-137.8 402.82,-134.3 402.82,-141.3"/>
</g>
<!-- KpisFullComponent  -->
<g id="node8" class="node">
<title>KpisFullComponent </title>
<polygon fill="#fb8072" stroke="black" points="604.84,-214.8 471.16,-214.8 471.16,-178.8 604.84,-178.8 604.84,-214.8"/>
<text text-anchor="middle" x="538" y="-192.6" font-family="Times,serif" font-size="14.00">KpisFullComponent </text>
</g>
<!-- KpisModule&#45;&gt;KpisFullComponent  -->
<g id="edge7" class="edge">
<title>KpisModule&#45;&gt;KpisFullComponent </title>
<path fill="none" stroke="black" stroke-dasharray="5,2" d="M485.04,-149.91C485.04,-149.91 485.04,-168.79 485.04,-168.79"/>
<polygon fill="black" stroke="black" points="481.54,-168.79 485.04,-178.79 488.54,-168.79 481.54,-168.79"/>
</g>
<!-- KpisPreviewComponent  -->
<g id="node9" class="node">
<title>KpisPreviewComponent </title>
<polygon fill="#fb8072" stroke="black" points="453.64,-214.8 296.36,-214.8 296.36,-178.8 453.64,-178.8 453.64,-214.8"/>
<text text-anchor="middle" x="375" y="-192.6" font-family="Times,serif" font-size="14.00">KpisPreviewComponent </text>
</g>
<!-- KpisModule&#45;&gt;KpisPreviewComponent  -->
<g id="edge8" class="edge">
<title>KpisModule&#45;&gt;KpisPreviewComponent </title>
<path fill="none" stroke="black" stroke-dasharray="5,2" d="M433.29,-149.91C433.29,-149.91 433.29,-168.79 433.29,-168.79"/>
<polygon fill="black" stroke="black" points="429.79,-168.79 433.29,-178.79 436.79,-168.79 429.79,-168.79"/>
</g>
<!-- KpiModule -->
<g id="node4" class="node">
<title>KpiModule</title>
<polygon fill="#8dd3c7" stroke="black" points="825.05,-84.8 822.05,-88.8 801.05,-88.8 798.05,-84.8 744.95,-84.8 744.95,-48.8 825.05,-48.8 825.05,-84.8"/>
<text text-anchor="middle" x="785" y="-62.6" font-family="Times,serif" font-size="14.00">KpiModule</text>
</g>
<!-- KpiModule&#45;&gt;KpisModule -->
<g id="edge3" class="edge">
<title>KpiModule&#45;&gt;KpisModule</title>
<path fill="none" stroke="black" d="M785,-85.08C785,-106.12 785,-137.8 785,-137.8 785,-137.8 509.01,-137.8 509.01,-137.8"/>
<polygon fill="black" stroke="black" points="509.01,-134.3 499.01,-137.8 509.01,-141.3 509.01,-134.3"/>
</g>
<!-- PreviewSectionModule -->
<g id="node5" class="node">
<title>PreviewSectionModule</title>
<polygon fill="#8dd3c7" stroke="black" points="726.91,-84.8 723.91,-88.8 702.91,-88.8 699.91,-84.8 579.09,-84.8 579.09,-48.8 726.91,-48.8 726.91,-84.8"/>
<text text-anchor="middle" x="653" y="-62.6" font-family="Times,serif" font-size="14.00">PreviewSectionModule</text>
</g>
<!-- PreviewSectionModule&#45;&gt;KpisModule -->
<g id="edge4" class="edge">
<title>PreviewSectionModule&#45;&gt;KpisModule</title>
<path fill="none" stroke="black" d="M592.11,-84.82C592.11,-102.17 592.11,-125.8 592.11,-125.8 592.11,-125.8 509.06,-125.8 509.06,-125.8"/>
<polygon fill="black" stroke="black" points="509.06,-122.3 499.06,-125.8 509.06,-129.3 509.06,-122.3"/>
</g>
<!-- SalaryModule -->
<g id="node6" class="node">
<title>SalaryModule</title>
<polygon fill="#8dd3c7" stroke="black" points="561.81,-84.8 558.81,-88.8 537.81,-88.8 534.81,-84.8 466.19,-84.8 466.19,-48.8 561.81,-48.8 561.81,-84.8"/>
<text text-anchor="middle" x="514" y="-62.6" font-family="Times,serif" font-size="14.00">SalaryModule</text>
</g>
<!-- SalaryModule&#45;&gt;KpisModule -->
<g id="edge5" class="edge">
<title>SalaryModule&#45;&gt;KpisModule</title>
<path fill="none" stroke="black" d="M482.67,-84.91C482.67,-84.91 482.67,-103.79 482.67,-103.79"/>
<polygon fill="black" stroke="black" points="479.17,-103.79 482.67,-113.79 486.17,-103.79 479.17,-103.79"/>
</g>
<!-- TrendsModule -->
<g id="node7" class="node">
<title>TrendsModule</title>
<polygon fill="#8dd3c7" stroke="black" points="448.42,-84.8 445.42,-88.8 424.42,-88.8 421.42,-84.8 349.58,-84.8 349.58,-48.8 448.42,-48.8 448.42,-84.8"/>
<text text-anchor="middle" x="399" y="-62.6" font-family="Times,serif" font-size="14.00">TrendsModule</text>
</g>
<!-- TrendsModule&#45;&gt;KpisModule -->
<g id="edge6" class="edge">
<title>TrendsModule&#45;&gt;KpisModule</title>
<path fill="none" stroke="black" d="M430.61,-84.91C430.61,-84.91 430.61,-103.79 430.61,-103.79"/>
<polygon fill="black" stroke="black" points="427.11,-103.79 430.61,-113.79 434.11,-103.79 427.11,-103.79"/>
</g>
</g>
</svg>
