<?xml version="1.0" encoding="UTF-8" standalone="no"?>
<!DOCTYPE svg PUBLIC "-//W3C//DTD SVG 1.1//EN"
 "http://www.w3.org/Graphics/SVG/1.1/DTD/svg11.dtd">
<!-- Generated by graphviz version 2.47.3 (20210619.1520)
 -->
<!-- Title: dependencies Pages: 1 -->
<svg width="2894pt" height="247pt"
 viewBox="0.00 0.00 2894.00 246.80" xmlns="http://www.w3.org/2000/svg" xmlns:xlink="http://www.w3.org/1999/xlink">
<g id="graph0" class="graph" transform="scale(1 1) rotate(0) translate(4 242.8)">
<title>dependencies</title>
<polygon fill="white" stroke="transparent" points="-4,4 -4,-242.8 2890,-242.8 2890,4 -4,4"/>
<text text-anchor="middle" x="1443" y="-8.2" font-family="sans-serif" font-size="14.00">dependencies</text>
<g id="clust1" class="cluster">
<title>cluster_MapSvgModule</title>
<polygon fill="none" stroke="black" stroke-dasharray="1,5" points="8,-32.8 8,-230.8 2878,-230.8 2878,-32.8 8,-32.8"/>
</g>
<g id="clust5" class="cluster">
<title>cluster_MapSvgModule_exports</title>
<polygon fill="none" stroke="black" points="1389,-170.8 1389,-222.8 1537,-222.8 1537,-170.8 1389,-170.8"/>
</g>
<g id="clust4" class="cluster">
<title>cluster_MapSvgModule_imports</title>
<polygon fill="none" stroke="black" points="168,-40.8 168,-92.8 2870,-92.8 2870,-40.8 168,-40.8"/>
</g>
<g id="clust2" class="cluster">
<title>cluster_MapSvgModule_declarations</title>
<polygon fill="none" stroke="black" points="16,-40.8 16,-92.8 160,-92.8 160,-40.8 16,-40.8"/>
</g>
<!-- MapSvgComponent -->
<g id="node1" class="node">
<title>MapSvgComponent</title>
<polygon fill="#ffffb3" stroke="black" points="152.27,-84.8 23.73,-84.8 23.73,-48.8 152.27,-48.8 152.27,-84.8"/>
<text text-anchor="middle" x="88" y="-62.6" font-family="Times,serif" font-size="14.00">MapSvgComponent</text>
</g>
<!-- MapSvgModule -->
<g id="node2" class="node">
<title>MapSvgModule</title>
<polygon fill="#8dd3c7" stroke="black" points="1516.49,-149.8 1513.49,-153.8 1492.49,-153.8 1489.49,-149.8 1409.51,-149.8 1409.51,-113.8 1516.49,-113.8 1516.49,-149.8"/>
<text text-anchor="middle" x="1463" y="-127.6" font-family="Times,serif" font-size="14.00">MapSvgModule</text>
</g>
<!-- MapSvgComponent&#45;&gt;MapSvgModule -->
<g id="edge1" class="edge">
<title>MapSvgComponent&#45;&gt;MapSvgModule</title>
<path fill="none" stroke="black" d="M88,-84.95C88,-108.56 88,-146.8 88,-146.8 88,-146.8 1399.1,-146.8 1399.1,-146.8"/>
<polygon fill="black" stroke="black" points="1399.1,-150.3 1409.1,-146.8 1399.1,-143.3 1399.1,-150.3"/>
</g>
<!-- MapSvgComponent  -->
<g id="node21" class="node">
<title>MapSvgComponent </title>
<polygon fill="#fb8072" stroke="black" points="1529.27,-214.8 1396.73,-214.8 1396.73,-178.8 1529.27,-178.8 1529.27,-214.8"/>
<text text-anchor="middle" x="1463" y="-192.6" font-family="Times,serif" font-size="14.00">MapSvgComponent </text>
</g>
<!-- MapSvgModule&#45;&gt;MapSvgComponent  -->
<g id="edge20" class="edge">
<title>MapSvgModule&#45;&gt;MapSvgComponent </title>
<path fill="none" stroke="black" stroke-dasharray="5,2" d="M1463,-149.91C1463,-149.91 1463,-168.79 1463,-168.79"/>
<polygon fill="black" stroke="black" points="1459.5,-168.79 1463,-178.79 1466.5,-168.79 1459.5,-168.79"/>
</g>
<!-- AnimateMapModule -->
<g id="node3" class="node">
<title>AnimateMapModule</title>
<polygon fill="#8dd3c7" stroke="black" points="2861.92,-84.8 2858.92,-88.8 2837.92,-88.8 2834.92,-84.8 2728.08,-84.8 2728.08,-48.8 2861.92,-48.8 2861.92,-84.8"/>
<text text-anchor="middle" x="2795" y="-62.6" font-family="Times,serif" font-size="14.00">AnimateMapModule</text>
</g>
<!-- AnimateMapModule&#45;&gt;MapSvgModule -->
<g id="edge2" class="edge">
<title>AnimateMapModule&#45;&gt;MapSvgModule</title>
<path fill="none" stroke="black" d="M2795,-84.95C2795,-108.56 2795,-146.8 2795,-146.8 2795,-146.8 1526.87,-146.8 1526.87,-146.8"/>
<polygon fill="black" stroke="black" points="1526.87,-143.3 1516.87,-146.8 1526.87,-150.3 1526.87,-143.3"/>
</g>
<!-- EasterEggModule -->
<g id="node4" class="node">
<title>EasterEggModule</title>
<polygon fill="#8dd3c7" stroke="black" points="2710.58,-84.8 2707.58,-88.8 2686.58,-88.8 2683.58,-84.8 2593.42,-84.8 2593.42,-48.8 2710.58,-48.8 2710.58,-84.8"/>
<text text-anchor="middle" x="2652" y="-62.6" font-family="Times,serif" font-size="14.00">EasterEggModule</text>
</g>
<!-- EasterEggModule&#45;&gt;MapSvgModule -->
<g id="edge3" class="edge">
<title>EasterEggModule&#45;&gt;MapSvgModule</title>
<path fill="none" stroke="black" d="M2652,-84.81C2652,-107.29 2652,-142.8 2652,-142.8 2652,-142.8 1526.79,-142.8 1526.79,-142.8"/>
<polygon fill="black" stroke="black" points="1526.79,-139.3 1516.79,-142.8 1526.79,-146.3 1526.79,-139.3"/>
</g>
<!-- GlobalMapViewModule -->
<g id="node5" class="node">
<title>GlobalMapViewModule</title>
<polygon fill="#8dd3c7" stroke="black" points="2575.63,-84.8 2572.63,-88.8 2551.63,-88.8 2548.63,-84.8 2422.37,-84.8 2422.37,-48.8 2575.63,-48.8 2575.63,-84.8"/>
<text text-anchor="middle" x="2499" y="-62.6" font-family="Times,serif" font-size="14.00">GlobalMapViewModule</text>
</g>
<!-- GlobalMapViewModule&#45;&gt;MapSvgModule -->
<g id="edge4" class="edge">
<title>GlobalMapViewModule&#45;&gt;MapSvgModule</title>
<path fill="none" stroke="black" d="M2499,-84.84C2499,-106.46 2499,-139.8 2499,-139.8 2499,-139.8 1526.52,-139.8 1526.52,-139.8"/>
<polygon fill="black" stroke="black" points="1526.52,-136.3 1516.52,-139.8 1526.52,-143.3 1526.52,-136.3"/>
</g>
<!-- HorizonModule -->
<g id="node6" class="node">
<title>HorizonModule</title>
<polygon fill="#8dd3c7" stroke="black" points="2403.92,-84.8 2400.92,-88.8 2379.92,-88.8 2376.92,-84.8 2298.08,-84.8 2298.08,-48.8 2403.92,-48.8 2403.92,-84.8"/>
<text text-anchor="middle" x="2351" y="-62.6" font-family="Times,serif" font-size="14.00">HorizonModule</text>
</g>
<!-- HorizonModule&#45;&gt;MapSvgModule -->
<g id="edge5" class="edge">
<title>HorizonModule&#45;&gt;MapSvgModule</title>
<path fill="none" stroke="black" d="M2351,-84.93C2351,-105.37 2351,-135.8 2351,-135.8 2351,-135.8 1526.55,-135.8 1526.55,-135.8"/>
<polygon fill="black" stroke="black" points="1526.55,-132.3 1516.55,-135.8 1526.55,-139.3 1526.55,-132.3"/>
</g>
<!-- MoveMapModule -->
<g id="node7" class="node">
<title>MoveMapModule</title>
<polygon fill="#8dd3c7" stroke="black" points="2279.87,-84.8 2276.87,-88.8 2255.87,-88.8 2252.87,-84.8 2162.13,-84.8 2162.13,-48.8 2279.87,-48.8 2279.87,-84.8"/>
<text text-anchor="middle" x="2221" y="-62.6" font-family="Times,serif" font-size="14.00">MoveMapModule</text>
</g>
<!-- MoveMapModule&#45;&gt;MapSvgModule -->
<g id="edge6" class="edge">
<title>MoveMapModule&#45;&gt;MapSvgModule</title>
<path fill="none" stroke="black" d="M2221,-84.91C2221,-104.14 2221,-131.8 2221,-131.8 2221,-131.8 1526.6,-131.8 1526.6,-131.8"/>
<polygon fill="black" stroke="black" points="1526.6,-128.3 1516.6,-131.8 1526.6,-135.3 1526.6,-128.3"/>
</g>
<!-- PinchOutModule -->
<g id="node8" class="node">
<title>PinchOutModule</title>
<polygon fill="#8dd3c7" stroke="black" points="2144.44,-84.8 2141.44,-88.8 2120.44,-88.8 2117.44,-84.8 2031.56,-84.8 2031.56,-48.8 2144.44,-48.8 2144.44,-84.8"/>
<text text-anchor="middle" x="2088" y="-62.6" font-family="Times,serif" font-size="14.00">PinchOutModule</text>
</g>
<!-- PinchOutModule&#45;&gt;MapSvgModule -->
<g id="edge7" class="edge">
<title>PinchOutModule&#45;&gt;MapSvgModule</title>
<path fill="none" stroke="black" d="M2088,-85.07C2088,-103.36 2088,-128.8 2088,-128.8 2088,-128.8 1526.56,-128.8 1526.56,-128.8"/>
<polygon fill="black" stroke="black" points="1526.56,-125.3 1516.56,-128.8 1526.56,-132.3 1526.56,-125.3"/>
</g>
<!-- PoiOverlayModule -->
<g id="node9" class="node">
<title>PoiOverlayModule</title>
<polygon fill="#8dd3c7" stroke="black" points="2013.81,-84.8 2010.81,-88.8 1989.81,-88.8 1986.81,-84.8 1890.19,-84.8 1890.19,-48.8 2013.81,-48.8 2013.81,-84.8"/>
<text text-anchor="middle" x="1952" y="-62.6" font-family="Times,serif" font-size="14.00">PoiOverlayModule</text>
</g>
<!-- PoiOverlayModule&#45;&gt;MapSvgModule -->
<g id="edge8" class="edge">
<title>PoiOverlayModule&#45;&gt;MapSvgModule</title>
<path fill="none" stroke="black" d="M1952,-84.83C1952,-101.86 1952,-124.8 1952,-124.8 1952,-124.8 1526.73,-124.8 1526.73,-124.8"/>
<polygon fill="black" stroke="black" points="1526.73,-121.3 1516.73,-124.8 1526.73,-128.3 1526.73,-121.3"/>
</g>
<!-- RegionInfoDialogModule -->
<g id="node10" class="node">
<title>RegionInfoDialogModule</title>
<polygon fill="#8dd3c7" stroke="black" points="1872.92,-84.8 1869.92,-88.8 1848.92,-88.8 1845.92,-84.8 1711.08,-84.8 1711.08,-48.8 1872.92,-48.8 1872.92,-84.8"/>
<text text-anchor="middle" x="1792" y="-62.6" font-family="Times,serif" font-size="14.00">RegionInfoDialogModule</text>
</g>
<!-- RegionInfoDialogModule&#45;&gt;MapSvgModule -->
<g id="edge9" class="edge">
<title>RegionInfoDialogModule&#45;&gt;MapSvgModule</title>
<path fill="none" stroke="black" d="M1792,-84.81C1792,-100.85 1792,-121.8 1792,-121.8 1792,-121.8 1526.59,-121.8 1526.59,-121.8"/>
<polygon fill="black" stroke="black" points="1526.59,-118.3 1516.59,-121.8 1526.59,-125.3 1526.59,-118.3"/>
</g>
<!-- SvgBackwardsModule -->
<g id="node11" class="node">
<title>SvgBackwardsModule</title>
<polygon fill="#8dd3c7" stroke="black" points="1693.53,-84.8 1690.53,-88.8 1669.53,-88.8 1666.53,-84.8 1550.47,-84.8 1550.47,-48.8 1693.53,-48.8 1693.53,-84.8"/>
<text text-anchor="middle" x="1622" y="-62.6" font-family="Times,serif" font-size="14.00">SvgBackwardsModule</text>
</g>
<!-- SvgBackwardsModule&#45;&gt;MapSvgModule -->
<g id="edge10" class="edge">
<title>SvgBackwardsModule&#45;&gt;MapSvgModule</title>
<path fill="none" stroke="black" d="M1622,-84.92C1622,-99.58 1622,-117.8 1622,-117.8 1622,-117.8 1526.83,-117.8 1526.83,-117.8"/>
<polygon fill="black" stroke="black" points="1526.83,-114.3 1516.83,-117.8 1526.83,-121.3 1526.83,-114.3"/>
</g>
<!-- SvgEasterEggModule -->
<g id="node12" class="node">
<title>SvgEasterEggModule</title>
<polygon fill="#8dd3c7" stroke="black" points="1532.36,-84.8 1529.36,-88.8 1508.36,-88.8 1505.36,-84.8 1393.64,-84.8 1393.64,-48.8 1532.36,-48.8 1532.36,-84.8"/>
<text text-anchor="middle" x="1463" y="-62.6" font-family="Times,serif" font-size="14.00">SvgEasterEggModule</text>
</g>
<!-- SvgEasterEggModule&#45;&gt;MapSvgModule -->
<g id="edge11" class="edge">
<title>SvgEasterEggModule&#45;&gt;MapSvgModule</title>
<path fill="none" stroke="black" d="M1463,-84.91C1463,-84.91 1463,-103.79 1463,-103.79"/>
<polygon fill="black" stroke="black" points="1459.5,-103.79 1463,-113.79 1466.5,-103.79 1459.5,-103.79"/>
</g>
<!-- SvgHumanPoisModule -->
<g id="node13" class="node">
<title>SvgHumanPoisModule</title>
<polygon fill="#8dd3c7" stroke="black" points="1375.16,-84.8 1372.16,-88.8 1351.16,-88.8 1348.16,-84.8 1228.84,-84.8 1228.84,-48.8 1375.16,-48.8 1375.16,-84.8"/>
<text text-anchor="middle" x="1302" y="-62.6" font-family="Times,serif" font-size="14.00">SvgHumanPoisModule</text>
</g>
<!-- SvgHumanPoisModule&#45;&gt;MapSvgModule -->
<g id="edge12" class="edge">
<title>SvgHumanPoisModule&#45;&gt;MapSvgModule</title>
<path fill="none" stroke="black" d="M1302,-84.92C1302,-99.58 1302,-117.8 1302,-117.8 1302,-117.8 1399.39,-117.8 1399.39,-117.8"/>
<polygon fill="black" stroke="black" points="1399.39,-121.3 1409.39,-117.8 1399.39,-114.3 1399.39,-121.3"/>
</g>
<!-- SvgPoisPathsModule -->
<g id="node14" class="node">
<title>SvgPoisPathsModule</title>
<polygon fill="#8dd3c7" stroke="black" points="1210.78,-84.8 1207.78,-88.8 1186.78,-88.8 1183.78,-84.8 1075.22,-84.8 1075.22,-48.8 1210.78,-48.8 1210.78,-84.8"/>
<text text-anchor="middle" x="1143" y="-62.6" font-family="Times,serif" font-size="14.00">SvgPoisPathsModule</text>
</g>
<!-- SvgPoisPathsModule&#45;&gt;MapSvgModule -->
<g id="edge13" class="edge">
<title>SvgPoisPathsModule&#45;&gt;MapSvgModule</title>
<path fill="none" stroke="black" d="M1143,-84.81C1143,-100.85 1143,-121.8 1143,-121.8 1143,-121.8 1399.44,-121.8 1399.44,-121.8"/>
<polygon fill="black" stroke="black" points="1399.44,-125.3 1409.44,-121.8 1399.44,-118.3 1399.44,-125.3"/>
</g>
<!-- SvgPositionablePoisModule -->
<g id="node15" class="node">
<title>SvgPositionablePoisModule</title>
<polygon fill="#8dd3c7" stroke="black" points="1057.17,-84.8 1054.17,-88.8 1033.17,-88.8 1030.17,-84.8 882.83,-84.8 882.83,-48.8 1057.17,-48.8 1057.17,-84.8"/>
<text text-anchor="middle" x="970" y="-62.6" font-family="Times,serif" font-size="14.00">SvgPositionablePoisModule</text>
</g>
<!-- SvgPositionablePoisModule&#45;&gt;MapSvgModule -->
<g id="edge14" class="edge">
<title>SvgPositionablePoisModule&#45;&gt;MapSvgModule</title>
<path fill="none" stroke="black" d="M970,-84.83C970,-101.86 970,-124.8 970,-124.8 970,-124.8 1399.3,-124.8 1399.3,-124.8"/>
<polygon fill="black" stroke="black" points="1399.3,-128.3 1409.3,-124.8 1399.3,-121.3 1399.3,-128.3"/>
</g>
<!-- SvgStainsModule -->
<g id="node16" class="node">
<title>SvgStainsModule</title>
<polygon fill="#8dd3c7" stroke="black" points="864.56,-84.8 861.56,-88.8 840.56,-88.8 837.56,-84.8 749.44,-84.8 749.44,-48.8 864.56,-48.8 864.56,-84.8"/>
<text text-anchor="middle" x="807" y="-62.6" font-family="Times,serif" font-size="14.00">SvgStainsModule</text>
</g>
<!-- SvgStainsModule&#45;&gt;MapSvgModule -->
<g id="edge15" class="edge">
<title>SvgStainsModule&#45;&gt;MapSvgModule</title>
<path fill="none" stroke="black" d="M807,-85.07C807,-103.36 807,-128.8 807,-128.8 807,-128.8 1399.32,-128.8 1399.32,-128.8"/>
<polygon fill="black" stroke="black" points="1399.32,-132.3 1409.32,-128.8 1399.32,-125.3 1399.32,-132.3"/>
</g>
<!-- SvgUsersModule -->
<g id="node17" class="node">
<title>SvgUsersModule</title>
<polygon fill="#8dd3c7" stroke="black" points="731.7,-84.8 728.7,-88.8 707.7,-88.8 704.7,-84.8 618.3,-84.8 618.3,-48.8 731.7,-48.8 731.7,-84.8"/>
<text text-anchor="middle" x="675" y="-62.6" font-family="Times,serif" font-size="14.00">SvgUsersModule</text>
</g>
<!-- SvgUsersModule&#45;&gt;MapSvgModule -->
<g id="edge16" class="edge">
<title>SvgUsersModule&#45;&gt;MapSvgModule</title>
<path fill="none" stroke="black" d="M675,-84.91C675,-104.14 675,-131.8 675,-131.8 675,-131.8 1399.46,-131.8 1399.46,-131.8"/>
<polygon fill="black" stroke="black" points="1399.46,-135.3 1409.46,-131.8 1399.46,-128.3 1399.46,-135.3"/>
</g>
<!-- SvgVillagePinsModule -->
<g id="node18" class="node">
<title>SvgVillagePinsModule</title>
<polygon fill="#8dd3c7" stroke="black" points="600.16,-84.8 597.16,-88.8 576.16,-88.8 573.16,-84.8 453.84,-84.8 453.84,-48.8 600.16,-48.8 600.16,-84.8"/>
<text text-anchor="middle" x="527" y="-62.6" font-family="Times,serif" font-size="14.00">SvgVillagePinsModule</text>
</g>
<!-- SvgVillagePinsModule&#45;&gt;MapSvgModule -->
<g id="edge17" class="edge">
<title>SvgVillagePinsModule&#45;&gt;MapSvgModule</title>
<path fill="none" stroke="black" d="M527,-84.93C527,-105.37 527,-135.8 527,-135.8 527,-135.8 1399.31,-135.8 1399.31,-135.8"/>
<polygon fill="black" stroke="black" points="1399.31,-139.3 1409.31,-135.8 1399.31,-132.3 1399.31,-139.3"/>
</g>
<!-- UserModule -->
<g id="node19" class="node">
<title>UserModule</title>
<polygon fill="#8dd3c7" stroke="black" points="435.98,-84.8 432.98,-88.8 411.98,-88.8 408.98,-84.8 350.02,-84.8 350.02,-48.8 435.98,-48.8 435.98,-84.8"/>
<text text-anchor="middle" x="393" y="-62.6" font-family="Times,serif" font-size="14.00">UserModule</text>
</g>
<!-- UserModule&#45;&gt;MapSvgModule -->
<g id="edge18" class="edge">
<title>UserModule&#45;&gt;MapSvgModule</title>
<path fill="none" stroke="black" d="M393,-84.84C393,-106.46 393,-139.8 393,-139.8 393,-139.8 1399.21,-139.8 1399.21,-139.8"/>
<polygon fill="black" stroke="black" points="1399.21,-143.3 1409.21,-139.8 1399.21,-136.3 1399.21,-143.3"/>
</g>
<!-- VillageMapViewModule -->
<g id="node20" class="node">
<title>VillageMapViewModule</title>
<polygon fill="#8dd3c7" stroke="black" points="332.24,-84.8 329.24,-88.8 308.24,-88.8 305.24,-84.8 175.76,-84.8 175.76,-48.8 332.24,-48.8 332.24,-84.8"/>
<text text-anchor="middle" x="254" y="-62.6" font-family="Times,serif" font-size="14.00">VillageMapViewModule</text>
</g>
<!-- VillageMapViewModule&#45;&gt;MapSvgModule -->
<g id="edge19" class="edge">
<title>VillageMapViewModule&#45;&gt;MapSvgModule</title>
<path fill="none" stroke="black" d="M254,-84.81C254,-107.29 254,-142.8 254,-142.8 254,-142.8 1399.49,-142.8 1399.49,-142.8"/>
<polygon fill="black" stroke="black" points="1399.49,-146.3 1409.49,-142.8 1399.49,-139.3 1399.49,-146.3"/>
</g>
</g>
</svg>
