<?xml version="1.0" encoding="UTF-8" standalone="no"?>
<!DOCTYPE svg PUBLIC "-//W3C//DTD SVG 1.1//EN"
 "http://www.w3.org/Graphics/SVG/1.1/DTD/svg11.dtd">
<!-- Generated by graphviz version 2.47.3 (20210619.1520)
 -->
<!-- Title: dependencies Pages: 1 -->
<svg width="912pt" height="247pt"
 viewBox="0.00 0.00 912.00 246.80" xmlns="http://www.w3.org/2000/svg" xmlns:xlink="http://www.w3.org/1999/xlink">
<g id="graph0" class="graph" transform="scale(1 1) rotate(0) translate(4 242.8)">
<title>dependencies</title>
<polygon fill="white" stroke="transparent" points="-4,4 -4,-242.8 908,-242.8 908,4 -4,4"/>
<text text-anchor="middle" x="452" y="-8.2" font-family="sans-serif" font-size="14.00">dependencies</text>
<g id="clust1" class="cluster">
<title>cluster_ItineraryModule</title>
<polygon fill="none" stroke="black" stroke-dasharray="1,5" points="8,-32.8 8,-230.8 896,-230.8 896,-32.8 8,-32.8"/>
</g>
<g id="clust6" class="cluster">
<title>cluster_ItineraryModule_exports</title>
<polygon fill="none" stroke="black" points="275,-170.8 275,-222.8 643,-222.8 643,-170.8 275,-170.8"/>
</g>
<g id="clust5" class="cluster">
<title>cluster_ItineraryModule_imports</title>
<polygon fill="none" stroke="black" points="556,-40.8 556,-92.8 888,-92.8 888,-40.8 556,-40.8"/>
</g>
<g id="clust2" class="cluster">
<title>cluster_ItineraryModule_declarations</title>
<polygon fill="none" stroke="black" points="186,-40.8 186,-92.8 548,-92.8 548,-40.8 186,-40.8"/>
</g>
<g id="clust8" class="cluster">
<title>cluster_ItineraryModule_providers</title>
<polygon fill="none" stroke="black" points="16,-40.8 16,-92.8 178,-92.8 178,-40.8 16,-40.8"/>
</g>
<!-- ItineraryFullComponent -->
<g id="node1" class="node">
<title>ItineraryFullComponent</title>
<polygon fill="#ffffb3" stroke="black" points="540.09,-84.8 387.91,-84.8 387.91,-48.8 540.09,-48.8 540.09,-84.8"/>
<text text-anchor="middle" x="464" y="-62.6" font-family="Times,serif" font-size="14.00">ItineraryFullComponent</text>
</g>
<!-- ItineraryModule -->
<g id="node3" class="node">
<title>ItineraryModule</title>
<polygon fill="#8dd3c7" stroke="black" points="517.74,-149.8 514.74,-153.8 493.74,-153.8 490.74,-149.8 410.26,-149.8 410.26,-113.8 517.74,-113.8 517.74,-149.8"/>
<text text-anchor="middle" x="464" y="-127.6" font-family="Times,serif" font-size="14.00">ItineraryModule</text>
</g>
<!-- ItineraryFullComponent&#45;&gt;ItineraryModule -->
<g id="edge1" class="edge">
<title>ItineraryFullComponent&#45;&gt;ItineraryModule</title>
<path fill="none" stroke="black" d="M464,-84.91C464,-84.91 464,-103.79 464,-103.79"/>
<polygon fill="black" stroke="black" points="460.5,-103.79 464,-113.79 467.5,-103.79 460.5,-103.79"/>
</g>
<!-- ItineraryPreviewComponent -->
<g id="node2" class="node">
<title>ItineraryPreviewComponent</title>
<polygon fill="#ffffb3" stroke="black" points="369.89,-84.8 194.11,-84.8 194.11,-48.8 369.89,-48.8 369.89,-84.8"/>
<text text-anchor="middle" x="282" y="-62.6" font-family="Times,serif" font-size="14.00">ItineraryPreviewComponent</text>
</g>
<!-- ItineraryPreviewComponent&#45;&gt;ItineraryModule -->
<g id="edge2" class="edge">
<title>ItineraryPreviewComponent&#45;&gt;ItineraryModule</title>
<path fill="none" stroke="black" d="M326.12,-84.82C326.12,-102.17 326.12,-125.8 326.12,-125.8 326.12,-125.8 399.9,-125.8 399.9,-125.8"/>
<polygon fill="black" stroke="black" points="399.9,-129.3 409.9,-125.8 399.9,-122.3 399.9,-129.3"/>
</g>
<!-- ItineraryFullComponent  -->
<g id="node6" class="node">
<title>ItineraryFullComponent </title>
<polygon fill="#fb8072" stroke="black" points="634.59,-214.8 479.41,-214.8 479.41,-178.8 634.59,-178.8 634.59,-214.8"/>
<text text-anchor="middle" x="557" y="-192.6" font-family="Times,serif" font-size="14.00">ItineraryFullComponent </text>
</g>
<!-- ItineraryModule&#45;&gt;ItineraryFullComponent  -->
<g id="edge5" class="edge">
<title>ItineraryModule&#45;&gt;ItineraryFullComponent </title>
<path fill="none" stroke="black" stroke-dasharray="5,2" d="M498.54,-149.91C498.54,-149.91 498.54,-168.79 498.54,-168.79"/>
<polygon fill="black" stroke="black" points="495.04,-168.79 498.54,-178.79 502.04,-168.79 495.04,-168.79"/>
</g>
<!-- ItineraryPreviewComponent  -->
<g id="node7" class="node">
<title>ItineraryPreviewComponent </title>
<polygon fill="#fb8072" stroke="black" points="461.39,-214.8 282.61,-214.8 282.61,-178.8 461.39,-178.8 461.39,-214.8"/>
<text text-anchor="middle" x="372" y="-192.6" font-family="Times,serif" font-size="14.00">ItineraryPreviewComponent </text>
</g>
<!-- ItineraryModule&#45;&gt;ItineraryPreviewComponent  -->
<g id="edge6" class="edge">
<title>ItineraryModule&#45;&gt;ItineraryPreviewComponent </title>
<path fill="none" stroke="black" stroke-dasharray="5,2" d="M435.79,-149.91C435.79,-149.91 435.79,-168.79 435.79,-168.79"/>
<polygon fill="black" stroke="black" points="432.29,-168.79 435.79,-178.79 439.29,-168.79 432.29,-168.79"/>
</g>
<!-- ItineraryBarModule -->
<g id="node4" class="node">
<title>ItineraryBarModule</title>
<polygon fill="#8dd3c7" stroke="black" points="879.95,-84.8 876.95,-88.8 855.95,-88.8 852.95,-84.8 752.05,-84.8 752.05,-48.8 879.95,-48.8 879.95,-84.8"/>
<text text-anchor="middle" x="816" y="-62.6" font-family="Times,serif" font-size="14.00">ItineraryBarModule</text>
</g>
<!-- ItineraryBarModule&#45;&gt;ItineraryModule -->
<g id="edge3" class="edge">
<title>ItineraryBarModule&#45;&gt;ItineraryModule</title>
<path fill="none" stroke="black" d="M816,-85.08C816,-106.12 816,-137.8 816,-137.8 816,-137.8 527.84,-137.8 527.84,-137.8"/>
<polygon fill="black" stroke="black" points="527.84,-134.3 517.84,-137.8 527.84,-141.3 527.84,-134.3"/>
</g>
<!-- WaypointSummaryModule -->
<g id="node5" class="node">
<title>WaypointSummaryModule</title>
<polygon fill="#8dd3c7" stroke="black" points="733.7,-84.8 730.7,-88.8 709.7,-88.8 706.7,-84.8 564.3,-84.8 564.3,-48.8 733.7,-48.8 733.7,-84.8"/>
<text text-anchor="middle" x="649" y="-62.6" font-family="Times,serif" font-size="14.00">WaypointSummaryModule</text>
</g>
<!-- WaypointSummaryModule&#45;&gt;ItineraryModule -->
<g id="edge4" class="edge">
<title>WaypointSummaryModule&#45;&gt;ItineraryModule</title>
<path fill="none" stroke="black" d="M599.6,-84.82C599.6,-102.17 599.6,-125.8 599.6,-125.8 599.6,-125.8 527.98,-125.8 527.98,-125.8"/>
<polygon fill="black" stroke="black" points="527.98,-122.3 517.98,-125.8 527.98,-129.3 527.98,-122.3"/>
</g>
<!-- ItineraryService -->
<g id="node8" class="node">
<title>ItineraryService</title>
<ellipse fill="#fdb462" stroke="black" cx="97" cy="-66.8" rx="73.47" ry="18"/>
<text text-anchor="middle" x="97" y="-62.6" font-family="Times,serif" font-size="14.00">ItineraryService</text>
</g>
<!-- ItineraryService&#45;&gt;ItineraryModule -->
<g id="edge7" class="edge">
<title>ItineraryService&#45;&gt;ItineraryModule</title>
<path fill="none" stroke="black" d="M97,-85.08C97,-106.12 97,-137.8 97,-137.8 97,-137.8 400.24,-137.8 400.24,-137.8"/>
<polygon fill="black" stroke="black" points="400.24,-141.3 410.24,-137.8 400.24,-134.3 400.24,-141.3"/>
</g>
</g>
</svg>
