<?xml version="1.0" encoding="UTF-8" standalone="no"?>
<!DOCTYPE svg PUBLIC "-//W3C//DTD SVG 1.1//EN"
 "http://www.w3.org/Graphics/SVG/1.1/DTD/svg11.dtd">
<!-- Generated by graphviz version 2.47.3 (20210619.1520)
 -->
<!-- Title: dependencies Pages: 1 -->
<svg width="982pt" height="358pt"
 viewBox="0.00 0.00 982.00 358.39" xmlns="http://www.w3.org/2000/svg" xmlns:xlink="http://www.w3.org/1999/xlink">
<g id="graph0" class="graph" transform="scale(1 1) rotate(0) translate(4 354.39)">
<title>dependencies</title>
<polygon fill="white" stroke="transparent" points="-4,4 -4,-354.39 978,-354.39 978,4 -4,4"/>
<text text-anchor="middle" x="487" y="-8.2" font-family="sans-serif" font-size="14.00">dependencies</text>
<g id="clust1" class="cluster">
<title>cluster_SelectCardControlModule</title>
<polygon fill="none" stroke="black" stroke-dasharray="1,5" points="8,-32.8 8,-342.39 966,-342.39 966,-32.8 8,-32.8"/>
</g>
<g id="clust4" class="cluster">
<title>cluster_SelectCardControlModule_imports</title>
<polygon fill="none" stroke="black" points="596,-152.39 596,-204.39 732,-204.39 732,-152.39 596,-152.39"/>
</g>
<g id="clust2" class="cluster">
<title>cluster_SelectCardControlModule_declarations</title>
<polygon fill="none" stroke="black" points="386,-152.39 386,-204.39 588,-204.39 588,-152.39 386,-152.39"/>
</g>
<g id="clust3" class="cluster">
<title>cluster_SelectCardControlModule_SelectCardControlComponent_providers</title>
<polygon fill="none" stroke="black" points="16,-40.8 16,-139.39 958,-139.39 958,-40.8 16,-40.8"/>
</g>
<g id="clust5" class="cluster">
<title>cluster_SelectCardControlModule_exports</title>
<polygon fill="none" stroke="black" points="472,-282.39 472,-334.39 678,-334.39 678,-282.39 472,-282.39"/>
</g>
<!-- SelectCardControlComponent -->
<g id="node1" class="node">
<title>SelectCardControlComponent</title>
<polygon fill="#ffffb3" stroke="black" points="579.53,-196.39 394.47,-196.39 394.47,-160.39 579.53,-160.39 579.53,-196.39"/>
<text text-anchor="middle" x="487" y="-174.19" font-family="Times,serif" font-size="14.00">SelectCardControlComponent</text>
</g>
<!-- SelectCardControlModule -->
<g id="node2" class="node">
<title>SelectCardControlModule</title>
<polygon fill="#8dd3c7" stroke="black" points="656.75,-261.39 653.75,-265.39 632.75,-265.39 629.75,-261.39 493.25,-261.39 493.25,-225.39 656.75,-225.39 656.75,-261.39"/>
<text text-anchor="middle" x="575" y="-239.19" font-family="Times,serif" font-size="14.00">SelectCardControlModule</text>
</g>
<!-- SelectCardControlComponent&#45;&gt;SelectCardControlModule -->
<g id="edge1" class="edge">
<title>SelectCardControlComponent&#45;&gt;SelectCardControlModule</title>
<path fill="none" stroke="black" d="M536.45,-196.5C536.45,-196.5 536.45,-215.38 536.45,-215.38"/>
<polygon fill="black" stroke="black" points="532.95,-215.38 536.45,-225.38 539.95,-215.38 532.95,-215.38"/>
</g>
<!-- SelectCardControlComponent  -->
<g id="node5" class="node">
<title>SelectCardControlComponent </title>
<polygon fill="#fb8072" stroke="black" points="669.53,-326.39 480.47,-326.39 480.47,-290.39 669.53,-290.39 669.53,-326.39"/>
<text text-anchor="middle" x="575" y="-304.19" font-family="Times,serif" font-size="14.00">SelectCardControlComponent </text>
</g>
<!-- SelectCardControlModule&#45;&gt;SelectCardControlComponent  -->
<g id="edge4" class="edge">
<title>SelectCardControlModule&#45;&gt;SelectCardControlComponent </title>
<path fill="none" stroke="black" stroke-dasharray="5,2" d="M575,-261.5C575,-261.5 575,-280.38 575,-280.38"/>
<polygon fill="black" stroke="black" points="571.5,-280.38 575,-290.38 578.5,-280.38 571.5,-280.38"/>
</g>
<!-- {
 &#160;&#160;&#160;provide: NG_VALUE_ACCESSOR, useExisting: forwardRef(() =&gt; SelectCardControlComponent), multi: true
} -->
<g id="node3" class="node">
<title>{
 &#160;&#160;&#160;provide: NG_VALUE_ACCESSOR, useExisting: forwardRef(() =&gt; SelectCardControlComponent), multi: true
}</title>
<ellipse fill="#fdb462" stroke="black" cx="487" cy="-90.1" rx="463.38" ry="41.09"/>
<text text-anchor="middle" x="487" y="-102.7" font-family="Times,serif" font-size="14.00">{</text>
<text text-anchor="middle" x="487" y="-85.9" font-family="Times,serif" font-size="14.00"> &#160;&#160;&#160;provide: NG_VALUE_ACCESSOR, useExisting: forwardRef(() =&gt; SelectCardControlComponent), multi: true</text>
<text text-anchor="middle" x="487" y="-69.1" font-family="Times,serif" font-size="14.00">}</text>
</g>
<!-- {
 &#160;&#160;&#160;provide: NG_VALUE_ACCESSOR, useExisting: forwardRef(() =&gt; SelectCardControlComponent), multi: true
}&#45;&gt;SelectCardControlComponent -->
<g id="edge2" class="edge">
<title>{
 &#160;&#160;&#160;provide: NG_VALUE_ACCESSOR, useExisting: forwardRef(() =&gt; SelectCardControlComponent), multi: true
}&#45;&gt;SelectCardControlComponent</title>
<path fill="none" stroke="black" d="M487,-131.4C487,-131.4 487,-150.06 487,-150.06"/>
<polygon fill="black" stroke="black" points="483.5,-150.06 487,-160.06 490.5,-150.06 483.5,-150.06"/>
</g>
<!-- SelectCardModule -->
<g id="node4" class="node">
<title>SelectCardModule</title>
<polygon fill="#8dd3c7" stroke="black" points="724.47,-196.39 721.47,-200.39 700.47,-200.39 697.47,-196.39 603.53,-196.39 603.53,-160.39 724.47,-160.39 724.47,-196.39"/>
<text text-anchor="middle" x="664" y="-174.19" font-family="Times,serif" font-size="14.00">SelectCardModule</text>
</g>
<!-- SelectCardModule&#45;&gt;SelectCardControlModule -->
<g id="edge3" class="edge">
<title>SelectCardModule&#45;&gt;SelectCardControlModule</title>
<path fill="none" stroke="black" d="M630.19,-196.5C630.19,-196.5 630.19,-215.38 630.19,-215.38"/>
<polygon fill="black" stroke="black" points="626.69,-215.38 630.19,-225.38 633.69,-215.38 626.69,-215.38"/>
</g>
</g>
</svg>
