<?xml version="1.0" encoding="UTF-8" standalone="no"?>
<!DOCTYPE svg PUBLIC "-//W3C//DTD SVG 1.1//EN"
 "http://www.w3.org/Graphics/SVG/1.1/DTD/svg11.dtd">
<!-- Generated by graphviz version 2.47.3 (20210619.1520)
 -->
<!-- Title: dependencies Pages: 1 -->
<svg width="318pt" height="247pt"
 viewBox="0.00 0.00 318.00 246.80" xmlns="http://www.w3.org/2000/svg" xmlns:xlink="http://www.w3.org/1999/xlink">
<g id="graph0" class="graph" transform="scale(1 1) rotate(0) translate(4 242.8)">
<title>dependencies</title>
<polygon fill="white" stroke="transparent" points="-4,4 -4,-242.8 314,-242.8 314,4 -4,4"/>
<text text-anchor="middle" x="155" y="-8.2" font-family="sans-serif" font-size="14.00">dependencies</text>
<g id="clust1" class="cluster">
<title>cluster_OnisepLinkModule</title>
<polygon fill="none" stroke="black" stroke-dasharray="1,5" points="8,-32.8 8,-230.8 302,-230.8 302,-32.8 8,-32.8"/>
</g>
<g id="clust2" class="cluster">
<title>cluster_OnisepLinkModule_declarations</title>
<polygon fill="none" stroke="black" points="130,-40.8 130,-92.8 294,-92.8 294,-40.8 130,-40.8"/>
</g>
<g id="clust4" class="cluster">
<title>cluster_OnisepLinkModule_imports</title>
<polygon fill="none" stroke="black" points="16,-40.8 16,-92.8 122,-92.8 122,-40.8 16,-40.8"/>
</g>
<g id="clust5" class="cluster">
<title>cluster_OnisepLinkModule_exports</title>
<polygon fill="none" stroke="black" points="72,-170.8 72,-222.8 238,-222.8 238,-170.8 72,-170.8"/>
</g>
<!-- OnisepLinkComponent -->
<g id="node1" class="node">
<title>OnisepLinkComponent</title>
<polygon fill="#ffffb3" stroke="black" points="285.93,-84.8 138.07,-84.8 138.07,-48.8 285.93,-48.8 285.93,-84.8"/>
<text text-anchor="middle" x="212" y="-62.6" font-family="Times,serif" font-size="14.00">OnisepLinkComponent</text>
</g>
<!-- OnisepLinkModule -->
<g id="node2" class="node">
<title>OnisepLinkModule</title>
<polygon fill="#8dd3c7" stroke="black" points="217.65,-149.8 214.65,-153.8 193.65,-153.8 190.65,-149.8 92.35,-149.8 92.35,-113.8 217.65,-113.8 217.65,-149.8"/>
<text text-anchor="middle" x="155" y="-127.6" font-family="Times,serif" font-size="14.00">OnisepLinkModule</text>
</g>
<!-- OnisepLinkComponent&#45;&gt;OnisepLinkModule -->
<g id="edge1" class="edge">
<title>OnisepLinkComponent&#45;&gt;OnisepLinkModule</title>
<path fill="none" stroke="black" d="M178.05,-84.91C178.05,-84.91 178.05,-103.79 178.05,-103.79"/>
<polygon fill="black" stroke="black" points="174.55,-103.79 178.05,-113.79 181.55,-103.79 174.55,-103.79"/>
</g>
<!-- OnisepLinkComponent  -->
<g id="node4" class="node">
<title>OnisepLinkComponent </title>
<polygon fill="#fb8072" stroke="black" points="230.43,-214.8 79.57,-214.8 79.57,-178.8 230.43,-178.8 230.43,-214.8"/>
<text text-anchor="middle" x="155" y="-192.6" font-family="Times,serif" font-size="14.00">OnisepLinkComponent </text>
</g>
<!-- OnisepLinkModule&#45;&gt;OnisepLinkComponent  -->
<g id="edge3" class="edge">
<title>OnisepLinkModule&#45;&gt;OnisepLinkComponent </title>
<path fill="none" stroke="black" stroke-dasharray="5,2" d="M155,-149.91C155,-149.91 155,-168.79 155,-168.79"/>
<polygon fill="black" stroke="black" points="151.5,-168.79 155,-178.79 158.5,-168.79 151.5,-168.79"/>
</g>
<!-- LogoModule -->
<g id="node3" class="node">
<title>LogoModule</title>
<polygon fill="#8dd3c7" stroke="black" points="113.6,-84.8 110.6,-88.8 89.6,-88.8 86.6,-84.8 24.4,-84.8 24.4,-48.8 113.6,-48.8 113.6,-84.8"/>
<text text-anchor="middle" x="69" y="-62.6" font-family="Times,serif" font-size="14.00">LogoModule</text>
</g>
<!-- LogoModule&#45;&gt;OnisepLinkModule -->
<g id="edge2" class="edge">
<title>LogoModule&#45;&gt;OnisepLinkModule</title>
<path fill="none" stroke="black" d="M102.86,-84.91C102.86,-84.91 102.86,-103.79 102.86,-103.79"/>
<polygon fill="black" stroke="black" points="99.36,-103.79 102.86,-113.79 106.36,-103.79 99.36,-103.79"/>
</g>
</g>
</svg>
