<?xml version="1.0" encoding="UTF-8" standalone="no"?>
<!DOCTYPE svg PUBLIC "-//W3C//DTD SVG 1.1//EN"
 "http://www.w3.org/Graphics/SVG/1.1/DTD/svg11.dtd">
<!-- Generated by graphviz version 2.47.3 (20210619.1520)
 -->
<!-- Title: dependencies Pages: 1 -->
<svg width="1192pt" height="174pt"
 viewBox="0.00 0.00 1192.00 173.80" xmlns="http://www.w3.org/2000/svg" xmlns:xlink="http://www.w3.org/1999/xlink">
<g id="graph0" class="graph" transform="scale(1 1) rotate(0) translate(4 169.8)">
<title>dependencies</title>
<polygon fill="white" stroke="transparent" points="-4,4 -4,-169.8 1188,-169.8 1188,4 -4,4"/>
<text text-anchor="middle" x="592" y="-8.2" font-family="sans-serif" font-size="14.00">dependencies</text>
<g id="clust1" class="cluster">
<title>cluster_AdminPerformancePageModule</title>
<polygon fill="none" stroke="black" stroke-dasharray="1,5" points="8,-32.8 8,-157.8 1176,-157.8 1176,-32.8 8,-32.8"/>
</g>
<g id="clust2" class="cluster">
<title>cluster_AdminPerformancePageModule_declarations</title>
<polygon fill="none" stroke="black" points="934,-40.8 934,-92.8 1168,-92.8 1168,-40.8 934,-40.8"/>
</g>
<g id="clust7" class="cluster">
<title>cluster_AdminPerformancePageModule_providers</title>
<polygon fill="none" stroke="black" points="552,-40.8 552,-92.8 926,-92.8 926,-40.8 552,-40.8"/>
</g>
<g id="clust4" class="cluster">
<title>cluster_AdminPerformancePageModule_imports</title>
<polygon fill="none" stroke="black" points="16,-40.8 16,-92.8 544,-92.8 544,-40.8 16,-40.8"/>
</g>
<!-- AdminPerformancePageComponent -->
<g id="node1" class="node">
<title>AdminPerformancePageComponent</title>
<polygon fill="#ffffb3" stroke="black" points="1160.45,-84.8 941.55,-84.8 941.55,-48.8 1160.45,-48.8 1160.45,-84.8"/>
<text text-anchor="middle" x="1051" y="-62.6" font-family="Times,serif" font-size="14.00">AdminPerformancePageComponent</text>
</g>
<!-- AdminPerformancePageModule -->
<g id="node2" class="node">
<title>AdminPerformancePageModule</title>
<polygon fill="#8dd3c7" stroke="black" points="639.66,-149.8 636.66,-153.8 615.66,-153.8 612.66,-149.8 442.34,-149.8 442.34,-113.8 639.66,-113.8 639.66,-149.8"/>
<text text-anchor="middle" x="541" y="-127.6" font-family="Times,serif" font-size="14.00">AdminPerformancePageModule</text>
</g>
<!-- AdminPerformancePageComponent&#45;&gt;AdminPerformancePageModule -->
<g id="edge1" class="edge">
<title>AdminPerformancePageComponent&#45;&gt;AdminPerformancePageModule</title>
<path fill="none" stroke="black" d="M1051,-85.08C1051,-106.12 1051,-137.8 1051,-137.8 1051,-137.8 649.64,-137.8 649.64,-137.8"/>
<polygon fill="black" stroke="black" points="649.64,-134.3 639.64,-137.8 649.64,-141.3 649.64,-134.3"/>
</g>
<!-- AdminFiltersModule -->
<g id="node3" class="node">
<title>AdminFiltersModule</title>
<polygon fill="#8dd3c7" stroke="black" points="536.21,-84.8 533.21,-88.8 512.21,-88.8 509.21,-84.8 401.79,-84.8 401.79,-48.8 536.21,-48.8 536.21,-84.8"/>
<text text-anchor="middle" x="469" y="-62.6" font-family="Times,serif" font-size="14.00">AdminFiltersModule</text>
</g>
<!-- AdminFiltersModule&#45;&gt;AdminPerformancePageModule -->
<g id="edge2" class="edge">
<title>AdminFiltersModule&#45;&gt;AdminPerformancePageModule</title>
<path fill="none" stroke="black" d="M489.26,-84.91C489.26,-84.91 489.26,-103.79 489.26,-103.79"/>
<polygon fill="black" stroke="black" points="485.76,-103.79 489.26,-113.79 492.76,-103.79 485.76,-103.79"/>
</g>
<!-- AdminListMetricModule -->
<g id="node4" class="node">
<title>AdminListMetricModule</title>
<polygon fill="#8dd3c7" stroke="black" points="383.53,-84.8 380.53,-88.8 359.53,-88.8 356.53,-84.8 226.47,-84.8 226.47,-48.8 383.53,-48.8 383.53,-84.8"/>
<text text-anchor="middle" x="305" y="-62.6" font-family="Times,serif" font-size="14.00">AdminListMetricModule</text>
</g>
<!-- AdminListMetricModule&#45;&gt;AdminPerformancePageModule -->
<g id="edge3" class="edge">
<title>AdminListMetricModule&#45;&gt;AdminPerformancePageModule</title>
<path fill="none" stroke="black" d="M305,-84.82C305,-102.17 305,-125.8 305,-125.8 305,-125.8 432.28,-125.8 432.28,-125.8"/>
<polygon fill="black" stroke="black" points="432.28,-129.3 442.28,-125.8 432.28,-122.3 432.28,-129.3"/>
</g>
<!-- AdminNumericMetricModule -->
<g id="node5" class="node">
<title>AdminNumericMetricModule</title>
<polygon fill="#8dd3c7" stroke="black" points="208.23,-84.8 205.23,-88.8 184.23,-88.8 181.23,-84.8 23.77,-84.8 23.77,-48.8 208.23,-48.8 208.23,-84.8"/>
<text text-anchor="middle" x="116" y="-62.6" font-family="Times,serif" font-size="14.00">AdminNumericMetricModule</text>
</g>
<!-- AdminNumericMetricModule&#45;&gt;AdminPerformancePageModule -->
<g id="edge4" class="edge">
<title>AdminNumericMetricModule&#45;&gt;AdminPerformancePageModule</title>
<path fill="none" stroke="black" d="M116,-85.08C116,-106.12 116,-137.8 116,-137.8 116,-137.8 432.16,-137.8 432.16,-137.8"/>
<polygon fill="black" stroke="black" points="432.16,-141.3 442.16,-137.8 432.16,-134.3 432.16,-141.3"/>
</g>
<!-- AdminPerformanceService -->
<g id="node6" class="node">
<title>AdminPerformanceService</title>
<ellipse fill="#fdb462" stroke="black" cx="802" cy="-66.8" rx="116.29" ry="18"/>
<text text-anchor="middle" x="802" y="-62.6" font-family="Times,serif" font-size="14.00">AdminPerformanceService</text>
</g>
<!-- AdminPerformanceService&#45;&gt;AdminPerformancePageModule -->
<g id="edge5" class="edge">
<title>AdminPerformanceService&#45;&gt;AdminPerformancePageModule</title>
<path fill="none" stroke="black" d="M802,-84.82C802,-102.17 802,-125.8 802,-125.8 802,-125.8 649.67,-125.8 649.67,-125.8"/>
<polygon fill="black" stroke="black" points="649.67,-122.3 639.67,-125.8 649.67,-129.3 649.67,-122.3"/>
</g>
<!-- LeadClient -->
<g id="node7" class="node">
<title>LeadClient</title>
<ellipse fill="#fdb462" stroke="black" cx="614" cy="-66.8" rx="53.89" ry="18"/>
<text text-anchor="middle" x="614" y="-62.6" font-family="Times,serif" font-size="14.00">LeadClient</text>
</g>
<!-- LeadClient&#45;&gt;AdminPerformancePageModule -->
<g id="edge6" class="edge">
<title>LeadClient&#45;&gt;AdminPerformancePageModule</title>
<path fill="none" stroke="black" d="M599.82,-84.22C599.82,-84.22 599.82,-103.42 599.82,-103.42"/>
<polygon fill="black" stroke="black" points="596.32,-103.42 599.82,-113.42 603.32,-103.42 596.32,-103.42"/>
</g>
</g>
</svg>
