<?xml version="1.0" encoding="UTF-8" standalone="no"?>
<!DOCTYPE svg PUBLIC "-//W3C//DTD SVG 1.1//EN"
 "http://www.w3.org/Graphics/SVG/1.1/DTD/svg11.dtd">
<!-- Generated by graphviz version 2.47.3 (20210619.1520)
 -->
<!-- Title: dependencies Pages: 1 -->
<svg width="576pt" height="174pt"
 viewBox="0.00 0.00 576.00 173.80" xmlns="http://www.w3.org/2000/svg" xmlns:xlink="http://www.w3.org/1999/xlink">
<g id="graph0" class="graph" transform="scale(1 1) rotate(0) translate(4 169.8)">
<title>dependencies</title>
<polygon fill="white" stroke="transparent" points="-4,4 -4,-169.8 572,-169.8 572,4 -4,4"/>
<text text-anchor="middle" x="284" y="-8.2" font-family="sans-serif" font-size="14.00">dependencies</text>
<g id="clust1" class="cluster">
<title>cluster_RewardHowToDialogModule</title>
<polygon fill="none" stroke="black" stroke-dasharray="1,5" points="8,-32.8 8,-157.8 560,-157.8 560,-32.8 8,-32.8"/>
</g>
<g id="clust2" class="cluster">
<title>cluster_RewardHowToDialogModule_declarations</title>
<polygon fill="none" stroke="black" points="330,-40.8 330,-92.8 552,-92.8 552,-40.8 330,-40.8"/>
</g>
<g id="clust4" class="cluster">
<title>cluster_RewardHowToDialogModule_imports</title>
<polygon fill="none" stroke="black" points="16,-40.8 16,-92.8 322,-92.8 322,-40.8 16,-40.8"/>
</g>
<!-- RewardHowToDialogComponent -->
<g id="node1" class="node">
<title>RewardHowToDialogComponent</title>
<polygon fill="#ffffb3" stroke="black" points="543.73,-84.8 338.27,-84.8 338.27,-48.8 543.73,-48.8 543.73,-84.8"/>
<text text-anchor="middle" x="441" y="-62.6" font-family="Times,serif" font-size="14.00">RewardHowToDialogComponent</text>
</g>
<!-- RewardHowToDialogModule -->
<g id="node2" class="node">
<title>RewardHowToDialogModule</title>
<polygon fill="#8dd3c7" stroke="black" points="340.95,-149.8 337.95,-153.8 316.95,-153.8 313.95,-149.8 157.05,-149.8 157.05,-113.8 340.95,-113.8 340.95,-149.8"/>
<text text-anchor="middle" x="249" y="-127.6" font-family="Times,serif" font-size="14.00">RewardHowToDialogModule</text>
</g>
<!-- RewardHowToDialogComponent&#45;&gt;RewardHowToDialogModule -->
<g id="edge1" class="edge">
<title>RewardHowToDialogComponent&#45;&gt;RewardHowToDialogModule</title>
<path fill="none" stroke="black" d="M338,-66.8C330.7,-66.8 326.14,-66.8 326.14,-66.8 326.14,-66.8 326.14,-103.69 326.14,-103.69"/>
<polygon fill="black" stroke="black" points="322.64,-103.69 326.14,-113.69 329.64,-103.69 322.64,-103.69"/>
</g>
<!-- RewardCardModule -->
<g id="node3" class="node">
<title>RewardCardModule</title>
<polygon fill="#8dd3c7" stroke="black" points="314.29,-84.8 311.29,-88.8 290.29,-88.8 287.29,-84.8 183.71,-84.8 183.71,-48.8 314.29,-48.8 314.29,-84.8"/>
<text text-anchor="middle" x="249" y="-62.6" font-family="Times,serif" font-size="14.00">RewardCardModule</text>
</g>
<!-- RewardCardModule&#45;&gt;RewardHowToDialogModule -->
<g id="edge2" class="edge">
<title>RewardCardModule&#45;&gt;RewardHowToDialogModule</title>
<path fill="none" stroke="black" d="M249,-84.91C249,-84.91 249,-103.79 249,-103.79"/>
<polygon fill="black" stroke="black" points="245.5,-103.79 249,-113.79 252.5,-103.79 245.5,-103.79"/>
</g>
<!-- ScrollWrapperModule -->
<g id="node4" class="node">
<title>ScrollWrapperModule</title>
<polygon fill="#8dd3c7" stroke="black" points="165.95,-84.8 162.95,-88.8 141.95,-88.8 138.95,-84.8 24.05,-84.8 24.05,-48.8 165.95,-48.8 165.95,-84.8"/>
<text text-anchor="middle" x="95" y="-62.6" font-family="Times,serif" font-size="14.00">ScrollWrapperModule</text>
</g>
<!-- ScrollWrapperModule&#45;&gt;RewardHowToDialogModule -->
<g id="edge3" class="edge">
<title>ScrollWrapperModule&#45;&gt;RewardHowToDialogModule</title>
<path fill="none" stroke="black" d="M161.5,-84.91C161.5,-84.91 161.5,-103.79 161.5,-103.79"/>
<polygon fill="black" stroke="black" points="158,-103.79 161.5,-113.79 165,-103.79 158,-103.79"/>
</g>
</g>
</svg>
