<?xml version="1.0" encoding="UTF-8" standalone="no"?>
<!DOCTYPE svg PUBLIC "-//W3C//DTD SVG 1.1//EN"
 "http://www.w3.org/Graphics/SVG/1.1/DTD/svg11.dtd">
<!-- Generated by graphviz version 2.47.3 (20210619.1520)
 -->
<!-- Title: dependencies Pages: 1 -->
<svg width="176pt" height="247pt"
 viewBox="0.00 0.00 176.00 246.80" xmlns="http://www.w3.org/2000/svg" xmlns:xlink="http://www.w3.org/1999/xlink">
<g id="graph0" class="graph" transform="scale(1 1) rotate(0) translate(4 242.8)">
<title>dependencies</title>
<polygon fill="white" stroke="transparent" points="-4,4 -4,-242.8 172,-242.8 172,4 -4,4"/>
<text text-anchor="middle" x="84" y="-8.2" font-family="sans-serif" font-size="14.00">dependencies</text>
<g id="clust1" class="cluster">
<title>cluster_TypescriptAsModule</title>
<polygon fill="none" stroke="black" stroke-dasharray="1,5" points="8,-32.8 8,-230.8 160,-230.8 160,-32.8 8,-32.8"/>
</g>
<g id="clust5" class="cluster">
<title>cluster_TypescriptAsModule_exports</title>
<polygon fill="none" stroke="black" points="16,-170.8 16,-222.8 152,-222.8 152,-170.8 16,-170.8"/>
</g>
<g id="clust2" class="cluster">
<title>cluster_TypescriptAsModule_declarations</title>
<polygon fill="none" stroke="black" points="18,-40.8 18,-92.8 150,-92.8 150,-40.8 18,-40.8"/>
</g>
<!-- TypescriptAsPipe -->
<g id="node1" class="node">
<title>TypescriptAsPipe</title>
<polygon fill="#ffffb3" stroke="black" points="142.31,-84.8 25.69,-84.8 25.69,-48.8 142.31,-48.8 142.31,-84.8"/>
<text text-anchor="middle" x="84" y="-62.6" font-family="Times,serif" font-size="14.00">TypescriptAsPipe</text>
</g>
<!-- TypescriptAsModule -->
<g id="node2" class="node">
<title>TypescriptAsModule</title>
<polygon fill="#8dd3c7" stroke="black" points="151.47,-149.8 148.47,-153.8 127.47,-153.8 124.47,-149.8 16.53,-149.8 16.53,-113.8 151.47,-113.8 151.47,-149.8"/>
<text text-anchor="middle" x="84" y="-127.6" font-family="Times,serif" font-size="14.00">TypescriptAsModule</text>
</g>
<!-- TypescriptAsPipe&#45;&gt;TypescriptAsModule -->
<g id="edge1" class="edge">
<title>TypescriptAsPipe&#45;&gt;TypescriptAsModule</title>
<path fill="none" stroke="black" d="M84,-84.91C84,-84.91 84,-103.79 84,-103.79"/>
<polygon fill="black" stroke="black" points="80.5,-103.79 84,-113.79 87.5,-103.79 80.5,-103.79"/>
</g>
<!-- TypescriptAsPipe  -->
<g id="node3" class="node">
<title>TypescriptAsPipe </title>
<polygon fill="#fb8072" stroke="black" points="143.81,-214.8 24.19,-214.8 24.19,-178.8 143.81,-178.8 143.81,-214.8"/>
<text text-anchor="middle" x="84" y="-192.6" font-family="Times,serif" font-size="14.00">TypescriptAsPipe </text>
</g>
<!-- TypescriptAsModule&#45;&gt;TypescriptAsPipe  -->
<g id="edge2" class="edge">
<title>TypescriptAsModule&#45;&gt;TypescriptAsPipe </title>
<path fill="none" stroke="black" stroke-dasharray="5,2" d="M84,-149.91C84,-149.91 84,-168.79 84,-168.79"/>
<polygon fill="black" stroke="black" points="80.5,-168.79 84,-178.79 87.5,-168.79 80.5,-168.79"/>
</g>
</g>
</svg>
