<?xml version="1.0" encoding="UTF-8" standalone="no"?>
<!DOCTYPE svg PUBLIC "-//W3C//DTD SVG 1.1//EN"
 "http://www.w3.org/Graphics/SVG/1.1/DTD/svg11.dtd">
<!-- Generated by graphviz version 2.47.3 (20210619.1520)
 -->
<!-- Title: dependencies Pages: 1 -->
<svg width="436pt" height="247pt"
 viewBox="0.00 0.00 436.00 246.80" xmlns="http://www.w3.org/2000/svg" xmlns:xlink="http://www.w3.org/1999/xlink">
<g id="graph0" class="graph" transform="scale(1 1) rotate(0) translate(4 242.8)">
<title>dependencies</title>
<polygon fill="white" stroke="transparent" points="-4,4 -4,-242.8 432,-242.8 432,4 -4,4"/>
<text text-anchor="middle" x="214" y="-8.2" font-family="sans-serif" font-size="14.00">dependencies</text>
<g id="clust1" class="cluster">
<title>cluster_NavigationMenuModule</title>
<polygon fill="none" stroke="black" stroke-dasharray="1,5" points="8,-32.8 8,-230.8 420,-230.8 420,-32.8 8,-32.8"/>
</g>
<g id="clust2" class="cluster">
<title>cluster_NavigationMenuModule_declarations</title>
<polygon fill="none" stroke="black" points="220,-40.8 220,-92.8 412,-92.8 412,-40.8 220,-40.8"/>
</g>
<g id="clust5" class="cluster">
<title>cluster_NavigationMenuModule_exports</title>
<polygon fill="none" stroke="black" points="116,-170.8 116,-222.8 312,-222.8 312,-170.8 116,-170.8"/>
</g>
<g id="clust7" class="cluster">
<title>cluster_NavigationMenuModule_providers</title>
<polygon fill="none" stroke="black" points="16,-40.8 16,-92.8 212,-92.8 212,-40.8 16,-40.8"/>
</g>
<!-- NavigationMenuComponent -->
<g id="node1" class="node">
<title>NavigationMenuComponent</title>
<polygon fill="#ffffb3" stroke="black" points="404.2,-84.8 227.8,-84.8 227.8,-48.8 404.2,-48.8 404.2,-84.8"/>
<text text-anchor="middle" x="316" y="-62.6" font-family="Times,serif" font-size="14.00">NavigationMenuComponent</text>
</g>
<!-- NavigationMenuModule -->
<g id="node2" class="node">
<title>NavigationMenuModule</title>
<polygon fill="#8dd3c7" stroke="black" points="291.42,-149.8 288.42,-153.8 267.42,-153.8 264.42,-149.8 136.58,-149.8 136.58,-113.8 291.42,-113.8 291.42,-149.8"/>
<text text-anchor="middle" x="214" y="-127.6" font-family="Times,serif" font-size="14.00">NavigationMenuModule</text>
</g>
<!-- NavigationMenuComponent&#45;&gt;NavigationMenuModule -->
<g id="edge1" class="edge">
<title>NavigationMenuComponent&#45;&gt;NavigationMenuModule</title>
<path fill="none" stroke="black" d="M259.55,-84.91C259.55,-84.91 259.55,-103.79 259.55,-103.79"/>
<polygon fill="black" stroke="black" points="256.05,-103.79 259.55,-113.79 263.05,-103.79 256.05,-103.79"/>
</g>
<!-- NavigationMenuComponent  -->
<g id="node3" class="node">
<title>NavigationMenuComponent </title>
<polygon fill="#fb8072" stroke="black" points="303.7,-214.8 124.3,-214.8 124.3,-178.8 303.7,-178.8 303.7,-214.8"/>
<text text-anchor="middle" x="214" y="-192.6" font-family="Times,serif" font-size="14.00">NavigationMenuComponent </text>
</g>
<!-- NavigationMenuModule&#45;&gt;NavigationMenuComponent  -->
<g id="edge2" class="edge">
<title>NavigationMenuModule&#45;&gt;NavigationMenuComponent </title>
<path fill="none" stroke="black" stroke-dasharray="5,2" d="M214,-149.91C214,-149.91 214,-168.79 214,-168.79"/>
<polygon fill="black" stroke="black" points="210.5,-168.79 214,-178.79 217.5,-168.79 210.5,-168.79"/>
</g>
<!-- MenuEntriesService -->
<g id="node4" class="node">
<title>MenuEntriesService</title>
<ellipse fill="#fdb462" stroke="black" cx="114" cy="-66.8" rx="89.74" ry="18"/>
<text text-anchor="middle" x="114" y="-62.6" font-family="Times,serif" font-size="14.00">MenuEntriesService</text>
</g>
<!-- MenuEntriesService&#45;&gt;NavigationMenuModule -->
<g id="edge3" class="edge">
<title>MenuEntriesService&#45;&gt;NavigationMenuModule</title>
<path fill="none" stroke="black" d="M170.33,-80.9C170.33,-80.9 170.33,-103.52 170.33,-103.52"/>
<polygon fill="black" stroke="black" points="166.83,-103.52 170.33,-113.52 173.83,-103.52 166.83,-103.52"/>
</g>
</g>
</svg>
