<?xml version="1.0" encoding="UTF-8" standalone="no"?>
<!DOCTYPE svg PUBLIC "-//W3C//DTD SVG 1.1//EN"
 "http://www.w3.org/Graphics/SVG/1.1/DTD/svg11.dtd">
<!-- Generated by graphviz version 2.47.3 (20210619.1520)
 -->
<!-- Title: dependencies Pages: 1 -->
<svg width="270pt" height="247pt"
 viewBox="0.00 0.00 270.00 246.80" xmlns="http://www.w3.org/2000/svg" xmlns:xlink="http://www.w3.org/1999/xlink">
<g id="graph0" class="graph" transform="scale(1 1) rotate(0) translate(4 242.8)">
<title>dependencies</title>
<polygon fill="white" stroke="transparent" points="-4,4 -4,-242.8 266,-242.8 266,4 -4,4"/>
<text text-anchor="middle" x="131" y="-8.2" font-family="sans-serif" font-size="14.00">dependencies</text>
<g id="clust1" class="cluster">
<title>cluster_HomeBannerContainerModule</title>
<polygon fill="none" stroke="black" stroke-dasharray="1,5" points="8,-32.8 8,-230.8 254,-230.8 254,-32.8 8,-32.8"/>
</g>
<g id="clust2" class="cluster">
<title>cluster_HomeBannerContainerModule_declarations</title>
<polygon fill="none" stroke="black" points="17,-40.8 17,-92.8 245,-92.8 245,-40.8 17,-40.8"/>
</g>
<g id="clust5" class="cluster">
<title>cluster_HomeBannerContainerModule_exports</title>
<polygon fill="none" stroke="black" points="16,-170.8 16,-222.8 246,-222.8 246,-170.8 16,-170.8"/>
</g>
<!-- HomeBannerContainerComponent -->
<g id="node1" class="node">
<title>HomeBannerContainerComponent</title>
<polygon fill="#ffffb3" stroke="black" points="236.68,-84.8 25.32,-84.8 25.32,-48.8 236.68,-48.8 236.68,-84.8"/>
<text text-anchor="middle" x="131" y="-62.6" font-family="Times,serif" font-size="14.00">HomeBannerContainerComponent</text>
</g>
<!-- HomeBannerContainerModule -->
<g id="node2" class="node">
<title>HomeBannerContainerModule</title>
<polygon fill="#8dd3c7" stroke="black" points="225.9,-149.8 222.9,-153.8 201.9,-153.8 198.9,-149.8 36.1,-149.8 36.1,-113.8 225.9,-113.8 225.9,-149.8"/>
<text text-anchor="middle" x="131" y="-127.6" font-family="Times,serif" font-size="14.00">HomeBannerContainerModule</text>
</g>
<!-- HomeBannerContainerComponent&#45;&gt;HomeBannerContainerModule -->
<g id="edge1" class="edge">
<title>HomeBannerContainerComponent&#45;&gt;HomeBannerContainerModule</title>
<path fill="none" stroke="black" d="M131,-84.91C131,-84.91 131,-103.79 131,-103.79"/>
<polygon fill="black" stroke="black" points="127.5,-103.79 131,-113.79 134.5,-103.79 127.5,-103.79"/>
</g>
<!-- HomeBannerContainerComponent  -->
<g id="node3" class="node">
<title>HomeBannerContainerComponent </title>
<polygon fill="#fb8072" stroke="black" points="238.18,-214.8 23.82,-214.8 23.82,-178.8 238.18,-178.8 238.18,-214.8"/>
<text text-anchor="middle" x="131" y="-192.6" font-family="Times,serif" font-size="14.00">HomeBannerContainerComponent </text>
</g>
<!-- HomeBannerContainerModule&#45;&gt;HomeBannerContainerComponent  -->
<g id="edge2" class="edge">
<title>HomeBannerContainerModule&#45;&gt;HomeBannerContainerComponent </title>
<path fill="none" stroke="black" stroke-dasharray="5,2" d="M131,-149.91C131,-149.91 131,-168.79 131,-168.79"/>
<polygon fill="black" stroke="black" points="127.5,-168.79 131,-178.79 134.5,-168.79 127.5,-168.79"/>
</g>
</g>
</svg>
