<?xml version="1.0" encoding="UTF-8" standalone="no"?>
<!DOCTYPE svg PUBLIC "-//W3C//DTD SVG 1.1//EN"
 "http://www.w3.org/Graphics/SVG/1.1/DTD/svg11.dtd">
<!-- Generated by graphviz version 2.47.3 (20210619.1520)
 -->
<!-- Title: dependencies Pages: 1 -->
<svg width="1366pt" height="247pt"
 viewBox="0.00 0.00 1366.00 246.80" xmlns="http://www.w3.org/2000/svg" xmlns:xlink="http://www.w3.org/1999/xlink">
<g id="graph0" class="graph" transform="scale(1 1) rotate(0) translate(4 242.8)">
<title>dependencies</title>
<polygon fill="white" stroke="transparent" points="-4,4 -4,-242.8 1362,-242.8 1362,4 -4,4"/>
<text text-anchor="middle" x="679" y="-8.2" font-family="sans-serif" font-size="14.00">dependencies</text>
<g id="clust1" class="cluster">
<title>cluster_SituationFormModule</title>
<polygon fill="none" stroke="black" stroke-dasharray="1,5" points="8,-32.8 8,-230.8 1350,-230.8 1350,-32.8 8,-32.8"/>
</g>
<g id="clust2" class="cluster">
<title>cluster_SituationFormModule_declarations</title>
<polygon fill="none" stroke="black" points="1164,-40.8 1164,-92.8 1342,-92.8 1342,-40.8 1164,-40.8"/>
</g>
<g id="clust5" class="cluster">
<title>cluster_SituationFormModule_exports</title>
<polygon fill="none" stroke="black" points="554,-170.8 554,-222.8 736,-222.8 736,-170.8 554,-170.8"/>
</g>
<g id="clust4" class="cluster">
<title>cluster_SituationFormModule_imports</title>
<polygon fill="none" stroke="black" points="347,-40.8 347,-92.8 1156,-92.8 1156,-40.8 347,-40.8"/>
</g>
<g id="clust7" class="cluster">
<title>cluster_SituationFormModule_providers</title>
<polygon fill="none" stroke="black" points="16,-40.8 16,-92.8 339,-92.8 339,-40.8 16,-40.8"/>
</g>
<!-- SituationFormComponent -->
<g id="node1" class="node">
<title>SituationFormComponent</title>
<polygon fill="#ffffb3" stroke="black" points="1334.23,-84.8 1171.77,-84.8 1171.77,-48.8 1334.23,-48.8 1334.23,-84.8"/>
<text text-anchor="middle" x="1253" y="-62.6" font-family="Times,serif" font-size="14.00">SituationFormComponent</text>
</g>
<!-- SituationFormModule -->
<g id="node2" class="node">
<title>SituationFormModule</title>
<polygon fill="#8dd3c7" stroke="black" points="715.44,-149.8 712.44,-153.8 691.44,-153.8 688.44,-149.8 574.56,-149.8 574.56,-113.8 715.44,-113.8 715.44,-149.8"/>
<text text-anchor="middle" x="645" y="-127.6" font-family="Times,serif" font-size="14.00">SituationFormModule</text>
</g>
<!-- SituationFormComponent&#45;&gt;SituationFormModule -->
<g id="edge1" class="edge">
<title>SituationFormComponent&#45;&gt;SituationFormModule</title>
<path fill="none" stroke="black" d="M1253,-85.09C1253,-107.01 1253,-140.8 1253,-140.8 1253,-140.8 725.34,-140.8 725.34,-140.8"/>
<polygon fill="black" stroke="black" points="725.34,-137.3 715.34,-140.8 725.34,-144.3 725.34,-137.3"/>
</g>
<!-- SituationFormComponent  -->
<g id="node7" class="node">
<title>SituationFormComponent </title>
<polygon fill="#fb8072" stroke="black" points="727.73,-214.8 562.27,-214.8 562.27,-178.8 727.73,-178.8 727.73,-214.8"/>
<text text-anchor="middle" x="645" y="-192.6" font-family="Times,serif" font-size="14.00">SituationFormComponent </text>
</g>
<!-- SituationFormModule&#45;&gt;SituationFormComponent  -->
<g id="edge6" class="edge">
<title>SituationFormModule&#45;&gt;SituationFormComponent </title>
<path fill="none" stroke="black" stroke-dasharray="5,2" d="M645,-149.91C645,-149.91 645,-168.79 645,-168.79"/>
<polygon fill="black" stroke="black" points="641.5,-168.79 645,-178.79 648.5,-168.79 641.5,-168.79"/>
</g>
<!-- ScrollToModule -->
<g id="node3" class="node">
<title>ScrollToModule</title>
<polygon fill="#8dd3c7" stroke="black" points="1148.04,-84.8 1145.04,-88.8 1124.04,-88.8 1121.04,-84.8 1039.96,-84.8 1039.96,-48.8 1148.04,-48.8 1148.04,-84.8"/>
<text text-anchor="middle" x="1094" y="-62.6" font-family="Times,serif" font-size="14.00">ScrollToModule</text>
</g>
<!-- ScrollToModule&#45;&gt;SituationFormModule -->
<g id="edge2" class="edge">
<title>ScrollToModule&#45;&gt;SituationFormModule</title>
<path fill="none" stroke="black" d="M1094,-84.91C1094,-104.14 1094,-131.8 1094,-131.8 1094,-131.8 725.65,-131.8 725.65,-131.8"/>
<polygon fill="black" stroke="black" points="725.65,-128.3 715.65,-131.8 725.65,-135.3 725.65,-128.3"/>
</g>
<!-- SelectMultiCardMultipleControlModule -->
<g id="node4" class="node">
<title>SelectMultiCardMultipleControlModule</title>
<polygon fill="#8dd3c7" stroke="black" points="1021.59,-84.8 1018.59,-88.8 997.59,-88.8 994.59,-84.8 778.41,-84.8 778.41,-48.8 1021.59,-48.8 1021.59,-84.8"/>
<text text-anchor="middle" x="900" y="-62.6" font-family="Times,serif" font-size="14.00">SelectMultiCardMultipleControlModule</text>
</g>
<!-- SelectMultiCardMultipleControlModule&#45;&gt;SituationFormModule -->
<g id="edge3" class="edge">
<title>SelectMultiCardMultipleControlModule&#45;&gt;SituationFormModule</title>
<path fill="none" stroke="black" d="M900,-84.83C900,-101.2 900,-122.8 900,-122.8 900,-122.8 725.35,-122.8 725.35,-122.8"/>
<polygon fill="black" stroke="black" points="725.35,-119.3 715.35,-122.8 725.35,-126.3 725.35,-119.3"/>
</g>
<!-- SelectMultiCardSingleControlModule -->
<g id="node5" class="node">
<title>SelectMultiCardSingleControlModule</title>
<polygon fill="#8dd3c7" stroke="black" points="760.14,-84.8 757.14,-88.8 736.14,-88.8 733.14,-84.8 529.86,-84.8 529.86,-48.8 760.14,-48.8 760.14,-84.8"/>
<text text-anchor="middle" x="645" y="-62.6" font-family="Times,serif" font-size="14.00">SelectMultiCardSingleControlModule</text>
</g>
<!-- SelectMultiCardSingleControlModule&#45;&gt;SituationFormModule -->
<g id="edge4" class="edge">
<title>SelectMultiCardSingleControlModule&#45;&gt;SituationFormModule</title>
<path fill="none" stroke="black" d="M645,-84.91C645,-84.91 645,-103.79 645,-103.79"/>
<polygon fill="black" stroke="black" points="641.5,-103.79 645,-113.79 648.5,-103.79 641.5,-103.79"/>
</g>
<!-- YoutubeWrapperModule -->
<g id="node6" class="node">
<title>YoutubeWrapperModule</title>
<polygon fill="#8dd3c7" stroke="black" points="511.23,-84.8 508.23,-88.8 487.23,-88.8 484.23,-84.8 354.77,-84.8 354.77,-48.8 511.23,-48.8 511.23,-84.8"/>
<text text-anchor="middle" x="433" y="-62.6" font-family="Times,serif" font-size="14.00">YoutubeWrapperModule</text>
</g>
<!-- YoutubeWrapperModule&#45;&gt;SituationFormModule -->
<g id="edge5" class="edge">
<title>YoutubeWrapperModule&#45;&gt;SituationFormModule</title>
<path fill="none" stroke="black" d="M433,-84.83C433,-101.2 433,-122.8 433,-122.8 433,-122.8 564.7,-122.8 564.7,-122.8"/>
<polygon fill="black" stroke="black" points="564.7,-126.3 574.7,-122.8 564.7,-119.3 564.7,-126.3"/>
</g>
<!-- SituationClient -->
<g id="node8" class="node">
<title>SituationClient</title>
<ellipse fill="#fdb462" stroke="black" cx="261" cy="-66.8" rx="69.54" ry="18"/>
<text text-anchor="middle" x="261" y="-62.6" font-family="Times,serif" font-size="14.00">SituationClient</text>
</g>
<!-- SituationClient&#45;&gt;SituationFormModule -->
<g id="edge7" class="edge">
<title>SituationClient&#45;&gt;SituationFormModule</title>
<path fill="none" stroke="black" d="M261,-84.91C261,-104.14 261,-131.8 261,-131.8 261,-131.8 564.57,-131.8 564.57,-131.8"/>
<polygon fill="black" stroke="black" points="564.57,-135.3 574.57,-131.8 564.57,-128.3 564.57,-135.3"/>
</g>
<!-- SituationService -->
<g id="node9" class="node">
<title>SituationService</title>
<ellipse fill="#fdb462" stroke="black" cx="99" cy="-66.8" rx="74.73" ry="18"/>
<text text-anchor="middle" x="99" y="-62.6" font-family="Times,serif" font-size="14.00">SituationService</text>
</g>
<!-- SituationService&#45;&gt;SituationFormModule -->
<g id="edge8" class="edge">
<title>SituationService&#45;&gt;SituationFormModule</title>
<path fill="none" stroke="black" d="M99,-85.09C99,-107.01 99,-140.8 99,-140.8 99,-140.8 564.74,-140.8 564.74,-140.8"/>
<polygon fill="black" stroke="black" points="564.74,-144.3 574.74,-140.8 564.74,-137.3 564.74,-144.3"/>
</g>
</g>
</svg>
