<?xml version="1.0" encoding="UTF-8" standalone="no"?>
<!DOCTYPE svg PUBLIC "-//W3C//DTD SVG 1.1//EN"
 "http://www.w3.org/Graphics/SVG/1.1/DTD/svg11.dtd">
<!-- Generated by graphviz version 2.47.3 (20210619.1520)
 -->
<!-- Title: dependencies Pages: 1 -->
<svg width="184pt" height="247pt"
 viewBox="0.00 0.00 184.00 246.80" xmlns="http://www.w3.org/2000/svg" xmlns:xlink="http://www.w3.org/1999/xlink">
<g id="graph0" class="graph" transform="scale(1 1) rotate(0) translate(4 242.8)">
<title>dependencies</title>
<polygon fill="white" stroke="transparent" points="-4,4 -4,-242.8 180,-242.8 180,4 -4,4"/>
<text text-anchor="middle" x="88" y="-8.2" font-family="sans-serif" font-size="14.00">dependencies</text>
<g id="clust1" class="cluster">
<title>cluster_FormatUrlPipeModule</title>
<polygon fill="none" stroke="black" stroke-dasharray="1,5" points="8,-32.8 8,-230.8 168,-230.8 168,-32.8 8,-32.8"/>
</g>
<g id="clust2" class="cluster">
<title>cluster_FormatUrlPipeModule_declarations</title>
<polygon fill="none" stroke="black" points="30,-40.8 30,-92.8 146,-92.8 146,-40.8 30,-40.8"/>
</g>
<g id="clust5" class="cluster">
<title>cluster_FormatUrlPipeModule_exports</title>
<polygon fill="none" stroke="black" points="28,-170.8 28,-222.8 148,-222.8 148,-170.8 28,-170.8"/>
</g>
<!-- FormatUrlPipe -->
<g id="node1" class="node">
<title>FormatUrlPipe</title>
<polygon fill="#ffffb3" stroke="black" points="137.98,-84.8 38.02,-84.8 38.02,-48.8 137.98,-48.8 137.98,-84.8"/>
<text text-anchor="middle" x="88" y="-62.6" font-family="Times,serif" font-size="14.00">FormatUrlPipe</text>
</g>
<!-- FormatUrlPipeModule -->
<g id="node2" class="node">
<title>FormatUrlPipeModule</title>
<polygon fill="#8dd3c7" stroke="black" points="159.54,-149.8 156.54,-153.8 135.54,-153.8 132.54,-149.8 16.46,-149.8 16.46,-113.8 159.54,-113.8 159.54,-149.8"/>
<text text-anchor="middle" x="88" y="-127.6" font-family="Times,serif" font-size="14.00">FormatUrlPipeModule</text>
</g>
<!-- FormatUrlPipe&#45;&gt;FormatUrlPipeModule -->
<g id="edge1" class="edge">
<title>FormatUrlPipe&#45;&gt;FormatUrlPipeModule</title>
<path fill="none" stroke="black" d="M88,-84.91C88,-84.91 88,-103.79 88,-103.79"/>
<polygon fill="black" stroke="black" points="84.5,-103.79 88,-113.79 91.5,-103.79 84.5,-103.79"/>
</g>
<!-- FormatUrlPipe  -->
<g id="node3" class="node">
<title>FormatUrlPipe </title>
<polygon fill="#fb8072" stroke="black" points="139.99,-214.8 36.01,-214.8 36.01,-178.8 139.99,-178.8 139.99,-214.8"/>
<text text-anchor="middle" x="88" y="-192.6" font-family="Times,serif" font-size="14.00">FormatUrlPipe </text>
</g>
<!-- FormatUrlPipeModule&#45;&gt;FormatUrlPipe  -->
<g id="edge2" class="edge">
<title>FormatUrlPipeModule&#45;&gt;FormatUrlPipe </title>
<path fill="none" stroke="black" stroke-dasharray="5,2" d="M88,-149.91C88,-149.91 88,-168.79 88,-168.79"/>
<polygon fill="black" stroke="black" points="84.5,-168.79 88,-178.79 91.5,-168.79 84.5,-168.79"/>
</g>
</g>
</svg>
