<?xml version="1.0" encoding="UTF-8" standalone="no"?>
<!DOCTYPE svg PUBLIC "-//W3C//DTD SVG 1.1//EN"
 "http://www.w3.org/Graphics/SVG/1.1/DTD/svg11.dtd">
<!-- Generated by graphviz version 2.47.3 (20210619.1520)
 -->
<!-- Title: dependencies Pages: 1 -->
<svg width="772pt" height="174pt"
 viewBox="0.00 0.00 772.00 173.80" xmlns="http://www.w3.org/2000/svg" xmlns:xlink="http://www.w3.org/1999/xlink">
<g id="graph0" class="graph" transform="scale(1 1) rotate(0) translate(4 169.8)">
<title>dependencies</title>
<polygon fill="white" stroke="transparent" points="-4,4 -4,-169.8 768,-169.8 768,4 -4,4"/>
<text text-anchor="middle" x="382" y="-8.2" font-family="sans-serif" font-size="14.00">dependencies</text>
<g id="clust1" class="cluster">
<title>cluster_AdminLeadsPageModule</title>
<polygon fill="none" stroke="black" stroke-dasharray="1,5" points="8,-32.8 8,-157.8 756,-157.8 756,-32.8 8,-32.8"/>
</g>
<g id="clust2" class="cluster">
<title>cluster_AdminLeadsPageModule_declarations</title>
<polygon fill="none" stroke="black" points="552,-40.8 552,-92.8 748,-92.8 748,-40.8 552,-40.8"/>
</g>
<g id="clust7" class="cluster">
<title>cluster_AdminLeadsPageModule_providers</title>
<polygon fill="none" stroke="black" points="356,-40.8 356,-92.8 544,-92.8 544,-40.8 356,-40.8"/>
</g>
<g id="clust4" class="cluster">
<title>cluster_AdminLeadsPageModule_imports</title>
<polygon fill="none" stroke="black" points="16,-40.8 16,-92.8 348,-92.8 348,-40.8 16,-40.8"/>
</g>
<!-- AdminLeadsPageComponent -->
<g id="node1" class="node">
<title>AdminLeadsPageComponent</title>
<polygon fill="#ffffb3" stroke="black" points="740.36,-84.8 559.64,-84.8 559.64,-48.8 740.36,-48.8 740.36,-84.8"/>
<text text-anchor="middle" x="650" y="-62.6" font-family="Times,serif" font-size="14.00">AdminLeadsPageComponent</text>
</g>
<!-- AdminLeadsPageModule -->
<g id="node2" class="node">
<title>AdminLeadsPageModule</title>
<polygon fill="#8dd3c7" stroke="black" points="440.58,-149.8 437.58,-153.8 416.58,-153.8 413.58,-149.8 281.42,-149.8 281.42,-113.8 440.58,-113.8 440.58,-149.8"/>
<text text-anchor="middle" x="361" y="-127.6" font-family="Times,serif" font-size="14.00">AdminLeadsPageModule</text>
</g>
<!-- AdminLeadsPageComponent&#45;&gt;AdminLeadsPageModule -->
<g id="edge1" class="edge">
<title>AdminLeadsPageComponent&#45;&gt;AdminLeadsPageModule</title>
<path fill="none" stroke="black" d="M650,-84.91C650,-104.14 650,-131.8 650,-131.8 650,-131.8 450.74,-131.8 450.74,-131.8"/>
<polygon fill="black" stroke="black" points="450.74,-128.3 440.74,-131.8 450.74,-135.3 450.74,-128.3"/>
</g>
<!-- AdminFiltersModule -->
<g id="node3" class="node">
<title>AdminFiltersModule</title>
<polygon fill="#8dd3c7" stroke="black" points="340.21,-84.8 337.21,-88.8 316.21,-88.8 313.21,-84.8 205.79,-84.8 205.79,-48.8 340.21,-48.8 340.21,-84.8"/>
<text text-anchor="middle" x="273" y="-62.6" font-family="Times,serif" font-size="14.00">AdminFiltersModule</text>
</g>
<!-- AdminFiltersModule&#45;&gt;AdminLeadsPageModule -->
<g id="edge2" class="edge">
<title>AdminFiltersModule&#45;&gt;AdminLeadsPageModule</title>
<path fill="none" stroke="black" d="M310.78,-84.91C310.78,-84.91 310.78,-103.79 310.78,-103.79"/>
<polygon fill="black" stroke="black" points="307.28,-103.79 310.78,-113.79 314.28,-103.79 307.28,-103.79"/>
</g>
<!-- AdminLeadsTableModule -->
<g id="node4" class="node">
<title>AdminLeadsTableModule</title>
<polygon fill="#8dd3c7" stroke="black" points="187.74,-84.8 184.74,-88.8 163.74,-88.8 160.74,-84.8 24.26,-84.8 24.26,-48.8 187.74,-48.8 187.74,-84.8"/>
<text text-anchor="middle" x="106" y="-62.6" font-family="Times,serif" font-size="14.00">AdminLeadsTableModule</text>
</g>
<!-- AdminLeadsTableModule&#45;&gt;AdminLeadsPageModule -->
<g id="edge3" class="edge">
<title>AdminLeadsTableModule&#45;&gt;AdminLeadsPageModule</title>
<path fill="none" stroke="black" d="M106,-84.91C106,-104.14 106,-131.8 106,-131.8 106,-131.8 271.37,-131.8 271.37,-131.8"/>
<polygon fill="black" stroke="black" points="271.37,-135.3 281.37,-131.8 271.37,-128.3 271.37,-135.3"/>
</g>
<!-- ApplicationService -->
<g id="node5" class="node">
<title>ApplicationService</title>
<ellipse fill="#fdb462" stroke="black" cx="450" cy="-66.8" rx="85.67" ry="18"/>
<text text-anchor="middle" x="450" y="-62.6" font-family="Times,serif" font-size="14.00">ApplicationService</text>
</g>
<!-- ApplicationService&#45;&gt;AdminLeadsPageModule -->
<g id="edge4" class="edge">
<title>ApplicationService&#45;&gt;AdminLeadsPageModule</title>
<path fill="none" stroke="black" d="M402.48,-81.88C402.48,-81.88 402.48,-103.56 402.48,-103.56"/>
<polygon fill="black" stroke="black" points="398.98,-103.56 402.48,-113.56 405.98,-103.56 398.98,-103.56"/>
</g>
</g>
</svg>
