<?xml version="1.0" encoding="UTF-8" standalone="no"?>
<!DOCTYPE svg PUBLIC "-//W3C//DTD SVG 1.1//EN"
 "http://www.w3.org/Graphics/SVG/1.1/DTD/svg11.dtd">
<!-- Generated by graphviz version 2.47.3 (20210619.1520)
 -->
<!-- Title: dependencies Pages: 1 -->
<svg width="540pt" height="247pt"
 viewBox="0.00 0.00 540.00 246.80" xmlns="http://www.w3.org/2000/svg" xmlns:xlink="http://www.w3.org/1999/xlink">
<g id="graph0" class="graph" transform="scale(1 1) rotate(0) translate(4 242.8)">
<title>dependencies</title>
<polygon fill="white" stroke="transparent" points="-4,4 -4,-242.8 536,-242.8 536,4 -4,4"/>
<text text-anchor="middle" x="266" y="-8.2" font-family="sans-serif" font-size="14.00">dependencies</text>
<g id="clust1" class="cluster">
<title>cluster_AppModule</title>
<polygon fill="none" stroke="black" stroke-dasharray="1,5" points="8,-32.8 8,-230.8 524,-230.8 524,-32.8 8,-32.8"/>
</g>
<g id="clust4" class="cluster">
<title>cluster_AppModule_imports</title>
<polygon fill="none" stroke="black" points="146,-40.8 146,-92.8 516,-92.8 516,-40.8 146,-40.8"/>
</g>
<g id="clust2" class="cluster">
<title>cluster_AppModule_declarations</title>
<polygon fill="none" stroke="black" points="16,-40.8 16,-92.8 138,-92.8 138,-40.8 16,-40.8"/>
</g>
<g id="clust6" class="cluster">
<title>cluster_AppModule_bootstrap</title>
<polygon fill="none" stroke="black" points="202,-170.8 202,-222.8 326,-222.8 326,-170.8 202,-170.8"/>
</g>
<!-- AppComponent -->
<g id="node1" class="node">
<title>AppComponent</title>
<polygon fill="#ffffb3" stroke="black" points="129.94,-84.8 24.06,-84.8 24.06,-48.8 129.94,-48.8 129.94,-84.8"/>
<text text-anchor="middle" x="77" y="-62.6" font-family="Times,serif" font-size="14.00">AppComponent</text>
</g>
<!-- AppModule -->
<g id="node2" class="node">
<title>AppModule</title>
<polygon fill="#8dd3c7" stroke="black" points="305.66,-149.8 302.66,-153.8 281.66,-153.8 278.66,-149.8 222.34,-149.8 222.34,-113.8 305.66,-113.8 305.66,-149.8"/>
<text text-anchor="middle" x="264" y="-127.6" font-family="Times,serif" font-size="14.00">AppModule</text>
</g>
<!-- AppComponent&#45;&gt;AppModule -->
<g id="edge1" class="edge">
<title>AppComponent&#45;&gt;AppModule</title>
<path fill="none" stroke="black" d="M77,-84.91C77,-104.14 77,-131.8 77,-131.8 77,-131.8 212.03,-131.8 212.03,-131.8"/>
<polygon fill="black" stroke="black" points="212.03,-135.3 222.03,-131.8 212.03,-128.3 212.03,-135.3"/>
</g>
<!-- AppComponent  -->
<g id="node6" class="node">
<title>AppComponent </title>
<polygon fill="#80b1d3" stroke="black" points="318.44,-214.8 209.56,-214.8 209.56,-178.8 318.44,-178.8 318.44,-214.8"/>
<text text-anchor="middle" x="264" y="-192.6" font-family="Times,serif" font-size="14.00">AppComponent </text>
</g>
<!-- AppModule&#45;&gt;AppComponent  -->
<g id="edge5" class="edge">
<title>AppModule&#45;&gt;AppComponent </title>
<path fill="none" stroke="black" stroke-dasharray="1,5" d="M264,-149.91C264,-149.91 264,-168.79 264,-168.79"/>
<polygon fill="black" stroke="black" points="260.5,-168.79 264,-178.79 267.5,-168.79 260.5,-168.79"/>
</g>
<!-- AppRouting -->
<g id="node3" class="node">
<title>AppRouting</title>
<polygon fill="#8dd3c7" stroke="black" points="507.72,-84.8 504.72,-88.8 483.72,-88.8 480.72,-84.8 422.28,-84.8 422.28,-48.8 507.72,-48.8 507.72,-84.8"/>
<text text-anchor="middle" x="465" y="-62.6" font-family="Times,serif" font-size="14.00">AppRouting</text>
</g>
<!-- AppRouting&#45;&gt;AppModule -->
<g id="edge2" class="edge">
<title>AppRouting&#45;&gt;AppModule</title>
<path fill="none" stroke="black" d="M465,-84.91C465,-104.14 465,-131.8 465,-131.8 465,-131.8 316.14,-131.8 316.14,-131.8"/>
<polygon fill="black" stroke="black" points="316.14,-128.3 306.14,-131.8 316.14,-135.3 316.14,-128.3"/>
</g>
<!-- ConsentBannerModule -->
<g id="node4" class="node">
<title>ConsentBannerModule</title>
<polygon fill="#8dd3c7" stroke="black" points="403.86,-84.8 400.86,-88.8 379.86,-88.8 376.86,-84.8 258.14,-84.8 258.14,-48.8 403.86,-48.8 403.86,-84.8"/>
<text text-anchor="middle" x="331" y="-62.6" font-family="Times,serif" font-size="14.00">ConsentBannerModule</text>
</g>
<!-- ConsentBannerModule&#45;&gt;AppModule -->
<g id="edge3" class="edge">
<title>ConsentBannerModule&#45;&gt;AppModule</title>
<path fill="none" stroke="black" d="M281.95,-84.91C281.95,-84.91 281.95,-103.79 281.95,-103.79"/>
<polygon fill="black" stroke="black" points="278.45,-103.79 281.95,-113.79 285.45,-103.79 278.45,-103.79"/>
</g>
<!-- CoreModule -->
<g id="node5" class="node">
<title>CoreModule</title>
<polygon fill="#8dd3c7" stroke="black" points="240.26,-84.8 237.26,-88.8 216.26,-88.8 213.26,-84.8 153.74,-84.8 153.74,-48.8 240.26,-48.8 240.26,-84.8"/>
<text text-anchor="middle" x="197" y="-62.6" font-family="Times,serif" font-size="14.00">CoreModule</text>
</g>
<!-- CoreModule&#45;&gt;AppModule -->
<g id="edge4" class="edge">
<title>CoreModule&#45;&gt;AppModule</title>
<path fill="none" stroke="black" d="M231.28,-84.91C231.28,-84.91 231.28,-103.79 231.28,-103.79"/>
<polygon fill="black" stroke="black" points="227.78,-103.79 231.28,-113.79 234.78,-103.79 227.78,-103.79"/>
</g>
</g>
</svg>
