<?xml version="1.0" encoding="UTF-8" standalone="no"?>
<!DOCTYPE svg PUBLIC "-//W3C//DTD SVG 1.1//EN"
 "http://www.w3.org/Graphics/SVG/1.1/DTD/svg11.dtd">
<!-- Generated by graphviz version 2.47.3 (20210619.1520)
 -->
<!-- Title: dependencies Pages: 1 -->
<svg width="680pt" height="247pt"
 viewBox="0.00 0.00 680.00 246.80" xmlns="http://www.w3.org/2000/svg" xmlns:xlink="http://www.w3.org/1999/xlink">
<g id="graph0" class="graph" transform="scale(1 1) rotate(0) translate(4 242.8)">
<title>dependencies</title>
<polygon fill="white" stroke="transparent" points="-4,4 -4,-242.8 676,-242.8 676,4 -4,4"/>
<text text-anchor="middle" x="336" y="-8.2" font-family="sans-serif" font-size="14.00">dependencies</text>
<g id="clust1" class="cluster">
<title>cluster_CompanyDetailsDialogModule</title>
<polygon fill="none" stroke="black" stroke-dasharray="1,5" points="8,-32.8 8,-230.8 664,-230.8 664,-32.8 8,-32.8"/>
</g>
<g id="clust2" class="cluster">
<title>cluster_CompanyDetailsDialogModule_declarations</title>
<polygon fill="none" stroke="black" points="426,-40.8 426,-92.8 656,-92.8 656,-40.8 426,-40.8"/>
</g>
<g id="clust4" class="cluster">
<title>cluster_CompanyDetailsDialogModule_imports</title>
<polygon fill="none" stroke="black" points="16,-40.8 16,-92.8 418,-92.8 418,-40.8 16,-40.8"/>
</g>
<g id="clust5" class="cluster">
<title>cluster_CompanyDetailsDialogModule_exports</title>
<polygon fill="none" stroke="black" points="216,-170.8 216,-222.8 450,-222.8 450,-170.8 216,-170.8"/>
</g>
<!-- CompanyDetailsDialogComponent -->
<g id="node1" class="node">
<title>CompanyDetailsDialogComponent</title>
<polygon fill="#ffffb3" stroke="black" points="647.53,-84.8 434.47,-84.8 434.47,-48.8 647.53,-48.8 647.53,-84.8"/>
<text text-anchor="middle" x="541" y="-62.6" font-family="Times,serif" font-size="14.00">CompanyDetailsDialogComponent</text>
</g>
<!-- CompanyDetailsDialogModule -->
<g id="node2" class="node">
<title>CompanyDetailsDialogModule</title>
<polygon fill="#8dd3c7" stroke="black" points="428.75,-149.8 425.75,-153.8 404.75,-153.8 401.75,-149.8 237.25,-149.8 237.25,-113.8 428.75,-113.8 428.75,-149.8"/>
<text text-anchor="middle" x="333" y="-127.6" font-family="Times,serif" font-size="14.00">CompanyDetailsDialogModule</text>
</g>
<!-- CompanyDetailsDialogComponent&#45;&gt;CompanyDetailsDialogModule -->
<g id="edge1" class="edge">
<title>CompanyDetailsDialogComponent&#45;&gt;CompanyDetailsDialogModule</title>
<path fill="none" stroke="black" d="M437.88,-84.91C437.88,-104.14 437.88,-131.8 437.88,-131.8 437.88,-131.8 436.98,-131.8 436.98,-131.8"/>
<polygon fill="black" stroke="black" points="438.93,-128.3 428.93,-131.8 438.93,-135.3 438.93,-128.3"/>
</g>
<!-- CompanyDetailsDialogComponent  -->
<g id="node5" class="node">
<title>CompanyDetailsDialogComponent </title>
<polygon fill="#fb8072" stroke="black" points="441.53,-214.8 224.47,-214.8 224.47,-178.8 441.53,-178.8 441.53,-214.8"/>
<text text-anchor="middle" x="333" y="-192.6" font-family="Times,serif" font-size="14.00">CompanyDetailsDialogComponent </text>
</g>
<!-- CompanyDetailsDialogModule&#45;&gt;CompanyDetailsDialogComponent  -->
<g id="edge4" class="edge">
<title>CompanyDetailsDialogModule&#45;&gt;CompanyDetailsDialogComponent </title>
<path fill="none" stroke="black" stroke-dasharray="5,2" d="M333,-149.91C333,-149.91 333,-168.79 333,-168.79"/>
<polygon fill="black" stroke="black" points="329.5,-168.79 333,-178.79 336.5,-168.79 329.5,-168.79"/>
</g>
<!-- CompanyDetailsModule -->
<g id="node3" class="node">
<title>CompanyDetailsModule</title>
<polygon fill="#8dd3c7" stroke="black" points="409.64,-84.8 406.64,-88.8 385.64,-88.8 382.64,-84.8 256.36,-84.8 256.36,-48.8 409.64,-48.8 409.64,-84.8"/>
<text text-anchor="middle" x="333" y="-62.6" font-family="Times,serif" font-size="14.00">CompanyDetailsModule</text>
</g>
<!-- CompanyDetailsModule&#45;&gt;CompanyDetailsDialogModule -->
<g id="edge2" class="edge">
<title>CompanyDetailsModule&#45;&gt;CompanyDetailsDialogModule</title>
<path fill="none" stroke="black" d="M333,-84.91C333,-84.91 333,-103.79 333,-103.79"/>
<polygon fill="black" stroke="black" points="329.5,-103.79 333,-113.79 336.5,-103.79 329.5,-103.79"/>
</g>
<!-- DialogWithMediaTemplateModule -->
<g id="node4" class="node">
<title>DialogWithMediaTemplateModule</title>
<polygon fill="#8dd3c7" stroke="black" points="238.28,-84.8 235.28,-88.8 214.28,-88.8 211.28,-84.8 23.72,-84.8 23.72,-48.8 238.28,-48.8 238.28,-84.8"/>
<text text-anchor="middle" x="131" y="-62.6" font-family="Times,serif" font-size="14.00">DialogWithMediaTemplateModule</text>
</g>
<!-- DialogWithMediaTemplateModule&#45;&gt;CompanyDetailsDialogModule -->
<g id="edge3" class="edge">
<title>DialogWithMediaTemplateModule&#45;&gt;CompanyDetailsDialogModule</title>
<path fill="none" stroke="black" d="M230.81,-84.91C230.81,-104.14 230.81,-131.8 230.81,-131.8 230.81,-131.8 231.45,-131.8 231.45,-131.8"/>
<polygon fill="black" stroke="black" points="227.2,-135.3 237.2,-131.8 227.2,-128.3 227.2,-135.3"/>
</g>
</g>
</svg>
