<?xml version="1.0" encoding="UTF-8" standalone="no"?>
<!DOCTYPE svg PUBLIC "-//W3C//DTD SVG 1.1//EN"
 "http://www.w3.org/Graphics/SVG/1.1/DTD/svg11.dtd">
<!-- Generated by graphviz version 2.47.3 (20210619.1520)
 -->
<!-- Title: dependencies Pages: 1 -->
<svg width="180pt" height="247pt"
 viewBox="0.00 0.00 180.00 246.80" xmlns="http://www.w3.org/2000/svg" xmlns:xlink="http://www.w3.org/1999/xlink">
<g id="graph0" class="graph" transform="scale(1 1) rotate(0) translate(4 242.8)">
<title>dependencies</title>
<polygon fill="white" stroke="transparent" points="-4,4 -4,-242.8 176,-242.8 176,4 -4,4"/>
<text text-anchor="middle" x="86" y="-8.2" font-family="sans-serif" font-size="14.00">dependencies</text>
<g id="clust1" class="cluster">
<title>cluster_TrendsModule</title>
<polygon fill="none" stroke="black" stroke-dasharray="1,5" points="8,-32.8 8,-230.8 164,-230.8 164,-32.8 8,-32.8"/>
</g>
<g id="clust5" class="cluster">
<title>cluster_TrendsModule_exports</title>
<polygon fill="none" stroke="black" points="16,-170.8 16,-222.8 156,-222.8 156,-170.8 16,-170.8"/>
</g>
<g id="clust2" class="cluster">
<title>cluster_TrendsModule_declarations</title>
<polygon fill="none" stroke="black" points="18,-40.8 18,-92.8 154,-92.8 154,-40.8 18,-40.8"/>
</g>
<!-- TrendsComponent -->
<g id="node1" class="node">
<title>TrendsComponent</title>
<polygon fill="#ffffb3" stroke="black" points="146.2,-84.8 25.8,-84.8 25.8,-48.8 146.2,-48.8 146.2,-84.8"/>
<text text-anchor="middle" x="86" y="-62.6" font-family="Times,serif" font-size="14.00">TrendsComponent</text>
</g>
<!-- TrendsModule -->
<g id="node2" class="node">
<title>TrendsModule</title>
<polygon fill="#8dd3c7" stroke="black" points="135.42,-149.8 132.42,-153.8 111.42,-153.8 108.42,-149.8 36.58,-149.8 36.58,-113.8 135.42,-113.8 135.42,-149.8"/>
<text text-anchor="middle" x="86" y="-127.6" font-family="Times,serif" font-size="14.00">TrendsModule</text>
</g>
<!-- TrendsComponent&#45;&gt;TrendsModule -->
<g id="edge1" class="edge">
<title>TrendsComponent&#45;&gt;TrendsModule</title>
<path fill="none" stroke="black" d="M86,-84.91C86,-84.91 86,-103.79 86,-103.79"/>
<polygon fill="black" stroke="black" points="82.5,-103.79 86,-113.79 89.5,-103.79 82.5,-103.79"/>
</g>
<!-- TrendsComponent  -->
<g id="node3" class="node">
<title>TrendsComponent </title>
<polygon fill="#fb8072" stroke="black" points="147.71,-214.8 24.29,-214.8 24.29,-178.8 147.71,-178.8 147.71,-214.8"/>
<text text-anchor="middle" x="86" y="-192.6" font-family="Times,serif" font-size="14.00">TrendsComponent </text>
</g>
<!-- TrendsModule&#45;&gt;TrendsComponent  -->
<g id="edge2" class="edge">
<title>TrendsModule&#45;&gt;TrendsComponent </title>
<path fill="none" stroke="black" stroke-dasharray="5,2" d="M86,-149.91C86,-149.91 86,-168.79 86,-168.79"/>
<polygon fill="black" stroke="black" points="82.5,-168.79 86,-178.79 89.5,-168.79 82.5,-168.79"/>
</g>
</g>
</svg>
