<?xml version="1.0" encoding="UTF-8" standalone="no"?>
<!DOCTYPE svg PUBLIC "-//W3C//DTD SVG 1.1//EN"
 "http://www.w3.org/Graphics/SVG/1.1/DTD/svg11.dtd">
<!-- Generated by graphviz version 2.47.3 (20210619.1520)
 -->
<!-- Title: dependencies Pages: 1 -->
<svg width="580pt" height="247pt"
 viewBox="0.00 0.00 580.00 246.80" xmlns="http://www.w3.org/2000/svg" xmlns:xlink="http://www.w3.org/1999/xlink">
<g id="graph0" class="graph" transform="scale(1 1) rotate(0) translate(4 242.8)">
<title>dependencies</title>
<polygon fill="white" stroke="transparent" points="-4,4 -4,-242.8 576,-242.8 576,4 -4,4"/>
<text text-anchor="middle" x="286" y="-8.2" font-family="sans-serif" font-size="14.00">dependencies</text>
<g id="clust1" class="cluster">
<title>cluster_FiltersModule</title>
<polygon fill="none" stroke="black" stroke-dasharray="1,5" points="8,-32.8 8,-230.8 564,-230.8 564,-32.8 8,-32.8"/>
</g>
<g id="clust2" class="cluster">
<title>cluster_FiltersModule_declarations</title>
<polygon fill="none" stroke="black" points="422,-40.8 422,-92.8 556,-92.8 556,-40.8 422,-40.8"/>
</g>
<g id="clust4" class="cluster">
<title>cluster_FiltersModule_imports</title>
<polygon fill="none" stroke="black" points="16,-40.8 16,-92.8 414,-92.8 414,-40.8 16,-40.8"/>
</g>
<g id="clust5" class="cluster">
<title>cluster_FiltersModule_exports</title>
<polygon fill="none" stroke="black" points="255,-170.8 255,-222.8 391,-222.8 391,-170.8 255,-170.8"/>
</g>
<!-- FiltersComponent -->
<g id="node1" class="node">
<title>FiltersComponent</title>
<polygon fill="#ffffb3" stroke="black" points="547.61,-84.8 430.39,-84.8 430.39,-48.8 547.61,-48.8 547.61,-84.8"/>
<text text-anchor="middle" x="489" y="-62.6" font-family="Times,serif" font-size="14.00">FiltersComponent</text>
</g>
<!-- FiltersModule -->
<g id="node2" class="node">
<title>FiltersModule</title>
<polygon fill="#8dd3c7" stroke="black" points="370.82,-149.8 367.82,-153.8 346.82,-153.8 343.82,-149.8 275.18,-149.8 275.18,-113.8 370.82,-113.8 370.82,-149.8"/>
<text text-anchor="middle" x="323" y="-127.6" font-family="Times,serif" font-size="14.00">FiltersModule</text>
</g>
<!-- FiltersComponent&#45;&gt;FiltersModule -->
<g id="edge1" class="edge">
<title>FiltersComponent&#45;&gt;FiltersModule</title>
<path fill="none" stroke="black" d="M489,-84.91C489,-104.14 489,-131.8 489,-131.8 489,-131.8 381.01,-131.8 381.01,-131.8"/>
<polygon fill="black" stroke="black" points="381.01,-128.3 371.01,-131.8 381.01,-135.3 381.01,-128.3"/>
</g>
<!-- FiltersComponent  -->
<g id="node5" class="node">
<title>FiltersComponent </title>
<polygon fill="#fb8072" stroke="black" points="383.11,-214.8 262.89,-214.8 262.89,-178.8 383.11,-178.8 383.11,-214.8"/>
<text text-anchor="middle" x="323" y="-192.6" font-family="Times,serif" font-size="14.00">FiltersComponent </text>
</g>
<!-- FiltersModule&#45;&gt;FiltersComponent  -->
<g id="edge4" class="edge">
<title>FiltersModule&#45;&gt;FiltersComponent </title>
<path fill="none" stroke="black" stroke-dasharray="5,2" d="M323,-149.91C323,-149.91 323,-168.79 323,-168.79"/>
<polygon fill="black" stroke="black" points="319.5,-168.79 323,-178.79 326.5,-168.79 319.5,-168.79"/>
</g>
<!-- CursusFilterDialogModule -->
<g id="node3" class="node">
<title>CursusFilterDialogModule</title>
<polygon fill="#8dd3c7" stroke="black" points="406.37,-84.8 403.37,-88.8 382.37,-88.8 379.37,-84.8 239.63,-84.8 239.63,-48.8 406.37,-48.8 406.37,-84.8"/>
<text text-anchor="middle" x="323" y="-62.6" font-family="Times,serif" font-size="14.00">CursusFilterDialogModule</text>
</g>
<!-- CursusFilterDialogModule&#45;&gt;FiltersModule -->
<g id="edge2" class="edge">
<title>CursusFilterDialogModule&#45;&gt;FiltersModule</title>
<path fill="none" stroke="black" d="M323,-84.91C323,-84.91 323,-103.79 323,-103.79"/>
<polygon fill="black" stroke="black" points="319.5,-103.79 323,-113.79 326.5,-103.79 319.5,-103.79"/>
</g>
<!-- LocalisationFilterDialogModule -->
<g id="node4" class="node">
<title>LocalisationFilterDialogModule</title>
<polygon fill="#8dd3c7" stroke="black" points="221.69,-84.8 218.69,-88.8 197.69,-88.8 194.69,-84.8 24.31,-84.8 24.31,-48.8 221.69,-48.8 221.69,-84.8"/>
<text text-anchor="middle" x="123" y="-62.6" font-family="Times,serif" font-size="14.00">LocalisationFilterDialogModule</text>
</g>
<!-- LocalisationFilterDialogModule&#45;&gt;FiltersModule -->
<g id="edge3" class="edge">
<title>LocalisationFilterDialogModule&#45;&gt;FiltersModule</title>
<path fill="none" stroke="black" d="M123,-84.91C123,-104.14 123,-131.8 123,-131.8 123,-131.8 265.1,-131.8 265.1,-131.8"/>
<polygon fill="black" stroke="black" points="265.1,-135.3 275.1,-131.8 265.09,-128.3 265.1,-135.3"/>
</g>
</g>
</svg>
