<?xml version="1.0" encoding="UTF-8" standalone="no"?>
<!DOCTYPE svg PUBLIC "-//W3C//DTD SVG 1.1//EN"
 "http://www.w3.org/Graphics/SVG/1.1/DTD/svg11.dtd">
<!-- Generated by graphviz version 2.47.3 (20210619.1520)
 -->
<!-- Title: dependencies Pages: 1 -->
<svg width="1686pt" height="247pt"
 viewBox="0.00 0.00 1686.00 246.80" xmlns="http://www.w3.org/2000/svg" xmlns:xlink="http://www.w3.org/1999/xlink">
<g id="graph0" class="graph" transform="scale(1 1) rotate(0) translate(4 242.8)">
<title>dependencies</title>
<polygon fill="white" stroke="transparent" points="-4,4 -4,-242.8 1682,-242.8 1682,4 -4,4"/>
<text text-anchor="middle" x="839" y="-8.2" font-family="sans-serif" font-size="14.00">dependencies</text>
<g id="clust1" class="cluster">
<title>cluster_GlobalMapViewModule</title>
<polygon fill="none" stroke="black" stroke-dasharray="1,5" points="8,-32.8 8,-230.8 1670,-230.8 1670,-32.8 8,-32.8"/>
</g>
<g id="clust10" class="cluster">
<title>cluster_GlobalMapViewModule_exports</title>
<polygon fill="none" stroke="black" points="753,-170.8 753,-222.8 895,-222.8 895,-170.8 753,-170.8"/>
</g>
<g id="clust2" class="cluster">
<title>cluster_GlobalMapViewModule_declarations</title>
<polygon fill="none" stroke="black" points="762,-40.8 762,-92.8 1662,-92.8 1662,-40.8 762,-40.8"/>
</g>
<g id="clust9" class="cluster">
<title>cluster_GlobalMapViewModule_imports</title>
<polygon fill="none" stroke="black" points="16,-40.8 16,-92.8 754,-92.8 754,-40.8 16,-40.8"/>
</g>
<!-- CrossroadComponent -->
<g id="node1" class="node">
<title>CrossroadComponent</title>
<polygon fill="#ffffb3" stroke="black" points="1654.09,-84.8 1515.91,-84.8 1515.91,-48.8 1654.09,-48.8 1654.09,-84.8"/>
<text text-anchor="middle" x="1585" y="-62.6" font-family="Times,serif" font-size="14.00">CrossroadComponent</text>
</g>
<!-- GlobalMapViewModule -->
<g id="node7" class="node">
<title>GlobalMapViewModule</title>
<polygon fill="#8dd3c7" stroke="black" points="900.63,-149.8 897.63,-153.8 876.63,-153.8 873.63,-149.8 747.37,-149.8 747.37,-113.8 900.63,-113.8 900.63,-149.8"/>
<text text-anchor="middle" x="824" y="-127.6" font-family="Times,serif" font-size="14.00">GlobalMapViewModule</text>
</g>
<!-- CrossroadComponent&#45;&gt;GlobalMapViewModule -->
<g id="edge1" class="edge">
<title>CrossroadComponent&#45;&gt;GlobalMapViewModule</title>
<path fill="none" stroke="black" d="M1585,-84.81C1585,-107.29 1585,-142.8 1585,-142.8 1585,-142.8 910.8,-142.8 910.8,-142.8"/>
<polygon fill="black" stroke="black" points="910.8,-139.3 900.8,-142.8 910.8,-146.3 910.8,-139.3"/>
</g>
<!-- DistrictComponent -->
<g id="node2" class="node">
<title>DistrictComponent</title>
<polygon fill="#ffffb3" stroke="black" points="1497.82,-84.8 1374.18,-84.8 1374.18,-48.8 1497.82,-48.8 1497.82,-84.8"/>
<text text-anchor="middle" x="1436" y="-62.6" font-family="Times,serif" font-size="14.00">DistrictComponent</text>
</g>
<!-- DistrictComponent&#45;&gt;GlobalMapViewModule -->
<g id="edge2" class="edge">
<title>DistrictComponent&#45;&gt;GlobalMapViewModule</title>
<path fill="none" stroke="black" d="M1436,-84.93C1436,-105.37 1436,-135.8 1436,-135.8 1436,-135.8 910.89,-135.8 910.89,-135.8"/>
<polygon fill="black" stroke="black" points="910.89,-132.3 900.89,-135.8 910.89,-139.3 910.89,-132.3"/>
</g>
<!-- DistrictLabelsComponent -->
<g id="node3" class="node">
<title>DistrictLabelsComponent</title>
<polygon fill="#ffffb3" stroke="black" points="1356.14,-84.8 1195.86,-84.8 1195.86,-48.8 1356.14,-48.8 1356.14,-84.8"/>
<text text-anchor="middle" x="1276" y="-62.6" font-family="Times,serif" font-size="14.00">DistrictLabelsComponent</text>
</g>
<!-- DistrictLabelsComponent&#45;&gt;GlobalMapViewModule -->
<g id="edge3" class="edge">
<title>DistrictLabelsComponent&#45;&gt;GlobalMapViewModule</title>
<path fill="none" stroke="black" d="M1276,-85.07C1276,-103.36 1276,-128.8 1276,-128.8 1276,-128.8 910.68,-128.8 910.68,-128.8"/>
<polygon fill="black" stroke="black" points="910.68,-125.3 900.68,-128.8 910.68,-132.3 910.68,-125.3"/>
</g>
<!-- DistrictRoadComponent -->
<g id="node4" class="node">
<title>DistrictRoadComponent</title>
<polygon fill="#ffffb3" stroke="black" points="1177.37,-84.8 1024.63,-84.8 1024.63,-48.8 1177.37,-48.8 1177.37,-84.8"/>
<text text-anchor="middle" x="1101" y="-62.6" font-family="Times,serif" font-size="14.00">DistrictRoadComponent</text>
</g>
<!-- DistrictRoadComponent&#45;&gt;GlobalMapViewModule -->
<g id="edge4" class="edge">
<title>DistrictRoadComponent&#45;&gt;GlobalMapViewModule</title>
<path fill="none" stroke="black" d="M1101,-84.81C1101,-100.85 1101,-121.8 1101,-121.8 1101,-121.8 910.79,-121.8 910.79,-121.8"/>
<polygon fill="black" stroke="black" points="910.79,-118.3 900.79,-121.8 910.79,-125.3 910.79,-118.3"/>
</g>
<!-- RoadComponent -->
<g id="node5" class="node">
<title>RoadComponent</title>
<polygon fill="#ffffb3" stroke="black" points="1006.38,-84.8 895.62,-84.8 895.62,-48.8 1006.38,-48.8 1006.38,-84.8"/>
<text text-anchor="middle" x="951" y="-62.6" font-family="Times,serif" font-size="14.00">RoadComponent</text>
</g>
<!-- RoadComponent&#45;&gt;GlobalMapViewModule -->
<g id="edge5" class="edge">
<title>RoadComponent&#45;&gt;GlobalMapViewModule</title>
<path fill="none" stroke="black" d="M895.49,-66.8C890.07,-66.8 886.53,-66.8 886.53,-66.8 886.53,-66.8 886.53,-103.69 886.53,-103.69"/>
<polygon fill="black" stroke="black" points="883.03,-103.69 886.53,-113.69 890.03,-103.69 883.03,-103.69"/>
</g>
<!-- SignComponent -->
<g id="node6" class="node">
<title>SignComponent</title>
<polygon fill="#ffffb3" stroke="black" points="877.51,-84.8 770.49,-84.8 770.49,-48.8 877.51,-48.8 877.51,-84.8"/>
<text text-anchor="middle" x="824" y="-62.6" font-family="Times,serif" font-size="14.00">SignComponent</text>
</g>
<!-- SignComponent&#45;&gt;GlobalMapViewModule -->
<g id="edge6" class="edge">
<title>SignComponent&#45;&gt;GlobalMapViewModule</title>
<path fill="none" stroke="black" d="M824,-84.91C824,-84.91 824,-103.79 824,-103.79"/>
<polygon fill="black" stroke="black" points="820.5,-103.79 824,-113.79 827.5,-103.79 820.5,-103.79"/>
</g>
<!-- DistrictComponent  -->
<g id="node13" class="node">
<title>DistrictComponent </title>
<polygon fill="#fb8072" stroke="black" points="887.32,-214.8 760.68,-214.8 760.68,-178.8 887.32,-178.8 887.32,-214.8"/>
<text text-anchor="middle" x="824" y="-192.6" font-family="Times,serif" font-size="14.00">DistrictComponent </text>
</g>
<!-- GlobalMapViewModule&#45;&gt;DistrictComponent  -->
<g id="edge12" class="edge">
<title>GlobalMapViewModule&#45;&gt;DistrictComponent </title>
<path fill="none" stroke="black" stroke-dasharray="5,2" d="M824,-149.91C824,-149.91 824,-168.79 824,-168.79"/>
<polygon fill="black" stroke="black" points="820.5,-168.79 824,-178.79 827.5,-168.79 820.5,-168.79"/>
</g>
<!-- MoreDomainDialogModule -->
<g id="node8" class="node">
<title>MoreDomainDialogModule</title>
<polygon fill="#8dd3c7" stroke="black" points="745.57,-84.8 742.57,-88.8 721.57,-88.8 718.57,-84.8 572.43,-84.8 572.43,-48.8 745.57,-48.8 745.57,-84.8"/>
<text text-anchor="middle" x="659" y="-62.6" font-family="Times,serif" font-size="14.00">MoreDomainDialogModule</text>
</g>
<!-- MoreDomainDialogModule&#45;&gt;GlobalMapViewModule -->
<g id="edge7" class="edge">
<title>MoreDomainDialogModule&#45;&gt;GlobalMapViewModule</title>
<path fill="none" stroke="black" d="M745.79,-66.8C753.72,-66.8 758.84,-66.8 758.84,-66.8 758.84,-66.8 758.84,-103.69 758.84,-103.69"/>
<polygon fill="black" stroke="black" points="755.34,-103.69 758.84,-113.69 762.34,-103.69 755.34,-103.69"/>
</g>
<!-- StainModule -->
<g id="node9" class="node">
<title>StainModule</title>
<polygon fill="#8dd3c7" stroke="black" points="554.33,-84.8 551.33,-88.8 530.33,-88.8 527.33,-84.8 465.67,-84.8 465.67,-48.8 554.33,-48.8 554.33,-84.8"/>
<text text-anchor="middle" x="510" y="-62.6" font-family="Times,serif" font-size="14.00">StainModule</text>
</g>
<!-- StainModule&#45;&gt;GlobalMapViewModule -->
<g id="edge8" class="edge">
<title>StainModule&#45;&gt;GlobalMapViewModule</title>
<path fill="none" stroke="black" d="M510,-84.81C510,-100.85 510,-121.8 510,-121.8 510,-121.8 737.19,-121.8 737.19,-121.8"/>
<polygon fill="black" stroke="black" points="737.19,-125.3 747.19,-121.8 737.19,-118.3 737.19,-125.3"/>
</g>
<!-- TypescriptAsModule -->
<g id="node10" class="node">
<title>TypescriptAsModule</title>
<polygon fill="#8dd3c7" stroke="black" points="447.47,-84.8 444.47,-88.8 423.47,-88.8 420.47,-84.8 312.53,-84.8 312.53,-48.8 447.47,-48.8 447.47,-84.8"/>
<text text-anchor="middle" x="380" y="-62.6" font-family="Times,serif" font-size="14.00">TypescriptAsModule</text>
</g>
<!-- TypescriptAsModule&#45;&gt;GlobalMapViewModule -->
<g id="edge9" class="edge">
<title>TypescriptAsModule&#45;&gt;GlobalMapViewModule</title>
<path fill="none" stroke="black" d="M380,-85.07C380,-103.36 380,-128.8 380,-128.8 380,-128.8 737.17,-128.8 737.17,-128.8"/>
<polygon fill="black" stroke="black" points="737.17,-132.3 747.17,-128.8 737.17,-125.3 737.17,-132.3"/>
</g>
<!-- VillageLabelModule -->
<g id="node11" class="node">
<title>VillageLabelModule</title>
<polygon fill="#8dd3c7" stroke="black" points="294.13,-84.8 291.13,-88.8 270.13,-88.8 267.13,-84.8 161.87,-84.8 161.87,-48.8 294.13,-48.8 294.13,-84.8"/>
<text text-anchor="middle" x="228" y="-62.6" font-family="Times,serif" font-size="14.00">VillageLabelModule</text>
</g>
<!-- VillageLabelModule&#45;&gt;GlobalMapViewModule -->
<g id="edge10" class="edge">
<title>VillageLabelModule&#45;&gt;GlobalMapViewModule</title>
<path fill="none" stroke="black" d="M228,-84.93C228,-105.37 228,-135.8 228,-135.8 228,-135.8 737.3,-135.8 737.3,-135.8"/>
<polygon fill="black" stroke="black" points="737.3,-139.3 747.3,-135.8 737.3,-132.3 737.3,-139.3"/>
</g>
<!-- VillagePinModule -->
<g id="node12" class="node">
<title>VillagePinModule</title>
<polygon fill="#8dd3c7" stroke="black" points="143.93,-84.8 140.93,-88.8 119.93,-88.8 116.93,-84.8 24.07,-84.8 24.07,-48.8 143.93,-48.8 143.93,-84.8"/>
<text text-anchor="middle" x="84" y="-62.6" font-family="Times,serif" font-size="14.00">VillagePinModule</text>
</g>
<!-- VillagePinModule&#45;&gt;GlobalMapViewModule -->
<g id="edge11" class="edge">
<title>VillagePinModule&#45;&gt;GlobalMapViewModule</title>
<path fill="none" stroke="black" d="M84,-84.81C84,-107.29 84,-142.8 84,-142.8 84,-142.8 737.25,-142.8 737.25,-142.8"/>
<polygon fill="black" stroke="black" points="737.25,-146.3 747.25,-142.8 737.25,-139.3 737.25,-146.3"/>
</g>
</g>
</svg>
