<?xml version="1.0" encoding="UTF-8" standalone="no"?>
<!DOCTYPE svg PUBLIC "-//W3C//DTD SVG 1.1//EN"
 "http://www.w3.org/Graphics/SVG/1.1/DTD/svg11.dtd">
<!-- Generated by graphviz version 2.47.3 (20210619.1520)
 -->
<!-- Title: dependencies Pages: 1 -->
<svg width="1125pt" height="247pt"
 viewBox="0.00 0.00 1125.00 246.80" xmlns="http://www.w3.org/2000/svg" xmlns:xlink="http://www.w3.org/1999/xlink">
<g id="graph0" class="graph" transform="scale(1 1) rotate(0) translate(4 242.8)">
<title>dependencies</title>
<polygon fill="white" stroke="transparent" points="-4,4 -4,-242.8 1121,-242.8 1121,4 -4,4"/>
<text text-anchor="middle" x="558.5" y="-8.2" font-family="sans-serif" font-size="14.00">dependencies</text>
<g id="clust1" class="cluster">
<title>cluster_LocationsModule</title>
<polygon fill="none" stroke="black" stroke-dasharray="1,5" points="8,-32.8 8,-230.8 1109,-230.8 1109,-32.8 8,-32.8"/>
</g>
<g id="clust2" class="cluster">
<title>cluster_LocationsModule_declarations</title>
<polygon fill="none" stroke="black" points="725,-40.8 725,-92.8 1101,-92.8 1101,-40.8 725,-40.8"/>
</g>
<g id="clust5" class="cluster">
<title>cluster_LocationsModule_imports</title>
<polygon fill="none" stroke="black" points="16,-40.8 16,-92.8 717,-92.8 717,-40.8 16,-40.8"/>
</g>
<g id="clust6" class="cluster">
<title>cluster_LocationsModule_exports</title>
<polygon fill="none" stroke="black" points="344,-170.8 344,-222.8 726,-222.8 726,-170.8 344,-170.8"/>
</g>
<!-- LocationsFullComponent -->
<g id="node1" class="node">
<title>LocationsFullComponent</title>
<polygon fill="#ffffb3" stroke="black" points="1092.6,-84.8 933.4,-84.8 933.4,-48.8 1092.6,-48.8 1092.6,-84.8"/>
<text text-anchor="middle" x="1013" y="-62.6" font-family="Times,serif" font-size="14.00">LocationsFullComponent</text>
</g>
<!-- LocationsModule -->
<g id="node3" class="node">
<title>LocationsModule</title>
<polygon fill="#8dd3c7" stroke="black" points="598.26,-149.8 595.26,-153.8 574.26,-153.8 571.26,-149.8 483.74,-149.8 483.74,-113.8 598.26,-113.8 598.26,-149.8"/>
<text text-anchor="middle" x="541" y="-127.6" font-family="Times,serif" font-size="14.00">LocationsModule</text>
</g>
<!-- LocationsFullComponent&#45;&gt;LocationsModule -->
<g id="edge1" class="edge">
<title>LocationsFullComponent&#45;&gt;LocationsModule</title>
<path fill="none" stroke="black" d="M1013,-85.09C1013,-107.01 1013,-140.8 1013,-140.8 1013,-140.8 608.4,-140.8 608.4,-140.8"/>
<polygon fill="black" stroke="black" points="608.4,-137.3 598.4,-140.8 608.4,-144.3 608.4,-137.3"/>
</g>
<!-- LocationsPreviewComponent -->
<g id="node2" class="node">
<title>LocationsPreviewComponent</title>
<polygon fill="#ffffb3" stroke="black" points="915.41,-84.8 732.59,-84.8 732.59,-48.8 915.41,-48.8 915.41,-84.8"/>
<text text-anchor="middle" x="824" y="-62.6" font-family="Times,serif" font-size="14.00">LocationsPreviewComponent</text>
</g>
<!-- LocationsPreviewComponent&#45;&gt;LocationsModule -->
<g id="edge2" class="edge">
<title>LocationsPreviewComponent&#45;&gt;LocationsModule</title>
<path fill="none" stroke="black" d="M824,-84.91C824,-104.14 824,-131.8 824,-131.8 824,-131.8 608.27,-131.8 608.27,-131.8"/>
<polygon fill="black" stroke="black" points="608.27,-128.3 598.27,-131.8 608.27,-135.3 608.27,-128.3"/>
</g>
<!-- LocationsFullComponent  -->
<g id="node9" class="node">
<title>LocationsFullComponent </title>
<polygon fill="#fb8072" stroke="black" points="718.1,-214.8 555.9,-214.8 555.9,-178.8 718.1,-178.8 718.1,-214.8"/>
<text text-anchor="middle" x="637" y="-192.6" font-family="Times,serif" font-size="14.00">LocationsFullComponent </text>
</g>
<!-- LocationsModule&#45;&gt;LocationsFullComponent  -->
<g id="edge8" class="edge">
<title>LocationsModule&#45;&gt;LocationsFullComponent </title>
<path fill="none" stroke="black" stroke-dasharray="5,2" d="M577.04,-149.91C577.04,-149.91 577.04,-168.79 577.04,-168.79"/>
<polygon fill="black" stroke="black" points="573.54,-168.79 577.04,-178.79 580.54,-168.79 573.54,-168.79"/>
</g>
<!-- LocationsPreviewComponent  -->
<g id="node10" class="node">
<title>LocationsPreviewComponent </title>
<polygon fill="#fb8072" stroke="black" points="537.91,-214.8 352.09,-214.8 352.09,-178.8 537.91,-178.8 537.91,-214.8"/>
<text text-anchor="middle" x="445" y="-192.6" font-family="Times,serif" font-size="14.00">LocationsPreviewComponent </text>
</g>
<!-- LocationsModule&#45;&gt;LocationsPreviewComponent  -->
<g id="edge9" class="edge">
<title>LocationsModule&#45;&gt;LocationsPreviewComponent </title>
<path fill="none" stroke="black" stroke-dasharray="5,2" d="M510.79,-149.91C510.79,-149.91 510.79,-168.79 510.79,-168.79"/>
<polygon fill="black" stroke="black" points="507.29,-168.79 510.79,-178.79 514.29,-168.79 507.29,-168.79"/>
</g>
<!-- FiltersModule -->
<g id="node4" class="node">
<title>FiltersModule</title>
<polygon fill="#8dd3c7" stroke="black" points="708.82,-84.8 705.82,-88.8 684.82,-88.8 681.82,-84.8 613.18,-84.8 613.18,-48.8 708.82,-48.8 708.82,-84.8"/>
<text text-anchor="middle" x="661" y="-62.6" font-family="Times,serif" font-size="14.00">FiltersModule</text>
</g>
<!-- FiltersModule&#45;&gt;LocationsModule -->
<g id="edge3" class="edge">
<title>FiltersModule&#45;&gt;LocationsModule</title>
<path fill="none" stroke="black" d="M661,-84.83C661,-101.2 661,-122.8 661,-122.8 661,-122.8 608.54,-122.8 608.54,-122.8"/>
<polygon fill="black" stroke="black" points="608.54,-119.3 598.54,-122.8 608.54,-126.3 608.54,-119.3"/>
</g>
<!-- LocationModule -->
<g id="node5" class="node">
<title>LocationModule</title>
<polygon fill="#8dd3c7" stroke="black" points="595.81,-84.8 592.81,-88.8 571.81,-88.8 568.81,-84.8 486.19,-84.8 486.19,-48.8 595.81,-48.8 595.81,-84.8"/>
<text text-anchor="middle" x="541" y="-62.6" font-family="Times,serif" font-size="14.00">LocationModule</text>
</g>
<!-- LocationModule&#45;&gt;LocationsModule -->
<g id="edge4" class="edge">
<title>LocationModule&#45;&gt;LocationsModule</title>
<path fill="none" stroke="black" d="M541,-84.91C541,-84.91 541,-103.79 541,-103.79"/>
<polygon fill="black" stroke="black" points="537.5,-103.79 541,-113.79 544.5,-103.79 537.5,-103.79"/>
</g>
<!-- NoRecordsModule -->
<g id="node6" class="node">
<title>NoRecordsModule</title>
<polygon fill="#8dd3c7" stroke="black" points="468.03,-84.8 465.03,-88.8 444.03,-88.8 441.03,-84.8 345.97,-84.8 345.97,-48.8 468.03,-48.8 468.03,-84.8"/>
<text text-anchor="middle" x="407" y="-62.6" font-family="Times,serif" font-size="14.00">NoRecordsModule</text>
</g>
<!-- NoRecordsModule&#45;&gt;LocationsModule -->
<g id="edge5" class="edge">
<title>NoRecordsModule&#45;&gt;LocationsModule</title>
<path fill="none" stroke="black" d="M410.15,-84.83C410.15,-101.2 410.15,-122.8 410.15,-122.8 410.15,-122.8 473.61,-122.8 473.61,-122.8"/>
<polygon fill="black" stroke="black" points="473.61,-126.3 483.61,-122.8 473.61,-119.3 473.61,-126.3"/>
</g>
<!-- PreviewSectionModule -->
<g id="node7" class="node">
<title>PreviewSectionModule</title>
<polygon fill="#8dd3c7" stroke="black" points="327.91,-84.8 324.91,-88.8 303.91,-88.8 300.91,-84.8 180.09,-84.8 180.09,-48.8 327.91,-48.8 327.91,-84.8"/>
<text text-anchor="middle" x="254" y="-62.6" font-family="Times,serif" font-size="14.00">PreviewSectionModule</text>
</g>
<!-- PreviewSectionModule&#45;&gt;LocationsModule -->
<g id="edge6" class="edge">
<title>PreviewSectionModule&#45;&gt;LocationsModule</title>
<path fill="none" stroke="black" d="M254,-84.91C254,-104.14 254,-131.8 254,-131.8 254,-131.8 473.61,-131.8 473.61,-131.8"/>
<polygon fill="black" stroke="black" points="473.61,-135.3 483.61,-131.8 473.61,-128.3 473.61,-135.3"/>
</g>
<!-- SchoolBannerModule -->
<g id="node8" class="node">
<title>SchoolBannerModule</title>
<polygon fill="#8dd3c7" stroke="black" points="162.36,-84.8 159.36,-88.8 138.36,-88.8 135.36,-84.8 23.64,-84.8 23.64,-48.8 162.36,-48.8 162.36,-84.8"/>
<text text-anchor="middle" x="93" y="-62.6" font-family="Times,serif" font-size="14.00">SchoolBannerModule</text>
</g>
<!-- SchoolBannerModule&#45;&gt;LocationsModule -->
<g id="edge7" class="edge">
<title>SchoolBannerModule&#45;&gt;LocationsModule</title>
<path fill="none" stroke="black" d="M93,-85.09C93,-107.01 93,-140.8 93,-140.8 93,-140.8 473.35,-140.8 473.35,-140.8"/>
<polygon fill="black" stroke="black" points="473.35,-144.3 483.35,-140.8 473.35,-137.3 473.35,-144.3"/>
</g>
</g>
</svg>
