<?xml version="1.0" encoding="UTF-8" standalone="no"?>
<!DOCTYPE svg PUBLIC "-//W3C//DTD SVG 1.1//EN"
 "http://www.w3.org/Graphics/SVG/1.1/DTD/svg11.dtd">
<!-- Generated by graphviz version 2.47.3 (20210619.1520)
 -->
<!-- Title: dependencies Pages: 1 -->
<svg width="604pt" height="247pt"
 viewBox="0.00 0.00 604.00 246.80" xmlns="http://www.w3.org/2000/svg" xmlns:xlink="http://www.w3.org/1999/xlink">
<g id="graph0" class="graph" transform="scale(1 1) rotate(0) translate(4 242.8)">
<title>dependencies</title>
<polygon fill="white" stroke="transparent" points="-4,4 -4,-242.8 600,-242.8 600,4 -4,4"/>
<text text-anchor="middle" x="298" y="-8.2" font-family="sans-serif" font-size="14.00">dependencies</text>
<g id="clust1" class="cluster">
<title>cluster_HumanCardComponentModule</title>
<polygon fill="none" stroke="black" stroke-dasharray="1,5" points="8,-32.8 8,-230.8 588,-230.8 588,-32.8 8,-32.8"/>
</g>
<g id="clust4" class="cluster">
<title>cluster_HumanCardComponentModule_imports</title>
<polygon fill="none" stroke="black" points="190,-40.8 190,-92.8 580,-92.8 580,-40.8 190,-40.8"/>
</g>
<g id="clust5" class="cluster">
<title>cluster_HumanCardComponentModule_exports</title>
<polygon fill="none" stroke="black" points="202,-170.8 202,-222.8 372,-222.8 372,-170.8 202,-170.8"/>
</g>
<g id="clust2" class="cluster">
<title>cluster_HumanCardComponentModule_declarations</title>
<polygon fill="none" stroke="black" points="16,-40.8 16,-92.8 182,-92.8 182,-40.8 16,-40.8"/>
</g>
<!-- HumanCardComponent -->
<g id="node1" class="node">
<title>HumanCardComponent</title>
<polygon fill="#ffffb3" stroke="black" points="173.76,-84.8 24.24,-84.8 24.24,-48.8 173.76,-48.8 173.76,-84.8"/>
<text text-anchor="middle" x="99" y="-62.6" font-family="Times,serif" font-size="14.00">HumanCardComponent</text>
</g>
<!-- HumanCardComponentModule -->
<g id="node2" class="node">
<title>HumanCardComponentModule</title>
<polygon fill="#8dd3c7" stroke="black" points="383.81,-149.8 380.81,-153.8 359.81,-153.8 356.81,-149.8 190.19,-149.8 190.19,-113.8 383.81,-113.8 383.81,-149.8"/>
<text text-anchor="middle" x="287" y="-127.6" font-family="Times,serif" font-size="14.00">HumanCardComponentModule</text>
</g>
<!-- HumanCardComponent&#45;&gt;HumanCardComponentModule -->
<g id="edge1" class="edge">
<title>HumanCardComponent&#45;&gt;HumanCardComponentModule</title>
<path fill="none" stroke="black" d="M174.04,-66.8C185.84,-66.8 194.24,-66.8 194.24,-66.8 194.24,-66.8 194.24,-103.69 194.24,-103.69"/>
<polygon fill="black" stroke="black" points="190.74,-103.69 194.24,-113.69 197.74,-103.69 190.74,-103.69"/>
</g>
<!-- HumanCardComponent  -->
<g id="node5" class="node">
<title>HumanCardComponent </title>
<polygon fill="#fb8072" stroke="black" points="363.76,-214.8 210.24,-214.8 210.24,-178.8 363.76,-178.8 363.76,-214.8"/>
<text text-anchor="middle" x="287" y="-192.6" font-family="Times,serif" font-size="14.00">HumanCardComponent </text>
</g>
<!-- HumanCardComponentModule&#45;&gt;HumanCardComponent  -->
<g id="edge4" class="edge">
<title>HumanCardComponentModule&#45;&gt;HumanCardComponent </title>
<path fill="none" stroke="black" stroke-dasharray="5,2" d="M287,-149.91C287,-149.91 287,-168.79 287,-168.79"/>
<polygon fill="black" stroke="black" points="283.5,-168.79 287,-178.79 290.5,-168.79 283.5,-168.79"/>
</g>
<!-- HumanDetailsDialogModule -->
<g id="node3" class="node">
<title>HumanDetailsDialogModule</title>
<polygon fill="#8dd3c7" stroke="black" points="572.02,-84.8 569.02,-88.8 548.02,-88.8 545.02,-84.8 393.98,-84.8 393.98,-48.8 572.02,-48.8 572.02,-84.8"/>
<text text-anchor="middle" x="483" y="-62.6" font-family="Times,serif" font-size="14.00">HumanDetailsDialogModule</text>
</g>
<!-- HumanDetailsDialogModule&#45;&gt;HumanCardComponentModule -->
<g id="edge2" class="edge">
<title>HumanDetailsDialogModule&#45;&gt;HumanCardComponentModule</title>
<path fill="none" stroke="black" d="M393.69,-66.8C385.25,-66.8 379.76,-66.8 379.76,-66.8 379.76,-66.8 379.76,-103.69 379.76,-103.69"/>
<polygon fill="black" stroke="black" points="376.26,-103.69 379.76,-113.69 383.26,-103.69 376.26,-103.69"/>
</g>
<!-- VideoAskThumbnailModule -->
<g id="node4" class="node">
<title>VideoAskThumbnailModule</title>
<polygon fill="#8dd3c7" stroke="black" points="375.75,-84.8 372.75,-88.8 351.75,-88.8 348.75,-84.8 198.25,-84.8 198.25,-48.8 375.75,-48.8 375.75,-84.8"/>
<text text-anchor="middle" x="287" y="-62.6" font-family="Times,serif" font-size="14.00">VideoAskThumbnailModule</text>
</g>
<!-- VideoAskThumbnailModule&#45;&gt;HumanCardComponentModule -->
<g id="edge3" class="edge">
<title>VideoAskThumbnailModule&#45;&gt;HumanCardComponentModule</title>
<path fill="none" stroke="black" d="M287,-84.91C287,-84.91 287,-103.79 287,-103.79"/>
<polygon fill="black" stroke="black" points="283.5,-103.79 287,-113.79 290.5,-103.79 283.5,-103.79"/>
</g>
</g>
</svg>
