<?xml version="1.0" encoding="UTF-8" standalone="no"?>
<!DOCTYPE svg PUBLIC "-//W3C//DTD SVG 1.1//EN"
 "http://www.w3.org/Graphics/SVG/1.1/DTD/svg11.dtd">
<!-- Generated by graphviz version 2.47.3 (20210619.1520)
 -->
<!-- Title: dependencies Pages: 1 -->
<svg width="1800pt" height="174pt"
 viewBox="0.00 0.00 1800.00 173.80" xmlns="http://www.w3.org/2000/svg" xmlns:xlink="http://www.w3.org/1999/xlink">
<g id="graph0" class="graph" transform="scale(1 1) rotate(0) translate(4 169.8)">
<title>dependencies</title>
<polygon fill="white" stroke="transparent" points="-4,4 -4,-169.8 1796,-169.8 1796,4 -4,4"/>
<text text-anchor="middle" x="896" y="-8.2" font-family="sans-serif" font-size="14.00">dependencies</text>
<g id="clust1" class="cluster">
<title>cluster_IntentionsPageModule</title>
<polygon fill="none" stroke="black" stroke-dasharray="1,5" points="8,-32.8 8,-157.8 1784,-157.8 1784,-32.8 8,-32.8"/>
</g>
<g id="clust7" class="cluster">
<title>cluster_IntentionsPageModule_providers</title>
<polygon fill="none" stroke="black" points="1433,-40.8 1433,-92.8 1776,-92.8 1776,-40.8 1433,-40.8"/>
</g>
<g id="clust2" class="cluster">
<title>cluster_IntentionsPageModule_declarations</title>
<polygon fill="none" stroke="black" points="1245,-40.8 1245,-92.8 1425,-92.8 1425,-40.8 1245,-40.8"/>
</g>
<g id="clust4" class="cluster">
<title>cluster_IntentionsPageModule_imports</title>
<polygon fill="none" stroke="black" points="16,-40.8 16,-92.8 1237,-92.8 1237,-40.8 16,-40.8"/>
</g>
<!-- IntentionsPageComponent -->
<g id="node1" class="node">
<title>IntentionsPageComponent</title>
<polygon fill="#ffffb3" stroke="black" points="1417.04,-84.8 1252.96,-84.8 1252.96,-48.8 1417.04,-48.8 1417.04,-84.8"/>
<text text-anchor="middle" x="1335" y="-62.6" font-family="Times,serif" font-size="14.00">IntentionsPageComponent</text>
</g>
<!-- IntentionsPageModule -->
<g id="node2" class="node">
<title>IntentionsPageModule</title>
<polygon fill="#8dd3c7" stroke="black" points="963.25,-149.8 960.25,-153.8 939.25,-153.8 936.25,-149.8 820.75,-149.8 820.75,-113.8 963.25,-113.8 963.25,-149.8"/>
<text text-anchor="middle" x="892" y="-127.6" font-family="Times,serif" font-size="14.00">IntentionsPageModule</text>
</g>
<!-- IntentionsPageComponent&#45;&gt;IntentionsPageModule -->
<g id="edge1" class="edge">
<title>IntentionsPageComponent&#45;&gt;IntentionsPageModule</title>
<path fill="none" stroke="black" d="M1335,-85.07C1335,-103.36 1335,-128.8 1335,-128.8 1335,-128.8 973.67,-128.8 973.67,-128.8"/>
<polygon fill="black" stroke="black" points="973.67,-125.3 963.67,-128.8 973.67,-132.3 973.67,-125.3"/>
</g>
<!-- BackgroundStainModule -->
<g id="node3" class="node">
<title>BackgroundStainModule</title>
<polygon fill="#8dd3c7" stroke="black" points="1229.25,-84.8 1226.25,-88.8 1205.25,-88.8 1202.25,-84.8 1072.75,-84.8 1072.75,-48.8 1229.25,-48.8 1229.25,-84.8"/>
<text text-anchor="middle" x="1151" y="-62.6" font-family="Times,serif" font-size="14.00">BackgroundStainModule</text>
</g>
<!-- BackgroundStainModule&#45;&gt;IntentionsPageModule -->
<g id="edge2" class="edge">
<title>BackgroundStainModule&#45;&gt;IntentionsPageModule</title>
<path fill="none" stroke="black" d="M1151,-84.81C1151,-100.85 1151,-121.8 1151,-121.8 1151,-121.8 973.46,-121.8 973.46,-121.8"/>
<polygon fill="black" stroke="black" points="973.46,-118.3 963.46,-121.8 973.46,-125.3 973.46,-118.3"/>
</g>
<!-- EmptySectionModule -->
<g id="node4" class="node">
<title>EmptySectionModule</title>
<polygon fill="#8dd3c7" stroke="black" points="1054.38,-84.8 1051.38,-88.8 1030.38,-88.8 1027.38,-84.8 915.62,-84.8 915.62,-48.8 1054.38,-48.8 1054.38,-84.8"/>
<text text-anchor="middle" x="985" y="-62.6" font-family="Times,serif" font-size="14.00">EmptySectionModule</text>
</g>
<!-- EmptySectionModule&#45;&gt;IntentionsPageModule -->
<g id="edge3" class="edge">
<title>EmptySectionModule&#45;&gt;IntentionsPageModule</title>
<path fill="none" stroke="black" d="M939.47,-84.91C939.47,-84.91 939.47,-103.79 939.47,-103.79"/>
<polygon fill="black" stroke="black" points="935.97,-103.79 939.47,-113.79 942.97,-103.79 935.97,-103.79"/>
</g>
<!-- ExpeditionInstanceCardModule -->
<g id="node5" class="node">
<title>ExpeditionInstanceCardModule</title>
<polygon fill="#8dd3c7" stroke="black" points="897.34,-84.8 894.34,-88.8 873.34,-88.8 870.34,-84.8 702.66,-84.8 702.66,-48.8 897.34,-48.8 897.34,-84.8"/>
<text text-anchor="middle" x="800" y="-62.6" font-family="Times,serif" font-size="14.00">ExpeditionInstanceCardModule</text>
</g>
<!-- ExpeditionInstanceCardModule&#45;&gt;IntentionsPageModule -->
<g id="edge4" class="edge">
<title>ExpeditionInstanceCardModule&#45;&gt;IntentionsPageModule</title>
<path fill="none" stroke="black" d="M859.02,-84.91C859.02,-84.91 859.02,-103.79 859.02,-103.79"/>
<polygon fill="black" stroke="black" points="855.52,-103.79 859.02,-113.79 862.52,-103.79 855.52,-103.79"/>
</g>
<!-- IntentionsChoiceModule -->
<g id="node6" class="node">
<title>IntentionsChoiceModule</title>
<polygon fill="#8dd3c7" stroke="black" points="684.7,-84.8 681.7,-88.8 660.7,-88.8 657.7,-84.8 529.3,-84.8 529.3,-48.8 684.7,-48.8 684.7,-84.8"/>
<text text-anchor="middle" x="607" y="-62.6" font-family="Times,serif" font-size="14.00">IntentionsChoiceModule</text>
</g>
<!-- IntentionsChoiceModule&#45;&gt;IntentionsPageModule -->
<g id="edge5" class="edge">
<title>IntentionsChoiceModule&#45;&gt;IntentionsPageModule</title>
<path fill="none" stroke="black" d="M607,-84.81C607,-100.85 607,-121.8 607,-121.8 607,-121.8 810.45,-121.8 810.45,-121.8"/>
<polygon fill="black" stroke="black" points="810.45,-125.3 820.45,-121.8 810.45,-118.3 810.45,-125.3"/>
</g>
<!-- ItineraryCardModule -->
<g id="node7" class="node">
<title>ItineraryCardModule</title>
<polygon fill="#8dd3c7" stroke="black" points="511.45,-84.8 508.45,-88.8 487.45,-88.8 484.45,-84.8 376.55,-84.8 376.55,-48.8 511.45,-48.8 511.45,-84.8"/>
<text text-anchor="middle" x="444" y="-62.6" font-family="Times,serif" font-size="14.00">ItineraryCardModule</text>
</g>
<!-- ItineraryCardModule&#45;&gt;IntentionsPageModule -->
<g id="edge6" class="edge">
<title>ItineraryCardModule&#45;&gt;IntentionsPageModule</title>
<path fill="none" stroke="black" d="M444,-85.07C444,-103.36 444,-128.8 444,-128.8 444,-128.8 810.52,-128.8 810.52,-128.8"/>
<polygon fill="black" stroke="black" points="810.52,-132.3 820.52,-128.8 810.52,-125.3 810.52,-132.3"/>
</g>
<!-- NavigationTemplateModule -->
<g id="node8" class="node">
<title>NavigationTemplateModule</title>
<polygon fill="#8dd3c7" stroke="black" points="358.13,-84.8 355.13,-88.8 334.13,-88.8 331.13,-84.8 183.87,-84.8 183.87,-48.8 358.13,-48.8 358.13,-84.8"/>
<text text-anchor="middle" x="271" y="-62.6" font-family="Times,serif" font-size="14.00">NavigationTemplateModule</text>
</g>
<!-- NavigationTemplateModule&#45;&gt;IntentionsPageModule -->
<g id="edge7" class="edge">
<title>NavigationTemplateModule&#45;&gt;IntentionsPageModule</title>
<path fill="none" stroke="black" d="M271,-84.93C271,-105.37 271,-135.8 271,-135.8 271,-135.8 810.46,-135.8 810.46,-135.8"/>
<polygon fill="black" stroke="black" points="810.46,-139.3 820.46,-135.8 810.46,-132.3 810.46,-139.3"/>
</g>
<!-- ScrollWrapperModule -->
<g id="node9" class="node">
<title>ScrollWrapperModule</title>
<polygon fill="#8dd3c7" stroke="black" points="165.95,-84.8 162.95,-88.8 141.95,-88.8 138.95,-84.8 24.05,-84.8 24.05,-48.8 165.95,-48.8 165.95,-84.8"/>
<text text-anchor="middle" x="95" y="-62.6" font-family="Times,serif" font-size="14.00">ScrollWrapperModule</text>
</g>
<!-- ScrollWrapperModule&#45;&gt;IntentionsPageModule -->
<g id="edge8" class="edge">
<title>ScrollWrapperModule&#45;&gt;IntentionsPageModule</title>
<path fill="none" stroke="black" d="M95,-84.81C95,-107.29 95,-142.8 95,-142.8 95,-142.8 810.57,-142.8 810.57,-142.8"/>
<polygon fill="black" stroke="black" points="810.57,-146.3 820.57,-142.8 810.57,-139.3 810.57,-146.3"/>
</g>
<!-- ExpeditionService -->
<g id="node10" class="node">
<title>ExpeditionService</title>
<ellipse fill="#fdb462" stroke="black" cx="1686" cy="-66.8" rx="82.24" ry="18"/>
<text text-anchor="middle" x="1686" y="-62.6" font-family="Times,serif" font-size="14.00">ExpeditionService</text>
</g>
<!-- ExpeditionService&#45;&gt;IntentionsPageModule -->
<g id="edge9" class="edge">
<title>ExpeditionService&#45;&gt;IntentionsPageModule</title>
<path fill="none" stroke="black" d="M1686,-84.81C1686,-107.29 1686,-142.8 1686,-142.8 1686,-142.8 973.51,-142.8 973.51,-142.8"/>
<polygon fill="black" stroke="black" points="973.51,-139.3 963.51,-142.8 973.51,-146.3 973.51,-139.3"/>
</g>
<!-- InstanceService -->
<g id="node11" class="node">
<title>InstanceService</title>
<ellipse fill="#fdb462" stroke="black" cx="1513" cy="-66.8" rx="72.33" ry="18"/>
<text text-anchor="middle" x="1513" y="-62.6" font-family="Times,serif" font-size="14.00">InstanceService</text>
</g>
<!-- InstanceService&#45;&gt;IntentionsPageModule -->
<g id="edge10" class="edge">
<title>InstanceService&#45;&gt;IntentionsPageModule</title>
<path fill="none" stroke="black" d="M1513,-84.93C1513,-105.37 1513,-135.8 1513,-135.8 1513,-135.8 973.54,-135.8 973.54,-135.8"/>
<polygon fill="black" stroke="black" points="973.54,-132.3 963.54,-135.8 973.54,-139.3 973.54,-132.3"/>
</g>
</g>
</svg>
