<?xml version="1.0" encoding="UTF-8" standalone="no"?>
<!DOCTYPE svg PUBLIC "-//W3C//DTD SVG 1.1//EN"
 "http://www.w3.org/Graphics/SVG/1.1/DTD/svg11.dtd">
<!-- Generated by graphviz version 2.47.3 (20210619.1520)
 -->
<!-- Title: dependencies Pages: 1 -->
<svg width="280pt" height="247pt"
 viewBox="0.00 0.00 280.00 246.80" xmlns="http://www.w3.org/2000/svg" xmlns:xlink="http://www.w3.org/1999/xlink">
<g id="graph0" class="graph" transform="scale(1 1) rotate(0) translate(4 242.8)">
<title>dependencies</title>
<polygon fill="white" stroke="transparent" points="-4,4 -4,-242.8 276,-242.8 276,4 -4,4"/>
<text text-anchor="middle" x="136" y="-8.2" font-family="sans-serif" font-size="14.00">dependencies</text>
<g id="clust1" class="cluster">
<title>cluster_ChallengeSynthesisModule</title>
<polygon fill="none" stroke="black" stroke-dasharray="1,5" points="8,-32.8 8,-230.8 264,-230.8 264,-32.8 8,-32.8"/>
</g>
<g id="clust5" class="cluster">
<title>cluster_ChallengeSynthesisModule_exports</title>
<polygon fill="none" stroke="black" points="16,-170.8 16,-222.8 256,-222.8 256,-170.8 16,-170.8"/>
</g>
<g id="clust2" class="cluster">
<title>cluster_ChallengeSynthesisModule_declarations</title>
<polygon fill="none" stroke="black" points="17,-40.8 17,-92.8 255,-92.8 255,-40.8 17,-40.8"/>
</g>
<!-- ExpeditionStepSynthesisComponent -->
<g id="node1" class="node">
<title>ExpeditionStepSynthesisComponent</title>
<polygon fill="#ffffb3" stroke="black" points="246.83,-84.8 25.17,-84.8 25.17,-48.8 246.83,-48.8 246.83,-84.8"/>
<text text-anchor="middle" x="136" y="-62.6" font-family="Times,serif" font-size="14.00">ExpeditionStepSynthesisComponent</text>
</g>
<!-- ChallengeSynthesisModule -->
<g id="node2" class="node">
<title>ChallengeSynthesisModule</title>
<polygon fill="#8dd3c7" stroke="black" points="220.98,-149.8 217.98,-153.8 196.98,-153.8 193.98,-149.8 51.02,-149.8 51.02,-113.8 220.98,-113.8 220.98,-149.8"/>
<text text-anchor="middle" x="136" y="-127.6" font-family="Times,serif" font-size="14.00">ChallengeSynthesisModule</text>
</g>
<!-- ExpeditionStepSynthesisComponent&#45;&gt;ChallengeSynthesisModule -->
<g id="edge1" class="edge">
<title>ExpeditionStepSynthesisComponent&#45;&gt;ChallengeSynthesisModule</title>
<path fill="none" stroke="black" d="M136,-84.91C136,-84.91 136,-103.79 136,-103.79"/>
<polygon fill="black" stroke="black" points="132.5,-103.79 136,-113.79 139.5,-103.79 132.5,-103.79"/>
</g>
<!-- ExpeditionStepSynthesisComponent  -->
<g id="node3" class="node">
<title>ExpeditionStepSynthesisComponent </title>
<polygon fill="#fb8072" stroke="black" points="248.33,-214.8 23.67,-214.8 23.67,-178.8 248.33,-178.8 248.33,-214.8"/>
<text text-anchor="middle" x="136" y="-192.6" font-family="Times,serif" font-size="14.00">ExpeditionStepSynthesisComponent </text>
</g>
<!-- ChallengeSynthesisModule&#45;&gt;ExpeditionStepSynthesisComponent  -->
<g id="edge2" class="edge">
<title>ChallengeSynthesisModule&#45;&gt;ExpeditionStepSynthesisComponent </title>
<path fill="none" stroke="black" stroke-dasharray="5,2" d="M136,-149.91C136,-149.91 136,-168.79 136,-168.79"/>
<polygon fill="black" stroke="black" points="132.5,-168.79 136,-178.79 139.5,-168.79 132.5,-168.79"/>
</g>
</g>
</svg>
