<?xml version="1.0" encoding="UTF-8" standalone="no"?>
<!DOCTYPE svg PUBLIC "-//W3C//DTD SVG 1.1//EN"
 "http://www.w3.org/Graphics/SVG/1.1/DTD/svg11.dtd">
<!-- Generated by graphviz version 2.47.3 (20210619.1520)
 -->
<!-- Title: dependencies Pages: 1 -->
<svg width="1116pt" height="174pt"
 viewBox="0.00 0.00 1116.00 173.80" xmlns="http://www.w3.org/2000/svg" xmlns:xlink="http://www.w3.org/1999/xlink">
<g id="graph0" class="graph" transform="scale(1 1) rotate(0) translate(4 169.8)">
<title>dependencies</title>
<polygon fill="white" stroke="transparent" points="-4,4 -4,-169.8 1112,-169.8 1112,4 -4,4"/>
<text text-anchor="middle" x="554" y="-8.2" font-family="sans-serif" font-size="14.00">dependencies</text>
<g id="clust1" class="cluster">
<title>cluster_AdminRewardsPageModule</title>
<polygon fill="none" stroke="black" stroke-dasharray="1,5" points="8,-32.8 8,-157.8 1100,-157.8 1100,-32.8 8,-32.8"/>
</g>
<g id="clust4" class="cluster">
<title>cluster_AdminRewardsPageModule_imports</title>
<polygon fill="none" stroke="black" points="602,-40.8 602,-92.8 1092,-92.8 1092,-40.8 602,-40.8"/>
</g>
<g id="clust7" class="cluster">
<title>cluster_AdminRewardsPageModule_providers</title>
<polygon fill="none" stroke="black" points="236,-40.8 236,-92.8 594,-92.8 594,-40.8 236,-40.8"/>
</g>
<g id="clust2" class="cluster">
<title>cluster_AdminRewardsPageModule_declarations</title>
<polygon fill="none" stroke="black" points="16,-40.8 16,-92.8 228,-92.8 228,-40.8 16,-40.8"/>
</g>
<!-- AdminRewardsPageComponent -->
<g id="node1" class="node">
<title>AdminRewardsPageComponent</title>
<polygon fill="#ffffb3" stroke="black" points="220.41,-84.8 23.59,-84.8 23.59,-48.8 220.41,-48.8 220.41,-84.8"/>
<text text-anchor="middle" x="122" y="-62.6" font-family="Times,serif" font-size="14.00">AdminRewardsPageComponent</text>
</g>
<!-- AdminRewardsPageModule -->
<g id="node2" class="node">
<title>AdminRewardsPageModule</title>
<polygon fill="#8dd3c7" stroke="black" points="668.13,-149.8 665.13,-153.8 644.13,-153.8 641.13,-149.8 493.87,-149.8 493.87,-113.8 668.13,-113.8 668.13,-149.8"/>
<text text-anchor="middle" x="581" y="-127.6" font-family="Times,serif" font-size="14.00">AdminRewardsPageModule</text>
</g>
<!-- AdminRewardsPageComponent&#45;&gt;AdminRewardsPageModule -->
<g id="edge1" class="edge">
<title>AdminRewardsPageComponent&#45;&gt;AdminRewardsPageModule</title>
<path fill="none" stroke="black" d="M122,-85.08C122,-106.12 122,-137.8 122,-137.8 122,-137.8 483.86,-137.8 483.86,-137.8"/>
<polygon fill="black" stroke="black" points="483.86,-141.3 493.86,-137.8 483.86,-134.3 483.86,-141.3"/>
</g>
<!-- AdminRewardDialogModule -->
<g id="node3" class="node">
<title>AdminRewardDialogModule</title>
<polygon fill="#8dd3c7" stroke="black" points="1084.07,-84.8 1081.07,-88.8 1060.07,-88.8 1057.07,-84.8 903.93,-84.8 903.93,-48.8 1084.07,-48.8 1084.07,-84.8"/>
<text text-anchor="middle" x="994" y="-62.6" font-family="Times,serif" font-size="14.00">AdminRewardDialogModule</text>
</g>
<!-- AdminRewardDialogModule&#45;&gt;AdminRewardsPageModule -->
<g id="edge2" class="edge">
<title>AdminRewardDialogModule&#45;&gt;AdminRewardsPageModule</title>
<path fill="none" stroke="black" d="M994,-85.08C994,-106.12 994,-137.8 994,-137.8 994,-137.8 678.33,-137.8 678.33,-137.8"/>
<polygon fill="black" stroke="black" points="678.33,-134.3 668.33,-137.8 678.33,-141.3 678.33,-134.3"/>
</g>
<!-- AdminTableModule -->
<g id="node4" class="node">
<title>AdminTableModule</title>
<polygon fill="#8dd3c7" stroke="black" points="886.31,-84.8 883.31,-88.8 862.31,-88.8 859.31,-84.8 755.69,-84.8 755.69,-48.8 886.31,-48.8 886.31,-84.8"/>
<text text-anchor="middle" x="821" y="-62.6" font-family="Times,serif" font-size="14.00">AdminTableModule</text>
</g>
<!-- AdminTableModule&#45;&gt;AdminRewardsPageModule -->
<g id="edge3" class="edge">
<title>AdminTableModule&#45;&gt;AdminRewardsPageModule</title>
<path fill="none" stroke="black" d="M821,-84.82C821,-102.17 821,-125.8 821,-125.8 821,-125.8 678.32,-125.8 678.32,-125.8"/>
<polygon fill="black" stroke="black" points="678.32,-122.3 668.32,-125.8 678.32,-129.3 678.32,-122.3"/>
</g>
<!-- SearchFormModule -->
<g id="node5" class="node">
<title>SearchFormModule</title>
<polygon fill="#8dd3c7" stroke="black" points="737.97,-84.8 734.97,-88.8 713.97,-88.8 710.97,-84.8 610.03,-84.8 610.03,-48.8 737.97,-48.8 737.97,-84.8"/>
<text text-anchor="middle" x="674" y="-62.6" font-family="Times,serif" font-size="14.00">SearchFormModule</text>
</g>
<!-- SearchFormModule&#45;&gt;AdminRewardsPageModule -->
<g id="edge4" class="edge">
<title>SearchFormModule&#45;&gt;AdminRewardsPageModule</title>
<path fill="none" stroke="black" d="M639.16,-84.91C639.16,-84.91 639.16,-103.79 639.16,-103.79"/>
<polygon fill="black" stroke="black" points="635.66,-103.79 639.16,-113.79 642.66,-103.79 635.66,-103.79"/>
</g>
<!-- AdminRewardService -->
<g id="node6" class="node">
<title>AdminRewardService</title>
<ellipse fill="#fdb462" stroke="black" cx="489" cy="-66.8" rx="96.69" ry="18"/>
<text text-anchor="middle" x="489" y="-62.6" font-family="Times,serif" font-size="14.00">AdminRewardService</text>
</g>
<!-- AdminRewardService&#45;&gt;AdminRewardsPageModule -->
<g id="edge5" class="edge">
<title>AdminRewardService&#45;&gt;AdminRewardsPageModule</title>
<path fill="none" stroke="black" d="M539.77,-82.2C539.77,-82.2 539.77,-103.74 539.77,-103.74"/>
<polygon fill="black" stroke="black" points="536.27,-103.74 539.77,-113.74 543.27,-103.74 536.27,-103.74"/>
</g>
<!-- RewardClient -->
<g id="node7" class="node">
<title>RewardClient</title>
<ellipse fill="#fdb462" stroke="black" cx="309" cy="-66.8" rx="64.84" ry="18"/>
<text text-anchor="middle" x="309" y="-62.6" font-family="Times,serif" font-size="14.00">RewardClient</text>
</g>
<!-- RewardClient&#45;&gt;AdminRewardsPageModule -->
<g id="edge6" class="edge">
<title>RewardClient&#45;&gt;AdminRewardsPageModule</title>
<path fill="none" stroke="black" d="M309,-84.82C309,-102.17 309,-125.8 309,-125.8 309,-125.8 483.82,-125.8 483.82,-125.8"/>
<polygon fill="black" stroke="black" points="483.82,-129.3 493.82,-125.8 483.82,-122.3 483.82,-129.3"/>
</g>
</g>
</svg>
