<?xml version="1.0" encoding="UTF-8" standalone="no"?>
<!DOCTYPE svg PUBLIC "-//W3C//DTD SVG 1.1//EN"
 "http://www.w3.org/Graphics/SVG/1.1/DTD/svg11.dtd">
<!-- Generated by graphviz version 2.47.3 (20210619.1520)
 -->
<!-- Title: dependencies Pages: 1 -->
<svg width="4214pt" height="174pt"
 viewBox="0.00 0.00 4214.00 173.80" xmlns="http://www.w3.org/2000/svg" xmlns:xlink="http://www.w3.org/1999/xlink">
<g id="graph0" class="graph" transform="scale(1 1) rotate(0) translate(4 169.8)">
<title>dependencies</title>
<polygon fill="white" stroke="transparent" points="-4,4 -4,-169.8 4210,-169.8 4210,4 -4,4"/>
<text text-anchor="middle" x="2103" y="-8.2" font-family="sans-serif" font-size="14.00">dependencies</text>
<g id="clust1" class="cluster">
<title>cluster_AdventureRoadmapPageModule</title>
<polygon fill="none" stroke="black" stroke-dasharray="1,5" points="8,-32.8 8,-157.8 4198,-157.8 4198,-32.8 8,-32.8"/>
</g>
<g id="clust2" class="cluster">
<title>cluster_AdventureRoadmapPageModule_declarations</title>
<polygon fill="none" stroke="black" points="3952,-40.8 3952,-92.8 4190,-92.8 4190,-40.8 3952,-40.8"/>
</g>
<g id="clust7" class="cluster">
<title>cluster_AdventureRoadmapPageModule_providers</title>
<polygon fill="none" stroke="black" points="3223,-40.8 3223,-92.8 3944,-92.8 3944,-40.8 3223,-40.8"/>
</g>
<g id="clust4" class="cluster">
<title>cluster_AdventureRoadmapPageModule_imports</title>
<polygon fill="none" stroke="black" points="16,-40.8 16,-92.8 3215,-92.8 3215,-40.8 16,-40.8"/>
</g>
<!-- AdventureRoadmapPageComponent -->
<g id="node1" class="node">
<title>AdventureRoadmapPageComponent</title>
<polygon fill="#ffffb3" stroke="black" points="4181.79,-84.8 3960.21,-84.8 3960.21,-48.8 4181.79,-48.8 4181.79,-84.8"/>
<text text-anchor="middle" x="4071" y="-62.6" font-family="Times,serif" font-size="14.00">AdventureRoadmapPageComponent</text>
</g>
<!-- AdventureRoadmapPageModule -->
<g id="node2" class="node">
<title>AdventureRoadmapPageModule</title>
<polygon fill="#8dd3c7" stroke="black" points="2207.51,-149.8 2204.51,-153.8 2183.51,-153.8 2180.51,-149.8 2008.49,-149.8 2008.49,-113.8 2207.51,-113.8 2207.51,-149.8"/>
<text text-anchor="middle" x="2108" y="-127.6" font-family="Times,serif" font-size="14.00">AdventureRoadmapPageModule</text>
</g>
<!-- AdventureRoadmapPageComponent&#45;&gt;AdventureRoadmapPageModule -->
<g id="edge1" class="edge">
<title>AdventureRoadmapPageComponent&#45;&gt;AdventureRoadmapPageModule</title>
<path fill="none" stroke="black" d="M4071,-85.18C4071,-109.08 4071,-147.8 4071,-147.8 4071,-147.8 2217.71,-147.8 2217.71,-147.8"/>
<polygon fill="black" stroke="black" points="2217.71,-144.3 2207.71,-147.8 2217.71,-151.3 2217.71,-144.3"/>
</g>
<!-- ApplicationPreviewCardModule -->
<g id="node3" class="node">
<title>ApplicationPreviewCardModule</title>
<polygon fill="#8dd3c7" stroke="black" points="3207.23,-84.8 3204.23,-88.8 3183.23,-88.8 3180.23,-84.8 3008.77,-84.8 3008.77,-48.8 3207.23,-48.8 3207.23,-84.8"/>
<text text-anchor="middle" x="3108" y="-62.6" font-family="Times,serif" font-size="14.00">ApplicationPreviewCardModule</text>
</g>
<!-- ApplicationPreviewCardModule&#45;&gt;AdventureRoadmapPageModule -->
<g id="edge2" class="edge">
<title>ApplicationPreviewCardModule&#45;&gt;AdventureRoadmapPageModule</title>
<path fill="none" stroke="black" d="M3108,-84.97C3108,-103.89 3108,-130.8 3108,-130.8 3108,-130.8 2217.54,-130.8 2217.54,-130.8"/>
<polygon fill="black" stroke="black" points="2217.54,-127.3 2207.54,-130.8 2217.54,-134.3 2217.54,-127.3"/>
</g>
<!-- DiscoveriesModule -->
<g id="node4" class="node">
<title>DiscoveriesModule</title>
<polygon fill="#8dd3c7" stroke="black" points="2990.63,-84.8 2987.63,-88.8 2966.63,-88.8 2963.63,-84.8 2865.37,-84.8 2865.37,-48.8 2990.63,-48.8 2990.63,-84.8"/>
<text text-anchor="middle" x="2928" y="-62.6" font-family="Times,serif" font-size="14.00">DiscoveriesModule</text>
</g>
<!-- DiscoveriesModule&#45;&gt;AdventureRoadmapPageModule -->
<g id="edge3" class="edge">
<title>DiscoveriesModule&#45;&gt;AdventureRoadmapPageModule</title>
<path fill="none" stroke="black" d="M2928,-85.1C2928,-103.07 2928,-127.8 2928,-127.8 2928,-127.8 2217.73,-127.8 2217.73,-127.8"/>
<polygon fill="black" stroke="black" points="2217.73,-124.3 2207.73,-127.8 2217.73,-131.3 2217.73,-124.3"/>
</g>
<!-- EventsModule -->
<g id="node5" class="node">
<title>EventsModule</title>
<polygon fill="#8dd3c7" stroke="black" points="2846.65,-84.8 2843.65,-88.8 2822.65,-88.8 2819.65,-84.8 2749.35,-84.8 2749.35,-48.8 2846.65,-48.8 2846.65,-84.8"/>
<text text-anchor="middle" x="2798" y="-62.6" font-family="Times,serif" font-size="14.00">EventsModule</text>
</g>
<!-- EventsModule&#45;&gt;AdventureRoadmapPageModule -->
<g id="edge4" class="edge">
<title>EventsModule&#45;&gt;AdventureRoadmapPageModule</title>
<path fill="none" stroke="black" d="M2798,-84.82C2798,-102.17 2798,-125.8 2798,-125.8 2798,-125.8 2217.6,-125.8 2217.6,-125.8"/>
<polygon fill="black" stroke="black" points="2217.6,-122.3 2207.6,-125.8 2217.59,-129.3 2217.6,-122.3"/>
</g>
<!-- FindInternshipApprenticeshipModule -->
<g id="node6" class="node">
<title>FindInternshipApprenticeshipModule</title>
<polygon fill="#8dd3c7" stroke="black" points="2730.51,-84.8 2727.51,-88.8 2706.51,-88.8 2703.51,-84.8 2503.49,-84.8 2503.49,-48.8 2730.51,-48.8 2730.51,-84.8"/>
<text text-anchor="middle" x="2617" y="-62.6" font-family="Times,serif" font-size="14.00">FindInternshipApprenticeshipModule</text>
</g>
<!-- FindInternshipApprenticeshipModule&#45;&gt;AdventureRoadmapPageModule -->
<g id="edge5" class="edge">
<title>FindInternshipApprenticeshipModule&#45;&gt;AdventureRoadmapPageModule</title>
<path fill="none" stroke="black" d="M2617,-84.83C2617,-101.2 2617,-122.8 2617,-122.8 2617,-122.8 2217.65,-122.8 2217.65,-122.8"/>
<polygon fill="black" stroke="black" points="2217.65,-119.3 2207.65,-122.8 2217.65,-126.3 2217.65,-119.3"/>
</g>
<!-- IdentifiedTabModule -->
<g id="node7" class="node">
<title>IdentifiedTabModule</title>
<polygon fill="#8dd3c7" stroke="black" points="2484.74,-84.8 2481.74,-88.8 2460.74,-88.8 2457.74,-84.8 2349.26,-84.8 2349.26,-48.8 2484.74,-48.8 2484.74,-84.8"/>
<text text-anchor="middle" x="2417" y="-62.6" font-family="Times,serif" font-size="14.00">IdentifiedTabModule</text>
</g>
<!-- IdentifiedTabModule&#45;&gt;AdventureRoadmapPageModule -->
<g id="edge6" class="edge">
<title>IdentifiedTabModule&#45;&gt;AdventureRoadmapPageModule</title>
<path fill="none" stroke="black" d="M2417,-85.04C2417,-100.37 2417,-119.8 2417,-119.8 2417,-119.8 2217.9,-119.8 2217.9,-119.8"/>
<polygon fill="black" stroke="black" points="2217.9,-116.3 2207.9,-119.8 2217.9,-123.3 2217.9,-116.3"/>
</g>
<!-- ItineraryModule -->
<g id="node8" class="node">
<title>ItineraryModule</title>
<polygon fill="#8dd3c7" stroke="black" points="2330.74,-84.8 2327.74,-88.8 2306.74,-88.8 2303.74,-84.8 2223.26,-84.8 2223.26,-48.8 2330.74,-48.8 2330.74,-84.8"/>
<text text-anchor="middle" x="2277" y="-62.6" font-family="Times,serif" font-size="14.00">ItineraryModule</text>
</g>
<!-- ItineraryModule&#45;&gt;AdventureRoadmapPageModule -->
<g id="edge7" class="edge">
<title>ItineraryModule&#45;&gt;AdventureRoadmapPageModule</title>
<path fill="none" stroke="black" d="M2277,-84.85C2277,-99.17 2277,-116.8 2277,-116.8 2277,-116.8 2217.77,-116.8 2217.77,-116.8"/>
<polygon fill="black" stroke="black" points="2217.77,-113.3 2207.77,-116.8 2217.77,-120.3 2217.77,-113.3"/>
</g>
<!-- JobModule -->
<g id="node9" class="node">
<title>JobModule</title>
<polygon fill="#8dd3c7" stroke="black" points="2205.49,-84.8 2202.49,-88.8 2181.49,-88.8 2178.49,-84.8 2126.51,-84.8 2126.51,-48.8 2205.49,-48.8 2205.49,-84.8"/>
<text text-anchor="middle" x="2166" y="-62.6" font-family="Times,serif" font-size="14.00">JobModule</text>
</g>
<!-- JobModule&#45;&gt;AdventureRoadmapPageModule -->
<g id="edge8" class="edge">
<title>JobModule&#45;&gt;AdventureRoadmapPageModule</title>
<path fill="none" stroke="black" d="M2166,-84.91C2166,-84.91 2166,-103.79 2166,-103.79"/>
<polygon fill="black" stroke="black" points="2162.5,-103.79 2166,-113.79 2169.5,-103.79 2162.5,-103.79"/>
</g>
<!-- LocationsModule -->
<g id="node10" class="node">
<title>LocationsModule</title>
<polygon fill="#8dd3c7" stroke="black" points="2108.26,-84.8 2105.26,-88.8 2084.26,-88.8 2081.26,-84.8 1993.74,-84.8 1993.74,-48.8 2108.26,-48.8 2108.26,-84.8"/>
<text text-anchor="middle" x="2051" y="-62.6" font-family="Times,serif" font-size="14.00">LocationsModule</text>
</g>
<!-- LocationsModule&#45;&gt;AdventureRoadmapPageModule -->
<g id="edge9" class="edge">
<title>LocationsModule&#45;&gt;AdventureRoadmapPageModule</title>
<path fill="none" stroke="black" d="M2058.31,-84.91C2058.31,-84.91 2058.31,-103.79 2058.31,-103.79"/>
<polygon fill="black" stroke="black" points="2054.81,-103.79 2058.31,-113.79 2061.81,-103.79 2054.81,-103.79"/>
</g>
<!-- MyRegionModule -->
<g id="node11" class="node">
<title>MyRegionModule</title>
<polygon fill="#8dd3c7" stroke="black" points="1975.94,-84.8 1972.94,-88.8 1951.94,-88.8 1948.94,-84.8 1856.06,-84.8 1856.06,-48.8 1975.94,-48.8 1975.94,-84.8"/>
<text text-anchor="middle" x="1916" y="-62.6" font-family="Times,serif" font-size="14.00">MyRegionModule</text>
</g>
<!-- MyRegionModule&#45;&gt;AdventureRoadmapPageModule -->
<g id="edge10" class="edge">
<title>MyRegionModule&#45;&gt;AdventureRoadmapPageModule</title>
<path fill="none" stroke="black" d="M1916,-84.85C1916,-99.17 1916,-116.8 1916,-116.8 1916,-116.8 1998.34,-116.8 1998.34,-116.8"/>
<polygon fill="black" stroke="black" points="1998.34,-120.3 2008.34,-116.8 1998.34,-113.3 1998.34,-120.3"/>
</g>
<!-- NavigateToAnchorModule -->
<g id="node12" class="node">
<title>NavigateToAnchorModule</title>
<polygon fill="#8dd3c7" stroke="black" points="1837.62,-84.8 1834.62,-88.8 1813.62,-88.8 1810.62,-84.8 1670.38,-84.8 1670.38,-48.8 1837.62,-48.8 1837.62,-84.8"/>
<text text-anchor="middle" x="1754" y="-62.6" font-family="Times,serif" font-size="14.00">NavigateToAnchorModule</text>
</g>
<!-- NavigateToAnchorModule&#45;&gt;AdventureRoadmapPageModule -->
<g id="edge11" class="edge">
<title>NavigateToAnchorModule&#45;&gt;AdventureRoadmapPageModule</title>
<path fill="none" stroke="black" d="M1754,-85.04C1754,-100.37 1754,-119.8 1754,-119.8 1754,-119.8 1998.45,-119.8 1998.45,-119.8"/>
<polygon fill="black" stroke="black" points="1998.45,-123.3 2008.45,-119.8 1998.45,-116.3 1998.45,-123.3"/>
</g>
<!-- NavigateToTabModule -->
<g id="node13" class="node">
<title>NavigateToTabModule</title>
<polygon fill="#8dd3c7" stroke="black" points="1651.9,-84.8 1648.9,-88.8 1627.9,-88.8 1624.9,-84.8 1504.1,-84.8 1504.1,-48.8 1651.9,-48.8 1651.9,-84.8"/>
<text text-anchor="middle" x="1578" y="-62.6" font-family="Times,serif" font-size="14.00">NavigateToTabModule</text>
</g>
<!-- NavigateToTabModule&#45;&gt;AdventureRoadmapPageModule -->
<g id="edge12" class="edge">
<title>NavigateToTabModule&#45;&gt;AdventureRoadmapPageModule</title>
<path fill="none" stroke="black" d="M1578,-84.83C1578,-101.2 1578,-122.8 1578,-122.8 1578,-122.8 1998.31,-122.8 1998.31,-122.8"/>
<polygon fill="black" stroke="black" points="1998.31,-126.3 2008.31,-122.8 1998.31,-119.3 1998.31,-126.3"/>
</g>
<!-- RecommendedBacSpecialtiesModule -->
<g id="node14" class="node">
<title>RecommendedBacSpecialtiesModule</title>
<polygon fill="#8dd3c7" stroke="black" points="1485.94,-84.8 1482.94,-88.8 1461.94,-88.8 1458.94,-84.8 1260.06,-84.8 1260.06,-48.8 1485.94,-48.8 1485.94,-84.8"/>
<text text-anchor="middle" x="1373" y="-62.6" font-family="Times,serif" font-size="14.00">RecommendedBacSpecialtiesModule</text>
</g>
<!-- RecommendedBacSpecialtiesModule&#45;&gt;AdventureRoadmapPageModule -->
<g id="edge13" class="edge">
<title>RecommendedBacSpecialtiesModule&#45;&gt;AdventureRoadmapPageModule</title>
<path fill="none" stroke="black" d="M1373,-84.82C1373,-102.17 1373,-125.8 1373,-125.8 1373,-125.8 1998.49,-125.8 1998.49,-125.8"/>
<polygon fill="black" stroke="black" points="1998.49,-129.3 2008.49,-125.8 1998.49,-122.3 1998.49,-129.3"/>
</g>
<!-- SaveRoadmapButtonModule -->
<g id="node15" class="node">
<title>SaveRoadmapButtonModule</title>
<polygon fill="#8dd3c7" stroke="black" points="1242.04,-84.8 1239.04,-88.8 1218.04,-88.8 1215.04,-84.8 1063.96,-84.8 1063.96,-48.8 1242.04,-48.8 1242.04,-84.8"/>
<text text-anchor="middle" x="1153" y="-62.6" font-family="Times,serif" font-size="14.00">SaveRoadmapButtonModule</text>
</g>
<!-- SaveRoadmapButtonModule&#45;&gt;AdventureRoadmapPageModule -->
<g id="edge14" class="edge">
<title>SaveRoadmapButtonModule&#45;&gt;AdventureRoadmapPageModule</title>
<path fill="none" stroke="black" d="M1153,-85.1C1153,-103.07 1153,-127.8 1153,-127.8 1153,-127.8 1998.05,-127.8 1998.05,-127.8"/>
<polygon fill="black" stroke="black" points="1998.05,-131.3 2008.05,-127.8 1998.05,-124.3 1998.05,-131.3"/>
</g>
<!-- SchoolDetailsModule -->
<g id="node16" class="node">
<title>SchoolDetailsModule</title>
<polygon fill="#8dd3c7" stroke="black" points="1046.09,-84.8 1043.09,-88.8 1022.09,-88.8 1019.09,-84.8 907.91,-84.8 907.91,-48.8 1046.09,-48.8 1046.09,-84.8"/>
<text text-anchor="middle" x="977" y="-62.6" font-family="Times,serif" font-size="14.00">SchoolDetailsModule</text>
</g>
<!-- SchoolDetailsModule&#45;&gt;AdventureRoadmapPageModule -->
<g id="edge15" class="edge">
<title>SchoolDetailsModule&#45;&gt;AdventureRoadmapPageModule</title>
<path fill="none" stroke="black" d="M977,-84.97C977,-103.89 977,-130.8 977,-130.8 977,-130.8 1998.13,-130.8 1998.13,-130.8"/>
<polygon fill="black" stroke="black" points="1998.13,-134.3 2008.13,-130.8 1998.13,-127.3 1998.13,-134.3"/>
</g>
<!-- ScrollWrapperModule -->
<g id="node17" class="node">
<title>ScrollWrapperModule</title>
<polygon fill="#8dd3c7" stroke="black" points="889.95,-84.8 886.95,-88.8 865.95,-88.8 862.95,-84.8 748.05,-84.8 748.05,-48.8 889.95,-48.8 889.95,-84.8"/>
<text text-anchor="middle" x="819" y="-62.6" font-family="Times,serif" font-size="14.00">ScrollWrapperModule</text>
</g>
<!-- ScrollWrapperModule&#45;&gt;AdventureRoadmapPageModule -->
<g id="edge16" class="edge">
<title>ScrollWrapperModule&#45;&gt;AdventureRoadmapPageModule</title>
<path fill="none" stroke="black" d="M819,-85.11C819,-104.95 819,-133.8 819,-133.8 819,-133.8 1998.46,-133.8 1998.46,-133.8"/>
<polygon fill="black" stroke="black" points="1998.46,-137.3 2008.46,-133.8 1998.46,-130.3 1998.46,-137.3"/>
</g>
<!-- SimilarAdventuresModule -->
<g id="node18" class="node">
<title>SimilarAdventuresModule</title>
<polygon fill="#8dd3c7" stroke="black" points="729.8,-84.8 726.8,-88.8 705.8,-88.8 702.8,-84.8 564.2,-84.8 564.2,-48.8 729.8,-48.8 729.8,-84.8"/>
<text text-anchor="middle" x="647" y="-62.6" font-family="Times,serif" font-size="14.00">SimilarAdventuresModule</text>
</g>
<!-- SimilarAdventuresModule&#45;&gt;AdventureRoadmapPageModule -->
<g id="edge17" class="edge">
<title>SimilarAdventuresModule&#45;&gt;AdventureRoadmapPageModule</title>
<path fill="none" stroke="black" d="M647,-84.83C647,-105.57 647,-136.8 647,-136.8 647,-136.8 1998.44,-136.8 1998.44,-136.8"/>
<polygon fill="black" stroke="black" points="1998.44,-140.3 2008.44,-136.8 1998.44,-133.3 1998.44,-140.3"/>
</g>
<!-- SimpleTemplateModule -->
<g id="node19" class="node">
<title>SimpleTemplateModule</title>
<polygon fill="#8dd3c7" stroke="black" points="546.09,-84.8 543.09,-88.8 522.09,-88.8 519.09,-84.8 393.91,-84.8 393.91,-48.8 546.09,-48.8 546.09,-84.8"/>
<text text-anchor="middle" x="470" y="-62.6" font-family="Times,serif" font-size="14.00">SimpleTemplateModule</text>
</g>
<!-- SimpleTemplateModule&#45;&gt;AdventureRoadmapPageModule -->
<g id="edge18" class="edge">
<title>SimpleTemplateModule&#45;&gt;AdventureRoadmapPageModule</title>
<path fill="none" stroke="black" d="M470,-84.97C470,-106.3 470,-138.8 470,-138.8 470,-138.8 1998.31,-138.8 1998.31,-138.8"/>
<polygon fill="black" stroke="black" points="1998.31,-142.3 2008.31,-138.8 1998.31,-135.3 1998.31,-142.3"/>
</g>
<!-- SkillsModule -->
<g id="node20" class="node">
<title>SkillsModule</title>
<polygon fill="#8dd3c7" stroke="black" points="375.95,-84.8 372.95,-88.8 351.95,-88.8 348.95,-84.8 284.05,-84.8 284.05,-48.8 375.95,-48.8 375.95,-84.8"/>
<text text-anchor="middle" x="330" y="-62.6" font-family="Times,serif" font-size="14.00">SkillsModule</text>
</g>
<!-- SkillsModule&#45;&gt;AdventureRoadmapPageModule -->
<g id="edge19" class="edge">
<title>SkillsModule&#45;&gt;AdventureRoadmapPageModule</title>
<path fill="none" stroke="black" d="M330,-84.96C330,-107.15 330,-141.8 330,-141.8 330,-141.8 1998.28,-141.8 1998.28,-141.8"/>
<polygon fill="black" stroke="black" points="1998.28,-145.3 2008.28,-141.8 1998.28,-138.3 1998.28,-145.3"/>
</g>
<!-- StructureListModule -->
<g id="node21" class="node">
<title>StructureListModule</title>
<polygon fill="#8dd3c7" stroke="black" points="266.14,-84.8 263.14,-88.8 242.14,-88.8 239.14,-84.8 133.86,-84.8 133.86,-48.8 266.14,-48.8 266.14,-84.8"/>
<text text-anchor="middle" x="200" y="-62.6" font-family="Times,serif" font-size="14.00">StructureListModule</text>
</g>
<!-- StructureListModule&#45;&gt;AdventureRoadmapPageModule -->
<g id="edge20" class="edge">
<title>StructureListModule&#45;&gt;AdventureRoadmapPageModule</title>
<path fill="none" stroke="black" d="M200,-84.89C200,-107.93 200,-144.8 200,-144.8 200,-144.8 1998.44,-144.8 1998.44,-144.8"/>
<polygon fill="black" stroke="black" points="1998.44,-148.3 2008.44,-144.8 1998.44,-141.3 1998.44,-148.3"/>
</g>
<!-- TeamModule -->
<g id="node22" class="node">
<title>TeamModule</title>
<polygon fill="#8dd3c7" stroke="black" points="115.92,-84.8 112.92,-88.8 91.92,-88.8 88.92,-84.8 24.08,-84.8 24.08,-48.8 115.92,-48.8 115.92,-84.8"/>
<text text-anchor="middle" x="70" y="-62.6" font-family="Times,serif" font-size="14.00">TeamModule</text>
</g>
<!-- TeamModule&#45;&gt;AdventureRoadmapPageModule -->
<g id="edge21" class="edge">
<title>TeamModule&#45;&gt;AdventureRoadmapPageModule</title>
<path fill="none" stroke="black" d="M70,-85.18C70,-109.08 70,-147.8 70,-147.8 70,-147.8 1998.32,-147.8 1998.32,-147.8"/>
<polygon fill="black" stroke="black" points="1998.32,-151.3 2008.32,-147.8 1998.32,-144.3 1998.32,-151.3"/>
</g>
<!-- InstanceService -->
<g id="node23" class="node">
<title>InstanceService</title>
<ellipse fill="#fdb462" stroke="black" cx="3864" cy="-66.8" rx="72.33" ry="18"/>
<text text-anchor="middle" x="3864" y="-62.6" font-family="Times,serif" font-size="14.00">InstanceService</text>
</g>
<!-- InstanceService&#45;&gt;AdventureRoadmapPageModule -->
<g id="edge22" class="edge">
<title>InstanceService&#45;&gt;AdventureRoadmapPageModule</title>
<path fill="none" stroke="black" d="M3864,-84.89C3864,-107.93 3864,-144.8 3864,-144.8 3864,-144.8 2217.76,-144.8 2217.76,-144.8"/>
<polygon fill="black" stroke="black" points="2217.76,-141.3 2207.76,-144.8 2217.76,-148.3 2217.76,-141.3"/>
</g>
<!-- PoiClient -->
<g id="node24" class="node">
<title>PoiClient</title>
<ellipse fill="#fdb462" stroke="black" cx="3726" cy="-66.8" rx="47.55" ry="18"/>
<text text-anchor="middle" x="3726" y="-62.6" font-family="Times,serif" font-size="14.00">PoiClient</text>
</g>
<!-- PoiClient&#45;&gt;AdventureRoadmapPageModule -->
<g id="edge23" class="edge">
<title>PoiClient&#45;&gt;AdventureRoadmapPageModule</title>
<path fill="none" stroke="black" d="M3726,-84.96C3726,-107.15 3726,-141.8 3726,-141.8 3726,-141.8 2217.69,-141.8 2217.69,-141.8"/>
<polygon fill="black" stroke="black" points="2217.69,-138.3 2207.69,-141.8 2217.69,-145.3 2217.69,-138.3"/>
</g>
<!-- PoiService -->
<g id="node25" class="node">
<title>PoiService</title>
<ellipse fill="#fdb462" stroke="black" cx="3608" cy="-66.8" rx="52.74" ry="18"/>
<text text-anchor="middle" x="3608" y="-62.6" font-family="Times,serif" font-size="14.00">PoiService</text>
</g>
<!-- PoiService&#45;&gt;AdventureRoadmapPageModule -->
<g id="edge24" class="edge">
<title>PoiService&#45;&gt;AdventureRoadmapPageModule</title>
<path fill="none" stroke="black" d="M3608,-84.97C3608,-106.3 3608,-138.8 3608,-138.8 3608,-138.8 2217.58,-138.8 2217.58,-138.8"/>
<polygon fill="black" stroke="black" points="2217.58,-135.3 2207.58,-138.8 2217.58,-142.3 2217.58,-135.3"/>
</g>
<!-- SituationClient -->
<g id="node26" class="node">
<title>SituationClient</title>
<ellipse fill="#fdb462" stroke="black" cx="3468" cy="-66.8" rx="69.54" ry="18"/>
<text text-anchor="middle" x="3468" y="-62.6" font-family="Times,serif" font-size="14.00">SituationClient</text>
</g>
<!-- SituationClient&#45;&gt;AdventureRoadmapPageModule -->
<g id="edge25" class="edge">
<title>SituationClient&#45;&gt;AdventureRoadmapPageModule</title>
<path fill="none" stroke="black" d="M3468,-84.83C3468,-105.57 3468,-136.8 3468,-136.8 3468,-136.8 2217.73,-136.8 2217.73,-136.8"/>
<polygon fill="black" stroke="black" points="2217.73,-133.3 2207.73,-136.8 2217.73,-140.3 2217.73,-133.3"/>
</g>
<!-- SituationService -->
<g id="node27" class="node">
<title>SituationService</title>
<ellipse fill="#fdb462" stroke="black" cx="3306" cy="-66.8" rx="74.73" ry="18"/>
<text text-anchor="middle" x="3306" y="-62.6" font-family="Times,serif" font-size="14.00">SituationService</text>
</g>
<!-- SituationService&#45;&gt;AdventureRoadmapPageModule -->
<g id="edge26" class="edge">
<title>SituationService&#45;&gt;AdventureRoadmapPageModule</title>
<path fill="none" stroke="black" d="M3306,-85.11C3306,-104.95 3306,-133.8 3306,-133.8 3306,-133.8 2217.57,-133.8 2217.57,-133.8"/>
<polygon fill="black" stroke="black" points="2217.57,-130.3 2207.57,-133.8 2217.57,-137.3 2217.57,-130.3"/>
</g>
</g>
</svg>
