<?xml version="1.0" encoding="UTF-8" standalone="no"?>
<!DOCTYPE svg PUBLIC "-//W3C//DTD SVG 1.1//EN"
 "http://www.w3.org/Graphics/SVG/1.1/DTD/svg11.dtd">
<!-- Generated by graphviz version 2.47.3 (20210619.1520)
 -->
<!-- Title: dependencies Pages: 1 -->
<svg width="468pt" height="247pt"
 viewBox="0.00 0.00 468.00 246.80" xmlns="http://www.w3.org/2000/svg" xmlns:xlink="http://www.w3.org/1999/xlink">
<g id="graph0" class="graph" transform="scale(1 1) rotate(0) translate(4 242.8)">
<title>dependencies</title>
<polygon fill="white" stroke="transparent" points="-4,4 -4,-242.8 464,-242.8 464,4 -4,4"/>
<text text-anchor="middle" x="230" y="-8.2" font-family="sans-serif" font-size="14.00">dependencies</text>
<g id="clust1" class="cluster">
<title>cluster_ExpeditionStepDescriptionModule</title>
<polygon fill="none" stroke="black" stroke-dasharray="1,5" points="8,-32.8 8,-230.8 452,-230.8 452,-32.8 8,-32.8"/>
</g>
<g id="clust2" class="cluster">
<title>cluster_ExpeditionStepDescriptionModule_declarations</title>
<polygon fill="none" stroke="black" points="196,-40.8 196,-92.8 444,-92.8 444,-40.8 196,-40.8"/>
</g>
<g id="clust4" class="cluster">
<title>cluster_ExpeditionStepDescriptionModule_imports</title>
<polygon fill="none" stroke="black" points="16,-40.8 16,-92.8 188,-92.8 188,-40.8 16,-40.8"/>
</g>
<g id="clust5" class="cluster">
<title>cluster_ExpeditionStepDescriptionModule_exports</title>
<polygon fill="none" stroke="black" points="104,-170.8 104,-222.8 356,-222.8 356,-170.8 104,-170.8"/>
</g>
<!-- ExpeditionStepDescriptionComponent -->
<g id="node1" class="node">
<title>ExpeditionStepDescriptionComponent</title>
<polygon fill="#ffffb3" stroke="black" points="436.47,-84.8 203.53,-84.8 203.53,-48.8 436.47,-48.8 436.47,-84.8"/>
<text text-anchor="middle" x="320" y="-62.6" font-family="Times,serif" font-size="14.00">ExpeditionStepDescriptionComponent</text>
</g>
<!-- ExpeditionStepDescriptionModule -->
<g id="node2" class="node">
<title>ExpeditionStepDescriptionModule</title>
<polygon fill="#8dd3c7" stroke="black" points="335.69,-149.8 332.69,-153.8 311.69,-153.8 308.69,-149.8 124.31,-149.8 124.31,-113.8 335.69,-113.8 335.69,-149.8"/>
<text text-anchor="middle" x="230" y="-127.6" font-family="Times,serif" font-size="14.00">ExpeditionStepDescriptionModule</text>
</g>
<!-- ExpeditionStepDescriptionComponent&#45;&gt;ExpeditionStepDescriptionModule -->
<g id="edge1" class="edge">
<title>ExpeditionStepDescriptionComponent&#45;&gt;ExpeditionStepDescriptionModule</title>
<path fill="none" stroke="black" d="M269.55,-84.91C269.55,-84.91 269.55,-103.79 269.55,-103.79"/>
<polygon fill="black" stroke="black" points="266.05,-103.79 269.55,-113.79 273.05,-103.79 266.05,-103.79"/>
</g>
<!-- ExpeditionStepDescriptionComponent  -->
<g id="node4" class="node">
<title>ExpeditionStepDescriptionComponent </title>
<polygon fill="#fb8072" stroke="black" points="348.47,-214.8 111.53,-214.8 111.53,-178.8 348.47,-178.8 348.47,-214.8"/>
<text text-anchor="middle" x="230" y="-192.6" font-family="Times,serif" font-size="14.00">ExpeditionStepDescriptionComponent </text>
</g>
<!-- ExpeditionStepDescriptionModule&#45;&gt;ExpeditionStepDescriptionComponent  -->
<g id="edge3" class="edge">
<title>ExpeditionStepDescriptionModule&#45;&gt;ExpeditionStepDescriptionComponent </title>
<path fill="none" stroke="black" stroke-dasharray="5,2" d="M230,-149.91C230,-149.91 230,-168.79 230,-168.79"/>
<polygon fill="black" stroke="black" points="226.5,-168.79 230,-178.79 233.5,-168.79 226.5,-168.79"/>
</g>
<!-- MarkdownParserModule -->
<g id="node3" class="node">
<title>MarkdownParserModule</title>
<polygon fill="#8dd3c7" stroke="black" points="179.95,-84.8 176.95,-88.8 155.95,-88.8 152.95,-84.8 24.05,-84.8 24.05,-48.8 179.95,-48.8 179.95,-84.8"/>
<text text-anchor="middle" x="102" y="-62.6" font-family="Times,serif" font-size="14.00">MarkdownParserModule</text>
</g>
<!-- MarkdownParserModule&#45;&gt;ExpeditionStepDescriptionModule -->
<g id="edge2" class="edge">
<title>MarkdownParserModule&#45;&gt;ExpeditionStepDescriptionModule</title>
<path fill="none" stroke="black" d="M152.19,-84.91C152.19,-84.91 152.19,-103.79 152.19,-103.79"/>
<polygon fill="black" stroke="black" points="148.69,-103.79 152.19,-113.79 155.69,-103.79 148.69,-103.79"/>
</g>
</g>
</svg>
