<?xml version="1.0" encoding="UTF-8" standalone="no"?>
<!DOCTYPE svg PUBLIC "-//W3C//DTD SVG 1.1//EN"
 "http://www.w3.org/Graphics/SVG/1.1/DTD/svg11.dtd">
<!-- Generated by graphviz version 2.47.3 (20210619.1520)
 -->
<!-- Title: dependencies Pages: 1 -->
<svg width="1876pt" height="247pt"
 viewBox="0.00 0.00 1876.00 246.80" xmlns="http://www.w3.org/2000/svg" xmlns:xlink="http://www.w3.org/1999/xlink">
<g id="graph0" class="graph" transform="scale(1 1) rotate(0) translate(4 242.8)">
<title>dependencies</title>
<polygon fill="white" stroke="transparent" points="-4,4 -4,-242.8 1872,-242.8 1872,4 -4,4"/>
<text text-anchor="middle" x="934" y="-8.2" font-family="sans-serif" font-size="14.00">dependencies</text>
<g id="clust1" class="cluster">
<title>cluster_SchoolDetailsModule</title>
<polygon fill="none" stroke="black" stroke-dasharray="1,5" points="8,-32.8 8,-230.8 1860,-230.8 1860,-32.8 8,-32.8"/>
</g>
<g id="clust2" class="cluster">
<title>cluster_SchoolDetailsModule_declarations</title>
<polygon fill="none" stroke="black" points="1460,-40.8 1460,-92.8 1852,-92.8 1852,-40.8 1460,-40.8"/>
</g>
<g id="clust5" class="cluster">
<title>cluster_SchoolDetailsModule_imports</title>
<polygon fill="none" stroke="black" points="212,-40.8 212,-92.8 1452,-92.8 1452,-40.8 212,-40.8"/>
</g>
<g id="clust6" class="cluster">
<title>cluster_SchoolDetailsModule_exports</title>
<polygon fill="none" stroke="black" points="733,-170.8 733,-222.8 1132,-222.8 1132,-170.8 733,-170.8"/>
</g>
<g id="clust8" class="cluster">
<title>cluster_SchoolDetailsModule_providers</title>
<polygon fill="none" stroke="black" points="16,-40.8 16,-92.8 204,-92.8 204,-40.8 16,-40.8"/>
</g>
<!-- SchoolDetailsComponent -->
<g id="node1" class="node">
<title>SchoolDetailsComponent</title>
<polygon fill="#ffffb3" stroke="black" points="1843.87,-84.8 1684.13,-84.8 1684.13,-48.8 1843.87,-48.8 1843.87,-84.8"/>
<text text-anchor="middle" x="1764" y="-62.6" font-family="Times,serif" font-size="14.00">SchoolDetailsComponent</text>
</g>
<!-- SchoolDetailsModule -->
<g id="node3" class="node">
<title>SchoolDetailsModule</title>
<polygon fill="#8dd3c7" stroke="black" points="1011.09,-149.8 1008.09,-153.8 987.09,-153.8 984.09,-149.8 872.91,-149.8 872.91,-113.8 1011.09,-113.8 1011.09,-149.8"/>
<text text-anchor="middle" x="942" y="-127.6" font-family="Times,serif" font-size="14.00">SchoolDetailsModule</text>
</g>
<!-- SchoolDetailsComponent&#45;&gt;SchoolDetailsModule -->
<g id="edge1" class="edge">
<title>SchoolDetailsComponent&#45;&gt;SchoolDetailsModule</title>
<path fill="none" stroke="black" d="M1764,-85.05C1764,-107.82 1764,-143.8 1764,-143.8 1764,-143.8 1021.37,-143.8 1021.37,-143.8"/>
<polygon fill="black" stroke="black" points="1021.37,-140.3 1011.37,-143.8 1021.37,-147.3 1021.37,-140.3"/>
</g>
<!-- SchoolDetailsDialogComponent -->
<g id="node2" class="node">
<title>SchoolDetailsDialogComponent</title>
<polygon fill="#ffffb3" stroke="black" points="1665.97,-84.8 1468.03,-84.8 1468.03,-48.8 1665.97,-48.8 1665.97,-84.8"/>
<text text-anchor="middle" x="1567" y="-62.6" font-family="Times,serif" font-size="14.00">SchoolDetailsDialogComponent</text>
</g>
<!-- SchoolDetailsDialogComponent&#45;&gt;SchoolDetailsModule -->
<g id="edge2" class="edge">
<title>SchoolDetailsDialogComponent&#45;&gt;SchoolDetailsModule</title>
<path fill="none" stroke="black" d="M1567,-85.08C1567,-106.12 1567,-137.8 1567,-137.8 1567,-137.8 1021.27,-137.8 1021.27,-137.8"/>
<polygon fill="black" stroke="black" points="1021.27,-134.3 1011.27,-137.8 1021.27,-141.3 1021.27,-134.3"/>
</g>
<!-- SchoolDetailsComponent  -->
<g id="node12" class="node">
<title>SchoolDetailsComponent </title>
<polygon fill="#fb8072" stroke="black" points="1123.87,-214.8 960.13,-214.8 960.13,-178.8 1123.87,-178.8 1123.87,-214.8"/>
<text text-anchor="middle" x="1042" y="-192.6" font-family="Times,serif" font-size="14.00">SchoolDetailsComponent </text>
</g>
<!-- SchoolDetailsModule&#45;&gt;SchoolDetailsComponent  -->
<g id="edge11" class="edge">
<title>SchoolDetailsModule&#45;&gt;SchoolDetailsComponent </title>
<path fill="none" stroke="black" stroke-dasharray="5,2" d="M985.68,-149.91C985.68,-149.91 985.68,-168.79 985.68,-168.79"/>
<polygon fill="black" stroke="black" points="982.18,-168.79 985.68,-178.79 989.18,-168.79 982.18,-168.79"/>
</g>
<!-- SchoolDetailsDialogComponent  -->
<g id="node13" class="node">
<title>SchoolDetailsDialogComponent </title>
<polygon fill="#fb8072" stroke="black" points="942.98,-214.8 741.02,-214.8 741.02,-178.8 942.98,-178.8 942.98,-214.8"/>
<text text-anchor="middle" x="842" y="-192.6" font-family="Times,serif" font-size="14.00">SchoolDetailsDialogComponent </text>
</g>
<!-- SchoolDetailsModule&#45;&gt;SchoolDetailsDialogComponent  -->
<g id="edge12" class="edge">
<title>SchoolDetailsModule&#45;&gt;SchoolDetailsDialogComponent </title>
<path fill="none" stroke="black" stroke-dasharray="5,2" d="M907.85,-149.91C907.85,-149.91 907.85,-168.79 907.85,-168.79"/>
<polygon fill="black" stroke="black" points="904.35,-168.79 907.85,-178.79 911.35,-168.79 904.35,-168.79"/>
</g>
<!-- ContactButtonModule -->
<g id="node4" class="node">
<title>ContactButtonModule</title>
<polygon fill="#8dd3c7" stroke="black" points="1443.71,-84.8 1440.71,-88.8 1419.71,-88.8 1416.71,-84.8 1302.29,-84.8 1302.29,-48.8 1443.71,-48.8 1443.71,-84.8"/>
<text text-anchor="middle" x="1373" y="-62.6" font-family="Times,serif" font-size="14.00">ContactButtonModule</text>
</g>
<!-- ContactButtonModule&#45;&gt;SchoolDetailsModule -->
<g id="edge3" class="edge">
<title>ContactButtonModule&#45;&gt;SchoolDetailsModule</title>
<path fill="none" stroke="black" d="M1373,-84.91C1373,-104.14 1373,-131.8 1373,-131.8 1373,-131.8 1021.25,-131.8 1021.25,-131.8"/>
<polygon fill="black" stroke="black" points="1021.25,-128.3 1011.25,-131.8 1021.25,-135.3 1021.25,-128.3"/>
</g>
<!-- FeedbackTextModule -->
<g id="node5" class="node">
<title>FeedbackTextModule</title>
<polygon fill="#8dd3c7" stroke="black" points="1284.35,-84.8 1281.35,-88.8 1260.35,-88.8 1257.35,-84.8 1145.65,-84.8 1145.65,-48.8 1284.35,-48.8 1284.35,-84.8"/>
<text text-anchor="middle" x="1215" y="-62.6" font-family="Times,serif" font-size="14.00">FeedbackTextModule</text>
</g>
<!-- FeedbackTextModule&#45;&gt;SchoolDetailsModule -->
<g id="edge4" class="edge">
<title>FeedbackTextModule&#45;&gt;SchoolDetailsModule</title>
<path fill="none" stroke="black" d="M1215,-84.82C1215,-102.17 1215,-125.8 1215,-125.8 1215,-125.8 1021.24,-125.8 1021.24,-125.8"/>
<polygon fill="black" stroke="black" points="1021.24,-122.3 1011.24,-125.8 1021.24,-129.3 1021.24,-122.3"/>
</g>
<!-- LogoModule -->
<g id="node6" class="node">
<title>LogoModule</title>
<polygon fill="#8dd3c7" stroke="black" points="1127.6,-84.8 1124.6,-88.8 1103.6,-88.8 1100.6,-84.8 1038.4,-84.8 1038.4,-48.8 1127.6,-48.8 1127.6,-84.8"/>
<text text-anchor="middle" x="1083" y="-62.6" font-family="Times,serif" font-size="14.00">LogoModule</text>
</g>
<!-- LogoModule&#45;&gt;SchoolDetailsModule -->
<g id="edge5" class="edge">
<title>LogoModule&#45;&gt;SchoolDetailsModule</title>
<path fill="none" stroke="black" d="M1081.07,-85.04C1081.07,-100.37 1081.07,-119.8 1081.07,-119.8 1081.07,-119.8 1021.13,-119.8 1021.13,-119.8"/>
<polygon fill="black" stroke="black" points="1021.13,-116.3 1011.13,-119.8 1021.13,-123.3 1021.13,-116.3"/>
</g>
<!-- MarkdownParserModule -->
<g id="node7" class="node">
<title>MarkdownParserModule</title>
<polygon fill="#8dd3c7" stroke="black" points="1019.95,-84.8 1016.95,-88.8 995.95,-88.8 992.95,-84.8 864.05,-84.8 864.05,-48.8 1019.95,-48.8 1019.95,-84.8"/>
<text text-anchor="middle" x="942" y="-62.6" font-family="Times,serif" font-size="14.00">MarkdownParserModule</text>
</g>
<!-- MarkdownParserModule&#45;&gt;SchoolDetailsModule -->
<g id="edge6" class="edge">
<title>MarkdownParserModule&#45;&gt;SchoolDetailsModule</title>
<path fill="none" stroke="black" d="M942,-84.91C942,-84.91 942,-103.79 942,-103.79"/>
<polygon fill="black" stroke="black" points="938.5,-103.79 942,-113.79 945.5,-103.79 938.5,-103.79"/>
</g>
<!-- OfferSummaryModule -->
<g id="node8" class="node">
<title>OfferSummaryModule</title>
<polygon fill="#8dd3c7" stroke="black" points="846.29,-84.8 843.29,-88.8 822.29,-88.8 819.29,-84.8 701.71,-84.8 701.71,-48.8 846.29,-48.8 846.29,-84.8"/>
<text text-anchor="middle" x="774" y="-62.6" font-family="Times,serif" font-size="14.00">OfferSummaryModule</text>
</g>
<!-- OfferSummaryModule&#45;&gt;SchoolDetailsModule -->
<g id="edge7" class="edge">
<title>OfferSummaryModule&#45;&gt;SchoolDetailsModule</title>
<path fill="none" stroke="black" d="M793.7,-85.04C793.7,-100.37 793.7,-119.8 793.7,-119.8 793.7,-119.8 862.63,-119.8 862.63,-119.8"/>
<polygon fill="black" stroke="black" points="862.63,-123.3 872.63,-119.8 862.63,-116.3 862.63,-123.3"/>
</g>
<!-- RewardCardModule -->
<g id="node9" class="node">
<title>RewardCardModule</title>
<polygon fill="#8dd3c7" stroke="black" points="684.29,-84.8 681.29,-88.8 660.29,-88.8 657.29,-84.8 553.71,-84.8 553.71,-48.8 684.29,-48.8 684.29,-84.8"/>
<text text-anchor="middle" x="619" y="-62.6" font-family="Times,serif" font-size="14.00">RewardCardModule</text>
</g>
<!-- RewardCardModule&#45;&gt;SchoolDetailsModule -->
<g id="edge8" class="edge">
<title>RewardCardModule&#45;&gt;SchoolDetailsModule</title>
<path fill="none" stroke="black" d="M619,-84.82C619,-102.17 619,-125.8 619,-125.8 619,-125.8 862.71,-125.8 862.71,-125.8"/>
<polygon fill="black" stroke="black" points="862.71,-129.3 872.71,-125.8 862.71,-122.3 862.71,-129.3"/>
</g>
<!-- ScrollWrapperModule -->
<g id="node10" class="node">
<title>ScrollWrapperModule</title>
<polygon fill="#8dd3c7" stroke="black" points="535.95,-84.8 532.95,-88.8 511.95,-88.8 508.95,-84.8 394.05,-84.8 394.05,-48.8 535.95,-48.8 535.95,-84.8"/>
<text text-anchor="middle" x="465" y="-62.6" font-family="Times,serif" font-size="14.00">ScrollWrapperModule</text>
</g>
<!-- ScrollWrapperModule&#45;&gt;SchoolDetailsModule -->
<g id="edge9" class="edge">
<title>ScrollWrapperModule&#45;&gt;SchoolDetailsModule</title>
<path fill="none" stroke="black" d="M465,-84.91C465,-104.14 465,-131.8 465,-131.8 465,-131.8 862.89,-131.8 862.89,-131.8"/>
<polygon fill="black" stroke="black" points="862.9,-135.3 872.89,-131.8 862.89,-128.3 862.9,-135.3"/>
</g>
<!-- YoutubeWrapperModule -->
<g id="node11" class="node">
<title>YoutubeWrapperModule</title>
<polygon fill="#8dd3c7" stroke="black" points="376.23,-84.8 373.23,-88.8 352.23,-88.8 349.23,-84.8 219.77,-84.8 219.77,-48.8 376.23,-48.8 376.23,-84.8"/>
<text text-anchor="middle" x="298" y="-62.6" font-family="Times,serif" font-size="14.00">YoutubeWrapperModule</text>
</g>
<!-- YoutubeWrapperModule&#45;&gt;SchoolDetailsModule -->
<g id="edge10" class="edge">
<title>YoutubeWrapperModule&#45;&gt;SchoolDetailsModule</title>
<path fill="none" stroke="black" d="M298,-85.08C298,-106.12 298,-137.8 298,-137.8 298,-137.8 862.78,-137.8 862.78,-137.8"/>
<polygon fill="black" stroke="black" points="862.78,-141.3 872.78,-137.8 862.78,-134.3 862.78,-141.3"/>
</g>
<!-- ApplicationService -->
<g id="node14" class="node">
<title>ApplicationService</title>
<ellipse fill="#fdb462" stroke="black" cx="110" cy="-66.8" rx="85.67" ry="18"/>
<text text-anchor="middle" x="110" y="-62.6" font-family="Times,serif" font-size="14.00">ApplicationService</text>
</g>
<!-- ApplicationService&#45;&gt;SchoolDetailsModule -->
<g id="edge13" class="edge">
<title>ApplicationService&#45;&gt;SchoolDetailsModule</title>
<path fill="none" stroke="black" d="M110,-85.05C110,-107.82 110,-143.8 110,-143.8 110,-143.8 862.85,-143.8 862.85,-143.8"/>
<polygon fill="black" stroke="black" points="862.85,-147.3 872.85,-143.8 862.85,-140.3 862.85,-147.3"/>
</g>
</g>
</svg>
