<?xml version="1.0" encoding="UTF-8" standalone="no"?>
<!DOCTYPE svg PUBLIC "-//W3C//DTD SVG 1.1//EN"
 "http://www.w3.org/Graphics/SVG/1.1/DTD/svg11.dtd">
<!-- Generated by graphviz version 2.47.3 (20210619.1520)
 -->
<!-- Title: dependencies Pages: 1 -->
<svg width="764pt" height="174pt"
 viewBox="0.00 0.00 764.00 173.80" xmlns="http://www.w3.org/2000/svg" xmlns:xlink="http://www.w3.org/1999/xlink">
<g id="graph0" class="graph" transform="scale(1 1) rotate(0) translate(4 169.8)">
<title>dependencies</title>
<polygon fill="white" stroke="transparent" points="-4,4 -4,-169.8 760,-169.8 760,4 -4,4"/>
<text text-anchor="middle" x="378" y="-8.2" font-family="sans-serif" font-size="14.00">dependencies</text>
<g id="clust1" class="cluster">
<title>cluster_LocalisationFilterDialogModule</title>
<polygon fill="none" stroke="black" stroke-dasharray="1,5" points="8,-32.8 8,-157.8 748,-157.8 748,-32.8 8,-32.8"/>
</g>
<g id="clust4" class="cluster">
<title>cluster_LocalisationFilterDialogModule_imports</title>
<polygon fill="none" stroke="black" points="258,-40.8 258,-92.8 740,-92.8 740,-40.8 258,-40.8"/>
</g>
<g id="clust2" class="cluster">
<title>cluster_LocalisationFilterDialogModule_declarations</title>
<polygon fill="none" stroke="black" points="16,-40.8 16,-92.8 250,-92.8 250,-40.8 16,-40.8"/>
</g>
<!-- LocalisationFilterDialogComponent -->
<g id="node1" class="node">
<title>LocalisationFilterDialogComponent</title>
<polygon fill="#ffffb3" stroke="black" points="242.47,-84.8 23.53,-84.8 23.53,-48.8 242.47,-48.8 242.47,-84.8"/>
<text text-anchor="middle" x="133" y="-62.6" font-family="Times,serif" font-size="14.00">LocalisationFilterDialogComponent</text>
</g>
<!-- LocalisationFilterDialogModule -->
<g id="node2" class="node">
<title>LocalisationFilterDialogModule</title>
<polygon fill="#8dd3c7" stroke="black" points="530.69,-149.8 527.69,-153.8 506.69,-153.8 503.69,-149.8 333.31,-149.8 333.31,-113.8 530.69,-113.8 530.69,-149.8"/>
<text text-anchor="middle" x="432" y="-127.6" font-family="Times,serif" font-size="14.00">LocalisationFilterDialogModule</text>
</g>
<!-- LocalisationFilterDialogComponent&#45;&gt;LocalisationFilterDialogModule -->
<g id="edge1" class="edge">
<title>LocalisationFilterDialogComponent&#45;&gt;LocalisationFilterDialogModule</title>
<path fill="none" stroke="black" d="M133,-84.91C133,-104.14 133,-131.8 133,-131.8 133,-131.8 323.27,-131.8 323.27,-131.8"/>
<polygon fill="black" stroke="black" points="323.27,-135.3 333.27,-131.8 323.27,-128.3 323.27,-135.3"/>
</g>
<!-- CountryFlagModule -->
<g id="node3" class="node">
<title>CountryFlagModule</title>
<polygon fill="#8dd3c7" stroke="black" points="732.33,-84.8 729.33,-88.8 708.33,-88.8 705.33,-84.8 601.67,-84.8 601.67,-48.8 732.33,-48.8 732.33,-84.8"/>
<text text-anchor="middle" x="667" y="-62.6" font-family="Times,serif" font-size="14.00">CountryFlagModule</text>
</g>
<!-- CountryFlagModule&#45;&gt;LocalisationFilterDialogModule -->
<g id="edge2" class="edge">
<title>CountryFlagModule&#45;&gt;LocalisationFilterDialogModule</title>
<path fill="none" stroke="black" d="M667,-84.91C667,-104.14 667,-131.8 667,-131.8 667,-131.8 540.64,-131.8 540.64,-131.8"/>
<polygon fill="black" stroke="black" points="540.64,-128.3 530.64,-131.8 540.64,-135.3 540.64,-128.3"/>
</g>
<!-- SearchDialogModule -->
<g id="node4" class="node">
<title>SearchDialogModule</title>
<polygon fill="#8dd3c7" stroke="black" points="583.74,-84.8 580.74,-88.8 559.74,-88.8 556.74,-84.8 448.26,-84.8 448.26,-48.8 583.74,-48.8 583.74,-84.8"/>
<text text-anchor="middle" x="516" y="-62.6" font-family="Times,serif" font-size="14.00">SearchDialogModule</text>
</g>
<!-- SearchDialogModule&#45;&gt;LocalisationFilterDialogModule -->
<g id="edge3" class="edge">
<title>SearchDialogModule&#45;&gt;LocalisationFilterDialogModule</title>
<path fill="none" stroke="black" d="M489.36,-84.91C489.36,-84.91 489.36,-103.79 489.36,-103.79"/>
<polygon fill="black" stroke="black" points="485.86,-103.79 489.36,-113.79 492.86,-103.79 485.86,-103.79"/>
</g>
<!-- SelectCardControlModule -->
<g id="node5" class="node">
<title>SelectCardControlModule</title>
<polygon fill="#8dd3c7" stroke="black" points="429.75,-84.8 426.75,-88.8 405.75,-88.8 402.75,-84.8 266.25,-84.8 266.25,-48.8 429.75,-48.8 429.75,-84.8"/>
<text text-anchor="middle" x="348" y="-62.6" font-family="Times,serif" font-size="14.00">SelectCardControlModule</text>
</g>
<!-- SelectCardControlModule&#45;&gt;LocalisationFilterDialogModule -->
<g id="edge4" class="edge">
<title>SelectCardControlModule&#45;&gt;LocalisationFilterDialogModule</title>
<path fill="none" stroke="black" d="M381.64,-84.91C381.64,-84.91 381.64,-103.79 381.64,-103.79"/>
<polygon fill="black" stroke="black" points="378.14,-103.79 381.64,-113.79 385.14,-103.79 378.14,-103.79"/>
</g>
</g>
</svg>
