<?xml version="1.0" encoding="UTF-8" standalone="no"?>
<!DOCTYPE svg PUBLIC "-//W3C//DTD SVG 1.1//EN"
 "http://www.w3.org/Graphics/SVG/1.1/DTD/svg11.dtd">
<!-- Generated by graphviz version 2.47.3 (20210619.1520)
 -->
<!-- Title: dependencies Pages: 1 -->
<svg width="658pt" height="174pt"
 viewBox="0.00 0.00 658.00 173.80" xmlns="http://www.w3.org/2000/svg" xmlns:xlink="http://www.w3.org/1999/xlink">
<g id="graph0" class="graph" transform="scale(1 1) rotate(0) translate(4 169.8)">
<title>dependencies</title>
<polygon fill="white" stroke="transparent" points="-4,4 -4,-169.8 654,-169.8 654,4 -4,4"/>
<text text-anchor="middle" x="325" y="-8.2" font-family="sans-serif" font-size="14.00">dependencies</text>
<g id="clust1" class="cluster">
<title>cluster_AdminPoiDialogModule</title>
<polygon fill="none" stroke="black" stroke-dasharray="1,5" points="8,-32.8 8,-157.8 642,-157.8 642,-32.8 8,-32.8"/>
</g>
<g id="clust4" class="cluster">
<title>cluster_AdminPoiDialogModule_imports</title>
<polygon fill="none" stroke="black" points="216,-40.8 216,-92.8 634,-92.8 634,-40.8 216,-40.8"/>
</g>
<g id="clust2" class="cluster">
<title>cluster_AdminPoiDialogModule_declarations</title>
<polygon fill="none" stroke="black" points="16,-40.8 16,-92.8 208,-92.8 208,-40.8 16,-40.8"/>
</g>
<!-- AdminPoiDialogComponent -->
<g id="node1" class="node">
<title>AdminPoiDialogComponent</title>
<polygon fill="#ffffb3" stroke="black" points="200.5,-84.8 23.5,-84.8 23.5,-48.8 200.5,-48.8 200.5,-84.8"/>
<text text-anchor="middle" x="112" y="-62.6" font-family="Times,serif" font-size="14.00">AdminPoiDialogComponent</text>
</g>
<!-- AdminPoiDialogModule -->
<g id="node2" class="node">
<title>AdminPoiDialogModule</title>
<polygon fill="#8dd3c7" stroke="black" points="403.71,-149.8 400.71,-153.8 379.71,-153.8 376.71,-149.8 248.29,-149.8 248.29,-113.8 403.71,-113.8 403.71,-149.8"/>
<text text-anchor="middle" x="326" y="-127.6" font-family="Times,serif" font-size="14.00">AdminPoiDialogModule</text>
</g>
<!-- AdminPoiDialogComponent&#45;&gt;AdminPoiDialogModule -->
<g id="edge1" class="edge">
<title>AdminPoiDialogComponent&#45;&gt;AdminPoiDialogModule</title>
<path fill="none" stroke="black" d="M112,-84.91C112,-104.14 112,-131.8 112,-131.8 112,-131.8 238.14,-131.8 238.14,-131.8"/>
<polygon fill="black" stroke="black" points="238.14,-135.3 248.14,-131.8 238.14,-128.3 238.14,-135.3"/>
</g>
<!-- AdminEventPoiFormModule -->
<g id="node3" class="node">
<title>AdminEventPoiFormModule</title>
<polygon fill="#8dd3c7" stroke="black" points="626.1,-84.8 623.1,-88.8 602.1,-88.8 599.1,-84.8 445.9,-84.8 445.9,-48.8 626.1,-48.8 626.1,-84.8"/>
<text text-anchor="middle" x="536" y="-62.6" font-family="Times,serif" font-size="14.00">AdminEventPoiFormModule</text>
</g>
<!-- AdminEventPoiFormModule&#45;&gt;AdminPoiDialogModule -->
<g id="edge2" class="edge">
<title>AdminEventPoiFormModule&#45;&gt;AdminPoiDialogModule</title>
<path fill="none" stroke="black" d="M536,-84.91C536,-104.14 536,-131.8 536,-131.8 536,-131.8 413.9,-131.8 413.9,-131.8"/>
<polygon fill="black" stroke="black" points="413.9,-128.3 403.9,-131.8 413.9,-135.3 413.9,-128.3"/>
</g>
<!-- AdminParcoursPoiDialogModule -->
<g id="node4" class="node">
<title>AdminParcoursPoiDialogModule</title>
<polygon fill="#8dd3c7" stroke="black" points="428.19,-84.8 425.19,-88.8 404.19,-88.8 401.19,-84.8 223.81,-84.8 223.81,-48.8 428.19,-48.8 428.19,-84.8"/>
<text text-anchor="middle" x="326" y="-62.6" font-family="Times,serif" font-size="14.00">AdminParcoursPoiDialogModule</text>
</g>
<!-- AdminParcoursPoiDialogModule&#45;&gt;AdminPoiDialogModule -->
<g id="edge3" class="edge">
<title>AdminParcoursPoiDialogModule&#45;&gt;AdminPoiDialogModule</title>
<path fill="none" stroke="black" d="M326,-84.91C326,-84.91 326,-103.79 326,-103.79"/>
<polygon fill="black" stroke="black" points="322.5,-103.79 326,-113.79 329.5,-103.79 322.5,-103.79"/>
</g>
</g>
</svg>
