<?xml version="1.0" encoding="UTF-8" standalone="no"?>
<!DOCTYPE svg PUBLIC "-//W3C//DTD SVG 1.1//EN"
 "http://www.w3.org/Graphics/SVG/1.1/DTD/svg11.dtd">
<!-- Generated by graphviz version 2.47.3 (20210619.1520)
 -->
<!-- Title: dependencies Pages: 1 -->
<svg width="166pt" height="247pt"
 viewBox="0.00 0.00 166.00 246.80" xmlns="http://www.w3.org/2000/svg" xmlns:xlink="http://www.w3.org/1999/xlink">
<g id="graph0" class="graph" transform="scale(1 1) rotate(0) translate(4 242.8)">
<title>dependencies</title>
<polygon fill="white" stroke="transparent" points="-4,4 -4,-242.8 162,-242.8 162,4 -4,4"/>
<text text-anchor="middle" x="79" y="-8.2" font-family="sans-serif" font-size="14.00">dependencies</text>
<g id="clust1" class="cluster">
<title>cluster_CostModule</title>
<polygon fill="none" stroke="black" stroke-dasharray="1,5" points="8,-32.8 8,-230.8 150,-230.8 150,-32.8 8,-32.8"/>
</g>
<g id="clust2" class="cluster">
<title>cluster_CostModule_declarations</title>
<polygon fill="none" stroke="black" points="17,-40.8 17,-92.8 141,-92.8 141,-40.8 17,-40.8"/>
</g>
<g id="clust5" class="cluster">
<title>cluster_CostModule_exports</title>
<polygon fill="none" stroke="black" points="16,-170.8 16,-222.8 142,-222.8 142,-170.8 16,-170.8"/>
</g>
<!-- CostComponent -->
<g id="node1" class="node">
<title>CostComponent</title>
<polygon fill="#ffffb3" stroke="black" points="132.5,-84.8 25.5,-84.8 25.5,-48.8 132.5,-48.8 132.5,-84.8"/>
<text text-anchor="middle" x="79" y="-62.6" font-family="Times,serif" font-size="14.00">CostComponent</text>
</g>
<!-- CostModule -->
<g id="node2" class="node">
<title>CostModule</title>
<polygon fill="#8dd3c7" stroke="black" points="121.72,-149.8 118.72,-153.8 97.72,-153.8 94.72,-149.8 36.28,-149.8 36.28,-113.8 121.72,-113.8 121.72,-149.8"/>
<text text-anchor="middle" x="79" y="-127.6" font-family="Times,serif" font-size="14.00">CostModule</text>
</g>
<!-- CostComponent&#45;&gt;CostModule -->
<g id="edge1" class="edge">
<title>CostComponent&#45;&gt;CostModule</title>
<path fill="none" stroke="black" d="M79,-84.91C79,-84.91 79,-103.79 79,-103.79"/>
<polygon fill="black" stroke="black" points="75.5,-103.79 79,-113.79 82.5,-103.79 75.5,-103.79"/>
</g>
<!-- CostComponent  -->
<g id="node3" class="node">
<title>CostComponent </title>
<polygon fill="#fb8072" stroke="black" points="134.01,-214.8 23.99,-214.8 23.99,-178.8 134.01,-178.8 134.01,-214.8"/>
<text text-anchor="middle" x="79" y="-192.6" font-family="Times,serif" font-size="14.00">CostComponent </text>
</g>
<!-- CostModule&#45;&gt;CostComponent  -->
<g id="edge2" class="edge">
<title>CostModule&#45;&gt;CostComponent </title>
<path fill="none" stroke="black" stroke-dasharray="5,2" d="M79,-149.91C79,-149.91 79,-168.79 79,-168.79"/>
<polygon fill="black" stroke="black" points="75.5,-168.79 79,-178.79 82.5,-168.79 75.5,-168.79"/>
</g>
</g>
</svg>
