<?xml version="1.0" encoding="UTF-8" standalone="no"?>
<!DOCTYPE svg PUBLIC "-//W3C//DTD SVG 1.1//EN"
 "http://www.w3.org/Graphics/SVG/1.1/DTD/svg11.dtd">
<!-- Generated by graphviz version 2.47.3 (20210619.1520)
 -->
<!-- Title: dependencies Pages: 1 -->
<svg width="963pt" height="247pt"
 viewBox="0.00 0.00 963.00 246.80" xmlns="http://www.w3.org/2000/svg" xmlns:xlink="http://www.w3.org/1999/xlink">
<g id="graph0" class="graph" transform="scale(1 1) rotate(0) translate(4 242.8)">
<title>dependencies</title>
<polygon fill="white" stroke="transparent" points="-4,4 -4,-242.8 959,-242.8 959,4 -4,4"/>
<text text-anchor="middle" x="477.5" y="-8.2" font-family="sans-serif" font-size="14.00">dependencies</text>
<g id="clust1" class="cluster">
<title>cluster_JobModule</title>
<polygon fill="none" stroke="black" stroke-dasharray="1,5" points="8,-32.8 8,-230.8 947,-230.8 947,-32.8 8,-32.8"/>
</g>
<g id="clust2" class="cluster">
<title>cluster_JobModule_declarations</title>
<polygon fill="none" stroke="black" points="635,-40.8 635,-92.8 939,-92.8 939,-40.8 635,-40.8"/>
</g>
<g id="clust6" class="cluster">
<title>cluster_JobModule_exports</title>
<polygon fill="none" stroke="black" points="353,-170.8 353,-222.8 663,-222.8 663,-170.8 353,-170.8"/>
</g>
<g id="clust5" class="cluster">
<title>cluster_JobModule_imports</title>
<polygon fill="none" stroke="black" points="16,-40.8 16,-92.8 627,-92.8 627,-40.8 16,-40.8"/>
</g>
<!-- JobFullComponent -->
<g id="node1" class="node">
<title>JobFullComponent</title>
<polygon fill="#ffffb3" stroke="black" points="930.84,-84.8 807.16,-84.8 807.16,-48.8 930.84,-48.8 930.84,-84.8"/>
<text text-anchor="middle" x="869" y="-62.6" font-family="Times,serif" font-size="14.00">JobFullComponent</text>
</g>
<!-- JobModule -->
<g id="node3" class="node">
<title>JobModule</title>
<polygon fill="#8dd3c7" stroke="black" points="553.49,-149.8 550.49,-153.8 529.49,-153.8 526.49,-149.8 474.51,-149.8 474.51,-113.8 553.49,-113.8 553.49,-149.8"/>
<text text-anchor="middle" x="514" y="-127.6" font-family="Times,serif" font-size="14.00">JobModule</text>
</g>
<!-- JobFullComponent&#45;&gt;JobModule -->
<g id="edge1" class="edge">
<title>JobFullComponent&#45;&gt;JobModule</title>
<path fill="none" stroke="black" d="M869,-85.08C869,-106.12 869,-137.8 869,-137.8 869,-137.8 563.69,-137.8 563.69,-137.8"/>
<polygon fill="black" stroke="black" points="563.69,-134.3 553.69,-137.8 563.69,-141.3 563.69,-134.3"/>
</g>
<!-- JobPreviewComponent -->
<g id="node2" class="node">
<title>JobPreviewComponent</title>
<polygon fill="#ffffb3" stroke="black" points="789.15,-84.8 642.85,-84.8 642.85,-48.8 789.15,-48.8 789.15,-84.8"/>
<text text-anchor="middle" x="716" y="-62.6" font-family="Times,serif" font-size="14.00">JobPreviewComponent</text>
</g>
<!-- JobPreviewComponent&#45;&gt;JobModule -->
<g id="edge2" class="edge">
<title>JobPreviewComponent&#45;&gt;JobModule</title>
<path fill="none" stroke="black" d="M649.05,-84.82C649.05,-102.17 649.05,-125.8 649.05,-125.8 649.05,-125.8 563.79,-125.8 563.79,-125.8"/>
<polygon fill="black" stroke="black" points="563.79,-122.3 553.79,-125.8 563.79,-129.3 563.79,-122.3"/>
</g>
<!-- JobFullComponent  -->
<g id="node8" class="node">
<title>JobFullComponent </title>
<polygon fill="#fb8072" stroke="black" points="655.34,-214.8 528.66,-214.8 528.66,-178.8 655.34,-178.8 655.34,-214.8"/>
<text text-anchor="middle" x="592" y="-192.6" font-family="Times,serif" font-size="14.00">JobFullComponent </text>
</g>
<!-- JobModule&#45;&gt;JobFullComponent  -->
<g id="edge7" class="edge">
<title>JobModule&#45;&gt;JobFullComponent </title>
<path fill="none" stroke="black" stroke-dasharray="5,2" d="M541.04,-149.91C541.04,-149.91 541.04,-168.79 541.04,-168.79"/>
<polygon fill="black" stroke="black" points="537.54,-168.79 541.04,-178.79 544.54,-168.79 537.54,-168.79"/>
</g>
<!-- JobPreviewComponent  -->
<g id="node9" class="node">
<title>JobPreviewComponent </title>
<polygon fill="#fb8072" stroke="black" points="511.15,-214.8 360.85,-214.8 360.85,-178.8 511.15,-178.8 511.15,-214.8"/>
<text text-anchor="middle" x="436" y="-192.6" font-family="Times,serif" font-size="14.00">JobPreviewComponent </text>
</g>
<!-- JobModule&#45;&gt;JobPreviewComponent  -->
<g id="edge8" class="edge">
<title>JobModule&#45;&gt;JobPreviewComponent </title>
<path fill="none" stroke="black" stroke-dasharray="5,2" d="M492.79,-149.91C492.79,-149.91 492.79,-168.79 492.79,-168.79"/>
<polygon fill="black" stroke="black" points="489.29,-168.79 492.79,-178.79 496.29,-168.79 489.29,-168.79"/>
</g>
<!-- KpisModule -->
<g id="node4" class="node">
<title>KpisModule</title>
<polygon fill="#8dd3c7" stroke="black" points="618.99,-84.8 615.99,-88.8 594.99,-88.8 591.99,-84.8 533.01,-84.8 533.01,-48.8 618.99,-48.8 618.99,-84.8"/>
<text text-anchor="middle" x="576" y="-62.6" font-family="Times,serif" font-size="14.00">KpisModule</text>
</g>
<!-- KpisModule&#45;&gt;JobModule -->
<g id="edge3" class="edge">
<title>KpisModule&#45;&gt;JobModule</title>
<path fill="none" stroke="black" d="M543.25,-84.91C543.25,-84.91 543.25,-103.79 543.25,-103.79"/>
<polygon fill="black" stroke="black" points="539.75,-103.79 543.25,-113.79 546.75,-103.79 539.75,-103.79"/>
</g>
<!-- OnisepLinkModule -->
<g id="node5" class="node">
<title>OnisepLinkModule</title>
<polygon fill="#8dd3c7" stroke="black" points="514.65,-84.8 511.65,-88.8 490.65,-88.8 487.65,-84.8 389.35,-84.8 389.35,-48.8 514.65,-48.8 514.65,-84.8"/>
<text text-anchor="middle" x="452" y="-62.6" font-family="Times,serif" font-size="14.00">OnisepLinkModule</text>
</g>
<!-- OnisepLinkModule&#45;&gt;JobModule -->
<g id="edge4" class="edge">
<title>OnisepLinkModule&#45;&gt;JobModule</title>
<path fill="none" stroke="black" d="M494.66,-84.91C494.66,-84.91 494.66,-103.79 494.66,-103.79"/>
<polygon fill="black" stroke="black" points="491.16,-103.79 494.66,-113.79 498.16,-103.79 491.16,-103.79"/>
</g>
<!-- ProfessionalContactModule -->
<g id="node6" class="node">
<title>ProfessionalContactModule</title>
<polygon fill="#8dd3c7" stroke="black" points="371.3,-84.8 368.3,-88.8 347.3,-88.8 344.3,-84.8 198.7,-84.8 198.7,-48.8 371.3,-48.8 371.3,-84.8"/>
<text text-anchor="middle" x="285" y="-62.6" font-family="Times,serif" font-size="14.00">ProfessionalContactModule</text>
</g>
<!-- ProfessionalContactModule&#45;&gt;JobModule -->
<g id="edge5" class="edge">
<title>ProfessionalContactModule&#45;&gt;JobModule</title>
<path fill="none" stroke="black" d="M366.04,-84.82C366.04,-102.17 366.04,-125.8 366.04,-125.8 366.04,-125.8 464.35,-125.8 464.35,-125.8"/>
<polygon fill="black" stroke="black" points="464.35,-129.3 474.35,-125.8 464.35,-122.3 464.35,-129.3"/>
</g>
<!-- YoutubeWrapperModule -->
<g id="node7" class="node">
<title>YoutubeWrapperModule</title>
<polygon fill="#8dd3c7" stroke="black" points="180.23,-84.8 177.23,-88.8 156.23,-88.8 153.23,-84.8 23.77,-84.8 23.77,-48.8 180.23,-48.8 180.23,-84.8"/>
<text text-anchor="middle" x="102" y="-62.6" font-family="Times,serif" font-size="14.00">YoutubeWrapperModule</text>
</g>
<!-- YoutubeWrapperModule&#45;&gt;JobModule -->
<g id="edge6" class="edge">
<title>YoutubeWrapperModule&#45;&gt;JobModule</title>
<path fill="none" stroke="black" d="M102,-85.08C102,-106.12 102,-137.8 102,-137.8 102,-137.8 464.5,-137.8 464.5,-137.8"/>
<polygon fill="black" stroke="black" points="464.5,-141.3 474.5,-137.8 464.5,-134.3 464.5,-141.3"/>
</g>
</g>
</svg>
