<?xml version="1.0" encoding="UTF-8" standalone="no"?>
<!DOCTYPE svg PUBLIC "-//W3C//DTD SVG 1.1//EN"
 "http://www.w3.org/Graphics/SVG/1.1/DTD/svg11.dtd">
<!-- Generated by graphviz version 2.47.3 (20210619.1520)
 -->
<!-- Title: dependencies Pages: 1 -->
<svg width="765pt" height="247pt"
 viewBox="0.00 0.00 765.00 246.80" xmlns="http://www.w3.org/2000/svg" xmlns:xlink="http://www.w3.org/1999/xlink">
<g id="graph0" class="graph" transform="scale(1 1) rotate(0) translate(4 242.8)">
<title>dependencies</title>
<polygon fill="white" stroke="transparent" points="-4,4 -4,-242.8 761,-242.8 761,4 -4,4"/>
<text text-anchor="middle" x="378.5" y="-8.2" font-family="sans-serif" font-size="14.00">dependencies</text>
<g id="clust1" class="cluster">
<title>cluster_FooterModule</title>
<polygon fill="none" stroke="black" stroke-dasharray="1,5" points="8,-32.8 8,-230.8 749,-230.8 749,-32.8 8,-32.8"/>
</g>
<g id="clust4" class="cluster">
<title>cluster_FooterModule_imports</title>
<polygon fill="none" stroke="black" points="158,-40.8 158,-92.8 741,-92.8 741,-40.8 158,-40.8"/>
</g>
<g id="clust2" class="cluster">
<title>cluster_FooterModule_declarations</title>
<polygon fill="none" stroke="black" points="16,-40.8 16,-92.8 150,-92.8 150,-40.8 16,-40.8"/>
</g>
<g id="clust5" class="cluster">
<title>cluster_FooterModule_exports</title>
<polygon fill="none" stroke="black" points="335,-170.8 335,-222.8 473,-222.8 473,-170.8 335,-170.8"/>
</g>
<!-- FooterComponent -->
<g id="node1" class="node">
<title>FooterComponent</title>
<polygon fill="#ffffb3" stroke="black" points="141.88,-84.8 24.12,-84.8 24.12,-48.8 141.88,-48.8 141.88,-84.8"/>
<text text-anchor="middle" x="83" y="-62.6" font-family="Times,serif" font-size="14.00">FooterComponent</text>
</g>
<!-- FooterModule -->
<g id="node2" class="node">
<title>FooterModule</title>
<polygon fill="#8dd3c7" stroke="black" points="452.1,-149.8 449.1,-153.8 428.1,-153.8 425.1,-149.8 355.9,-149.8 355.9,-113.8 452.1,-113.8 452.1,-149.8"/>
<text text-anchor="middle" x="404" y="-127.6" font-family="Times,serif" font-size="14.00">FooterModule</text>
</g>
<!-- FooterComponent&#45;&gt;FooterModule -->
<g id="edge1" class="edge">
<title>FooterComponent&#45;&gt;FooterModule</title>
<path fill="none" stroke="black" d="M83,-85.08C83,-106.12 83,-137.8 83,-137.8 83,-137.8 345.94,-137.8 345.94,-137.8"/>
<polygon fill="black" stroke="black" points="345.94,-141.3 355.94,-137.8 345.94,-134.3 345.94,-141.3"/>
</g>
<!-- FooterComponent  -->
<g id="node7" class="node">
<title>FooterComponent </title>
<polygon fill="#fb8072" stroke="black" points="464.88,-214.8 343.12,-214.8 343.12,-178.8 464.88,-178.8 464.88,-214.8"/>
<text text-anchor="middle" x="404" y="-192.6" font-family="Times,serif" font-size="14.00">FooterComponent </text>
</g>
<!-- FooterModule&#45;&gt;FooterComponent  -->
<g id="edge6" class="edge">
<title>FooterModule&#45;&gt;FooterComponent </title>
<path fill="none" stroke="black" stroke-dasharray="5,2" d="M404,-149.91C404,-149.91 404,-168.79 404,-168.79"/>
<polygon fill="black" stroke="black" points="400.5,-168.79 404,-178.79 407.5,-168.79 400.5,-168.79"/>
</g>
<!-- HelpMenuModule -->
<g id="node3" class="node">
<title>HelpMenuModule</title>
<polygon fill="#8dd3c7" stroke="black" points="732.92,-84.8 729.92,-88.8 708.92,-88.8 705.92,-84.8 613.08,-84.8 613.08,-48.8 732.92,-48.8 732.92,-84.8"/>
<text text-anchor="middle" x="673" y="-62.6" font-family="Times,serif" font-size="14.00">HelpMenuModule</text>
</g>
<!-- HelpMenuModule&#45;&gt;FooterModule -->
<g id="edge2" class="edge">
<title>HelpMenuModule&#45;&gt;FooterModule</title>
<path fill="none" stroke="black" d="M673,-85.08C673,-106.12 673,-137.8 673,-137.8 673,-137.8 462.09,-137.8 462.09,-137.8"/>
<polygon fill="black" stroke="black" points="462.09,-134.3 452.09,-137.8 462.09,-141.3 462.09,-134.3"/>
</g>
<!-- LangChoiceModule -->
<g id="node4" class="node">
<title>LangChoiceModule</title>
<polygon fill="#8dd3c7" stroke="black" points="594.97,-84.8 591.97,-88.8 570.97,-88.8 567.97,-84.8 467.03,-84.8 467.03,-48.8 594.97,-48.8 594.97,-84.8"/>
<text text-anchor="middle" x="531" y="-62.6" font-family="Times,serif" font-size="14.00">LangChoiceModule</text>
</g>
<!-- LangChoiceModule&#45;&gt;FooterModule -->
<g id="edge3" class="edge">
<title>LangChoiceModule&#45;&gt;FooterModule</title>
<path fill="none" stroke="black" d="M531,-84.82C531,-102.17 531,-125.8 531,-125.8 531,-125.8 462.38,-125.8 462.38,-125.8"/>
<polygon fill="black" stroke="black" points="462.38,-122.3 452.38,-125.8 462.38,-129.3 462.38,-122.3"/>
</g>
<!-- LogoModule -->
<g id="node5" class="node">
<title>LogoModule</title>
<polygon fill="#8dd3c7" stroke="black" points="448.6,-84.8 445.6,-88.8 424.6,-88.8 421.6,-84.8 359.4,-84.8 359.4,-48.8 448.6,-48.8 448.6,-84.8"/>
<text text-anchor="middle" x="404" y="-62.6" font-family="Times,serif" font-size="14.00">LogoModule</text>
</g>
<!-- LogoModule&#45;&gt;FooterModule -->
<g id="edge4" class="edge">
<title>LogoModule&#45;&gt;FooterModule</title>
<path fill="none" stroke="black" d="M404,-84.91C404,-84.91 404,-103.79 404,-103.79"/>
<polygon fill="black" stroke="black" points="400.5,-103.79 404,-113.79 407.5,-103.79 400.5,-103.79"/>
</g>
<!-- MillionroadsProductModule -->
<g id="node6" class="node">
<title>MillionroadsProductModule</title>
<polygon fill="#8dd3c7" stroke="black" points="341.93,-84.8 338.93,-88.8 317.93,-88.8 314.93,-84.8 166.07,-84.8 166.07,-48.8 341.93,-48.8 341.93,-84.8"/>
<text text-anchor="middle" x="254" y="-62.6" font-family="Times,serif" font-size="14.00">MillionroadsProductModule</text>
</g>
<!-- MillionroadsProductModule&#45;&gt;FooterModule -->
<g id="edge5" class="edge">
<title>MillionroadsProductModule&#45;&gt;FooterModule</title>
<path fill="none" stroke="black" d="M254,-84.82C254,-102.17 254,-125.8 254,-125.8 254,-125.8 345.71,-125.8 345.71,-125.8"/>
<polygon fill="black" stroke="black" points="345.71,-129.3 355.71,-125.8 345.71,-122.3 345.71,-129.3"/>
</g>
</g>
</svg>
