<?xml version="1.0" encoding="UTF-8" standalone="no"?>
<!DOCTYPE svg PUBLIC "-//W3C//DTD SVG 1.1//EN"
 "http://www.w3.org/Graphics/SVG/1.1/DTD/svg11.dtd">
<!-- Generated by graphviz version 2.47.3 (20210619.1520)
 -->
<!-- Title: dependencies Pages: 1 -->
<svg width="634pt" height="247pt"
 viewBox="0.00 0.00 634.00 246.80" xmlns="http://www.w3.org/2000/svg" xmlns:xlink="http://www.w3.org/1999/xlink">
<g id="graph0" class="graph" transform="scale(1 1) rotate(0) translate(4 242.8)">
<title>dependencies</title>
<polygon fill="white" stroke="transparent" points="-4,4 -4,-242.8 630,-242.8 630,4 -4,4"/>
<text text-anchor="middle" x="313" y="-8.2" font-family="sans-serif" font-size="14.00">dependencies</text>
<g id="clust1" class="cluster">
<title>cluster_OfferSummaryModule</title>
<polygon fill="none" stroke="black" stroke-dasharray="1,5" points="8,-32.8 8,-230.8 618,-230.8 618,-32.8 8,-32.8"/>
</g>
<g id="clust2" class="cluster">
<title>cluster_OfferSummaryModule_declarations</title>
<polygon fill="none" stroke="black" points="428,-40.8 428,-92.8 610,-92.8 610,-40.8 428,-40.8"/>
</g>
<g id="clust5" class="cluster">
<title>cluster_OfferSummaryModule_exports</title>
<polygon fill="none" stroke="black" points="208,-170.8 208,-222.8 394,-222.8 394,-170.8 208,-170.8"/>
</g>
<g id="clust4" class="cluster">
<title>cluster_OfferSummaryModule_imports</title>
<polygon fill="none" stroke="black" points="16,-40.8 16,-92.8 420,-92.8 420,-40.8 16,-40.8"/>
</g>
<!-- OfferSummaryComponent -->
<g id="node1" class="node">
<title>OfferSummaryComponent</title>
<polygon fill="#ffffb3" stroke="black" points="602.07,-84.8 435.93,-84.8 435.93,-48.8 602.07,-48.8 602.07,-84.8"/>
<text text-anchor="middle" x="519" y="-62.6" font-family="Times,serif" font-size="14.00">OfferSummaryComponent</text>
</g>
<!-- OfferSummaryModule -->
<g id="node2" class="node">
<title>OfferSummaryModule</title>
<polygon fill="#8dd3c7" stroke="black" points="373.29,-149.8 370.29,-153.8 349.29,-153.8 346.29,-149.8 228.71,-149.8 228.71,-113.8 373.29,-113.8 373.29,-149.8"/>
<text text-anchor="middle" x="301" y="-127.6" font-family="Times,serif" font-size="14.00">OfferSummaryModule</text>
</g>
<!-- OfferSummaryComponent&#45;&gt;OfferSummaryModule -->
<g id="edge1" class="edge">
<title>OfferSummaryComponent&#45;&gt;OfferSummaryModule</title>
<path fill="none" stroke="black" d="M519,-84.91C519,-104.14 519,-131.8 519,-131.8 519,-131.8 383.29,-131.8 383.29,-131.8"/>
<polygon fill="black" stroke="black" points="383.29,-128.3 373.29,-131.8 383.29,-135.3 383.29,-128.3"/>
</g>
<!-- OfferSummaryComponent  -->
<g id="node6" class="node">
<title>OfferSummaryComponent </title>
<polygon fill="#fb8072" stroke="black" points="385.57,-214.8 216.43,-214.8 216.43,-178.8 385.57,-178.8 385.57,-214.8"/>
<text text-anchor="middle" x="301" y="-192.6" font-family="Times,serif" font-size="14.00">OfferSummaryComponent </text>
</g>
<!-- OfferSummaryModule&#45;&gt;OfferSummaryComponent  -->
<g id="edge5" class="edge">
<title>OfferSummaryModule&#45;&gt;OfferSummaryComponent </title>
<path fill="none" stroke="black" stroke-dasharray="5,2" d="M301,-149.91C301,-149.91 301,-168.79 301,-168.79"/>
<polygon fill="black" stroke="black" points="297.5,-168.79 301,-178.79 304.5,-168.79 297.5,-168.79"/>
</g>
<!-- CostModule -->
<g id="node3" class="node">
<title>CostModule</title>
<polygon fill="#8dd3c7" stroke="black" points="411.72,-84.8 408.72,-88.8 387.72,-88.8 384.72,-84.8 326.28,-84.8 326.28,-48.8 411.72,-48.8 411.72,-84.8"/>
<text text-anchor="middle" x="369" y="-62.6" font-family="Times,serif" font-size="14.00">CostModule</text>
</g>
<!-- CostModule&#45;&gt;OfferSummaryModule -->
<g id="edge2" class="edge">
<title>CostModule&#45;&gt;OfferSummaryModule</title>
<path fill="none" stroke="black" d="M349.77,-84.91C349.77,-84.91 349.77,-103.79 349.77,-103.79"/>
<polygon fill="black" stroke="black" points="346.27,-103.79 349.77,-113.79 353.27,-103.79 346.27,-103.79"/>
</g>
<!-- ParcoursupLinkModule -->
<g id="node4" class="node">
<title>ParcoursupLinkModule</title>
<polygon fill="#8dd3c7" stroke="black" points="308.47,-84.8 305.47,-88.8 284.47,-88.8 281.47,-84.8 159.53,-84.8 159.53,-48.8 308.47,-48.8 308.47,-84.8"/>
<text text-anchor="middle" x="234" y="-62.6" font-family="Times,serif" font-size="14.00">ParcoursupLinkModule</text>
</g>
<!-- ParcoursupLinkModule&#45;&gt;OfferSummaryModule -->
<g id="edge3" class="edge">
<title>ParcoursupLinkModule&#45;&gt;OfferSummaryModule</title>
<path fill="none" stroke="black" d="M268.67,-84.91C268.67,-84.91 268.67,-103.79 268.67,-103.79"/>
<polygon fill="black" stroke="black" points="265.17,-103.79 268.67,-113.79 272.17,-103.79 265.17,-103.79"/>
</g>
<!-- PopularityModule -->
<g id="node5" class="node">
<title>PopularityModule</title>
<polygon fill="#8dd3c7" stroke="black" points="141.88,-84.8 138.88,-88.8 117.88,-88.8 114.88,-84.8 24.12,-84.8 24.12,-48.8 141.88,-48.8 141.88,-84.8"/>
<text text-anchor="middle" x="83" y="-62.6" font-family="Times,serif" font-size="14.00">PopularityModule</text>
</g>
<!-- PopularityModule&#45;&gt;OfferSummaryModule -->
<g id="edge4" class="edge">
<title>PopularityModule&#45;&gt;OfferSummaryModule</title>
<path fill="none" stroke="black" d="M83,-84.91C83,-104.14 83,-131.8 83,-131.8 83,-131.8 218.71,-131.8 218.71,-131.8"/>
<polygon fill="black" stroke="black" points="218.71,-135.3 228.71,-131.8 218.71,-128.3 218.71,-135.3"/>
</g>
</g>
</svg>
