<?xml version="1.0" encoding="UTF-8" standalone="no"?>
<!DOCTYPE svg PUBLIC "-//W3C//DTD SVG 1.1//EN"
 "http://www.w3.org/Graphics/SVG/1.1/DTD/svg11.dtd">
<!-- Generated by graphviz version 2.47.3 (20210619.1520)
 -->
<!-- Title: dependencies Pages: 1 -->
<svg width="956pt" height="174pt"
 viewBox="0.00 0.00 956.00 173.80" xmlns="http://www.w3.org/2000/svg" xmlns:xlink="http://www.w3.org/1999/xlink">
<g id="graph0" class="graph" transform="scale(1 1) rotate(0) translate(4 169.8)">
<title>dependencies</title>
<polygon fill="white" stroke="transparent" points="-4,4 -4,-169.8 952,-169.8 952,4 -4,4"/>
<text text-anchor="middle" x="474" y="-8.2" font-family="sans-serif" font-size="14.00">dependencies</text>
<g id="clust1" class="cluster">
<title>cluster_ContactDialogModule</title>
<polygon fill="none" stroke="black" stroke-dasharray="1,5" points="8,-32.8 8,-157.8 940,-157.8 940,-32.8 8,-32.8"/>
</g>
<g id="clust7" class="cluster">
<title>cluster_ContactDialogModule_providers</title>
<polygon fill="none" stroke="black" points="686,-40.8 686,-92.8 932,-92.8 932,-40.8 686,-40.8"/>
</g>
<g id="clust4" class="cluster">
<title>cluster_ContactDialogModule_imports</title>
<polygon fill="none" stroke="black" points="202,-40.8 202,-92.8 678,-92.8 678,-40.8 202,-40.8"/>
</g>
<g id="clust2" class="cluster">
<title>cluster_ContactDialogModule_declarations</title>
<polygon fill="none" stroke="black" points="16,-40.8 16,-92.8 194,-92.8 194,-40.8 16,-40.8"/>
</g>
<!-- ContactDialogComponent -->
<g id="node1" class="node">
<title>ContactDialogComponent</title>
<polygon fill="#ffffb3" stroke="black" points="186.48,-84.8 23.52,-84.8 23.52,-48.8 186.48,-48.8 186.48,-84.8"/>
<text text-anchor="middle" x="105" y="-62.6" font-family="Times,serif" font-size="14.00">ContactDialogComponent</text>
</g>
<!-- ContactDialogModule -->
<g id="node2" class="node">
<title>ContactDialogModule</title>
<polygon fill="#8dd3c7" stroke="black" points="599.7,-149.8 596.7,-153.8 575.7,-153.8 572.7,-149.8 458.3,-149.8 458.3,-113.8 599.7,-113.8 599.7,-149.8"/>
<text text-anchor="middle" x="529" y="-127.6" font-family="Times,serif" font-size="14.00">ContactDialogModule</text>
</g>
<!-- ContactDialogComponent&#45;&gt;ContactDialogModule -->
<g id="edge1" class="edge">
<title>ContactDialogComponent&#45;&gt;ContactDialogModule</title>
<path fill="none" stroke="black" d="M105,-85.08C105,-106.12 105,-137.8 105,-137.8 105,-137.8 448.03,-137.8 448.03,-137.8"/>
<polygon fill="black" stroke="black" points="448.03,-141.3 458.03,-137.8 448.03,-134.3 448.03,-141.3"/>
</g>
<!-- AcceptPolicyModule -->
<g id="node3" class="node">
<title>AcceptPolicyModule</title>
<polygon fill="#8dd3c7" stroke="black" points="670.47,-84.8 667.47,-88.8 646.47,-88.8 643.47,-84.8 535.53,-84.8 535.53,-48.8 670.47,-48.8 670.47,-84.8"/>
<text text-anchor="middle" x="603" y="-62.6" font-family="Times,serif" font-size="14.00">AcceptPolicyModule</text>
</g>
<!-- AcceptPolicyModule&#45;&gt;ContactDialogModule -->
<g id="edge2" class="edge">
<title>AcceptPolicyModule&#45;&gt;ContactDialogModule</title>
<path fill="none" stroke="black" d="M567.56,-84.91C567.56,-84.91 567.56,-103.79 567.56,-103.79"/>
<polygon fill="black" stroke="black" points="564.06,-103.79 567.56,-113.79 571.06,-103.79 564.06,-103.79"/>
</g>
<!-- InviteLoginModule -->
<g id="node4" class="node">
<title>InviteLoginModule</title>
<polygon fill="#8dd3c7" stroke="black" points="517.65,-84.8 514.65,-88.8 493.65,-88.8 490.65,-84.8 392.35,-84.8 392.35,-48.8 517.65,-48.8 517.65,-84.8"/>
<text text-anchor="middle" x="455" y="-62.6" font-family="Times,serif" font-size="14.00">InviteLoginModule</text>
</g>
<!-- InviteLoginModule&#45;&gt;ContactDialogModule -->
<g id="edge3" class="edge">
<title>InviteLoginModule&#45;&gt;ContactDialogModule</title>
<path fill="none" stroke="black" d="M488.11,-84.91C488.11,-84.91 488.11,-103.79 488.11,-103.79"/>
<polygon fill="black" stroke="black" points="484.61,-103.79 488.11,-113.79 491.61,-103.79 484.61,-103.79"/>
</g>
<!-- LocationSummaryModule -->
<g id="node5" class="node">
<title>LocationSummaryModule</title>
<polygon fill="#8dd3c7" stroke="black" points="373.75,-84.8 370.75,-88.8 349.75,-88.8 346.75,-84.8 210.25,-84.8 210.25,-48.8 373.75,-48.8 373.75,-84.8"/>
<text text-anchor="middle" x="292" y="-62.6" font-family="Times,serif" font-size="14.00">LocationSummaryModule</text>
</g>
<!-- LocationSummaryModule&#45;&gt;ContactDialogModule -->
<g id="edge4" class="edge">
<title>LocationSummaryModule&#45;&gt;ContactDialogModule</title>
<path fill="none" stroke="black" d="M292,-84.82C292,-102.17 292,-125.8 292,-125.8 292,-125.8 448.21,-125.8 448.21,-125.8"/>
<polygon fill="black" stroke="black" points="448.21,-129.3 458.21,-125.8 448.21,-122.3 448.21,-129.3"/>
</g>
<!-- UaaClient -->
<g id="node6" class="node">
<title>UaaClient</title>
<ellipse fill="#fdb462" stroke="black" cx="874" cy="-66.8" rx="50.38" ry="18"/>
<text text-anchor="middle" x="874" y="-62.6" font-family="Times,serif" font-size="14.00">UaaClient</text>
</g>
<!-- UaaClient&#45;&gt;ContactDialogModule -->
<g id="edge5" class="edge">
<title>UaaClient&#45;&gt;ContactDialogModule</title>
<path fill="none" stroke="black" d="M874,-85.08C874,-106.12 874,-137.8 874,-137.8 874,-137.8 609.65,-137.8 609.65,-137.8"/>
<polygon fill="black" stroke="black" points="609.65,-134.3 599.65,-137.8 609.65,-141.3 609.65,-134.3"/>
</g>
<!-- UaaService -->
<g id="node7" class="node">
<title>UaaService</title>
<ellipse fill="#fdb462" stroke="black" cx="750" cy="-66.8" rx="55.57" ry="18"/>
<text text-anchor="middle" x="750" y="-62.6" font-family="Times,serif" font-size="14.00">UaaService</text>
</g>
<!-- UaaService&#45;&gt;ContactDialogModule -->
<g id="edge6" class="edge">
<title>UaaService&#45;&gt;ContactDialogModule</title>
<path fill="none" stroke="black" d="M750,-84.82C750,-102.17 750,-125.8 750,-125.8 750,-125.8 609.84,-125.8 609.84,-125.8"/>
<polygon fill="black" stroke="black" points="609.84,-122.3 599.84,-125.8 609.84,-129.3 609.84,-122.3"/>
</g>
</g>
</svg>
