<?xml version="1.0" encoding="UTF-8" standalone="no"?>
<!DOCTYPE svg PUBLIC "-//W3C//DTD SVG 1.1//EN"
 "http://www.w3.org/Graphics/SVG/1.1/DTD/svg11.dtd">
<!-- Generated by graphviz version 2.47.3 (20210619.1520)
 -->
<!-- Title: dependencies Pages: 1 -->
<svg width="558pt" height="174pt"
 viewBox="0.00 0.00 558.00 173.80" xmlns="http://www.w3.org/2000/svg" xmlns:xlink="http://www.w3.org/1999/xlink">
<g id="graph0" class="graph" transform="scale(1 1) rotate(0) translate(4 169.8)">
<title>dependencies</title>
<polygon fill="white" stroke="transparent" points="-4,4 -4,-169.8 554,-169.8 554,4 -4,4"/>
<text text-anchor="middle" x="275" y="-8.2" font-family="sans-serif" font-size="14.00">dependencies</text>
<g id="clust1" class="cluster">
<title>cluster_SchoolPageModule</title>
<polygon fill="none" stroke="black" stroke-dasharray="1,5" points="8,-32.8 8,-157.8 542,-157.8 542,-32.8 8,-32.8"/>
</g>
<g id="clust4" class="cluster">
<title>cluster_SchoolPageModule_imports</title>
<polygon fill="none" stroke="black" points="188,-40.8 188,-92.8 534,-92.8 534,-40.8 188,-40.8"/>
</g>
<g id="clust2" class="cluster">
<title>cluster_SchoolPageModule_declarations</title>
<polygon fill="none" stroke="black" points="16,-40.8 16,-92.8 180,-92.8 180,-40.8 16,-40.8"/>
</g>
<!-- SchoolPageComponent -->
<g id="node1" class="node">
<title>SchoolPageComponent</title>
<polygon fill="#ffffb3" stroke="black" points="171.93,-84.8 24.07,-84.8 24.07,-48.8 171.93,-48.8 171.93,-84.8"/>
<text text-anchor="middle" x="98" y="-62.6" font-family="Times,serif" font-size="14.00">SchoolPageComponent</text>
</g>
<!-- SchoolPageModule -->
<g id="node2" class="node">
<title>SchoolPageModule</title>
<polygon fill="#8dd3c7" stroke="black" points="327.65,-149.8 324.65,-153.8 303.65,-153.8 300.65,-149.8 202.35,-149.8 202.35,-113.8 327.65,-113.8 327.65,-149.8"/>
<text text-anchor="middle" x="265" y="-127.6" font-family="Times,serif" font-size="14.00">SchoolPageModule</text>
</g>
<!-- SchoolPageComponent&#45;&gt;SchoolPageModule -->
<g id="edge1" class="edge">
<title>SchoolPageComponent&#45;&gt;SchoolPageModule</title>
<path fill="none" stroke="black" d="M98,-84.91C98,-104.14 98,-131.8 98,-131.8 98,-131.8 192.34,-131.8 192.34,-131.8"/>
<polygon fill="black" stroke="black" points="192.34,-135.3 202.34,-131.8 192.34,-128.3 192.34,-135.3"/>
</g>
<!-- NavigationTemplateModule -->
<g id="node3" class="node">
<title>NavigationTemplateModule</title>
<polygon fill="#8dd3c7" stroke="black" points="526.13,-84.8 523.13,-88.8 502.13,-88.8 499.13,-84.8 351.87,-84.8 351.87,-48.8 526.13,-48.8 526.13,-84.8"/>
<text text-anchor="middle" x="439" y="-62.6" font-family="Times,serif" font-size="14.00">NavigationTemplateModule</text>
</g>
<!-- NavigationTemplateModule&#45;&gt;SchoolPageModule -->
<g id="edge2" class="edge">
<title>NavigationTemplateModule&#45;&gt;SchoolPageModule</title>
<path fill="none" stroke="black" d="M439,-84.91C439,-104.14 439,-131.8 439,-131.8 439,-131.8 337.82,-131.8 337.82,-131.8"/>
<polygon fill="black" stroke="black" points="337.82,-128.3 327.82,-131.8 337.82,-135.3 337.82,-128.3"/>
</g>
<!-- SchoolDetailsModule -->
<g id="node4" class="node">
<title>SchoolDetailsModule</title>
<polygon fill="#8dd3c7" stroke="black" points="334.09,-84.8 331.09,-88.8 310.09,-88.8 307.09,-84.8 195.91,-84.8 195.91,-48.8 334.09,-48.8 334.09,-84.8"/>
<text text-anchor="middle" x="265" y="-62.6" font-family="Times,serif" font-size="14.00">SchoolDetailsModule</text>
</g>
<!-- SchoolDetailsModule&#45;&gt;SchoolPageModule -->
<g id="edge3" class="edge">
<title>SchoolDetailsModule&#45;&gt;SchoolPageModule</title>
<path fill="none" stroke="black" d="M265,-84.91C265,-84.91 265,-103.79 265,-103.79"/>
<polygon fill="black" stroke="black" points="261.5,-103.79 265,-113.79 268.5,-103.79 261.5,-103.79"/>
</g>
</g>
</svg>
