<?xml version="1.0" encoding="UTF-8" standalone="no"?>
<!DOCTYPE svg PUBLIC "-//W3C//DTD SVG 1.1//EN"
 "http://www.w3.org/Graphics/SVG/1.1/DTD/svg11.dtd">
<!-- Generated by graphviz version 2.47.3 (20210619.1520)
 -->
<!-- Title: dependencies Pages: 1 -->
<svg width="706pt" height="174pt"
 viewBox="0.00 0.00 706.00 173.80" xmlns="http://www.w3.org/2000/svg" xmlns:xlink="http://www.w3.org/1999/xlink">
<g id="graph0" class="graph" transform="scale(1 1) rotate(0) translate(4 169.8)">
<title>dependencies</title>
<polygon fill="white" stroke="transparent" points="-4,4 -4,-169.8 702,-169.8 702,4 -4,4"/>
<text text-anchor="middle" x="349" y="-8.2" font-family="sans-serif" font-size="14.00">dependencies</text>
<g id="clust1" class="cluster">
<title>cluster_MoreDomainDialogModule</title>
<polygon fill="none" stroke="black" stroke-dasharray="1,5" points="8,-32.8 8,-157.8 690,-157.8 690,-32.8 8,-32.8"/>
</g>
<g id="clust4" class="cluster">
<title>cluster_MoreDomainDialogModule_imports</title>
<polygon fill="none" stroke="black" points="402,-40.8 402,-92.8 682,-92.8 682,-40.8 402,-40.8"/>
</g>
<g id="clust2" class="cluster">
<title>cluster_MoreDomainDialogModule_declarations</title>
<polygon fill="none" stroke="black" points="184,-40.8 184,-92.8 394,-92.8 394,-40.8 184,-40.8"/>
</g>
<g id="clust7" class="cluster">
<title>cluster_MoreDomainDialogModule_providers</title>
<polygon fill="none" stroke="black" points="16,-40.8 16,-92.8 176,-92.8 176,-40.8 16,-40.8"/>
</g>
<!-- MoreDomainDialogComponent -->
<g id="node1" class="node">
<title>MoreDomainDialogComponent</title>
<polygon fill="#ffffb3" stroke="black" points="386.36,-84.8 191.64,-84.8 191.64,-48.8 386.36,-48.8 386.36,-84.8"/>
<text text-anchor="middle" x="289" y="-62.6" font-family="Times,serif" font-size="14.00">MoreDomainDialogComponent</text>
</g>
<!-- MoreDomainDialogModule -->
<g id="node2" class="node">
<title>MoreDomainDialogModule</title>
<polygon fill="#8dd3c7" stroke="black" points="467.57,-149.8 464.57,-153.8 443.57,-153.8 440.57,-149.8 294.43,-149.8 294.43,-113.8 467.57,-113.8 467.57,-149.8"/>
<text text-anchor="middle" x="381" y="-127.6" font-family="Times,serif" font-size="14.00">MoreDomainDialogModule</text>
</g>
<!-- MoreDomainDialogComponent&#45;&gt;MoreDomainDialogModule -->
<g id="edge1" class="edge">
<title>MoreDomainDialogComponent&#45;&gt;MoreDomainDialogModule</title>
<path fill="none" stroke="black" d="M340.45,-84.91C340.45,-84.91 340.45,-103.79 340.45,-103.79"/>
<polygon fill="black" stroke="black" points="336.95,-103.79 340.45,-113.79 343.95,-103.79 336.95,-103.79"/>
</g>
<!-- PopularityModule -->
<g id="node3" class="node">
<title>PopularityModule</title>
<polygon fill="#8dd3c7" stroke="black" points="673.88,-84.8 670.88,-88.8 649.88,-88.8 646.88,-84.8 556.12,-84.8 556.12,-48.8 673.88,-48.8 673.88,-84.8"/>
<text text-anchor="middle" x="615" y="-62.6" font-family="Times,serif" font-size="14.00">PopularityModule</text>
</g>
<!-- PopularityModule&#45;&gt;MoreDomainDialogModule -->
<g id="edge2" class="edge">
<title>PopularityModule&#45;&gt;MoreDomainDialogModule</title>
<path fill="none" stroke="black" d="M615,-84.91C615,-104.14 615,-131.8 615,-131.8 615,-131.8 477.8,-131.8 477.8,-131.8"/>
<polygon fill="black" stroke="black" points="477.8,-128.3 467.8,-131.8 477.8,-135.3 477.8,-128.3"/>
</g>
<!-- SearchFormModule -->
<g id="node4" class="node">
<title>SearchFormModule</title>
<polygon fill="#8dd3c7" stroke="black" points="537.97,-84.8 534.97,-88.8 513.97,-88.8 510.97,-84.8 410.03,-84.8 410.03,-48.8 537.97,-48.8 537.97,-84.8"/>
<text text-anchor="middle" x="474" y="-62.6" font-family="Times,serif" font-size="14.00">SearchFormModule</text>
</g>
<!-- SearchFormModule&#45;&gt;MoreDomainDialogModule -->
<g id="edge3" class="edge">
<title>SearchFormModule&#45;&gt;MoreDomainDialogModule</title>
<path fill="none" stroke="black" d="M438.78,-84.91C438.78,-84.91 438.78,-103.79 438.78,-103.79"/>
<polygon fill="black" stroke="black" points="435.28,-103.79 438.78,-113.79 442.28,-103.79 435.28,-103.79"/>
</g>
<!-- InstanceService -->
<g id="node5" class="node">
<title>InstanceService</title>
<ellipse fill="#fdb462" stroke="black" cx="96" cy="-66.8" rx="72.33" ry="18"/>
<text text-anchor="middle" x="96" y="-62.6" font-family="Times,serif" font-size="14.00">InstanceService</text>
</g>
<!-- InstanceService&#45;&gt;MoreDomainDialogModule -->
<g id="edge4" class="edge">
<title>InstanceService&#45;&gt;MoreDomainDialogModule</title>
<path fill="none" stroke="black" d="M96,-84.91C96,-104.14 96,-131.8 96,-131.8 96,-131.8 284.33,-131.8 284.33,-131.8"/>
<polygon fill="black" stroke="black" points="284.33,-135.3 294.33,-131.8 284.33,-128.3 284.33,-135.3"/>
</g>
</g>
</svg>
