<?xml version="1.0" encoding="UTF-8" standalone="no"?>
<!DOCTYPE svg PUBLIC "-//W3C//DTD SVG 1.1//EN"
 "http://www.w3.org/Graphics/SVG/1.1/DTD/svg11.dtd">
<!-- Generated by graphviz version 2.47.3 (20210619.1520)
 -->
<!-- Title: dependencies Pages: 1 -->
<svg width="735pt" height="247pt"
 viewBox="0.00 0.00 735.00 246.80" xmlns="http://www.w3.org/2000/svg" xmlns:xlink="http://www.w3.org/1999/xlink">
<g id="graph0" class="graph" transform="scale(1 1) rotate(0) translate(4 242.8)">
<title>dependencies</title>
<polygon fill="white" stroke="transparent" points="-4,4 -4,-242.8 731,-242.8 731,4 -4,4"/>
<text text-anchor="middle" x="363.5" y="-8.2" font-family="sans-serif" font-size="14.00">dependencies</text>
<g id="clust1" class="cluster">
<title>cluster_WaypointSummaryModule</title>
<polygon fill="none" stroke="black" stroke-dasharray="1,5" points="8,-32.8 8,-230.8 719,-230.8 719,-32.8 8,-32.8"/>
</g>
<g id="clust2" class="cluster">
<title>cluster_WaypointSummaryModule_declarations</title>
<polygon fill="none" stroke="black" points="505,-40.8 505,-92.8 711,-92.8 711,-40.8 505,-40.8"/>
</g>
<g id="clust4" class="cluster">
<title>cluster_WaypointSummaryModule_imports</title>
<polygon fill="none" stroke="black" points="16,-40.8 16,-92.8 497,-92.8 497,-40.8 16,-40.8"/>
</g>
<g id="clust5" class="cluster">
<title>cluster_WaypointSummaryModule_exports</title>
<polygon fill="none" stroke="black" points="226,-170.8 226,-222.8 436,-222.8 436,-170.8 226,-170.8"/>
</g>
<!-- WaypointSummaryComponent -->
<g id="node1" class="node">
<title>WaypointSummaryComponent</title>
<polygon fill="#ffffb3" stroke="black" points="703.48,-84.8 512.52,-84.8 512.52,-48.8 703.48,-48.8 703.48,-84.8"/>
<text text-anchor="middle" x="608" y="-62.6" font-family="Times,serif" font-size="14.00">WaypointSummaryComponent</text>
</g>
<!-- WaypointSummaryModule -->
<g id="node2" class="node">
<title>WaypointSummaryModule</title>
<polygon fill="#8dd3c7" stroke="black" points="415.7,-149.8 412.7,-153.8 391.7,-153.8 388.7,-149.8 246.3,-149.8 246.3,-113.8 415.7,-113.8 415.7,-149.8"/>
<text text-anchor="middle" x="331" y="-127.6" font-family="Times,serif" font-size="14.00">WaypointSummaryModule</text>
</g>
<!-- WaypointSummaryComponent&#45;&gt;WaypointSummaryModule -->
<g id="edge1" class="edge">
<title>WaypointSummaryComponent&#45;&gt;WaypointSummaryModule</title>
<path fill="none" stroke="black" d="M608,-84.91C608,-104.14 608,-131.8 608,-131.8 608,-131.8 425.61,-131.8 425.61,-131.8"/>
<polygon fill="black" stroke="black" points="425.61,-128.3 415.61,-131.8 425.61,-135.3 425.61,-128.3"/>
</g>
<!-- WaypointSummaryComponent  -->
<g id="node7" class="node">
<title>WaypointSummaryComponent </title>
<polygon fill="#fb8072" stroke="black" points="428.48,-214.8 233.52,-214.8 233.52,-178.8 428.48,-178.8 428.48,-214.8"/>
<text text-anchor="middle" x="331" y="-192.6" font-family="Times,serif" font-size="14.00">WaypointSummaryComponent </text>
</g>
<!-- WaypointSummaryModule&#45;&gt;WaypointSummaryComponent  -->
<g id="edge6" class="edge">
<title>WaypointSummaryModule&#45;&gt;WaypointSummaryComponent </title>
<path fill="none" stroke="black" stroke-dasharray="5,2" d="M331,-149.91C331,-149.91 331,-168.79 331,-168.79"/>
<polygon fill="black" stroke="black" points="327.5,-168.79 331,-178.79 334.5,-168.79 327.5,-168.79"/>
</g>
<!-- CostModule -->
<g id="node3" class="node">
<title>CostModule</title>
<polygon fill="#8dd3c7" stroke="black" points="488.72,-84.8 485.72,-88.8 464.72,-88.8 461.72,-84.8 403.28,-84.8 403.28,-48.8 488.72,-48.8 488.72,-84.8"/>
<text text-anchor="middle" x="446" y="-62.6" font-family="Times,serif" font-size="14.00">CostModule</text>
</g>
<!-- CostModule&#45;&gt;WaypointSummaryModule -->
<g id="edge2" class="edge">
<title>CostModule&#45;&gt;WaypointSummaryModule</title>
<path fill="none" stroke="black" d="M409.49,-84.91C409.49,-84.91 409.49,-103.79 409.49,-103.79"/>
<polygon fill="black" stroke="black" points="405.99,-103.79 409.49,-113.79 412.99,-103.79 405.99,-103.79"/>
</g>
<!-- DurationModule -->
<g id="node4" class="node">
<title>DurationModule</title>
<polygon fill="#8dd3c7" stroke="black" points="385.81,-84.8 382.81,-88.8 361.81,-88.8 358.81,-84.8 276.19,-84.8 276.19,-48.8 385.81,-48.8 385.81,-84.8"/>
<text text-anchor="middle" x="331" y="-62.6" font-family="Times,serif" font-size="14.00">DurationModule</text>
</g>
<!-- DurationModule&#45;&gt;WaypointSummaryModule -->
<g id="edge3" class="edge">
<title>DurationModule&#45;&gt;WaypointSummaryModule</title>
<path fill="none" stroke="black" d="M331,-84.91C331,-84.91 331,-103.79 331,-103.79"/>
<polygon fill="black" stroke="black" points="327.5,-103.79 331,-113.79 334.5,-103.79 327.5,-103.79"/>
</g>
<!-- PopularityModule -->
<g id="node5" class="node">
<title>PopularityModule</title>
<polygon fill="#8dd3c7" stroke="black" points="257.88,-84.8 254.88,-88.8 233.88,-88.8 230.88,-84.8 140.12,-84.8 140.12,-48.8 257.88,-48.8 257.88,-84.8"/>
<text text-anchor="middle" x="199" y="-62.6" font-family="Times,serif" font-size="14.00">PopularityModule</text>
</g>
<!-- PopularityModule&#45;&gt;WaypointSummaryModule -->
<g id="edge4" class="edge">
<title>PopularityModule&#45;&gt;WaypointSummaryModule</title>
<path fill="none" stroke="black" d="M252.17,-84.91C252.17,-84.91 252.17,-103.79 252.17,-103.79"/>
<polygon fill="black" stroke="black" points="248.67,-103.79 252.17,-113.79 255.67,-103.79 248.67,-103.79"/>
</g>
<!-- TrendsModule -->
<g id="node6" class="node">
<title>TrendsModule</title>
<polygon fill="#8dd3c7" stroke="black" points="122.42,-84.8 119.42,-88.8 98.42,-88.8 95.42,-84.8 23.58,-84.8 23.58,-48.8 122.42,-48.8 122.42,-84.8"/>
<text text-anchor="middle" x="73" y="-62.6" font-family="Times,serif" font-size="14.00">TrendsModule</text>
</g>
<!-- TrendsModule&#45;&gt;WaypointSummaryModule -->
<g id="edge5" class="edge">
<title>TrendsModule&#45;&gt;WaypointSummaryModule</title>
<path fill="none" stroke="black" d="M73,-84.91C73,-104.14 73,-131.8 73,-131.8 73,-131.8 236.16,-131.8 236.16,-131.8"/>
<polygon fill="black" stroke="black" points="236.16,-135.3 246.16,-131.8 236.16,-128.3 236.16,-135.3"/>
</g>
</g>
</svg>
