<?xml version="1.0" encoding="UTF-8" standalone="no"?>
<!DOCTYPE svg PUBLIC "-//W3C//DTD SVG 1.1//EN"
 "http://www.w3.org/Graphics/SVG/1.1/DTD/svg11.dtd">
<!-- Generated by graphviz version 2.47.3 (20210619.1520)
 -->
<!-- Title: dependencies Pages: 1 -->
<svg width="382pt" height="174pt"
 viewBox="0.00 0.00 382.00 173.80" xmlns="http://www.w3.org/2000/svg" xmlns:xlink="http://www.w3.org/1999/xlink">
<g id="graph0" class="graph" transform="scale(1 1) rotate(0) translate(4 169.8)">
<title>dependencies</title>
<polygon fill="white" stroke="transparent" points="-4,4 -4,-169.8 378,-169.8 378,4 -4,4"/>
<text text-anchor="middle" x="187" y="-8.2" font-family="sans-serif" font-size="14.00">dependencies</text>
<g id="clust1" class="cluster">
<title>cluster_SuccessDialogModule</title>
<polygon fill="none" stroke="black" stroke-dasharray="1,5" points="8,-32.8 8,-157.8 366,-157.8 366,-32.8 8,-32.8"/>
</g>
<g id="clust2" class="cluster">
<title>cluster_SuccessDialogModule_declarations</title>
<polygon fill="none" stroke="black" points="178,-40.8 178,-92.8 358,-92.8 358,-40.8 178,-40.8"/>
</g>
<g id="clust4" class="cluster">
<title>cluster_SuccessDialogModule_imports</title>
<polygon fill="none" stroke="black" points="16,-40.8 16,-92.8 170,-92.8 170,-40.8 16,-40.8"/>
</g>
<!-- SuccessDialogComponent -->
<g id="node1" class="node">
<title>SuccessDialogComponent</title>
<polygon fill="#ffffb3" stroke="black" points="349.75,-84.8 186.25,-84.8 186.25,-48.8 349.75,-48.8 349.75,-84.8"/>
<text text-anchor="middle" x="268" y="-62.6" font-family="Times,serif" font-size="14.00">SuccessDialogComponent</text>
</g>
<!-- SuccessDialogModule -->
<g id="node2" class="node">
<title>SuccessDialogModule</title>
<polygon fill="#8dd3c7" stroke="black" points="250.97,-149.8 247.97,-153.8 226.97,-153.8 223.97,-149.8 109.03,-149.8 109.03,-113.8 250.97,-113.8 250.97,-149.8"/>
<text text-anchor="middle" x="180" y="-127.6" font-family="Times,serif" font-size="14.00">SuccessDialogModule</text>
</g>
<!-- SuccessDialogComponent&#45;&gt;SuccessDialogModule -->
<g id="edge1" class="edge">
<title>SuccessDialogComponent&#45;&gt;SuccessDialogModule</title>
<path fill="none" stroke="black" d="M218.55,-84.91C218.55,-84.91 218.55,-103.79 218.55,-103.79"/>
<polygon fill="black" stroke="black" points="215.05,-103.79 218.55,-113.79 222.05,-103.79 215.05,-103.79"/>
</g>
<!-- NetflixLoaderModule -->
<g id="node3" class="node">
<title>NetflixLoaderModule</title>
<polygon fill="#8dd3c7" stroke="black" points="162.35,-84.8 159.35,-88.8 138.35,-88.8 135.35,-84.8 23.65,-84.8 23.65,-48.8 162.35,-48.8 162.35,-84.8"/>
<text text-anchor="middle" x="93" y="-62.6" font-family="Times,serif" font-size="14.00">NetflixLoaderModule</text>
</g>
<!-- NetflixLoaderModule&#45;&gt;SuccessDialogModule -->
<g id="edge2" class="edge">
<title>NetflixLoaderModule&#45;&gt;SuccessDialogModule</title>
<path fill="none" stroke="black" d="M135.72,-84.91C135.72,-84.91 135.72,-103.79 135.72,-103.79"/>
<polygon fill="black" stroke="black" points="132.22,-103.79 135.72,-113.79 139.22,-103.79 132.22,-103.79"/>
</g>
</g>
</svg>
