<?xml version="1.0" encoding="UTF-8" standalone="no"?>
<!DOCTYPE svg PUBLIC "-//W3C//DTD SVG 1.1//EN"
 "http://www.w3.org/Graphics/SVG/1.1/DTD/svg11.dtd">
<!-- Generated by graphviz version 2.47.3 (20210619.1520)
 -->
<!-- Title: dependencies Pages: 1 -->
<svg width="544pt" height="247pt"
 viewBox="0.00 0.00 544.00 246.80" xmlns="http://www.w3.org/2000/svg" xmlns:xlink="http://www.w3.org/1999/xlink">
<g id="graph0" class="graph" transform="scale(1 1) rotate(0) translate(4 242.8)">
<title>dependencies</title>
<polygon fill="white" stroke="transparent" points="-4,4 -4,-242.8 540,-242.8 540,4 -4,4"/>
<text text-anchor="middle" x="268" y="-8.2" font-family="sans-serif" font-size="14.00">dependencies</text>
<g id="clust1" class="cluster">
<title>cluster_SimpleTemplateModule</title>
<polygon fill="none" stroke="black" stroke-dasharray="1,5" points="8,-32.8 8,-230.8 528,-230.8 528,-32.8 8,-32.8"/>
</g>
<g id="clust2" class="cluster">
<title>cluster_SimpleTemplateModule_declarations</title>
<polygon fill="none" stroke="black" points="330,-40.8 330,-92.8 520,-92.8 520,-40.8 330,-40.8"/>
</g>
<g id="clust4" class="cluster">
<title>cluster_SimpleTemplateModule_imports</title>
<polygon fill="none" stroke="black" points="16,-40.8 16,-92.8 322,-92.8 322,-40.8 16,-40.8"/>
</g>
<g id="clust5" class="cluster">
<title>cluster_SimpleTemplateModule_exports</title>
<polygon fill="none" stroke="black" points="152,-170.8 152,-222.8 346,-222.8 346,-170.8 152,-170.8"/>
</g>
<!-- SimpleTemplateComponent -->
<g id="node1" class="node">
<title>SimpleTemplateComponent</title>
<polygon fill="#ffffb3" stroke="black" points="511.87,-84.8 338.13,-84.8 338.13,-48.8 511.87,-48.8 511.87,-84.8"/>
<text text-anchor="middle" x="425" y="-62.6" font-family="Times,serif" font-size="14.00">SimpleTemplateComponent</text>
</g>
<!-- SimpleTemplateModule -->
<g id="node2" class="node">
<title>SimpleTemplateModule</title>
<polygon fill="#8dd3c7" stroke="black" points="325.09,-149.8 322.09,-153.8 301.09,-153.8 298.09,-149.8 172.91,-149.8 172.91,-113.8 325.09,-113.8 325.09,-149.8"/>
<text text-anchor="middle" x="249" y="-127.6" font-family="Times,serif" font-size="14.00">SimpleTemplateModule</text>
</g>
<!-- SimpleTemplateComponent&#45;&gt;SimpleTemplateModule -->
<g id="edge1" class="edge">
<title>SimpleTemplateComponent&#45;&gt;SimpleTemplateModule</title>
<path fill="none" stroke="black" d="M337.79,-66.8C326.85,-66.8 319.4,-66.8 319.4,-66.8 319.4,-66.8 319.4,-103.69 319.4,-103.69"/>
<polygon fill="black" stroke="black" points="315.9,-103.69 319.4,-113.69 322.9,-103.69 315.9,-103.69"/>
</g>
<!-- SimpleTemplateComponent  -->
<g id="node5" class="node">
<title>SimpleTemplateComponent </title>
<polygon fill="#fb8072" stroke="black" points="337.87,-214.8 160.13,-214.8 160.13,-178.8 337.87,-178.8 337.87,-214.8"/>
<text text-anchor="middle" x="249" y="-192.6" font-family="Times,serif" font-size="14.00">SimpleTemplateComponent </text>
</g>
<!-- SimpleTemplateModule&#45;&gt;SimpleTemplateComponent  -->
<g id="edge4" class="edge">
<title>SimpleTemplateModule&#45;&gt;SimpleTemplateComponent </title>
<path fill="none" stroke="black" stroke-dasharray="5,2" d="M249,-149.91C249,-149.91 249,-168.79 249,-168.79"/>
<polygon fill="black" stroke="black" points="245.5,-168.79 249,-178.79 252.5,-168.79 245.5,-168.79"/>
</g>
<!-- NavbarBackModule -->
<g id="node3" class="node">
<title>NavbarBackModule</title>
<polygon fill="#8dd3c7" stroke="black" points="313.51,-84.8 310.51,-88.8 289.51,-88.8 286.51,-84.8 184.49,-84.8 184.49,-48.8 313.51,-48.8 313.51,-84.8"/>
<text text-anchor="middle" x="249" y="-62.6" font-family="Times,serif" font-size="14.00">NavbarBackModule</text>
</g>
<!-- NavbarBackModule&#45;&gt;SimpleTemplateModule -->
<g id="edge2" class="edge">
<title>NavbarBackModule&#45;&gt;SimpleTemplateModule</title>
<path fill="none" stroke="black" d="M249,-84.91C249,-84.91 249,-103.79 249,-103.79"/>
<polygon fill="black" stroke="black" points="245.5,-103.79 249,-113.79 252.5,-103.79 245.5,-103.79"/>
</g>
<!-- RoadmapStainModule -->
<g id="node4" class="node">
<title>RoadmapStainModule</title>
<polygon fill="#8dd3c7" stroke="black" points="165.98,-84.8 162.98,-88.8 141.98,-88.8 138.98,-84.8 24.02,-84.8 24.02,-48.8 165.98,-48.8 165.98,-84.8"/>
<text text-anchor="middle" x="95" y="-62.6" font-family="Times,serif" font-size="14.00">RoadmapStainModule</text>
</g>
<!-- RoadmapStainModule&#45;&gt;SimpleTemplateModule -->
<g id="edge3" class="edge">
<title>RoadmapStainModule&#45;&gt;SimpleTemplateModule</title>
<path fill="none" stroke="black" d="M166.26,-66.8C173.7,-66.8 178.6,-66.8 178.6,-66.8 178.6,-66.8 178.6,-103.69 178.6,-103.69"/>
<polygon fill="black" stroke="black" points="175.1,-103.69 178.6,-113.69 182.1,-103.69 175.1,-103.69"/>
</g>
</g>
</svg>
