<?xml version="1.0" encoding="UTF-8" standalone="no"?>
<!DOCTYPE svg PUBLIC "-//W3C//DTD SVG 1.1//EN"
 "http://www.w3.org/Graphics/SVG/1.1/DTD/svg11.dtd">
<!-- Generated by graphviz version 2.47.3 (20210619.1520)
 -->
<!-- Title: dependencies Pages: 1 -->
<svg width="1076pt" height="358pt"
 viewBox="0.00 0.00 1076.00 358.39" xmlns="http://www.w3.org/2000/svg" xmlns:xlink="http://www.w3.org/1999/xlink">
<g id="graph0" class="graph" transform="scale(1 1) rotate(0) translate(4 354.39)">
<title>dependencies</title>
<polygon fill="white" stroke="transparent" points="-4,4 -4,-354.39 1072,-354.39 1072,4 -4,4"/>
<text text-anchor="middle" x="534" y="-8.2" font-family="sans-serif" font-size="14.00">dependencies</text>
<g id="clust1" class="cluster">
<title>cluster_SelectMultiCardSingleControlModule</title>
<polygon fill="none" stroke="black" stroke-dasharray="1,5" points="8,-32.8 8,-342.39 1060,-342.39 1060,-32.8 8,-32.8"/>
</g>
<g id="clust5" class="cluster">
<title>cluster_SelectMultiCardSingleControlModule_exports</title>
<polygon fill="none" stroke="black" points="503,-282.39 503,-334.39 775,-334.39 775,-282.39 503,-282.39"/>
</g>
<g id="clust4" class="cluster">
<title>cluster_SelectMultiCardSingleControlModule_imports</title>
<polygon fill="none" stroke="black" points="676,-152.39 676,-204.39 812,-204.39 812,-152.39 676,-152.39"/>
</g>
<g id="clust2" class="cluster">
<title>cluster_SelectMultiCardSingleControlModule_declarations</title>
<polygon fill="none" stroke="black" points="400,-152.39 400,-204.39 668,-204.39 668,-152.39 400,-152.39"/>
</g>
<g id="clust3" class="cluster">
<title>cluster_SelectMultiCardSingleControlModule_SelectMultiCardSingleControlComponent_providers</title>
<polygon fill="none" stroke="black" points="16,-40.8 16,-139.39 1052,-139.39 1052,-40.8 16,-40.8"/>
</g>
<!-- SelectMultiCardSingleControlComponent -->
<g id="node1" class="node">
<title>SelectMultiCardSingleControlComponent</title>
<polygon fill="#ffffb3" stroke="black" points="660.43,-196.39 407.57,-196.39 407.57,-160.39 660.43,-160.39 660.43,-196.39"/>
<text text-anchor="middle" x="534" y="-174.19" font-family="Times,serif" font-size="14.00">SelectMultiCardSingleControlComponent</text>
</g>
<!-- SelectMultiCardSingleControlModule -->
<g id="node2" class="node">
<title>SelectMultiCardSingleControlModule</title>
<polygon fill="#8dd3c7" stroke="black" points="754.14,-261.39 751.14,-265.39 730.14,-265.39 727.14,-261.39 523.86,-261.39 523.86,-225.39 754.14,-225.39 754.14,-261.39"/>
<text text-anchor="middle" x="639" y="-239.19" font-family="Times,serif" font-size="14.00">SelectMultiCardSingleControlModule</text>
</g>
<!-- SelectMultiCardSingleControlComponent&#45;&gt;SelectMultiCardSingleControlModule -->
<g id="edge1" class="edge">
<title>SelectMultiCardSingleControlComponent&#45;&gt;SelectMultiCardSingleControlModule</title>
<path fill="none" stroke="black" d="M591.95,-196.5C591.95,-196.5 591.95,-215.38 591.95,-215.38"/>
<polygon fill="black" stroke="black" points="588.45,-215.38 591.95,-225.38 595.45,-215.38 588.45,-215.38"/>
</g>
<!-- SelectMultiCardSingleControlComponent  -->
<g id="node5" class="node">
<title>SelectMultiCardSingleControlComponent </title>
<polygon fill="#fb8072" stroke="black" points="766.93,-326.39 511.07,-326.39 511.07,-290.39 766.93,-290.39 766.93,-326.39"/>
<text text-anchor="middle" x="639" y="-304.19" font-family="Times,serif" font-size="14.00">SelectMultiCardSingleControlComponent </text>
</g>
<!-- SelectMultiCardSingleControlModule&#45;&gt;SelectMultiCardSingleControlComponent  -->
<g id="edge4" class="edge">
<title>SelectMultiCardSingleControlModule&#45;&gt;SelectMultiCardSingleControlComponent </title>
<path fill="none" stroke="black" stroke-dasharray="5,2" d="M639,-261.5C639,-261.5 639,-280.38 639,-280.38"/>
<polygon fill="black" stroke="black" points="635.5,-280.38 639,-290.38 642.5,-280.38 635.5,-280.38"/>
</g>
<!-- {
 &#160;&#160;&#160;provide: NG_VALUE_ACCESSOR, useExisting: forwardRef(() =&gt; SelectMultiCardSingleControlComponent), multi: true
} -->
<g id="node3" class="node">
<title>{
 &#160;&#160;&#160;provide: NG_VALUE_ACCESSOR, useExisting: forwardRef(() =&gt; SelectMultiCardSingleControlComponent), multi: true
}</title>
<ellipse fill="#fdb462" stroke="black" cx="534" cy="-90.1" rx="510.48" ry="41.09"/>
<text text-anchor="middle" x="534" y="-102.7" font-family="Times,serif" font-size="14.00">{</text>
<text text-anchor="middle" x="534" y="-85.9" font-family="Times,serif" font-size="14.00"> &#160;&#160;&#160;provide: NG_VALUE_ACCESSOR, useExisting: forwardRef(() =&gt; SelectMultiCardSingleControlComponent), multi: true</text>
<text text-anchor="middle" x="534" y="-69.1" font-family="Times,serif" font-size="14.00">}</text>
</g>
<!-- {
 &#160;&#160;&#160;provide: NG_VALUE_ACCESSOR, useExisting: forwardRef(() =&gt; SelectMultiCardSingleControlComponent), multi: true
}&#45;&gt;SelectMultiCardSingleControlComponent -->
<g id="edge2" class="edge">
<title>{
 &#160;&#160;&#160;provide: NG_VALUE_ACCESSOR, useExisting: forwardRef(() =&gt; SelectMultiCardSingleControlComponent), multi: true
}&#45;&gt;SelectMultiCardSingleControlComponent</title>
<path fill="none" stroke="black" d="M534,-131.4C534,-131.4 534,-150.06 534,-150.06"/>
<polygon fill="black" stroke="black" points="530.5,-150.06 534,-160.06 537.5,-150.06 530.5,-150.06"/>
</g>
<!-- SelectCardModule -->
<g id="node4" class="node">
<title>SelectCardModule</title>
<polygon fill="#8dd3c7" stroke="black" points="804.47,-196.39 801.47,-200.39 780.47,-200.39 777.47,-196.39 683.53,-196.39 683.53,-160.39 804.47,-160.39 804.47,-196.39"/>
<text text-anchor="middle" x="744" y="-174.19" font-family="Times,serif" font-size="14.00">SelectCardModule</text>
</g>
<!-- SelectCardModule&#45;&gt;SelectMultiCardSingleControlModule -->
<g id="edge3" class="edge">
<title>SelectCardModule&#45;&gt;SelectMultiCardSingleControlModule</title>
<path fill="none" stroke="black" d="M718.92,-196.5C718.92,-196.5 718.92,-215.38 718.92,-215.38"/>
<polygon fill="black" stroke="black" points="715.42,-215.38 718.92,-225.38 722.42,-215.38 715.42,-215.38"/>
</g>
</g>
</svg>
