<?xml version="1.0" encoding="UTF-8" standalone="no"?>
<!DOCTYPE svg PUBLIC "-//W3C//DTD SVG 1.1//EN"
 "http://www.w3.org/Graphics/SVG/1.1/DTD/svg11.dtd">
<!-- Generated by graphviz version 2.47.3 (20210619.1520)
 -->
<!-- Title: dependencies Pages: 1 -->
<svg width="844pt" height="174pt"
 viewBox="0.00 0.00 844.00 173.80" xmlns="http://www.w3.org/2000/svg" xmlns:xlink="http://www.w3.org/1999/xlink">
<g id="graph0" class="graph" transform="scale(1 1) rotate(0) translate(4 169.8)">
<title>dependencies</title>
<polygon fill="white" stroke="transparent" points="-4,4 -4,-169.8 840,-169.8 840,4 -4,4"/>
<text text-anchor="middle" x="418" y="-8.2" font-family="sans-serif" font-size="14.00">dependencies</text>
<g id="clust1" class="cluster">
<title>cluster_ExpeditionStepPageModule</title>
<polygon fill="none" stroke="black" stroke-dasharray="1,5" points="8,-32.8 8,-157.8 828,-157.8 828,-32.8 8,-32.8"/>
</g>
<g id="clust2" class="cluster">
<title>cluster_ExpeditionStepPageModule_declarations</title>
<polygon fill="none" stroke="black" points="610,-40.8 610,-92.8 820,-92.8 820,-40.8 610,-40.8"/>
</g>
<g id="clust4" class="cluster">
<title>cluster_ExpeditionStepPageModule_imports</title>
<polygon fill="none" stroke="black" points="16,-40.8 16,-92.8 602,-92.8 602,-40.8 16,-40.8"/>
</g>
<!-- ExpeditionStepPageComponent -->
<g id="node1" class="node">
<title>ExpeditionStepPageComponent</title>
<polygon fill="#ffffb3" stroke="black" points="812.37,-84.8 617.63,-84.8 617.63,-48.8 812.37,-48.8 812.37,-84.8"/>
<text text-anchor="middle" x="715" y="-62.6" font-family="Times,serif" font-size="14.00">ExpeditionStepPageComponent</text>
</g>
<!-- ExpeditionStepPageModule -->
<g id="node2" class="node">
<title>ExpeditionStepPageModule</title>
<polygon fill="#8dd3c7" stroke="black" points="490.59,-149.8 487.59,-153.8 466.59,-153.8 463.59,-149.8 317.41,-149.8 317.41,-113.8 490.59,-113.8 490.59,-149.8"/>
<text text-anchor="middle" x="404" y="-127.6" font-family="Times,serif" font-size="14.00">ExpeditionStepPageModule</text>
</g>
<!-- ExpeditionStepPageComponent&#45;&gt;ExpeditionStepPageModule -->
<g id="edge1" class="edge">
<title>ExpeditionStepPageComponent&#45;&gt;ExpeditionStepPageModule</title>
<path fill="none" stroke="black" d="M715,-84.91C715,-104.14 715,-131.8 715,-131.8 715,-131.8 500.63,-131.8 500.63,-131.8"/>
<polygon fill="black" stroke="black" points="500.63,-128.3 490.63,-131.8 500.63,-135.3 500.63,-128.3"/>
</g>
<!-- ChallengeSynthesisModule -->
<g id="node3" class="node">
<title>ChallengeSynthesisModule</title>
<polygon fill="#8dd3c7" stroke="black" points="593.98,-84.8 590.98,-88.8 569.98,-88.8 566.98,-84.8 424.02,-84.8 424.02,-48.8 593.98,-48.8 593.98,-84.8"/>
<text text-anchor="middle" x="509" y="-62.6" font-family="Times,serif" font-size="14.00">ChallengeSynthesisModule</text>
</g>
<!-- ChallengeSynthesisModule&#45;&gt;ExpeditionStepPageModule -->
<g id="edge2" class="edge">
<title>ChallengeSynthesisModule&#45;&gt;ExpeditionStepPageModule</title>
<path fill="none" stroke="black" d="M457.28,-84.91C457.28,-84.91 457.28,-103.79 457.28,-103.79"/>
<polygon fill="black" stroke="black" points="453.78,-103.79 457.28,-113.79 460.78,-103.79 453.78,-103.79"/>
</g>
<!-- ExpeditionStepDescriptionModule -->
<g id="node4" class="node">
<title>ExpeditionStepDescriptionModule</title>
<polygon fill="#8dd3c7" stroke="black" points="405.69,-84.8 402.69,-88.8 381.69,-88.8 378.69,-84.8 194.31,-84.8 194.31,-48.8 405.69,-48.8 405.69,-84.8"/>
<text text-anchor="middle" x="300" y="-62.6" font-family="Times,serif" font-size="14.00">ExpeditionStepDescriptionModule</text>
</g>
<!-- ExpeditionStepDescriptionModule&#45;&gt;ExpeditionStepPageModule -->
<g id="edge3" class="edge">
<title>ExpeditionStepDescriptionModule&#45;&gt;ExpeditionStepPageModule</title>
<path fill="none" stroke="black" d="M361.53,-84.91C361.53,-84.91 361.53,-103.79 361.53,-103.79"/>
<polygon fill="black" stroke="black" points="358.03,-103.79 361.53,-113.79 365.03,-103.79 358.03,-103.79"/>
</g>
<!-- SimpleTemplateModule -->
<g id="node5" class="node">
<title>SimpleTemplateModule</title>
<polygon fill="#8dd3c7" stroke="black" points="176.09,-84.8 173.09,-88.8 152.09,-88.8 149.09,-84.8 23.91,-84.8 23.91,-48.8 176.09,-48.8 176.09,-84.8"/>
<text text-anchor="middle" x="100" y="-62.6" font-family="Times,serif" font-size="14.00">SimpleTemplateModule</text>
</g>
<!-- SimpleTemplateModule&#45;&gt;ExpeditionStepPageModule -->
<g id="edge4" class="edge">
<title>SimpleTemplateModule&#45;&gt;ExpeditionStepPageModule</title>
<path fill="none" stroke="black" d="M100,-84.91C100,-104.14 100,-131.8 100,-131.8 100,-131.8 307.29,-131.8 307.29,-131.8"/>
<polygon fill="black" stroke="black" points="307.29,-135.3 317.29,-131.8 307.29,-128.3 307.29,-135.3"/>
</g>
</g>
</svg>
