<?xml version="1.0" encoding="UTF-8" standalone="no"?>
<!DOCTYPE svg PUBLIC "-//W3C//DTD SVG 1.1//EN"
 "http://www.w3.org/Graphics/SVG/1.1/DTD/svg11.dtd">
<!-- Generated by graphviz version 2.47.3 (20210619.1520)
 -->
<!-- Title: dependencies Pages: 1 -->
<svg width="1084pt" height="247pt"
 viewBox="0.00 0.00 1084.00 246.80" xmlns="http://www.w3.org/2000/svg" xmlns:xlink="http://www.w3.org/1999/xlink">
<g id="graph0" class="graph" transform="scale(1 1) rotate(0) translate(4 242.8)">
<title>dependencies</title>
<polygon fill="white" stroke="transparent" points="-4,4 -4,-242.8 1080,-242.8 1080,4 -4,4"/>
<text text-anchor="middle" x="538" y="-8.2" font-family="sans-serif" font-size="14.00">dependencies</text>
<g id="clust1" class="cluster">
<title>cluster_DefaultHomeModule</title>
<polygon fill="none" stroke="black" stroke-dasharray="1,5" points="8,-32.8 8,-230.8 1068,-230.8 1068,-32.8 8,-32.8"/>
</g>
<g id="clust5" class="cluster">
<title>cluster_DefaultHomeModule_exports</title>
<polygon fill="none" stroke="black" points="427,-170.8 427,-222.8 605,-222.8 605,-170.8 427,-170.8"/>
</g>
<g id="clust2" class="cluster">
<title>cluster_DefaultHomeModule_declarations</title>
<polygon fill="none" stroke="black" points="886,-40.8 886,-92.8 1060,-92.8 1060,-40.8 886,-40.8"/>
</g>
<g id="clust4" class="cluster">
<title>cluster_DefaultHomeModule_imports</title>
<polygon fill="none" stroke="black" points="16,-40.8 16,-92.8 878,-92.8 878,-40.8 16,-40.8"/>
</g>
<!-- DefaultHomeComponent -->
<g id="node1" class="node">
<title>DefaultHomeComponent</title>
<polygon fill="#ffffb3" stroke="black" points="1051.52,-84.8 894.48,-84.8 894.48,-48.8 1051.52,-48.8 1051.52,-84.8"/>
<text text-anchor="middle" x="973" y="-62.6" font-family="Times,serif" font-size="14.00">DefaultHomeComponent</text>
</g>
<!-- DefaultHomeModule -->
<g id="node2" class="node">
<title>DefaultHomeModule</title>
<polygon fill="#8dd3c7" stroke="black" points="583.74,-149.8 580.74,-153.8 559.74,-153.8 556.74,-149.8 448.26,-149.8 448.26,-113.8 583.74,-113.8 583.74,-149.8"/>
<text text-anchor="middle" x="516" y="-127.6" font-family="Times,serif" font-size="14.00">DefaultHomeModule</text>
</g>
<!-- DefaultHomeComponent&#45;&gt;DefaultHomeModule -->
<g id="edge1" class="edge">
<title>DefaultHomeComponent&#45;&gt;DefaultHomeModule</title>
<path fill="none" stroke="black" d="M973,-85.08C973,-106.12 973,-137.8 973,-137.8 973,-137.8 593.92,-137.8 593.92,-137.8"/>
<polygon fill="black" stroke="black" points="593.92,-134.3 583.92,-137.8 593.92,-141.3 593.92,-134.3"/>
</g>
<!-- DefaultHomeComponent  -->
<g id="node8" class="node">
<title>DefaultHomeComponent </title>
<polygon fill="#fb8072" stroke="black" points="596.52,-214.8 435.48,-214.8 435.48,-178.8 596.52,-178.8 596.52,-214.8"/>
<text text-anchor="middle" x="516" y="-192.6" font-family="Times,serif" font-size="14.00">DefaultHomeComponent </text>
</g>
<!-- DefaultHomeModule&#45;&gt;DefaultHomeComponent  -->
<g id="edge7" class="edge">
<title>DefaultHomeModule&#45;&gt;DefaultHomeComponent </title>
<path fill="none" stroke="black" stroke-dasharray="5,2" d="M516,-149.91C516,-149.91 516,-168.79 516,-168.79"/>
<polygon fill="black" stroke="black" points="512.5,-168.79 516,-178.79 519.5,-168.79 512.5,-168.79"/>
</g>
<!-- FeaturesContainerModule -->
<g id="node3" class="node">
<title>FeaturesContainerModule</title>
<polygon fill="#8dd3c7" stroke="black" points="870.18,-84.8 867.18,-88.8 846.18,-88.8 843.18,-84.8 707.82,-84.8 707.82,-48.8 870.18,-48.8 870.18,-84.8"/>
<text text-anchor="middle" x="789" y="-62.6" font-family="Times,serif" font-size="14.00">FeaturesContainerModule</text>
</g>
<!-- FeaturesContainerModule&#45;&gt;DefaultHomeModule -->
<g id="edge2" class="edge">
<title>FeaturesContainerModule&#45;&gt;DefaultHomeModule</title>
<path fill="none" stroke="black" d="M789,-84.82C789,-102.17 789,-125.8 789,-125.8 789,-125.8 593.83,-125.8 593.83,-125.8"/>
<polygon fill="black" stroke="black" points="593.83,-122.3 583.83,-125.8 593.83,-129.3 593.83,-122.3"/>
</g>
<!-- HomeBannerContainerModule -->
<g id="node4" class="node">
<title>HomeBannerContainerModule</title>
<polygon fill="#8dd3c7" stroke="black" points="689.9,-84.8 686.9,-88.8 665.9,-88.8 662.9,-84.8 500.1,-84.8 500.1,-48.8 689.9,-48.8 689.9,-84.8"/>
<text text-anchor="middle" x="595" y="-62.6" font-family="Times,serif" font-size="14.00">HomeBannerContainerModule</text>
</g>
<!-- HomeBannerContainerModule&#45;&gt;DefaultHomeModule -->
<g id="edge3" class="edge">
<title>HomeBannerContainerModule&#45;&gt;DefaultHomeModule</title>
<path fill="none" stroke="black" d="M542.09,-84.91C542.09,-84.91 542.09,-103.79 542.09,-103.79"/>
<polygon fill="black" stroke="black" points="538.59,-103.79 542.09,-113.79 545.59,-103.79 538.59,-103.79"/>
</g>
<!-- LogoModule -->
<g id="node5" class="node">
<title>LogoModule</title>
<polygon fill="#8dd3c7" stroke="black" points="482.6,-84.8 479.6,-88.8 458.6,-88.8 455.6,-84.8 393.4,-84.8 393.4,-48.8 482.6,-48.8 482.6,-84.8"/>
<text text-anchor="middle" x="438" y="-62.6" font-family="Times,serif" font-size="14.00">LogoModule</text>
</g>
<!-- LogoModule&#45;&gt;DefaultHomeModule -->
<g id="edge4" class="edge">
<title>LogoModule&#45;&gt;DefaultHomeModule</title>
<path fill="none" stroke="black" d="M465.34,-84.91C465.34,-84.91 465.34,-103.79 465.34,-103.79"/>
<polygon fill="black" stroke="black" points="461.84,-103.79 465.34,-113.79 468.84,-103.79 461.84,-103.79"/>
</g>
<!-- MillionroadsProductModule -->
<g id="node6" class="node">
<title>MillionroadsProductModule</title>
<polygon fill="#8dd3c7" stroke="black" points="375.93,-84.8 372.93,-88.8 351.93,-88.8 348.93,-84.8 200.07,-84.8 200.07,-48.8 375.93,-48.8 375.93,-84.8"/>
<text text-anchor="middle" x="288" y="-62.6" font-family="Times,serif" font-size="14.00">MillionroadsProductModule</text>
</g>
<!-- MillionroadsProductModule&#45;&gt;DefaultHomeModule -->
<g id="edge5" class="edge">
<title>MillionroadsProductModule&#45;&gt;DefaultHomeModule</title>
<path fill="none" stroke="black" d="M288,-84.82C288,-102.17 288,-125.8 288,-125.8 288,-125.8 438.21,-125.8 438.21,-125.8"/>
<polygon fill="black" stroke="black" points="438.21,-129.3 448.21,-125.8 438.21,-122.3 438.21,-129.3"/>
</g>
<!-- PartnershipLogosModule -->
<g id="node7" class="node">
<title>PartnershipLogosModule</title>
<polygon fill="#8dd3c7" stroke="black" points="182.31,-84.8 179.31,-88.8 158.31,-88.8 155.31,-84.8 23.69,-84.8 23.69,-48.8 182.31,-48.8 182.31,-84.8"/>
<text text-anchor="middle" x="103" y="-62.6" font-family="Times,serif" font-size="14.00">PartnershipLogosModule</text>
</g>
<!-- PartnershipLogosModule&#45;&gt;DefaultHomeModule -->
<g id="edge6" class="edge">
<title>PartnershipLogosModule&#45;&gt;DefaultHomeModule</title>
<path fill="none" stroke="black" d="M103,-85.08C103,-106.12 103,-137.8 103,-137.8 103,-137.8 437.8,-137.8 437.8,-137.8"/>
<polygon fill="black" stroke="black" points="437.8,-141.3 447.8,-137.8 437.8,-134.3 437.8,-141.3"/>
</g>
</g>
</svg>
