<?xml version="1.0" encoding="UTF-8" standalone="no"?>
<!DOCTYPE svg PUBLIC "-//W3C//DTD SVG 1.1//EN"
 "http://www.w3.org/Graphics/SVG/1.1/DTD/svg11.dtd">
<!-- Generated by graphviz version 2.47.3 (20210619.1520)
 -->
<!-- Title: dependencies Pages: 1 -->
<svg width="1303pt" height="247pt"
 viewBox="0.00 0.00 1303.00 246.80" xmlns="http://www.w3.org/2000/svg" xmlns:xlink="http://www.w3.org/1999/xlink">
<g id="graph0" class="graph" transform="scale(1 1) rotate(0) translate(4 242.8)">
<title>dependencies</title>
<polygon fill="white" stroke="transparent" points="-4,4 -4,-242.8 1299,-242.8 1299,4 -4,4"/>
<text text-anchor="middle" x="647.5" y="-8.2" font-family="sans-serif" font-size="14.00">dependencies</text>
<g id="clust1" class="cluster">
<title>cluster_VillageCardModule</title>
<polygon fill="none" stroke="black" stroke-dasharray="1,5" points="8,-32.8 8,-230.8 1287,-230.8 1287,-32.8 8,-32.8"/>
</g>
<g id="clust2" class="cluster">
<title>cluster_VillageCardModule_declarations</title>
<polygon fill="none" stroke="black" points="1113,-40.8 1113,-92.8 1279,-92.8 1279,-40.8 1113,-40.8"/>
</g>
<g id="clust5" class="cluster">
<title>cluster_VillageCardModule_exports</title>
<polygon fill="none" stroke="black" points="554,-170.8 554,-222.8 724,-222.8 724,-170.8 554,-170.8"/>
</g>
<g id="clust4" class="cluster">
<title>cluster_VillageCardModule_imports</title>
<polygon fill="none" stroke="black" points="16,-40.8 16,-92.8 1105,-92.8 1105,-40.8 16,-40.8"/>
</g>
<!-- VillageCardComponent -->
<g id="node1" class="node">
<title>VillageCardComponent</title>
<polygon fill="#ffffb3" stroke="black" points="1270.75,-84.8 1121.25,-84.8 1121.25,-48.8 1270.75,-48.8 1270.75,-84.8"/>
<text text-anchor="middle" x="1196" y="-62.6" font-family="Times,serif" font-size="14.00">VillageCardComponent</text>
</g>
<!-- VillageCardModule -->
<g id="node2" class="node">
<title>VillageCardModule</title>
<polygon fill="#8dd3c7" stroke="black" points="702.97,-149.8 699.97,-153.8 678.97,-153.8 675.97,-149.8 575.03,-149.8 575.03,-113.8 702.97,-113.8 702.97,-149.8"/>
<text text-anchor="middle" x="639" y="-127.6" font-family="Times,serif" font-size="14.00">VillageCardModule</text>
</g>
<!-- VillageCardComponent&#45;&gt;VillageCardModule -->
<g id="edge1" class="edge">
<title>VillageCardComponent&#45;&gt;VillageCardModule</title>
<path fill="none" stroke="black" d="M1196,-85.09C1196,-107.01 1196,-140.8 1196,-140.8 1196,-140.8 713.17,-140.8 713.17,-140.8"/>
<polygon fill="black" stroke="black" points="713.17,-137.3 703.17,-140.8 713.17,-144.3 713.17,-137.3"/>
</g>
<!-- VillageCardComponent  -->
<g id="node10" class="node">
<title>VillageCardComponent </title>
<polygon fill="#fb8072" stroke="black" points="715.75,-214.8 562.25,-214.8 562.25,-178.8 715.75,-178.8 715.75,-214.8"/>
<text text-anchor="middle" x="639" y="-192.6" font-family="Times,serif" font-size="14.00">VillageCardComponent </text>
</g>
<!-- VillageCardModule&#45;&gt;VillageCardComponent  -->
<g id="edge9" class="edge">
<title>VillageCardModule&#45;&gt;VillageCardComponent </title>
<path fill="none" stroke="black" stroke-dasharray="5,2" d="M639,-149.91C639,-149.91 639,-168.79 639,-168.79"/>
<polygon fill="black" stroke="black" points="635.5,-168.79 639,-178.79 642.5,-168.79 635.5,-168.79"/>
</g>
<!-- DiplomaSuccessDialogModule -->
<g id="node3" class="node">
<title>DiplomaSuccessDialogModule</title>
<polygon fill="#8dd3c7" stroke="black" points="1097.46,-84.8 1094.46,-88.8 1073.46,-88.8 1070.46,-84.8 906.54,-84.8 906.54,-48.8 1097.46,-48.8 1097.46,-84.8"/>
<text text-anchor="middle" x="1002" y="-62.6" font-family="Times,serif" font-size="14.00">DiplomaSuccessDialogModule</text>
</g>
<!-- DiplomaSuccessDialogModule&#45;&gt;VillageCardModule -->
<g id="edge2" class="edge">
<title>DiplomaSuccessDialogModule&#45;&gt;VillageCardModule</title>
<path fill="none" stroke="black" d="M1002,-84.91C1002,-104.14 1002,-131.8 1002,-131.8 1002,-131.8 713.06,-131.8 713.06,-131.8"/>
<polygon fill="black" stroke="black" points="713.06,-128.3 703.06,-131.8 713.06,-135.3 713.06,-128.3"/>
</g>
<!-- LogoModule -->
<g id="node4" class="node">
<title>LogoModule</title>
<polygon fill="#8dd3c7" stroke="black" points="888.6,-84.8 885.6,-88.8 864.6,-88.8 861.6,-84.8 799.4,-84.8 799.4,-48.8 888.6,-48.8 888.6,-84.8"/>
<text text-anchor="middle" x="844" y="-62.6" font-family="Times,serif" font-size="14.00">LogoModule</text>
</g>
<!-- LogoModule&#45;&gt;VillageCardModule -->
<g id="edge3" class="edge">
<title>LogoModule&#45;&gt;VillageCardModule</title>
<path fill="none" stroke="black" d="M844,-84.83C844,-101.2 844,-122.8 844,-122.8 844,-122.8 713.02,-122.8 713.02,-122.8"/>
<polygon fill="black" stroke="black" points="713.02,-119.3 703.02,-122.8 713.02,-126.3 713.02,-119.3"/>
</g>
<!-- NetflixLoaderModule -->
<g id="node5" class="node">
<title>NetflixLoaderModule</title>
<polygon fill="#8dd3c7" stroke="black" points="781.35,-84.8 778.35,-88.8 757.35,-88.8 754.35,-84.8 642.65,-84.8 642.65,-48.8 781.35,-48.8 781.35,-84.8"/>
<text text-anchor="middle" x="712" y="-62.6" font-family="Times,serif" font-size="14.00">NetflixLoaderModule</text>
</g>
<!-- NetflixLoaderModule&#45;&gt;VillageCardModule -->
<g id="edge4" class="edge">
<title>NetflixLoaderModule&#45;&gt;VillageCardModule</title>
<path fill="none" stroke="black" d="M672.78,-84.91C672.78,-84.91 672.78,-103.79 672.78,-103.79"/>
<polygon fill="black" stroke="black" points="669.28,-103.79 672.78,-113.79 676.28,-103.79 669.28,-103.79"/>
</g>
<!-- PopularityModule -->
<g id="node6" class="node">
<title>PopularityModule</title>
<polygon fill="#8dd3c7" stroke="black" points="624.88,-84.8 621.88,-88.8 600.88,-88.8 597.88,-84.8 507.12,-84.8 507.12,-48.8 624.88,-48.8 624.88,-84.8"/>
<text text-anchor="middle" x="566" y="-62.6" font-family="Times,serif" font-size="14.00">PopularityModule</text>
</g>
<!-- PopularityModule&#45;&gt;VillageCardModule -->
<g id="edge5" class="edge">
<title>PopularityModule&#45;&gt;VillageCardModule</title>
<path fill="none" stroke="black" d="M599.98,-84.91C599.98,-84.91 599.98,-103.79 599.98,-103.79"/>
<polygon fill="black" stroke="black" points="596.48,-103.79 599.98,-113.79 603.48,-103.79 596.48,-103.79"/>
</g>
<!-- TrendsModule -->
<g id="node7" class="node">
<title>TrendsModule</title>
<polygon fill="#8dd3c7" stroke="black" points="489.42,-84.8 486.42,-88.8 465.42,-88.8 462.42,-84.8 390.58,-84.8 390.58,-48.8 489.42,-48.8 489.42,-84.8"/>
<text text-anchor="middle" x="440" y="-62.6" font-family="Times,serif" font-size="14.00">TrendsModule</text>
</g>
<!-- TrendsModule&#45;&gt;VillageCardModule -->
<g id="edge6" class="edge">
<title>TrendsModule&#45;&gt;VillageCardModule</title>
<path fill="none" stroke="black" d="M440,-84.83C440,-101.2 440,-122.8 440,-122.8 440,-122.8 564.94,-122.8 564.94,-122.8"/>
<polygon fill="black" stroke="black" points="564.94,-126.3 574.94,-122.8 564.94,-119.3 564.94,-126.3"/>
</g>
<!-- VerifiedWaypointModule -->
<g id="node8" class="node">
<title>VerifiedWaypointModule</title>
<polygon fill="#8dd3c7" stroke="black" points="372.9,-84.8 369.9,-88.8 348.9,-88.8 345.9,-84.8 211.1,-84.8 211.1,-48.8 372.9,-48.8 372.9,-84.8"/>
<text text-anchor="middle" x="292" y="-62.6" font-family="Times,serif" font-size="14.00">VerifiedWaypointModule</text>
</g>
<!-- VerifiedWaypointModule&#45;&gt;VillageCardModule -->
<g id="edge7" class="edge">
<title>VerifiedWaypointModule&#45;&gt;VillageCardModule</title>
<path fill="none" stroke="black" d="M292,-84.91C292,-104.14 292,-131.8 292,-131.8 292,-131.8 564.95,-131.8 564.95,-131.8"/>
<polygon fill="black" stroke="black" points="564.95,-135.3 574.95,-131.8 564.95,-128.3 564.95,-135.3"/>
</g>
<!-- WaypointSummaryModule -->
<g id="node9" class="node">
<title>WaypointSummaryModule</title>
<polygon fill="#8dd3c7" stroke="black" points="193.7,-84.8 190.7,-88.8 169.7,-88.8 166.7,-84.8 24.3,-84.8 24.3,-48.8 193.7,-48.8 193.7,-84.8"/>
<text text-anchor="middle" x="109" y="-62.6" font-family="Times,serif" font-size="14.00">WaypointSummaryModule</text>
</g>
<!-- WaypointSummaryModule&#45;&gt;VillageCardModule -->
<g id="edge8" class="edge">
<title>WaypointSummaryModule&#45;&gt;VillageCardModule</title>
<path fill="none" stroke="black" d="M109,-85.09C109,-107.01 109,-140.8 109,-140.8 109,-140.8 564.81,-140.8 564.81,-140.8"/>
<polygon fill="black" stroke="black" points="564.81,-144.3 574.81,-140.8 564.81,-137.3 564.81,-144.3"/>
</g>
</g>
</svg>
