<?xml version="1.0" encoding="UTF-8" standalone="no"?>
<!DOCTYPE svg PUBLIC "-//W3C//DTD SVG 1.1//EN"
 "http://www.w3.org/Graphics/SVG/1.1/DTD/svg11.dtd">
<!-- Generated by graphviz version 2.47.3 (20210619.1520)
 -->
<!-- Title: dependencies Pages: 1 -->
<svg width="776pt" height="174pt"
 viewBox="0.00 0.00 776.00 173.80" xmlns="http://www.w3.org/2000/svg" xmlns:xlink="http://www.w3.org/1999/xlink">
<g id="graph0" class="graph" transform="scale(1 1) rotate(0) translate(4 169.8)">
<title>dependencies</title>
<polygon fill="white" stroke="transparent" points="-4,4 -4,-169.8 772,-169.8 772,4 -4,4"/>
<text text-anchor="middle" x="384" y="-8.2" font-family="sans-serif" font-size="14.00">dependencies</text>
<g id="clust1" class="cluster">
<title>cluster_SituationPageModule</title>
<polygon fill="none" stroke="black" stroke-dasharray="1,5" points="8,-32.8 8,-157.8 760,-157.8 760,-32.8 8,-32.8"/>
</g>
<g id="clust2" class="cluster">
<title>cluster_SituationPageModule_declarations</title>
<polygon fill="none" stroke="black" points="576,-40.8 576,-92.8 752,-92.8 752,-40.8 576,-40.8"/>
</g>
<g id="clust4" class="cluster">
<title>cluster_SituationPageModule_imports</title>
<polygon fill="none" stroke="black" points="16,-40.8 16,-92.8 568,-92.8 568,-40.8 16,-40.8"/>
</g>
<!-- SituationPageComponent -->
<g id="node1" class="node">
<title>SituationPageComponent</title>
<polygon fill="#ffffb3" stroke="black" points="743.6,-84.8 584.4,-84.8 584.4,-48.8 743.6,-48.8 743.6,-84.8"/>
<text text-anchor="middle" x="664" y="-62.6" font-family="Times,serif" font-size="14.00">SituationPageComponent</text>
</g>
<!-- SituationPageModule -->
<g id="node2" class="node">
<title>SituationPageModule</title>
<polygon fill="#8dd3c7" stroke="black" points="453.82,-149.8 450.82,-153.8 429.82,-153.8 426.82,-149.8 316.18,-149.8 316.18,-113.8 453.82,-113.8 453.82,-149.8"/>
<text text-anchor="middle" x="385" y="-127.6" font-family="Times,serif" font-size="14.00">SituationPageModule</text>
</g>
<!-- SituationPageComponent&#45;&gt;SituationPageModule -->
<g id="edge1" class="edge">
<title>SituationPageComponent&#45;&gt;SituationPageModule</title>
<path fill="none" stroke="black" d="M664,-84.91C664,-104.14 664,-131.8 664,-131.8 664,-131.8 463.97,-131.8 463.97,-131.8"/>
<polygon fill="black" stroke="black" points="463.97,-128.3 453.97,-131.8 463.97,-135.3 463.97,-128.3"/>
</g>
<!-- NavigationTemplateModule -->
<g id="node3" class="node">
<title>NavigationTemplateModule</title>
<polygon fill="#8dd3c7" stroke="black" points="560.13,-84.8 557.13,-88.8 536.13,-88.8 533.13,-84.8 385.87,-84.8 385.87,-48.8 560.13,-48.8 560.13,-84.8"/>
<text text-anchor="middle" x="473" y="-62.6" font-family="Times,serif" font-size="14.00">NavigationTemplateModule</text>
</g>
<!-- NavigationTemplateModule&#45;&gt;SituationPageModule -->
<g id="edge2" class="edge">
<title>NavigationTemplateModule&#45;&gt;SituationPageModule</title>
<path fill="none" stroke="black" d="M419.67,-84.91C419.67,-84.91 419.67,-103.79 419.67,-103.79"/>
<polygon fill="black" stroke="black" points="416.17,-103.79 419.67,-113.79 423.17,-103.79 416.17,-103.79"/>
</g>
<!-- SituationFormModule -->
<g id="node4" class="node">
<title>SituationFormModule</title>
<polygon fill="#8dd3c7" stroke="black" points="367.44,-84.8 364.44,-88.8 343.44,-88.8 340.44,-84.8 226.56,-84.8 226.56,-48.8 367.44,-48.8 367.44,-84.8"/>
<text text-anchor="middle" x="297" y="-62.6" font-family="Times,serif" font-size="14.00">SituationFormModule</text>
</g>
<!-- SituationFormModule&#45;&gt;SituationPageModule -->
<g id="edge3" class="edge">
<title>SituationFormModule&#45;&gt;SituationPageModule</title>
<path fill="none" stroke="black" d="M341.78,-84.91C341.78,-84.91 341.78,-103.79 341.78,-103.79"/>
<polygon fill="black" stroke="black" points="338.28,-103.79 341.78,-113.79 345.28,-103.79 338.28,-103.79"/>
</g>
<!-- TestingMyRoadHomeModule -->
<g id="node5" class="node">
<title>TestingMyRoadHomeModule</title>
<polygon fill="#8dd3c7" stroke="black" points="208.25,-84.8 205.25,-88.8 184.25,-88.8 181.25,-84.8 23.75,-84.8 23.75,-48.8 208.25,-48.8 208.25,-84.8"/>
<text text-anchor="middle" x="116" y="-62.6" font-family="Times,serif" font-size="14.00">TestingMyRoadHomeModule</text>
</g>
<!-- TestingMyRoadHomeModule&#45;&gt;SituationPageModule -->
<g id="edge4" class="edge">
<title>TestingMyRoadHomeModule&#45;&gt;SituationPageModule</title>
<path fill="none" stroke="black" d="M116,-84.91C116,-104.14 116,-131.8 116,-131.8 116,-131.8 306.08,-131.8 306.08,-131.8"/>
<polygon fill="black" stroke="black" points="306.08,-135.3 316.08,-131.8 306.08,-128.3 306.08,-135.3"/>
</g>
</g>
</svg>
