<?xml version="1.0" encoding="UTF-8" standalone="no"?>
<!DOCTYPE svg PUBLIC "-//W3C//DTD SVG 1.1//EN"
 "http://www.w3.org/Graphics/SVG/1.1/DTD/svg11.dtd">
<!-- Generated by graphviz version 2.47.3 (20210619.1520)
 -->
<!-- Title: dependencies Pages: 1 -->
<svg width="236pt" height="247pt"
 viewBox="0.00 0.00 236.00 246.80" xmlns="http://www.w3.org/2000/svg" xmlns:xlink="http://www.w3.org/1999/xlink">
<g id="graph0" class="graph" transform="scale(1 1) rotate(0) translate(4 242.8)">
<title>dependencies</title>
<polygon fill="white" stroke="transparent" points="-4,4 -4,-242.8 232,-242.8 232,4 -4,4"/>
<text text-anchor="middle" x="114" y="-8.2" font-family="sans-serif" font-size="14.00">dependencies</text>
<g id="clust1" class="cluster">
<title>cluster_IntentionsChoiceModule</title>
<polygon fill="none" stroke="black" stroke-dasharray="1,5" points="8,-32.8 8,-230.8 220,-230.8 220,-32.8 8,-32.8"/>
</g>
<g id="clust5" class="cluster">
<title>cluster_IntentionsChoiceModule_exports</title>
<polygon fill="none" stroke="black" points="16,-170.8 16,-222.8 212,-222.8 212,-170.8 16,-170.8"/>
</g>
<g id="clust2" class="cluster">
<title>cluster_IntentionsChoiceModule_declarations</title>
<polygon fill="none" stroke="black" points="18,-40.8 18,-92.8 210,-92.8 210,-40.8 18,-40.8"/>
</g>
<!-- IntentionsChoiceComponent -->
<g id="node1" class="node">
<title>IntentionsChoiceComponent</title>
<polygon fill="#ffffb3" stroke="black" points="202.48,-84.8 25.52,-84.8 25.52,-48.8 202.48,-48.8 202.48,-84.8"/>
<text text-anchor="middle" x="114" y="-62.6" font-family="Times,serif" font-size="14.00">IntentionsChoiceComponent</text>
</g>
<!-- IntentionsChoiceModule -->
<g id="node2" class="node">
<title>IntentionsChoiceModule</title>
<polygon fill="#8dd3c7" stroke="black" points="191.7,-149.8 188.7,-153.8 167.7,-153.8 164.7,-149.8 36.3,-149.8 36.3,-113.8 191.7,-113.8 191.7,-149.8"/>
<text text-anchor="middle" x="114" y="-127.6" font-family="Times,serif" font-size="14.00">IntentionsChoiceModule</text>
</g>
<!-- IntentionsChoiceComponent&#45;&gt;IntentionsChoiceModule -->
<g id="edge1" class="edge">
<title>IntentionsChoiceComponent&#45;&gt;IntentionsChoiceModule</title>
<path fill="none" stroke="black" d="M114,-84.91C114,-84.91 114,-103.79 114,-103.79"/>
<polygon fill="black" stroke="black" points="110.5,-103.79 114,-113.79 117.5,-103.79 110.5,-103.79"/>
</g>
<!-- IntentionsChoiceComponent  -->
<g id="node3" class="node">
<title>IntentionsChoiceComponent </title>
<polygon fill="#fb8072" stroke="black" points="204.48,-214.8 23.52,-214.8 23.52,-178.8 204.48,-178.8 204.48,-214.8"/>
<text text-anchor="middle" x="114" y="-192.6" font-family="Times,serif" font-size="14.00">IntentionsChoiceComponent </text>
</g>
<!-- IntentionsChoiceModule&#45;&gt;IntentionsChoiceComponent  -->
<g id="edge2" class="edge">
<title>IntentionsChoiceModule&#45;&gt;IntentionsChoiceComponent </title>
<path fill="none" stroke="black" stroke-dasharray="5,2" d="M114,-149.91C114,-149.91 114,-168.79 114,-168.79"/>
<polygon fill="black" stroke="black" points="110.5,-168.79 114,-178.79 117.5,-168.79 110.5,-168.79"/>
</g>
</g>
</svg>
