<?xml version="1.0" encoding="UTF-8" standalone="no"?>
<!DOCTYPE svg PUBLIC "-//W3C//DTD SVG 1.1//EN"
 "http://www.w3.org/Graphics/SVG/1.1/DTD/svg11.dtd">
<!-- Generated by graphviz version 2.47.3 (20210619.1520)
 -->
<!-- Title: dependencies Pages: 1 -->
<svg width="258pt" height="174pt"
 viewBox="0.00 0.00 258.00 173.80" xmlns="http://www.w3.org/2000/svg" xmlns:xlink="http://www.w3.org/1999/xlink">
<g id="graph0" class="graph" transform="scale(1 1) rotate(0) translate(4 169.8)">
<title>dependencies</title>
<polygon fill="white" stroke="transparent" points="-4,4 -4,-169.8 254,-169.8 254,4 -4,4"/>
<text text-anchor="middle" x="125" y="-8.2" font-family="sans-serif" font-size="14.00">dependencies</text>
<g id="clust1" class="cluster">
<title>cluster_AdminRewardDialogModule</title>
<polygon fill="none" stroke="black" stroke-dasharray="1,5" points="8,-32.8 8,-157.8 242,-157.8 242,-32.8 8,-32.8"/>
</g>
<g id="clust2" class="cluster">
<title>cluster_AdminRewardDialogModule_declarations</title>
<polygon fill="none" stroke="black" points="16,-40.8 16,-92.8 234,-92.8 234,-40.8 16,-40.8"/>
</g>
<!-- AdminRewardDialogComponent -->
<g id="node1" class="node">
<title>AdminRewardDialogComponent</title>
<polygon fill="#ffffb3" stroke="black" points="225.86,-84.8 24.14,-84.8 24.14,-48.8 225.86,-48.8 225.86,-84.8"/>
<text text-anchor="middle" x="125" y="-62.6" font-family="Times,serif" font-size="14.00">AdminRewardDialogComponent</text>
</g>
<!-- AdminRewardDialogModule -->
<g id="node2" class="node">
<title>AdminRewardDialogModule</title>
<polygon fill="#8dd3c7" stroke="black" points="215.07,-149.8 212.07,-153.8 191.07,-153.8 188.07,-149.8 34.93,-149.8 34.93,-113.8 215.07,-113.8 215.07,-149.8"/>
<text text-anchor="middle" x="125" y="-127.6" font-family="Times,serif" font-size="14.00">AdminRewardDialogModule</text>
</g>
<!-- AdminRewardDialogComponent&#45;&gt;AdminRewardDialogModule -->
<g id="edge1" class="edge">
<title>AdminRewardDialogComponent&#45;&gt;AdminRewardDialogModule</title>
<path fill="none" stroke="black" d="M125,-84.91C125,-84.91 125,-103.79 125,-103.79"/>
<polygon fill="black" stroke="black" points="121.5,-103.79 125,-113.79 128.5,-103.79 121.5,-103.79"/>
</g>
</g>
</svg>
