<?xml version="1.0" encoding="UTF-8" standalone="no"?>
<!DOCTYPE svg PUBLIC "-//W3C//DTD SVG 1.1//EN"
 "http://www.w3.org/Graphics/SVG/1.1/DTD/svg11.dtd">
<!-- Generated by graphviz version 2.47.3 (20210619.1520)
 -->
<!-- Title: dependencies Pages: 1 -->
<svg width="260pt" height="174pt"
 viewBox="0.00 0.00 260.00 173.80" xmlns="http://www.w3.org/2000/svg" xmlns:xlink="http://www.w3.org/1999/xlink">
<g id="graph0" class="graph" transform="scale(1 1) rotate(0) translate(4 169.8)">
<title>dependencies</title>
<polygon fill="white" stroke="transparent" points="-4,4 -4,-169.8 256,-169.8 256,4 -4,4"/>
<text text-anchor="middle" x="126" y="-8.2" font-family="sans-serif" font-size="14.00">dependencies</text>
<g id="clust1" class="cluster">
<title>cluster_RewardPartnerDialogModule</title>
<polygon fill="none" stroke="black" stroke-dasharray="1,5" points="8,-32.8 8,-157.8 244,-157.8 244,-32.8 8,-32.8"/>
</g>
<g id="clust2" class="cluster">
<title>cluster_RewardPartnerDialogModule_declarations</title>
<polygon fill="none" stroke="black" points="16,-40.8 16,-92.8 236,-92.8 236,-40.8 16,-40.8"/>
</g>
<!-- RewardPartnerDialogComponent -->
<g id="node1" class="node">
<title>RewardPartnerDialogComponent</title>
<polygon fill="#ffffb3" stroke="black" points="227.89,-84.8 24.11,-84.8 24.11,-48.8 227.89,-48.8 227.89,-84.8"/>
<text text-anchor="middle" x="126" y="-62.6" font-family="Times,serif" font-size="14.00">RewardPartnerDialogComponent</text>
</g>
<!-- RewardPartnerDialogModule -->
<g id="node2" class="node">
<title>RewardPartnerDialogModule</title>
<polygon fill="#8dd3c7" stroke="black" points="216.61,-149.8 213.61,-153.8 192.61,-153.8 189.61,-149.8 35.39,-149.8 35.39,-113.8 216.61,-113.8 216.61,-149.8"/>
<text text-anchor="middle" x="126" y="-127.6" font-family="Times,serif" font-size="14.00">RewardPartnerDialogModule</text>
</g>
<!-- RewardPartnerDialogComponent&#45;&gt;RewardPartnerDialogModule -->
<g id="edge1" class="edge">
<title>RewardPartnerDialogComponent&#45;&gt;RewardPartnerDialogModule</title>
<path fill="none" stroke="black" d="M126,-84.91C126,-84.91 126,-103.79 126,-103.79"/>
<polygon fill="black" stroke="black" points="122.5,-103.79 126,-113.79 129.5,-103.79 122.5,-103.79"/>
</g>
</g>
</svg>
