<?xml version="1.0" encoding="UTF-8" standalone="no"?>
<!DOCTYPE svg PUBLIC "-//W3C//DTD SVG 1.1//EN"
 "http://www.w3.org/Graphics/SVG/1.1/DTD/svg11.dtd">
<!-- Generated by graphviz version 2.47.3 (20210619.1520)
 -->
<!-- Title: dependencies Pages: 1 -->
<svg width="714pt" height="174pt"
 viewBox="0.00 0.00 714.00 173.80" xmlns="http://www.w3.org/2000/svg" xmlns:xlink="http://www.w3.org/1999/xlink">
<g id="graph0" class="graph" transform="scale(1 1) rotate(0) translate(4 169.8)">
<title>dependencies</title>
<polygon fill="white" stroke="transparent" points="-4,4 -4,-169.8 710,-169.8 710,4 -4,4"/>
<text text-anchor="middle" x="353" y="-8.2" font-family="sans-serif" font-size="14.00">dependencies</text>
<g id="clust1" class="cluster">
<title>cluster_CursusFilterDialogModule</title>
<polygon fill="none" stroke="black" stroke-dasharray="1,5" points="8,-32.8 8,-157.8 698,-157.8 698,-32.8 8,-32.8"/>
</g>
<g id="clust4" class="cluster">
<title>cluster_CursusFilterDialogModule_imports</title>
<polygon fill="none" stroke="black" points="510,-40.8 510,-92.8 690,-92.8 690,-40.8 510,-40.8"/>
</g>
<g id="clust7" class="cluster">
<title>cluster_CursusFilterDialogModule_providers</title>
<polygon fill="none" stroke="black" points="228,-40.8 228,-92.8 502,-92.8 502,-40.8 228,-40.8"/>
</g>
<g id="clust2" class="cluster">
<title>cluster_CursusFilterDialogModule_declarations</title>
<polygon fill="none" stroke="black" points="16,-40.8 16,-92.8 220,-92.8 220,-40.8 16,-40.8"/>
</g>
<!-- CursusFilterDialogComponent -->
<g id="node1" class="node">
<title>CursusFilterDialogComponent</title>
<polygon fill="#ffffb3" stroke="black" points="212.15,-84.8 23.85,-84.8 23.85,-48.8 212.15,-48.8 212.15,-84.8"/>
<text text-anchor="middle" x="118" y="-62.6" font-family="Times,serif" font-size="14.00">CursusFilterDialogComponent</text>
</g>
<!-- CursusFilterDialogModule -->
<g id="node2" class="node">
<title>CursusFilterDialogModule</title>
<polygon fill="#8dd3c7" stroke="black" points="451.37,-149.8 448.37,-153.8 427.37,-153.8 424.37,-149.8 284.63,-149.8 284.63,-113.8 451.37,-113.8 451.37,-149.8"/>
<text text-anchor="middle" x="368" y="-127.6" font-family="Times,serif" font-size="14.00">CursusFilterDialogModule</text>
</g>
<!-- CursusFilterDialogComponent&#45;&gt;CursusFilterDialogModule -->
<g id="edge1" class="edge">
<title>CursusFilterDialogComponent&#45;&gt;CursusFilterDialogModule</title>
<path fill="none" stroke="black" d="M118,-84.91C118,-104.14 118,-131.8 118,-131.8 118,-131.8 274.41,-131.8 274.41,-131.8"/>
<polygon fill="black" stroke="black" points="274.41,-135.3 284.41,-131.8 274.41,-128.3 274.41,-135.3"/>
</g>
<!-- SelectCardControlModule -->
<g id="node3" class="node">
<title>SelectCardControlModule</title>
<polygon fill="#8dd3c7" stroke="black" points="681.75,-84.8 678.75,-88.8 657.75,-88.8 654.75,-84.8 518.25,-84.8 518.25,-48.8 681.75,-48.8 681.75,-84.8"/>
<text text-anchor="middle" x="600" y="-62.6" font-family="Times,serif" font-size="14.00">SelectCardControlModule</text>
</g>
<!-- SelectCardControlModule&#45;&gt;CursusFilterDialogModule -->
<g id="edge2" class="edge">
<title>SelectCardControlModule&#45;&gt;CursusFilterDialogModule</title>
<path fill="none" stroke="black" d="M600,-84.91C600,-104.14 600,-131.8 600,-131.8 600,-131.8 461.43,-131.8 461.43,-131.8"/>
<polygon fill="black" stroke="black" points="461.43,-128.3 451.43,-131.8 461.43,-135.3 461.43,-128.3"/>
</g>
<!-- ExamClient -->
<g id="node4" class="node">
<title>ExamClient</title>
<ellipse fill="#fdb462" stroke="black" cx="437" cy="-66.8" rx="57.34" ry="18"/>
<text text-anchor="middle" x="437" y="-62.6" font-family="Times,serif" font-size="14.00">ExamClient</text>
</g>
<!-- ExamClient&#45;&gt;CursusFilterDialogModule -->
<g id="edge3" class="edge">
<title>ExamClient&#45;&gt;CursusFilterDialogModule</title>
<path fill="none" stroke="black" d="M415.63,-83.54C415.63,-83.54 415.63,-103.52 415.63,-103.52"/>
<polygon fill="black" stroke="black" points="412.13,-103.52 415.63,-113.52 419.13,-103.52 412.13,-103.52"/>
</g>
<!-- ExamService -->
<g id="node5" class="node">
<title>ExamService</title>
<ellipse fill="#fdb462" stroke="black" cx="299" cy="-66.8" rx="62.54" ry="18"/>
<text text-anchor="middle" x="299" y="-62.6" font-family="Times,serif" font-size="14.00">ExamService</text>
</g>
<!-- ExamService&#45;&gt;CursusFilterDialogModule -->
<g id="edge4" class="edge">
<title>ExamService&#45;&gt;CursusFilterDialogModule</title>
<path fill="none" stroke="black" d="M323.04,-83.54C323.04,-83.54 323.04,-103.52 323.04,-103.52"/>
<polygon fill="black" stroke="black" points="319.54,-103.52 323.04,-113.52 326.54,-103.52 319.54,-103.52"/>
</g>
</g>
</svg>
