<?xml version="1.0" encoding="UTF-8" standalone="no"?>
<!DOCTYPE svg PUBLIC "-//W3C//DTD SVG 1.1//EN"
 "http://www.w3.org/Graphics/SVG/1.1/DTD/svg11.dtd">
<!-- Generated by graphviz version 2.47.3 (20210619.1520)
 -->
<!-- Title: dependencies Pages: 1 -->
<svg width="508pt" height="247pt"
 viewBox="0.00 0.00 508.00 246.80" xmlns="http://www.w3.org/2000/svg" xmlns:xlink="http://www.w3.org/1999/xlink">
<g id="graph0" class="graph" transform="scale(1 1) rotate(0) translate(4 242.8)">
<title>dependencies</title>
<polygon fill="white" stroke="transparent" points="-4,4 -4,-242.8 504,-242.8 504,4 -4,4"/>
<text text-anchor="middle" x="250" y="-8.2" font-family="sans-serif" font-size="14.00">dependencies</text>
<g id="clust1" class="cluster">
<title>cluster_NavbarExpandModule</title>
<polygon fill="none" stroke="black" stroke-dasharray="1,5" points="8,-32.8 8,-230.8 492,-230.8 492,-32.8 8,-32.8"/>
</g>
<g id="clust2" class="cluster">
<title>cluster_NavbarExpandModule_declarations</title>
<polygon fill="none" stroke="black" points="302,-40.8 302,-92.8 484,-92.8 484,-40.8 302,-40.8"/>
</g>
<g id="clust4" class="cluster">
<title>cluster_NavbarExpandModule_imports</title>
<polygon fill="none" stroke="black" points="16,-40.8 16,-92.8 294,-92.8 294,-40.8 16,-40.8"/>
</g>
<g id="clust5" class="cluster">
<title>cluster_NavbarExpandModule_exports</title>
<polygon fill="none" stroke="black" points="149,-170.8 149,-222.8 333,-222.8 333,-170.8 149,-170.8"/>
</g>
<!-- NavbarExpandComponent -->
<g id="node1" class="node">
<title>NavbarExpandComponent</title>
<polygon fill="#ffffb3" stroke="black" points="475.8,-84.8 310.2,-84.8 310.2,-48.8 475.8,-48.8 475.8,-84.8"/>
<text text-anchor="middle" x="393" y="-62.6" font-family="Times,serif" font-size="14.00">NavbarExpandComponent</text>
</g>
<!-- NavbarExpandModule -->
<g id="node2" class="node">
<title>NavbarExpandModule</title>
<polygon fill="#8dd3c7" stroke="black" points="312.51,-149.8 309.51,-153.8 288.51,-153.8 285.51,-149.8 169.49,-149.8 169.49,-113.8 312.51,-113.8 312.51,-149.8"/>
<text text-anchor="middle" x="241" y="-127.6" font-family="Times,serif" font-size="14.00">NavbarExpandModule</text>
</g>
<!-- NavbarExpandComponent&#45;&gt;NavbarExpandModule -->
<g id="edge1" class="edge">
<title>NavbarExpandComponent&#45;&gt;NavbarExpandModule</title>
<path fill="none" stroke="black" d="M319.08,-84.91C319.08,-104.14 319.08,-131.8 319.08,-131.8 319.08,-131.8 318.44,-131.8 318.44,-131.8"/>
<polygon fill="black" stroke="black" points="322.69,-128.3 312.69,-131.8 322.69,-135.3 322.69,-128.3"/>
</g>
<!-- NavbarExpandComponent  -->
<g id="node5" class="node">
<title>NavbarExpandComponent </title>
<polygon fill="#fb8072" stroke="black" points="325.3,-214.8 156.7,-214.8 156.7,-178.8 325.3,-178.8 325.3,-214.8"/>
<text text-anchor="middle" x="241" y="-192.6" font-family="Times,serif" font-size="14.00">NavbarExpandComponent </text>
</g>
<!-- NavbarExpandModule&#45;&gt;NavbarExpandComponent  -->
<g id="edge4" class="edge">
<title>NavbarExpandModule&#45;&gt;NavbarExpandComponent </title>
<path fill="none" stroke="black" stroke-dasharray="5,2" d="M241,-149.91C241,-149.91 241,-168.79 241,-168.79"/>
<polygon fill="black" stroke="black" points="237.5,-168.79 241,-178.79 244.5,-168.79 237.5,-168.79"/>
</g>
<!-- LogoModule -->
<g id="node3" class="node">
<title>LogoModule</title>
<polygon fill="#8dd3c7" stroke="black" points="285.6,-84.8 282.6,-88.8 261.6,-88.8 258.6,-84.8 196.4,-84.8 196.4,-48.8 285.6,-48.8 285.6,-84.8"/>
<text text-anchor="middle" x="241" y="-62.6" font-family="Times,serif" font-size="14.00">LogoModule</text>
</g>
<!-- LogoModule&#45;&gt;NavbarExpandModule -->
<g id="edge2" class="edge">
<title>LogoModule&#45;&gt;NavbarExpandModule</title>
<path fill="none" stroke="black" d="M241,-84.91C241,-84.91 241,-103.79 241,-103.79"/>
<polygon fill="black" stroke="black" points="237.5,-103.79 241,-113.79 244.5,-103.79 237.5,-103.79"/>
</g>
<!-- NavigationMenuModule -->
<g id="node4" class="node">
<title>NavigationMenuModule</title>
<polygon fill="#8dd3c7" stroke="black" points="178.42,-84.8 175.42,-88.8 154.42,-88.8 151.42,-84.8 23.58,-84.8 23.58,-48.8 178.42,-48.8 178.42,-84.8"/>
<text text-anchor="middle" x="101" y="-62.6" font-family="Times,serif" font-size="14.00">NavigationMenuModule</text>
</g>
<!-- NavigationMenuModule&#45;&gt;NavbarExpandModule -->
<g id="edge3" class="edge">
<title>NavigationMenuModule&#45;&gt;NavbarExpandModule</title>
<path fill="none" stroke="black" d="M173.73,-84.91C173.73,-84.91 173.73,-103.79 173.73,-103.79"/>
<polygon fill="black" stroke="black" points="170.23,-103.79 173.73,-113.79 177.23,-103.79 170.23,-103.79"/>
</g>
</g>
</svg>
