<?xml version="1.0" encoding="UTF-8" standalone="no"?>
<!DOCTYPE svg PUBLIC "-//W3C//DTD SVG 1.1//EN"
 "http://www.w3.org/Graphics/SVG/1.1/DTD/svg11.dtd">
<!-- Generated by graphviz version 2.47.3 (20210619.1520)
 -->
<!-- Title: dependencies Pages: 1 -->
<svg width="1238pt" height="358pt"
 viewBox="0.00 0.00 1238.00 358.39" xmlns="http://www.w3.org/2000/svg" xmlns:xlink="http://www.w3.org/1999/xlink">
<g id="graph0" class="graph" transform="scale(1 1) rotate(0) translate(4 354.39)">
<title>dependencies</title>
<polygon fill="white" stroke="transparent" points="-4,4 -4,-354.39 1234,-354.39 1234,4 -4,4"/>
<text text-anchor="middle" x="615" y="-8.2" font-family="sans-serif" font-size="14.00">dependencies</text>
<g id="clust1" class="cluster">
<title>cluster_SelectMultiCardMultipleControlModule</title>
<polygon fill="none" stroke="black" stroke-dasharray="1,5" points="8,-32.8 8,-342.39 1222,-342.39 1222,-32.8 8,-32.8"/>
</g>
<g id="clust3" class="cluster">
<title>cluster_SelectMultiCardMultipleControlModule_SelectMultiCardMultipleControlComponent_providers</title>
<polygon fill="none" stroke="black" points="160,-40.8 160,-204.39 1214,-204.39 1214,-40.8 160,-40.8"/>
</g>
<g id="clust5" class="cluster">
<title>cluster_SelectMultiCardMultipleControlModule_exports</title>
<polygon fill="none" stroke="black" points="87,-282.39 87,-334.39 371,-334.39 371,-282.39 87,-282.39"/>
</g>
<g id="clust4" class="cluster">
<title>cluster_SelectMultiCardMultipleControlModule_imports</title>
<polygon fill="none" stroke="black" points="16,-152.39 16,-204.39 152,-204.39 152,-152.39 16,-152.39"/>
</g>
<!-- SelectMultiCardMultipleControlComponent -->
<g id="node1" class="node">
<title>SelectMultiCardMultipleControlComponent</title>
<polygon fill="#ffffb3" stroke="black" points="625.37,-196.39 360.63,-196.39 360.63,-160.39 625.37,-160.39 625.37,-196.39"/>
<text text-anchor="middle" x="493" y="-174.19" font-family="Times,serif" font-size="14.00">SelectMultiCardMultipleControlComponent</text>
</g>
<!-- SelectMultiCardMultipleControlModule -->
<g id="node2" class="node">
<title>SelectMultiCardMultipleControlModule</title>
<polygon fill="#8dd3c7" stroke="black" points="350.59,-261.39 347.59,-265.39 326.59,-265.39 323.59,-261.39 107.41,-261.39 107.41,-225.39 350.59,-225.39 350.59,-261.39"/>
<text text-anchor="middle" x="229" y="-239.19" font-family="Times,serif" font-size="14.00">SelectMultiCardMultipleControlModule</text>
</g>
<!-- SelectMultiCardMultipleControlComponent&#45;&gt;SelectMultiCardMultipleControlModule -->
<g id="edge1" class="edge">
<title>SelectMultiCardMultipleControlComponent&#45;&gt;SelectMultiCardMultipleControlModule</title>
<path fill="none" stroke="black" d="M360.35,-178.39C307.56,-178.39 259.13,-178.39 259.13,-178.39 259.13,-178.39 259.13,-215.28 259.13,-215.28"/>
<polygon fill="black" stroke="black" points="255.63,-215.28 259.13,-225.28 262.63,-215.28 255.63,-215.28"/>
</g>
<!-- SelectMultiCardMultipleControlComponent  -->
<g id="node5" class="node">
<title>SelectMultiCardMultipleControlComponent </title>
<polygon fill="#fb8072" stroke="black" points="363.37,-326.39 94.63,-326.39 94.63,-290.39 363.37,-290.39 363.37,-326.39"/>
<text text-anchor="middle" x="229" y="-304.19" font-family="Times,serif" font-size="14.00">SelectMultiCardMultipleControlComponent </text>
</g>
<!-- SelectMultiCardMultipleControlModule&#45;&gt;SelectMultiCardMultipleControlComponent  -->
<g id="edge4" class="edge">
<title>SelectMultiCardMultipleControlModule&#45;&gt;SelectMultiCardMultipleControlComponent </title>
<path fill="none" stroke="black" stroke-dasharray="5,2" d="M229,-261.5C229,-261.5 229,-280.38 229,-280.38"/>
<polygon fill="black" stroke="black" points="225.5,-280.38 229,-290.38 232.5,-280.38 225.5,-280.38"/>
</g>
<!-- {
 &#160;&#160;&#160;provide: NG_VALUE_ACCESSOR, useExisting: forwardRef(() =&gt; SelectMultiCardMultipleControlComponent), multi: true
} -->
<g id="node3" class="node">
<title>{
 &#160;&#160;&#160;provide: NG_VALUE_ACCESSOR, useExisting: forwardRef(() =&gt; SelectMultiCardMultipleControlComponent), multi: true
}</title>
<ellipse fill="#fdb462" stroke="black" cx="687" cy="-90.1" rx="519.08" ry="41.09"/>
<text text-anchor="middle" x="687" y="-102.7" font-family="Times,serif" font-size="14.00">{</text>
<text text-anchor="middle" x="687" y="-85.9" font-family="Times,serif" font-size="14.00"> &#160;&#160;&#160;provide: NG_VALUE_ACCESSOR, useExisting: forwardRef(() =&gt; SelectMultiCardMultipleControlComponent), multi: true</text>
<text text-anchor="middle" x="687" y="-69.1" font-family="Times,serif" font-size="14.00">}</text>
</g>
<!-- {
 &#160;&#160;&#160;provide: NG_VALUE_ACCESSOR, useExisting: forwardRef(() =&gt; SelectMultiCardMultipleControlComponent), multi: true
}&#45;&gt;SelectMultiCardMultipleControlComponent -->
<g id="edge2" class="edge">
<title>{
 &#160;&#160;&#160;provide: NG_VALUE_ACCESSOR, useExisting: forwardRef(() =&gt; SelectMultiCardMultipleControlComponent), multi: true
}&#45;&gt;SelectMultiCardMultipleControlComponent</title>
<path fill="none" stroke="black" d="M493,-128.57C493,-128.57 493,-150.13 493,-150.13"/>
<polygon fill="black" stroke="black" points="489.5,-150.13 493,-160.13 496.5,-150.13 489.5,-150.13"/>
</g>
<!-- SelectCardModule -->
<g id="node4" class="node">
<title>SelectCardModule</title>
<polygon fill="#8dd3c7" stroke="black" points="144.47,-196.39 141.47,-200.39 120.47,-200.39 117.47,-196.39 23.53,-196.39 23.53,-160.39 144.47,-160.39 144.47,-196.39"/>
<text text-anchor="middle" x="84" y="-174.19" font-family="Times,serif" font-size="14.00">SelectCardModule</text>
</g>
<!-- SelectCardModule&#45;&gt;SelectMultiCardMultipleControlModule -->
<g id="edge3" class="edge">
<title>SelectCardModule&#45;&gt;SelectMultiCardMultipleControlModule</title>
<path fill="none" stroke="black" d="M125.97,-196.5C125.97,-196.5 125.97,-215.38 125.97,-215.38"/>
<polygon fill="black" stroke="black" points="122.47,-215.38 125.97,-225.38 129.47,-215.38 122.47,-215.38"/>
</g>
</g>
</svg>
