<?xml version="1.0" encoding="UTF-8" standalone="no"?>
<!DOCTYPE svg PUBLIC "-//W3C//DTD SVG 1.1//EN"
 "http://www.w3.org/Graphics/SVG/1.1/DTD/svg11.dtd">
<!-- Generated by graphviz version 2.47.3 (20210619.1520)
 -->
<!-- Title: dependencies Pages: 1 -->
<svg width="318pt" height="247pt"
 viewBox="0.00 0.00 318.00 246.80" xmlns="http://www.w3.org/2000/svg" xmlns:xlink="http://www.w3.org/1999/xlink">
<g id="graph0" class="graph" transform="scale(1 1) rotate(0) translate(4 242.8)">
<title>dependencies</title>
<polygon fill="white" stroke="transparent" points="-4,4 -4,-242.8 314,-242.8 314,4 -4,4"/>
<text text-anchor="middle" x="155" y="-8.2" font-family="sans-serif" font-size="14.00">dependencies</text>
<g id="clust1" class="cluster">
<title>cluster_StainModule</title>
<polygon fill="none" stroke="black" stroke-dasharray="1,5" points="8,-32.8 8,-230.8 302,-230.8 302,-32.8 8,-32.8"/>
</g>
<g id="clust5" class="cluster">
<title>cluster_StainModule_exports</title>
<polygon fill="none" stroke="black" points="93,-170.8 93,-222.8 223,-222.8 223,-170.8 93,-170.8"/>
</g>
<g id="clust2" class="cluster">
<title>cluster_StainModule_declarations</title>
<polygon fill="none" stroke="black" points="168,-40.8 168,-92.8 294,-92.8 294,-40.8 168,-40.8"/>
</g>
<g id="clust4" class="cluster">
<title>cluster_StainModule_imports</title>
<polygon fill="none" stroke="black" points="16,-40.8 16,-92.8 160,-92.8 160,-40.8 16,-40.8"/>
</g>
<!-- StainComponent -->
<g id="node1" class="node">
<title>StainComponent</title>
<polygon fill="#ffffb3" stroke="black" points="286.11,-84.8 175.89,-84.8 175.89,-48.8 286.11,-48.8 286.11,-84.8"/>
<text text-anchor="middle" x="231" y="-62.6" font-family="Times,serif" font-size="14.00">StainComponent</text>
</g>
<!-- StainModule -->
<g id="node2" class="node">
<title>StainModule</title>
<polygon fill="#8dd3c7" stroke="black" points="202.33,-149.8 199.33,-153.8 178.33,-153.8 175.33,-149.8 113.67,-149.8 113.67,-113.8 202.33,-113.8 202.33,-149.8"/>
<text text-anchor="middle" x="158" y="-127.6" font-family="Times,serif" font-size="14.00">StainModule</text>
</g>
<!-- StainComponent&#45;&gt;StainModule -->
<g id="edge1" class="edge">
<title>StainComponent&#45;&gt;StainModule</title>
<path fill="none" stroke="black" d="M189.05,-84.91C189.05,-84.91 189.05,-103.79 189.05,-103.79"/>
<polygon fill="black" stroke="black" points="185.55,-103.79 189.05,-113.79 192.55,-103.79 185.55,-103.79"/>
</g>
<!-- StainComponent  -->
<g id="node4" class="node">
<title>StainComponent </title>
<polygon fill="#fb8072" stroke="black" points="214.61,-214.8 101.39,-214.8 101.39,-178.8 214.61,-178.8 214.61,-214.8"/>
<text text-anchor="middle" x="158" y="-192.6" font-family="Times,serif" font-size="14.00">StainComponent </text>
</g>
<!-- StainModule&#45;&gt;StainComponent  -->
<g id="edge3" class="edge">
<title>StainModule&#45;&gt;StainComponent </title>
<path fill="none" stroke="black" stroke-dasharray="5,2" d="M158,-149.91C158,-149.91 158,-168.79 158,-168.79"/>
<polygon fill="black" stroke="black" points="154.5,-168.79 158,-178.79 161.5,-168.79 154.5,-168.79"/>
</g>
<!-- ScaleCenterModule -->
<g id="node3" class="node">
<title>ScaleCenterModule</title>
<polygon fill="#8dd3c7" stroke="black" points="151.68,-84.8 148.68,-88.8 127.68,-88.8 124.68,-84.8 24.32,-84.8 24.32,-48.8 151.68,-48.8 151.68,-84.8"/>
<text text-anchor="middle" x="88" y="-62.6" font-family="Times,serif" font-size="14.00">ScaleCenterModule</text>
</g>
<!-- ScaleCenterModule&#45;&gt;StainModule -->
<g id="edge2" class="edge">
<title>ScaleCenterModule&#45;&gt;StainModule</title>
<path fill="none" stroke="black" d="M132.71,-84.91C132.71,-84.91 132.71,-103.79 132.71,-103.79"/>
<polygon fill="black" stroke="black" points="129.21,-103.79 132.71,-113.79 136.21,-103.79 129.21,-103.79"/>
</g>
</g>
</svg>
