<?xml version="1.0" encoding="UTF-8" standalone="no"?>
<!DOCTYPE svg PUBLIC "-//W3C//DTD SVG 1.1//EN"
 "http://www.w3.org/Graphics/SVG/1.1/DTD/svg11.dtd">
<!-- Generated by graphviz version 2.47.3 (20210619.1520)
 -->
<!-- Title: dependencies Pages: 1 -->
<svg width="616pt" height="247pt"
 viewBox="0.00 0.00 616.00 246.80" xmlns="http://www.w3.org/2000/svg" xmlns:xlink="http://www.w3.org/1999/xlink">
<g id="graph0" class="graph" transform="scale(1 1) rotate(0) translate(4 242.8)">
<title>dependencies</title>
<polygon fill="white" stroke="transparent" points="-4,4 -4,-242.8 612,-242.8 612,4 -4,4"/>
<text text-anchor="middle" x="304" y="-8.2" font-family="sans-serif" font-size="14.00">dependencies</text>
<g id="clust1" class="cluster">
<title>cluster_ExpeditionDetailsModule</title>
<polygon fill="none" stroke="black" stroke-dasharray="1,5" points="8,-32.8 8,-230.8 600,-230.8 600,-32.8 8,-32.8"/>
</g>
<g id="clust2" class="cluster">
<title>cluster_ExpeditionDetailsModule_declarations</title>
<polygon fill="none" stroke="black" points="394,-40.8 394,-92.8 592,-92.8 592,-40.8 394,-40.8"/>
</g>
<g id="clust4" class="cluster">
<title>cluster_ExpeditionDetailsModule_imports</title>
<polygon fill="none" stroke="black" points="16,-40.8 16,-92.8 386,-92.8 386,-40.8 16,-40.8"/>
</g>
<g id="clust5" class="cluster">
<title>cluster_ExpeditionDetailsModule_exports</title>
<polygon fill="none" stroke="black" points="185,-170.8 185,-222.8 387,-222.8 387,-170.8 185,-170.8"/>
</g>
<!-- ExpeditionDetailsComponent -->
<g id="node1" class="node">
<title>ExpeditionDetailsComponent</title>
<polygon fill="#ffffb3" stroke="black" points="584.42,-84.8 401.58,-84.8 401.58,-48.8 584.42,-48.8 584.42,-84.8"/>
<text text-anchor="middle" x="493" y="-62.6" font-family="Times,serif" font-size="14.00">ExpeditionDetailsComponent</text>
</g>
<!-- ExpeditionDetailsModule -->
<g id="node2" class="node">
<title>ExpeditionDetailsModule</title>
<polygon fill="#8dd3c7" stroke="black" points="366.14,-149.8 363.14,-153.8 342.14,-153.8 339.14,-149.8 205.86,-149.8 205.86,-113.8 366.14,-113.8 366.14,-149.8"/>
<text text-anchor="middle" x="286" y="-127.6" font-family="Times,serif" font-size="14.00">ExpeditionDetailsModule</text>
</g>
<!-- ExpeditionDetailsComponent&#45;&gt;ExpeditionDetailsModule -->
<g id="edge1" class="edge">
<title>ExpeditionDetailsComponent&#45;&gt;ExpeditionDetailsModule</title>
<path fill="none" stroke="black" d="M493,-84.91C493,-104.14 493,-131.8 493,-131.8 493,-131.8 376.33,-131.8 376.33,-131.8"/>
<polygon fill="black" stroke="black" points="376.33,-128.3 366.33,-131.8 376.33,-135.3 376.33,-128.3"/>
</g>
<!-- ExpeditionDetailsComponent  -->
<g id="node5" class="node">
<title>ExpeditionDetailsComponent </title>
<polygon fill="#fb8072" stroke="black" points="378.92,-214.8 193.08,-214.8 193.08,-178.8 378.92,-178.8 378.92,-214.8"/>
<text text-anchor="middle" x="286" y="-192.6" font-family="Times,serif" font-size="14.00">ExpeditionDetailsComponent </text>
</g>
<!-- ExpeditionDetailsModule&#45;&gt;ExpeditionDetailsComponent  -->
<g id="edge4" class="edge">
<title>ExpeditionDetailsModule&#45;&gt;ExpeditionDetailsComponent </title>
<path fill="none" stroke="black" stroke-dasharray="5,2" d="M286,-149.91C286,-149.91 286,-168.79 286,-168.79"/>
<polygon fill="black" stroke="black" points="282.5,-168.79 286,-178.79 289.5,-168.79 282.5,-168.79"/>
</g>
<!-- ExpeditionStepsStaticModule -->
<g id="node3" class="node">
<title>ExpeditionStepsStaticModule</title>
<polygon fill="#8dd3c7" stroke="black" points="377.7,-84.8 374.7,-88.8 353.7,-88.8 350.7,-84.8 194.3,-84.8 194.3,-48.8 377.7,-48.8 377.7,-84.8"/>
<text text-anchor="middle" x="286" y="-62.6" font-family="Times,serif" font-size="14.00">ExpeditionStepsStaticModule</text>
</g>
<!-- ExpeditionStepsStaticModule&#45;&gt;ExpeditionDetailsModule -->
<g id="edge2" class="edge">
<title>ExpeditionStepsStaticModule&#45;&gt;ExpeditionDetailsModule</title>
<path fill="none" stroke="black" d="M286,-84.91C286,-84.91 286,-103.79 286,-103.79"/>
<polygon fill="black" stroke="black" points="282.5,-103.79 286,-113.79 289.5,-103.79 282.5,-103.79"/>
</g>
<!-- SimpleTemplateModule -->
<g id="node4" class="node">
<title>SimpleTemplateModule</title>
<polygon fill="#8dd3c7" stroke="black" points="176.09,-84.8 173.09,-88.8 152.09,-88.8 149.09,-84.8 23.91,-84.8 23.91,-48.8 176.09,-48.8 176.09,-84.8"/>
<text text-anchor="middle" x="100" y="-62.6" font-family="Times,serif" font-size="14.00">SimpleTemplateModule</text>
</g>
<!-- SimpleTemplateModule&#45;&gt;ExpeditionDetailsModule -->
<g id="edge3" class="edge">
<title>SimpleTemplateModule&#45;&gt;ExpeditionDetailsModule</title>
<path fill="none" stroke="black" d="M100,-84.91C100,-104.14 100,-131.8 100,-131.8 100,-131.8 195.77,-131.8 195.77,-131.8"/>
<polygon fill="black" stroke="black" points="195.77,-135.3 205.77,-131.8 195.77,-128.3 195.77,-135.3"/>
</g>
</g>
</svg>
