<?xml version="1.0" encoding="UTF-8" standalone="no"?>
<!DOCTYPE svg PUBLIC "-//W3C//DTD SVG 1.1//EN"
 "http://www.w3.org/Graphics/SVG/1.1/DTD/svg11.dtd">
<!-- Generated by graphviz version 2.47.3 (20210619.1520)
 -->
<!-- Title: dependencies Pages: 1 -->
<svg width="440pt" height="247pt"
 viewBox="0.00 0.00 440.00 246.80" xmlns="http://www.w3.org/2000/svg" xmlns:xlink="http://www.w3.org/1999/xlink">
<g id="graph0" class="graph" transform="scale(1 1) rotate(0) translate(4 242.8)">
<title>dependencies</title>
<polygon fill="white" stroke="transparent" points="-4,4 -4,-242.8 436,-242.8 436,4 -4,4"/>
<text text-anchor="middle" x="216" y="-8.2" font-family="sans-serif" font-size="14.00">dependencies</text>
<g id="clust1" class="cluster">
<title>cluster_NavigateToTabModule</title>
<polygon fill="none" stroke="black" stroke-dasharray="1,5" points="8,-32.8 8,-230.8 424,-230.8 424,-32.8 8,-32.8"/>
</g>
<g id="clust7" class="cluster">
<title>cluster_NavigateToTabModule_providers</title>
<polygon fill="none" stroke="black" points="196,-40.8 196,-92.8 416,-92.8 416,-40.8 196,-40.8"/>
</g>
<g id="clust5" class="cluster">
<title>cluster_NavigateToTabModule_exports</title>
<polygon fill="none" stroke="black" points="117,-170.8 117,-222.8 293,-222.8 293,-170.8 117,-170.8"/>
</g>
<g id="clust2" class="cluster">
<title>cluster_NavigateToTabModule_declarations</title>
<polygon fill="none" stroke="black" points="16,-40.8 16,-92.8 188,-92.8 188,-40.8 16,-40.8"/>
</g>
<!-- NavigateToTabDirective -->
<g id="node1" class="node">
<title>NavigateToTabDirective</title>
<polygon fill="#ffffb3" stroke="black" points="179.93,-84.8 24.07,-84.8 24.07,-48.8 179.93,-48.8 179.93,-84.8"/>
<text text-anchor="middle" x="102" y="-62.6" font-family="Times,serif" font-size="14.00">NavigateToTabDirective</text>
</g>
<!-- NavigateToTabModule -->
<g id="node2" class="node">
<title>NavigateToTabModule</title>
<polygon fill="#8dd3c7" stroke="black" points="278.9,-149.8 275.9,-153.8 254.9,-153.8 251.9,-149.8 131.1,-149.8 131.1,-113.8 278.9,-113.8 278.9,-149.8"/>
<text text-anchor="middle" x="205" y="-127.6" font-family="Times,serif" font-size="14.00">NavigateToTabModule</text>
</g>
<!-- NavigateToTabDirective&#45;&gt;NavigateToTabModule -->
<g id="edge1" class="edge">
<title>NavigateToTabDirective&#45;&gt;NavigateToTabModule</title>
<path fill="none" stroke="black" d="M155.63,-84.91C155.63,-84.91 155.63,-103.79 155.63,-103.79"/>
<polygon fill="black" stroke="black" points="152.13,-103.79 155.63,-113.79 159.13,-103.79 152.13,-103.79"/>
</g>
<!-- NavigateToTabDirective  -->
<g id="node3" class="node">
<title>NavigateToTabDirective </title>
<polygon fill="#fb8072" stroke="black" points="284.93,-214.8 125.07,-214.8 125.07,-178.8 284.93,-178.8 284.93,-214.8"/>
<text text-anchor="middle" x="205" y="-192.6" font-family="Times,serif" font-size="14.00">NavigateToTabDirective </text>
</g>
<!-- NavigateToTabModule&#45;&gt;NavigateToTabDirective  -->
<g id="edge2" class="edge">
<title>NavigateToTabModule&#45;&gt;NavigateToTabDirective </title>
<path fill="none" stroke="black" stroke-dasharray="5,2" d="M205,-149.91C205,-149.91 205,-168.79 205,-168.79"/>
<polygon fill="black" stroke="black" points="201.5,-168.79 205,-178.79 208.5,-168.79 201.5,-168.79"/>
</g>
<!-- NavigationStateService -->
<g id="node4" class="node">
<title>NavigationStateService</title>
<ellipse fill="#fdb462" stroke="black" cx="306" cy="-66.8" rx="102.42" ry="18"/>
<text text-anchor="middle" x="306" y="-62.6" font-family="Times,serif" font-size="14.00">NavigationStateService</text>
</g>
<!-- NavigationStateService&#45;&gt;NavigateToTabModule -->
<g id="edge3" class="edge">
<title>NavigationStateService&#45;&gt;NavigateToTabModule</title>
<path fill="none" stroke="black" d="M241.24,-80.9C241.24,-80.9 241.24,-103.52 241.24,-103.52"/>
<polygon fill="black" stroke="black" points="237.75,-103.52 241.24,-113.52 244.75,-103.52 237.75,-103.52"/>
</g>
</g>
</svg>
