<?xml version="1.0" encoding="UTF-8" standalone="no"?>
<!DOCTYPE svg PUBLIC "-//W3C//DTD SVG 1.1//EN"
 "http://www.w3.org/Graphics/SVG/1.1/DTD/svg11.dtd">
<!-- Generated by graphviz version 2.47.3 (20210619.1520)
 -->
<!-- Title: dependencies Pages: 1 -->
<svg width="546pt" height="247pt"
 viewBox="0.00 0.00 546.00 246.80" xmlns="http://www.w3.org/2000/svg" xmlns:xlink="http://www.w3.org/1999/xlink">
<g id="graph0" class="graph" transform="scale(1 1) rotate(0) translate(4 242.8)">
<title>dependencies</title>
<polygon fill="white" stroke="transparent" points="-4,4 -4,-242.8 542,-242.8 542,4 -4,4"/>
<text text-anchor="middle" x="269" y="-8.2" font-family="sans-serif" font-size="14.00">dependencies</text>
<g id="clust1" class="cluster">
<title>cluster_HumanStepsModule</title>
<polygon fill="none" stroke="black" stroke-dasharray="1,5" points="8,-32.8 8,-230.8 530,-230.8 530,-32.8 8,-32.8"/>
</g>
<g id="clust2" class="cluster">
<title>cluster_HumanStepsModule_declarations</title>
<polygon fill="none" stroke="black" points="188,-40.8 188,-92.8 522,-92.8 522,-40.8 188,-40.8"/>
</g>
<g id="clust5" class="cluster">
<title>cluster_HumanStepsModule_imports</title>
<polygon fill="none" stroke="black" points="16,-40.8 16,-92.8 180,-92.8 180,-40.8 16,-40.8"/>
</g>
<g id="clust6" class="cluster">
<title>cluster_HumanStepsModule_exports</title>
<polygon fill="none" stroke="black" points="186,-170.8 186,-222.8 358,-222.8 358,-170.8 186,-170.8"/>
</g>
<!-- HumanStepComponent -->
<g id="node1" class="node">
<title>HumanStepComponent</title>
<polygon fill="#ffffb3" stroke="black" points="513.93,-84.8 366.07,-84.8 366.07,-48.8 513.93,-48.8 513.93,-84.8"/>
<text text-anchor="middle" x="440" y="-62.6" font-family="Times,serif" font-size="14.00">HumanStepComponent</text>
</g>
<!-- HumanStepsModule -->
<g id="node3" class="node">
<title>HumanStepsModule</title>
<polygon fill="#8dd3c7" stroke="black" points="337.59,-149.8 334.59,-153.8 313.59,-153.8 310.59,-149.8 206.41,-149.8 206.41,-113.8 337.59,-113.8 337.59,-149.8"/>
<text text-anchor="middle" x="272" y="-127.6" font-family="Times,serif" font-size="14.00">HumanStepsModule</text>
</g>
<!-- HumanStepComponent&#45;&gt;HumanStepsModule -->
<g id="edge1" class="edge">
<title>HumanStepComponent&#45;&gt;HumanStepsModule</title>
<path fill="none" stroke="black" d="M440,-84.91C440,-104.14 440,-131.8 440,-131.8 440,-131.8 347.92,-131.8 347.92,-131.8"/>
<polygon fill="black" stroke="black" points="347.92,-128.3 337.92,-131.8 347.92,-135.3 347.92,-128.3"/>
</g>
<!-- HumanStepsComponent -->
<g id="node2" class="node">
<title>HumanStepsComponent</title>
<polygon fill="#ffffb3" stroke="black" points="348.38,-84.8 195.62,-84.8 195.62,-48.8 348.38,-48.8 348.38,-84.8"/>
<text text-anchor="middle" x="272" y="-62.6" font-family="Times,serif" font-size="14.00">HumanStepsComponent</text>
</g>
<!-- HumanStepsComponent&#45;&gt;HumanStepsModule -->
<g id="edge2" class="edge">
<title>HumanStepsComponent&#45;&gt;HumanStepsModule</title>
<path fill="none" stroke="black" d="M272,-84.91C272,-84.91 272,-103.79 272,-103.79"/>
<polygon fill="black" stroke="black" points="268.5,-103.79 272,-113.79 275.5,-103.79 268.5,-103.79"/>
</g>
<!-- HumanStepsComponent  -->
<g id="node5" class="node">
<title>HumanStepsComponent </title>
<polygon fill="#fb8072" stroke="black" points="350.38,-214.8 193.62,-214.8 193.62,-178.8 350.38,-178.8 350.38,-214.8"/>
<text text-anchor="middle" x="272" y="-192.6" font-family="Times,serif" font-size="14.00">HumanStepsComponent </text>
</g>
<!-- HumanStepsModule&#45;&gt;HumanStepsComponent  -->
<g id="edge4" class="edge">
<title>HumanStepsModule&#45;&gt;HumanStepsComponent </title>
<path fill="none" stroke="black" stroke-dasharray="5,2" d="M272,-149.91C272,-149.91 272,-168.79 272,-168.79"/>
<polygon fill="black" stroke="black" points="268.5,-168.79 272,-178.79 275.5,-168.79 268.5,-168.79"/>
</g>
<!-- StepsAccordionModule -->
<g id="node4" class="node">
<title>StepsAccordionModule</title>
<polygon fill="#8dd3c7" stroke="black" points="172.47,-84.8 169.47,-88.8 148.47,-88.8 145.47,-84.8 23.53,-84.8 23.53,-48.8 172.47,-48.8 172.47,-84.8"/>
<text text-anchor="middle" x="98" y="-62.6" font-family="Times,serif" font-size="14.00">StepsAccordionModule</text>
</g>
<!-- StepsAccordionModule&#45;&gt;HumanStepsModule -->
<g id="edge3" class="edge">
<title>StepsAccordionModule&#45;&gt;HumanStepsModule</title>
<path fill="none" stroke="black" d="M98,-84.91C98,-104.14 98,-131.8 98,-131.8 98,-131.8 196.22,-131.8 196.22,-131.8"/>
<polygon fill="black" stroke="black" points="196.22,-135.3 206.22,-131.8 196.22,-128.3 196.22,-135.3"/>
</g>
</g>
</svg>
