<?xml version="1.0" encoding="UTF-8" standalone="no"?>
<!DOCTYPE svg PUBLIC "-//W3C//DTD SVG 1.1//EN"
 "http://www.w3.org/Graphics/SVG/1.1/DTD/svg11.dtd">
<!-- Generated by graphviz version 2.47.3 (20210619.1520)
 -->
<!-- Title: dependencies Pages: 1 -->
<svg width="312pt" height="247pt"
 viewBox="0.00 0.00 312.00 246.80" xmlns="http://www.w3.org/2000/svg" xmlns:xlink="http://www.w3.org/1999/xlink">
<g id="graph0" class="graph" transform="scale(1 1) rotate(0) translate(4 242.8)">
<title>dependencies</title>
<polygon fill="white" stroke="transparent" points="-4,4 -4,-242.8 308,-242.8 308,4 -4,4"/>
<text text-anchor="middle" x="152" y="-8.2" font-family="sans-serif" font-size="14.00">dependencies</text>
<g id="clust1" class="cluster">
<title>cluster_MyRegionModule</title>
<polygon fill="none" stroke="black" stroke-dasharray="1,5" points="8,-32.8 8,-230.8 296,-230.8 296,-32.8 8,-32.8"/>
</g>
<g id="clust4" class="cluster">
<title>cluster_MyRegionModule_imports</title>
<polygon fill="none" stroke="black" points="182,-40.8 182,-92.8 288,-92.8 288,-40.8 182,-40.8"/>
</g>
<g id="clust2" class="cluster">
<title>cluster_MyRegionModule_declarations</title>
<polygon fill="none" stroke="black" points="16,-40.8 16,-92.8 174,-92.8 174,-40.8 16,-40.8"/>
</g>
<g id="clust5" class="cluster">
<title>cluster_MyRegionModule_exports</title>
<polygon fill="none" stroke="black" points="72,-170.8 72,-222.8 232,-222.8 232,-170.8 72,-170.8"/>
</g>
<!-- MyRegionComponent -->
<g id="node1" class="node">
<title>MyRegionComponent</title>
<polygon fill="#ffffb3" stroke="black" points="165.72,-84.8 24.28,-84.8 24.28,-48.8 165.72,-48.8 165.72,-84.8"/>
<text text-anchor="middle" x="95" y="-62.6" font-family="Times,serif" font-size="14.00">MyRegionComponent</text>
</g>
<!-- MyRegionModule -->
<g id="node2" class="node">
<title>MyRegionModule</title>
<polygon fill="#8dd3c7" stroke="black" points="211.94,-149.8 208.94,-153.8 187.94,-153.8 184.94,-149.8 92.06,-149.8 92.06,-113.8 211.94,-113.8 211.94,-149.8"/>
<text text-anchor="middle" x="152" y="-127.6" font-family="Times,serif" font-size="14.00">MyRegionModule</text>
</g>
<!-- MyRegionComponent&#45;&gt;MyRegionModule -->
<g id="edge1" class="edge">
<title>MyRegionComponent&#45;&gt;MyRegionModule</title>
<path fill="none" stroke="black" d="M128.95,-84.91C128.95,-84.91 128.95,-103.79 128.95,-103.79"/>
<polygon fill="black" stroke="black" points="125.45,-103.79 128.95,-113.79 132.45,-103.79 125.45,-103.79"/>
</g>
<!-- MyRegionComponent  -->
<g id="node4" class="node">
<title>MyRegionComponent </title>
<polygon fill="#fb8072" stroke="black" points="224.22,-214.8 79.78,-214.8 79.78,-178.8 224.22,-178.8 224.22,-214.8"/>
<text text-anchor="middle" x="152" y="-192.6" font-family="Times,serif" font-size="14.00">MyRegionComponent </text>
</g>
<!-- MyRegionModule&#45;&gt;MyRegionComponent  -->
<g id="edge3" class="edge">
<title>MyRegionModule&#45;&gt;MyRegionComponent </title>
<path fill="none" stroke="black" stroke-dasharray="5,2" d="M152,-149.91C152,-149.91 152,-168.79 152,-168.79"/>
<polygon fill="black" stroke="black" points="148.5,-168.79 152,-178.79 155.5,-168.79 148.5,-168.79"/>
</g>
<!-- LogoModule -->
<g id="node3" class="node">
<title>LogoModule</title>
<polygon fill="#8dd3c7" stroke="black" points="279.6,-84.8 276.6,-88.8 255.6,-88.8 252.6,-84.8 190.4,-84.8 190.4,-48.8 279.6,-48.8 279.6,-84.8"/>
<text text-anchor="middle" x="235" y="-62.6" font-family="Times,serif" font-size="14.00">LogoModule</text>
</g>
<!-- LogoModule&#45;&gt;MyRegionModule -->
<g id="edge2" class="edge">
<title>LogoModule&#45;&gt;MyRegionModule</title>
<path fill="none" stroke="black" d="M201.08,-84.91C201.08,-84.91 201.08,-103.79 201.08,-103.79"/>
<polygon fill="black" stroke="black" points="197.58,-103.79 201.08,-113.79 204.58,-103.79 197.58,-103.79"/>
</g>
</g>
</svg>
