<?xml version="1.0" encoding="UTF-8" standalone="no"?>
<!DOCTYPE svg PUBLIC "-//W3C//DTD SVG 1.1//EN"
 "http://www.w3.org/Graphics/SVG/1.1/DTD/svg11.dtd">
<!-- Generated by graphviz version 2.47.3 (20210619.1520)
 -->
<!-- Title: dependencies Pages: 1 -->
<svg width="711pt" height="247pt"
 viewBox="0.00 0.00 711.00 246.80" xmlns="http://www.w3.org/2000/svg" xmlns:xlink="http://www.w3.org/1999/xlink">
<g id="graph0" class="graph" transform="scale(1 1) rotate(0) translate(4 242.8)">
<title>dependencies</title>
<polygon fill="white" stroke="transparent" points="-4,4 -4,-242.8 707,-242.8 707,4 -4,4"/>
<text text-anchor="middle" x="351.5" y="-8.2" font-family="sans-serif" font-size="14.00">dependencies</text>
<g id="clust1" class="cluster">
<title>cluster_StructureListModule</title>
<polygon fill="none" stroke="black" stroke-dasharray="1,5" points="8,-32.8 8,-230.8 695,-230.8 695,-32.8 8,-32.8"/>
</g>
<g id="clust6" class="cluster">
<title>cluster_StructureListModule_exports</title>
<polygon fill="none" stroke="black" points="140,-170.8 140,-222.8 558,-222.8 558,-170.8 140,-170.8"/>
</g>
<g id="clust5" class="cluster">
<title>cluster_StructureListModule_imports</title>
<polygon fill="none" stroke="black" points="435,-40.8 435,-92.8 687,-92.8 687,-40.8 435,-40.8"/>
</g>
<g id="clust2" class="cluster">
<title>cluster_StructureListModule_declarations</title>
<polygon fill="none" stroke="black" points="16,-40.8 16,-92.8 427,-92.8 427,-40.8 16,-40.8"/>
</g>
<!-- StructureListFullComponent -->
<g id="node1" class="node">
<title>StructureListFullComponent</title>
<polygon fill="#ffffb3" stroke="black" points="419.49,-84.8 242.51,-84.8 242.51,-48.8 419.49,-48.8 419.49,-84.8"/>
<text text-anchor="middle" x="331" y="-62.6" font-family="Times,serif" font-size="14.00">StructureListFullComponent</text>
</g>
<!-- StructureListModule -->
<g id="node3" class="node">
<title>StructureListModule</title>
<polygon fill="#8dd3c7" stroke="black" points="421.14,-149.8 418.14,-153.8 397.14,-153.8 394.14,-149.8 288.86,-149.8 288.86,-113.8 421.14,-113.8 421.14,-149.8"/>
<text text-anchor="middle" x="355" y="-127.6" font-family="Times,serif" font-size="14.00">StructureListModule</text>
</g>
<!-- StructureListFullComponent&#45;&gt;StructureListModule -->
<g id="edge1" class="edge">
<title>StructureListFullComponent&#45;&gt;StructureListModule</title>
<path fill="none" stroke="black" d="M354.09,-84.91C354.09,-84.91 354.09,-103.79 354.09,-103.79"/>
<polygon fill="black" stroke="black" points="350.59,-103.79 354.09,-113.79 357.59,-103.79 350.59,-103.79"/>
</g>
<!-- StructureListPreviewComponent -->
<g id="node2" class="node">
<title>StructureListPreviewComponent</title>
<polygon fill="#ffffb3" stroke="black" points="224.29,-84.8 23.71,-84.8 23.71,-48.8 224.29,-48.8 224.29,-84.8"/>
<text text-anchor="middle" x="124" y="-62.6" font-family="Times,serif" font-size="14.00">StructureListPreviewComponent</text>
</g>
<!-- StructureListPreviewComponent&#45;&gt;StructureListModule -->
<g id="edge2" class="edge">
<title>StructureListPreviewComponent&#45;&gt;StructureListModule</title>
<path fill="none" stroke="black" d="M186.12,-84.91C186.12,-104.14 186.12,-131.8 186.12,-131.8 186.12,-131.8 278.74,-131.8 278.74,-131.8"/>
<polygon fill="black" stroke="black" points="278.74,-135.3 288.74,-131.8 278.74,-128.3 278.74,-135.3"/>
</g>
<!-- StructureListFullComponent  -->
<g id="node6" class="node">
<title>StructureListFullComponent </title>
<polygon fill="#fb8072" stroke="black" points="550.49,-214.8 369.51,-214.8 369.51,-178.8 550.49,-178.8 550.49,-214.8"/>
<text text-anchor="middle" x="460" y="-192.6" font-family="Times,serif" font-size="14.00">StructureListFullComponent </text>
</g>
<!-- StructureListModule&#45;&gt;StructureListFullComponent  -->
<g id="edge5" class="edge">
<title>StructureListModule&#45;&gt;StructureListFullComponent </title>
<path fill="none" stroke="black" stroke-dasharray="5,2" d="M395.54,-149.91C395.54,-149.91 395.54,-168.79 395.54,-168.79"/>
<polygon fill="black" stroke="black" points="392.04,-168.79 395.54,-178.79 399.04,-168.79 392.04,-168.79"/>
</g>
<!-- StructureListPreviewComponent  -->
<g id="node7" class="node">
<title>StructureListPreviewComponent </title>
<polygon fill="#fb8072" stroke="black" points="351.79,-214.8 148.21,-214.8 148.21,-178.8 351.79,-178.8 351.79,-214.8"/>
<text text-anchor="middle" x="250" y="-192.6" font-family="Times,serif" font-size="14.00">StructureListPreviewComponent </text>
</g>
<!-- StructureListModule&#45;&gt;StructureListPreviewComponent  -->
<g id="edge6" class="edge">
<title>StructureListModule&#45;&gt;StructureListPreviewComponent </title>
<path fill="none" stroke="black" stroke-dasharray="5,2" d="M320.29,-149.91C320.29,-149.91 320.29,-168.79 320.29,-168.79"/>
<polygon fill="black" stroke="black" points="316.79,-168.79 320.29,-178.79 323.79,-168.79 316.79,-168.79"/>
</g>
<!-- FiltersModule -->
<g id="node4" class="node">
<title>FiltersModule</title>
<polygon fill="#8dd3c7" stroke="black" points="678.82,-84.8 675.82,-88.8 654.82,-88.8 651.82,-84.8 583.18,-84.8 583.18,-48.8 678.82,-48.8 678.82,-84.8"/>
<text text-anchor="middle" x="631" y="-62.6" font-family="Times,serif" font-size="14.00">FiltersModule</text>
</g>
<!-- FiltersModule&#45;&gt;StructureListModule -->
<g id="edge3" class="edge">
<title>FiltersModule&#45;&gt;StructureListModule</title>
<path fill="none" stroke="black" d="M631,-85.08C631,-106.12 631,-137.8 631,-137.8 631,-137.8 431.46,-137.8 431.46,-137.8"/>
<polygon fill="black" stroke="black" points="431.46,-134.3 421.46,-137.8 431.46,-141.3 431.46,-134.3"/>
</g>
<!-- NoRecordsModule -->
<g id="node5" class="node">
<title>NoRecordsModule</title>
<polygon fill="#8dd3c7" stroke="black" points="565.03,-84.8 562.03,-88.8 541.03,-88.8 538.03,-84.8 442.97,-84.8 442.97,-48.8 565.03,-48.8 565.03,-84.8"/>
<text text-anchor="middle" x="504" y="-62.6" font-family="Times,serif" font-size="14.00">NoRecordsModule</text>
</g>
<!-- NoRecordsModule&#45;&gt;StructureListModule -->
<g id="edge4" class="edge">
<title>NoRecordsModule&#45;&gt;StructureListModule</title>
<path fill="none" stroke="black" d="M496.49,-84.82C496.49,-102.17 496.49,-125.8 496.49,-125.8 496.49,-125.8 431.19,-125.8 431.19,-125.8"/>
<polygon fill="black" stroke="black" points="431.19,-122.3 421.19,-125.8 431.19,-129.3 431.19,-122.3"/>
</g>
</g>
</svg>
