<?xml version="1.0" encoding="UTF-8" standalone="no"?>
<!DOCTYPE svg PUBLIC "-//W3C//DTD SVG 1.1//EN"
 "http://www.w3.org/Graphics/SVG/1.1/DTD/svg11.dtd">
<!-- Generated by graphviz version 2.47.3 (20210619.1520)
 -->
<!-- Title: dependencies Pages: 1 -->
<svg width="487pt" height="174pt"
 viewBox="0.00 0.00 487.00 173.80" xmlns="http://www.w3.org/2000/svg" xmlns:xlink="http://www.w3.org/1999/xlink">
<g id="graph0" class="graph" transform="scale(1 1) rotate(0) translate(4 169.8)">
<title>dependencies</title>
<polygon fill="white" stroke="transparent" points="-4,4 -4,-169.8 483,-169.8 483,4 -4,4"/>
<text text-anchor="middle" x="239.5" y="-8.2" font-family="sans-serif" font-size="14.00">dependencies</text>
<g id="clust1" class="cluster">
<title>cluster_MoocDialogModule</title>
<polygon fill="none" stroke="black" stroke-dasharray="1,5" points="8,-32.8 8,-157.8 471,-157.8 471,-32.8 8,-32.8"/>
</g>
<g id="clust4" class="cluster">
<title>cluster_MoocDialogModule_imports</title>
<polygon fill="none" stroke="black" points="192,-40.8 192,-92.8 463,-92.8 463,-40.8 192,-40.8"/>
</g>
<g id="clust2" class="cluster">
<title>cluster_MoocDialogModule_declarations</title>
<polygon fill="none" stroke="black" points="16,-40.8 16,-92.8 184,-92.8 184,-40.8 16,-40.8"/>
</g>
<!-- MoocDialogComponent -->
<g id="node1" class="node">
<title>MoocDialogComponent</title>
<polygon fill="#ffffb3" stroke="black" points="176.09,-84.8 23.91,-84.8 23.91,-48.8 176.09,-48.8 176.09,-84.8"/>
<text text-anchor="middle" x="100" y="-62.6" font-family="Times,serif" font-size="14.00">MoocDialogComponent</text>
</g>
<!-- MoocDialogModule -->
<g id="node2" class="node">
<title>MoocDialogModule</title>
<polygon fill="#8dd3c7" stroke="black" points="332.31,-149.8 329.31,-153.8 308.31,-153.8 305.31,-149.8 201.69,-149.8 201.69,-113.8 332.31,-113.8 332.31,-149.8"/>
<text text-anchor="middle" x="267" y="-127.6" font-family="Times,serif" font-size="14.00">MoocDialogModule</text>
</g>
<!-- MoocDialogComponent&#45;&gt;MoocDialogModule -->
<g id="edge1" class="edge">
<title>MoocDialogComponent&#45;&gt;MoocDialogModule</title>
<path fill="none" stroke="black" d="M100,-84.91C100,-104.14 100,-131.8 100,-131.8 100,-131.8 191.48,-131.8 191.48,-131.8"/>
<polygon fill="black" stroke="black" points="191.48,-135.3 201.48,-131.8 191.48,-128.3 191.48,-135.3"/>
</g>
<!-- PoiIconModule -->
<g id="node3" class="node">
<title>PoiIconModule</title>
<polygon fill="#8dd3c7" stroke="black" points="454.6,-84.8 451.6,-88.8 430.6,-88.8 427.6,-84.8 351.4,-84.8 351.4,-48.8 454.6,-48.8 454.6,-84.8"/>
<text text-anchor="middle" x="403" y="-62.6" font-family="Times,serif" font-size="14.00">PoiIconModule</text>
</g>
<!-- PoiIconModule&#45;&gt;MoocDialogModule -->
<g id="edge2" class="edge">
<title>PoiIconModule&#45;&gt;MoocDialogModule</title>
<path fill="none" stroke="black" d="M403,-84.91C403,-104.14 403,-131.8 403,-131.8 403,-131.8 342.21,-131.8 342.21,-131.8"/>
<polygon fill="black" stroke="black" points="342.21,-128.3 332.21,-131.8 342.21,-135.3 342.21,-128.3"/>
</g>
<!-- VimeoPlayerModule -->
<g id="node4" class="node">
<title>VimeoPlayerModule</title>
<polygon fill="#8dd3c7" stroke="black" points="333.92,-84.8 330.92,-88.8 309.92,-88.8 306.92,-84.8 200.08,-84.8 200.08,-48.8 333.92,-48.8 333.92,-84.8"/>
<text text-anchor="middle" x="267" y="-62.6" font-family="Times,serif" font-size="14.00">VimeoPlayerModule</text>
</g>
<!-- VimeoPlayerModule&#45;&gt;MoocDialogModule -->
<g id="edge3" class="edge">
<title>VimeoPlayerModule&#45;&gt;MoocDialogModule</title>
<path fill="none" stroke="black" d="M267,-84.91C267,-84.91 267,-103.79 267,-103.79"/>
<polygon fill="black" stroke="black" points="263.5,-103.79 267,-113.79 270.5,-103.79 263.5,-103.79"/>
</g>
</g>
</svg>
