<?xml version="1.0" encoding="UTF-8" standalone="no"?>
<!DOCTYPE svg PUBLIC "-//W3C//DTD SVG 1.1//EN"
 "http://www.w3.org/Graphics/SVG/1.1/DTD/svg11.dtd">
<!-- Generated by graphviz version 2.47.3 (20210619.1520)
 -->
<!-- Title: dependencies Pages: 1 -->
<svg width="224pt" height="174pt"
 viewBox="0.00 0.00 224.00 173.80" xmlns="http://www.w3.org/2000/svg" xmlns:xlink="http://www.w3.org/1999/xlink">
<g id="graph0" class="graph" transform="scale(1 1) rotate(0) translate(4 169.8)">
<title>dependencies</title>
<polygon fill="white" stroke="transparent" points="-4,4 -4,-169.8 220,-169.8 220,4 -4,4"/>
<text text-anchor="middle" x="108" y="-8.2" font-family="sans-serif" font-size="14.00">dependencies</text>
<g id="clust1" class="cluster">
<title>cluster_YoutubeDialogModule</title>
<polygon fill="none" stroke="black" stroke-dasharray="1,5" points="8,-32.8 8,-157.8 208,-157.8 208,-32.8 8,-32.8"/>
</g>
<g id="clust2" class="cluster">
<title>cluster_YoutubeDialogModule_declarations</title>
<polygon fill="none" stroke="black" points="16,-40.8 16,-92.8 200,-92.8 200,-40.8 16,-40.8"/>
</g>
<!-- YoutubeDialogComponent -->
<g id="node1" class="node">
<title>YoutubeDialogComponent</title>
<polygon fill="#ffffb3" stroke="black" points="191.65,-84.8 24.35,-84.8 24.35,-48.8 191.65,-48.8 191.65,-84.8"/>
<text text-anchor="middle" x="108" y="-62.6" font-family="Times,serif" font-size="14.00">YoutubeDialogComponent</text>
</g>
<!-- YoutubeDialogModule -->
<g id="node2" class="node">
<title>YoutubeDialogModule</title>
<polygon fill="#8dd3c7" stroke="black" points="180.86,-149.8 177.86,-153.8 156.86,-153.8 153.86,-149.8 35.14,-149.8 35.14,-113.8 180.86,-113.8 180.86,-149.8"/>
<text text-anchor="middle" x="108" y="-127.6" font-family="Times,serif" font-size="14.00">YoutubeDialogModule</text>
</g>
<!-- YoutubeDialogComponent&#45;&gt;YoutubeDialogModule -->
<g id="edge1" class="edge">
<title>YoutubeDialogComponent&#45;&gt;YoutubeDialogModule</title>
<path fill="none" stroke="black" d="M108,-84.91C108,-84.91 108,-103.79 108,-103.79"/>
<polygon fill="black" stroke="black" points="104.5,-103.79 108,-113.79 111.5,-103.79 104.5,-103.79"/>
</g>
</g>
</svg>
