<?xml version="1.0" encoding="UTF-8" standalone="no"?>
<!DOCTYPE svg PUBLIC "-//W3C//DTD SVG 1.1//EN"
 "http://www.w3.org/Graphics/SVG/1.1/DTD/svg11.dtd">
<!-- Generated by graphviz version 2.47.3 (20210619.1520)
 -->
<!-- Title: dependencies Pages: 1 -->
<svg width="180pt" height="247pt"
 viewBox="0.00 0.00 180.00 246.80" xmlns="http://www.w3.org/2000/svg" xmlns:xlink="http://www.w3.org/1999/xlink">
<g id="graph0" class="graph" transform="scale(1 1) rotate(0) translate(4 242.8)">
<title>dependencies</title>
<polygon fill="white" stroke="transparent" points="-4,4 -4,-242.8 176,-242.8 176,4 -4,4"/>
<text text-anchor="middle" x="86" y="-8.2" font-family="sans-serif" font-size="14.00">dependencies</text>
<g id="clust1" class="cluster">
<title>cluster_FullNamePipeModule</title>
<polygon fill="none" stroke="black" stroke-dasharray="1,5" points="8,-32.8 8,-230.8 164,-230.8 164,-32.8 8,-32.8"/>
</g>
<g id="clust5" class="cluster">
<title>cluster_FullNamePipeModule_exports</title>
<polygon fill="none" stroke="black" points="29,-170.8 29,-222.8 143,-222.8 143,-170.8 29,-170.8"/>
</g>
<g id="clust2" class="cluster">
<title>cluster_FullNamePipeModule_declarations</title>
<polygon fill="none" stroke="black" points="31,-40.8 31,-92.8 141,-92.8 141,-40.8 31,-40.8"/>
</g>
<!-- FullnamePipe -->
<g id="node1" class="node">
<title>FullnamePipe</title>
<polygon fill="#ffffb3" stroke="black" points="132.77,-84.8 39.23,-84.8 39.23,-48.8 132.77,-48.8 132.77,-84.8"/>
<text text-anchor="middle" x="86" y="-62.6" font-family="Times,serif" font-size="14.00">FullnamePipe</text>
</g>
<!-- FullNamePipeModule -->
<g id="node2" class="node">
<title>FullNamePipeModule</title>
<polygon fill="#8dd3c7" stroke="black" points="156.43,-149.8 153.43,-153.8 132.43,-153.8 129.43,-149.8 15.57,-149.8 15.57,-113.8 156.43,-113.8 156.43,-149.8"/>
<text text-anchor="middle" x="86" y="-127.6" font-family="Times,serif" font-size="14.00">FullNamePipeModule</text>
</g>
<!-- FullnamePipe&#45;&gt;FullNamePipeModule -->
<g id="edge1" class="edge">
<title>FullnamePipe&#45;&gt;FullNamePipeModule</title>
<path fill="none" stroke="black" d="M86,-84.91C86,-84.91 86,-103.79 86,-103.79"/>
<polygon fill="black" stroke="black" points="82.5,-103.79 86,-113.79 89.5,-103.79 82.5,-103.79"/>
</g>
<!-- FullnamePipe  -->
<g id="node3" class="node">
<title>FullnamePipe </title>
<polygon fill="#fb8072" stroke="black" points="134.77,-214.8 37.23,-214.8 37.23,-178.8 134.77,-178.8 134.77,-214.8"/>
<text text-anchor="middle" x="86" y="-192.6" font-family="Times,serif" font-size="14.00">FullnamePipe </text>
</g>
<!-- FullNamePipeModule&#45;&gt;FullnamePipe  -->
<g id="edge2" class="edge">
<title>FullNamePipeModule&#45;&gt;FullnamePipe </title>
<path fill="none" stroke="black" stroke-dasharray="5,2" d="M86,-149.91C86,-149.91 86,-168.79 86,-168.79"/>
<polygon fill="black" stroke="black" points="82.5,-168.79 86,-178.79 89.5,-168.79 82.5,-168.79"/>
</g>
</g>
</svg>
