<?xml version="1.0" encoding="UTF-8" standalone="no"?>
<!DOCTYPE svg PUBLIC "-//W3C//DTD SVG 1.1//EN"
 "http://www.w3.org/Graphics/SVG/1.1/DTD/svg11.dtd">
<!-- Generated by graphviz version 2.47.3 (20210619.1520)
 -->
<!-- Title: dependencies Pages: 1 -->
<svg width="807pt" height="247pt"
 viewBox="0.00 0.00 807.00 246.80" xmlns="http://www.w3.org/2000/svg" xmlns:xlink="http://www.w3.org/1999/xlink">
<g id="graph0" class="graph" transform="scale(1 1) rotate(0) translate(4 242.8)">
<title>dependencies</title>
<polygon fill="white" stroke="transparent" points="-4,4 -4,-242.8 803,-242.8 803,4 -4,4"/>
<text text-anchor="middle" x="399.5" y="-8.2" font-family="sans-serif" font-size="14.00">dependencies</text>
<g id="clust1" class="cluster">
<title>cluster_SkillsModule</title>
<polygon fill="none" stroke="black" stroke-dasharray="1,5" points="8,-32.8 8,-230.8 791,-230.8 791,-32.8 8,-32.8"/>
</g>
<g id="clust2" class="cluster">
<title>cluster_SkillsModule_declarations</title>
<polygon fill="none" stroke="black" points="454,-40.8 454,-92.8 783,-92.8 783,-40.8 454,-40.8"/>
</g>
<g id="clust6" class="cluster">
<title>cluster_SkillsModule_exports</title>
<polygon fill="none" stroke="black" points="200,-170.8 200,-222.8 536,-222.8 536,-170.8 200,-170.8"/>
</g>
<g id="clust5" class="cluster">
<title>cluster_SkillsModule_imports</title>
<polygon fill="none" stroke="black" points="16,-40.8 16,-92.8 446,-92.8 446,-40.8 16,-40.8"/>
</g>
<!-- SkillsFullComponent -->
<g id="node1" class="node">
<title>SkillsFullComponent</title>
<polygon fill="#ffffb3" stroke="black" points="774.8,-84.8 639.2,-84.8 639.2,-48.8 774.8,-48.8 774.8,-84.8"/>
<text text-anchor="middle" x="707" y="-62.6" font-family="Times,serif" font-size="14.00">SkillsFullComponent</text>
</g>
<!-- SkillsModule -->
<g id="node3" class="node">
<title>SkillsModule</title>
<polygon fill="#8dd3c7" stroke="black" points="418.95,-149.8 415.95,-153.8 394.95,-153.8 391.95,-149.8 327.05,-149.8 327.05,-113.8 418.95,-113.8 418.95,-149.8"/>
<text text-anchor="middle" x="373" y="-127.6" font-family="Times,serif" font-size="14.00">SkillsModule</text>
</g>
<!-- SkillsFullComponent&#45;&gt;SkillsModule -->
<g id="edge1" class="edge">
<title>SkillsFullComponent&#45;&gt;SkillsModule</title>
<path fill="none" stroke="black" d="M707,-85.08C707,-106.12 707,-137.8 707,-137.8 707,-137.8 428.74,-137.8 428.74,-137.8"/>
<polygon fill="black" stroke="black" points="428.74,-134.3 418.74,-137.8 428.74,-141.3 428.74,-134.3"/>
</g>
<!-- SkillsPreviewComponent -->
<g id="node2" class="node">
<title>SkillsPreviewComponent</title>
<polygon fill="#ffffb3" stroke="black" points="621.6,-84.8 462.4,-84.8 462.4,-48.8 621.6,-48.8 621.6,-84.8"/>
<text text-anchor="middle" x="542" y="-62.6" font-family="Times,serif" font-size="14.00">SkillsPreviewComponent</text>
</g>
<!-- SkillsPreviewComponent&#45;&gt;SkillsModule -->
<g id="edge2" class="edge">
<title>SkillsPreviewComponent&#45;&gt;SkillsModule</title>
<path fill="none" stroke="black" d="M495.05,-84.82C495.05,-102.17 495.05,-125.8 495.05,-125.8 495.05,-125.8 428.79,-125.8 428.79,-125.8"/>
<polygon fill="black" stroke="black" points="428.79,-122.3 418.79,-125.8 428.79,-129.3 428.79,-122.3"/>
</g>
<!-- SkillsFullComponent  -->
<g id="node7" class="node">
<title>SkillsFullComponent </title>
<polygon fill="#fb8072" stroke="black" points="527.8,-214.8 388.2,-214.8 388.2,-178.8 527.8,-178.8 527.8,-214.8"/>
<text text-anchor="middle" x="458" y="-192.6" font-family="Times,serif" font-size="14.00">SkillsFullComponent </text>
</g>
<!-- SkillsModule&#45;&gt;SkillsFullComponent  -->
<g id="edge6" class="edge">
<title>SkillsModule&#45;&gt;SkillsFullComponent </title>
<path fill="none" stroke="black" stroke-dasharray="5,2" d="M403.54,-149.91C403.54,-149.91 403.54,-168.79 403.54,-168.79"/>
<polygon fill="black" stroke="black" points="400.04,-168.79 403.54,-178.79 407.04,-168.79 400.04,-168.79"/>
</g>
<!-- SkillsPreviewComponent  -->
<g id="node8" class="node">
<title>SkillsPreviewComponent </title>
<polygon fill="#fb8072" stroke="black" points="370.1,-214.8 207.9,-214.8 207.9,-178.8 370.1,-178.8 370.1,-214.8"/>
<text text-anchor="middle" x="289" y="-192.6" font-family="Times,serif" font-size="14.00">SkillsPreviewComponent </text>
</g>
<!-- SkillsModule&#45;&gt;SkillsPreviewComponent  -->
<g id="edge7" class="edge">
<title>SkillsModule&#45;&gt;SkillsPreviewComponent </title>
<path fill="none" stroke="black" stroke-dasharray="5,2" d="M348.79,-149.91C348.79,-149.91 348.79,-168.79 348.79,-168.79"/>
<polygon fill="black" stroke="black" points="345.29,-168.79 348.79,-178.79 352.29,-168.79 345.29,-168.79"/>
</g>
<!-- MoocDialogModule -->
<g id="node4" class="node">
<title>MoocDialogModule</title>
<polygon fill="#8dd3c7" stroke="black" points="438.31,-84.8 435.31,-88.8 414.31,-88.8 411.31,-84.8 307.69,-84.8 307.69,-48.8 438.31,-48.8 438.31,-84.8"/>
<text text-anchor="middle" x="373" y="-62.6" font-family="Times,serif" font-size="14.00">MoocDialogModule</text>
</g>
<!-- MoocDialogModule&#45;&gt;SkillsModule -->
<g id="edge3" class="edge">
<title>MoocDialogModule&#45;&gt;SkillsModule</title>
<path fill="none" stroke="black" d="M373,-84.91C373,-84.91 373,-103.79 373,-103.79"/>
<polygon fill="black" stroke="black" points="369.5,-103.79 373,-113.79 376.5,-103.79 369.5,-103.79"/>
</g>
<!-- PoiCardModule -->
<g id="node5" class="node">
<title>PoiCardModule</title>
<polygon fill="#8dd3c7" stroke="black" points="289.94,-84.8 286.94,-88.8 265.94,-88.8 262.94,-84.8 184.06,-84.8 184.06,-48.8 289.94,-48.8 289.94,-84.8"/>
<text text-anchor="middle" x="237" y="-62.6" font-family="Times,serif" font-size="14.00">PoiCardModule</text>
</g>
<!-- PoiCardModule&#45;&gt;SkillsModule -->
<g id="edge4" class="edge">
<title>PoiCardModule&#45;&gt;SkillsModule</title>
<path fill="none" stroke="black" d="M248.71,-84.82C248.71,-102.17 248.71,-125.8 248.71,-125.8 248.71,-125.8 317.07,-125.8 317.07,-125.8"/>
<polygon fill="black" stroke="black" points="317.07,-129.3 327.07,-125.8 317.07,-122.3 317.07,-129.3"/>
</g>
<!-- ScrollWrapperModule -->
<g id="node6" class="node">
<title>ScrollWrapperModule</title>
<polygon fill="#8dd3c7" stroke="black" points="165.95,-84.8 162.95,-88.8 141.95,-88.8 138.95,-84.8 24.05,-84.8 24.05,-48.8 165.95,-48.8 165.95,-84.8"/>
<text text-anchor="middle" x="95" y="-62.6" font-family="Times,serif" font-size="14.00">ScrollWrapperModule</text>
</g>
<!-- ScrollWrapperModule&#45;&gt;SkillsModule -->
<g id="edge5" class="edge">
<title>ScrollWrapperModule&#45;&gt;SkillsModule</title>
<path fill="none" stroke="black" d="M95,-85.08C95,-106.12 95,-137.8 95,-137.8 95,-137.8 317.09,-137.8 317.09,-137.8"/>
<polygon fill="black" stroke="black" points="317.09,-141.3 327.09,-137.8 317.09,-134.3 317.09,-141.3"/>
</g>
</g>
</svg>
