<?xml version="1.0" encoding="UTF-8" standalone="no"?>
<!DOCTYPE svg PUBLIC "-//W3C//DTD SVG 1.1//EN"
 "http://www.w3.org/Graphics/SVG/1.1/DTD/svg11.dtd">
<!-- Generated by graphviz version 2.47.3 (20210619.1520)
 -->
<!-- Title: dependencies Pages: 1 -->
<svg width="408pt" height="247pt"
 viewBox="0.00 0.00 408.00 246.80" xmlns="http://www.w3.org/2000/svg" xmlns:xlink="http://www.w3.org/1999/xlink">
<g id="graph0" class="graph" transform="scale(1 1) rotate(0) translate(4 242.8)">
<title>dependencies</title>
<polygon fill="white" stroke="transparent" points="-4,4 -4,-242.8 404,-242.8 404,4 -4,4"/>
<text text-anchor="middle" x="200" y="-8.2" font-family="sans-serif" font-size="14.00">dependencies</text>
<g id="clust1" class="cluster">
<title>cluster_WaypointCardListModule</title>
<polygon fill="none" stroke="black" stroke-dasharray="1,5" points="8,-32.8 8,-230.8 392,-230.8 392,-32.8 8,-32.8"/>
</g>
<g id="clust2" class="cluster">
<title>cluster_WaypointCardListModule_declarations</title>
<polygon fill="none" stroke="black" points="182,-40.8 182,-92.8 384,-92.8 384,-40.8 182,-40.8"/>
</g>
<g id="clust4" class="cluster">
<title>cluster_WaypointCardListModule_imports</title>
<polygon fill="none" stroke="black" points="16,-40.8 16,-92.8 174,-92.8 174,-40.8 16,-40.8"/>
</g>
<g id="clust5" class="cluster">
<title>cluster_WaypointCardListModule_exports</title>
<polygon fill="none" stroke="black" points="97,-170.8 97,-222.8 303,-222.8 303,-170.8 97,-170.8"/>
</g>
<!-- WaypointCardListComponent -->
<g id="node1" class="node">
<title>WaypointCardListComponent</title>
<polygon fill="#ffffb3" stroke="black" points="375.53,-84.8 190.47,-84.8 190.47,-48.8 375.53,-48.8 375.53,-84.8"/>
<text text-anchor="middle" x="283" y="-62.6" font-family="Times,serif" font-size="14.00">WaypointCardListComponent</text>
</g>
<!-- WaypointCardListModule -->
<g id="node2" class="node">
<title>WaypointCardListModule</title>
<polygon fill="#8dd3c7" stroke="black" points="281.75,-149.8 278.75,-153.8 257.75,-153.8 254.75,-149.8 118.25,-149.8 118.25,-113.8 281.75,-113.8 281.75,-149.8"/>
<text text-anchor="middle" x="200" y="-127.6" font-family="Times,serif" font-size="14.00">WaypointCardListModule</text>
</g>
<!-- WaypointCardListComponent&#45;&gt;WaypointCardListModule -->
<g id="edge1" class="edge">
<title>WaypointCardListComponent&#45;&gt;WaypointCardListModule</title>
<path fill="none" stroke="black" d="M236.05,-84.91C236.05,-84.91 236.05,-103.79 236.05,-103.79"/>
<polygon fill="black" stroke="black" points="232.55,-103.79 236.05,-113.79 239.55,-103.79 232.55,-103.79"/>
</g>
<!-- WaypointCardListComponent  -->
<g id="node4" class="node">
<title>WaypointCardListComponent </title>
<polygon fill="#fb8072" stroke="black" points="294.53,-214.8 105.47,-214.8 105.47,-178.8 294.53,-178.8 294.53,-214.8"/>
<text text-anchor="middle" x="200" y="-192.6" font-family="Times,serif" font-size="14.00">WaypointCardListComponent </text>
</g>
<!-- WaypointCardListModule&#45;&gt;WaypointCardListComponent  -->
<g id="edge3" class="edge">
<title>WaypointCardListModule&#45;&gt;WaypointCardListComponent </title>
<path fill="none" stroke="black" stroke-dasharray="5,2" d="M200,-149.91C200,-149.91 200,-168.79 200,-168.79"/>
<polygon fill="black" stroke="black" points="196.5,-168.79 200,-178.79 203.5,-168.79 196.5,-168.79"/>
</g>
<!-- WaypointCardModule -->
<g id="node3" class="node">
<title>WaypointCardModule</title>
<polygon fill="#8dd3c7" stroke="black" points="165.97,-84.8 162.97,-88.8 141.97,-88.8 138.97,-84.8 24.03,-84.8 24.03,-48.8 165.97,-48.8 165.97,-84.8"/>
<text text-anchor="middle" x="95" y="-62.6" font-family="Times,serif" font-size="14.00">WaypointCardModule</text>
</g>
<!-- WaypointCardModule&#45;&gt;WaypointCardListModule -->
<g id="edge2" class="edge">
<title>WaypointCardModule&#45;&gt;WaypointCardListModule</title>
<path fill="none" stroke="black" d="M142.06,-84.91C142.06,-84.91 142.06,-103.79 142.06,-103.79"/>
<polygon fill="black" stroke="black" points="138.56,-103.79 142.06,-113.79 145.56,-103.79 138.56,-103.79"/>
</g>
</g>
</svg>
