<?xml version="1.0" encoding="UTF-8" standalone="no"?>
<!DOCTYPE svg PUBLIC "-//W3C//DTD SVG 1.1//EN"
 "http://www.w3.org/Graphics/SVG/1.1/DTD/svg11.dtd">
<!-- Generated by graphviz version 2.47.3 (20210619.1520)
 -->
<!-- Title: dependencies Pages: 1 -->
<svg width="572pt" height="247pt"
 viewBox="0.00 0.00 572.00 246.80" xmlns="http://www.w3.org/2000/svg" xmlns:xlink="http://www.w3.org/1999/xlink">
<g id="graph0" class="graph" transform="scale(1 1) rotate(0) translate(4 242.8)">
<title>dependencies</title>
<polygon fill="white" stroke="transparent" points="-4,4 -4,-242.8 568,-242.8 568,4 -4,4"/>
<text text-anchor="middle" x="282" y="-8.2" font-family="sans-serif" font-size="14.00">dependencies</text>
<g id="clust1" class="cluster">
<title>cluster_CompanyDetailsModule</title>
<polygon fill="none" stroke="black" stroke-dasharray="1,5" points="8,-32.8 8,-230.8 556,-230.8 556,-32.8 8,-32.8"/>
</g>
<g id="clust5" class="cluster">
<title>cluster_CompanyDetailsModule_exports</title>
<polygon fill="none" stroke="black" points="172,-170.8 172,-222.8 366,-222.8 366,-170.8 172,-170.8"/>
</g>
<g id="clust2" class="cluster">
<title>cluster_CompanyDetailsModule_declarations</title>
<polygon fill="none" stroke="black" points="356,-40.8 356,-92.8 548,-92.8 548,-40.8 356,-40.8"/>
</g>
<g id="clust4" class="cluster">
<title>cluster_CompanyDetailsModule_imports</title>
<polygon fill="none" stroke="black" points="16,-40.8 16,-92.8 348,-92.8 348,-40.8 16,-40.8"/>
</g>
<!-- CompanyDetailsComponent -->
<g id="node1" class="node">
<title>CompanyDetailsComponent</title>
<polygon fill="#ffffb3" stroke="black" points="539.93,-84.8 364.07,-84.8 364.07,-48.8 539.93,-48.8 539.93,-84.8"/>
<text text-anchor="middle" x="452" y="-62.6" font-family="Times,serif" font-size="14.00">CompanyDetailsComponent</text>
</g>
<!-- CompanyDetailsModule -->
<g id="node2" class="node">
<title>CompanyDetailsModule</title>
<polygon fill="#8dd3c7" stroke="black" points="345.64,-149.8 342.64,-153.8 321.64,-153.8 318.64,-149.8 192.36,-149.8 192.36,-113.8 345.64,-113.8 345.64,-149.8"/>
<text text-anchor="middle" x="269" y="-127.6" font-family="Times,serif" font-size="14.00">CompanyDetailsModule</text>
</g>
<!-- CompanyDetailsComponent&#45;&gt;CompanyDetailsModule -->
<g id="edge1" class="edge">
<title>CompanyDetailsComponent&#45;&gt;CompanyDetailsModule</title>
<path fill="none" stroke="black" d="M452,-84.91C452,-104.14 452,-131.8 452,-131.8 452,-131.8 355.81,-131.8 355.81,-131.8"/>
<polygon fill="black" stroke="black" points="355.81,-128.3 345.81,-131.8 355.81,-135.3 355.81,-128.3"/>
</g>
<!-- CompanyDetailsComponent  -->
<g id="node5" class="node">
<title>CompanyDetailsComponent </title>
<polygon fill="#fb8072" stroke="black" points="358.43,-214.8 179.57,-214.8 179.57,-178.8 358.43,-178.8 358.43,-214.8"/>
<text text-anchor="middle" x="269" y="-192.6" font-family="Times,serif" font-size="14.00">CompanyDetailsComponent </text>
</g>
<!-- CompanyDetailsModule&#45;&gt;CompanyDetailsComponent  -->
<g id="edge4" class="edge">
<title>CompanyDetailsModule&#45;&gt;CompanyDetailsComponent </title>
<path fill="none" stroke="black" stroke-dasharray="5,2" d="M269,-149.91C269,-149.91 269,-168.79 269,-168.79"/>
<polygon fill="black" stroke="black" points="265.5,-168.79 269,-178.79 272.5,-168.79 265.5,-168.79"/>
</g>
<!-- ScrollWrapperModule -->
<g id="node3" class="node">
<title>ScrollWrapperModule</title>
<polygon fill="#8dd3c7" stroke="black" points="339.95,-84.8 336.95,-88.8 315.95,-88.8 312.95,-84.8 198.05,-84.8 198.05,-48.8 339.95,-48.8 339.95,-84.8"/>
<text text-anchor="middle" x="269" y="-62.6" font-family="Times,serif" font-size="14.00">ScrollWrapperModule</text>
</g>
<!-- ScrollWrapperModule&#45;&gt;CompanyDetailsModule -->
<g id="edge2" class="edge">
<title>ScrollWrapperModule&#45;&gt;CompanyDetailsModule</title>
<path fill="none" stroke="black" d="M269,-84.91C269,-84.91 269,-103.79 269,-103.79"/>
<polygon fill="black" stroke="black" points="265.5,-103.79 269,-113.79 272.5,-103.79 265.5,-103.79"/>
</g>
<!-- YoutubeWrapperModule -->
<g id="node4" class="node">
<title>YoutubeWrapperModule</title>
<polygon fill="#8dd3c7" stroke="black" points="180.23,-84.8 177.23,-88.8 156.23,-88.8 153.23,-84.8 23.77,-84.8 23.77,-48.8 180.23,-48.8 180.23,-84.8"/>
<text text-anchor="middle" x="102" y="-62.6" font-family="Times,serif" font-size="14.00">YoutubeWrapperModule</text>
</g>
<!-- YoutubeWrapperModule&#45;&gt;CompanyDetailsModule -->
<g id="edge3" class="edge">
<title>YoutubeWrapperModule&#45;&gt;CompanyDetailsModule</title>
<path fill="none" stroke="black" d="M101.59,-84.91C101.59,-104.14 101.59,-131.8 101.59,-131.8 101.59,-131.8 182.15,-131.8 182.15,-131.8"/>
<polygon fill="black" stroke="black" points="182.15,-135.3 192.15,-131.8 182.15,-128.3 182.15,-135.3"/>
</g>
</g>
</svg>
