<?xml version="1.0" encoding="UTF-8" standalone="no"?>
<!DOCTYPE svg PUBLIC "-//W3C//DTD SVG 1.1//EN"
 "http://www.w3.org/Graphics/SVG/1.1/DTD/svg11.dtd">
<!-- Generated by graphviz version 2.47.3 (20210619.1520)
 -->
<!-- Title: dependencies Pages: 1 -->
<svg width="1031pt" height="174pt"
 viewBox="0.00 0.00 1031.00 173.80" xmlns="http://www.w3.org/2000/svg" xmlns:xlink="http://www.w3.org/1999/xlink">
<g id="graph0" class="graph" transform="scale(1 1) rotate(0) translate(4 169.8)">
<title>dependencies</title>
<polygon fill="white" stroke="transparent" points="-4,4 -4,-169.8 1027,-169.8 1027,4 -4,4"/>
<text text-anchor="middle" x="511.5" y="-8.2" font-family="sans-serif" font-size="14.00">dependencies</text>
<g id="clust1" class="cluster">
<title>cluster_AdventureMapPageModule</title>
<polygon fill="none" stroke="black" stroke-dasharray="1,5" points="8,-32.8 8,-157.8 1015,-157.8 1015,-32.8 8,-32.8"/>
</g>
<g id="clust4" class="cluster">
<title>cluster_AdventureMapPageModule_imports</title>
<polygon fill="none" stroke="black" points="536,-40.8 536,-92.8 1007,-92.8 1007,-40.8 536,-40.8"/>
</g>
<g id="clust2" class="cluster">
<title>cluster_AdventureMapPageModule_declarations</title>
<polygon fill="none" stroke="black" points="318,-40.8 318,-92.8 528,-92.8 528,-40.8 318,-40.8"/>
</g>
<g id="clust7" class="cluster">
<title>cluster_AdventureMapPageModule_providers</title>
<polygon fill="none" stroke="black" points="16,-40.8 16,-92.8 310,-92.8 310,-40.8 16,-40.8"/>
</g>
<!-- AdventureMapPageComponent -->
<g id="node1" class="node">
<title>AdventureMapPageComponent</title>
<polygon fill="#ffffb3" stroke="black" points="519.79,-84.8 326.21,-84.8 326.21,-48.8 519.79,-48.8 519.79,-84.8"/>
<text text-anchor="middle" x="423" y="-62.6" font-family="Times,serif" font-size="14.00">AdventureMapPageComponent</text>
</g>
<!-- AdventureMapPageModule -->
<g id="node2" class="node">
<title>AdventureMapPageModule</title>
<polygon fill="#8dd3c7" stroke="black" points="603.51,-149.8 600.51,-153.8 579.51,-153.8 576.51,-149.8 432.49,-149.8 432.49,-113.8 603.51,-113.8 603.51,-149.8"/>
<text text-anchor="middle" x="518" y="-127.6" font-family="Times,serif" font-size="14.00">AdventureMapPageModule</text>
</g>
<!-- AdventureMapPageComponent&#45;&gt;AdventureMapPageModule -->
<g id="edge1" class="edge">
<title>AdventureMapPageComponent&#45;&gt;AdventureMapPageModule</title>
<path fill="none" stroke="black" d="M475.95,-84.91C475.95,-84.91 475.95,-103.79 475.95,-103.79"/>
<polygon fill="black" stroke="black" points="472.45,-103.79 475.95,-113.79 479.45,-103.79 472.45,-103.79"/>
</g>
<!-- ConfirmationDialogModule -->
<g id="node3" class="node">
<title>ConfirmationDialogModule</title>
<polygon fill="#8dd3c7" stroke="black" points="998.59,-84.8 995.59,-88.8 974.59,-88.8 971.59,-84.8 825.41,-84.8 825.41,-48.8 998.59,-48.8 998.59,-84.8"/>
<text text-anchor="middle" x="912" y="-62.6" font-family="Times,serif" font-size="14.00">ConfirmationDialogModule</text>
</g>
<!-- ConfirmationDialogModule&#45;&gt;AdventureMapPageModule -->
<g id="edge2" class="edge">
<title>ConfirmationDialogModule&#45;&gt;AdventureMapPageModule</title>
<path fill="none" stroke="black" d="M912,-85.08C912,-106.12 912,-137.8 912,-137.8 912,-137.8 613.98,-137.8 613.98,-137.8"/>
<polygon fill="black" stroke="black" points="613.98,-134.3 603.98,-137.8 613.98,-141.3 613.98,-134.3"/>
</g>
<!-- MapSvgModule -->
<g id="node4" class="node">
<title>MapSvgModule</title>
<polygon fill="#8dd3c7" stroke="black" points="807.49,-84.8 804.49,-88.8 783.49,-88.8 780.49,-84.8 700.51,-84.8 700.51,-48.8 807.49,-48.8 807.49,-84.8"/>
<text text-anchor="middle" x="754" y="-62.6" font-family="Times,serif" font-size="14.00">MapSvgModule</text>
</g>
<!-- MapSvgModule&#45;&gt;AdventureMapPageModule -->
<g id="edge3" class="edge">
<title>MapSvgModule&#45;&gt;AdventureMapPageModule</title>
<path fill="none" stroke="black" d="M754,-84.82C754,-102.17 754,-125.8 754,-125.8 754,-125.8 613.54,-125.8 613.54,-125.8"/>
<polygon fill="black" stroke="black" points="613.54,-122.3 603.54,-125.8 613.54,-129.3 613.54,-122.3"/>
</g>
<!-- MapTemplateModule -->
<g id="node5" class="node">
<title>MapTemplateModule</title>
<polygon fill="#8dd3c7" stroke="black" points="682.08,-84.8 679.08,-88.8 658.08,-88.8 655.08,-84.8 543.92,-84.8 543.92,-48.8 682.08,-48.8 682.08,-84.8"/>
<text text-anchor="middle" x="613" y="-62.6" font-family="Times,serif" font-size="14.00">MapTemplateModule</text>
</g>
<!-- MapTemplateModule&#45;&gt;AdventureMapPageModule -->
<g id="edge4" class="edge">
<title>MapTemplateModule&#45;&gt;AdventureMapPageModule</title>
<path fill="none" stroke="black" d="M573.86,-84.91C573.86,-84.91 573.86,-103.79 573.86,-103.79"/>
<polygon fill="black" stroke="black" points="570.36,-103.79 573.86,-113.79 577.36,-103.79 570.36,-103.79"/>
</g>
<!-- InstanceService -->
<g id="node6" class="node">
<title>InstanceService</title>
<ellipse fill="#fdb462" stroke="black" cx="230" cy="-66.8" rx="72.33" ry="18"/>
<text text-anchor="middle" x="230" y="-62.6" font-family="Times,serif" font-size="14.00">InstanceService</text>
</g>
<!-- InstanceService&#45;&gt;AdventureMapPageModule -->
<g id="edge5" class="edge">
<title>InstanceService&#45;&gt;AdventureMapPageModule</title>
<path fill="none" stroke="black" d="M230,-84.82C230,-102.17 230,-125.8 230,-125.8 230,-125.8 422.37,-125.8 422.37,-125.8"/>
<polygon fill="black" stroke="black" points="422.37,-129.3 432.37,-125.8 422.37,-122.3 422.37,-129.3"/>
</g>
<!-- MapService -->
<g id="node7" class="node">
<title>MapService</title>
<ellipse fill="#fdb462" stroke="black" cx="82" cy="-66.8" rx="57.88" ry="18"/>
<text text-anchor="middle" x="82" y="-62.6" font-family="Times,serif" font-size="14.00">MapService</text>
</g>
<!-- MapService&#45;&gt;AdventureMapPageModule -->
<g id="edge6" class="edge">
<title>MapService&#45;&gt;AdventureMapPageModule</title>
<path fill="none" stroke="black" d="M82,-85.08C82,-106.12 82,-137.8 82,-137.8 82,-137.8 422.38,-137.8 422.38,-137.8"/>
<polygon fill="black" stroke="black" points="422.38,-141.3 432.38,-137.8 422.38,-134.3 422.38,-141.3"/>
</g>
</g>
</svg>
