<?xml version="1.0" encoding="UTF-8" standalone="no"?>
<!DOCTYPE svg PUBLIC "-//W3C//DTD SVG 1.1//EN"
 "http://www.w3.org/Graphics/SVG/1.1/DTD/svg11.dtd">
<!-- Generated by graphviz version 2.47.3 (20210619.1520)
 -->
<!-- Title: dependencies Pages: 1 -->
<svg width="316pt" height="247pt"
 viewBox="0.00 0.00 316.00 246.80" xmlns="http://www.w3.org/2000/svg" xmlns:xlink="http://www.w3.org/1999/xlink">
<g id="graph0" class="graph" transform="scale(1 1) rotate(0) translate(4 242.8)">
<title>dependencies</title>
<polygon fill="white" stroke="transparent" points="-4,4 -4,-242.8 312,-242.8 312,4 -4,4"/>
<text text-anchor="middle" x="154" y="-8.2" font-family="sans-serif" font-size="14.00">dependencies</text>
<g id="clust1" class="cluster">
<title>cluster_PoiLabelModule</title>
<polygon fill="none" stroke="black" stroke-dasharray="1,5" points="8,-32.8 8,-230.8 300,-230.8 300,-32.8 8,-32.8"/>
</g>
<g id="clust2" class="cluster">
<title>cluster_PoiLabelModule_declarations</title>
<polygon fill="none" stroke="black" points="144,-40.8 144,-92.8 292,-92.8 292,-40.8 144,-40.8"/>
</g>
<g id="clust5" class="cluster">
<title>cluster_PoiLabelModule_exports</title>
<polygon fill="none" stroke="black" points="78,-170.8 78,-222.8 230,-222.8 230,-170.8 78,-170.8"/>
</g>
<g id="clust4" class="cluster">
<title>cluster_PoiLabelModule_imports</title>
<polygon fill="none" stroke="black" points="16,-40.8 16,-92.8 136,-92.8 136,-40.8 16,-40.8"/>
</g>
<!-- PoiLabelComponent -->
<g id="node1" class="node">
<title>PoiLabelComponent</title>
<polygon fill="#ffffb3" stroke="black" points="283.88,-84.8 152.12,-84.8 152.12,-48.8 283.88,-48.8 283.88,-84.8"/>
<text text-anchor="middle" x="218" y="-62.6" font-family="Times,serif" font-size="14.00">PoiLabelComponent</text>
</g>
<!-- PoiLabelModule -->
<g id="node2" class="node">
<title>PoiLabelModule</title>
<polygon fill="#8dd3c7" stroke="black" points="209.1,-149.8 206.1,-153.8 185.1,-153.8 182.1,-149.8 98.9,-149.8 98.9,-113.8 209.1,-113.8 209.1,-149.8"/>
<text text-anchor="middle" x="154" y="-127.6" font-family="Times,serif" font-size="14.00">PoiLabelModule</text>
</g>
<!-- PoiLabelComponent&#45;&gt;PoiLabelModule -->
<g id="edge1" class="edge">
<title>PoiLabelComponent&#45;&gt;PoiLabelModule</title>
<path fill="none" stroke="black" d="M180.55,-84.91C180.55,-84.91 180.55,-103.79 180.55,-103.79"/>
<polygon fill="black" stroke="black" points="177.05,-103.79 180.55,-113.79 184.05,-103.79 177.05,-103.79"/>
</g>
<!-- PoiLabelComponent  -->
<g id="node4" class="node">
<title>PoiLabelComponent </title>
<polygon fill="#fb8072" stroke="black" points="221.88,-214.8 86.12,-214.8 86.12,-178.8 221.88,-178.8 221.88,-214.8"/>
<text text-anchor="middle" x="154" y="-192.6" font-family="Times,serif" font-size="14.00">PoiLabelComponent </text>
</g>
<!-- PoiLabelModule&#45;&gt;PoiLabelComponent  -->
<g id="edge3" class="edge">
<title>PoiLabelModule&#45;&gt;PoiLabelComponent </title>
<path fill="none" stroke="black" stroke-dasharray="5,2" d="M154,-149.91C154,-149.91 154,-168.79 154,-168.79"/>
<polygon fill="black" stroke="black" points="150.5,-168.79 154,-178.79 157.5,-168.79 150.5,-168.79"/>
</g>
<!-- PoiIconModule -->
<g id="node3" class="node">
<title>PoiIconModule</title>
<polygon fill="#8dd3c7" stroke="black" points="127.6,-84.8 124.6,-88.8 103.6,-88.8 100.6,-84.8 24.4,-84.8 24.4,-48.8 127.6,-48.8 127.6,-84.8"/>
<text text-anchor="middle" x="76" y="-62.6" font-family="Times,serif" font-size="14.00">PoiIconModule</text>
</g>
<!-- PoiIconModule&#45;&gt;PoiLabelModule -->
<g id="edge2" class="edge">
<title>PoiIconModule&#45;&gt;PoiLabelModule</title>
<path fill="none" stroke="black" d="M113.25,-84.91C113.25,-84.91 113.25,-103.79 113.25,-103.79"/>
<polygon fill="black" stroke="black" points="109.75,-103.79 113.25,-113.79 116.75,-103.79 109.75,-103.79"/>
</g>
</g>
</svg>
