<?xml version="1.0" encoding="UTF-8" standalone="no"?>
<!DOCTYPE svg PUBLIC "-//W3C//DTD SVG 1.1//EN"
 "http://www.w3.org/Graphics/SVG/1.1/DTD/svg11.dtd">
<!-- Generated by graphviz version 2.47.3 (20210619.1520)
 -->
<!-- Title: dependencies Pages: 1 -->
<svg width="364pt" height="247pt"
 viewBox="0.00 0.00 364.00 246.80" xmlns="http://www.w3.org/2000/svg" xmlns:xlink="http://www.w3.org/1999/xlink">
<g id="graph0" class="graph" transform="scale(1 1) rotate(0) translate(4 242.8)">
<title>dependencies</title>
<polygon fill="white" stroke="transparent" points="-4,4 -4,-242.8 360,-242.8 360,4 -4,4"/>
<text text-anchor="middle" x="178" y="-8.2" font-family="sans-serif" font-size="14.00">dependencies</text>
<g id="clust1" class="cluster">
<title>cluster_PoiDescriptionModule</title>
<polygon fill="none" stroke="black" stroke-dasharray="1,5" points="8,-32.8 8,-230.8 348,-230.8 348,-32.8 8,-32.8"/>
</g>
<g id="clust5" class="cluster">
<title>cluster_PoiDescriptionModule_exports</title>
<polygon fill="none" stroke="black" points="86,-170.8 86,-222.8 270,-222.8 270,-170.8 86,-170.8"/>
</g>
<g id="clust4" class="cluster">
<title>cluster_PoiDescriptionModule_imports</title>
<polygon fill="none" stroke="black" points="206,-40.8 206,-92.8 340,-92.8 340,-40.8 206,-40.8"/>
</g>
<g id="clust2" class="cluster">
<title>cluster_PoiDescriptionModule_declarations</title>
<polygon fill="none" stroke="black" points="16,-40.8 16,-92.8 198,-92.8 198,-40.8 16,-40.8"/>
</g>
<!-- PoiDescriptionComponent -->
<g id="node1" class="node">
<title>PoiDescriptionComponent</title>
<polygon fill="#ffffb3" stroke="black" points="189.82,-84.8 24.18,-84.8 24.18,-48.8 189.82,-48.8 189.82,-84.8"/>
<text text-anchor="middle" x="107" y="-62.6" font-family="Times,serif" font-size="14.00">PoiDescriptionComponent</text>
</g>
<!-- PoiDescriptionModule -->
<g id="node2" class="node">
<title>PoiDescriptionModule</title>
<polygon fill="#8dd3c7" stroke="black" points="249.54,-149.8 246.54,-153.8 225.54,-153.8 222.54,-149.8 106.46,-149.8 106.46,-113.8 249.54,-113.8 249.54,-149.8"/>
<text text-anchor="middle" x="178" y="-127.6" font-family="Times,serif" font-size="14.00">PoiDescriptionModule</text>
</g>
<!-- PoiDescriptionComponent&#45;&gt;PoiDescriptionModule -->
<g id="edge1" class="edge">
<title>PoiDescriptionComponent&#45;&gt;PoiDescriptionModule</title>
<path fill="none" stroke="black" d="M147.95,-84.91C147.95,-84.91 147.95,-103.79 147.95,-103.79"/>
<polygon fill="black" stroke="black" points="144.45,-103.79 147.95,-113.79 151.45,-103.79 144.45,-103.79"/>
</g>
<!-- PoiDescriptionComponent  -->
<g id="node4" class="node">
<title>PoiDescriptionComponent </title>
<polygon fill="#fb8072" stroke="black" points="262.32,-214.8 93.68,-214.8 93.68,-178.8 262.32,-178.8 262.32,-214.8"/>
<text text-anchor="middle" x="178" y="-192.6" font-family="Times,serif" font-size="14.00">PoiDescriptionComponent </text>
</g>
<!-- PoiDescriptionModule&#45;&gt;PoiDescriptionComponent  -->
<g id="edge3" class="edge">
<title>PoiDescriptionModule&#45;&gt;PoiDescriptionComponent </title>
<path fill="none" stroke="black" stroke-dasharray="5,2" d="M178,-149.91C178,-149.91 178,-168.79 178,-168.79"/>
<polygon fill="black" stroke="black" points="174.5,-168.79 178,-178.79 181.5,-168.79 174.5,-168.79"/>
</g>
<!-- EventDateModule -->
<g id="node3" class="node">
<title>EventDateModule</title>
<polygon fill="#8dd3c7" stroke="black" points="332.13,-84.8 329.13,-88.8 308.13,-88.8 305.13,-84.8 213.87,-84.8 213.87,-48.8 332.13,-48.8 332.13,-84.8"/>
<text text-anchor="middle" x="273" y="-62.6" font-family="Times,serif" font-size="14.00">EventDateModule</text>
</g>
<!-- EventDateModule&#45;&gt;PoiDescriptionModule -->
<g id="edge2" class="edge">
<title>EventDateModule&#45;&gt;PoiDescriptionModule</title>
<path fill="none" stroke="black" d="M231.73,-84.91C231.73,-84.91 231.73,-103.79 231.73,-103.79"/>
<polygon fill="black" stroke="black" points="228.23,-103.79 231.73,-113.79 235.23,-103.79 228.23,-103.79"/>
</g>
</g>
</svg>
