<?xml version="1.0" encoding="UTF-8" standalone="no"?>
<!DOCTYPE svg PUBLIC "-//W3C//DTD SVG 1.1//EN"
 "http://www.w3.org/Graphics/SVG/1.1/DTD/svg11.dtd">
<!-- Generated by graphviz version 2.47.3 (20210619.1520)
 -->
<!-- Title: dependencies Pages: 1 -->
<svg width="220pt" height="247pt"
 viewBox="0.00 0.00 220.00 246.80" xmlns="http://www.w3.org/2000/svg" xmlns:xlink="http://www.w3.org/1999/xlink">
<g id="graph0" class="graph" transform="scale(1 1) rotate(0) translate(4 242.8)">
<title>dependencies</title>
<polygon fill="white" stroke="transparent" points="-4,4 -4,-242.8 216,-242.8 216,4 -4,4"/>
<text text-anchor="middle" x="106" y="-8.2" font-family="sans-serif" font-size="14.00">dependencies</text>
<g id="clust1" class="cluster">
<title>cluster_FeedbackTextModule</title>
<polygon fill="none" stroke="black" stroke-dasharray="1,5" points="8,-32.8 8,-230.8 204,-230.8 204,-32.8 8,-32.8"/>
</g>
<g id="clust5" class="cluster">
<title>cluster_FeedbackTextModule_exports</title>
<polygon fill="none" stroke="black" points="16,-170.8 16,-222.8 196,-222.8 196,-170.8 16,-170.8"/>
</g>
<g id="clust2" class="cluster">
<title>cluster_FeedbackTextModule_declarations</title>
<polygon fill="none" stroke="black" points="18,-40.8 18,-92.8 194,-92.8 194,-40.8 18,-40.8"/>
</g>
<!-- FeedbackTextComponent -->
<g id="node1" class="node">
<title>FeedbackTextComponent</title>
<polygon fill="#ffffb3" stroke="black" points="186.13,-84.8 25.87,-84.8 25.87,-48.8 186.13,-48.8 186.13,-84.8"/>
<text text-anchor="middle" x="106" y="-62.6" font-family="Times,serif" font-size="14.00">FeedbackTextComponent</text>
</g>
<!-- FeedbackTextModule -->
<g id="node2" class="node">
<title>FeedbackTextModule</title>
<polygon fill="#8dd3c7" stroke="black" points="175.35,-149.8 172.35,-153.8 151.35,-153.8 148.35,-149.8 36.65,-149.8 36.65,-113.8 175.35,-113.8 175.35,-149.8"/>
<text text-anchor="middle" x="106" y="-127.6" font-family="Times,serif" font-size="14.00">FeedbackTextModule</text>
</g>
<!-- FeedbackTextComponent&#45;&gt;FeedbackTextModule -->
<g id="edge1" class="edge">
<title>FeedbackTextComponent&#45;&gt;FeedbackTextModule</title>
<path fill="none" stroke="black" d="M106,-84.91C106,-84.91 106,-103.79 106,-103.79"/>
<polygon fill="black" stroke="black" points="102.5,-103.79 106,-113.79 109.5,-103.79 102.5,-103.79"/>
</g>
<!-- FeedbackTextComponent  -->
<g id="node3" class="node">
<title>FeedbackTextComponent </title>
<polygon fill="#fb8072" stroke="black" points="188.13,-214.8 23.87,-214.8 23.87,-178.8 188.13,-178.8 188.13,-214.8"/>
<text text-anchor="middle" x="106" y="-192.6" font-family="Times,serif" font-size="14.00">FeedbackTextComponent </text>
</g>
<!-- FeedbackTextModule&#45;&gt;FeedbackTextComponent  -->
<g id="edge2" class="edge">
<title>FeedbackTextModule&#45;&gt;FeedbackTextComponent </title>
<path fill="none" stroke="black" stroke-dasharray="5,2" d="M106,-149.91C106,-149.91 106,-168.79 106,-168.79"/>
<polygon fill="black" stroke="black" points="102.5,-168.79 106,-178.79 109.5,-168.79 102.5,-168.79"/>
</g>
</g>
</svg>
