<?xml version="1.0" encoding="UTF-8" standalone="no"?>
<!DOCTYPE svg PUBLIC "-//W3C//DTD SVG 1.1//EN"
 "http://www.w3.org/Graphics/SVG/1.1/DTD/svg11.dtd">
<!-- Generated by graphviz version 2.47.3 (20210619.1520)
 -->
<!-- Title: dependencies Pages: 1 -->
<svg width="859pt" height="247pt"
 viewBox="0.00 0.00 859.00 246.80" xmlns="http://www.w3.org/2000/svg" xmlns:xlink="http://www.w3.org/1999/xlink">
<g id="graph0" class="graph" transform="scale(1 1) rotate(0) translate(4 242.8)">
<title>dependencies</title>
<polygon fill="white" stroke="transparent" points="-4,4 -4,-242.8 855,-242.8 855,4 -4,4"/>
<text text-anchor="middle" x="425.5" y="-8.2" font-family="sans-serif" font-size="14.00">dependencies</text>
<g id="clust1" class="cluster">
<title>cluster_NavigationTemplateModule</title>
<polygon fill="none" stroke="black" stroke-dasharray="1,5" points="8,-32.8 8,-230.8 843,-230.8 843,-32.8 8,-32.8"/>
</g>
<g id="clust2" class="cluster">
<title>cluster_NavigationTemplateModule_declarations</title>
<polygon fill="none" stroke="black" points="623,-40.8 623,-92.8 835,-92.8 835,-40.8 623,-40.8"/>
</g>
<g id="clust5" class="cluster">
<title>cluster_NavigationTemplateModule_exports</title>
<polygon fill="none" stroke="black" points="320,-170.8 320,-222.8 536,-222.8 536,-170.8 320,-170.8"/>
</g>
<g id="clust4" class="cluster">
<title>cluster_NavigationTemplateModule_imports</title>
<polygon fill="none" stroke="black" points="16,-40.8 16,-92.8 615,-92.8 615,-40.8 16,-40.8"/>
</g>
<!-- NavigationTemplateComponent -->
<g id="node1" class="node">
<title>NavigationTemplateComponent</title>
<polygon fill="#ffffb3" stroke="black" points="827.41,-84.8 630.59,-84.8 630.59,-48.8 827.41,-48.8 827.41,-84.8"/>
<text text-anchor="middle" x="729" y="-62.6" font-family="Times,serif" font-size="14.00">NavigationTemplateComponent</text>
</g>
<!-- NavigationTemplateModule -->
<g id="node2" class="node">
<title>NavigationTemplateModule</title>
<polygon fill="#8dd3c7" stroke="black" points="515.13,-149.8 512.13,-153.8 491.13,-153.8 488.13,-149.8 340.87,-149.8 340.87,-113.8 515.13,-113.8 515.13,-149.8"/>
<text text-anchor="middle" x="428" y="-127.6" font-family="Times,serif" font-size="14.00">NavigationTemplateModule</text>
</g>
<!-- NavigationTemplateComponent&#45;&gt;NavigationTemplateModule -->
<g id="edge1" class="edge">
<title>NavigationTemplateComponent&#45;&gt;NavigationTemplateModule</title>
<path fill="none" stroke="black" d="M729,-85.08C729,-106.12 729,-137.8 729,-137.8 729,-137.8 525.47,-137.8 525.47,-137.8"/>
<polygon fill="black" stroke="black" points="525.47,-134.3 515.47,-137.8 525.47,-141.3 525.47,-134.3"/>
</g>
<!-- NavigationTemplateComponent  -->
<g id="node7" class="node">
<title>NavigationTemplateComponent </title>
<polygon fill="#fb8072" stroke="black" points="527.91,-214.8 328.09,-214.8 328.09,-178.8 527.91,-178.8 527.91,-214.8"/>
<text text-anchor="middle" x="428" y="-192.6" font-family="Times,serif" font-size="14.00">NavigationTemplateComponent </text>
</g>
<!-- NavigationTemplateModule&#45;&gt;NavigationTemplateComponent  -->
<g id="edge6" class="edge">
<title>NavigationTemplateModule&#45;&gt;NavigationTemplateComponent </title>
<path fill="none" stroke="black" stroke-dasharray="5,2" d="M428,-149.91C428,-149.91 428,-168.79 428,-168.79"/>
<polygon fill="black" stroke="black" points="424.5,-168.79 428,-178.79 431.5,-168.79 424.5,-168.79"/>
</g>
<!-- LogoModule -->
<g id="node3" class="node">
<title>LogoModule</title>
<polygon fill="#8dd3c7" stroke="black" points="606.6,-84.8 603.6,-88.8 582.6,-88.8 579.6,-84.8 517.4,-84.8 517.4,-48.8 606.6,-48.8 606.6,-84.8"/>
<text text-anchor="middle" x="562" y="-62.6" font-family="Times,serif" font-size="14.00">LogoModule</text>
</g>
<!-- LogoModule&#45;&gt;NavigationTemplateModule -->
<g id="edge2" class="edge">
<title>LogoModule&#45;&gt;NavigationTemplateModule</title>
<path fill="none" stroke="black" d="M522.7,-84.82C522.7,-102.17 522.7,-125.8 522.7,-125.8 522.7,-125.8 521.96,-125.8 521.96,-125.8"/>
<polygon fill="black" stroke="black" points="525.27,-122.3 515.27,-125.8 525.27,-129.3 525.27,-122.3"/>
</g>
<!-- NavbarBottomModule -->
<g id="node4" class="node">
<title>NavbarBottomModule</title>
<polygon fill="#8dd3c7" stroke="black" points="499.25,-84.8 496.25,-88.8 475.25,-88.8 472.25,-84.8 356.75,-84.8 356.75,-48.8 499.25,-48.8 499.25,-84.8"/>
<text text-anchor="middle" x="428" y="-62.6" font-family="Times,serif" font-size="14.00">NavbarBottomModule</text>
</g>
<!-- NavbarBottomModule&#45;&gt;NavigationTemplateModule -->
<g id="edge3" class="edge">
<title>NavbarBottomModule&#45;&gt;NavigationTemplateModule</title>
<path fill="none" stroke="black" d="M428,-84.91C428,-84.91 428,-103.79 428,-103.79"/>
<polygon fill="black" stroke="black" points="424.5,-103.79 428,-113.79 431.5,-103.79 424.5,-103.79"/>
</g>
<!-- NavigationMenuModule -->
<g id="node5" class="node">
<title>NavigationMenuModule</title>
<polygon fill="#8dd3c7" stroke="black" points="338.42,-84.8 335.42,-88.8 314.42,-88.8 311.42,-84.8 183.58,-84.8 183.58,-48.8 338.42,-48.8 338.42,-84.8"/>
<text text-anchor="middle" x="261" y="-62.6" font-family="Times,serif" font-size="14.00">NavigationMenuModule</text>
</g>
<!-- NavigationMenuModule&#45;&gt;NavigationTemplateModule -->
<g id="edge4" class="edge">
<title>NavigationMenuModule&#45;&gt;NavigationTemplateModule</title>
<path fill="none" stroke="black" d="M333.13,-84.82C333.13,-102.17 333.13,-125.8 333.13,-125.8 333.13,-125.8 333.87,-125.8 333.87,-125.8"/>
<polygon fill="black" stroke="black" points="330.57,-129.3 340.57,-125.8 330.57,-122.3 330.57,-129.3"/>
</g>
<!-- RoadmapStainModule -->
<g id="node6" class="node">
<title>RoadmapStainModule</title>
<polygon fill="#8dd3c7" stroke="black" points="165.98,-84.8 162.98,-88.8 141.98,-88.8 138.98,-84.8 24.02,-84.8 24.02,-48.8 165.98,-48.8 165.98,-84.8"/>
<text text-anchor="middle" x="95" y="-62.6" font-family="Times,serif" font-size="14.00">RoadmapStainModule</text>
</g>
<!-- RoadmapStainModule&#45;&gt;NavigationTemplateModule -->
<g id="edge5" class="edge">
<title>RoadmapStainModule&#45;&gt;NavigationTemplateModule</title>
<path fill="none" stroke="black" d="M95,-85.08C95,-106.12 95,-137.8 95,-137.8 95,-137.8 330.51,-137.8 330.51,-137.8"/>
<polygon fill="black" stroke="black" points="330.51,-141.3 340.51,-137.8 330.51,-134.3 330.51,-141.3"/>
</g>
</g>
</svg>
