<?xml version="1.0" encoding="UTF-8" standalone="no"?>
<!DOCTYPE svg PUBLIC "-//W3C//DTD SVG 1.1//EN"
 "http://www.w3.org/Graphics/SVG/1.1/DTD/svg11.dtd">
<!-- Generated by graphviz version 2.47.3 (20210619.1520)
 -->
<!-- Title: dependencies Pages: 1 -->
<svg width="1546pt" height="174pt"
 viewBox="0.00 0.00 1546.00 173.80" xmlns="http://www.w3.org/2000/svg" xmlns:xlink="http://www.w3.org/1999/xlink">
<g id="graph0" class="graph" transform="scale(1 1) rotate(0) translate(4 169.8)">
<title>dependencies</title>
<polygon fill="white" stroke="transparent" points="-4,4 -4,-169.8 1542,-169.8 1542,4 -4,4"/>
<text text-anchor="middle" x="769" y="-8.2" font-family="sans-serif" font-size="14.00">dependencies</text>
<g id="clust1" class="cluster">
<title>cluster_HumanProfileDialogModule</title>
<polygon fill="none" stroke="black" stroke-dasharray="1,5" points="8,-32.8 8,-157.8 1530,-157.8 1530,-32.8 8,-32.8"/>
</g>
<g id="clust4" class="cluster">
<title>cluster_HumanProfileDialogModule_imports</title>
<polygon fill="none" stroke="black" points="748,-40.8 748,-92.8 1522,-92.8 1522,-40.8 748,-40.8"/>
</g>
<g id="clust7" class="cluster">
<title>cluster_HumanProfileDialogModule_providers</title>
<polygon fill="none" stroke="black" points="238,-40.8 238,-92.8 740,-92.8 740,-40.8 238,-40.8"/>
</g>
<g id="clust2" class="cluster">
<title>cluster_HumanProfileDialogModule_declarations</title>
<polygon fill="none" stroke="black" points="16,-40.8 16,-92.8 230,-92.8 230,-40.8 16,-40.8"/>
</g>
<!-- HumanProfileDialogComponent -->
<g id="node1" class="node">
<title>HumanProfileDialogComponent</title>
<polygon fill="#ffffb3" stroke="black" points="222.25,-84.8 23.75,-84.8 23.75,-48.8 222.25,-48.8 222.25,-84.8"/>
<text text-anchor="middle" x="123" y="-62.6" font-family="Times,serif" font-size="14.00">HumanProfileDialogComponent</text>
</g>
<!-- HumanProfileDialogModule -->
<g id="node2" class="node">
<title>HumanProfileDialogModule</title>
<polygon fill="#8dd3c7" stroke="black" points="922.46,-149.8 919.46,-153.8 898.46,-153.8 895.46,-149.8 745.54,-149.8 745.54,-113.8 922.46,-113.8 922.46,-149.8"/>
<text text-anchor="middle" x="834" y="-127.6" font-family="Times,serif" font-size="14.00">HumanProfileDialogModule</text>
</g>
<!-- HumanProfileDialogComponent&#45;&gt;HumanProfileDialogModule -->
<g id="edge1" class="edge">
<title>HumanProfileDialogComponent&#45;&gt;HumanProfileDialogModule</title>
<path fill="none" stroke="black" d="M123,-85.09C123,-107.01 123,-140.8 123,-140.8 123,-140.8 735.39,-140.8 735.39,-140.8"/>
<polygon fill="black" stroke="black" points="735.39,-144.3 745.39,-140.8 735.39,-137.3 735.39,-144.3"/>
</g>
<!-- HumanItineraryModule -->
<g id="node3" class="node">
<title>HumanItineraryModule</title>
<polygon fill="#8dd3c7" stroke="black" points="1514.45,-84.8 1511.45,-88.8 1490.45,-88.8 1487.45,-84.8 1365.55,-84.8 1365.55,-48.8 1514.45,-48.8 1514.45,-84.8"/>
<text text-anchor="middle" x="1440" y="-62.6" font-family="Times,serif" font-size="14.00">HumanItineraryModule</text>
</g>
<!-- HumanItineraryModule&#45;&gt;HumanProfileDialogModule -->
<g id="edge2" class="edge">
<title>HumanItineraryModule&#45;&gt;HumanProfileDialogModule</title>
<path fill="none" stroke="black" d="M1440,-85.09C1440,-107.01 1440,-140.8 1440,-140.8 1440,-140.8 932.77,-140.8 932.77,-140.8"/>
<polygon fill="black" stroke="black" points="932.77,-137.3 922.77,-140.8 932.77,-144.3 932.77,-137.3"/>
</g>
<!-- LocationModule -->
<g id="node4" class="node">
<title>LocationModule</title>
<polygon fill="#8dd3c7" stroke="black" points="1347.81,-84.8 1344.81,-88.8 1323.81,-88.8 1320.81,-84.8 1238.19,-84.8 1238.19,-48.8 1347.81,-48.8 1347.81,-84.8"/>
<text text-anchor="middle" x="1293" y="-62.6" font-family="Times,serif" font-size="14.00">LocationModule</text>
</g>
<!-- LocationModule&#45;&gt;HumanProfileDialogModule -->
<g id="edge3" class="edge">
<title>LocationModule&#45;&gt;HumanProfileDialogModule</title>
<path fill="none" stroke="black" d="M1293,-84.91C1293,-104.14 1293,-131.8 1293,-131.8 1293,-131.8 932.5,-131.8 932.5,-131.8"/>
<polygon fill="black" stroke="black" points="932.5,-128.3 922.5,-131.8 932.5,-135.3 932.5,-128.3"/>
</g>
<!-- LocationsModule -->
<g id="node5" class="node">
<title>LocationsModule</title>
<polygon fill="#8dd3c7" stroke="black" points="1220.26,-84.8 1217.26,-88.8 1196.26,-88.8 1193.26,-84.8 1105.74,-84.8 1105.74,-48.8 1220.26,-48.8 1220.26,-84.8"/>
<text text-anchor="middle" x="1163" y="-62.6" font-family="Times,serif" font-size="14.00">LocationsModule</text>
</g>
<!-- LocationsModule&#45;&gt;HumanProfileDialogModule -->
<g id="edge4" class="edge">
<title>LocationsModule&#45;&gt;HumanProfileDialogModule</title>
<path fill="none" stroke="black" d="M1163,-84.83C1163,-101.2 1163,-122.8 1163,-122.8 1163,-122.8 932.6,-122.8 932.6,-122.8"/>
<polygon fill="black" stroke="black" points="932.6,-119.3 922.6,-122.8 932.6,-126.3 932.6,-119.3"/>
</g>
<!-- TestimonyDialogModule -->
<g id="node6" class="node">
<title>TestimonyDialogModule</title>
<polygon fill="#8dd3c7" stroke="black" points="1087.54,-84.8 1084.54,-88.8 1063.54,-88.8 1060.54,-84.8 930.46,-84.8 930.46,-48.8 1087.54,-48.8 1087.54,-84.8"/>
<text text-anchor="middle" x="1009" y="-62.6" font-family="Times,serif" font-size="14.00">TestimonyDialogModule</text>
</g>
<!-- TestimonyDialogModule&#45;&gt;HumanProfileDialogModule -->
<g id="edge5" class="edge">
<title>TestimonyDialogModule&#45;&gt;HumanProfileDialogModule</title>
<path fill="none" stroke="black" d="M930.16,-66.8C922.45,-66.8 917.42,-66.8 917.42,-66.8 917.42,-66.8 917.42,-103.69 917.42,-103.69"/>
<polygon fill="black" stroke="black" points="913.92,-103.69 917.42,-113.69 920.92,-103.69 913.92,-103.69"/>
</g>
<!-- YoutubeWrapperModule -->
<g id="node7" class="node">
<title>YoutubeWrapperModule</title>
<polygon fill="#8dd3c7" stroke="black" points="912.23,-84.8 909.23,-88.8 888.23,-88.8 885.23,-84.8 755.77,-84.8 755.77,-48.8 912.23,-48.8 912.23,-84.8"/>
<text text-anchor="middle" x="834" y="-62.6" font-family="Times,serif" font-size="14.00">YoutubeWrapperModule</text>
</g>
<!-- YoutubeWrapperModule&#45;&gt;HumanProfileDialogModule -->
<g id="edge6" class="edge">
<title>YoutubeWrapperModule&#45;&gt;HumanProfileDialogModule</title>
<path fill="none" stroke="black" d="M834,-84.91C834,-84.91 834,-103.79 834,-103.79"/>
<polygon fill="black" stroke="black" points="830.5,-103.79 834,-113.79 837.5,-103.79 830.5,-103.79"/>
</g>
<!-- InstanceService -->
<g id="node8" class="node">
<title>InstanceService</title>
<ellipse fill="#fdb462" stroke="black" cx="660" cy="-66.8" rx="72.33" ry="18"/>
<text text-anchor="middle" x="660" y="-62.6" font-family="Times,serif" font-size="14.00">InstanceService</text>
</g>
<!-- InstanceService&#45;&gt;HumanProfileDialogModule -->
<g id="edge7" class="edge">
<title>InstanceService&#45;&gt;HumanProfileDialogModule</title>
<path fill="none" stroke="black" d="M732.25,-66.8C743.01,-66.8 750.58,-66.8 750.58,-66.8 750.58,-66.8 750.58,-103.69 750.58,-103.69"/>
<polygon fill="black" stroke="black" points="747.08,-103.69 750.58,-113.69 754.08,-103.69 747.08,-103.69"/>
</g>
<!-- VideoAskClient -->
<g id="node9" class="node">
<title>VideoAskClient</title>
<ellipse fill="#fdb462" stroke="black" cx="496" cy="-66.8" rx="73.59" ry="18"/>
<text text-anchor="middle" x="496" y="-62.6" font-family="Times,serif" font-size="14.00">VideoAskClient</text>
</g>
<!-- VideoAskClient&#45;&gt;HumanProfileDialogModule -->
<g id="edge8" class="edge">
<title>VideoAskClient&#45;&gt;HumanProfileDialogModule</title>
<path fill="none" stroke="black" d="M496,-84.83C496,-101.2 496,-122.8 496,-122.8 496,-122.8 735.19,-122.8 735.19,-122.8"/>
<polygon fill="black" stroke="black" points="735.19,-126.3 745.19,-122.8 735.19,-119.3 735.19,-126.3"/>
</g>
<!-- VideoAskService -->
<g id="node10" class="node">
<title>VideoAskService</title>
<ellipse fill="#fdb462" stroke="black" cx="325" cy="-66.8" rx="79.29" ry="18"/>
<text text-anchor="middle" x="325" y="-62.6" font-family="Times,serif" font-size="14.00">VideoAskService</text>
</g>
<!-- VideoAskService&#45;&gt;HumanProfileDialogModule -->
<g id="edge9" class="edge">
<title>VideoAskService&#45;&gt;HumanProfileDialogModule</title>
<path fill="none" stroke="black" d="M325,-84.91C325,-104.14 325,-131.8 325,-131.8 325,-131.8 735.34,-131.8 735.34,-131.8"/>
<polygon fill="black" stroke="black" points="735.34,-135.3 745.34,-131.8 735.34,-128.3 735.34,-135.3"/>
</g>
</g>
</svg>
