<?xml version="1.0" encoding="UTF-8" standalone="no"?>
<!DOCTYPE svg PUBLIC "-//W3C//DTD SVG 1.1//EN"
 "http://www.w3.org/Graphics/SVG/1.1/DTD/svg11.dtd">
<!-- Generated by graphviz version 2.47.3 (20210619.1520)
 -->
<!-- Title: dependencies Pages: 1 -->
<svg width="942pt" height="247pt"
 viewBox="0.00 0.00 942.00 246.80" xmlns="http://www.w3.org/2000/svg" xmlns:xlink="http://www.w3.org/1999/xlink">
<g id="graph0" class="graph" transform="scale(1 1) rotate(0) translate(4 242.8)">
<title>dependencies</title>
<polygon fill="white" stroke="transparent" points="-4,4 -4,-242.8 938,-242.8 938,4 -4,4"/>
<text text-anchor="middle" x="467" y="-8.2" font-family="sans-serif" font-size="14.00">dependencies</text>
<g id="clust1" class="cluster">
<title>cluster_ContactButtonModule</title>
<polygon fill="none" stroke="black" stroke-dasharray="1,5" points="8,-32.8 8,-230.8 926,-230.8 926,-32.8 8,-32.8"/>
</g>
<g id="clust5" class="cluster">
<title>cluster_ContactButtonModule_exports</title>
<polygon fill="none" stroke="black" points="389,-170.8 389,-222.8 571,-222.8 571,-170.8 389,-170.8"/>
</g>
<g id="clust4" class="cluster">
<title>cluster_ContactButtonModule_imports</title>
<polygon fill="none" stroke="black" points="576,-40.8 576,-92.8 918,-92.8 918,-40.8 576,-40.8"/>
</g>
<g id="clust7" class="cluster">
<title>cluster_ContactButtonModule_providers</title>
<polygon fill="none" stroke="black" points="202,-40.8 202,-92.8 568,-92.8 568,-40.8 202,-40.8"/>
</g>
<g id="clust2" class="cluster">
<title>cluster_ContactButtonModule_declarations</title>
<polygon fill="none" stroke="black" points="16,-40.8 16,-92.8 194,-92.8 194,-40.8 16,-40.8"/>
</g>
<!-- ContactButtonComponent -->
<g id="node1" class="node">
<title>ContactButtonComponent</title>
<polygon fill="#ffffb3" stroke="black" points="186.5,-84.8 23.5,-84.8 23.5,-48.8 186.5,-48.8 186.5,-84.8"/>
<text text-anchor="middle" x="105" y="-62.6" font-family="Times,serif" font-size="14.00">ContactButtonComponent</text>
</g>
<!-- ContactButtonModule -->
<g id="node2" class="node">
<title>ContactButtonModule</title>
<polygon fill="#8dd3c7" stroke="black" points="550.71,-149.8 547.71,-153.8 526.71,-153.8 523.71,-149.8 409.29,-149.8 409.29,-113.8 550.71,-113.8 550.71,-149.8"/>
<text text-anchor="middle" x="480" y="-127.6" font-family="Times,serif" font-size="14.00">ContactButtonModule</text>
</g>
<!-- ContactButtonComponent&#45;&gt;ContactButtonModule -->
<g id="edge1" class="edge">
<title>ContactButtonComponent&#45;&gt;ContactButtonModule</title>
<path fill="none" stroke="black" d="M105,-85.08C105,-106.12 105,-137.8 105,-137.8 105,-137.8 399.02,-137.8 399.02,-137.8"/>
<polygon fill="black" stroke="black" points="399.02,-141.3 409.02,-137.8 399.02,-134.3 399.02,-141.3"/>
</g>
<!-- ContactButtonComponent  -->
<g id="node5" class="node">
<title>ContactButtonComponent </title>
<polygon fill="#fb8072" stroke="black" points="563.5,-214.8 396.5,-214.8 396.5,-178.8 563.5,-178.8 563.5,-214.8"/>
<text text-anchor="middle" x="480" y="-192.6" font-family="Times,serif" font-size="14.00">ContactButtonComponent </text>
</g>
<!-- ContactButtonModule&#45;&gt;ContactButtonComponent  -->
<g id="edge4" class="edge">
<title>ContactButtonModule&#45;&gt;ContactButtonComponent </title>
<path fill="none" stroke="black" stroke-dasharray="5,2" d="M480,-149.91C480,-149.91 480,-168.79 480,-168.79"/>
<polygon fill="black" stroke="black" points="476.5,-168.79 480,-178.79 483.5,-168.79 476.5,-168.79"/>
</g>
<!-- ContactDialogModule -->
<g id="node3" class="node">
<title>ContactDialogModule</title>
<polygon fill="#8dd3c7" stroke="black" points="909.7,-84.8 906.7,-88.8 885.7,-88.8 882.7,-84.8 768.3,-84.8 768.3,-48.8 909.7,-48.8 909.7,-84.8"/>
<text text-anchor="middle" x="839" y="-62.6" font-family="Times,serif" font-size="14.00">ContactDialogModule</text>
</g>
<!-- ContactDialogModule&#45;&gt;ContactButtonModule -->
<g id="edge2" class="edge">
<title>ContactDialogModule&#45;&gt;ContactButtonModule</title>
<path fill="none" stroke="black" d="M839,-85.08C839,-106.12 839,-137.8 839,-137.8 839,-137.8 560.93,-137.8 560.93,-137.8"/>
<polygon fill="black" stroke="black" points="560.93,-134.3 550.93,-137.8 560.93,-141.3 560.93,-134.3"/>
</g>
<!-- RegistrationDialogModule -->
<g id="node4" class="node">
<title>RegistrationDialogModule</title>
<polygon fill="#8dd3c7" stroke="black" points="750.09,-84.8 747.09,-88.8 726.09,-88.8 723.09,-84.8 583.91,-84.8 583.91,-48.8 750.09,-48.8 750.09,-84.8"/>
<text text-anchor="middle" x="667" y="-62.6" font-family="Times,serif" font-size="14.00">RegistrationDialogModule</text>
</g>
<!-- RegistrationDialogModule&#45;&gt;ContactButtonModule -->
<g id="edge3" class="edge">
<title>RegistrationDialogModule&#45;&gt;ContactButtonModule</title>
<path fill="none" stroke="black" d="M667,-84.82C667,-102.17 667,-125.8 667,-125.8 667,-125.8 560.7,-125.8 560.7,-125.8"/>
<polygon fill="black" stroke="black" points="560.7,-122.3 550.7,-125.8 560.7,-129.3 560.7,-122.3"/>
</g>
<!-- ApplicationClient -->
<g id="node6" class="node">
<title>ApplicationClient</title>
<ellipse fill="#fdb462" stroke="black" cx="480" cy="-66.8" rx="80.47" ry="18"/>
<text text-anchor="middle" x="480" y="-62.6" font-family="Times,serif" font-size="14.00">ApplicationClient</text>
</g>
<!-- ApplicationClient&#45;&gt;ContactButtonModule -->
<g id="edge5" class="edge">
<title>ApplicationClient&#45;&gt;ContactButtonModule</title>
<path fill="none" stroke="black" d="M480,-84.91C480,-84.91 480,-103.79 480,-103.79"/>
<polygon fill="black" stroke="black" points="476.5,-103.79 480,-113.79 483.5,-103.79 476.5,-103.79"/>
</g>
<!-- ApplicationService -->
<g id="node7" class="node">
<title>ApplicationService</title>
<ellipse fill="#fdb462" stroke="black" cx="296" cy="-66.8" rx="85.67" ry="18"/>
<text text-anchor="middle" x="296" y="-62.6" font-family="Times,serif" font-size="14.00">ApplicationService</text>
</g>
<!-- ApplicationService&#45;&gt;ContactButtonModule -->
<g id="edge6" class="edge">
<title>ApplicationService&#45;&gt;ContactButtonModule</title>
<path fill="none" stroke="black" d="M296,-84.82C296,-102.17 296,-125.8 296,-125.8 296,-125.8 399.39,-125.8 399.39,-125.8"/>
<polygon fill="black" stroke="black" points="399.39,-129.3 409.39,-125.8 399.39,-122.3 399.39,-129.3"/>
</g>
</g>
</svg>
