<?xml version="1.0" encoding="UTF-8" standalone="no"?>
<!DOCTYPE svg PUBLIC "-//W3C//DTD SVG 1.1//EN"
 "http://www.w3.org/Graphics/SVG/1.1/DTD/svg11.dtd">
<!-- Generated by graphviz version 2.47.3 (20210619.1520)
 -->
<!-- Title: dependencies Pages: 1 -->
<svg width="650pt" height="174pt"
 viewBox="0.00 0.00 650.00 173.80" xmlns="http://www.w3.org/2000/svg" xmlns:xlink="http://www.w3.org/1999/xlink">
<g id="graph0" class="graph" transform="scale(1 1) rotate(0) translate(4 169.8)">
<title>dependencies</title>
<polygon fill="white" stroke="transparent" points="-4,4 -4,-169.8 646,-169.8 646,4 -4,4"/>
<text text-anchor="middle" x="321" y="-8.2" font-family="sans-serif" font-size="14.00">dependencies</text>
<g id="clust1" class="cluster">
<title>cluster_IntentionsWaypointDetailsPageModule</title>
<polygon fill="none" stroke="black" stroke-dasharray="1,5" points="8,-32.8 8,-157.8 634,-157.8 634,-32.8 8,-32.8"/>
</g>
<g id="clust2" class="cluster">
<title>cluster_IntentionsWaypointDetailsPageModule_declarations</title>
<polygon fill="none" stroke="black" points="350,-40.8 350,-92.8 626,-92.8 626,-40.8 350,-40.8"/>
</g>
<g id="clust4" class="cluster">
<title>cluster_IntentionsWaypointDetailsPageModule_imports</title>
<polygon fill="none" stroke="black" points="16,-40.8 16,-92.8 342,-92.8 342,-40.8 16,-40.8"/>
</g>
<!-- IntentionsWaypointDetailsPageComponent -->
<g id="node1" class="node">
<title>IntentionsWaypointDetailsPageComponent</title>
<polygon fill="#ffffb3" stroke="black" points="617.9,-84.8 358.1,-84.8 358.1,-48.8 617.9,-48.8 617.9,-84.8"/>
<text text-anchor="middle" x="488" y="-62.6" font-family="Times,serif" font-size="14.00">IntentionsWaypointDetailsPageComponent</text>
</g>
<!-- IntentionsWaypointDetailsPageModule -->
<g id="node2" class="node">
<title>IntentionsWaypointDetailsPageModule</title>
<polygon fill="#8dd3c7" stroke="black" points="376.62,-149.8 373.62,-153.8 352.62,-153.8 349.62,-149.8 139.38,-149.8 139.38,-113.8 376.62,-113.8 376.62,-149.8"/>
<text text-anchor="middle" x="258" y="-127.6" font-family="Times,serif" font-size="14.00">IntentionsWaypointDetailsPageModule</text>
</g>
<!-- IntentionsWaypointDetailsPageComponent&#45;&gt;IntentionsWaypointDetailsPageModule -->
<g id="edge1" class="edge">
<title>IntentionsWaypointDetailsPageComponent&#45;&gt;IntentionsWaypointDetailsPageModule</title>
<path fill="none" stroke="black" d="M367.55,-84.91C367.55,-84.91 367.55,-103.79 367.55,-103.79"/>
<polygon fill="black" stroke="black" points="364.05,-103.79 367.55,-113.79 371.05,-103.79 364.05,-103.79"/>
</g>
<!-- SimpleTemplateModule -->
<g id="node3" class="node">
<title>SimpleTemplateModule</title>
<polygon fill="#8dd3c7" stroke="black" points="334.09,-84.8 331.09,-88.8 310.09,-88.8 307.09,-84.8 181.91,-84.8 181.91,-48.8 334.09,-48.8 334.09,-84.8"/>
<text text-anchor="middle" x="258" y="-62.6" font-family="Times,serif" font-size="14.00">SimpleTemplateModule</text>
</g>
<!-- SimpleTemplateModule&#45;&gt;IntentionsWaypointDetailsPageModule -->
<g id="edge2" class="edge">
<title>SimpleTemplateModule&#45;&gt;IntentionsWaypointDetailsPageModule</title>
<path fill="none" stroke="black" d="M258,-84.91C258,-84.91 258,-103.79 258,-103.79"/>
<polygon fill="black" stroke="black" points="254.5,-103.79 258,-113.79 261.5,-103.79 254.5,-103.79"/>
</g>
<!-- VillageDetailsModule -->
<g id="node4" class="node">
<title>VillageDetailsModule</title>
<polygon fill="#8dd3c7" stroke="black" points="164.41,-84.8 161.41,-88.8 140.41,-88.8 137.41,-84.8 23.59,-84.8 23.59,-48.8 164.41,-48.8 164.41,-84.8"/>
<text text-anchor="middle" x="94" y="-62.6" font-family="Times,serif" font-size="14.00">VillageDetailsModule</text>
</g>
<!-- VillageDetailsModule&#45;&gt;IntentionsWaypointDetailsPageModule -->
<g id="edge3" class="edge">
<title>VillageDetailsModule&#45;&gt;IntentionsWaypointDetailsPageModule</title>
<path fill="none" stroke="black" d="M151.7,-84.91C151.7,-84.91 151.7,-103.79 151.7,-103.79"/>
<polygon fill="black" stroke="black" points="148.2,-103.79 151.7,-113.79 155.2,-103.79 148.2,-103.79"/>
</g>
</g>
</svg>
