<?xml version="1.0" encoding="UTF-8" standalone="no"?>
<!DOCTYPE svg PUBLIC "-//W3C//DTD SVG 1.1//EN"
 "http://www.w3.org/Graphics/SVG/1.1/DTD/svg11.dtd">
<!-- Generated by graphviz version 2.47.3 (20210619.1520)
 -->
<!-- Title: dependencies Pages: 1 -->
<svg width="210pt" height="247pt"
 viewBox="0.00 0.00 210.00 246.80" xmlns="http://www.w3.org/2000/svg" xmlns:xlink="http://www.w3.org/1999/xlink">
<g id="graph0" class="graph" transform="scale(1 1) rotate(0) translate(4 242.8)">
<title>dependencies</title>
<polygon fill="white" stroke="transparent" points="-4,4 -4,-242.8 206,-242.8 206,4 -4,4"/>
<text text-anchor="middle" x="101" y="-8.2" font-family="sans-serif" font-size="14.00">dependencies</text>
<g id="clust1" class="cluster">
<title>cluster_ItineraryBarModule</title>
<polygon fill="none" stroke="black" stroke-dasharray="1,5" points="8,-32.8 8,-230.8 194,-230.8 194,-32.8 8,-32.8"/>
</g>
<g id="clust2" class="cluster">
<title>cluster_ItineraryBarModule_declarations</title>
<polygon fill="none" stroke="black" points="18,-40.8 18,-92.8 184,-92.8 184,-40.8 18,-40.8"/>
</g>
<g id="clust5" class="cluster">
<title>cluster_ItineraryBarModule_exports</title>
<polygon fill="none" stroke="black" points="16,-170.8 16,-222.8 186,-222.8 186,-170.8 16,-170.8"/>
</g>
<!-- ItineraryBarComponent -->
<g id="node1" class="node">
<title>ItineraryBarComponent</title>
<polygon fill="#ffffb3" stroke="black" points="175.74,-84.8 26.26,-84.8 26.26,-48.8 175.74,-48.8 175.74,-84.8"/>
<text text-anchor="middle" x="101" y="-62.6" font-family="Times,serif" font-size="14.00">ItineraryBarComponent</text>
</g>
<!-- ItineraryBarModule -->
<g id="node2" class="node">
<title>ItineraryBarModule</title>
<polygon fill="#8dd3c7" stroke="black" points="164.95,-149.8 161.95,-153.8 140.95,-153.8 137.95,-149.8 37.05,-149.8 37.05,-113.8 164.95,-113.8 164.95,-149.8"/>
<text text-anchor="middle" x="101" y="-127.6" font-family="Times,serif" font-size="14.00">ItineraryBarModule</text>
</g>
<!-- ItineraryBarComponent&#45;&gt;ItineraryBarModule -->
<g id="edge1" class="edge">
<title>ItineraryBarComponent&#45;&gt;ItineraryBarModule</title>
<path fill="none" stroke="black" d="M101,-84.91C101,-84.91 101,-103.79 101,-103.79"/>
<polygon fill="black" stroke="black" points="97.5,-103.79 101,-113.79 104.5,-103.79 97.5,-103.79"/>
</g>
<!-- ItineraryBarComponent  -->
<g id="node3" class="node">
<title>ItineraryBarComponent </title>
<polygon fill="#fb8072" stroke="black" points="177.74,-214.8 24.26,-214.8 24.26,-178.8 177.74,-178.8 177.74,-214.8"/>
<text text-anchor="middle" x="101" y="-192.6" font-family="Times,serif" font-size="14.00">ItineraryBarComponent </text>
</g>
<!-- ItineraryBarModule&#45;&gt;ItineraryBarComponent  -->
<g id="edge2" class="edge">
<title>ItineraryBarModule&#45;&gt;ItineraryBarComponent </title>
<path fill="none" stroke="black" stroke-dasharray="5,2" d="M101,-149.91C101,-149.91 101,-168.79 101,-168.79"/>
<polygon fill="black" stroke="black" points="97.5,-168.79 101,-178.79 104.5,-168.79 97.5,-168.79"/>
</g>
</g>
</svg>
