<?xml version="1.0" encoding="UTF-8" standalone="no"?>
<!DOCTYPE svg PUBLIC "-//W3C//DTD SVG 1.1//EN"
 "http://www.w3.org/Graphics/SVG/1.1/DTD/svg11.dtd">
<!-- Generated by graphviz version 2.47.3 (20210619.1520)
 -->
<!-- Title: dependencies Pages: 1 -->
<svg width="1214pt" height="174pt"
 viewBox="0.00 0.00 1214.00 173.80" xmlns="http://www.w3.org/2000/svg" xmlns:xlink="http://www.w3.org/1999/xlink">
<g id="graph0" class="graph" transform="scale(1 1) rotate(0) translate(4 169.8)">
<title>dependencies</title>
<polygon fill="white" stroke="transparent" points="-4,4 -4,-169.8 1210,-169.8 1210,4 -4,4"/>
<text text-anchor="middle" x="603" y="-8.2" font-family="sans-serif" font-size="14.00">dependencies</text>
<g id="clust1" class="cluster">
<title>cluster_ExpeditionPageModule</title>
<polygon fill="none" stroke="black" stroke-dasharray="1,5" points="8,-32.8 8,-157.8 1198,-157.8 1198,-32.8 8,-32.8"/>
</g>
<g id="clust2" class="cluster">
<title>cluster_ExpeditionPageModule_declarations</title>
<polygon fill="none" stroke="black" points="1004,-40.8 1004,-92.8 1190,-92.8 1190,-40.8 1004,-40.8"/>
</g>
<g id="clust4" class="cluster">
<title>cluster_ExpeditionPageModule_imports</title>
<polygon fill="none" stroke="black" points="16,-40.8 16,-92.8 996,-92.8 996,-40.8 16,-40.8"/>
</g>
<!-- ExpeditionPageComponent -->
<g id="node1" class="node">
<title>ExpeditionPageComponent</title>
<polygon fill="#ffffb3" stroke="black" points="1181.98,-84.8 1012.02,-84.8 1012.02,-48.8 1181.98,-48.8 1181.98,-84.8"/>
<text text-anchor="middle" x="1097" y="-62.6" font-family="Times,serif" font-size="14.00">ExpeditionPageComponent</text>
</g>
<!-- ExpeditionPageModule -->
<g id="node2" class="node">
<title>ExpeditionPageModule</title>
<polygon fill="#8dd3c7" stroke="black" points="638.2,-149.8 635.2,-153.8 614.2,-153.8 611.2,-149.8 489.8,-149.8 489.8,-113.8 638.2,-113.8 638.2,-149.8"/>
<text text-anchor="middle" x="564" y="-127.6" font-family="Times,serif" font-size="14.00">ExpeditionPageModule</text>
</g>
<!-- ExpeditionPageComponent&#45;&gt;ExpeditionPageModule -->
<g id="edge1" class="edge">
<title>ExpeditionPageComponent&#45;&gt;ExpeditionPageModule</title>
<path fill="none" stroke="black" d="M1097,-85.08C1097,-106.12 1097,-137.8 1097,-137.8 1097,-137.8 648.11,-137.8 648.11,-137.8"/>
<polygon fill="black" stroke="black" points="648.11,-134.3 638.11,-137.8 648.11,-141.3 648.11,-134.3"/>
</g>
<!-- ExpeditionInstanceCardModule -->
<g id="node3" class="node">
<title>ExpeditionInstanceCardModule</title>
<polygon fill="#8dd3c7" stroke="black" points="988.34,-84.8 985.34,-88.8 964.34,-88.8 961.34,-84.8 793.66,-84.8 793.66,-48.8 988.34,-48.8 988.34,-84.8"/>
<text text-anchor="middle" x="891" y="-62.6" font-family="Times,serif" font-size="14.00">ExpeditionInstanceCardModule</text>
</g>
<!-- ExpeditionInstanceCardModule&#45;&gt;ExpeditionPageModule -->
<g id="edge2" class="edge">
<title>ExpeditionInstanceCardModule&#45;&gt;ExpeditionPageModule</title>
<path fill="none" stroke="black" d="M891,-84.82C891,-102.17 891,-125.8 891,-125.8 891,-125.8 648.2,-125.8 648.2,-125.8"/>
<polygon fill="black" stroke="black" points="648.2,-122.3 638.2,-125.8 648.2,-129.3 648.2,-122.3"/>
</g>
<!-- ExpeditionStepDescriptionModule -->
<g id="node4" class="node">
<title>ExpeditionStepDescriptionModule</title>
<polygon fill="#8dd3c7" stroke="black" points="775.69,-84.8 772.69,-88.8 751.69,-88.8 748.69,-84.8 564.31,-84.8 564.31,-48.8 775.69,-48.8 775.69,-84.8"/>
<text text-anchor="middle" x="670" y="-62.6" font-family="Times,serif" font-size="14.00">ExpeditionStepDescriptionModule</text>
</g>
<!-- ExpeditionStepDescriptionModule&#45;&gt;ExpeditionPageModule -->
<g id="edge3" class="edge">
<title>ExpeditionStepDescriptionModule&#45;&gt;ExpeditionPageModule</title>
<path fill="none" stroke="black" d="M601.25,-84.91C601.25,-84.91 601.25,-103.79 601.25,-103.79"/>
<polygon fill="black" stroke="black" points="597.75,-103.79 601.25,-113.79 604.75,-103.79 597.75,-103.79"/>
</g>
<!-- NavigationTemplateModule -->
<g id="node5" class="node">
<title>NavigationTemplateModule</title>
<polygon fill="#8dd3c7" stroke="black" points="546.13,-84.8 543.13,-88.8 522.13,-88.8 519.13,-84.8 371.87,-84.8 371.87,-48.8 546.13,-48.8 546.13,-84.8"/>
<text text-anchor="middle" x="459" y="-62.6" font-family="Times,serif" font-size="14.00">NavigationTemplateModule</text>
</g>
<!-- NavigationTemplateModule&#45;&gt;ExpeditionPageModule -->
<g id="edge4" class="edge">
<title>NavigationTemplateModule&#45;&gt;ExpeditionPageModule</title>
<path fill="none" stroke="black" d="M518.11,-84.91C518.11,-84.91 518.11,-103.79 518.11,-103.79"/>
<polygon fill="black" stroke="black" points="514.61,-103.79 518.11,-113.79 521.61,-103.79 514.61,-103.79"/>
</g>
<!-- SharedExpeditionModule -->
<g id="node6" class="node">
<title>SharedExpeditionModule</title>
<polygon fill="#8dd3c7" stroke="black" points="353.86,-84.8 350.86,-88.8 329.86,-88.8 326.86,-84.8 194.14,-84.8 194.14,-48.8 353.86,-48.8 353.86,-84.8"/>
<text text-anchor="middle" x="274" y="-62.6" font-family="Times,serif" font-size="14.00">SharedExpeditionModule</text>
</g>
<!-- SharedExpeditionModule&#45;&gt;ExpeditionPageModule -->
<g id="edge5" class="edge">
<title>SharedExpeditionModule&#45;&gt;ExpeditionPageModule</title>
<path fill="none" stroke="black" d="M274,-84.82C274,-102.17 274,-125.8 274,-125.8 274,-125.8 479.69,-125.8 479.69,-125.8"/>
<polygon fill="black" stroke="black" points="479.69,-129.3 489.69,-125.8 479.69,-122.3 479.69,-129.3"/>
</g>
<!-- SimpleTemplateModule -->
<g id="node7" class="node">
<title>SimpleTemplateModule</title>
<polygon fill="#8dd3c7" stroke="black" points="176.09,-84.8 173.09,-88.8 152.09,-88.8 149.09,-84.8 23.91,-84.8 23.91,-48.8 176.09,-48.8 176.09,-84.8"/>
<text text-anchor="middle" x="100" y="-62.6" font-family="Times,serif" font-size="14.00">SimpleTemplateModule</text>
</g>
<!-- SimpleTemplateModule&#45;&gt;ExpeditionPageModule -->
<g id="edge6" class="edge">
<title>SimpleTemplateModule&#45;&gt;ExpeditionPageModule</title>
<path fill="none" stroke="black" d="M100,-85.08C100,-106.12 100,-137.8 100,-137.8 100,-137.8 479.71,-137.8 479.71,-137.8"/>
<polygon fill="black" stroke="black" points="479.71,-141.3 489.71,-137.8 479.71,-134.3 479.71,-141.3"/>
</g>
</g>
</svg>
