<?xml version="1.0" encoding="UTF-8" standalone="no"?>
<!DOCTYPE svg PUBLIC "-//W3C//DTD SVG 1.1//EN"
 "http://www.w3.org/Graphics/SVG/1.1/DTD/svg11.dtd">
<!-- Generated by graphviz version 2.47.3 (20210619.1520)
 -->
<!-- Title: dependencies Pages: 1 -->
<svg width="1088pt" height="174pt"
 viewBox="0.00 0.00 1088.00 173.80" xmlns="http://www.w3.org/2000/svg" xmlns:xlink="http://www.w3.org/1999/xlink">
<g id="graph0" class="graph" transform="scale(1 1) rotate(0) translate(4 169.8)">
<title>dependencies</title>
<polygon fill="white" stroke="transparent" points="-4,4 -4,-169.8 1084,-169.8 1084,4 -4,4"/>
<text text-anchor="middle" x="540" y="-8.2" font-family="sans-serif" font-size="14.00">dependencies</text>
<g id="clust1" class="cluster">
<title>cluster_IntentionsWaypointDefinitionsPageModule</title>
<polygon fill="none" stroke="black" stroke-dasharray="1,5" points="8,-32.8 8,-157.8 1072,-157.8 1072,-32.8 8,-32.8"/>
</g>
<g id="clust4" class="cluster">
<title>cluster_IntentionsWaypointDefinitionsPageModule_imports</title>
<polygon fill="none" stroke="black" points="322,-40.8 322,-92.8 1064,-92.8 1064,-40.8 322,-40.8"/>
</g>
<g id="clust2" class="cluster">
<title>cluster_IntentionsWaypointDefinitionsPageModule_declarations</title>
<polygon fill="none" stroke="black" points="16,-40.8 16,-92.8 314,-92.8 314,-40.8 16,-40.8"/>
</g>
<!-- IntentionsWaypointDefinitionsPageComponent -->
<g id="node1" class="node">
<title>IntentionsWaypointDefinitionsPageComponent</title>
<polygon fill="#ffffb3" stroke="black" points="306.24,-84.8 23.76,-84.8 23.76,-48.8 306.24,-48.8 306.24,-84.8"/>
<text text-anchor="middle" x="165" y="-62.6" font-family="Times,serif" font-size="14.00">IntentionsWaypointDefinitionsPageComponent</text>
</g>
<!-- IntentionsWaypointDefinitionsPageModule -->
<g id="node2" class="node">
<title>IntentionsWaypointDefinitionsPageModule</title>
<polygon fill="#8dd3c7" stroke="black" points="778.45,-149.8 775.45,-153.8 754.45,-153.8 751.45,-149.8 517.55,-149.8 517.55,-113.8 778.45,-113.8 778.45,-149.8"/>
<text text-anchor="middle" x="648" y="-127.6" font-family="Times,serif" font-size="14.00">IntentionsWaypointDefinitionsPageModule</text>
</g>
<!-- IntentionsWaypointDefinitionsPageComponent&#45;&gt;IntentionsWaypointDefinitionsPageModule -->
<g id="edge1" class="edge">
<title>IntentionsWaypointDefinitionsPageComponent&#45;&gt;IntentionsWaypointDefinitionsPageModule</title>
<path fill="none" stroke="black" d="M165,-85.08C165,-106.12 165,-137.8 165,-137.8 165,-137.8 507.29,-137.8 507.29,-137.8"/>
<polygon fill="black" stroke="black" points="507.29,-141.3 517.29,-137.8 507.29,-134.3 507.29,-141.3"/>
</g>
<!-- FiltersModule -->
<g id="node3" class="node">
<title>FiltersModule</title>
<polygon fill="#8dd3c7" stroke="black" points="1055.82,-84.8 1052.82,-88.8 1031.82,-88.8 1028.82,-84.8 960.18,-84.8 960.18,-48.8 1055.82,-48.8 1055.82,-84.8"/>
<text text-anchor="middle" x="1008" y="-62.6" font-family="Times,serif" font-size="14.00">FiltersModule</text>
</g>
<!-- FiltersModule&#45;&gt;IntentionsWaypointDefinitionsPageModule -->
<g id="edge2" class="edge">
<title>FiltersModule&#45;&gt;IntentionsWaypointDefinitionsPageModule</title>
<path fill="none" stroke="black" d="M1008,-85.08C1008,-106.12 1008,-137.8 1008,-137.8 1008,-137.8 788.48,-137.8 788.48,-137.8"/>
<polygon fill="black" stroke="black" points="788.48,-134.3 778.48,-137.8 788.48,-141.3 788.48,-134.3"/>
</g>
<!-- NoRecordsModule -->
<g id="node4" class="node">
<title>NoRecordsModule</title>
<polygon fill="#8dd3c7" stroke="black" points="942.03,-84.8 939.03,-88.8 918.03,-88.8 915.03,-84.8 819.97,-84.8 819.97,-48.8 942.03,-48.8 942.03,-84.8"/>
<text text-anchor="middle" x="881" y="-62.6" font-family="Times,serif" font-size="14.00">NoRecordsModule</text>
</g>
<!-- NoRecordsModule&#45;&gt;IntentionsWaypointDefinitionsPageModule -->
<g id="edge3" class="edge">
<title>NoRecordsModule&#45;&gt;IntentionsWaypointDefinitionsPageModule</title>
<path fill="none" stroke="black" d="M881,-84.82C881,-102.17 881,-125.8 881,-125.8 881,-125.8 788.46,-125.8 788.46,-125.8"/>
<polygon fill="black" stroke="black" points="788.46,-122.3 778.46,-125.8 788.46,-129.3 788.46,-122.3"/>
</g>
<!-- ScrollWrapperModule -->
<g id="node5" class="node">
<title>ScrollWrapperModule</title>
<polygon fill="#8dd3c7" stroke="black" points="801.95,-84.8 798.95,-88.8 777.95,-88.8 774.95,-84.8 660.05,-84.8 660.05,-48.8 801.95,-48.8 801.95,-84.8"/>
<text text-anchor="middle" x="731" y="-62.6" font-family="Times,serif" font-size="14.00">ScrollWrapperModule</text>
</g>
<!-- ScrollWrapperModule&#45;&gt;IntentionsWaypointDefinitionsPageModule -->
<g id="edge4" class="edge">
<title>ScrollWrapperModule&#45;&gt;IntentionsWaypointDefinitionsPageModule</title>
<path fill="none" stroke="black" d="M719.25,-84.91C719.25,-84.91 719.25,-103.79 719.25,-103.79"/>
<polygon fill="black" stroke="black" points="715.75,-103.79 719.25,-113.79 722.75,-103.79 715.75,-103.79"/>
</g>
<!-- SimpleTemplateModule -->
<g id="node6" class="node">
<title>SimpleTemplateModule</title>
<polygon fill="#8dd3c7" stroke="black" points="642.09,-84.8 639.09,-88.8 618.09,-88.8 615.09,-84.8 489.91,-84.8 489.91,-48.8 642.09,-48.8 642.09,-84.8"/>
<text text-anchor="middle" x="566" y="-62.6" font-family="Times,serif" font-size="14.00">SimpleTemplateModule</text>
</g>
<!-- SimpleTemplateModule&#45;&gt;IntentionsWaypointDefinitionsPageModule -->
<g id="edge5" class="edge">
<title>SimpleTemplateModule&#45;&gt;IntentionsWaypointDefinitionsPageModule</title>
<path fill="none" stroke="black" d="M579.78,-84.91C579.78,-84.91 579.78,-103.79 579.78,-103.79"/>
<polygon fill="black" stroke="black" points="576.28,-103.79 579.78,-113.79 583.28,-103.79 576.28,-103.79"/>
</g>
<!-- WaypointCardModule -->
<g id="node7" class="node">
<title>WaypointCardModule</title>
<polygon fill="#8dd3c7" stroke="black" points="471.97,-84.8 468.97,-88.8 447.97,-88.8 444.97,-84.8 330.03,-84.8 330.03,-48.8 471.97,-48.8 471.97,-84.8"/>
<text text-anchor="middle" x="401" y="-62.6" font-family="Times,serif" font-size="14.00">WaypointCardModule</text>
</g>
<!-- WaypointCardModule&#45;&gt;IntentionsWaypointDefinitionsPageModule -->
<g id="edge6" class="edge">
<title>WaypointCardModule&#45;&gt;IntentionsWaypointDefinitionsPageModule</title>
<path fill="none" stroke="black" d="M401,-84.82C401,-102.17 401,-125.8 401,-125.8 401,-125.8 507.27,-125.8 507.27,-125.8"/>
<polygon fill="black" stroke="black" points="507.27,-129.3 517.27,-125.8 507.27,-122.3 507.27,-129.3"/>
</g>
</g>
</svg>
