<?xml version="1.0" encoding="UTF-8" standalone="no"?>
<!DOCTYPE svg PUBLIC "-//W3C//DTD SVG 1.1//EN"
 "http://www.w3.org/Graphics/SVG/1.1/DTD/svg11.dtd">
<!-- Generated by graphviz version 2.47.3 (20210619.1520)
 -->
<!-- Title: dependencies Pages: 1 -->
<svg width="597pt" height="174pt"
 viewBox="0.00 0.00 597.00 173.80" xmlns="http://www.w3.org/2000/svg" xmlns:xlink="http://www.w3.org/1999/xlink">
<g id="graph0" class="graph" transform="scale(1 1) rotate(0) translate(4 169.8)">
<title>dependencies</title>
<polygon fill="white" stroke="transparent" points="-4,4 -4,-169.8 593,-169.8 593,4 -4,4"/>
<text text-anchor="middle" x="294.5" y="-8.2" font-family="sans-serif" font-size="14.00">dependencies</text>
<g id="clust1" class="cluster">
<title>cluster_AdminPoisPageModule</title>
<polygon fill="none" stroke="black" stroke-dasharray="1,5" points="8,-32.8 8,-157.8 581,-157.8 581,-32.8 8,-32.8"/>
</g>
<g id="clust2" class="cluster">
<title>cluster_AdminPoisPageModule_declarations</title>
<polygon fill="none" stroke="black" points="385,-40.8 385,-92.8 573,-92.8 573,-40.8 385,-40.8"/>
</g>
<g id="clust4" class="cluster">
<title>cluster_AdminPoisPageModule_imports</title>
<polygon fill="none" stroke="black" points="16,-40.8 16,-92.8 377,-92.8 377,-40.8 16,-40.8"/>
</g>
<!-- AdminPoisPageComponent -->
<g id="node1" class="node">
<title>AdminPoisPageComponent</title>
<polygon fill="#ffffb3" stroke="black" points="564.55,-84.8 393.45,-84.8 393.45,-48.8 564.55,-48.8 564.55,-84.8"/>
<text text-anchor="middle" x="479" y="-62.6" font-family="Times,serif" font-size="14.00">AdminPoisPageComponent</text>
</g>
<!-- AdminPoisPageModule -->
<g id="node2" class="node">
<title>AdminPoisPageModule</title>
<polygon fill="#8dd3c7" stroke="black" points="365.77,-149.8 362.77,-153.8 341.77,-153.8 338.77,-149.8 216.23,-149.8 216.23,-113.8 365.77,-113.8 365.77,-149.8"/>
<text text-anchor="middle" x="291" y="-127.6" font-family="Times,serif" font-size="14.00">AdminPoisPageModule</text>
</g>
<!-- AdminPoisPageComponent&#45;&gt;AdminPoisPageModule -->
<g id="edge1" class="edge">
<title>AdminPoisPageComponent&#45;&gt;AdminPoisPageModule</title>
<path fill="none" stroke="black" d="M479,-84.91C479,-104.14 479,-131.8 479,-131.8 479,-131.8 375.84,-131.8 375.84,-131.8"/>
<polygon fill="black" stroke="black" points="375.84,-128.3 365.84,-131.8 375.84,-135.3 375.84,-128.3"/>
</g>
<!-- AdminEventPoisModule -->
<g id="node3" class="node">
<title>AdminEventPoisModule</title>
<polygon fill="#8dd3c7" stroke="black" points="368.71,-84.8 365.71,-88.8 344.71,-88.8 341.71,-84.8 213.29,-84.8 213.29,-48.8 368.71,-48.8 368.71,-84.8"/>
<text text-anchor="middle" x="291" y="-62.6" font-family="Times,serif" font-size="14.00">AdminEventPoisModule</text>
</g>
<!-- AdminEventPoisModule&#45;&gt;AdminPoisPageModule -->
<g id="edge2" class="edge">
<title>AdminEventPoisModule&#45;&gt;AdminPoisPageModule</title>
<path fill="none" stroke="black" d="M291,-84.91C291,-84.91 291,-103.79 291,-103.79"/>
<polygon fill="black" stroke="black" points="287.5,-103.79 291,-113.79 294.5,-103.79 287.5,-103.79"/>
</g>
<!-- AdminParcoursPoisModule -->
<g id="node4" class="node">
<title>AdminParcoursPoisModule</title>
<polygon fill="#8dd3c7" stroke="black" points="195.53,-84.8 192.53,-88.8 171.53,-88.8 168.53,-84.8 24.47,-84.8 24.47,-48.8 195.53,-48.8 195.53,-84.8"/>
<text text-anchor="middle" x="110" y="-62.6" font-family="Times,serif" font-size="14.00">AdminParcoursPoisModule</text>
</g>
<!-- AdminParcoursPoisModule&#45;&gt;AdminPoisPageModule -->
<g id="edge3" class="edge">
<title>AdminParcoursPoisModule&#45;&gt;AdminPoisPageModule</title>
<path fill="none" stroke="black" d="M110,-84.91C110,-104.14 110,-131.8 110,-131.8 110,-131.8 206.07,-131.8 206.07,-131.8"/>
<polygon fill="black" stroke="black" points="206.07,-135.3 216.07,-131.8 206.07,-128.3 206.07,-135.3"/>
</g>
</g>
</svg>
