<?xml version="1.0" encoding="UTF-8" standalone="no"?>
<!DOCTYPE svg PUBLIC "-//W3C//DTD SVG 1.1//EN"
 "http://www.w3.org/Graphics/SVG/1.1/DTD/svg11.dtd">
<!-- Generated by graphviz version 2.47.3 (20210619.1520)
 -->
<!-- Title: dependencies Pages: 1 -->
<svg width="382pt" height="247pt"
 viewBox="0.00 0.00 382.00 246.80" xmlns="http://www.w3.org/2000/svg" xmlns:xlink="http://www.w3.org/1999/xlink">
<g id="graph0" class="graph" transform="scale(1 1) rotate(0) translate(4 242.8)">
<title>dependencies</title>
<polygon fill="white" stroke="transparent" points="-4,4 -4,-242.8 378,-242.8 378,4 -4,4"/>
<text text-anchor="middle" x="187" y="-8.2" font-family="sans-serif" font-size="14.00">dependencies</text>
<g id="clust1" class="cluster">
<title>cluster_ItineraryCardModule</title>
<polygon fill="none" stroke="black" stroke-dasharray="1,5" points="8,-32.8 8,-230.8 366,-230.8 366,-32.8 8,-32.8"/>
</g>
<g id="clust5" class="cluster">
<title>cluster_ItineraryCardModule_exports</title>
<polygon fill="none" stroke="black" points="99,-170.8 99,-222.8 275,-222.8 275,-170.8 99,-170.8"/>
</g>
<g id="clust7" class="cluster">
<title>cluster_ItineraryCardModule_providers</title>
<polygon fill="none" stroke="black" points="196,-40.8 196,-92.8 358,-92.8 358,-40.8 196,-40.8"/>
</g>
<g id="clust2" class="cluster">
<title>cluster_ItineraryCardModule_declarations</title>
<polygon fill="none" stroke="black" points="16,-40.8 16,-92.8 188,-92.8 188,-40.8 16,-40.8"/>
</g>
<!-- ItineraryCardComponent -->
<g id="node1" class="node">
<title>ItineraryCardComponent</title>
<polygon fill="#ffffb3" stroke="black" points="180.24,-84.8 23.76,-84.8 23.76,-48.8 180.24,-48.8 180.24,-84.8"/>
<text text-anchor="middle" x="102" y="-62.6" font-family="Times,serif" font-size="14.00">ItineraryCardComponent</text>
</g>
<!-- ItineraryCardModule -->
<g id="node2" class="node">
<title>ItineraryCardModule</title>
<polygon fill="#8dd3c7" stroke="black" points="254.45,-149.8 251.45,-153.8 230.45,-153.8 227.45,-149.8 119.55,-149.8 119.55,-113.8 254.45,-113.8 254.45,-149.8"/>
<text text-anchor="middle" x="187" y="-127.6" font-family="Times,serif" font-size="14.00">ItineraryCardModule</text>
</g>
<!-- ItineraryCardComponent&#45;&gt;ItineraryCardModule -->
<g id="edge1" class="edge">
<title>ItineraryCardComponent&#45;&gt;ItineraryCardModule</title>
<path fill="none" stroke="black" d="M149.95,-84.91C149.95,-84.91 149.95,-103.79 149.95,-103.79"/>
<polygon fill="black" stroke="black" points="146.45,-103.79 149.95,-113.79 153.45,-103.79 146.45,-103.79"/>
</g>
<!-- ItineraryCardComponent  -->
<g id="node3" class="node">
<title>ItineraryCardComponent </title>
<polygon fill="#fb8072" stroke="black" points="267.24,-214.8 106.76,-214.8 106.76,-178.8 267.24,-178.8 267.24,-214.8"/>
<text text-anchor="middle" x="187" y="-192.6" font-family="Times,serif" font-size="14.00">ItineraryCardComponent </text>
</g>
<!-- ItineraryCardModule&#45;&gt;ItineraryCardComponent  -->
<g id="edge2" class="edge">
<title>ItineraryCardModule&#45;&gt;ItineraryCardComponent </title>
<path fill="none" stroke="black" stroke-dasharray="5,2" d="M187,-149.91C187,-149.91 187,-168.79 187,-168.79"/>
<polygon fill="black" stroke="black" points="183.5,-168.79 187,-178.79 190.5,-168.79 183.5,-168.79"/>
</g>
<!-- ItineraryService -->
<g id="node4" class="node">
<title>ItineraryService</title>
<ellipse fill="#fdb462" stroke="black" cx="277" cy="-66.8" rx="73.47" ry="18"/>
<text text-anchor="middle" x="277" y="-62.6" font-family="Times,serif" font-size="14.00">ItineraryService</text>
</g>
<!-- ItineraryService&#45;&gt;ItineraryCardModule -->
<g id="edge3" class="edge">
<title>ItineraryService&#45;&gt;ItineraryCardModule</title>
<path fill="none" stroke="black" d="M229.12,-80.58C229.12,-80.58 229.12,-103.35 229.12,-103.35"/>
<polygon fill="black" stroke="black" points="225.62,-103.35 229.12,-113.35 232.62,-103.35 225.62,-103.35"/>
</g>
</g>
</svg>
