<?xml version="1.0" encoding="UTF-8" standalone="no"?>
<!DOCTYPE svg PUBLIC "-//W3C//DTD SVG 1.1//EN"
 "http://www.w3.org/Graphics/SVG/1.1/DTD/svg11.dtd">
<!-- Generated by graphviz version 2.47.3 (20210619.1520)
 -->
<!-- Title: dependencies Pages: 1 -->
<svg width="1471pt" height="174pt"
 viewBox="0.00 0.00 1471.00 173.80" xmlns="http://www.w3.org/2000/svg" xmlns:xlink="http://www.w3.org/1999/xlink">
<g id="graph0" class="graph" transform="scale(1 1) rotate(0) translate(4 169.8)">
<title>dependencies</title>
<polygon fill="white" stroke="transparent" points="-4,4 -4,-169.8 1467,-169.8 1467,4 -4,4"/>
<text text-anchor="middle" x="731.5" y="-8.2" font-family="sans-serif" font-size="14.00">dependencies</text>
<g id="clust1" class="cluster">
<title>cluster_CoreModule</title>
<polygon fill="none" stroke="black" stroke-dasharray="1,5" points="8,-32.8 8,-157.8 1455,-157.8 1455,-32.8 8,-32.8"/>
</g>
<g id="clust3" class="cluster">
<title>cluster_CoreModule_imports</title>
<polygon fill="none" stroke="black" points="1119,-40.8 1119,-92.8 1447,-92.8 1447,-40.8 1119,-40.8"/>
</g>
<g id="clust6" class="cluster">
<title>cluster_CoreModule_providers</title>
<polygon fill="none" stroke="black" points="16,-40.8 16,-92.8 1111,-92.8 1111,-40.8 16,-40.8"/>
</g>
<!-- AuthModule -->
<g id="node1" class="node">
<title>AuthModule</title>
<polygon fill="#8dd3c7" stroke="black" points="1438.55,-84.8 1435.55,-88.8 1414.55,-88.8 1411.55,-84.8 1351.45,-84.8 1351.45,-48.8 1438.55,-48.8 1438.55,-84.8"/>
<text text-anchor="middle" x="1395" y="-62.6" font-family="Times,serif" font-size="14.00">AuthModule</text>
</g>
<!-- CoreModule -->
<g id="node4" class="node">
<title>CoreModule</title>
<polygon fill="#8dd3c7" stroke="black" points="916.26,-149.8 913.26,-153.8 892.26,-153.8 889.26,-149.8 829.74,-149.8 829.74,-113.8 916.26,-113.8 916.26,-149.8"/>
<text text-anchor="middle" x="873" y="-127.6" font-family="Times,serif" font-size="14.00">CoreModule</text>
</g>
<!-- AuthModule&#45;&gt;CoreModule -->
<g id="edge1" class="edge">
<title>AuthModule&#45;&gt;CoreModule</title>
<path fill="none" stroke="black" d="M1395,-85.09C1395,-107.01 1395,-140.8 1395,-140.8 1395,-140.8 926.61,-140.8 926.61,-140.8"/>
<polygon fill="black" stroke="black" points="926.61,-137.3 916.61,-140.8 926.61,-144.3 926.61,-137.3"/>
</g>
<!-- DayjsModule -->
<g id="node2" class="node">
<title>DayjsModule</title>
<polygon fill="#8dd3c7" stroke="black" points="1333.21,-84.8 1330.21,-88.8 1309.21,-88.8 1306.21,-84.8 1240.79,-84.8 1240.79,-48.8 1333.21,-48.8 1333.21,-84.8"/>
<text text-anchor="middle" x="1287" y="-62.6" font-family="Times,serif" font-size="14.00">DayjsModule</text>
</g>
<!-- DayjsModule&#45;&gt;CoreModule -->
<g id="edge2" class="edge">
<title>DayjsModule&#45;&gt;CoreModule</title>
<path fill="none" stroke="black" d="M1287,-84.91C1287,-104.14 1287,-131.8 1287,-131.8 1287,-131.8 926.52,-131.8 926.52,-131.8"/>
<polygon fill="black" stroke="black" points="926.52,-128.3 916.52,-131.8 926.52,-135.3 926.52,-128.3"/>
</g>
<!-- SentryModule -->
<g id="node3" class="node">
<title>SentryModule</title>
<polygon fill="#8dd3c7" stroke="black" points="1223.1,-84.8 1220.1,-88.8 1199.1,-88.8 1196.1,-84.8 1126.9,-84.8 1126.9,-48.8 1223.1,-48.8 1223.1,-84.8"/>
<text text-anchor="middle" x="1175" y="-62.6" font-family="Times,serif" font-size="14.00">SentryModule</text>
</g>
<!-- SentryModule&#45;&gt;CoreModule -->
<g id="edge3" class="edge">
<title>SentryModule&#45;&gt;CoreModule</title>
<path fill="none" stroke="black" d="M1175,-84.83C1175,-101.2 1175,-122.8 1175,-122.8 1175,-122.8 926.27,-122.8 926.27,-122.8"/>
<polygon fill="black" stroke="black" points="926.27,-119.3 916.27,-122.8 926.27,-126.3 926.27,-119.3"/>
</g>
<!-- AcceptLanguageInterceptor -->
<g id="node5" class="node">
<title>AcceptLanguageInterceptor</title>
<ellipse fill="#fdb462" stroke="black" cx="984" cy="-66.8" rx="118.62" ry="18"/>
<text text-anchor="middle" x="984" y="-62.6" font-family="Times,serif" font-size="14.00">AcceptLanguageInterceptor</text>
</g>
<!-- AcceptLanguageInterceptor&#45;&gt;CoreModule -->
<g id="edge4" class="edge">
<title>AcceptLanguageInterceptor&#45;&gt;CoreModule</title>
<path fill="none" stroke="black" d="M890.78,-78.12C890.78,-78.12 890.78,-103.74 890.78,-103.74"/>
<polygon fill="black" stroke="black" points="887.29,-103.74 890.78,-113.74 894.29,-103.74 887.29,-103.74"/>
</g>
<!-- ContextInterceptor -->
<g id="node6" class="node">
<title>ContextInterceptor</title>
<ellipse fill="#fdb462" stroke="black" cx="763" cy="-66.8" rx="83.95" ry="18"/>
<text text-anchor="middle" x="763" y="-62.6" font-family="Times,serif" font-size="14.00">ContextInterceptor</text>
</g>
<!-- ContextInterceptor&#45;&gt;CoreModule -->
<g id="edge5" class="edge">
<title>ContextInterceptor&#45;&gt;CoreModule</title>
<path fill="none" stroke="black" d="M838.3,-74.77C838.3,-74.77 838.3,-103.67 838.3,-103.67"/>
<polygon fill="black" stroke="black" points="834.8,-103.67 838.3,-113.67 841.8,-103.67 834.8,-103.67"/>
</g>
<!-- EncodeParamsInterceptor -->
<g id="node7" class="node">
<title>EncodeParamsInterceptor</title>
<ellipse fill="#fdb462" stroke="black" cx="550" cy="-66.8" rx="110.55" ry="18"/>
<text text-anchor="middle" x="550" y="-62.6" font-family="Times,serif" font-size="14.00">EncodeParamsInterceptor</text>
</g>
<!-- EncodeParamsInterceptor&#45;&gt;CoreModule -->
<g id="edge6" class="edge">
<title>EncodeParamsInterceptor&#45;&gt;CoreModule</title>
<path fill="none" stroke="black" d="M550,-84.83C550,-101.2 550,-122.8 550,-122.8 550,-122.8 819.44,-122.8 819.44,-122.8"/>
<polygon fill="black" stroke="black" points="819.44,-126.3 829.44,-122.8 819.44,-119.3 819.44,-126.3"/>
</g>
<!-- RequestInterceptor -->
<g id="node8" class="node">
<title>RequestInterceptor</title>
<ellipse fill="#fdb462" stroke="black" cx="337" cy="-66.8" rx="84.51" ry="18"/>
<text text-anchor="middle" x="337" y="-62.6" font-family="Times,serif" font-size="14.00">RequestInterceptor</text>
</g>
<!-- RequestInterceptor&#45;&gt;CoreModule -->
<g id="edge7" class="edge">
<title>RequestInterceptor&#45;&gt;CoreModule</title>
<path fill="none" stroke="black" d="M337,-84.91C337,-104.14 337,-131.8 337,-131.8 337,-131.8 819.59,-131.8 819.59,-131.8"/>
<polygon fill="black" stroke="black" points="819.59,-135.3 829.59,-131.8 819.59,-128.3 819.59,-135.3"/>
</g>
<!-- UnsafeTokenInterceptor -->
<g id="node9" class="node">
<title>UnsafeTokenInterceptor</title>
<ellipse fill="#fdb462" stroke="black" cx="129" cy="-66.8" rx="105.32" ry="18"/>
<text text-anchor="middle" x="129" y="-62.6" font-family="Times,serif" font-size="14.00">UnsafeTokenInterceptor</text>
</g>
<!-- UnsafeTokenInterceptor&#45;&gt;CoreModule -->
<g id="edge8" class="edge">
<title>UnsafeTokenInterceptor&#45;&gt;CoreModule</title>
<path fill="none" stroke="black" d="M129,-85.09C129,-107.01 129,-140.8 129,-140.8 129,-140.8 819.51,-140.8 819.51,-140.8"/>
<polygon fill="black" stroke="black" points="819.51,-144.3 829.51,-140.8 819.51,-137.3 819.51,-144.3"/>
</g>
</g>
</svg>
