<?xml version="1.0" encoding="UTF-8" standalone="no"?>
<!DOCTYPE svg PUBLIC "-//W3C//DTD SVG 1.1//EN"
 "http://www.w3.org/Graphics/SVG/1.1/DTD/svg11.dtd">
<!-- Generated by graphviz version 2.47.3 (20210619.1520)
 -->
<!-- Title: dependencies Pages: 1 -->
<svg width="296pt" height="247pt"
 viewBox="0.00 0.00 296.00 246.80" xmlns="http://www.w3.org/2000/svg" xmlns:xlink="http://www.w3.org/1999/xlink">
<g id="graph0" class="graph" transform="scale(1 1) rotate(0) translate(4 242.8)">
<title>dependencies</title>
<polygon fill="white" stroke="transparent" points="-4,4 -4,-242.8 292,-242.8 292,4 -4,4"/>
<text text-anchor="middle" x="144" y="-8.2" font-family="sans-serif" font-size="14.00">dependencies</text>
<g id="clust1" class="cluster">
<title>cluster_DialogWithMediaTemplateModule</title>
<polygon fill="none" stroke="black" stroke-dasharray="1,5" points="8,-32.8 8,-230.8 280,-230.8 280,-32.8 8,-32.8"/>
</g>
<g id="clust2" class="cluster">
<title>cluster_DialogWithMediaTemplateModule_declarations</title>
<polygon fill="none" stroke="black" points="18,-40.8 18,-92.8 270,-92.8 270,-40.8 18,-40.8"/>
</g>
<g id="clust5" class="cluster">
<title>cluster_DialogWithMediaTemplateModule_exports</title>
<polygon fill="none" stroke="black" points="16,-170.8 16,-222.8 272,-222.8 272,-170.8 16,-170.8"/>
</g>
<!-- DialogWithMediaTemplateComponent -->
<g id="node1" class="node">
<title>DialogWithMediaTemplateComponent</title>
<polygon fill="#ffffb3" stroke="black" points="262.06,-84.8 25.94,-84.8 25.94,-48.8 262.06,-48.8 262.06,-84.8"/>
<text text-anchor="middle" x="144" y="-62.6" font-family="Times,serif" font-size="14.00">DialogWithMediaTemplateComponent</text>
</g>
<!-- DialogWithMediaTemplateModule -->
<g id="node2" class="node">
<title>DialogWithMediaTemplateModule</title>
<polygon fill="#8dd3c7" stroke="black" points="251.28,-149.8 248.28,-153.8 227.28,-153.8 224.28,-149.8 36.72,-149.8 36.72,-113.8 251.28,-113.8 251.28,-149.8"/>
<text text-anchor="middle" x="144" y="-127.6" font-family="Times,serif" font-size="14.00">DialogWithMediaTemplateModule</text>
</g>
<!-- DialogWithMediaTemplateComponent&#45;&gt;DialogWithMediaTemplateModule -->
<g id="edge1" class="edge">
<title>DialogWithMediaTemplateComponent&#45;&gt;DialogWithMediaTemplateModule</title>
<path fill="none" stroke="black" d="M144,-84.91C144,-84.91 144,-103.79 144,-103.79"/>
<polygon fill="black" stroke="black" points="140.5,-103.79 144,-113.79 147.5,-103.79 140.5,-103.79"/>
</g>
<!-- DialogWithMediaTemplateComponent  -->
<g id="node3" class="node">
<title>DialogWithMediaTemplateComponent </title>
<polygon fill="#fb8072" stroke="black" points="263.56,-214.8 24.44,-214.8 24.44,-178.8 263.56,-178.8 263.56,-214.8"/>
<text text-anchor="middle" x="144" y="-192.6" font-family="Times,serif" font-size="14.00">DialogWithMediaTemplateComponent </text>
</g>
<!-- DialogWithMediaTemplateModule&#45;&gt;DialogWithMediaTemplateComponent  -->
<g id="edge2" class="edge">
<title>DialogWithMediaTemplateModule&#45;&gt;DialogWithMediaTemplateComponent </title>
<path fill="none" stroke="black" stroke-dasharray="5,2" d="M144,-149.91C144,-149.91 144,-168.79 144,-168.79"/>
<polygon fill="black" stroke="black" points="140.5,-168.79 144,-178.79 147.5,-168.79 140.5,-168.79"/>
</g>
</g>
</svg>
