<?xml version="1.0" encoding="UTF-8" standalone="no"?>
<!DOCTYPE svg PUBLIC "-//W3C//DTD SVG 1.1//EN"
 "http://www.w3.org/Graphics/SVG/1.1/DTD/svg11.dtd">
<!-- Generated by graphviz version 2.47.3 (20210619.1520)
 -->
<!-- Title: dependencies Pages: 1 -->
<svg width="334pt" height="247pt"
 viewBox="0.00 0.00 334.00 246.80" xmlns="http://www.w3.org/2000/svg" xmlns:xlink="http://www.w3.org/1999/xlink">
<g id="graph0" class="graph" transform="scale(1 1) rotate(0) translate(4 242.8)">
<title>dependencies</title>
<polygon fill="white" stroke="transparent" points="-4,4 -4,-242.8 330,-242.8 330,4 -4,4"/>
<text text-anchor="middle" x="163" y="-8.2" font-family="sans-serif" font-size="14.00">dependencies</text>
<g id="clust1" class="cluster">
<title>cluster_EasterEggModule</title>
<polygon fill="none" stroke="black" stroke-dasharray="1,5" points="8,-32.8 8,-230.8 318,-230.8 318,-32.8 8,-32.8"/>
</g>
<g id="clust2" class="cluster">
<title>cluster_EasterEggModule_declarations</title>
<polygon fill="none" stroke="black" points="156,-40.8 156,-92.8 310,-92.8 310,-40.8 156,-40.8"/>
</g>
<g id="clust5" class="cluster">
<title>cluster_EasterEggModule_exports</title>
<polygon fill="none" stroke="black" points="84,-170.8 84,-222.8 242,-222.8 242,-170.8 84,-170.8"/>
</g>
<g id="clust7" class="cluster">
<title>cluster_EasterEggModule_providers</title>
<polygon fill="none" stroke="black" points="16,-40.8 16,-92.8 148,-92.8 148,-40.8 16,-40.8"/>
</g>
<!-- EasterEggComponent -->
<g id="node1" class="node">
<title>EasterEggComponent</title>
<polygon fill="#ffffb3" stroke="black" points="302.36,-84.8 163.64,-84.8 163.64,-48.8 302.36,-48.8 302.36,-84.8"/>
<text text-anchor="middle" x="233" y="-62.6" font-family="Times,serif" font-size="14.00">EasterEggComponent</text>
</g>
<!-- EasterEggModule -->
<g id="node2" class="node">
<title>EasterEggModule</title>
<polygon fill="#8dd3c7" stroke="black" points="221.58,-149.8 218.58,-153.8 197.58,-153.8 194.58,-149.8 104.42,-149.8 104.42,-113.8 221.58,-113.8 221.58,-149.8"/>
<text text-anchor="middle" x="163" y="-127.6" font-family="Times,serif" font-size="14.00">EasterEggModule</text>
</g>
<!-- EasterEggComponent&#45;&gt;EasterEggModule -->
<g id="edge1" class="edge">
<title>EasterEggComponent&#45;&gt;EasterEggModule</title>
<path fill="none" stroke="black" d="M192.55,-84.91C192.55,-84.91 192.55,-103.79 192.55,-103.79"/>
<polygon fill="black" stroke="black" points="189.05,-103.79 192.55,-113.79 196.05,-103.79 189.05,-103.79"/>
</g>
<!-- EasterEggComponent  -->
<g id="node3" class="node">
<title>EasterEggComponent </title>
<polygon fill="#fb8072" stroke="black" points="234.36,-214.8 91.64,-214.8 91.64,-178.8 234.36,-178.8 234.36,-214.8"/>
<text text-anchor="middle" x="163" y="-192.6" font-family="Times,serif" font-size="14.00">EasterEggComponent </text>
</g>
<!-- EasterEggModule&#45;&gt;EasterEggComponent  -->
<g id="edge2" class="edge">
<title>EasterEggModule&#45;&gt;EasterEggComponent </title>
<path fill="none" stroke="black" stroke-dasharray="5,2" d="M163,-149.91C163,-149.91 163,-168.79 163,-168.79"/>
<polygon fill="black" stroke="black" points="159.5,-168.79 163,-178.79 166.5,-168.79 159.5,-168.79"/>
</g>
<!-- MapService -->
<g id="node4" class="node">
<title>MapService</title>
<ellipse fill="#fdb462" stroke="black" cx="82" cy="-66.8" rx="57.88" ry="18"/>
<text text-anchor="middle" x="82" y="-62.6" font-family="Times,serif" font-size="14.00">MapService</text>
</g>
<!-- MapService&#45;&gt;EasterEggModule -->
<g id="edge3" class="edge">
<title>MapService&#45;&gt;EasterEggModule</title>
<path fill="none" stroke="black" d="M122.08,-79.95C122.08,-79.95 122.08,-103.49 122.08,-103.49"/>
<polygon fill="black" stroke="black" points="118.58,-103.49 122.08,-113.49 125.58,-103.49 118.58,-103.49"/>
</g>
</g>
</svg>
