<?xml version="1.0" encoding="UTF-8" standalone="no"?>
<!DOCTYPE svg PUBLIC "-//W3C//DTD SVG 1.1//EN"
 "http://www.w3.org/Graphics/SVG/1.1/DTD/svg11.dtd">
<!-- Generated by graphviz version 2.47.3 (20210619.1520)
 -->
<!-- Title: dependencies Pages: 1 -->
<svg width="440pt" height="174pt"
 viewBox="0.00 0.00 440.00 173.80" xmlns="http://www.w3.org/2000/svg" xmlns:xlink="http://www.w3.org/1999/xlink">
<g id="graph0" class="graph" transform="scale(1 1) rotate(0) translate(4 169.8)">
<title>dependencies</title>
<polygon fill="white" stroke="transparent" points="-4,4 -4,-169.8 436,-169.8 436,4 -4,4"/>
<text text-anchor="middle" x="216" y="-8.2" font-family="sans-serif" font-size="14.00">dependencies</text>
<g id="clust1" class="cluster">
<title>cluster_AppRouting</title>
<polygon fill="none" stroke="black" stroke-dasharray="1,5" points="8,-32.8 8,-157.8 424,-157.8 424,-32.8 8,-32.8"/>
</g>
<g id="clust3" class="cluster">
<title>cluster_AppRouting_imports</title>
<polygon fill="none" stroke="black" points="16,-40.8 16,-92.8 416,-92.8 416,-40.8 16,-40.8"/>
</g>
<!-- AdventureRouting -->
<g id="node1" class="node">
<title>AdventureRouting</title>
<polygon fill="#8dd3c7" stroke="black" points="408.2,-84.8 405.2,-88.8 384.2,-88.8 381.2,-84.8 287.8,-84.8 287.8,-48.8 408.2,-48.8 408.2,-84.8"/>
<text text-anchor="middle" x="348" y="-62.6" font-family="Times,serif" font-size="14.00">AdventureRouting</text>
</g>
<!-- AppRouting -->
<g id="node4" class="node">
<title>AppRouting</title>
<polygon fill="#8dd3c7" stroke="black" points="253.72,-149.8 250.72,-153.8 229.72,-153.8 226.72,-149.8 168.28,-149.8 168.28,-113.8 253.72,-113.8 253.72,-149.8"/>
<text text-anchor="middle" x="211" y="-127.6" font-family="Times,serif" font-size="14.00">AppRouting</text>
</g>
<!-- AdventureRouting&#45;&gt;AppRouting -->
<g id="edge1" class="edge">
<title>AdventureRouting&#45;&gt;AppRouting</title>
<path fill="none" stroke="black" d="M348,-84.91C348,-104.14 348,-131.8 348,-131.8 348,-131.8 263.97,-131.8 263.97,-131.8"/>
<polygon fill="black" stroke="black" points="263.97,-128.3 253.97,-131.8 263.97,-135.3 263.97,-128.3"/>
</g>
<!-- IntentionsRouting -->
<g id="node2" class="node">
<title>IntentionsRouting</title>
<polygon fill="#8dd3c7" stroke="black" points="269.61,-84.8 266.61,-88.8 245.61,-88.8 242.61,-84.8 152.39,-84.8 152.39,-48.8 269.61,-48.8 269.61,-84.8"/>
<text text-anchor="middle" x="211" y="-62.6" font-family="Times,serif" font-size="14.00">IntentionsRouting</text>
</g>
<!-- IntentionsRouting&#45;&gt;AppRouting -->
<g id="edge2" class="edge">
<title>IntentionsRouting&#45;&gt;AppRouting</title>
<path fill="none" stroke="black" d="M211,-84.91C211,-84.91 211,-103.79 211,-103.79"/>
<polygon fill="black" stroke="black" points="207.5,-103.79 211,-113.79 214.5,-103.79 207.5,-103.79"/>
</g>
<!-- RewardsRouting -->
<g id="node3" class="node">
<title>RewardsRouting</title>
<polygon fill="#8dd3c7" stroke="black" points="134.1,-84.8 131.1,-88.8 110.1,-88.8 107.1,-84.8 23.9,-84.8 23.9,-48.8 134.1,-48.8 134.1,-84.8"/>
<text text-anchor="middle" x="79" y="-62.6" font-family="Times,serif" font-size="14.00">RewardsRouting</text>
</g>
<!-- RewardsRouting&#45;&gt;AppRouting -->
<g id="edge3" class="edge">
<title>RewardsRouting&#45;&gt;AppRouting</title>
<path fill="none" stroke="black" d="M79,-84.91C79,-104.14 79,-131.8 79,-131.8 79,-131.8 158.14,-131.8 158.14,-131.8"/>
<polygon fill="black" stroke="black" points="158.14,-135.3 168.14,-131.8 158.14,-128.3 158.14,-135.3"/>
</g>
</g>
</svg>
