<?xml version="1.0" encoding="UTF-8" standalone="no"?>
<!DOCTYPE svg PUBLIC "-//W3C//DTD SVG 1.1//EN"
 "http://www.w3.org/Graphics/SVG/1.1/DTD/svg11.dtd">
<!-- Generated by graphviz version 2.47.3 (20210619.1520)
 -->
<!-- Title: dependencies Pages: 1 -->
<svg width="298pt" height="247pt"
 viewBox="0.00 0.00 298.00 246.80" xmlns="http://www.w3.org/2000/svg" xmlns:xlink="http://www.w3.org/1999/xlink">
<g id="graph0" class="graph" transform="scale(1 1) rotate(0) translate(4 242.8)">
<title>dependencies</title>
<polygon fill="white" stroke="transparent" points="-4,4 -4,-242.8 294,-242.8 294,4 -4,4"/>
<text text-anchor="middle" x="145" y="-8.2" font-family="sans-serif" font-size="14.00">dependencies</text>
<g id="clust1" class="cluster">
<title>cluster_MoocModule</title>
<polygon fill="none" stroke="black" stroke-dasharray="1,5" points="8,-32.8 8,-230.8 282,-230.8 282,-32.8 8,-32.8"/>
</g>
<g id="clust4" class="cluster">
<title>cluster_MoocModule_imports</title>
<polygon fill="none" stroke="black" points="154,-40.8 154,-92.8 274,-92.8 274,-40.8 154,-40.8"/>
</g>
<g id="clust5" class="cluster">
<title>cluster_MoocModule_exports</title>
<polygon fill="none" stroke="black" points="78,-170.8 78,-222.8 212,-222.8 212,-170.8 78,-170.8"/>
</g>
<g id="clust2" class="cluster">
<title>cluster_MoocModule_declarations</title>
<polygon fill="none" stroke="black" points="16,-40.8 16,-92.8 146,-92.8 146,-40.8 16,-40.8"/>
</g>
<!-- MoocComponent -->
<g id="node1" class="node">
<title>MoocComponent</title>
<polygon fill="#ffffb3" stroke="black" points="137.99,-84.8 24.01,-84.8 24.01,-48.8 137.99,-48.8 137.99,-84.8"/>
<text text-anchor="middle" x="81" y="-62.6" font-family="Times,serif" font-size="14.00">MoocComponent</text>
</g>
<!-- MoocModule -->
<g id="node2" class="node">
<title>MoocModule</title>
<polygon fill="#8dd3c7" stroke="black" points="191.21,-149.8 188.21,-153.8 167.21,-153.8 164.21,-149.8 98.79,-149.8 98.79,-113.8 191.21,-113.8 191.21,-149.8"/>
<text text-anchor="middle" x="145" y="-127.6" font-family="Times,serif" font-size="14.00">MoocModule</text>
</g>
<!-- MoocComponent&#45;&gt;MoocModule -->
<g id="edge1" class="edge">
<title>MoocComponent&#45;&gt;MoocModule</title>
<path fill="none" stroke="black" d="M118.45,-84.91C118.45,-84.91 118.45,-103.79 118.45,-103.79"/>
<polygon fill="black" stroke="black" points="114.95,-103.79 118.45,-113.79 121.95,-103.79 114.95,-103.79"/>
</g>
<!-- MoocComponent  -->
<g id="node4" class="node">
<title>MoocComponent </title>
<polygon fill="#fb8072" stroke="black" points="203.99,-214.8 86.01,-214.8 86.01,-178.8 203.99,-178.8 203.99,-214.8"/>
<text text-anchor="middle" x="145" y="-192.6" font-family="Times,serif" font-size="14.00">MoocComponent </text>
</g>
<!-- MoocModule&#45;&gt;MoocComponent  -->
<g id="edge3" class="edge">
<title>MoocModule&#45;&gt;MoocComponent </title>
<path fill="none" stroke="black" stroke-dasharray="5,2" d="M145,-149.91C145,-149.91 145,-168.79 145,-168.79"/>
<polygon fill="black" stroke="black" points="141.5,-168.79 145,-178.79 148.5,-168.79 141.5,-168.79"/>
</g>
<!-- PoiIconModule -->
<g id="node3" class="node">
<title>PoiIconModule</title>
<polygon fill="#8dd3c7" stroke="black" points="265.6,-84.8 262.6,-88.8 241.6,-88.8 238.6,-84.8 162.4,-84.8 162.4,-48.8 265.6,-48.8 265.6,-84.8"/>
<text text-anchor="middle" x="214" y="-62.6" font-family="Times,serif" font-size="14.00">PoiIconModule</text>
</g>
<!-- PoiIconModule&#45;&gt;MoocModule -->
<g id="edge2" class="edge">
<title>PoiIconModule&#45;&gt;MoocModule</title>
<path fill="none" stroke="black" d="M176.78,-84.91C176.78,-84.91 176.78,-103.79 176.78,-103.79"/>
<polygon fill="black" stroke="black" points="173.28,-103.79 176.78,-113.79 180.28,-103.79 173.28,-103.79"/>
</g>
</g>
</svg>
