<?xml version="1.0" encoding="UTF-8" standalone="no"?>
<!DOCTYPE svg PUBLIC "-//W3C//DTD SVG 1.1//EN"
 "http://www.w3.org/Graphics/SVG/1.1/DTD/svg11.dtd">
<!-- Generated by graphviz version 2.47.3 (20210619.1520)
 -->
<!-- Title: dependencies Pages: 1 -->
<svg width="610pt" height="174pt"
 viewBox="0.00 0.00 610.00 173.80" xmlns="http://www.w3.org/2000/svg" xmlns:xlink="http://www.w3.org/1999/xlink">
<g id="graph0" class="graph" transform="scale(1 1) rotate(0) translate(4 169.8)">
<title>dependencies</title>
<polygon fill="white" stroke="transparent" points="-4,4 -4,-169.8 606,-169.8 606,4 -4,4"/>
<text text-anchor="middle" x="301" y="-8.2" font-family="sans-serif" font-size="14.00">dependencies</text>
<g id="clust1" class="cluster">
<title>cluster_AdminModule</title>
<polygon fill="none" stroke="black" stroke-dasharray="1,5" points="8,-32.8 8,-157.8 594,-157.8 594,-32.8 8,-32.8"/>
</g>
<g id="clust4" class="cluster">
<title>cluster_AdminModule_imports</title>
<polygon fill="none" stroke="black" points="470,-40.8 470,-92.8 586,-92.8 586,-40.8 470,-40.8"/>
</g>
<g id="clust2" class="cluster">
<title>cluster_AdminModule_declarations</title>
<polygon fill="none" stroke="black" points="326,-40.8 326,-92.8 462,-92.8 462,-40.8 326,-40.8"/>
</g>
<g id="clust7" class="cluster">
<title>cluster_AdminModule_providers</title>
<polygon fill="none" stroke="black" points="16,-40.8 16,-92.8 318,-92.8 318,-40.8 16,-40.8"/>
</g>
<!-- AdminComponent -->
<g id="node1" class="node">
<title>AdminComponent</title>
<polygon fill="#ffffb3" stroke="black" points="454.22,-84.8 333.78,-84.8 333.78,-48.8 454.22,-48.8 454.22,-84.8"/>
<text text-anchor="middle" x="394" y="-62.6" font-family="Times,serif" font-size="14.00">AdminComponent</text>
</g>
<!-- AdminModule -->
<g id="node2" class="node">
<title>AdminModule</title>
<polygon fill="#8dd3c7" stroke="black" points="443.44,-149.8 440.44,-153.8 419.44,-153.8 416.44,-149.8 344.56,-149.8 344.56,-113.8 443.44,-113.8 443.44,-149.8"/>
<text text-anchor="middle" x="394" y="-127.6" font-family="Times,serif" font-size="14.00">AdminModule</text>
</g>
<!-- AdminComponent&#45;&gt;AdminModule -->
<g id="edge1" class="edge">
<title>AdminComponent&#45;&gt;AdminModule</title>
<path fill="none" stroke="black" d="M394,-84.91C394,-84.91 394,-103.79 394,-103.79"/>
<polygon fill="black" stroke="black" points="390.5,-103.79 394,-113.79 397.5,-103.79 390.5,-103.79"/>
</g>
<!-- AdminRouting -->
<g id="node3" class="node">
<title>AdminRouting</title>
<polygon fill="#8dd3c7" stroke="black" points="578.01,-84.8 575.01,-88.8 554.01,-88.8 551.01,-84.8 477.99,-84.8 477.99,-48.8 578.01,-48.8 578.01,-84.8"/>
<text text-anchor="middle" x="528" y="-62.6" font-family="Times,serif" font-size="14.00">AdminRouting</text>
</g>
<!-- AdminRouting&#45;&gt;AdminModule -->
<g id="edge2" class="edge">
<title>AdminRouting&#45;&gt;AdminModule</title>
<path fill="none" stroke="black" d="M528,-84.91C528,-104.14 528,-131.8 528,-131.8 528,-131.8 453.52,-131.8 453.52,-131.8"/>
<polygon fill="black" stroke="black" points="453.52,-128.3 443.52,-131.8 453.52,-135.3 453.52,-128.3"/>
</g>
<!-- AdminApplicationContextService -->
<g id="node4" class="node">
<title>AdminApplicationContextService</title>
<ellipse fill="#fdb462" stroke="black" cx="167" cy="-66.8" rx="142.98" ry="18"/>
<text text-anchor="middle" x="167" y="-62.6" font-family="Times,serif" font-size="14.00">AdminApplicationContextService</text>
</g>
<!-- AdminApplicationContextService&#45;&gt;AdminModule -->
<g id="edge3" class="edge">
<title>AdminApplicationContextService&#45;&gt;AdminModule</title>
<path fill="none" stroke="black" d="M167,-84.91C167,-104.14 167,-131.8 167,-131.8 167,-131.8 334.74,-131.8 334.74,-131.8"/>
<polygon fill="black" stroke="black" points="334.74,-135.3 344.74,-131.8 334.74,-128.3 334.74,-135.3"/>
</g>
</g>
</svg>
