<?xml version="1.0" encoding="UTF-8" standalone="no"?>
<!DOCTYPE svg PUBLIC "-//W3C//DTD SVG 1.1//EN"
 "http://www.w3.org/Graphics/SVG/1.1/DTD/svg11.dtd">
<!-- Generated by graphviz version 2.47.3 (20210619.1520)
 -->
<!-- Title: dependencies Pages: 1 -->
<svg width="1104pt" height="247pt"
 viewBox="0.00 0.00 1104.00 246.80" xmlns="http://www.w3.org/2000/svg" xmlns:xlink="http://www.w3.org/1999/xlink">
<g id="graph0" class="graph" transform="scale(1 1) rotate(0) translate(4 242.8)">
<title>dependencies</title>
<polygon fill="white" stroke="transparent" points="-4,4 -4,-242.8 1100,-242.8 1100,4 -4,4"/>
<text text-anchor="middle" x="548" y="-8.2" font-family="sans-serif" font-size="14.00">dependencies</text>
<g id="clust1" class="cluster">
<title>cluster_RegionSudHomeModule</title>
<polygon fill="none" stroke="black" stroke-dasharray="1,5" points="8,-32.8 8,-230.8 1088,-230.8 1088,-32.8 8,-32.8"/>
</g>
<g id="clust5" class="cluster">
<title>cluster_RegionSudHomeModule_exports</title>
<polygon fill="none" stroke="black" points="417,-170.8 417,-222.8 615,-222.8 615,-170.8 417,-170.8"/>
</g>
<g id="clust2" class="cluster">
<title>cluster_RegionSudHomeModule_declarations</title>
<polygon fill="none" stroke="black" points="886,-40.8 886,-92.8 1080,-92.8 1080,-40.8 886,-40.8"/>
</g>
<g id="clust4" class="cluster">
<title>cluster_RegionSudHomeModule_imports</title>
<polygon fill="none" stroke="black" points="16,-40.8 16,-92.8 878,-92.8 878,-40.8 16,-40.8"/>
</g>
<!-- RegionSudHomeComponent -->
<g id="node1" class="node">
<title>RegionSudHomeComponent</title>
<polygon fill="#ffffb3" stroke="black" points="1071.77,-84.8 894.23,-84.8 894.23,-48.8 1071.77,-48.8 1071.77,-84.8"/>
<text text-anchor="middle" x="983" y="-62.6" font-family="Times,serif" font-size="14.00">RegionSudHomeComponent</text>
</g>
<!-- RegionSudHomeModule -->
<g id="node2" class="node">
<title>RegionSudHomeModule</title>
<polygon fill="#8dd3c7" stroke="black" points="593.99,-149.8 590.99,-153.8 569.99,-153.8 566.99,-149.8 438.01,-149.8 438.01,-113.8 593.99,-113.8 593.99,-149.8"/>
<text text-anchor="middle" x="516" y="-127.6" font-family="Times,serif" font-size="14.00">RegionSudHomeModule</text>
</g>
<!-- RegionSudHomeComponent&#45;&gt;RegionSudHomeModule -->
<g id="edge1" class="edge">
<title>RegionSudHomeComponent&#45;&gt;RegionSudHomeModule</title>
<path fill="none" stroke="black" d="M983,-85.08C983,-106.12 983,-137.8 983,-137.8 983,-137.8 604.17,-137.8 604.17,-137.8"/>
<polygon fill="black" stroke="black" points="604.17,-134.3 594.17,-137.8 604.17,-141.3 604.17,-134.3"/>
</g>
<!-- RegionSudHomeComponent  -->
<g id="node8" class="node">
<title>RegionSudHomeComponent </title>
<polygon fill="#fb8072" stroke="black" points="606.77,-214.8 425.23,-214.8 425.23,-178.8 606.77,-178.8 606.77,-214.8"/>
<text text-anchor="middle" x="516" y="-192.6" font-family="Times,serif" font-size="14.00">RegionSudHomeComponent </text>
</g>
<!-- RegionSudHomeModule&#45;&gt;RegionSudHomeComponent  -->
<g id="edge7" class="edge">
<title>RegionSudHomeModule&#45;&gt;RegionSudHomeComponent </title>
<path fill="none" stroke="black" stroke-dasharray="5,2" d="M516,-149.91C516,-149.91 516,-168.79 516,-168.79"/>
<polygon fill="black" stroke="black" points="512.5,-168.79 516,-178.79 519.5,-168.79 512.5,-168.79"/>
</g>
<!-- FeaturesContainerModule -->
<g id="node3" class="node">
<title>FeaturesContainerModule</title>
<polygon fill="#8dd3c7" stroke="black" points="870.18,-84.8 867.18,-88.8 846.18,-88.8 843.18,-84.8 707.82,-84.8 707.82,-48.8 870.18,-48.8 870.18,-84.8"/>
<text text-anchor="middle" x="789" y="-62.6" font-family="Times,serif" font-size="14.00">FeaturesContainerModule</text>
</g>
<!-- FeaturesContainerModule&#45;&gt;RegionSudHomeModule -->
<g id="edge2" class="edge">
<title>FeaturesContainerModule&#45;&gt;RegionSudHomeModule</title>
<path fill="none" stroke="black" d="M789,-84.82C789,-102.17 789,-125.8 789,-125.8 789,-125.8 604.23,-125.8 604.23,-125.8"/>
<polygon fill="black" stroke="black" points="604.23,-122.3 594.23,-125.8 604.23,-129.3 604.23,-122.3"/>
</g>
<!-- HomeBannerContainerModule -->
<g id="node4" class="node">
<title>HomeBannerContainerModule</title>
<polygon fill="#8dd3c7" stroke="black" points="689.9,-84.8 686.9,-88.8 665.9,-88.8 662.9,-84.8 500.1,-84.8 500.1,-48.8 689.9,-48.8 689.9,-84.8"/>
<text text-anchor="middle" x="595" y="-62.6" font-family="Times,serif" font-size="14.00">HomeBannerContainerModule</text>
</g>
<!-- HomeBannerContainerModule&#45;&gt;RegionSudHomeModule -->
<g id="edge3" class="edge">
<title>HomeBannerContainerModule&#45;&gt;RegionSudHomeModule</title>
<path fill="none" stroke="black" d="M547.15,-84.91C547.15,-84.91 547.15,-103.79 547.15,-103.79"/>
<polygon fill="black" stroke="black" points="543.65,-103.79 547.15,-113.79 550.65,-103.79 543.65,-103.79"/>
</g>
<!-- LogoModule -->
<g id="node5" class="node">
<title>LogoModule</title>
<polygon fill="#8dd3c7" stroke="black" points="482.6,-84.8 479.6,-88.8 458.6,-88.8 455.6,-84.8 393.4,-84.8 393.4,-48.8 482.6,-48.8 482.6,-84.8"/>
<text text-anchor="middle" x="438" y="-62.6" font-family="Times,serif" font-size="14.00">LogoModule</text>
</g>
<!-- LogoModule&#45;&gt;RegionSudHomeModule -->
<g id="edge4" class="edge">
<title>LogoModule&#45;&gt;RegionSudHomeModule</title>
<path fill="none" stroke="black" d="M460.28,-84.91C460.28,-84.91 460.28,-103.79 460.28,-103.79"/>
<polygon fill="black" stroke="black" points="456.78,-103.79 460.28,-113.79 463.78,-103.79 456.78,-103.79"/>
</g>
<!-- MillionroadsProductModule -->
<g id="node6" class="node">
<title>MillionroadsProductModule</title>
<polygon fill="#8dd3c7" stroke="black" points="375.93,-84.8 372.93,-88.8 351.93,-88.8 348.93,-84.8 200.07,-84.8 200.07,-48.8 375.93,-48.8 375.93,-84.8"/>
<text text-anchor="middle" x="288" y="-62.6" font-family="Times,serif" font-size="14.00">MillionroadsProductModule</text>
</g>
<!-- MillionroadsProductModule&#45;&gt;RegionSudHomeModule -->
<g id="edge5" class="edge">
<title>MillionroadsProductModule&#45;&gt;RegionSudHomeModule</title>
<path fill="none" stroke="black" d="M288,-84.82C288,-102.17 288,-125.8 288,-125.8 288,-125.8 427.85,-125.8 427.85,-125.8"/>
<polygon fill="black" stroke="black" points="427.85,-129.3 437.85,-125.8 427.85,-122.3 427.85,-129.3"/>
</g>
<!-- PartnershipLogosModule -->
<g id="node7" class="node">
<title>PartnershipLogosModule</title>
<polygon fill="#8dd3c7" stroke="black" points="182.31,-84.8 179.31,-88.8 158.31,-88.8 155.31,-84.8 23.69,-84.8 23.69,-48.8 182.31,-48.8 182.31,-84.8"/>
<text text-anchor="middle" x="103" y="-62.6" font-family="Times,serif" font-size="14.00">PartnershipLogosModule</text>
</g>
<!-- PartnershipLogosModule&#45;&gt;RegionSudHomeModule -->
<g id="edge6" class="edge">
<title>PartnershipLogosModule&#45;&gt;RegionSudHomeModule</title>
<path fill="none" stroke="black" d="M103,-85.08C103,-106.12 103,-137.8 103,-137.8 103,-137.8 427.83,-137.8 427.83,-137.8"/>
<polygon fill="black" stroke="black" points="427.83,-141.3 437.83,-137.8 427.83,-134.3 427.83,-141.3"/>
</g>
</g>
</svg>
