<?xml version="1.0" encoding="UTF-8" standalone="no"?>
<!DOCTYPE svg PUBLIC "-//W3C//DTD SVG 1.1//EN"
 "http://www.w3.org/Graphics/SVG/1.1/DTD/svg11.dtd">
<!-- Generated by graphviz version 2.47.3 (20210619.1520)
 -->
<!-- Title: dependencies Pages: 1 -->
<svg width="454pt" height="247pt"
 viewBox="0.00 0.00 454.00 246.80" xmlns="http://www.w3.org/2000/svg" xmlns:xlink="http://www.w3.org/1999/xlink">
<g id="graph0" class="graph" transform="scale(1 1) rotate(0) translate(4 242.8)">
<title>dependencies</title>
<polygon fill="white" stroke="transparent" points="-4,4 -4,-242.8 450,-242.8 450,4 -4,4"/>
<text text-anchor="middle" x="223" y="-8.2" font-family="sans-serif" font-size="14.00">dependencies</text>
<g id="clust1" class="cluster">
<title>cluster_AdminLogoModule</title>
<polygon fill="none" stroke="black" stroke-dasharray="1,5" points="8,-32.8 8,-230.8 438,-230.8 438,-32.8 8,-32.8"/>
</g>
<g id="clust5" class="cluster">
<title>cluster_AdminLogoModule_exports</title>
<polygon fill="none" stroke="black" points="120,-170.8 120,-222.8 290,-222.8 290,-170.8 120,-170.8"/>
</g>
<g id="clust7" class="cluster">
<title>cluster_AdminLogoModule_providers</title>
<polygon fill="none" stroke="black" points="190,-40.8 190,-92.8 430,-92.8 430,-40.8 190,-40.8"/>
</g>
<g id="clust2" class="cluster">
<title>cluster_AdminLogoModule_declarations</title>
<polygon fill="none" stroke="black" points="16,-40.8 16,-92.8 182,-92.8 182,-40.8 16,-40.8"/>
</g>
<!-- AdminLogoComponent -->
<g id="node1" class="node">
<title>AdminLogoComponent</title>
<polygon fill="#ffffb3" stroke="black" points="173.77,-84.8 24.23,-84.8 24.23,-48.8 173.77,-48.8 173.77,-84.8"/>
<text text-anchor="middle" x="99" y="-62.6" font-family="Times,serif" font-size="14.00">AdminLogoComponent</text>
</g>
<!-- AdminLogoModule -->
<g id="node2" class="node">
<title>AdminLogoModule</title>
<polygon fill="#8dd3c7" stroke="black" points="268.99,-149.8 265.99,-153.8 244.99,-153.8 241.99,-149.8 141.01,-149.8 141.01,-113.8 268.99,-113.8 268.99,-149.8"/>
<text text-anchor="middle" x="205" y="-127.6" font-family="Times,serif" font-size="14.00">AdminLogoModule</text>
</g>
<!-- AdminLogoComponent&#45;&gt;AdminLogoModule -->
<g id="edge1" class="edge">
<title>AdminLogoComponent&#45;&gt;AdminLogoModule</title>
<path fill="none" stroke="black" d="M157.45,-84.91C157.45,-84.91 157.45,-103.79 157.45,-103.79"/>
<polygon fill="black" stroke="black" points="153.95,-103.79 157.45,-113.79 160.95,-103.79 153.95,-103.79"/>
</g>
<!-- AdminLogoComponent  -->
<g id="node3" class="node">
<title>AdminLogoComponent </title>
<polygon fill="#fb8072" stroke="black" points="281.77,-214.8 128.23,-214.8 128.23,-178.8 281.77,-178.8 281.77,-214.8"/>
<text text-anchor="middle" x="205" y="-192.6" font-family="Times,serif" font-size="14.00">AdminLogoComponent </text>
</g>
<!-- AdminLogoModule&#45;&gt;AdminLogoComponent  -->
<g id="edge2" class="edge">
<title>AdminLogoModule&#45;&gt;AdminLogoComponent </title>
<path fill="none" stroke="black" stroke-dasharray="5,2" d="M205,-149.91C205,-149.91 205,-168.79 205,-168.79"/>
<polygon fill="black" stroke="black" points="201.5,-168.79 205,-178.79 208.5,-168.79 201.5,-168.79"/>
</g>
<!-- AdminApplicationService -->
<g id="node4" class="node">
<title>AdminApplicationService</title>
<ellipse fill="#fdb462" stroke="black" cx="310" cy="-66.8" rx="112.32" ry="18"/>
<text text-anchor="middle" x="310" y="-62.6" font-family="Times,serif" font-size="14.00">AdminApplicationService</text>
</g>
<!-- AdminApplicationService&#45;&gt;AdminLogoModule -->
<g id="edge3" class="edge">
<title>AdminApplicationService&#45;&gt;AdminLogoModule</title>
<path fill="none" stroke="black" d="M233.29,-80.27C233.29,-80.27 233.29,-103.66 233.29,-103.66"/>
<polygon fill="black" stroke="black" points="229.79,-103.66 233.29,-113.66 236.79,-103.66 229.79,-103.66"/>
</g>
</g>
</svg>
